<svg width="24" height="24" viewBox="0 0 110 110" fill="none" xmlns="http://www.w3.org/2000/svg" xmlns:xlink="http://www.w3.org/1999/xlink">
	<path d="M77.02 52.95C77.1841 52.8818 77.3442 52.8049 77.5 52.72C77.5898 52.6741 77.6685 52.6091 77.73 52.5298C77.73 52.4299 77.73 52.4299 77.6602 52.3799C77.5903 52.3298 77.3501 52.23 77.1201 52.1399L76.7603 52.0098L76.6602 52.0098L76.25 51.9199L75.0503 51.5898L65.4302 49.46C62.1602 48.73 58.8604 48.1399 55.5903 47.2998L49.8901 45.8198C47.5371 45.2769 45.2305 44.5513 42.9902 43.6499L42.1602 43.1599C41.897 43.0293 41.6543 42.8608 41.4399 42.6599C41.085 42.3716 40.772 42.0349 40.5103 41.6599C40.2842 41.3667 40.0771 41.0593 39.8901 40.74C39.8213 40.6646 39.7759 40.5708 39.7603 40.47C39.7485 40.3296 39.7729 40.1885 39.8301 40.0598C39.9082 39.8652 40.0088 39.6807 40.1299 39.5098C40.7017 38.7273 41.4058 38.0505 42.21 37.5098C43.5376 36.7085 44.9536 36.0642 46.4302 35.5898C48.0601 35 49.73 34.45 51.4302 33.9099L53.4302 33.2798L54.8901 32.8098L61.1602 30.8799C66.1602 29.3599 71.0601 27.5898 75.9199 25.8799C79.0303 24.7698 82.1201 23.5698 85.21 22.4099C86.77 21.8633 88.3301 21.3066 89.8901 20.74L92.23 19.95C93.02 19.7 93.8501 19.5698 94.6602 19.3799C96.6602 18.96 96.8501 19.9399 95.73 21.8398C95.0425 23.0664 94.1499 24.1658 93.0903 25.0898C91.7446 26.2688 90.2095 27.2122 88.5503 27.8799C85.3701 29.1699 82.1699 30.3799 78.96 31.5398C77.3604 32.1199 75.75 32.6899 74.1401 33.23L69.2603 34.7698C66.0137 35.7698 62.7534 36.7366 59.48 37.6699L54.5801 39.0598C54.4902 39.0598 54.3301 39.1399 54.3203 39.1299L54.1299 39.1299L53.8403 39.1299L53.1201 39.22C52.4346 39.3301 51.7632 39.5181 51.1201 39.7798C51.04 39.7798 50.9399 39.8599 50.9102 39.9399C50.8799 40.0198 51.0103 40.0198 51.0601 40.0598L51.46 40.23C51.7402 40.3398 52.04 40.4399 52.3301 40.5398L53.3301 40.8098L54.5303 41.0898L60.5303 42.3198C64.7002 43.1599 68.9199 43.9299 73.1401 44.71L80.52 46.0698C82.1616 46.3384 83.7871 46.6956 85.3901 47.1399C86.4731 47.5842 87.5005 48.155 88.4502 48.8398C88.6396 48.9995 88.8198 49.1697 88.9902 49.3499C89.2178 49.5466 89.3638 49.821 89.3999 50.1199C89.3994 50.8677 89.1763 51.5986 88.7603 52.22C88.3506 52.9146 87.8569 53.5562 87.29 54.1299C85.8354 55.5164 84.2285 56.7341 82.5 57.7598C82.0601 58.0498 81.5903 58.3198 81.1401 58.5999C80.6899 58.8799 80.1401 59.1699 79.8999 59.3098L77.9902 60.3098C76.71 60.99 75.4199 61.6399 74.1201 62.3098C66.269 66.0046 58.1929 69.2009 49.9399 71.8799C43.6001 74.0198 37.3999 76.23 30.9399 77.96C29.5303 78.3398 28.1499 78.7698 26.7002 79.0798C24.8164 79.5981 22.8594 79.7976 20.9102 79.6699C20.3262 79.5684 19.7666 79.3582 19.2603 79.0498C18.8032 78.7312 18.3955 78.3472 18.0503 77.9099C17.7188 77.5684 17.4111 77.2041 17.1299 76.8198C16.79 76.23 17.1299 75.6099 17.9902 74.74C19.1538 73.6821 20.5742 72.9478 22.1104 72.6099C33.1104 69.4099 44.71 66.23 56 62.0498C60.1899 60.5 64.3403 58.8298 68.3999 57.0498C70.3999 56.1299 72.3999 55.1699 74.3999 54.1499L75.8901 53.3699L76.6001 52.97L76.6699 52.97L76.8501 52.9099L77.02 52.95Z" fill-rule="evenodd" fill="currentColor"/>
	<path d="M73.1401 16.6599C74.2124 16.5024 75.2739 16.2822 76.3203 16C76.7002 15.8999 77.0503 15.6899 77.4404 15.5901C78.8003 15.1899 80.25 14.9199 81.6401 14.47C82.2534 14.269 82.8545 14.032 83.4404 13.76C84.1826 13.3599 84.9932 13.1021 85.8301 13C86.1001 13 86.2104 13.4399 86.1802 14C86.1821 14.5208 85.9644 15.0181 85.5801 15.3701C84.1963 16.2583 82.7085 16.9736 81.1504 17.5C80.1504 17.8 79.3003 18.4099 78.3203 18.79C77.3403 19.1699 76.1401 19.5901 75.02 19.9299C74.3301 20.1201 73.6401 20.3101 72.9302 20.48C71.8804 20.75 70.79 20.9199 69.73 21.1799C68.9204 21.4099 68.1304 21.79 67.3003 22.1101C67.1104 22.1699 66.9302 22.26 66.7402 22.3C66.04 22.4399 65.8003 22.1699 65.6201 21.03C65.6201 20.77 65.5303 20.51 65.5103 20.24C65.353 19.5486 65.5737 18.8257 66.0903 18.3401C67.3115 17.686 68.6509 17.2815 70.0303 17.1499C71.0303 16.99 72.0303 16.8601 73.1104 16.6201L73.1401 16.6599Z" fill-rule="evenodd" fill="currentColor"/>
	<path d="M47.8301 84.8C47.0303 85.02 46.2002 85.1702 45.3604 85.3301L42.8901 85.8201C42.29 85.95 41.7202 86.2 41.1104 86.3101C38.96 86.6899 36.79 87.01 34.6401 87.3101C33.6904 87.46 32.7603 87.72 31.8403 87.96C31.2402 88.0701 30.6504 88.23 30.04 88.3201C29.4224 88.3901 28.7983 88.3901 28.1802 88.3201C27.79 88.3201 27.73 87.71 27.9204 87.04C28.0757 86.3008 28.5132 85.6514 29.1401 85.23L30.7803 84.5901C31.3301 84.3801 31.9102 84.22 32.48 84.0601C33.6387 83.7283 34.8179 83.4744 36.0103 83.3C37.457 82.9644 38.8643 82.4783 40.21 81.8501L44.8901 80.2C45.8901 79.9001 46.8901 79.6201 47.8301 79.3C49.3003 78.8101 50.8301 78.3901 52.2402 77.77C53.3301 77.2126 54.3823 76.5845 55.3901 75.8901C55.6304 75.75 55.8403 75.5601 56.0801 75.45C57 75.04 57.4204 75.29 58.0801 76.6401C58.23 76.95 58.3901 77.25 58.52 77.5701C58.98 78.4055 58.9014 79.4341 58.3203 80.1899C56.6606 81.6331 54.7197 82.7158 52.6201 83.3701C51.0801 83.9399 49.48 84.3701 47.8901 84.9202L47.8301 84.8Z" fill-rule="evenodd" fill="currentColor"/>
	<defs/>
</svg>
