<svg width="24" height="24" viewBox="0 0 110 110" fill="none" xmlns="http://www.w3.org/2000/svg" xmlns:xlink="http://www.w3.org/1999/xlink">
	<path d="M26.0264 68.1663C25.625 68.9951 25.3457 69.8774 25.1963 70.7861C24.9766 72.0461 24.8965 73.4363 24.7163 74.9963C24.6572 75.6309 24.564 76.2617 24.4365 76.8862C24.4365 77.0562 24.3467 77.2363 24.2764 77.4463C24.2046 77.6653 24.1177 77.8792 24.0166 78.0862C23.8926 78.3416 23.7417 78.5828 23.5664 78.8062C22.936 79.564 22.0024 80.0034 21.0166 80.0063C20.4155 80.0032 19.8271 79.8337 19.3164 79.5161C18.6519 79.0579 18.1313 78.4197 17.8164 77.6763C17.4209 76.7478 17.1587 75.7681 17.0366 74.7661L16.9463 74.0962C16.9463 74.0063 16.9463 73.8462 16.9463 73.8062L16.9463 73.1663C16.9463 72.8062 16.9463 72.3862 16.9463 71.9463C16.9561 71.7529 16.9561 71.5593 16.9463 71.3662C16.9463 70.8862 16.4766 70.5161 16.1367 70.8162C15.832 71.1113 15.6025 71.4746 15.4663 71.8762C15.3027 72.3464 15.1724 72.8276 15.0767 73.3162L14.9966 73.6162L14.9966 73.7761L14.8667 74.1262C14.7065 74.5562 14.5366 74.9863 14.3765 75.4263C14.2764 75.6663 14.0464 75.6963 13.7163 75.7463C13.2734 75.7847 12.835 75.636 12.5063 75.3362C12.0708 74.936 11.7295 74.4443 11.5063 73.8962C11.3491 73.616 11.228 73.3169 11.1465 73.0063C11.1357 72.4397 11.1826 71.8733 11.2866 71.3162C11.4365 70.4839 11.6406 69.6624 11.8965 68.8562C12.1313 68.1445 12.4678 67.4709 12.8965 66.8562C13.2178 66.3569 13.6045 65.9028 14.0464 65.5063C14.4004 65.2012 14.7939 64.9456 15.2163 64.7463C15.625 64.5649 16.061 64.4534 16.5063 64.4163C17.0317 64.3682 17.561 64.4365 18.0566 64.6162C18.2939 64.7134 18.5244 64.8271 18.7466 64.9563C18.9004 65.0706 19.0474 65.1941 19.1865 65.3262C19.4546 65.6108 19.6929 65.9226 19.8965 66.2563C20.0562 66.5796 20.1934 66.9138 20.3066 67.2563C20.436 67.7131 20.5166 68.1824 20.5464 68.6562C20.6465 69.6562 20.6465 70.8062 20.6865 71.8062L20.6865 72.6763L20.7363 73.3862C20.7363 73.6863 20.7866 73.9763 20.8267 74.2661C20.895 74.7856 21.0225 75.2957 21.2065 75.7861C21.2505 75.9236 21.3184 76.0522 21.4067 76.1663C21.4663 76.1663 21.3066 76.2463 21.2163 76.3562L21.0767 76.5361L20.9966 76.6362C20.9746 76.6753 20.9546 76.7153 20.9365 76.7563L20.9365 76.5862L20.9365 76.4663C20.9365 76.4062 21.0464 76.9863 20.9863 76.7363C20.9863 76.6562 20.9863 76.7363 20.8765 76.6062L20.7563 76.4963L20.6963 76.4963L20.5864 76.4163C20.501 76.3401 20.4028 76.2791 20.2964 76.2363C20.3013 76.1863 20.3013 76.1362 20.2964 76.0862C20.4409 75.5398 20.5312 74.9805 20.5664 74.4163L20.7266 72.2961C20.7983 70.7239 21.0605 69.1658 21.5063 67.6562C21.9087 66.5054 22.6514 65.5044 23.6367 64.7861C24.1655 64.4333 24.7612 64.1919 25.3867 64.0762C26.021 63.9265 26.6821 63.9265 27.3164 64.0762C28.2168 64.3132 29.0273 64.8105 29.6465 65.5063C30.1714 66.0845 30.6216 66.7261 30.9863 67.4163C31.6455 68.6692 32.2266 69.9617 32.7266 71.2861C33.5093 73.2019 34.394 75.0747 35.3765 76.8962C35.5767 77.2861 35.8267 77.6362 36.0166 77.9863C36.3564 78.6562 36.5264 79.0562 36.4263 79.4163C36.2158 79.9001 35.9175 80.3408 35.5464 80.7163C35.3467 80.9563 35.1763 81.2363 34.9863 81.4863C34.6738 81.9172 34.1392 82.1279 33.6167 82.0261C32.9429 81.9243 32.3379 81.5571 31.9365 81.0063C30.8213 79.3186 29.9619 77.4753 29.3867 75.5361C28.7964 73.7363 28.3267 71.9363 27.7466 70.3762C27.5483 69.8508 27.3213 69.3367 27.0664 68.8362C26.9082 68.5415 26.7207 68.2634 26.5063 68.0063C26.4263 67.9263 26.5063 67.8762 26.3765 68.0063C26.2466 68.1362 26.1865 68.1663 26.1064 68.3062L26.0264 68.1663Z" fill-rule="evenodd" fill="currentColor"/>
	<path d="M72.9663 49.0063L75.1963 47.4663L77.3564 45.8364C78.0962 45.3164 78.7666 44.7363 79.4663 44.1663C80.1665 43.5964 80.8462 43.0264 81.4663 42.4263C82.7427 41.3105 83.9292 40.0969 85.0166 38.7964C85.9673 37.6843 86.6909 36.3967 87.1465 35.0063C87.3901 34.1541 87.4282 33.2561 87.2563 32.3865C87.0405 31.5225 86.6489 30.7124 86.1064 30.0063C84.8525 28.4636 83.2842 27.2058 81.5063 26.3164C79.4951 25.2747 77.3711 24.4661 75.1763 23.9062C70.5581 22.7539 65.8164 22.1665 61.0566 22.1562C56.7642 22.1628 52.4761 22.4299 48.2163 22.9563C42.7563 23.6064 37.2866 24.5063 31.8662 25.6265C30.1763 25.9463 30.3564 25.7263 31.7065 25.1064C32.3765 24.7964 33.3462 24.3865 34.5264 23.9062C35.7065 23.4263 37.1064 22.9062 38.6465 22.4563L42.7666 21.2563C44.1465 20.8965 45.5366 20.5164 46.9365 20.1763C49.7568 19.4702 52.6196 18.9424 55.5063 18.5964C61.3325 17.8013 67.2402 17.8013 73.0664 18.5964C76.7466 19.0889 80.3594 19.9944 83.8364 21.2964C85.7246 22.0437 87.4854 23.0793 89.0566 24.3665C90.8091 25.781 92.1523 27.6384 92.9463 29.7463C93.7695 32.1448 93.8115 34.7424 93.0664 37.1663C92.3887 39.3428 91.3174 41.3762 89.9062 43.1663C87.3228 46.2881 84.4092 49.1211 81.2163 51.6165C77.3989 54.6233 73.3457 57.3186 69.0962 59.6763C62.6812 63.2087 55.9146 66.0608 48.9062 68.1863C47.5767 68.6863 46.2163 69.0264 44.9062 69.4463C43.5962 69.8665 42.2363 70.3164 40.9062 70.6562C38.1963 71.2964 35.4966 72.1365 32.6963 72.5264C31.4766 72.7363 30.2866 73.0063 29.0366 73.1763C28.0654 73.3066 27.0835 73.3369 26.1064 73.2664C25.4292 73.248 24.7573 73.144 24.1064 72.9563C23.1426 72.6995 22.3394 72.0347 21.9062 71.1365C21.6577 70.7354 21.4434 70.3137 21.2666 69.8765C20.8462 68.4563 22.6465 67.1763 25.7764 66.5364C28.1064 66.1465 30.4263 65.5364 32.7764 65.1265C33.9565 64.9363 35.1162 64.6265 36.2866 64.3364L39.7964 63.5264C44.5039 62.3203 49.1357 60.8342 53.6665 59.0764C60.4478 56.4597 66.8906 53.0386 72.8564 48.8865L72.9663 49.0063Z" fill-rule="evenodd" fill="currentColor"/>
	<path d="M27.1064 84.0063C23.2627 83.2759 19.4932 82.1946 15.8467 80.7764C14.3999 80.2576 13.0122 79.5872 11.7065 78.7764C10.2598 77.8689 9.10938 76.5586 8.39648 75.0063C8.01172 74.0559 7.90381 73.0156 8.08643 72.0063C8.26025 71.0886 8.63623 70.2209 9.18652 69.4663C9.6001 68.9214 10.0405 68.3975 10.5063 67.8965C10.9365 67.4265 11.4067 66.9863 11.8467 66.5364C12.7866 65.6665 13.7266 64.8264 14.7168 64.0764C16.4468 62.6963 18.2168 61.4563 19.8467 60.1665C21.9565 58.5063 23.7666 56.7463 25.8467 55.1665C26.4868 54.6765 27.2065 55.3765 27.4868 56.5864C27.8345 58.0886 27.415 59.6655 26.3667 60.7964C24.3257 62.7566 22.1616 64.5837 19.8867 66.2664C17.7954 67.7632 15.792 69.3792 13.8867 71.1064C13.4585 71.4648 13.0879 71.8865 12.7866 72.3564C12.6567 72.5967 12.6567 72.8862 12.7866 73.1265C13.0083 73.5322 13.3281 73.876 13.7168 74.1265C14.2793 74.5371 14.8784 74.8953 15.5063 75.1963C18.6899 76.7048 22.0493 77.8101 25.5063 78.4863C26.5967 78.7163 27.7065 78.9265 28.8066 79.1165L30.4766 79.3765L31.5264 79.5264C31.9766 79.5264 32.4565 79.6365 32.9468 79.6465C33.2666 79.7263 33.3164 79.4065 33.3164 79.1963C33.3364 78.9634 33.3364 78.7292 33.3164 78.4963C33.2485 77.9939 33.1484 77.4961 33.0166 77.0063C32.7964 76.1963 32.5464 75.3765 32.2764 74.5664C31.4365 72.0564 30.2764 69.6963 29.1768 67.2664C28.9365 66.7263 28.6567 66.2664 28.4468 65.6665C27.6567 63.6165 27.7563 62.7964 28.9268 61.9265C29.1777 61.7153 29.4453 61.5249 29.7266 61.3564C30.7266 60.8665 31.7266 61.3564 32.5664 62.7864C33.8164 64.905 34.9126 67.1106 35.8467 69.3865C36.3267 70.5464 36.7964 71.7363 37.1968 72.9663C37.3965 73.5764 37.5864 74.2063 37.7666 74.8464L38.0566 75.8965C38.2065 76.4963 38.3667 77.0964 38.4766 77.7063C38.8564 79.5063 39.0063 81.3264 38.3867 82.5364L38.1768 83.0063C38.0928 83.1614 37.9961 83.3086 37.8867 83.4463L37.7964 83.5464L37.7964 83.6064C37.7964 83.5564 37.8965 83.7063 37.6768 83.5063L37.4868 83.6665L37.1367 83.9563C36.9116 84.1885 36.6519 84.3843 36.3667 84.5364C36.0005 84.6704 35.6162 84.748 35.2266 84.7664C34.3345 84.8357 33.4385 84.8357 32.5464 84.7664L31.1665 84.6265L30.0767 84.4963C29.0767 84.3665 28.1367 84.2163 27.1768 84.0564L27.1064 84.0063Z" fill-rule="evenodd" fill="currentColor"/>
	<defs/>
</svg>
