<svg width="24" height="24" viewBox="0 0 110 110" fill="none" xmlns="http://www.w3.org/2000/svg" xmlns:xlink="http://www.w3.org/1999/xlink">
	<path d="M53.5508 51.8799L50.0508 39.1099L49.6206 37.6099L49.5605 37.3501L49.4106 36.7002L49.3105 36.3398C49.3105 36.23 49.2007 36.02 49.1606 36.1899L48.8506 36.7402C48.7305 36.9502 48.6709 37.0498 48.4507 37.4902L48.1309 38.1401L47.5508 39.3501L46.4009 41.8101L45.2207 44.2598L44.6206 45.4902L43.7505 47.1899L42.8408 49L41.8408 50.7002L41.6006 51.1201L41.3506 51.4302L40.8408 52.04C40.5444 52.4082 40.209 52.7437 39.8408 53.04C39.5918 53.2173 39.3276 53.3711 39.0508 53.5L38.6606 53.6099C38.584 53.6147 38.5073 53.6147 38.4307 53.6099L38.3408 53.6099C38.3408 53.6802 38.3906 53.0098 38.3408 53.29L38.2207 53.29C37.9805 53.1802 37.7905 53.0601 37.5605 52.9302C37.2949 52.813 37.0513 52.6504 36.8408 52.4502C36.2632 51.6694 35.8452 50.7822 35.6108 49.8398C35.2607 48.7402 34.9507 47.6001 34.6108 46.4702L33.9106 43.8599L33.3906 41.8599L32.3906 37.7998L30.3906 29.7002L29.6509 26.8999C29.4863 26.2505 29.2896 25.6099 29.0605 24.98C29.0605 24.8999 28.9907 24.8198 28.9404 24.7402C28.8906 24.6602 28.8105 24.7402 28.7808 24.8301L28.5405 25.25C28.4009 25.54 28.2505 25.8398 28.1108 26.1499C27.9707 26.46 27.8408 26.77 27.7104 27.0898L27.2305 28.3101C26.2305 30.9199 25.2305 33.5498 24.2305 36.1699C23.3042 38.5835 22.4009 41.0098 21.5205 43.4502C21.0708 44.6699 20.6108 45.8799 20.1309 47.1001L19.3809 48.9199C19.0508 49.5498 18.9009 50 18.3008 51.0098L17.9604 51.4502L17.8408 51.3999L17.7905 51.3999L17.6807 51.3999L17.4507 51.5C17.2817 51.5757 17.1035 51.6294 16.9209 51.6602C16.7104 51.6602 16.5107 51.6602 16.3105 51.6602L14.5806 51.5L11.5806 51.1602C9.66064 50.8999 9.58057 50.6001 10.8506 50.2402C11.4604 50.0601 12.3906 49.8501 13.5508 49.6001L15.4604 49.21C15.9106 49.1401 15.9106 49.1001 15.9604 49.0498C15.9922 49.0049 15.9922 48.9448 15.9604 48.8999L15.9604 48.8398C15.9604 48.8398 15.9604 48.8398 15.9604 48.6401L16.1509 47.8501C16.2949 47.2881 16.4683 46.7339 16.6709 46.1899L20.1509 35.77C20.7407 34.02 21.3306 32.27 21.9507 30.5298L22.9507 27.9199L23.4604 26.6201C23.5605 26.3701 23.9404 25.2598 24.2905 24.4902L25.2905 22C25.6509 21.2202 26.0508 20.5698 26.4209 19.8599C26.6108 19.5298 26.8008 19.1201 26.9907 18.8599L27.5708 18.52L28.1406 18.1802C28.2144 18.1201 28.3057 18.085 28.4009 18.0801L28.6309 18.0801L29.1108 18C29.3184 18.0068 29.5239 18.0439 29.7207 18.1099C30.085 18.2617 30.4229 18.4712 30.7207 18.73C31.4307 19.2598 32.0605 20.73 32.5908 22.3398C32.8506 23.1401 33.1108 23.9502 33.3608 24.77L33.7305 26L33.9209 26.6099L34.0107 26.96L34.7407 29.6602L36.1206 35.0498C36.8506 37.9502 37.5806 40.9399 38.3706 43.8198C38.4907 44.2798 38.6206 44.8198 38.7607 45.2402C38.8286 45.4775 38.9087 45.7109 39.0005 45.9399C39.0005 46.1401 39.1807 45.9399 39.2305 45.8501L39.4209 45.5298C39.6606 45.1201 39.8706 44.7002 40.0908 44.2798L41.7407 40.96L43.8906 36.5498L47.0508 29.9399L47.9707 28.8198L48.4209 28.2798L48.7808 28.0498L49.5005 27.5601C49.5005 27.5 49.7207 27.5601 49.7705 27.5601C49.8408 27.5977 49.9077 27.6411 49.9707 27.6899C50.103 27.7817 50.2271 27.8857 50.3408 28C50.9854 28.5923 51.4966 29.3149 51.8408 30.1201C52.3008 31.1899 52.7007 32.5098 53.0908 33.7598C54.0005 36.7598 54.3008 37.8398 54.7905 39.54L56.1807 44.3501C57.8408 50.2598 59.4404 56.1899 61.1807 62.04L61.8408 64.3501L62.2407 65.6602C62.4097 66.1069 62.6104 66.5415 62.8408 66.96C62.8408 66.96 62.8408 67.0698 62.9507 67.0898C62.998 67.0625 63.042 67.0288 63.0806 66.9902C63.1655 66.9116 63.2456 66.8281 63.3208 66.7402C63.4707 66.5801 63.6108 66.3999 63.7505 66.2202L64.4907 65.27L65.4404 63.96L67.9106 60.3501C68.9106 58.9302 69.9106 57.52 70.8408 56.1001C71.3359 55.3018 71.9419 54.5781 72.6406 53.9502C72.8994 53.7173 73.1772 53.5068 73.4707 53.3198L73.6709 53.1899C73.7305 53.1299 73.8809 53.1899 73.9507 53.1899C74.1064 53.2759 74.2539 53.3765 74.3906 53.4902C75.1611 54.2002 75.7773 55.0615 76.2007 56.02C76.4707 56.5801 76.7305 57.1699 76.9907 57.75L77.6807 59.3901L79.7505 64.3501C81.0908 67.6401 82.4307 70.9102 83.7505 74.1899C84.3306 75.6401 84.9404 77.04 85.5107 78.5098C85.6709 78.9102 85.8105 79.29 85.9404 79.6201C85.9648 79.7085 85.9946 79.7954 86.0308 79.8799C86.1006 79.9277 86.1782 79.9614 86.2607 79.98L86.6904 80.0801C86.6904 80.0801 87.1904 80.1699 87.4907 80.23C87.7905 80.29 88.1006 80.3501 88.3706 80.4199C89.2148 80.5874 90.0146 80.9277 90.7207 81.4199C91.0225 81.604 91.3071 81.8149 91.5708 82.0498C91.8506 82.3999 91.4209 82.73 90.3706 83.1201C89.7158 83.3516 89.0479 83.5454 88.3706 83.7002C87.9507 83.79 87.4907 83.8701 86.9805 83.9399C86.8008 83.9399 86.2705 84.02 85.8706 84.02C85.4243 84.0493 84.9771 84.0493 84.5308 84.02C84.0049 83.9512 83.5005 83.7705 83.0508 83.4902C82.8281 83.3379 82.6406 83.1401 82.5005 82.9102C82.3301 82.6909 82.1855 82.4526 82.0708 82.2002C81.4009 80.6499 80.7207 79.0898 80.0708 77.5098C79.4805 76.1001 78.8906 74.6899 78.3008 73.2598L74.8408 64.6201L73.9604 62.46L73.4907 61.3501L73.2607 60.8198L73.2607 60.7598C73.2607 60.7598 73.2104 60.7598 73.2007 60.7598L73.2007 60.8101L72.5308 61.8101L71.1709 63.8101L68.8408 67.0498L67.9404 68.3501L66.8408 69.8701L65.6206 71.3501C65.2305 71.8101 64.8208 72.1401 64.4307 72.5498C64.1846 72.7271 63.9106 72.8623 63.6206 72.9502L63.2305 73.1201C63.1108 73.1294 62.9902 73.1294 62.8706 73.1201C62.6387 73.1548 62.4028 73.1548 62.1709 73.1201C62.0361 73.1084 61.9028 73.0884 61.7705 73.0601L61.4307 72.96C60.938 72.79 60.4951 72.502 60.1406 72.1201C59.6357 71.5571 59.2451 70.9019 58.9907 70.1899C58.6606 69.3799 58.3608 68.52 58.0806 67.6499L57.3208 65.3501L56.5107 62.6602L53.4404 51.9199L53.5508 51.8799Z" fill-rule="evenodd" fill="currentColor"/>
	<defs/>
</svg>
