<svg width="24" height="24" viewBox="0 0 110 110" fill="none" xmlns="http://www.w3.org/2000/svg" xmlns:xlink="http://www.w3.org/1999/xlink">
	<path d="M84.3101 26.019C84.3101 25.9688 84.46 25.959 84.5601 25.8989C84.6597 25.8389 84.8101 25.7588 84.77 25.689C84.73 25.6187 84.6499 25.4189 84.46 25.2891C84.3799 25.2427 84.2915 25.2119 84.1997 25.1987L84.1299 25.1987L84 25.1987C83.8198 25.1494 83.6426 25.0894 83.4697 25.019C80.9678 24.0571 78.4014 23.272 75.79 22.6689C74.6226 22.4277 73.4395 22.2705 72.25 22.1987C70.7349 22.1616 69.2275 21.9741 67.75 21.6387C67.29 21.4888 67.3198 20.7188 67.75 19.9087C68.1494 19.0024 68.9541 18.3384 69.9199 18.1187C73.2017 17.7744 76.5186 18.1812 79.6196 19.3091C80.5684 19.6221 81.5371 19.8696 82.52 20.0488L84.0098 20.3687L84.75 20.5391C85.0298 20.6089 85.1597 20.6587 85.6196 20.769C86.4678 21.0044 87.2998 21.2949 88.1099 21.6387C88.8252 21.9175 89.4985 22.2944 90.1099 22.7588C90.6035 23.1523 91.0122 23.6421 91.3101 24.1987C91.4692 24.5063 91.5186 24.8594 91.4497 25.1987C91.3501 25.479 91.1899 25.729 91.0698 25.9888C90.9302 26.249 90.7588 26.4907 90.5601 26.709L90.27 27.0791C90.1802 27.2227 90.061 27.3452 89.9199 27.439C89.4697 27.9087 89 28.3389 88.5698 28.8091C88.1396 29.2788 87.6797 29.8091 87.4297 30.019C85.9785 31.3716 84.603 32.8042 83.3101 34.3091C82.3911 35.5327 81.543 36.8081 80.77 38.1289C80.5879 38.4028 80.3906 38.6665 80.1797 38.9189C79.3501 39.8389 78.79 39.8687 77.6899 39.3091C77.4399 39.189 77.1797 39.0791 76.9497 38.939C76.1685 38.4277 75.8447 37.4443 76.1699 36.5688C76.3872 35.8467 76.6411 35.1357 76.9297 34.439C77.2798 33.8091 77.6699 33.1987 78.0801 32.5991C78.9326 31.4155 79.854 30.2837 80.8398 29.209C81.5698 28.3989 82.3398 27.6187 83.1099 26.8491L83.6997 26.269L83.8501 26.1387L83.9297 26.0688C83.9863 26.0605 84.0435 26.0605 84.1001 26.0688L84.3101 26.019Z" fill-rule="evenodd" fill="currentColor"/>
	<path d="M38.6201 64.1592C38.2603 65.7305 38.0728 67.3369 38.0601 68.9487C38.0547 69.604 38.1392 70.2568 38.3101 70.8892C38.3491 71.0005 38.3828 71.1138 38.4102 71.229C38.4478 71.2954 38.478 71.3657 38.5 71.439C38.5801 71.5991 38.79 71.8091 38.9199 72.019C39.7695 72.7983 40.8994 73.1987 42.0498 73.1289C43.5938 73.0591 45.1064 72.6675 46.4902 71.979C47.5483 71.4766 48.5151 70.8008 49.3501 69.979C49.7158 69.6182 50.0503 69.2266 50.3501 68.8091C50.6699 68.3677 50.9512 67.8989 51.1899 67.4092C51.5947 66.667 51.8271 65.8433 51.8701 64.999C51.8779 64.2822 51.6572 63.5815 51.2402 62.999C50.707 62.2734 50.0249 61.6699 49.2402 61.229C48.3604 60.7368 47.4033 60.3989 46.4102 60.229C44.208 59.874 41.9556 59.9863 39.7998 60.5591C37.4941 61.1421 35.2632 61.9873 33.1499 63.0791C29.3091 65.0615 25.7783 67.5952 22.6699 70.5991C20.6406 72.4473 18.7617 74.4531 17.0498 76.5989C15.2212 78.665 13.6094 80.9133 12.2402 83.3091C11.4702 84.8091 11.0801 84.5291 11 82.8589C11.0146 80.1018 11.7305 77.3936 13.0801 74.9888C14.7334 72.3979 16.647 69.9824 18.79 67.7788C20.9565 65.6069 23.3237 63.6445 25.8599 61.9189C28.4077 60.1338 31.144 58.6348 34.02 57.4487C37.0068 56.168 40.2026 55.4429 43.4502 55.3091C47.4502 55.2188 52.04 56.3091 55.1401 59.999C55.9307 60.9873 56.4849 62.1436 56.7598 63.3789C57.0098 64.5928 57.0098 65.8452 56.7598 67.0591C56.4111 68.6904 55.7563 70.2412 54.8301 71.6289C54.5259 72.0967 54.1919 72.5444 53.8301 72.9688C52.2637 74.6572 50.377 76.0171 48.2798 76.969C46.1655 77.9648 43.8569 78.4805 41.52 78.479C40.252 78.4631 38.9966 78.2261 37.8101 77.7791C37.1934 77.5317 36.6064 77.2163 36.0601 76.8389L35.2598 76.239C35.0098 76.019 34.79 75.769 34.5601 75.5288C34.3228 75.2905 34.105 75.0332 33.9102 74.7588C33.71 74.4487 33.5098 74.1392 33.3398 73.8389C33.0513 73.2573 32.8232 72.6475 32.6602 72.019C32.3511 70.8906 32.1831 69.7285 32.1602 68.5591C32.1421 65.9155 32.5298 63.2847 33.3101 60.7588C34.0439 58.3022 35.0117 55.9214 36.2002 53.6489C39.8135 46.8955 44.9487 41.0752 51.2002 36.6489C53.5693 34.9507 56.0337 33.3882 58.5801 31.9688C61.1523 30.5752 63.8267 29.3784 66.5801 28.3892C67.7798 27.9092 68.98 27.5391 70.2202 27.1592C71.8267 26.6113 73.5283 26.4004 75.2202 26.5391C75.7119 26.5996 76.1914 26.7378 76.6401 26.9487C77.0078 27.1812 77.3442 27.46 77.6401 27.7788C77.9102 28.0488 78.2402 28.2788 78.4102 28.499C78.9302 29.1392 77.27 30.8091 74.21 31.9092C69.5913 33.3545 65.1133 35.2158 60.8301 37.4688C58.7295 38.6279 56.6992 39.9102 54.75 41.3091C52.8022 42.7407 50.9575 44.3076 49.23 45.999C46.6992 48.5259 44.4922 51.3574 42.6602 54.4292C40.8408 57.438 39.5269 60.7251 38.77 64.1592L38.6201 64.1592Z" fill-rule="evenodd" fill="currentColor"/>
	<defs/>
</svg>
