<svg width="24" height="24" viewBox="0 0 110 110" fill="none" xmlns="http://www.w3.org/2000/svg" xmlns:xlink="http://www.w3.org/1999/xlink">
	<path d="M38.7642 66.979C41.1343 67.8862 43.6567 68.3311 46.1943 68.2891C48.9727 68.2617 51.7397 67.9263 54.4443 67.2891C56.4443 66.8188 58.4443 66.0991 60.4443 65.439C63.8843 64.3389 67.7041 62.749 71.8643 61.9092C74.0044 61.4458 76.1992 61.2842 78.3843 61.4292C80.6348 61.6211 82.8159 62.3037 84.7744 63.4292C86.5356 64.4141 88.0718 65.7559 89.2842 67.3691C90.4761 68.9443 91.2935 70.7705 91.6743 72.709C92.6519 77.5273 91.2056 82.519 87.8042 86.0691C86.8042 87.1189 86.5044 86.5291 86.6543 85.219C86.7544 84.5791 86.8442 83.699 87.0044 82.759C87.0044 82.269 87.1343 81.759 87.2041 81.259C87.2744 80.759 87.374 80.259 87.4443 79.6689C87.79 77.8521 87.79 75.9858 87.4443 74.1689C87.1069 72.5444 86.292 71.0576 85.104 69.8989C83.8926 68.7715 82.3892 68.0059 80.7642 67.689C80.3525 67.5864 79.9351 67.5098 79.5142 67.459C79.084 67.459 78.6641 67.3691 78.2144 67.3291C77.2896 67.2485 76.3594 67.2485 75.4341 67.3291C72.9165 67.6025 70.4585 68.2778 68.1543 69.3291C66.9243 69.8389 65.644 70.3989 64.2744 70.9292C62.9043 71.459 61.5742 71.9292 60.1841 72.3691C57.1206 73.3164 53.9829 74.0059 50.8042 74.4292C47.5234 74.8818 44.1938 74.8447 40.9243 74.3188C36.7065 73.6816 32.8032 71.7124 29.7842 68.6992C25.438 64.1016 23.2021 57.9023 23.6143 51.5889C23.7241 49.2725 23.998 46.9668 24.4341 44.689C24.8809 42.4385 25.4995 40.2251 26.2842 38.0688C26.6035 37.1226 27.0049 36.2056 27.4844 35.3291C29.374 32.0991 30.4844 31.3789 31.8843 31.3291C32.2002 31.2993 32.5181 31.2993 32.8345 31.3291C33.7842 31.519 33.6543 33.1489 32.9844 35.6289C32.7144 36.5391 32.4941 37.4688 32.2642 38.3892C32.0342 39.3091 31.7144 40.1689 31.5044 41.0688C31.0049 42.8164 30.5977 44.5889 30.2842 46.3789C30.0049 48.1084 29.8613 49.8569 29.854 51.6089C29.8892 53.2612 30.0869 54.9058 30.4443 56.519C30.5342 57.1089 30.7842 57.6489 30.9243 58.229C31.0645 58.8091 31.374 59.3091 31.5742 59.8691C31.7744 60.4292 32.144 60.8691 32.4141 61.439C32.6841 62.0088 33.0845 62.3691 33.4141 62.8589C34.8027 64.6733 36.6743 66.0596 38.8145 66.8589L38.7642 66.979Z" fill-rule="evenodd" fill="currentColor"/>
	<path d="M24.9941 19.4585C27.5142 17.4585 31.0645 14.7485 35.8345 15.0186C37.4927 15.1157 39.0977 15.6396 40.4941 16.5386C42.4912 17.9932 44.1294 19.8848 45.2842 22.0688C46.3354 23.9917 47.2251 25.9985 47.9443 28.0688C48.624 29.8188 49.3843 31.5186 50.144 33.1587C51.144 35.2485 52.0342 37.3589 52.8242 39.4189C53.0645 40.0586 52.4741 40.4189 51.4541 40.4189C50.1299 40.2964 48.9126 39.6392 48.0845 38.5986C47.7041 38.0786 47.3442 37.5586 47.0044 37.0386L46.4844 36.2588L46.0542 35.4487C45.4941 34.3789 44.9644 33.3086 44.4541 32.2485C43.4541 30.1187 42.4541 28.0386 41.6143 25.9888C40.7388 23.7349 39.0659 21.8809 36.9141 20.7788C35.9312 20.3389 34.8213 20.2749 33.7944 20.5986C32.4927 21.0068 31.2666 21.625 30.1641 22.4287C28.5947 23.5249 27.1104 24.7383 25.7241 26.0586C23.5527 28.0581 21.5713 30.2544 19.8042 32.6187C18.5322 34.4951 17.4023 36.4639 16.4243 38.5088C16.1841 38.9487 15.9941 39.3989 15.7344 39.8286C15.5454 40.1792 15.3281 40.5142 15.0845 40.8286C14.8882 41.0391 14.6582 41.2148 14.4043 41.3486C13.9136 41.5684 13.3623 41.6104 12.8442 41.4688C12.5576 41.4292 12.2739 41.3726 11.9941 41.2988C11.1343 41.0288 10.8042 39.9487 11.1143 38.4585C11.4438 37.3711 11.8345 36.3027 12.2842 35.2588C12.75 34.2329 13.2671 33.2319 13.8345 32.2588C14.9897 30.3105 16.29 28.4521 17.7241 26.6987C19.8916 24.0156 22.3052 21.5415 24.9341 19.3086L24.9941 19.4585Z" fill-rule="evenodd" fill="currentColor"/>
	<defs/>
</svg>
