<svg width="24" height="24" viewBox="0 0 110 110" fill="none" xmlns="http://www.w3.org/2000/svg" xmlns:xlink="http://www.w3.org/1999/xlink">
	<path d="M41.6313 23.6548C41.061 23.9946 40.4111 24.4546 39.6313 24.9448C39.2515 25.1846 38.8413 25.4346 38.3911 25.6748L37.6914 26.0347C37.4312 26.1646 37.2114 26.2446 36.8511 26.3945C36.1729 26.6582 35.4492 26.7876 34.7212 26.7749C34.3555 26.7603 33.9912 26.7197 33.6313 26.6548L32.8813 26.4946C31.9912 26.2749 31.2012 26.0249 30.4111 25.7949C29.2612 25.4849 28.1211 25.3149 27.0312 25.0249C24.5513 24.4546 24.7114 24.2847 23.6812 24.2148C23.4619 24.189 23.2417 24.2539 23.0713 24.3945C22.9253 24.5386 22.8516 24.7407 22.8711 24.9448C22.8999 25.376 23.0605 25.7876 23.3311 26.1245C23.4521 26.3032 23.5967 26.4648 23.7612 26.605L23.8911 26.7148L24.1011 26.9048L24.5513 27.2646C25.2251 27.7603 25.9375 28.2017 26.6812 28.585C28.6211 29.585 30.7412 30.3848 32.6812 31.2847C33.1514 31.5146 33.2212 32.2847 32.4014 33.0449C31.3657 33.9263 29.9883 34.2939 28.6514 34.0449C27.3691 33.7632 26.1191 33.3511 24.9214 32.8149C24.311 32.5449 23.7114 32.2446 23.1113 31.9146C22.5112 31.585 21.9712 31.2549 21.2412 30.8149C20.8687 30.561 20.5327 30.2583 20.2412 29.9146C19.8311 29.4946 19.4014 29.105 19.041 28.6748C18.6812 28.2446 18.2412 27.8149 17.9414 27.3647L17.311 25.9648C17.1846 25.5073 17.0845 25.0435 17.0112 24.5747C16.9961 24.3516 16.9961 24.1279 17.0112 23.9048C17.0024 23.6899 17.019 23.4751 17.061 23.2646C17.144 22.3833 17.5205 21.5557 18.1313 20.9146C18.8828 20.1885 19.8394 19.7104 20.8711 19.5449C22.0259 19.3584 23.2012 19.3384 24.3613 19.4849C25.7114 19.6646 26.5312 19.8447 27.2612 19.9946C27.9912 20.1445 28.7515 20.3447 29.4712 20.5449L31.791 21.2148C32.561 21.4048 33.3213 21.5947 34.0015 21.7246L34.3413 21.7949C34.4209 21.8042 34.5015 21.8042 34.5811 21.7949C34.7622 21.8027 34.9419 21.7612 35.1011 21.6748C35.7144 21.3809 36.2944 21.0225 36.8311 20.605C37.6113 20.0649 38.4414 19.4248 39.4312 18.835C39.9653 18.5181 40.5239 18.2437 41.1011 18.0146C41.7729 17.731 42.4648 17.4971 43.1714 17.3149C45.2412 16.8149 47.2412 16.8149 48.7114 18.0249C49.4067 18.6831 49.8042 19.5967 49.811 20.5547C49.8291 21.5063 49.6558 22.4517 49.3013 23.335C49.0171 24.0767 48.6826 24.7979 48.3013 25.4946L47.6514 26.5649L47.0913 27.4048C46.3687 28.478 45.5483 29.4824 44.6411 30.4048C44.2534 30.8145 43.8428 31.2017 43.4111 31.5649C41.7314 32.8745 40.8213 32.6748 39.811 31.6348C39.5664 31.4019 39.3389 31.1514 39.1313 30.8848C38.521 29.9028 38.6704 28.6289 39.4912 27.8149C40.7241 26.519 41.873 25.1465 42.9312 23.7046C43.0283 23.5806 43.1118 23.4463 43.1812 23.3047L43.1313 23.3047C43.1313 23.3047 43.1313 23.3047 43.1313 23.2246C43.1089 23.2163 43.084 23.2163 43.061 23.2246C42.6021 23.3979 42.1655 23.6265 41.7612 23.9048L41.6313 23.6548Z" fill-rule="evenodd" fill="currentColor"/>
	<path d="M53.9814 69.6748C54.6235 69.8013 55.2524 69.9854 55.8613 70.2246C56.2856 70.3975 56.6997 70.5942 57.1016 70.8145C57.8716 71.2246 58.5215 71.6348 59.1016 72.0146C59.2051 72.082 59.3022 72.1592 59.3916 72.2446C59.4487 72.2964 59.5171 72.3345 59.5913 72.3545C59.7432 72.3989 59.9067 72.3774 60.0415 72.2944C60.1797 72.2144 60.3071 72.1167 60.4214 72.0049L61.0513 71.4849C61.4717 71.126 61.9126 70.792 62.3716 70.4849C63.606 69.6299 64.9224 68.8994 66.3013 68.3047C67.4048 67.813 68.604 67.5742 69.8115 67.6045C70.3311 67.6201 70.8447 67.7217 71.3315 67.9048C71.8613 68.1138 72.3267 68.459 72.6816 68.9048C72.8418 69.1445 72.9854 69.395 73.1113 69.6548C73.2046 69.9077 73.2744 70.1689 73.3213 70.4346C73.3267 70.9058 73.2764 71.3755 73.1714 71.8345C72.9375 72.832 72.5352 73.7827 71.9814 74.6445C71.6714 75.1548 71.2617 75.6445 70.9014 76.1948C70.5415 76.7446 70.1313 77.1948 69.7017 77.6846C69.2715 78.1748 69.2915 78.1948 69.1216 78.4146L68.6514 79.0249C68.3315 79.4346 68.0015 79.8345 67.6514 80.2349C66.9302 80.9878 66.1514 81.6831 65.3213 82.3145C64.8213 82.6948 64.4414 82.3145 64.2715 81.5049C64.0508 80.417 64.1479 79.2886 64.5513 78.2549C65.0615 77.3345 65.6216 76.4648 66.1416 75.5845C66.2017 75.5146 66.2017 75.5845 66.3115 75.5049C66.4922 75.3979 66.6543 75.2632 66.7915 75.1045C67.0322 74.8315 67.1255 74.459 67.0415 74.1045C66.9414 73.7749 66.5312 73.9048 66.1816 74.1045C66.002 74.2085 65.8286 74.3223 65.6616 74.4448L64.5312 75.2549C63.9316 75.6748 63.6616 75.9346 62.5312 76.7148C61.6006 77.3804 60.4604 77.6855 59.3213 77.5747C58.7622 77.5049 58.2163 77.353 57.7017 77.1245C57.1914 76.8848 56.7017 76.6045 56.4517 76.4546C55.8413 76.1147 55.2715 75.7944 54.7314 75.5444C54.27 75.3057 53.7793 75.1274 53.2715 75.0146C52.8223 74.9297 52.3608 74.9297 51.9116 75.0146C51.4858 75.0708 51.0845 75.2441 50.7515 75.5146C50.4385 75.8174 50.3843 76.2998 50.6216 76.6646C50.9297 77.2104 51.3652 77.6738 51.8916 78.0146C52.1411 78.1763 52.4019 78.3198 52.6714 78.4448C53.0815 78.6646 53.5312 78.8345 53.9614 79.0146C54.8516 79.3345 55.7515 79.5947 56.6616 79.8247C57.0684 79.8906 57.4692 79.9873 57.8613 80.1147C59.2915 80.6445 59.6914 81.0547 59.7812 82.2749C59.7812 82.5444 59.8516 82.8047 59.8516 83.0547C59.8516 83.8545 58.9917 84.5444 57.6113 84.5444C56.5996 84.5913 55.5869 84.4766 54.6113 84.2046C53.5801 83.9468 52.5757 83.5918 51.6113 83.1445C51.1313 82.9048 50.6113 82.6748 50.1714 82.3848C49.4316 81.9648 48.6313 81.3848 47.8813 80.8345L46.8813 79.9048C46.5513 79.5947 46.2812 79.2646 45.9717 78.9048C45.4756 78.313 45.0928 77.6348 44.8413 76.9048L44.6016 76.1445C44.4746 75.1226 44.6304 74.085 45.0513 73.1445C45.2817 72.6787 45.5669 72.2422 45.9014 71.8447C46.2637 71.4688 46.666 71.1333 47.1016 70.8447C48.0737 70.2788 49.1357 69.8828 50.2417 69.6748C51.4639 69.3867 52.731 69.3394 53.9717 69.5347L53.9814 69.6748Z" fill-rule="evenodd" fill="currentColor"/>
	<path d="M78.7212 44.9546L77.3916 45.9546L76.5215 46.6045C76.1108 46.8979 75.668 47.1431 75.2012 47.3345C74.4243 47.5894 73.6094 47.7114 72.7915 47.6948C72.1406 47.6694 71.4941 47.5791 70.8613 47.4248C69.875 47.1621 68.9092 46.8281 67.9712 46.4248C67.0869 46.1089 66.1855 45.8418 65.2715 45.6245C64.8716 45.4946 64.4712 45.3945 64.0815 45.2944L63.5815 45.1846L63.3613 45.1147C63.041 45 62.6968 44.9692 62.3613 45.0244C62.1724 45.0483 62 45.1455 61.8813 45.2944C61.7842 45.4424 61.7383 45.6182 61.7515 45.7944C61.7695 46.1904 61.8936 46.5737 62.1113 46.9048C62.4287 47.2959 62.8066 47.6338 63.2314 47.9048C63.8433 48.3018 64.4932 48.6367 65.1714 48.9048C67.1841 49.5059 69.1255 50.3242 70.9614 51.3447C71.5513 51.7446 71.2915 52.0444 70.6113 52.3447C69.6675 52.7891 68.6514 53.0601 67.6113 53.1445C65.1533 53.2715 62.7051 52.751 60.5112 51.6348L60.0415 51.3647L59.4316 50.9546L58.8413 50.5444L58.3115 49.9648L57.8013 49.3848L57.4116 48.7246L57.0215 48.0845L56.7915 47.3945C56.061 45.7671 56.2197 43.8779 57.2114 42.3945C58.4912 40.7646 60.5913 40.2847 62.8115 40.3945C63.3613 40.3945 63.9512 40.4849 64.3413 40.5444L65.4614 40.7046C66.166 40.8247 66.8633 40.9814 67.5513 41.1748C68.1816 41.3647 68.7915 41.5547 69.4414 41.7944C70.0913 42.0347 70.5312 42.2148 71.0215 42.3745C71.4678 42.5259 71.9263 42.6392 72.3916 42.7148C72.5347 42.7251 72.6782 42.7251 72.8213 42.7148C72.9507 42.7344 73.082 42.7344 73.2114 42.7148C73.3105 42.689 73.4048 42.6489 73.4912 42.5947L73.6313 42.4946L73.8716 42.3145C75.1816 41.3145 76.5513 40.0244 78.1616 38.8945C78.873 38.3745 79.6675 37.9785 80.5112 37.7246L80.9712 37.6445C81.1577 37.6294 81.3452 37.6294 81.5312 37.6445C81.7593 37.6597 81.9844 37.7036 82.2012 37.7744C82.4414 37.8511 82.668 37.9663 82.8716 38.1147C83.4766 38.5747 83.8784 39.2529 83.9912 40.0049C83.9912 40.2446 84.0615 40.5347 84.0815 40.6948L84.0815 41.2148C84.1211 41.6855 84.0972 42.1597 84.0112 42.6245C83.8291 43.4888 83.4902 44.3125 83.0112 45.0547C82.3813 46.0547 81.7612 47.0547 81.1313 47.8945C80.5015 48.7349 79.8115 49.5947 79.1313 50.3945C78.8213 50.7446 78.5513 51.1045 78.2114 51.3945C76.9614 52.5947 76.2812 52.6445 75.1113 51.8848C74.8423 51.7217 74.582 51.5449 74.3315 51.3545C73.5278 50.6035 73.4282 49.3643 74.1016 48.4946C75.1016 46.8848 76.1016 45.3447 77.1016 43.9146C77.6416 43.2646 78.1016 42.6147 78.4814 42.1045C78.5928 41.9414 78.6929 41.771 78.7812 41.5947L78.9814 41.6445L79.2515 41.7148L79.1914 41.7148L78.9014 41.7148C78.7612 41.7148 78.8013 41.7148 78.8013 41.7148C78.8071 41.665 78.8071 41.6143 78.8013 41.5645L78.8013 41.3247L78.8013 41.0845C78.9116 41.0845 79.1416 41.0845 79.3013 40.9946C80.0903 40.9614 80.8496 40.6816 81.4712 40.1948C81.4482 40.2935 81.4482 40.396 81.4712 40.4946C81.4375 40.6797 81.4375 40.8696 81.4712 41.0547C81.499 41.3145 81.5596 41.5698 81.6514 41.8145C81.7324 42.1265 81.8394 42.4307 81.9712 42.7246C81.9712 42.8447 81.9712 42.8345 81.9712 42.8345L81.7715 42.9248C81.2964 43.1816 80.8447 43.4795 80.4214 43.8145C79.9116 44.1948 79.4214 44.6245 78.8413 45.0747L78.7212 44.9546Z" fill-rule="evenodd" fill="currentColor"/>
	<defs/>
</svg>
