<svg width="24" height="24" viewBox="0 0 110 110" fill="none" xmlns="http://www.w3.org/2000/svg" xmlns:xlink="http://www.w3.org/1999/xlink">
	<path d="M64.9351 48.75L64.2451 49.22C64.0352 49.3899 63.8452 49.5898 63.6353 49.7798L62.395 50.9199L61.3354 52.25L60.7954 52.9299C60.6323 53.1685 60.4819 53.4155 60.3452 53.6699C59.9453 54.4299 59.5752 55.1799 59.2354 55.97L58.3154 58.0898C58.1533 58.4434 58.0259 58.8118 57.9351 59.1899L57.6055 60.3198C57.1494 61.8513 56.8345 63.4211 56.665 65.01C56.5654 66.4414 56.5654 67.8784 56.665 69.3098C56.5854 70.23 56.665 71.1499 56.665 72.0898C56.6826 73.0354 56.6357 73.9807 56.5254 74.9199C56.4453 75.52 55.9751 75.5298 55.3452 75.1199C54.4844 74.5544 53.8091 73.7473 53.4053 72.7998C51.6553 68.96 52.145 64.6599 53.145 60.6299C53.3452 60.0298 53.4951 59.4199 53.6353 58.7998C53.7754 58.1799 53.8555 57.5498 54.0752 56.9399L54.6152 55.0798C54.7744 54.4482 54.9985 53.835 55.2852 53.25C55.8574 51.9375 56.5571 50.6848 57.375 49.51C57.7954 48.9199 58.165 48.3098 58.6353 47.76L60.145 46.1799L60.5952 45.7C60.7554 45.5398 60.9351 45.4099 61.0952 45.27L62.0952 44.4299C62.4453 44.1599 62.7651 43.8599 63.0952 43.6199L64.2153 42.9299C65.3408 42.2339 66.5254 41.6382 67.7554 41.1499C68.3452 40.8799 68.9951 40.73 69.6055 40.51C70.2129 40.2791 70.834 40.0852 71.4653 39.9299C72.4653 39.6899 73.395 39.3198 74.375 39.1199L75.8555 38.75C76.3555 38.6299 76.8555 38.5999 77.375 38.52C77.8291 38.4541 78.2866 38.4141 78.7451 38.3999C80.4351 38.5 80.9351 38.95 81.0854 40.3298C81.0854 40.6399 81.165 40.96 81.165 41.27C81.1338 42.302 80.4043 43.1802 79.395 43.3999C76.4595 44.0188 73.5586 44.7932 70.7051 45.72C68.6538 46.4648 66.7363 47.5352 65.0254 48.8899L64.9351 48.75Z" fill-rule="evenodd" fill="currentColor"/>
	<path d="M78.8154 46.1001C79.3071 45.3936 79.7515 44.6553 80.1455 43.8901C80.3604 43.4995 80.6221 43.1367 80.9253 42.8101C81.0557 42.6401 81.2456 42.4202 81.3257 42.29C81.3638 42.1941 81.4141 42.1033 81.4756 42.02L81.4756 41.8701C81.4756 41.6602 81.2456 41.5701 81.1455 41.4202L81.1455 41.4001L80.9956 41.25C80.8755 41.1501 80.7754 41.05 80.6455 40.95C80.5156 40.8501 80.1655 40.5601 79.9053 40.3601C79.3755 39.98 78.8257 39.6001 78.2554 39.24C77.0947 38.511 75.8965 37.8433 74.6655 37.24C73.5605 36.7173 72.417 36.2793 71.2456 35.9299C69.7856 35.45 68.3154 34.79 66.9556 34.22C66.6152 34.0701 66.5356 33.71 67.0254 33.22C67.731 32.6599 68.5957 32.3379 69.4956 32.3C70.3823 32.3081 71.2676 32.375 72.1455 32.5C72.9556 32.72 73.7554 32.98 74.5454 33.27C76.1245 33.8311 77.645 34.5442 79.0854 35.4001C79.9556 35.9299 80.8955 36.4001 81.8457 36.8901C82.3257 37.1501 82.8457 37.4001 83.2954 37.72C83.4355 37.8 83.5054 37.8601 83.6953 37.96L84.1953 38.3401C84.519 38.6008 84.8203 38.8884 85.0957 39.2C85.4727 39.616 85.7651 40.1018 85.9556 40.6301C86.0903 41.1719 86.0903 41.7383 85.9556 42.28L85.7856 43.0901L85.7056 43.49L85.7056 43.79C85.6353 44.2 85.5854 44.6101 85.4854 45.02C85.208 45.7937 84.8735 46.5457 84.4854 47.27C83.8047 48.5356 83.0571 49.7639 82.2456 50.95C81.0557 52.73 79.7153 54.3401 78.5957 56.0601C78.1733 56.7295 77.7988 57.428 77.4756 58.1501L76.9854 59.24C76.8057 59.5901 76.6152 59.9299 76.4253 60.24C76.2354 60.55 76.1255 60.8501 75.9253 61.1301C75.1553 62.1301 74.5054 62.1899 73.2554 61.6401C72.9653 61.52 72.6753 61.4102 72.4053 61.27C71.5132 60.7842 71.0366 59.7781 71.2256 58.78C71.3506 58.0215 71.541 57.2754 71.7954 56.55C72.0132 55.8425 72.3296 55.1692 72.7354 54.55C73.4766 53.3257 74.2812 52.1409 75.1455 51C76.4155 49.29 77.6855 47.6899 78.6953 46L78.8154 46.1001Z" fill-rule="evenodd" fill="currentColor"/>
	<path d="M39.4551 48.0198C40.0449 48.5398 40.6553 49.0198 41.2251 49.5698L42.8052 51.2898C43.0649 51.5798 43.3452 51.8499 43.585 52.1499L44.2651 53.0898L45.605 54.96C46.165 55.96 46.8149 56.8198 47.335 57.7998C47.855 58.7798 48.0752 59.5898 48.4453 60.4797L48.9551 61.8298L49.3252 63.21L50.0352 65.95L50.4751 68.7197C50.605 69.5298 50.8052 70.3398 50.875 71.1499C50.9453 71.96 51.1553 72.7698 51.1753 73.5798C51.1753 74.0999 51.2554 74.5798 51.2754 75.1399C51.2949 75.7 51.2754 76.1399 51.2251 76.7C51.165 77.7427 51.0449 78.781 50.8652 79.8098C50.7354 80.45 50.2651 80.3599 49.665 79.8098C48.8682 79.1179 48.2681 78.2278 47.9253 77.2297C47.6553 76.2297 47.4453 75.2297 47.085 74.3198L46.8452 73.6099C46.7939 73.3723 46.7573 73.1318 46.7354 72.8899L46.5752 71.4299C46.4653 70.4299 46.2251 69.5298 46.105 68.5598L45.9053 67.0999L45.5952 65.6699C45.3804 64.5276 44.9927 63.4248 44.4453 62.3999L43.6353 60.8098C43.375 60.2698 42.9951 59.8098 42.7051 59.2998C42.415 58.7898 42.0552 58.1799 41.7051 57.6599L40.5151 56.1399C40.3052 55.8899 40.1353 55.6199 39.9053 55.3899L39.2251 54.7C38.7651 54.2498 38.3252 53.7698 37.8452 53.3398L35.9253 51.7998C35.2754 51.3198 34.5649 50.9399 33.9253 50.4998C33.4014 50.1746 32.8569 49.884 32.2949 49.6299C31.7354 49.3799 31.1953 49.0698 30.6152 48.8499C29.4658 48.3892 28.2778 48.0312 27.0649 47.7798C26.5952 47.6899 26.1152 47.6199 25.645 47.5598C25.1753 47.4998 24.645 47.5598 24.2051 47.5598L22.7554 47.5598L21.335 47.6599C20.9233 47.7078 20.5093 47.7312 20.0952 47.7297C18.5449 47.7297 18.0952 47.3999 17.6753 46.0398C17.5952 45.7197 17.4751 45.4199 17.415 45.1099C17.2153 44.1099 17.875 43.1799 19.1553 42.8198C23.1436 41.9187 27.3057 42.1721 31.1553 43.5498C32.6543 44.0356 34.1123 44.6409 35.5151 45.3599C36.2153 45.7397 36.8853 46.1699 37.5649 46.5798L38.5649 47.2197L39.4951 47.9597L39.4551 48.0198Z" fill-rule="evenodd" fill="currentColor"/>
	<path d="M15.2554 52.3999C14.7915 51.4692 14.3774 50.5144 14.0151 49.5398C13.7979 49.0527 13.666 48.5317 13.625 47.9998L13.5649 47.1099L13.4951 45.9199L13.3853 45.3398C13.3853 45.2498 13.3052 45.1499 13.3853 45.0498L13.3853 44.7598C13.4248 44.3708 13.5225 43.99 13.6753 43.6299C13.9941 43.0176 14.4097 42.4604 14.9053 41.9797C15.4414 41.4805 16.0356 41.0474 16.6753 40.6899C18.0718 39.9751 19.519 39.3635 21.0054 38.8599C22.4351 38.3499 23.8652 37.8599 25.2852 37.45C26.5449 37.0498 27.7754 36.5798 29.0054 36.1299C30.6357 35.5437 32.3633 35.2722 34.0952 35.3298C34.7554 35.4099 34.5752 35.7998 34.2354 36.3298C33.813 37.0615 33.2446 37.698 32.5649 38.2C31.855 38.6199 31.165 39.1099 30.4351 39.4998L28.145 40.3999C26.6152 40.9797 25.0649 41.5398 23.4951 42.0398C22.5557 42.3494 21.6538 42.7617 20.8052 43.2698C20.3853 43.5198 19.9653 43.7898 19.585 44.0498L19.2949 44.2498C19.2305 44.3042 19.1602 44.3513 19.085 44.3899L18.875 44.5198C18.5952 44.6799 18.2251 44.96 18.2754 45.3499C18.3027 45.4082 18.3262 45.4683 18.3452 45.5298C18.3604 45.624 18.3979 45.7134 18.4551 45.7898C18.6089 46.0339 18.7393 46.2915 18.8452 46.5598C19.0552 47.0999 19.2554 47.6399 19.5151 48.1699C20.0684 49.3496 20.7207 50.4802 21.4653 51.5498C22.6309 53.2729 23.9385 54.8953 25.375 56.3999C25.9648 56.9722 26.5928 57.5034 27.2554 57.9897L28.2554 58.72C28.5752 58.9797 28.875 59.2498 29.1851 59.5298C29.4951 59.8098 29.7554 59.9797 29.9951 60.2498C30.8652 61.2498 30.7451 61.97 29.895 63.0898C29.6953 63.3599 29.5151 63.6299 29.3052 63.8599C28.5991 64.6348 27.4805 64.8792 26.5151 64.47C23.5151 63.3298 21.4653 61.0898 19.395 58.6599C17.7954 56.7285 16.3726 54.6567 15.145 52.47L15.2554 52.3999Z" fill-rule="evenodd" fill="currentColor"/>
	<path d="M84.9053 32.51C85.0151 32.6899 84.7051 32.8301 84.2251 32.96C83.998 33.0112 83.7622 33.0112 83.5352 32.96C83.3965 32.8572 83.2661 32.7434 83.1455 32.6201C83.0854 32.5601 82.6455 31.4299 82.4751 31C82.2979 30.6228 82.2217 30.2056 82.2554 29.79C82.354 28.9797 82.5112 28.1777 82.7251 27.3899C82.7832 27.2119 82.8789 27.0481 83.0054 26.9099C83.4023 26.4338 83.7075 25.8879 83.9053 25.3C83.957 25.196 83.957 25.074 83.9053 24.97C83.7852 24.71 84.6455 23.25 84.9053 23.1699C85.415 22.8899 85.9053 22.5901 86.3354 22.3401C86.4053 22.3401 86.415 22.21 86.5854 22.28C86.7754 22.385 87.0103 22.3611 87.1753 22.22C87.3857 22.1125 87.6118 22.0383 87.8452 22C88.0225 22.0103 88.1973 22.0437 88.3652 22.1001C88.5625 22.2266 88.7266 22.3979 88.8452 22.6001C88.8452 22.77 89.1055 22.8899 89.2451 23.04C89.2979 23.0874 89.3477 23.1375 89.3955 23.1899C89.4404 23.4746 89.4634 23.762 89.4653 24.05C89.4653 24.46 89.5454 24.9199 89.4653 24.9299C89.1523 25.3813 88.875 25.856 88.6353 26.3501C88.6353 26.4299 88.4854 26.45 88.3955 26.48C88.2129 26.833 88.0522 27.197 87.915 27.5701C87.7554 27.74 87.7451 27.98 87.3652 28.04C87.2954 28.04 87.2852 28.1001 87.2651 28.1399C87.0854 28.4937 86.8711 28.8286 86.6255 29.1399C86.5317 29.3206 86.4614 29.512 86.415 29.71C86.415 29.71 86.3452 29.77 86.3154 29.8C86.2852 29.8301 86.2251 29.8701 86.2153 29.9199C86.2153 30.1599 86.0552 30.3799 85.9951 30.6201C85.8779 30.8469 85.7939 31.0894 85.7451 31.3401C85.7451 31.45 85.2554 31.98 85.2554 32.1201C85.2554 32.26 84.8452 32.3999 84.9053 32.51Z" fill-rule="evenodd" fill="currentColor"/>
	<path d="M87.8354 48.3098C87.6455 48.3699 87.6455 48.04 87.7056 47.5498C87.7471 47.3228 87.832 47.1055 87.9556 46.9099C88.0806 46.8101 88.2104 46.7166 88.3452 46.6299C88.4155 46.6299 89.4253 46.48 89.7852 46.3799C90.0898 46.2966 90.4111 46.2966 90.7153 46.3799C91.2451 46.5498 91.7754 46.6699 92.2754 46.79C92.3896 46.8223 92.4932 46.8845 92.5752 46.97C92.8306 47.25 93.1963 47.4036 93.5752 47.3899C93.6353 47.3899 93.6953 47.3899 93.7754 47.3098C93.8555 47.23 94.8452 47.2 94.9453 47.3098C95.2021 47.5452 95.4878 47.7468 95.7954 47.9099C95.7954 47.9099 95.8853 47.9099 95.9253 48.04C96.0352 48.4099 96.1353 48.3699 96.2354 48.4199C96.3955 48.4919 96.5464 48.5825 96.6855 48.6899C96.7925 48.8145 96.8833 48.9524 96.9556 49.0999C97.0396 49.3164 97.0771 49.5481 97.0654 49.78C97.0503 49.9834 97.0771 50.1877 97.1455 50.3799L97.1455 50.5898C97.0171 50.8474 96.8594 51.0889 96.6753 51.3098C96.4155 51.6499 96.1055 51.99 96.0454 51.96C95.9854 51.9299 94.3354 52.1499 94.1353 52.1599C93.9355 52.1699 93.9453 52.0698 93.8555 52C93.7651 51.9299 92.4751 52 92.4355 51.9099C92.1953 51.79 91.8955 51.8398 91.7451 51.45C91.7451 51.3699 91.6655 51.3699 91.6152 51.3599C91.1938 51.2261 90.8008 51.0159 90.4556 50.74C90.2686 50.6389 90.0747 50.5522 89.8755 50.48C89.8755 50.48 89.8755 50.4099 89.7954 50.3699C89.7153 50.3298 89.7354 50.27 89.6953 50.26C89.4688 50.1631 89.251 50.0461 89.0454 49.9099C88.8599 49.7607 88.6626 49.627 88.4556 49.51C88.3555 49.51 88.0454 48.8799 87.9355 48.8499C87.8252 48.8198 87.9053 48.28 87.8354 48.3098Z" fill-rule="evenodd" fill="currentColor"/>
	<path d="M17.8452 32.96C18.0552 32.96 18.0054 33.29 17.8452 33.78C17.7686 33.9966 17.6421 34.1919 17.4751 34.3499C17.3125 34.4124 17.1455 34.4624 16.9751 34.5C16.3823 34.417 15.7944 34.3003 15.2153 34.1499C14.8013 34.0857 14.4111 33.9131 14.085 33.6499C13.4731 33.1311 12.8984 32.5696 12.3652 31.97C12.2563 31.8286 12.1812 31.6646 12.145 31.49C11.959 30.9043 11.6597 30.3608 11.2651 29.8899C11.1953 29.8098 11.165 29.71 10.9951 29.6899C10.8252 29.6699 9.91504 28.1299 9.99512 27.8799C9.99512 27.28 9.99512 26.71 10.0552 26.1399C10.0552 26.0598 9.98535 25.99 10.1353 25.8799C10.3301 25.7683 10.4434 25.554 10.4253 25.3298C10.4473 25.0815 10.5186 24.8403 10.6353 24.6199C10.7471 24.478 10.8823 24.3564 11.0352 24.26C11.2549 24.176 11.4932 24.1519 11.7251 24.1899C11.895 24.27 12.1152 24.1899 12.3252 24.1899L12.5352 24.1899C12.7852 24.3235 13.0259 24.4739 13.2554 24.6399C13.5952 24.8499 13.9951 25.02 13.9551 25.0798C14.1226 25.5408 14.3374 25.9829 14.5952 26.3999C14.6553 26.47 14.5952 26.5698 14.5952 26.6699C14.8027 27.0159 15.0298 27.3496 15.2754 27.6699C15.335 27.8999 15.5552 28.03 15.4053 28.3999C15.4053 28.47 15.4053 28.5 15.4053 28.54C15.625 28.8894 15.8057 29.2615 15.9453 29.6499C16.0522 29.8337 16.1797 30.0049 16.3252 30.1599C16.3252 30.1599 16.3252 30.25 16.3252 30.29C16.3096 30.342 16.3096 30.3977 16.3252 30.45C16.4951 30.6199 16.625 30.8398 16.7954 31.03C16.9175 31.2551 17.0723 31.4607 17.2554 31.6399C17.3252 31.73 17.5054 32.4099 17.6353 32.47C17.7651 32.53 17.7451 32.97 17.8452 32.96Z" fill-rule="evenodd" fill="currentColor"/>
	<path d="M13.5054 53.8701C13.6753 53.7102 13.9155 53.9602 14.1553 54.4001C14.2461 54.6116 14.2905 54.8401 14.2852 55.0701C14.2153 55.2402 14.1553 55.4001 14.0854 55.53C13.7197 55.8804 13.3848 56.2617 13.0854 56.6702C12.9253 56.9502 12.7026 57.1895 12.4355 57.3701C11.9341 57.6733 11.459 58.0178 11.0156 58.4001C10.9058 58.481 10.7793 58.5359 10.6455 58.5601C10.1875 58.6523 9.78711 58.9265 9.53516 59.3201C9.46289 59.3811 9.43506 59.4802 9.46533 59.5701C9.29492 60.0339 9.00928 60.4468 8.63525 60.77C8.24219 60.9368 7.87012 61.1482 7.52539 61.4001C7.46533 61.4001 7.52539 61.5103 7.3252 61.4702C6.95557 61.3801 6.91553 61.4702 6.80518 61.5801C6.64551 61.6995 6.47461 61.8032 6.29541 61.8901C6.125 61.9297 5.9502 61.9497 5.77539 61.9502C5.54004 61.9026 5.32227 61.792 5.14551 61.6301C5.03516 61.4902 4.78516 61.4602 4.59521 61.3801L4.39551 61.3C4.27393 61.012 4.18994 60.7095 4.14551 60.4001C4.03076 60.0798 3.98291 59.7395 4.00537 59.4001C4.00537 59.4001 4.23535 58.9202 4.48535 58.4001L5.10547 57.4001C5.15527 57.29 5.30518 57.2603 5.41553 57.2102C5.52539 57.1602 6.41553 55.9102 6.41553 55.8901C6.68555 55.7102 6.87549 55.4202 7.31543 55.4602C7.40527 55.4602 7.44531 55.4602 7.49561 55.3801C7.93262 55.0532 8.41846 54.7966 8.93555 54.6201C9.19531 54.5103 9.41553 54.3501 9.66553 54.2202C9.66553 54.2202 9.77539 54.2202 9.8252 54.2202C9.88818 54.2305 9.95264 54.2305 10.0156 54.2202C10.3047 54.072 10.6055 53.9482 10.9155 53.8501C11.2256 53.7603 11.5552 53.7102 11.8555 53.6001C12.0054 53.55 12.7954 53.7102 12.9556 53.6602C13.1152 53.6101 13.4453 53.9402 13.5054 53.8701Z" fill-rule="evenodd" fill="currentColor"/>
	<defs/>
</svg>
