<svg width="24" height="24" viewBox="0 0 110 110" fill="none" xmlns="http://www.w3.org/2000/svg" xmlns:xlink="http://www.w3.org/1999/xlink">
	<path d="M85.9399 34.02C85.0601 35.73 84.1299 36.9102 82.7803 36.5601C82 36.3398 81.1899 36.77 80.3901 36.8599L72.3101 37.75L68.3101 38.1899L64.25 38.3999C61.9199 38.5298 59.6001 38.8398 57.25 39.0498C53.3301 39.4102 49.3999 39.8101 45.46 40.0498C43.46 40.1899 41.46 39.9902 39.3999 40.1201L36.3999 40.3301L33.3999 40.4902C31.3999 40.6001 29.3501 40.6899 27.3198 40.73C25.29 40.77 23.1602 40.4502 21.0898 40.3398C20.3169 40.3735 19.5459 40.4473 18.7803 40.5601C18.4365 40.6172 18.0869 40.5059 17.8398 40.2598C17.02 39.3701 16.7603 36.7002 17.2402 34.2598C17.6201 32.3799 18.1001 31.1001 18.8003 31.0801C20.4399 31.0801 22.0801 31.02 23.73 30.9502L28.6699 30.8301C30.0103 30.8301 31.3398 30.4302 32.6699 30.3901C34.7603 30.3398 36.8701 30.4702 38.9702 30.5498C42.0601 30.6299 45.1499 30.75 48.2402 30.6802C51.7803 30.6099 55.3101 30.3599 58.8501 30.2002C59.9702 30.1499 61.0898 30.1201 62.2002 30.1001L67.46 30C69.21 30 70.9702 30.1499 72.73 30.21C76.3901 30.3599 80.04 30.5 83.73 30.7402C84.0068 30.7505 84.2817 30.7905 84.5498 30.8599C85.54 31.1899 85.7002 31.5298 85.9399 34.02Z" fill-rule="evenodd" fill="currentColor"/>
	<path d="M75.1899 67.9897C74.5498 69.4302 73.7202 70.4702 72.5898 70.1699C71.9131 70.1377 71.2363 70.2261 70.5898 70.4302C66.0898 70.8701 61.5898 71.1602 57.1401 71.4302C56.1401 71.5098 55.2202 71.6099 54.25 71.73C53.2798 71.8501 52.3301 71.8599 51.3701 71.8901C48.1201 72.02 44.8799 72.1699 41.6299 72.2002C39.9702 72.2002 38.3101 71.9302 36.6299 71.9399C34.9502 71.9502 33.3101 71.9897 31.6299 72.0298L29.1299 72.0298C28.3013 72.0898 27.4688 72.0898 26.6401 72.0298C24.9399 71.8301 23.2603 71.3799 21.5601 71.1299C20.9399 71.04 20.3101 71.1299 19.6802 71.1299C19.3921 71.1499 19.1118 71.0356 18.9199 70.8198C18.2798 70.0498 18.1201 67.9502 18.5801 66.02C18.9302 64.54 19.3599 63.5 19.9502 63.48C22.6699 63.4102 25.3999 63.2002 28.1201 63.1299C29.2202 63.1299 30.3301 62.8999 31.4302 62.9502C33.1602 63.0098 34.8799 63.25 36.6099 63.3701C39.1401 63.5498 41.6699 63.7598 44.21 63.8101C47.1201 63.8701 50.02 63.7598 52.9302 63.73C53.3901 63.73 53.8501 63.73 54.3101 63.73L55.6802 63.8398L64.2798 64.6001C67.2798 64.8301 70.2798 65.0298 73.1802 65.21C73.3999 65.2095 73.6187 65.2397 73.8301 65.2998C74.73 65.6299 74.8701 65.9102 75.1899 67.9897Z" fill-rule="evenodd" fill="currentColor"/>
	<defs/>
</svg>
