<svg width="24" height="24" viewBox="0 0 110 110" fill="none" xmlns="http://www.w3.org/2000/svg" xmlns:xlink="http://www.w3.org/1999/xlink">
	<path d="M59.2222 27.9922C58.9219 29.8218 55.1118 31.4419 55.1021 27.9922C55.1021 25.3418 59.6021 25.6621 59.2222 27.9922Z" fill-rule="evenodd" fill="currentColor"/>
	<path d="M55.3618 38.1221C55.1021 39.7222 51.752 41.1221 51.752 38.1221C51.7319 35.792 55.6821 36.082 55.3618 38.1221Z" fill-rule="evenodd" fill="currentColor"/>
	<path d="M77.4619 35.9824C77.1919 37.6523 73.6919 39.1323 73.6919 35.9824C73.6919 33.6025 77.812 33.8423 77.4619 35.9824Z" fill-rule="evenodd" fill="currentColor"/>
	<path d="M72.4424 22.3218C72.1924 23.832 69.0322 25.1719 69.0322 22.3218C69.0322 20.1221 72.7524 20.3921 72.4424 22.3218Z" fill-rule="evenodd" fill="currentColor"/>
	<path d="M65.9619 45.7222C65.6919 47.3818 62.2319 48.8521 62.2319 45.7222C62.2319 43.3218 66.3618 43.6021 65.9619 45.7222Z" fill-rule="evenodd" fill="currentColor"/>
	<path d="M84.5723 27.2622C84.312 28.832 81.0322 30.2622 81.0322 27.2622C81.0322 24.9722 84.9023 25.252 84.5723 27.2622Z" fill-rule="evenodd" fill="currentColor"/>
	<path d="M82.9121 50.7119C82.6118 52.5122 78.8521 54.1118 78.8521 50.7119C78.8521 48.1021 83.2822 48.4219 82.9121 50.7119Z" fill-rule="evenodd" fill="currentColor"/>
	<path d="M69.9619 36.542C69.6021 38.7422 64.9619 40.6919 64.9619 36.542C65.002 33.3521 70.4121 33.7422 69.9619 36.542Z" fill-rule="evenodd" fill="currentColor"/>
	<path d="M55.1123 52.5317C54.8521 54.1118 51.5522 55.5317 51.5522 52.5317C51.5425 50.2319 55.4424 50.5117 55.1123 52.5317Z" fill-rule="evenodd" fill="currentColor"/>
	<path d="M42.522 34.772C42.272 36.292 39.0918 37.6421 39.0918 34.772C39.0918 32.6021 42.8418 32.8223 42.522 34.772Z" fill-rule="evenodd" fill="currentColor"/>
	<path d="M57.4321 14.9819C57.1118 16.9219 53.062 18.6421 53.062 14.9819C53.062 12.1719 57.832 12.5122 57.4321 14.9819Z" fill-rule="evenodd" fill="currentColor"/>
	<path d="M46.1719 47.6821C45.8618 49.6021 41.8618 51.292 41.8618 47.6821C41.8521 44.9023 46.5718 45.2422 46.1719 47.6821Z" fill-rule="evenodd" fill="currentColor"/>
	<path d="M47.9917 33.9321C47.1519 35.272 43.6021 35.2622 44.7617 32.5522C45.6421 30.4722 49.0718 32.2319 47.9917 33.9321Z" fill-rule="evenodd" fill="currentColor"/>
	<path d="M41.8218 43.0825C41.0518 44.2925 37.8218 44.2822 38.9019 41.8325C39.7017 39.9624 42.792 41.6025 41.8218 43.0825Z" fill-rule="evenodd" fill="currentColor"/>
	<path d="M61.9521 48.6021C61.022 50.0522 57.1621 50.0522 58.4224 47.082C59.3623 44.772 63.1323 46.7021 61.9521 48.6021Z" fill-rule="evenodd" fill="currentColor"/>
	<path d="M63.4922 34.332C62.2422 36.332 56.9722 36.332 58.6924 32.272C60.0122 29.1919 65.1021 31.8022 63.4922 34.332Z" fill-rule="evenodd" fill="currentColor"/>
	<path d="M47.3618 52.9321C46.5522 54.2124 43.1519 54.2124 44.2622 51.6025C45.0918 49.6025 48.3618 51.3022 47.3618 52.9321Z" fill-rule="evenodd" fill="currentColor"/>
	<path d="M71.9922 43.3623C71.082 44.8022 67.2524 44.792 68.5024 41.8623C69.4624 39.6021 73.1621 41.522 71.9922 43.3623Z" fill-rule="evenodd" fill="currentColor"/>
	<path d="M61.3623 64.3218C60.2822 66.0317 55.7319 66.022 57.2222 62.542C58.3623 59.8716 62.7422 62.1318 61.3623 64.3218Z" fill-rule="evenodd" fill="currentColor"/>
	<path d="M54.5522 46.022C53.4819 47.7119 49.022 47.7021 50.4722 44.2822C51.5923 41.6621 55.9121 43.8818 54.5522 46.022Z" fill-rule="evenodd" fill="currentColor"/>
	<path d="M34.9722 55.042C34.062 56.4824 30.2324 56.4824 31.4824 53.542C32.4321 51.3022 36.1421 53.2021 34.9722 55.042Z" fill-rule="evenodd" fill="currentColor"/>
	<path d="M30.4619 33.8018C29.522 35.272 25.6221 35.272 26.8921 32.272C27.8721 29.9819 31.6519 31.9321 30.4619 33.8018Z" fill-rule="evenodd" fill="currentColor"/>
	<path d="M51.4722 21.2822C50.5518 22.7422 46.6919 22.7319 47.9521 19.772C48.9121 17.502 52.6519 19.4224 51.4722 21.2822Z" fill-rule="evenodd" fill="currentColor"/>
	<path d="M28.6221 48.4023C27.6221 50.0322 23.2822 50.022 24.6924 46.7119C25.7622 44.1821 29.9424 46.332 28.6221 48.4023Z" fill-rule="evenodd" fill="currentColor"/>
	<path d="M63.9722 42.502C62.9722 44.1919 58.4922 44.272 59.8823 40.8423C60.9424 38.2119 65.2822 40.3423 63.9722 42.502Z" fill-rule="evenodd" fill="currentColor"/>
	<path d="M57.562 51.6021C56.8218 52.832 53.562 52.8818 54.562 50.3916C55.3618 48.5117 58.522 50.0518 57.562 51.6021Z" fill-rule="evenodd" fill="currentColor"/>
	<path d="M77.582 56.6021C76.792 57.9019 73.3618 57.9717 74.4321 55.3218C75.252 53.312 78.5918 54.9517 77.582 56.6021Z" fill-rule="evenodd" fill="currentColor"/>
	<path d="M78.2617 42.1621C77.4419 43.5122 73.8818 43.582 74.9917 40.8223C75.8418 38.7222 79.3618 40.4224 78.2617 42.1621Z" fill-rule="evenodd" fill="currentColor"/>
	<path d="M63.4722 61.4321C62.5923 62.8921 58.7622 62.9521 59.9521 60.002C60.8623 57.7319 64.6021 59.6021 63.4722 61.4321Z" fill-rule="evenodd" fill="currentColor"/>
	<path d="M87.542 51.2324C86.752 52.5322 83.3623 52.6021 84.3623 49.9521C85.2119 47.9424 88.542 49.6021 87.542 51.2324Z" fill-rule="evenodd" fill="currentColor"/>
	<path d="M77.3623 72.3921C76.3623 73.9619 72.272 74.042 73.562 70.8521C74.4922 68.4121 78.522 70.3921 77.3623 72.3921Z" fill-rule="evenodd" fill="currentColor"/>
	<path d="M70.0518 54.2021C69.1621 55.6724 65.312 55.7422 66.5117 52.7622C67.4316 50.4922 71.1919 52.332 70.0518 54.2021Z" fill-rule="evenodd" fill="currentColor"/>
	<path d="M50.8721 63.6821C50.022 65.082 46.3423 65.1421 47.4922 62.3018C48.3618 60.1318 51.9619 61.8921 50.8721 63.6821Z" fill-rule="evenodd" fill="currentColor"/>
	<path d="M45.7222 42.4521C44.9619 43.7124 41.7222 43.7622 42.7222 41.2324C43.4819 39.2925 46.6919 40.8623 45.7222 42.4521Z" fill-rule="evenodd" fill="currentColor"/>
	<path d="M66.812 29.6021C65.9019 31.0918 61.9819 31.1621 63.2021 28.1318C64.1318 25.8618 67.9619 27.7319 66.812 29.6021Z" fill-rule="evenodd" fill="currentColor"/>
	<path d="M44.5923 57.2422C43.5322 58.9922 38.9424 59.0723 40.3721 55.5225C41.4624 52.812 45.9521 55.0122 44.5923 57.2422Z" fill-rule="evenodd" fill="currentColor"/>
	<path d="M61.3623 74.3423C61.4424 72.6821 64.6724 70.832 65.0425 73.9121C65.3623 76.272 61.3623 76.4624 61.3623 74.3423Z" fill-rule="evenodd" fill="currentColor"/>
	<path d="M62.2622 63.3218C62.3223 61.8716 65.1519 60.2617 65.4722 62.9517C65.7119 65.0117 62.1821 65.1719 62.2622 63.3218Z" fill-rule="evenodd" fill="currentColor"/>
	<path d="M42.0625 68.6021C42.1421 66.8418 45.582 64.8721 45.9722 68.1421C46.2725 70.6621 41.9624 70.8618 42.0625 68.6021Z" fill-rule="evenodd" fill="currentColor"/>
	<path d="M48.6719 81.6016C48.7422 80.002 51.8521 78.2217 52.2119 81.1919C52.4819 83.4419 48.582 83.6016 48.6719 81.6016Z" fill-rule="evenodd" fill="currentColor"/>
	<path d="M52.4219 57.6021C52.4922 55.9321 55.7422 54.0723 56.1118 57.1724C56.3618 59.5024 52.3618 59.6924 52.4219 57.6021Z" fill-rule="evenodd" fill="currentColor"/>
	<path d="M35.9624 78.1221C36.0322 76.3921 39.4121 74.4619 39.792 77.6719C40.082 80.1318 35.8623 80.332 35.9624 78.1221Z" fill-rule="evenodd" fill="currentColor"/>
	<path d="M34.9321 54.6021C35.0122 52.7222 38.6724 50.6021 39.0923 54.1118C39.4121 56.8022 34.8325 57.0122 34.9321 54.6021Z" fill-rule="evenodd" fill="currentColor"/>
	<path d="M49.9819 67.082C50.062 65.272 53.5923 63.252 53.9819 66.6123C54.292 69.1821 49.8823 69.3921 49.9819 67.082Z" fill-rule="evenodd" fill="currentColor"/>
	<path d="M62.2422 49.6021C62.3223 47.8721 65.6821 45.9419 66.0723 49.1519C66.3623 51.6021 62.1523 51.752 62.2422 49.6021Z" fill-rule="evenodd" fill="currentColor"/>
	<path d="M77.0122 65.6719C77.082 64.1621 80.0122 62.4722 80.3618 65.2822C80.6221 67.4219 76.9321 67.6021 77.0122 65.6719Z" fill-rule="evenodd" fill="currentColor"/>
	<path d="M65.1519 86.9824C65.2119 85.6021 67.9019 84.062 68.2119 86.6221C68.4419 88.6021 65.0718 88.7422 65.1519 86.9824Z" fill-rule="evenodd" fill="currentColor"/>
	<path d="M71.4717 52.082C71.4717 50.3618 74.5518 48.4819 74.9321 51.6821C75.2217 54.1221 71.4121 54.272 71.4717 52.082Z" fill-rule="evenodd" fill="currentColor"/>
	<path d="M41.6221 64.8916C41.7017 63.1216 45.1519 61.1416 45.542 64.4316C45.8418 66.9419 41.522 67.1519 41.6221 64.8916Z" fill-rule="evenodd" fill="currentColor"/>
	<path d="M42.6821 53.8423C42.7422 52.4619 45.4219 50.9321 45.6821 53.4819C45.9619 55.4321 42.6021 55.6021 42.6821 53.8423Z" fill-rule="evenodd" fill="currentColor"/>
	<path d="M22.4321 59.1318C22.502 57.3921 25.8921 55.4521 26.2822 58.6821C26.5718 61.1519 22.3618 61.3521 22.4321 59.1318Z" fill-rule="evenodd" fill="currentColor"/>
	<path d="M28.8721 72.1323C28.9419 70.4023 32.312 68.4824 32.6919 71.6821C32.9819 74.1323 28.772 74.332 28.8721 72.1323Z" fill-rule="evenodd" fill="currentColor"/>
	<path d="M32.7119 48.1021C32.792 46.3921 36.1118 44.4917 36.4917 47.6519C36.7817 50.082 32.6221 50.272 32.7119 48.1021Z" fill-rule="evenodd" fill="currentColor"/>
	<path d="M16.4824 68.6021C16.5522 67.042 19.5923 65.292 19.9424 68.2017C20.2124 70.4316 16.3623 70.6021 16.4824 68.6021Z" fill-rule="evenodd" fill="currentColor"/>
	<path d="M15.002 45.1919C15.0923 43.062 19.2319 40.6919 19.7119 44.6421C20.0723 47.6621 14.8818 47.9019 15.002 45.1919Z" fill-rule="evenodd" fill="currentColor"/>
	<path d="M29.9922 59.9521C30.0625 58.3623 33.1523 56.5923 33.5024 59.542C33.7725 61.792 29.9023 61.9722 29.9922 59.9521Z" fill-rule="evenodd" fill="currentColor"/>
	<path d="M42.6221 40.0723C42.6919 38.3721 46.002 36.4819 46.3721 39.6318C46.6621 42.042 42.522 42.2319 42.6221 40.0723Z" fill-rule="evenodd" fill="currentColor"/>
	<path d="M57.6318 56.1523C57.6318 54.8921 60.1421 53.4824 60.4219 55.832C60.6318 57.6021 57.5518 57.7622 57.6318 56.1523Z" fill-rule="evenodd" fill="currentColor"/>
	<path d="M45.2422 77.542C45.312 75.9424 48.4424 74.1523 48.8022 77.1323C49.0723 79.4121 45.1523 79.6021 45.2422 77.542Z" fill-rule="evenodd" fill="currentColor"/>
	<path d="M51.7319 42.6021C51.8018 40.9717 54.9922 39.1519 55.3521 42.1816C55.6318 44.5117 51.6421 44.7017 51.7319 42.6021Z" fill-rule="evenodd" fill="currentColor"/>
	<defs/>
</svg>
