<svg width="24" height="24" viewBox="0 0 110 110" fill="none" xmlns="http://www.w3.org/2000/svg" xmlns:xlink="http://www.w3.org/1999/xlink">
	<path d="M69.0098 14.2729C70.8477 13.5518 72.7642 13.0515 74.7197 12.783L75.8799 12.6328C76.3022 12.5984 76.7271 12.5984 77.1499 12.6328L78.04 12.823C78.3828 12.9231 78.7173 13.05 79.04 13.2029C79.7202 13.5715 80.2979 14.1042 80.7197 14.7529C81.0596 15.2949 81.3154 15.8848 81.48 16.5029C81.7422 17.4858 81.9194 18.4895 82.0098 19.5029L82.3696 22.603C82.4824 23.2634 82.5322 23.9331 82.52 24.603C82.4175 25.2849 82.2466 25.9551 82.0098 26.603C81.8398 27.0129 81.4697 26.9429 80.9497 26.603C80.2651 26.2085 79.6748 25.6692 79.2197 25.0229C78.6548 22.7231 78.2705 20.3826 78.0698 18.0229C77.8696 17.2029 77.8398 17.093 77.54 16.8928C77.4497 16.8928 77.29 16.833 77.0698 16.8928C76.8403 16.877 76.6094 16.877 76.3799 16.8928C74.8301 16.9534 73.3003 17.2639 71.8496 17.813C70.8843 18.1135 69.936 18.4673 69.0098 18.873C67.5664 19.5603 66.1851 20.3699 64.8799 21.293C63.8799 22.063 63.04 22.9529 62.1396 23.793C61.9399 23.9729 61.77 24.1729 61.5601 24.353C61.313 24.6501 60.9463 24.8223 60.5601 24.8223C60.1733 24.8223 59.8066 24.6501 59.5601 24.353C59.3799 24.2129 59.1899 24.093 59.02 23.9429C58.4443 23.428 58.3618 22.5571 58.8301 21.9429C59.4556 20.9199 60.1865 19.9648 61.0098 19.093C61.9141 18.2146 62.9214 17.449 64.0098 16.813C65.6045 15.8171 67.2764 14.9509 69.0098 14.2229L69.0098 14.2729Z" fill-rule="evenodd" fill="currentColor"/>
	<path d="M61.1299 56.0828C58.3486 59.311 55.1548 62.1589 51.6299 64.5527C50.3721 65.4714 49.0596 66.313 47.6997 67.0728C42.752 69.3452 37.3745 70.5317 31.9297 70.5527C30.75 70.5527 29.5796 70.5527 28.4097 70.4729C27.8198 70.4729 27.2397 70.3928 26.6597 70.3528C26.0796 70.3127 25.5098 70.1628 24.9399 70.0728C22.0352 69.5784 19.2104 68.6973 16.5396 67.4529C15.71 67.0728 15.8896 66.9229 16.7197 66.7927C18.0269 66.5911 19.3472 66.4841 20.6699 66.4729C22.1099 66.5427 23.5498 66.4729 24.9497 66.4729L27.0098 66.3127C27.6899 66.3127 28.3696 66.3127 29.0098 66.3127C31.7202 66.2942 34.4233 66.04 37.0898 65.5527C38.731 65.2446 40.3228 64.7129 41.8198 63.9729C42.5898 63.6328 43.2998 63.1528 44.0396 62.7627C44.7798 62.3728 45.48 61.9028 46.1997 61.4729C49.395 59.5269 52.2949 57.1326 54.8096 54.3628L55.9897 53.0527L57.0898 51.6829C57.8496 50.7827 58.5 49.7927 59.1797 48.8228C61.2261 45.845 62.981 42.677 64.4199 39.3628C65.5498 36.7927 66.0098 34.0029 66.9497 31.3628C67.1299 30.7827 67.2598 30.1929 67.48 29.6128C67.5796 29.3428 67.6797 29.1028 67.7798 28.8828C67.8799 28.6628 68.0396 28.4929 68.1597 28.3228C68.373 28.03 68.6216 27.7646 68.8999 27.5327C69.3726 27.1582 69.9565 26.9507 70.5596 26.9429C70.8447 26.9043 71.1323 26.8843 71.4199 26.8828C72.2896 26.9329 72.7598 28.0928 72.8999 29.9729C72.9473 30.6414 72.9102 31.3135 72.7896 31.9729C72.71 32.6328 72.6196 33.3027 72.5098 33.9729C72.3999 34.6428 72.2598 35.3027 72.1299 35.9729C71.9751 36.6328 71.7749 37.281 71.5298 37.9128C70.6118 40.5325 69.4985 43.0796 68.1997 45.5327C66.229 49.2803 63.8838 52.8181 61.1997 56.0928L61.1299 56.0828Z" fill-rule="evenodd" fill="currentColor"/>
	<path d="M65.2397 14.5327C66.5425 13.5815 67.9019 12.71 69.3096 11.9229C70.0723 11.5012 70.8564 11.1206 71.6597 10.7827C71.8696 10.6929 72.1099 10.6228 72.3296 10.5427C72.5713 10.4502 72.8184 10.3735 73.0698 10.3127C73.6997 10.1245 74.3521 10.0203 75.0098 10.0027C75.8135 9.98022 76.6147 10.0952 77.3799 10.3428C77.855 10.5562 78.3018 10.8281 78.7095 11.1528C79.1152 11.4983 79.4775 11.8911 79.7896 12.3228C80.0151 12.6421 80.2192 12.9761 80.3999 13.3228C80.5435 13.5688 80.6738 13.8225 80.7896 14.0828C81.0298 14.5928 81.2295 15.0828 81.4097 15.5828C81.7798 16.5828 82.0796 17.5828 82.3496 18.4927C82.8599 20.4329 83.3496 22.3328 83.6396 24.2627C83.8999 25.9729 84.2695 27.6528 84.6396 29.3328C84.8931 30.4041 85.0176 31.502 85.0098 32.6028C84.9868 33.7354 84.8599 34.8635 84.6299 35.9729C84.4697 36.6829 84.1299 36.5828 83.5498 36.0627C82.6958 35.3264 81.9487 34.4749 81.3296 33.5327L80.9399 32.7927C80.7949 32.5596 80.6836 32.3071 80.6099 32.0427L80.1797 30.5127L79.3296 27.4529C79.0596 26.4529 78.7397 25.4529 78.5498 24.3828L78.0098 21.2229C77.8003 19.9797 77.4204 18.7715 76.8799 17.6328C76.6392 17.106 76.3652 16.595 76.0596 16.1028C75.8999 15.8328 75.8999 15.8428 75.8198 15.7229C75.752 15.6316 75.6782 15.5449 75.5996 15.4629C75.5552 15.4121 75.501 15.3711 75.4399 15.3428C75.2236 15.2341 74.9775 15.199 74.7397 15.2427L74.5596 15.2427C74.4497 15.2427 74.3198 15.3228 74.1899 15.3628C73.9238 15.447 73.6636 15.5471 73.4097 15.6628C72.2588 16.1997 71.1553 16.8318 70.1099 17.5527C68.6401 18.5493 67.228 19.6277 65.8799 20.7827C63.7603 22.5242 61.7559 24.4014 59.8799 26.4028C58.4399 27.9629 57.3496 29.7827 56.0698 31.4028C55.7896 31.7727 55.5498 32.1528 55.2397 32.5027C54.0996 33.7927 53.4697 33.9729 52.2397 33.4429C51.9697 33.3228 51.6797 33.2229 51.4297 33.0828C50.5898 32.5928 50.4297 31.5227 50.9595 30.2827C51.3799 29.3728 51.8296 28.4729 52.3198 27.5928C52.8262 26.7231 53.394 25.8909 54.0195 25.1028C55.2607 23.4802 56.6143 21.9463 58.0698 20.5127C60.27 18.3193 62.6079 16.2683 65.0698 14.3728L65.2397 14.5327Z" fill-rule="evenodd" fill="currentColor"/>
	<path d="M43.1895 90.7129C43.3398 90.9729 43.0796 91.283 42.6997 91.603C42.5146 91.7183 42.2954 91.7644 42.0796 91.7329C41.8994 91.603 41.7095 91.4829 41.5498 91.343C41.3896 91.2029 40.4297 89.813 39.9995 89.343C39.7222 88.8503 39.5137 88.322 39.3799 87.7729C39.0698 86.6829 38.7798 85.563 38.5396 84.4529C38.4946 84.2017 38.4946 83.9443 38.5396 83.6929C38.6748 82.8516 38.6748 81.9941 38.5396 81.1528C38.5396 81.0129 38.5396 80.8628 38.3696 80.7429C38.0649 79.853 37.9424 78.9111 38.0098 77.9729C38.2598 77.2529 38.3994 76.533 38.5796 75.813C38.5796 75.7129 38.5796 75.6128 38.7197 75.5129C38.9824 75.3923 39.1416 75.1208 39.1196 74.833C39.1738 74.5103 39.2642 74.1951 39.3896 73.8928C39.5342 73.7183 39.6948 73.5574 39.8696 73.4128C40.0898 73.303 40.3423 73.2781 40.5796 73.343C40.7495 73.4629 40.9897 73.343 41.1895 73.343L41.4194 73.343C42.0249 73.9016 42.5591 74.5332 43.0098 75.2229C43.0098 75.2229 43.1396 75.9028 43.2598 76.593C43.3799 77.283 43.5195 78.0029 43.5698 78.1528C43.6196 78.303 43.5698 78.4629 43.4795 78.6128C43.3896 78.7629 43.8896 80.7229 43.8896 80.793C43.8896 81.2229 44.0498 81.6228 43.7095 82.053C43.667 82.1309 43.667 82.2251 43.7095 82.303C43.7373 83.0193 43.6904 83.7363 43.5698 84.4429C43.5615 84.8037 43.5781 85.1646 43.6196 85.5229C43.6196 85.583 43.5698 85.6528 43.5596 85.7229C43.521 85.8005 43.5005 85.886 43.4995 85.9729C43.5073 86.832 43.5913 87.6885 43.7495 88.533C43.7495 88.7229 43.4097 89.7729 43.4697 90.0029C43.5298 90.2329 43.1099 90.6128 43.1895 90.7129Z" fill-rule="evenodd" fill="currentColor"/>
	<path d="M62.2798 81.3127C62.4399 81.5728 62.1802 81.8828 61.79 82.2029C61.606 82.3198 61.3857 82.366 61.1699 82.3328C61 82.2029 60.8101 82.0828 60.6499 81.9429C60.4902 81.8027 59.5298 80.4128 59.1001 79.9429C58.8154 79.4526 58.603 78.9238 58.4702 78.3728C58.1699 77.2827 57.8701 76.1628 57.6401 75.0527C57.5947 74.8015 57.5947 74.5442 57.6401 74.2927C57.77 73.4478 57.77 72.5879 57.6401 71.7427C57.6401 71.6128 57.6401 71.4629 57.4702 71.3428C57.188 70.4587 57.0894 69.5264 57.1802 68.6028C57.4302 67.8828 57.5698 67.1628 57.75 66.4429C57.75 66.3428 57.75 66.2427 57.8901 66.1328C58.147 66.0115 58.3052 65.7466 58.29 65.4629C58.3442 65.1401 58.4346 64.825 58.5601 64.5227C58.7021 64.3457 58.8628 64.1848 59.04 64.0427C59.2573 63.9238 59.5137 63.8984 59.75 63.9729C59.9199 64.0928 60.1602 63.9729 60.3599 63.9729L60.5801 63.9729C61.1841 64.5405 61.7178 65.1782 62.1699 65.8728C62.1699 65.8728 62.29 66.5527 62.4199 67.2427C62.5498 67.9329 62.6802 68.6528 62.73 68.8027C62.7798 68.9529 62.73 69.1128 62.6401 69.2627C62.5498 69.4128 63.0498 71.3728 63.0498 71.4429C63.0498 71.8728 63.2002 72.2727 62.8599 72.7029C62.8208 72.7815 62.8208 72.874 62.8599 72.9529C62.8877 73.6689 62.8408 74.3862 62.7202 75.0928C62.6997 75.4492 62.6997 75.8064 62.7202 76.1628C62.7202 76.2327 62.7202 76.3027 62.6602 76.3728C62.6289 76.4526 62.6123 76.5371 62.6099 76.6228C62.6196 77.4812 62.6997 78.3374 62.8501 79.1829C62.8501 79.3728 62.52 80.4229 62.5698 80.6528C62.6201 80.8828 62.21 81.2229 62.2798 81.3127Z" fill-rule="evenodd" fill="currentColor"/>
	<path d="M76.7896 62.5129C76.9497 62.7729 76.6797 63.0828 76.2998 63.4028C76.1152 63.519 75.895 63.5652 75.6797 63.533C75.5098 63.4028 75.3198 63.283 75.1499 63.1428C74.9795 63.0029 74.0298 61.6228 73.5996 61.1428C73.3301 60.6394 73.1313 60.1008 73.0098 59.543C72.7095 58.4529 72.4097 57.3428 72.1797 56.2229C72.1348 55.9714 72.1348 55.7141 72.1797 55.4629C72.3101 54.6211 72.3101 53.7644 72.1797 52.9229C72.1797 52.783 72.1797 52.6328 72.0195 52.5129C71.7393 51.6284 71.6372 50.697 71.7197 49.7729C71.9795 49.0527 72.1099 48.3428 72.2998 47.6228C72.2998 47.5129 72.2998 47.4128 72.4297 47.3127C72.6943 47.1931 72.8574 46.9226 72.8398 46.6328C72.8901 46.3105 72.9775 45.9951 73.0996 45.6929C73.2207 45.5232 73.3579 45.3657 73.5098 45.2229C73.7251 45.1099 73.9761 45.0847 74.2095 45.1528C74.3896 45.2729 74.6196 45.1528 74.8296 45.1528L75.0498 45.1528C75.6533 45.7205 76.1875 46.3584 76.6396 47.0527L76.8896 48.4229C77.0195 49.1228 77.1499 49.8328 77.1997 49.9829C77.2197 50.1431 77.1846 50.3054 77.0996 50.4429C77.0996 50.5229 77.5195 52.5527 77.5195 52.6228C77.5195 53.0527 77.6699 53.4529 77.3296 53.8828C77.2598 53.9729 77.3296 54.0527 77.3296 54.1428C77.3525 54.8398 77.2988 55.5374 77.1694 56.2229C77.1499 56.5825 77.1499 56.9431 77.1694 57.3027C77.1577 57.3716 77.1377 57.4387 77.1099 57.5029C77.0957 57.5857 77.0957 57.6702 77.1099 57.7529C77.1143 58.6116 77.1943 59.4683 77.3496 60.3127C77.3496 60.5029 77.0098 61.5527 77.0698 61.783C77.1299 62.0129 76.7197 62.4128 76.7896 62.5129Z" fill-rule="evenodd" fill="currentColor"/>
	<defs/>
</svg>
