<svg width="24" height="24" viewBox="0 0 110 110" fill="none" xmlns="http://www.w3.org/2000/svg" xmlns:xlink="http://www.w3.org/1999/xlink">
	<path d="M48.9092 18.6101C47.1992 18.6899 45.4893 18.78 43.7793 18.9199C43.1592 18.9199 42.5596 19.1799 41.9292 19.22C40.8296 19.3 39.7192 19.3501 38.5996 19.3601C37.4795 19.3701 36.3691 19.4399 35.2593 19.52C34.2812 19.6111 33.3115 19.7783 32.3594 20.02C31.7588 20.2141 31.1382 20.3381 30.5093 20.3899C29.8374 20.417 29.1646 20.353 28.5093 20.2C28.0796 20.0901 28.0493 19.45 28.2393 18.6599C28.4321 17.8035 28.8906 17.03 29.5493 16.45C29.8252 16.2625 30.1201 16.1047 30.4292 15.98L31.3496 15.74C31.9692 15.5901 32.5894 15.45 33.2192 15.3401C34.4922 15.1018 35.7847 14.9846 37.0796 14.99C37.8682 14.9709 38.6528 14.8669 39.4194 14.6799C40.1895 14.53 40.9692 14.3501 41.7593 14.25C43.4893 14.02 45.2295 13.8501 46.9692 13.6799C48.0293 13.5701 49.1094 13.49 50.1792 13.3701C51.7993 13.1899 53.4395 13.1001 55.0396 12.8101C55.6592 12.72 56.2695 12.48 56.8892 12.3701C57.5103 12.2385 58.1377 12.1416 58.7695 12.0801C59.0479 12.0386 59.3281 12.012 59.6094 12C59.8428 12.0027 60.0747 12.0364 60.2993 12.1001C60.48 12.1851 60.6401 12.3079 60.7695 12.46C61.0171 12.7461 61.189 13.0901 61.2695 13.46C61.2695 13.6499 61.3892 13.8401 61.4194 14.01C61.459 14.3254 61.3848 14.6448 61.2095 14.9099C61.0049 15.2832 60.7417 15.6211 60.4292 15.9099L58.9092 16.76L57.3594 17.6001C57.1074 17.7312 56.832 17.8125 56.5493 17.8401L55.7295 17.99C55.1792 18.0801 54.6191 18.1599 54.0596 18.22C52.3892 18.4399 50.6792 18.55 48.9692 18.74L48.9092 18.6101Z" fill-rule="evenodd" fill="currentColor"/>
	<path d="M52.4297 26.1499C49.5796 26.46 46.7197 26.78 43.8794 27.1499C42.8794 27.28 41.8794 27.55 40.7896 27.6699C37.1196 28.1001 33.4497 28.5 29.7896 29C28.1694 29.2 26.5596 29.54 24.9795 29.8899C22.9717 30.4919 20.9014 30.8611 18.8096 30.99C18.1494 30.99 18.0396 29.99 18.3794 28.99C18.6948 27.8237 19.5503 26.8792 20.6797 26.45C24.8081 25.2439 29.0571 24.4961 33.3496 24.22C35.9395 24.0701 38.5396 23.3601 41.1396 22.95C43.9995 22.51 46.8794 22.1201 49.7495 21.72L55.0396 20.98C57.7095 20.5801 60.3994 20.26 63.0396 19.73C65.0396 19.3101 67.0396 18.6201 69.0396 18.04C69.4795 17.9099 69.8994 17.74 70.3496 17.6399C71.9995 17.26 72.5894 17.5 73.1694 18.79C73.3179 19.0747 73.4482 19.3687 73.5596 19.6699C73.7104 20.1819 73.6509 20.7329 73.3936 21.2007C73.1362 21.6685 72.7026 22.0137 72.1895 22.1599C68.6128 23.5466 64.8828 24.5002 61.0796 25C58.2393 25.46 55.3594 25.8101 52.4995 26.23L52.4297 26.1499Z" fill-rule="evenodd" fill="currentColor"/>
	<path d="M57.0991 40.0601C53.3691 40.5901 49.6294 41.1301 45.9092 41.71C44.5493 41.9199 43.2192 42.28 41.9092 42.48C37.1094 43.1799 32.2993 43.8501 27.499 44.6001C25.3691 44.9199 23.2593 45.3701 21.1792 45.8501C18.5371 46.6101 15.8281 47.1123 13.0894 47.3501C12.2192 47.3501 12.0894 46.3501 12.6094 45.2C13.1724 43.834 14.311 42.7871 15.7192 42.3401C21.1377 40.8171 26.6787 39.77 32.2793 39.21C35.6694 38.8999 39.0591 37.96 42.4692 37.3501C46.1592 36.6799 49.9092 36.0601 53.6592 35.45L60.5894 34.29C64.0791 33.6799 67.5894 33.1499 71.0391 32.4099C73.709 31.8301 76.2793 30.96 78.8994 30.22C79.479 30.0601 80.0293 29.8501 80.6191 29.71C82.7993 29.22 83.6191 29.47 84.2891 30.8501C84.4692 31.1562 84.6294 31.4736 84.769 31.8C85.1694 32.8999 84.4292 33.98 82.8994 34.5801C78.1758 36.2598 73.3091 37.5051 68.3594 38.3C64.6392 38.99 60.8691 39.5601 57.1294 40.21L57.0991 40.0601Z" fill-rule="evenodd" fill="currentColor"/>
	<path d="M58.8096 33.6499C55.7295 34.0298 52.6494 34.3999 49.5796 34.8298C48.4492 34.9797 47.3594 35.2798 46.2393 35.4199C42.2393 35.9199 38.3193 36.4199 34.3696 36.9299C32.6094 37.1599 30.8696 37.5198 29.1597 37.9299C26.9912 38.573 24.7568 38.9688 22.4995 39.1099C21.7793 39.1099 21.6694 38.1099 22.0493 37.0398C22.4233 35.8159 23.354 34.8406 24.5596 34.4099C29.0156 33.1213 33.5933 32.2969 38.2192 31.95C41.0093 31.7698 43.8096 30.9998 46.6094 30.5398C49.6992 30.0298 52.7896 29.5398 55.8896 29.1099L61.5996 28.2397C64.4692 27.7798 67.3794 27.3899 70.2095 26.7898C72.4097 26.3298 74.5093 25.5798 76.6597 24.95C77.1294 24.8098 77.5894 24.6199 78.0693 24.5098C79.8594 24.0999 80.4893 24.3499 81.0693 25.6899C81.2095 25.9897 81.3794 26.2898 81.4893 26.5999C81.6396 27.1448 81.5669 27.7273 81.2876 28.2188C81.0078 28.7102 80.5444 29.0703 79.9995 29.22C76.1284 30.7019 72.103 31.7449 67.9995 32.3298C64.9292 32.8699 61.8296 33.3298 58.7393 33.7698L58.8096 33.6499Z" fill-rule="evenodd" fill="currentColor"/>
	<path d="M50.1592 57.7397C47.1592 58.1799 44.0693 58.6199 41.0396 59.1099C39.9292 59.2798 38.8491 59.5898 37.7393 59.7598L25.9893 61.4497C24.2593 61.7097 22.5293 62.0798 20.8394 62.4497C18.6865 63.093 16.4702 63.4988 14.2295 63.6599C13.5195 63.6599 13.4292 62.7798 13.8193 61.7698C14.2314 60.6064 15.1582 59.6987 16.3296 59.3098C20.7373 58.0674 25.249 57.2307 29.8096 56.8098C32.5693 56.5598 35.3296 55.8098 38.0991 55.2598C41.1494 54.6899 44.1992 54.1799 47.2593 53.6499L52.8994 52.6499C55.7393 52.1399 58.6094 51.6499 61.4092 51.0698C63.5894 50.5798 65.6694 49.8398 67.8096 49.2197C68.2793 49.0798 68.7295 48.8999 69.2095 48.7898C70.9893 48.3799 71.6191 48.5999 72.2095 49.7898C72.3608 50.0608 72.4946 50.3416 72.6094 50.6299C72.9492 51.6299 72.3691 52.5398 71.1191 53.0498C67.2993 54.4973 63.3472 55.5691 59.3193 56.2498C56.3193 56.8298 53.2295 57.3098 50.1792 57.8499L50.1592 57.7397Z" fill-rule="evenodd" fill="currentColor"/>
	<path d="M60.1392 50.02C56.1392 50.6099 52.1392 51.21 48.1392 51.8499C46.6694 52.0898 45.2393 52.47 43.7793 52.6899C38.6094 53.45 33.4395 54.23 28.2896 55.05C26.0093 55.3999 23.7295 55.8899 21.4995 56.3999C18.6519 57.1929 15.7407 57.7383 12.7993 58.03C11.8691 58.0798 11.7993 57.0999 12.3394 55.97C13.0273 54.5967 14.2554 53.5715 15.7295 53.1399C21.5649 51.5432 27.5161 50.4065 33.5293 49.74C37.1694 49.3699 40.8193 48.3899 44.5293 47.74L56.6094 45.6499L64.0493 44.3799C67.7993 43.71 71.5796 43.1099 75.2793 42.3799C78.1592 41.76 80.9194 40.8599 83.7393 40.0999C84.3691 39.9299 84.9595 39.72 85.5991 39.5698C87.9395 39.05 88.7593 39.27 89.4995 40.5698C89.6553 40.854 89.792 41.1479 89.9092 41.45C90.3193 42.5 89.5093 43.5598 87.8491 44.1599C82.748 45.8848 77.5137 47.1892 72.1992 48.0598C68.1992 48.8098 64.1992 49.45 60.1294 50.1599L60.1392 50.02Z" fill-rule="evenodd" fill="currentColor"/>
	<path d="M61.5796 61.0898C57.7695 61.6599 53.9497 62.23 50.1494 62.8398C48.7598 63.0598 47.3994 63.4199 46.0098 63.6299L31.3096 65.8799C29.1396 66.21 26.9795 66.6799 24.8594 67.1599C22.1523 67.9141 19.3857 68.436 16.5894 68.72C15.6997 68.72 15.5894 67.8198 16.1494 66.72C16.7979 65.407 17.9653 64.4246 19.3696 64.01C24.917 62.4939 30.5742 61.4141 36.2896 60.78C39.7397 60.4299 43.2095 59.49 46.6895 58.8599L58.1694 56.8599L65.2397 55.6599C68.7993 55.0398 72.3994 54.45 75.9097 53.74C78.6396 53.1499 81.2695 52.2998 83.9097 51.5798C84.4995 51.4199 85.0693 51.21 85.6694 51.0698C87.8994 50.5798 88.6694 50.7898 89.3794 52.0698C89.5547 52.3479 89.7148 52.635 89.8594 52.9299C90.2495 53.9299 89.4795 54.9299 87.8594 55.53C83.0122 57.1692 78.0391 58.4102 72.9897 59.24C69.1797 59.95 65.3394 60.5498 61.5098 61.24L61.5796 61.0898Z" fill-rule="evenodd" fill="currentColor"/>
	<path d="M63.1597 73.45C59.9194 73.96 56.6694 74.45 53.4395 75.03C52.2598 75.23 51.1094 75.5801 49.9297 75.77L37.3994 77.77C35.5396 78.0601 33.7095 78.48 31.8994 78.9199C29.6045 79.6321 27.2358 80.0815 24.8394 80.26C24.0796 80.26 23.9795 79.26 24.3794 78.2C24.7891 76.9224 25.7681 75.9065 27.0298 75.45C31.7212 74.0649 36.5269 73.1013 41.3896 72.5701C44.3896 72.28 47.2695 71.3801 50.2197 70.79C53.4697 70.1501 56.7295 69.5601 59.9897 68.95L65.9897 67.8501C68.9897 67.26 72.0894 66.77 75.0796 66.0801C77.4097 65.55 79.6294 64.73 81.9097 64.0801C82.4097 63.9299 82.9097 63.73 83.4097 63.6101C85.3096 63.1699 85.9795 63.4099 86.6294 64.75C86.7944 65.0442 86.9414 65.3481 87.0693 65.6599C87.4297 66.72 86.8096 67.75 85.4795 68.3C81.4092 69.8418 77.1997 70.9873 72.9097 71.72C69.6895 72.3701 66.4194 72.9001 63.1797 73.52L63.1597 73.45Z" fill-rule="evenodd" fill="currentColor"/>
	<path d="M56.7495 69.2397L47.6592 70.7998C46.5591 70.9998 45.4795 71.3098 44.3691 71.4998L32.6694 73.4497C30.9292 73.7397 29.2095 74.1299 27.519 74.5298C25.3638 75.1709 23.1494 75.593 20.9092 75.7898C20.2095 75.7898 20.1294 74.9998 20.5293 74.0698C20.9976 72.9712 21.9214 72.1316 23.0591 71.7698C27.46 70.5076 31.9541 69.5979 36.4995 69.0498C39.2495 68.7498 41.9995 67.9299 44.7593 67.3799L53.9092 65.6099L59.5293 64.5298C62.3594 63.9697 65.2192 63.4697 67.9995 62.7898C70.1694 62.2698 72.2393 61.5198 74.3594 60.8699C74.8291 60.7297 75.2793 60.5498 75.7495 60.4299C77.519 59.9797 78.1494 60.1599 78.7495 61.2498C78.8994 61.4922 79.0361 61.7424 79.1592 61.9998C79.4995 62.8699 78.9292 63.7498 77.6792 64.2698C73.8623 65.7185 69.9233 66.8228 65.9092 67.5698C62.9092 68.2097 59.8394 68.7498 56.7993 69.3398L56.7495 69.2397Z" fill-rule="evenodd" fill="currentColor"/>
	<path d="M63.1992 81.76C60.8691 82.1899 58.519 82.6499 56.1992 83.1499C55.3394 83.3301 54.519 83.6399 53.6592 83.8C50.6592 84.3999 47.5591 84.9299 44.5093 85.47C43.1494 85.6899 41.8193 86.04 40.5093 86.3699C38.8457 86.9475 37.1079 87.2842 35.3491 87.3699C34.7793 87.3699 34.6694 86.45 34.9292 85.48C35.1201 84.4453 35.8027 83.5686 36.7593 83.1299C40.1294 82.0452 43.6006 81.3015 47.1191 80.9099C49.271 80.5469 51.396 80.0391 53.4795 79.3899C55.8091 78.8201 58.1694 78.28 60.5391 77.75L64.9194 76.75C67.1294 76.26 69.3691 75.8599 71.5493 75.3201C73.2393 74.8899 74.8491 74.23 76.5493 73.6799C76.9194 73.5601 77.269 73.3999 77.6392 73.3101C79.0293 72.96 79.5293 73.2 80.0493 74.4399C80.1807 74.717 80.2974 75.0007 80.3994 75.29C80.7051 76.2349 80.2354 77.2566 79.3193 77.6399C76.4312 78.8848 73.4121 79.8005 70.3193 80.3699C68.0093 80.8699 65.6694 81.3699 63.3193 81.8401L63.1992 81.76Z" fill-rule="evenodd" fill="currentColor"/>
	<path d="M63.4692 87.45C62.1592 87.6399 60.8394 87.8201 59.5293 88.04C59.0493 88.1201 58.6094 88.3201 58.1294 88.3801C56.4292 88.6301 54.7192 88.8401 52.9893 88.98C52.2368 89.0798 51.4917 89.2302 50.7593 89.4299C49.8369 89.7764 48.853 89.9297 47.8691 89.8801C47.5493 89.8801 47.459 89.21 47.5693 88.51C47.6792 87.8101 47.959 87.03 48.459 86.8101C50.2461 86.0105 52.1445 85.4878 54.0894 85.26C55.293 85.1277 56.4795 84.8694 57.6294 84.49C58.939 84.22 60.249 83.97 61.5591 83.72L63.9893 83.25C65.229 83.04 66.479 82.8801 67.6792 82.5801C68.1494 82.47 68.5894 82.26 69.0591 82.1499C69.519 82.011 69.9868 81.8975 70.459 81.8101C70.667 81.7627 70.8774 81.7261 71.0894 81.7C71.8994 81.6499 72.1992 81.8101 72.4492 82.3899C72.5112 82.5024 72.5645 82.6196 72.6094 82.74C72.6768 83.2283 72.4385 83.7083 72.0093 83.95C71.2793 84.47 70.5391 85.01 69.769 85.52C68.98 85.9172 68.1606 86.2517 67.3193 86.52C66.6992 86.74 66.0693 86.9299 65.439 87.1201C64.7812 87.3005 64.1133 87.4441 63.439 87.55L63.4692 87.45Z" fill-rule="evenodd" fill="currentColor"/>
	<defs/>
</svg>
