<svg width="24" height="24" viewBox="0 0 110 110" fill="none" xmlns="http://www.w3.org/2000/svg" xmlns:xlink="http://www.w3.org/1999/xlink">
	<path d="M41.3115 30.1802C45.3115 30.3101 49.3115 30.4399 53.3115 30.52C54.7715 30.52 56.2212 30.4199 57.6812 30.4702L73.1113 30.96C75.3916 31.0601 77.6914 31.0801 79.9614 31.1001C82.9346 30.958 85.9146 31.1865 88.8315 31.7798C89.0513 31.8345 89.252 31.9487 89.4116 32.1099C89.5122 32.2061 89.5366 32.3569 89.4712 32.48C89.2275 32.7778 88.937 33.0347 88.6113 33.2402C87.4966 34.0547 86.1919 34.5708 84.8213 34.7402C81.9214 35 78.9814 35.3198 76.0312 35.5298L73.8013 35.6802L71.5815 35.6802C70.0913 35.6802 68.5815 35.5801 67.1113 35.48C63.5415 35.25 59.8413 35.6499 56.1914 35.7402C52.1914 35.8301 48.1914 35.8701 44.1313 35.9199L36.7114 36.0098C32.9614 36.0698 29.1914 36.0098 25.4814 36.21C24.0312 36.29 22.6016 36.46 21.1812 36.6401L19.0415 36.9302C18.3213 37.0098 17.6113 37.0601 16.8916 37.1099C16.1714 37.1602 15.6514 37.2402 15.0112 37.25C12.6416 37.25 11.8813 36.8398 11.3716 35.4199C11.2363 35.0947 11.1226 34.7603 11.0312 34.4199C10.8115 33.3398 11.7612 32.4199 13.4614 31.98C15.9995 31.2656 18.5967 30.7803 21.2212 30.5298C23.8613 30.2998 26.5513 30.1899 29.2212 30.1001C31.2212 30.04 33.2212 30.02 35.2212 30L41.2212 30L41.3115 30.1802Z" fill-rule="evenodd" fill="currentColor"/>
	<path d="M60.2612 46.48C62.7915 46.6499 65.3413 46.8096 67.8813 46.9297C68.8013 46.9297 69.7314 46.8696 70.6514 46.9297C73.9214 47.1299 77.1914 47.3799 80.4717 47.5298C81.8813 47.6797 83.3813 47.6797 84.8213 47.6797C86.7319 47.5845 88.6465 47.7729 90.5015 48.2397C90.6597 48.2856 90.7993 48.3804 90.9014 48.5098C90.9658 48.6069 90.9658 48.7329 90.9014 48.8296C90.7139 49.0894 90.5103 49.3364 90.2915 49.5698C89.6665 50.2993 88.8203 50.8052 87.8813 51.0098C86.0513 51.2598 84.1816 51.5298 82.3213 51.6997L80.9214 51.8198C80.4517 51.8198 79.9814 51.8198 79.5112 51.8198C78.5112 51.77 77.6216 51.6997 76.6714 51.5996C74.3579 51.4951 72.04 51.5352 69.7314 51.7197C67.1816 51.7197 64.6313 51.7197 62.0713 51.7197L57.3813 51.7197C55.0015 51.7197 52.6113 51.6396 50.2412 51.79C49.3257 51.8599 48.4141 51.98 47.5112 52.1499C46.6138 52.3374 45.7051 52.4712 44.7915 52.5498C44.3916 52.5498 44.0015 52.6597 43.5913 52.6597C42.0815 52.6597 41.5913 52.29 41.2715 50.9897C41.1914 50.6997 41.1016 50.4097 41.0513 50.1196C40.9443 49.1006 41.5996 48.1567 42.5913 47.8999C44.165 47.2622 45.8159 46.8354 47.5015 46.6299C49.1714 46.4297 50.8813 46.3496 52.5913 46.2998C53.8613 46.2998 55.1313 46.2998 56.4116 46.2998L60.2515 46.3999L60.2612 46.48Z" fill-rule="evenodd" fill="currentColor"/>
	<path d="M76.2114 68.29C77.3413 68.4199 78.4814 68.5503 79.6216 68.6401C80.0317 68.6401 80.4414 68.6401 80.8613 68.6401C82.3218 68.7803 83.7915 68.9702 85.2715 69.0801C85.9375 69.1167 86.6055 69.1167 87.2715 69.0801C88.124 68.9956 88.9849 69.1011 89.7915 69.3901C90.0518 69.5103 90.0117 70.0898 89.7915 70.7202C89.5718 71.3501 89.1914 72.0601 88.7217 72.21C87.0972 72.7158 85.3613 72.7437 83.7217 72.29C82.6846 72.1802 81.6387 72.1802 80.6016 72.29C79.4517 72.29 78.3018 72.2202 77.1514 72.1699C76.4414 72.1699 75.7314 72.1001 75.0215 72.0898C73.9517 72.0898 72.8716 71.9902 71.8115 72.0898C70.9839 72.1772 70.1626 72.314 69.3516 72.5C69.1738 72.5439 68.9932 72.5771 68.8115 72.6001C68.1416 72.6001 67.9316 72.3003 67.8115 71.3999C67.8115 71.1899 67.7314 70.98 67.7217 70.7803C67.6265 70.1558 67.894 69.5317 68.4116 69.1699C69.1133 68.8154 69.8555 68.5469 70.6216 68.3701C70.9917 68.2803 71.3716 68.21 71.7515 68.1499C72.1313 68.125 72.5117 68.125 72.8916 68.1499C74.0215 68.1499 75.1714 68.2603 76.3115 68.3101L76.2114 68.29Z" fill-rule="evenodd" fill="currentColor"/>
	<defs/>
</svg>
