<svg width="24" height="24" viewBox="0 0 110 110" fill="none" xmlns="http://www.w3.org/2000/svg" xmlns:xlink="http://www.w3.org/1999/xlink">
	<path d="M17.6172 27.8672C17.6172 27.8672 22.0972 22.5273 23.917 24.1072C25.5674 25.5374 25.8374 28.5173 25.8374 28.5173L20.1973 34.5771L17.6172 27.8672Z" fill-rule="evenodd" fill="currentColor"/>
	<path d="M37.4775 17.2573C27.5576 24.1973 20.7974 43.1272 22.5674 46.5273C23.5176 48.3572 12.5674 45.1572 12.5674 45.1572L33.5674 15.6772L37.4775 17.2573Z" fill-rule="evenodd" fill="currentColor"/>
	<path d="M29.5874 77.2673C35.7939 75.2141 42.0874 73.4141 48.4673 71.8674C50.7871 71.3074 53.0972 70.6675 55.4673 70.2173C59.5171 69.4573 63.6074 68.8674 67.7271 68.4873C68.7271 68.3975 69.7271 68.3074 70.8071 68.2373L73.6475 68.0674C74.0957 68.0625 74.543 68.0291 74.9873 67.9673C75.0918 67.9502 75.1934 67.9165 75.2871 67.8674C75.376 67.791 75.4082 67.6672 75.3672 67.5574L75.0972 66.9573L74.9771 66.7073L74.6973 66.1274L74.0972 64.9375L72.8472 62.4375C72.0073 60.7773 71.1973 59.0974 70.3975 57.4375C69.3975 55.2773 68.3975 53.0974 67.5273 50.8374C67.0977 49.6948 66.7305 48.5298 66.4272 47.3474C66.2593 46.7532 66.1519 46.1433 66.1074 45.5273C66.0269 44.9041 65.9868 44.2759 65.9873 43.6475C65.9873 42.0474 66.8975 42.2473 68.0972 43.2773C68.8047 43.9023 69.4722 44.5703 70.0972 45.2773C70.8457 46.2014 71.4307 47.2463 71.8271 48.3674C72.8774 51.2773 74.1372 54.1875 75.457 57.0874C76.124 58.5408 76.7905 59.9907 77.457 61.4375L78.457 63.6074L78.5874 63.8774L78.8472 64.3774L79.3872 65.4275C79.7471 66.1274 80.1172 66.8174 80.3872 67.5073L80.5571 68.3975L80.5571 69.1375C80.5435 69.3762 80.4966 69.6118 80.4175 69.8374C80.3262 70.1108 80.1914 70.3677 80.0171 70.5974C79.2573 71.4915 78.1836 72.0603 77.0171 72.1875C76.3271 72.2874 75.6475 72.3774 74.9272 72.4175L73.8672 72.4873L73.2373 72.4873L70.9272 72.5674C65.2271 72.7573 59.4072 74.0073 53.707 75.2673C47.4375 76.6575 41.207 78.3674 35.0474 80.3474C33.1475 80.9473 31.2671 81.5874 29.3774 82.2273C27.4873 82.8674 26.0171 83.4573 23.2871 84.6575L22.7573 84.8774L21.3975 85.0574L20.7173 85.1475C20.4873 85.2473 20.2671 85.0874 20.0874 84.9375C19.4004 84.2192 18.8936 83.3489 18.6074 82.3975C18.4375 81.8875 18.2871 81.3975 18.1572 80.8374L17.8672 79.6475C17.707 78.9075 17.5571 78.1575 17.4072 77.4175C16.8472 74.4175 16.4072 71.4175 16.0674 68.4973C15.3608 63.7842 15.0269 59.0229 15.0674 54.2573C15.0771 53.1772 15.1504 52.0989 15.2871 51.0273C15.4795 49.5437 16.0024 48.1221 16.8174 46.8674C17.3604 46.2415 18.0952 45.8125 18.9072 45.6475C19.1694 45.5693 19.437 45.5093 19.707 45.4673C20.0674 45.4673 20.1274 45.8674 20.2773 46.6375C20.5122 47.6431 20.5698 48.6819 20.4473 49.7073C20.3374 51.5774 20.2671 53.5073 20.2871 55.4973C20.3071 57.4873 20.4175 59.4973 20.5874 61.5774C20.9272 65.6875 21.4272 69.9075 22.1675 74.0474C22.4771 75.8074 22.8472 77.6475 23.2573 79.2473C23.2573 79.2473 23.2573 79.3474 23.2573 79.3374L23.8872 79.1475L23.9673 79.1475L24.1372 79.0874L24.6172 78.9175L25.6172 78.5674C26.9175 78.0974 28.2271 77.6274 29.5371 77.1875L29.5874 77.2673Z" fill-rule="evenodd" fill="currentColor"/>
	<path d="M15.7173 45.3774C15.6602 45.4456 15.6162 45.5234 15.5874 45.6074C15.5874 45.7173 15.6675 45.7373 15.7271 45.7573C15.8101 45.7678 15.894 45.7678 15.9771 45.7573L16.1772 45.7573L16.2871 45.7573L16.7671 45.6475C19.3774 44.9973 22.0571 44.1875 24.7671 43.3774C26.7173 42.7874 28.6372 42.0774 30.6074 41.5073C37.582 39.4192 44.6924 37.812 51.8872 36.6975C55.1104 36.2053 58.3589 35.8982 61.6172 35.7773C63.7354 35.6882 65.8569 35.7888 67.9575 36.0774C69.0229 36.2209 70.0737 36.4587 71.0972 36.7874C72.1367 37.1353 73.1416 37.5806 74.0972 38.1174C75.2671 38.8274 74.6973 39.4375 73.4072 39.7773C72.6245 39.9907 71.8247 40.1379 71.0171 40.2173C70.0239 40.3789 69.0107 40.3789 68.0171 40.2173C64.1284 39.6782 60.187 39.6345 56.2871 40.0874C52.2871 40.4873 48.2871 41.1875 44.2871 41.9575C39.3438 43.0786 34.4746 44.5046 29.7075 46.2273L21.7075 48.8274C20.3472 49.2473 18.9771 49.6575 17.5674 50.0273C16.5376 50.3174 15.4883 50.5312 14.4272 50.6675C13.5127 50.7988 12.5811 50.7271 11.6973 50.4575C11.1401 50.3293 10.6426 50.0154 10.2871 49.5674C10.0679 49.103 9.97168 48.5898 10.0073 48.0774C10.1196 46.8809 10.459 45.7168 11.0073 44.6475L11.4375 43.7673L11.8574 42.9673L12.5073 41.7974C12.9473 41.0273 13.4072 40.2673 13.8672 39.5173C16.707 35.0325 19.7705 30.6936 23.0474 26.5173C25.4746 23.2136 28.0854 20.0486 30.8672 17.0374C31.5073 16.3774 32.1274 15.7175 32.8672 15.1074C35.5674 12.8574 37.0073 12.6174 38.1572 13.4175C38.437 13.5779 38.6958 13.7727 38.9272 13.9973C39.2104 14.4375 39.1694 15.0115 38.8271 15.4075C38.3413 16.1145 37.7588 16.7507 37.0972 17.2974C34.5923 19.6812 32.2534 22.2339 30.0972 24.9375C27.8071 27.7175 25.5571 30.6375 23.3872 33.6375C21.7871 35.8674 20.2271 38.1375 18.7471 40.4475C18.0171 41.5974 17.2974 42.7573 16.6372 43.9275L16.1475 44.8074L15.9272 45.2075C15.9019 45.239 15.8784 45.2725 15.8574 45.3074L15.7173 45.3774Z" fill-rule="evenodd" fill="currentColor"/>
	<path d="M59.9775 32.9673L54.9775 29.5173C54.3672 29.0974 53.6875 28.7673 53.0771 28.3274C50.9561 26.7009 48.9297 24.9548 47.0073 23.0974C46.1772 22.2473 45.2173 21.5474 44.3472 20.7673C43.1431 19.8333 42.1597 18.645 41.4673 17.2874C41.2476 16.8474 41.7871 16.4475 42.5972 16.2173C43.4561 15.9143 44.396 15.9392 45.2373 16.2874C45.5371 16.4873 45.8472 16.6875 46.1675 16.8574L46.6372 17.1375L47.0371 17.4873C47.5571 17.9673 48.0371 18.4873 48.6274 18.9075C49.6274 19.9075 50.7275 20.8274 51.7476 21.9075C52.3823 22.5295 53.0869 23.0767 53.8472 23.5374L56.1274 25.0073C57.7671 26.1274 59.4473 27.2473 61.1274 28.3674L64.2871 30.4275C65.8975 31.4275 67.4072 32.6875 68.9873 33.7573C70.2075 34.5974 71.5674 35.2273 72.6973 36.1775C72.9639 36.3635 73.2178 36.5671 73.4575 36.7874C74.3271 37.6475 74.4575 38.0974 74.1074 38.8674C74.0273 39.0374 73.9673 39.2173 73.8774 39.3774C73.5674 39.8875 72.8774 39.9673 72.0073 39.6575C71.3774 39.4275 70.7871 39.1575 70.1475 38.9375L69.2075 38.5874C68.9072 38.4673 68.6372 38.2874 68.3472 38.1375C67.1973 37.5374 66.0874 36.8674 64.9375 36.2173C63.2373 35.2874 61.6274 34.1375 59.9375 33.0674L59.9775 32.9673Z" fill-rule="evenodd" fill="currentColor"/>
	<path d="M14.2871 21.9375C14.2871 21.8774 14.3369 21.8374 14.2871 21.7673L14.3472 21.6074C14.6665 21.0015 15.082 20.4509 15.5771 19.9773C15.9375 19.6365 16.333 19.3347 16.7573 19.0774C17.5005 18.6226 18.2876 18.2439 19.1069 17.9473C19.6958 17.6934 20.3042 17.4893 20.9272 17.3374C21.2271 17.2773 21.4673 17.2373 21.8169 17.1973C22.2334 17.127 22.6553 17.1001 23.0771 17.1174C23.853 17.1213 24.6133 17.3354 25.2773 17.7373C25.5952 17.9263 25.855 18.1997 26.0273 18.5273C26.0967 18.6848 26.1504 18.8491 26.187 19.0173C26.2349 19.1907 26.2651 19.3682 26.2773 19.5474C26.3071 19.9368 26.3071 20.3279 26.2773 20.7173C26.2773 21.1074 26.2773 21.5173 26.2773 21.7173C26.2637 22.5955 26.3003 23.4736 26.3872 24.3474C26.5532 25.4678 26.519 26.6089 26.2871 27.7173C26.1772 28.0674 25.5073 28.0374 24.7871 27.7773C24.0669 27.5173 23.2573 27.0073 23.0869 26.3774C22.7671 25.2927 22.6021 24.1682 22.5972 23.0374L22.5972 22.1973L22.5972 21.7773C22.5972 21.6775 22.5972 21.6973 22.5972 21.6775L22.6572 21.6775C22.8159 21.5522 22.9258 21.3752 22.9673 21.1775C22.9673 20.8875 22.7373 20.8474 22.5273 20.8474L22.3672 20.8474L22.0669 20.8474L21.187 21.0073C20.5068 21.1196 19.8379 21.2903 19.187 21.5173C18.8809 21.625 18.5835 21.7554 18.2969 21.9075C18.0654 22.0283 17.8447 22.1687 17.6372 22.3274C17.5381 22.4094 17.4536 22.5076 17.3872 22.6174C17.3115 22.7654 17.2803 22.9321 17.2969 23.0974C17.3252 23.3894 17.3687 23.6799 17.4272 23.9673C17.7114 25.3315 18.1094 26.6697 18.6172 27.9673C19.0674 28.9299 19.6245 29.8389 20.2773 30.6775C20.397 30.8674 20.5669 31.0173 20.687 31.2073C20.874 31.4414 20.9604 31.7397 20.9272 32.0374C20.834 32.3418 20.6694 32.6194 20.4473 32.8474C20.3169 33.0073 20.207 33.1675 20.0771 33.3174C19.8843 33.5552 19.5933 33.6914 19.2871 33.6875C18.9219 33.6797 18.5693 33.5493 18.2871 33.3174C16.7026 31.7595 15.5249 29.8367 14.8569 27.7173C14.5669 26.9316 14.3462 26.1218 14.1973 25.2974C14.1172 24.8875 14.0469 24.4375 13.9971 23.9673L13.9971 23.5774C13.9771 23.3979 13.9771 23.2168 13.9971 23.0374C14.0005 22.667 14.0439 22.2983 14.127 21.9375L14.2871 21.9375Z" fill-rule="evenodd" fill="currentColor"/>
	<path d="M29.9971 61.0073C30.6274 61.6772 40.1675 58.8875 40.7075 58.6174C41.2471 58.3474 39.9971 51.5374 39.0474 49.5574C38.5273 48.4673 28.5571 50.3274 28.5571 50.3274C28.2075 50.3875 28.5771 59.5173 29.9971 61.0073Z" fill-rule="evenodd" fill="currentColor"/>
	<path d="M59.877 55.9475C59.4873 56.7776 49.5469 57.0974 48.957 57.0176C48.3672 56.9375 47.417 50.0674 47.707 47.8674C47.8569 46.6675 57.917 45.3274 57.917 45.3274C58.2871 45.2974 60.7573 54.0874 59.877 55.9475Z" fill-rule="evenodd" fill="currentColor"/>
	<path d="M75.7676 71.9573C79.1797 71.011 82.6416 70.2534 86.1372 69.6873C86.5273 69.6074 86.9072 69.5273 87.1372 69.4573L87.2676 69.4573L87.3374 69.6074L87.4375 69.8474C87.5576 70.1475 87.7773 70.5073 87.8774 70.7073C87.938 70.8264 88.0078 70.9402 88.0874 71.0474C88.1406 71.1387 88.2007 71.2256 88.2676 71.3074L88.4375 71.4973C88.481 71.5378 88.5278 71.5745 88.5771 71.6074C88.7573 71.7073 88.6675 71.6074 88.4375 71.7573C88.3843 71.7893 88.334 71.8262 88.2876 71.8674L86.8174 73.2373L86.8174 73.1775L86.6772 73.1074L86.4072 72.9473C86.2734 72.8899 86.1367 72.8396 85.9976 72.7974C84.5923 72.3645 83.1367 72.1157 81.6675 72.0574C79.2031 72.0061 76.7383 72.1096 74.2876 72.3674C65.5181 73.0906 56.8101 74.4272 48.2275 76.3674C44.3872 77.2073 40.5874 78.2673 36.8774 79.4473C34.5073 80.2373 32.1074 80.9373 29.7275 81.6775L26.1475 82.7974L24.2876 83.3274C23.6973 83.5173 23.0674 83.6375 22.4673 83.8274C20.9473 84.2173 21.0176 83.9373 21.9775 82.8274C23.5127 81.0271 25.3975 79.5574 27.5176 78.5073C28.6973 77.9275 29.8872 77.3574 31.0771 76.8174L32.8774 76.0073L34.7275 75.3674C37.2075 74.5273 39.7275 73.7773 42.2075 73.0674C47.2422 71.6289 52.3667 70.5264 57.5474 69.7673C63.7676 68.8975 70.1572 67.5474 76.7075 67.2073C78.5327 67.1025 80.3623 67.1025 82.1875 67.2073C84.1787 67.269 86.147 67.6506 88.0176 68.3374L88.8271 68.7573L89.2275 68.9673C89.3574 69.0574 89.4976 69.1775 89.6372 69.2874L90.0376 69.6274L90.2876 69.8674L90.3872 69.9473L90.5874 70.1973L90.6875 70.3374L90.8174 70.5674C90.915 70.7461 90.9858 70.938 91.0273 71.1375C91.0728 71.3921 91.0728 71.6526 91.0273 71.9075C91.0068 72.1643 90.939 72.415 90.8271 72.6475C90.6836 72.9604 90.4761 73.2397 90.2173 73.4673C90.0791 73.585 89.9321 73.6919 89.7773 73.7874C89.4468 73.9795 89.0942 74.1306 88.7275 74.2373C88.4575 74.3274 88.2173 74.3875 87.9775 74.4473C87.4976 74.5574 87.0576 74.6575 86.6172 74.7373C84.8672 75.0874 83.1973 75.4075 81.5376 75.7373C77.4463 76.6003 73.4531 77.8733 69.6172 79.5374C65.4946 81.3403 61.6357 83.6953 58.1475 86.5374L58.3174 86.3674C58.1206 86.175 57.8984 86.0103 57.6572 85.8774C57.5742 85.8174 57.4785 85.7764 57.3774 85.7573C57.3291 85.739 57.2759 85.739 57.2275 85.7573C57.2773 85.718 57.3096 85.6606 57.3174 85.5974C57.4189 85.3586 57.4829 85.1057 57.5073 84.8474L57.5073 84.5974L57.6172 84.5974L57.8672 84.5974C58.2476 84.5974 58.6973 84.4773 59.1274 84.3875C60.0073 84.2073 60.9072 83.9773 61.7974 83.7473C66.6372 82.4973 71.3271 80.8774 76.3472 79.8574C77.4575 79.6375 78.5474 79.3975 79.7275 79.2773C81.3735 79.0056 83.0615 79.1499 84.6372 79.6973C85.1484 79.9153 85.5957 80.2593 85.9375 80.6973C86.2061 81.0554 86.353 81.4897 86.3574 81.9373C86.3911 82.2844 86.3179 82.6333 86.1475 82.9373C85.8472 83.3074 85.3472 83.2373 84.8672 83.3975C84.5571 83.4797 84.2383 83.5234 83.9175 83.5273L82.3574 83.6174C80.3921 83.8076 78.4434 84.1418 76.5273 84.6174C74.5273 85.1074 72.4473 85.6174 70.3574 86.2573L64.0474 87.8674C62.9575 88.1675 61.8672 88.4673 60.7075 88.7373C60.1172 88.8774 59.5474 89.0173 58.8271 89.1274C58.3491 89.2144 57.8633 89.2512 57.3774 89.2373C57.2612 89.2505 57.1436 89.2505 57.0273 89.2373C56.873 89.2222 56.7192 89.1987 56.5674 89.1675C56.311 89.1001 56.0605 89.0132 55.8174 88.9075C55.5645 88.7932 55.3257 88.6487 55.1074 88.4773C54.8501 88.2788 54.6245 88.043 54.4375 87.7773C54.1758 87.4116 53.9829 87.0017 53.8672 86.5674C53.7617 86.073 53.7617 85.5618 53.8672 85.0674C53.8867 84.9407 53.9204 84.8167 53.9673 84.6973C54.0425 84.4094 54.1494 84.1311 54.2876 83.8674L54.4175 83.6775C54.4976 83.5574 54.5972 83.4275 54.6875 83.3174L54.8574 83.1174L55.0874 82.9175L56.0874 82.0674C61.915 77.4329 68.5845 73.9692 75.7275 71.8674L75.7676 71.9573Z" fill-rule="evenodd" fill="currentColor"/>
	<defs/>
</svg>
