<svg width="24" height="24" viewBox="0 0 110 110" fill="none" xmlns="http://www.w3.org/2000/svg" xmlns:xlink="http://www.w3.org/1999/xlink">
	<path d="M51.8242 91.9827C52.0942 92.1926 51.624 92.4526 50.7241 92.6025C50.2959 92.6582 49.8623 92.6582 49.4341 92.6025C49.1938 92.5027 48.9541 92.4126 48.7842 92.3225C48.6143 92.2327 48.1938 91.2126 47.9741 90.8425C47.7886 90.5034 47.6797 90.1282 47.6538 89.7427C47.564 88.9827 47.4238 88.2126 47.3242 87.4426C47.3047 87.2668 47.3252 87.0894 47.3838 86.9226C47.5591 86.3354 47.5591 85.7097 47.3838 85.1226C47.3838 85.0327 47.3838 84.9226 47.2241 84.8425C47.064 84.7627 46.8643 83.0925 46.9541 82.8425C47.0439 82.5925 47.1538 82.2925 47.2441 82.0227L47.5439 81.1926C47.5439 81.1125 47.5439 81.0327 47.6841 80.9526C48.0342 80.7627 47.9541 80.6025 48.0239 80.4326C48.1025 80.1841 48.2031 79.9434 48.3242 79.7126C48.4268 79.5732 48.5518 79.4517 48.6938 79.3525C48.814 79.2427 49.1738 79.3525 49.2241 79.3525C49.2739 79.3525 49.5239 79.3525 49.6841 79.3525L49.8442 79.3525C49.8442 79.3525 50.144 79.6326 50.4839 79.9426L50.9741 80.3625C51.0498 80.4382 51.1172 80.522 51.1738 80.6125L51.2842 80.9126C51.354 81.0825 51.4438 81.3125 51.5439 81.5425C51.7139 82.0227 51.874 82.5425 51.9238 82.6125C51.9741 82.6826 51.9238 82.8425 51.9238 82.9526C51.9238 83.0625 52.4541 84.4326 52.4341 84.5027C52.4341 84.8125 52.6143 85.1025 52.3042 85.4426C52.27 85.5015 52.27 85.5737 52.3042 85.6326C52.3789 86.1633 52.3789 86.7019 52.3042 87.2327C52.3169 87.5046 52.3506 87.7754 52.4038 88.0425C52.4038 88.0425 52.4038 88.1526 52.3442 88.2026C52.3135 88.2615 52.2964 88.3264 52.2939 88.3926C52.3154 89.064 52.3887 89.7327 52.5142 90.3926C52.5742 90.5327 52.2241 91.3025 52.3042 91.4727C52.3838 91.6426 51.7241 91.8726 51.8242 91.9827Z" fill-rule="evenodd" fill="currentColor"/>
	<path d="M24.5244 79.1929C27.4453 82.6948 31.1201 85.4912 35.2744 87.3728C36.8101 88.0264 38.395 88.5581 40.0142 88.9629C42.8857 89.7012 45.8555 89.9812 48.814 89.7927C51.8164 89.647 54.7832 89.0745 57.624 88.0928C60.1455 87.2119 62.5264 85.9724 64.6943 84.4128C67.4551 82.3853 69.9482 80.0164 72.1143 77.3628C72.8242 76.5627 73.0439 76.8728 72.7939 77.8428C72.6201 78.4958 72.3789 79.1294 72.0742 79.7327C71.6235 80.5623 71.0835 81.3401 70.4644 82.0527C69.2285 83.4421 67.8735 84.7205 66.4141 85.8728C64.9341 87.0176 63.3506 88.022 61.6841 88.8728C58.3267 90.5291 54.7056 91.585 50.9844 91.9927C48.7373 92.2507 46.4741 92.3376 44.2144 92.2527C41.9067 92.1541 39.6201 91.7747 37.4043 91.1228C32.564 89.668 28.1182 87.1306 24.4043 83.7029C22.1235 81.6165 20.1567 79.2117 18.564 76.5627C16.189 72.5251 14.7603 68.002 14.3843 63.3328C14.0552 59.7656 14.3701 56.1685 15.314 52.7129C15.5542 51.9727 15.7544 51.2327 16.0142 50.4827C17.104 47.7527 17.814 47.0627 18.5942 46.7727C18.7681 46.6963 18.9492 46.636 19.1343 46.5928C19.644 46.5928 19.5044 47.7727 18.9243 49.6929C18.0684 52.5676 17.6006 55.5439 17.5342 58.5427C17.0054 66.0801 19.5278 73.5137 24.5342 79.1729L24.5244 79.1929Z" fill-rule="evenodd" fill="currentColor"/>
	<path d="M44.2739 27.4729C44.0542 27.3428 44.4141 27.1829 45.1143 26.9529C45.4399 26.8652 45.7764 26.8215 46.1143 26.8228C46.3057 26.8914 46.4897 26.9785 46.6641 27.0828C46.9131 27.5491 47.1333 28.03 47.3242 28.5227C47.4575 28.8394 47.5254 29.1794 47.5239 29.5227L47.5942 31.5227C47.5933 31.6719 47.5591 31.8186 47.4941 31.9529C47.2886 32.4172 47.2227 32.9314 47.3042 33.4329C47.3042 33.5127 47.3042 33.5928 47.4043 33.6729C47.5854 34.1938 47.6133 34.7563 47.4839 35.2927C47.2476 35.6938 47.0405 36.1118 46.8643 36.5427C46.8643 36.6028 46.8643 36.6628 46.7441 36.7129C46.4341 36.8528 46.4839 36.9729 46.4639 37.1028C46.4336 37.2869 46.376 37.4653 46.2939 37.6328C46.1943 37.739 46.0801 37.8298 45.9541 37.9028C45.7681 37.9819 45.5625 38.0029 45.3643 37.9629C45.2241 37.8928 45.0239 37.9629 44.8442 37.9629L44.6543 37.9629C44.2593 37.6108 43.9219 37.1992 43.6543 36.7427C43.6543 36.7427 43.5542 36.3228 43.4639 35.8928C43.374 35.4629 43.2539 35.0327 43.2241 34.8928C43.1943 34.7527 43.2241 34.7029 43.314 34.6128C43.4043 34.5227 43.0942 33.3127 43.104 33.2627C43.104 33.0127 43.0342 32.7527 43.3242 32.5027C43.3843 32.4529 43.3242 32.4028 43.3242 32.3528C43.3184 31.9109 43.3721 31.4702 43.4839 31.0427C43.499 30.823 43.499 30.6025 43.4839 30.3828C43.4839 30.3828 43.4839 30.3027 43.5439 30.2627C43.5728 30.2166 43.5928 30.1658 43.604 30.1128C43.6543 29.6006 43.6543 29.085 43.604 28.5728C43.604 28.4729 43.8843 27.9028 43.8242 27.7827C43.7642 27.6628 44.354 27.5327 44.2739 27.4729Z" fill-rule="evenodd" fill="currentColor"/>
	<path d="M15.5239 63.6726C15.1943 63.8828 14.9941 63.2527 15.2939 62.3228C15.4678 61.8889 15.6714 61.468 15.9043 61.0627C16.0415 60.877 16.1494 60.6711 16.2241 60.4526C16.2241 60.4526 16.4141 60.2827 16.5742 60.1726L17.2144 59.8328C17.4722 59.6841 17.7666 59.6113 18.064 59.6228C18.6641 59.6228 19.3042 59.5227 19.9443 59.4626C20.0991 59.4539 20.2544 59.4849 20.394 59.5527C20.8804 59.7671 21.4282 59.7954 21.9341 59.6328C22.0239 59.6328 22.1143 59.6328 22.1743 59.4827C22.2339 59.3328 23.6841 59.0928 23.894 59.1826C24.1318 59.2876 24.3755 59.3777 24.624 59.4526C24.874 59.5427 25.1143 59.6628 25.374 59.7727C25.4443 59.7727 25.5142 59.7727 25.584 59.9128C25.7739 60.2727 25.9043 60.2126 26.064 60.2427C26.29 60.2859 26.5088 60.3599 26.7144 60.4626C26.8462 60.5725 26.9575 60.7043 27.0439 60.8528C27.104 61.0652 27.104 61.2903 27.0439 61.5027C26.9644 61.6528 27.0439 61.8728 27.0439 62.0728C27.0493 62.1394 27.0493 62.2061 27.0439 62.2727C26.7256 62.7114 26.3711 63.1228 25.9844 63.5027L25.1841 63.9128C24.7739 64.0527 24.334 64.2227 24.2441 64.2727C24.1543 64.3228 24.0542 64.2727 23.9443 64.2026C23.834 64.1328 22.6343 64.7126 22.5742 64.7126C22.2939 64.7126 22.0342 64.8928 21.7144 64.5928C21.6543 64.5327 21.604 64.5928 21.5439 64.5928C21.0605 64.6729 20.5674 64.6729 20.084 64.5928C19.8325 64.6001 19.5815 64.627 19.334 64.6726C19.2842 64.6726 19.2339 64.6726 19.1943 64.6128C19.1406 64.5764 19.0786 64.5557 19.0142 64.5527C18.3828 64.553 17.752 64.5862 17.124 64.6528C16.9839 64.7126 16.2241 64.2227 16.0239 64.2627C15.8242 64.3027 15.6343 63.5828 15.5239 63.6726Z" fill-rule="evenodd" fill="currentColor"/>
	<path d="M20.6641 82.5427C17.6108 78.7471 15.3892 74.3521 14.144 69.6428C12.9312 64.9719 12.6797 60.1038 13.4038 55.3328C13.8726 51.8887 14.8076 48.5244 16.1841 45.3328C19.9722 36.9016 26.8154 30.2197 35.334 26.6328C36.7295 26.0515 38.1587 25.554 39.6138 25.1428L41.8037 24.6128L44.084 24.2627C49.439 23.6851 54.854 24.416 59.8638 26.3928C63.0894 27.6216 66.0693 29.4165 68.6641 31.6929C71.209 34.0579 73.1353 37.0107 74.2739 40.2927C74.9438 42.2927 73.9541 42.2927 72.3638 41.2029C71.6138 40.6328 70.5342 39.9229 69.4839 39.0527C68.876 38.6431 68.2915 38.199 67.7339 37.7227C67.0923 37.2725 66.4746 36.7886 65.8838 36.2727C61.5464 32.3892 56.0723 30.0078 50.2739 29.4827C49.5537 29.3979 48.8291 29.3579 48.104 29.3628L47.0239 29.3628L45.9438 29.4329C45.5938 29.4329 45.2241 29.4329 44.874 29.5127L43.814 29.6829C43.1138 29.7627 42.394 29.9429 41.6641 30.1028C38.7314 30.7717 35.9072 31.8491 33.2739 33.3027C30.0205 35.1348 27.1782 37.6162 24.9238 40.5928C22.6372 43.6108 20.8726 46.991 19.7041 50.5928C18.4062 54.5493 17.8804 58.718 18.1538 62.8728C18.4546 67.0334 19.6265 71.0842 21.5938 74.7627C22.1973 75.8967 22.8652 76.9951 23.5938 78.0527L24.7939 79.5627L25.4038 80.3228L26.0737 81.0227C27.8535 82.9175 29.8701 84.5745 32.0737 85.9529C35.4443 88.0437 39.1743 89.4883 43.0737 90.2129C46.9434 90.8997 50.9194 90.6875 54.6938 89.5928C57.5669 88.7202 60.272 87.3677 62.6938 85.5928C65.1099 83.8647 67.2534 81.7852 69.0537 79.4229C69.894 78.4229 70.5342 77.3328 71.3237 76.2927C71.9438 75.2927 72.5039 74.4229 72.9541 73.7029C73.2856 73.0815 73.6738 72.4924 74.1138 71.9429C74.6436 71.1904 75.3701 70.5986 76.2139 70.2327C76.5581 70.0869 76.9121 69.9666 77.2739 69.8728C77.7939 69.7727 78.0439 70.2727 78.0737 71.3428C78.084 72.0122 78.0371 72.6812 77.9341 73.3428C77.7266 74.23 77.4595 75.1018 77.1338 75.9529C76.8638 76.6729 76.5039 77.3428 76.1338 78.0527L75.6338 79.0527L75.0439 80.0527C74.6338 80.7129 74.2539 81.4128 73.8037 82.0527C73.354 82.6929 72.8037 83.2927 72.354 83.9229C70.2817 86.3931 67.8672 88.5547 65.1841 90.3428C62.4097 92.1758 59.376 93.5815 56.1841 94.5127C55.3818 94.7507 54.5674 94.9443 53.7441 95.0928L52.5039 95.3528C52.0938 95.4329 51.6738 95.4529 51.2539 95.5027C50.4141 95.5828 49.584 95.7029 48.7339 95.7327L46.2739 95.7327C45.6484 95.7258 45.0234 95.6792 44.4038 95.5928L42.5439 95.3628C41.3037 95.1829 40.104 94.8328 38.8838 94.5627C37.6641 94.2927 36.5537 93.7827 35.3838 93.3928C34.2139 93.0027 33.1338 92.3928 32.0239 91.8628C27.6206 89.5947 23.7251 86.4543 20.5737 82.6328L20.6641 82.5427Z" fill-rule="evenodd" fill="currentColor"/>
	<path d="M48.1836 61.8027C48.1411 61.8821 48.1074 61.9661 48.084 62.0527C48.1235 62.1016 48.1753 62.1396 48.2339 62.1628C48.3232 62.2031 48.4175 62.2334 48.5137 62.2529L48.7437 62.2529L49.0938 62.2529C49.335 62.2527 49.5757 62.2327 49.814 62.1929C50.5137 62.1328 51.2036 61.9128 51.9336 61.8027C54.4937 61.4229 57.1636 60.8027 59.9336 60.4329C61.167 60.2134 62.4126 60.0698 63.6636 60.0029C65.2988 59.7957 66.959 60.0413 68.4639 60.7129C68.9336 60.9329 68.6836 61.4929 68.1436 62.0327C67.6138 62.6143 66.9141 63.0132 66.1436 63.1729C64.7783 63.2617 63.4209 63.4521 62.084 63.7429L57.7036 64.3928C55.8735 64.6328 54.0537 65.3928 52.104 65.8628C51.5737 65.9829 51.0137 66.0728 50.4736 66.1729C50.2036 66.1729 49.9136 66.2529 49.6338 66.2927L48.6338 66.4229C47.7939 66.4929 46.9736 66.4829 46.1636 66.5129L45.0137 66.4028L44.4536 66.4028C44.2837 66.4028 43.9937 66.4028 44.064 66.1729L43.8936 63.2429C43.8936 62.7827 43.814 62.2429 43.8237 61.8528L43.8237 60.8528C43.7739 58.8528 43.9438 56.8528 43.9238 54.9128C43.9092 54.1565 43.8491 53.4019 43.7437 52.6528L43.5938 51.5327C43.5938 51.1628 43.5938 50.7927 43.5337 50.4229C43.4736 50.0527 43.4736 49.7729 43.5337 49.4229C43.7139 48.2029 44.0737 47.8228 45.0239 47.5627C45.2334 47.4934 45.4473 47.4368 45.6636 47.3928C46.354 47.2729 46.9839 47.7827 47.4136 48.6929C48.7236 51.4028 48.584 54.2629 48.6235 56.9929C48.6235 57.9929 48.6235 58.9929 48.5337 59.9929L48.4736 61.5129L48.4736 61.6729L48.1836 61.8027Z" fill-rule="evenodd" fill="currentColor"/>
	<path d="M65.4238 19.8726C65.6538 20.0227 65.4238 20.2927 64.7939 20.6526C64.5088 20.7959 64.2007 20.8872 63.8838 20.9226C63.6909 20.8618 63.5039 20.7847 63.3237 20.6926C62.958 20.1909 62.624 19.6665 62.3237 19.1226C62.104 18.7551 61.9482 18.3525 61.8638 17.9326C61.6641 17.1028 61.4541 16.2627 61.314 15.4126C61.2715 15.2361 61.2578 15.0537 61.2739 14.8726C61.3901 14.2109 61.3901 13.5342 61.2739 12.8726C61.2739 12.7627 61.2739 12.6526 61.1538 12.5427C61.0337 12.4326 60.9937 10.5427 61.1538 10.2727C61.4438 9.69263 61.6538 9.11255 61.9541 8.54272C61.9541 8.46265 61.9541 8.36255 62.1138 8.31274C62.4736 8.21265 62.5039 8.03271 62.5938 7.86255C62.7036 7.60742 62.8794 7.38647 63.104 7.22266C63.2568 7.13721 63.4175 7.06665 63.584 7.0127C63.7236 6.95264 63.9736 7.12256 64.0039 7.17261C64.0337 7.22266 64.2437 7.29272 64.374 7.33276L64.5039 7.33276C64.5039 7.4126 65.2041 8.82275 65.2139 8.92261C65.1704 9.573 65.1909 10.2261 65.2739 10.8726C65.2739 10.9727 65.2739 11.0728 65.1738 11.1726C65.0737 11.2727 65.4141 12.6125 65.4038 12.6726C65.4038 12.9626 65.5039 13.2527 65.2339 13.5627C65.1841 13.6226 65.2339 13.6826 65.2339 13.7427C65.2739 14.2585 65.2739 14.7769 65.2339 15.2927C65.2476 15.5581 65.2808 15.8223 65.334 16.0828C65.334 16.0828 65.334 16.1826 65.334 16.2327C65.3242 16.2957 65.3242 16.3596 65.334 16.4226C65.3979 17.0522 65.5181 17.6748 65.6938 18.2827C65.7539 18.4226 65.6138 19.1726 65.6938 19.3328C65.7739 19.4927 65.3237 19.8726 65.4238 19.8726Z" fill-rule="evenodd" fill="currentColor"/>
	<path d="M80.374 30.6926C80.4438 30.9526 80.0439 30.8025 79.374 30.4526C79.0479 30.2749 78.7485 30.0527 78.4839 29.7925C78.3862 29.5979 78.3091 29.3933 78.2539 29.1826C78.3877 28.6074 78.5889 28.05 78.854 27.5225C79.0156 27.1367 79.2656 26.7939 79.584 26.5225C80.1777 25.9641 80.8164 25.4558 81.4941 25.0024C81.6509 24.9011 81.8286 24.8362 82.0137 24.8125C82.624 24.7209 83.209 24.5066 83.7339 24.1826C83.8237 24.1326 83.9238 24.1226 83.9741 23.9626C84.0239 23.8025 85.644 23.1426 85.894 23.2524C86.144 23.3625 86.4639 23.3625 86.7441 23.4626L87.5737 23.7524C87.644 23.7524 87.7241 23.7524 87.8037 23.8826C87.8784 24.0803 88.0732 24.2061 88.2837 24.1926C88.7002 24.2002 89.0811 24.4287 89.2837 24.7925C89.3442 24.9607 89.3442 25.1445 89.2837 25.3125C89.1938 25.4426 89.2837 25.6226 89.2837 25.7725C89.2886 25.8291 89.2886 25.886 89.2837 25.9426C89.2837 26.0125 88.2837 27.0425 88.2041 27.0925L87.9839 27.2126L87.5239 27.5125C87.1938 27.7424 86.8438 27.8726 86.7837 27.9526C86.7241 28.0325 86.624 27.9526 86.5239 27.9526C86.1772 28.126 85.8433 28.3232 85.5239 28.5425C85.2939 28.5425 85.1641 28.7825 84.8237 28.5425C84.7539 28.5425 84.7241 28.5425 84.6841 28.5425C84.3369 28.7192 83.9712 28.8569 83.5938 28.9526C83.417 29.0366 83.252 29.1443 83.104 29.2725C83.104 29.2725 83.0137 29.2725 82.9741 29.2725C82.9341 29.2725 82.8638 29.2725 82.8237 29.2725C82.4741 29.5825 81.9839 29.7524 81.7539 30.1826C81.6938 30.2725 81.0737 30.4126 81.0239 30.5425C80.9741 30.6726 80.354 30.5725 80.374 30.6926Z" fill-rule="evenodd" fill="currentColor"/>
	<defs/>
</svg>
