<svg width="24" height="24" viewBox="0 0 110 110" fill="none" xmlns="http://www.w3.org/2000/svg" xmlns:xlink="http://www.w3.org/1999/xlink">
	<path d="M82.6177 39.4216C83.2476 39.2217 83.8574 39.0117 84.4673 38.7917L84.6973 38.7117C84.7773 38.7117 84.7573 38.7117 84.7876 38.7117L84.8975 38.7117L85.0977 38.7117C85.416 38.6755 85.6548 38.4023 85.6475 38.0818C85.626 37.96 85.5664 37.8479 85.4775 37.7617L85.3374 37.6018C85.2563 37.5078 85.1826 37.4075 85.1177 37.3018C85.0513 37.187 84.978 37.0769 84.8975 36.9717L84.5273 36.5217C84.2876 36.2078 84.0303 35.9075 83.7573 35.6218C83.2075 35.0417 82.6772 34.3918 82.0674 33.8018C80.8145 32.5833 79.478 31.4539 78.0674 30.4216C76.7827 29.5042 75.4473 28.6597 74.0674 27.8918C72.2856 26.822 70.646 25.5317 69.1875 24.0518C68.7476 23.5618 69.0576 23.2817 69.7974 23.1418C70.8125 22.9343 71.8613 22.9548 72.8677 23.2017L75.8677 24.1318C76.8315 24.4956 77.7764 24.9094 78.6973 25.3718C80.6465 26.291 82.4849 27.4282 84.1772 28.7617C85.1772 29.6118 86.3677 30.3318 87.4473 31.2517C87.9976 31.6816 88.5376 32.1716 89.0674 32.6619L89.2676 32.8518L89.5073 33.1018L89.9775 33.6118C90.3105 33.9587 90.6182 34.3298 90.8975 34.7217C91.5767 35.603 92.0425 36.6299 92.2573 37.7217C92.4409 38.7869 92.2944 39.8823 91.8374 40.8618C91.3457 41.8247 90.6333 42.6575 89.7573 43.2917C89.3198 43.6155 88.8584 43.9062 88.3774 44.1619L87.6973 44.5217L87.1875 44.7417C85.5581 45.4983 83.8892 46.1658 82.1875 46.7417C79.6772 47.6318 77.1875 48.3518 74.7773 49.3718C72.98 50.1465 71.2271 51.021 69.5273 51.9917C69.1572 52.1917 68.8076 52.4216 68.4272 52.5918C68.2661 52.6733 68.0986 52.7434 67.9272 52.8018C67.7646 52.8154 67.6006 52.8154 67.4375 52.8018C67.1729 52.8145 66.9072 52.7942 66.6475 52.7417C66.1753 52.6384 65.7441 52.3984 65.4072 52.0518C65.2217 51.9055 65.0449 51.7485 64.8774 51.5818C64.4072 51.0618 64.6372 50.1218 65.4175 48.8918C65.6924 48.4702 66.0298 48.0925 66.4175 47.7717L67.5273 46.7717C68.2876 46.1519 69.0776 45.5518 69.8872 45.0017C70.6973 44.4517 71.5073 43.9019 72.3574 43.4316C73.2075 42.9617 74.0977 42.6418 74.9575 42.2717C77.5474 41.2017 80.0674 40.2717 82.4976 39.2717L82.6177 39.4216Z" fill-rule="evenodd" fill="currentColor"/>
	<path d="M14.2578 69.1619C13.7075 68.6619 13.1577 68.1619 12.6177 67.6318L11.4375 66.4817C10.9985 66.032 10.5977 65.5469 10.2378 65.0317C8.81885 63.0916 8.60303 60.5215 9.67773 58.3718C10.0879 57.6167 10.5845 56.9121 11.1577 56.2717C11.4878 55.9817 11.8276 55.6519 12.1577 55.4019C12.4878 55.1519 12.7778 54.9617 13.0874 54.7517C13.3975 54.5417 13.6875 54.3418 13.8975 54.2517L14.5776 53.8918C15.0278 53.6519 15.4878 53.4517 15.9478 53.2517C16.3921 53.0371 16.8535 52.8599 17.3276 52.7217C17.7974 52.5618 18.2578 52.4119 18.7178 52.2917C20.5674 51.7517 22.3877 51.3418 24.1675 50.9319C25.7476 50.5618 27.2778 50.1118 28.7676 49.6318C30.7178 49.1118 32.6274 48.6318 34.6274 48.2417C35.2578 48.1418 35.3677 48.5417 35.0874 49.2417C34.6875 50.2429 34.0156 51.1123 33.1475 51.7517C32.2378 52.3518 31.3076 52.9219 30.3877 53.4517C29.4595 53.9192 28.5083 54.3398 27.5376 54.7117C25.6377 55.4717 23.7578 56.1318 21.8877 56.7117C21.3325 56.8884 20.791 57.1057 20.2676 57.3618C19.7578 57.6318 19.2676 57.9119 18.7578 58.2017C18.2476 58.4917 17.7578 58.8118 17.3477 59.1318L17.1777 59.2517L17.0776 59.3318L16.8574 59.4917L16.4775 59.7517C15.9917 59.9783 15.6719 60.4561 15.6475 60.9917C15.688 61.2683 15.7979 61.5298 15.9678 61.7517C16.0479 61.8755 16.1382 61.9927 16.2378 62.1018L16.4375 62.3018L16.8174 62.6218C18.0874 63.6218 19.3877 64.7217 20.7378 65.7417C22.7974 67.2617 24.9077 68.8218 27.1577 70.1619C28.8574 71.2617 30.6978 72.1619 32.4175 73.2617C32.7974 73.5217 33.1978 73.7217 33.5576 74.0117C33.7178 74.1519 33.8677 74.2717 33.9976 74.4019C34.1016 74.5415 34.1948 74.6885 34.2778 74.8418C34.417 75.0859 34.5215 75.3486 34.5874 75.6218C34.6851 76.1018 34.6362 76.5999 34.4478 77.0518C34.3755 77.2759 34.292 77.4961 34.1978 77.7117C33.8774 78.3418 32.9175 78.4417 31.5674 78.3018C31.1021 78.2622 30.6465 78.1475 30.2178 77.9617L28.9375 77.5217C28.0776 77.2217 27.2275 76.9119 26.3774 76.5918C25.5278 76.2717 24.6577 75.9319 23.8174 75.5918C22.9775 75.2517 22.1978 74.6917 21.3877 74.2117C20.1777 73.5017 18.9678 72.7417 17.7578 71.9417C16.5156 71.147 15.3169 70.2856 14.1675 69.3618L14.2578 69.1619Z" fill-rule="evenodd" fill="currentColor"/>
	<path d="M37.0078 58.2219L46.5679 59.3718C47.7275 59.5017 48.8975 59.4719 50.0576 59.6318L56.1777 60.4519C58.1777 60.7319 60.2676 60.9919 62.2979 61.3618C64.1074 61.6719 65.9375 61.8318 67.7378 62.0417C68.8975 62.1519 70.0776 62.2717 71.2378 62.4519C71.834 62.5198 72.4253 62.6267 73.0078 62.7717L73.8774 63.0217C74.1978 63.1311 74.5117 63.2581 74.8179 63.4019C75.6074 63.7717 75.1274 64.3318 74.3477 64.8718C73.4502 65.5801 72.3501 65.9832 71.2075 66.0217C68.8975 66.0217 66.5576 66.0217 64.2075 65.9019C63.0278 65.9019 61.8677 65.7817 60.6875 65.7019C59.5059 65.593 58.3306 65.4194 57.1675 65.1819C54.2856 64.8035 51.3838 64.5964 48.4775 64.5618L38.8975 63.8518L33.0078 63.4619C30.0078 63.2617 27.0078 63.0017 24.0776 63.0117C21.7778 63.0117 19.5078 63.3618 17.2378 63.5818C16.7378 63.5818 16.2378 63.7019 15.7476 63.7019C13.8877 63.7019 13.2979 63.3318 12.8877 61.9219C12.7808 61.594 12.6938 61.26 12.6274 60.9219C12.4375 59.8518 13.2075 58.9219 14.6274 58.5718C16.6846 58.0078 18.7974 57.6724 20.9277 57.5718C23.0679 57.4319 25.2378 57.4319 27.3975 57.4819C30.6177 57.5317 33.8477 57.7419 37.0576 58.0317L37.0078 58.2219Z" fill-rule="evenodd" fill="currentColor"/>
	<path d="M62.7075 38.3716C59.5977 37.7117 56.4775 37.0618 53.3477 36.4917C52.2075 36.2717 51.0474 36.2217 49.9077 36.0017L43.9077 34.8416C41.9077 34.4517 39.9077 34.1416 37.9077 33.7217C36.1304 33.4062 34.3379 33.1826 32.5376 33.0518C31.3877 32.9417 30.2476 32.9116 29.1074 32.8215L27.4277 32.6816L26.5874 32.5715L25.8477 32.5017C25.2476 32.4216 25.0576 31.7717 25.5874 30.9817C26.3696 29.97 27.5347 29.3259 28.8076 29.2017C31.2036 29.0349 33.6069 28.9917 36.0078 29.0715C37.1978 29.1216 38.3975 29.1917 39.5874 29.3315C40.7798 29.4746 41.9624 29.6917 43.1274 29.9817C45.9375 30.6316 48.9277 30.7017 51.8276 31.0916C55.0176 31.5317 58.1875 32.0317 61.3677 32.5417L67.2275 33.4917C70.2275 33.9817 73.1377 34.5618 76.0977 34.9016C78.3877 35.1716 80.6875 35.1116 82.9878 35.2217C83.4976 35.2217 83.9878 35.2217 84.5078 35.3118C86.3774 35.5815 86.9077 36.0618 87.0776 37.5117C87.1338 37.8425 87.1704 38.1765 87.1875 38.5117C87.1875 39.6016 86.2876 40.3716 84.8774 40.5117C83.8359 40.645 82.7876 40.7185 81.7378 40.7317C80.7378 40.7317 79.6377 40.7317 78.5776 40.6316C76.4575 40.4917 74.3374 40.2417 72.1978 39.9717C69.0376 39.5618 65.8677 39.0317 62.7178 38.4517L62.7075 38.3716Z" fill-rule="evenodd" fill="currentColor"/>
	<defs/>
</svg>
