<svg width="24" height="24" viewBox="0 0 110 110" fill="none" xmlns="http://www.w3.org/2000/svg" xmlns:xlink="http://www.w3.org/1999/xlink">
	<path d="M28.6069 74.9299C28.6118 74.9663 28.6118 75.0034 28.6069 75.0398L28.6069 75.1199C28.6069 75.1199 28.6069 75.22 28.7168 75.24C28.8267 75.2598 28.7866 75.24 28.8467 75.24C29.0732 75.3201 29.3203 75.3201 29.5469 75.24C29.627 75.1899 29.667 75.1299 29.647 75.0598C29.627 74.99 29.4771 74.8999 29.647 74.7798C29.9688 74.6606 30.3052 74.5833 30.647 74.5498C31.127 74.5498 31.647 74.5999 31.707 74.8398C31.8145 75.2419 31.7568 75.6704 31.5469 76.0298C31.3853 76.3667 31.1138 76.6384 30.7769 76.7998C30.397 76.96 30.1768 77.2698 29.7769 77.4199C29.3633 77.593 28.9106 77.6516 28.4668 77.5898C28.2207 77.5515 27.9795 77.488 27.7466 77.3999C27.417 77.2798 27.167 77.0898 26.8667 77C26.5908 76.9692 26.3125 76.9692 26.0366 77C25.9771 77 25.8867 77 25.8467 77C25.8066 77 25.7466 76.6799 26.2368 76L26.5366 75.5798C26.8086 75.2097 27.124 74.874 27.4771 74.5798C28.0566 74.21 28.187 74.3699 28.3467 74.47C28.4365 74.5547 28.502 74.6616 28.5366 74.7798L28.6069 74.9299Z" fill-rule="evenodd" fill="currentColor"/>
	<path d="M21.7568 84.0901C21.9346 84.1306 22.1152 84.1575 22.2969 84.1702C22.3569 84.1702 22.397 84.1702 22.4668 84.1702C22.6792 84.1919 22.894 84.168 23.0967 84.1001C23.1782 84.062 23.2373 83.988 23.2568 83.9001C23.3066 83.79 23.2568 83.6602 23.4468 83.6201C23.7168 83.6863 23.9761 83.7908 24.2168 83.9302C24.5469 84.1101 24.8467 84.3701 24.7866 84.5C24.5967 84.9773 24.1729 85.3218 23.667 85.4102C23.4155 85.4875 23.1689 85.5776 22.9268 85.6802C22.6675 85.7358 22.4023 85.7627 22.1367 85.76L21.687 85.76C21.4707 85.7402 21.2529 85.7402 21.0366 85.76C20.877 85.76 20.7168 85.9302 20.5566 85.9402L20.457 85.9402C20.3369 85.9402 20.2969 85.8 20.2666 85.4202L20.2666 85.1702C20.2471 84.9421 20.292 84.7134 20.397 84.51C20.5469 84.3501 20.687 84.1301 20.8169 84.1001C20.9355 84.0513 21.0596 84.0176 21.187 84C21.377 84 21.5669 84 21.7466 84L21.7568 84.0901Z" fill-rule="evenodd" fill="currentColor"/>
	<path d="M32.2671 78.5798C32.0449 78.8181 31.7847 79.0173 31.4971 79.1699L31.0669 79.3999L30.5869 79.54L30.1167 79.6699L29.6968 79.6699C29.4209 79.6948 29.1431 79.6948 28.8667 79.6699C28.4604 79.688 28.0532 79.6511 27.6567 79.5601C26.9692 79.3337 26.3638 78.9094 25.917 78.3398C25.4448 77.79 25.1396 77.1172 25.0371 76.3999C24.9204 75.7092 25.0552 74.9998 25.417 74.3999C25.7881 73.6516 26.5859 73.2129 27.417 73.3C27.647 73.3 27.7168 73.96 27.7471 74.6099C27.7769 75.26 27.7969 75.8999 27.7471 75.98C27.6968 76.0601 27.7471 76.04 27.7471 76.05L27.5967 76L27.5068 75.8999L27.397 75.8398C27.3369 75.8398 27.457 75.8398 27.4868 75.8398C27.5171 75.8398 27.937 75.75 27.8066 75.8398C27.7837 75.9385 27.7837 76.0413 27.8066 76.1399C27.8354 76.3081 27.9546 76.4468 28.1167 76.5C28.2671 76.5798 28.437 76.6399 28.6069 76.71C28.8057 76.7983 29.0195 76.8491 29.2368 76.8599C29.4146 76.9009 29.5991 76.9009 29.7769 76.8599C30.0029 76.8047 30.1821 76.6333 30.2471 76.4099C30.3242 76.0312 30.1763 75.6418 29.8667 75.4099C29.5342 75.1963 29.1743 75.0281 28.7969 74.9099C28.7046 74.896 28.6143 74.8726 28.5269 74.8398C28.207 74.71 28.1167 74.5798 28.0566 74.1299C28.0566 74.03 28.0566 73.9299 28.0566 73.8298C28.0566 73.51 28.2368 73.25 28.647 73.1299C29.3027 72.9607 29.9912 72.9607 30.647 73.1299C30.8306 73.1724 31.0083 73.2363 31.1768 73.3201L31.7568 73.6799C31.9438 73.8357 32.1147 74.0098 32.2671 74.2C32.437 74.3809 32.5786 74.5867 32.687 74.8101C33.4722 75.9941 33.3613 77.5583 32.417 78.6199L32.2671 78.5798Z" fill-rule="evenodd" fill="currentColor"/>
	<path d="M25.3965 86.8201C24.645 87.5442 23.6289 87.9277 22.5864 87.8801C22.3867 87.8801 22.2065 87.8801 22.0068 87.8801C21.8115 87.8682 21.6177 87.8416 21.4268 87.8C20.7598 87.6252 20.1738 87.2263 19.7666 86.6702C19.3745 86.1797 19.1221 85.5923 19.0366 84.9702C18.9321 84.3521 19.0527 83.7168 19.3765 83.1802C19.6846 82.53 20.3721 82.1479 21.0864 82.2302C21.2866 82.2302 21.3564 82.9001 21.4165 83.53C21.4463 83.9761 21.5 84.4199 21.5767 84.8601C21.5767 84.9402 21.5068 84.77 21.4365 84.6702C21.3984 84.6128 21.3511 84.5623 21.2969 84.52C21.2759 84.4944 21.2524 84.4709 21.2266 84.4502L21.1865 84.4202C21.1367 84.4202 21.2368 84.4202 21.2568 84.4202C21.3257 84.4346 21.3975 84.4346 21.4668 84.4202L21.8867 84.3401C21.8198 84.4026 21.7715 84.4822 21.7466 84.5701C21.6768 84.8301 21.9268 84.8501 22.0864 84.9202C22.3232 85.0435 22.5947 85.0823 22.8564 85.03C23.0127 84.9785 23.1348 84.856 23.1865 84.7002C23.2637 84.4021 23.1484 84.0874 22.8965 83.9102C22.6797 83.782 22.4268 83.7292 22.1768 83.76C22.1201 83.7656 22.063 83.7656 22.0068 83.76C21.7969 83.6802 21.7065 83.52 21.6768 83.0801L21.6768 82.79C21.6509 82.4639 21.8608 82.1658 22.1768 82.0801C22.5029 81.9805 22.8379 81.9102 23.1768 81.8701C23.5889 81.9622 23.9932 82.0859 24.3867 82.2402C24.605 82.3015 24.811 82.3997 24.9966 82.53L25.4268 82.9702C25.6782 83.2678 25.8779 83.606 26.0166 83.9702C26.2393 84.4514 26.2988 84.9919 26.1865 85.51C26.1235 86.031 25.896 86.5178 25.5366 86.9001L25.3965 86.8201Z" fill-rule="evenodd" fill="currentColor"/>
	<path d="M62.9463 39.75C60.6064 42.0767 58.3032 44.4502 56.0366 46.8701C55.1665 47.7202 54.4766 48.7102 53.6064 49.5601C50.5566 52.5601 47.5264 55.5601 44.6064 58.76C43.2964 60.1201 42.0864 61.5901 40.8867 63C39.4224 64.9353 37.8184 66.7603 36.0864 68.4602C35.5264 68.98 35.1665 68.6001 35.0864 67.73C34.9565 66.5132 35.168 65.2839 35.6963 64.1802C38.0664 59.77 40.4268 55.3301 44.0566 51.8101C46.1567 49.6501 47.7866 46.98 49.7065 44.5901C50.7065 43.26 51.8564 42 52.9863 40.75L56.3965 37.01L60.6465 32.4402C62.7764 30.1301 65.0264 27.9001 67.1064 25.54C67.9165 24.6201 68.6367 23.6501 69.4365 22.7202C70.2363 21.79 70.9463 20.8 71.8267 19.9001C72.1611 19.4822 72.5513 19.1121 72.9863 18.8C74.7563 17.6802 75.6665 17.7102 76.7666 18.49C77.019 18.6572 77.2627 18.8374 77.4966 19.03C78.1963 19.6802 78.0864 20.8901 77.4966 22.2202C77.2666 22.6902 77.0464 23.2202 76.8267 23.75C76.5903 24.2258 76.3091 24.678 75.9863 25.1001C75.3867 26 74.7866 26.8901 74.1865 27.74C72.8823 29.48 71.459 31.1272 69.9268 32.6702C67.6865 35.05 65.3564 37.4202 63.1064 39.8601L62.9463 39.75Z" fill-rule="evenodd" fill="currentColor"/>
	<path d="M76.2466 25.1499C76.3042 24.2139 76.1606 23.2764 75.8262 22.3999C75.6704 22.04 75.4648 21.7036 75.2163 21.3999C75.2163 21.3101 75.0264 21.1001 74.6162 20.96C73.8462 20.7849 73.0552 20.7175 72.2666 20.76C70.5117 20.7405 68.7593 20.8979 67.0366 21.23C65.2266 21.5701 63.3965 22.01 61.5664 22.48C59.9482 22.9451 58.3677 23.53 56.8364 24.23C54.9077 25.2083 52.9004 26.0244 50.8364 26.6699C50.1665 26.8401 49.8364 26.0901 50.0166 25.0901C50.1592 23.8884 50.7974 22.801 51.7764 22.0901C53.7051 20.8618 55.709 19.7563 57.7764 18.78C59.8667 17.7444 62.0913 17.0073 64.3862 16.5901C65.7866 16.3501 67.1763 15.98 68.6362 15.6499C70.145 15.249 71.6958 15.0308 73.2563 15C74.2354 15.001 75.21 15.1287 76.1562 15.3799C76.6997 15.5269 77.2261 15.7314 77.7266 15.99C78.2554 16.2612 78.7461 16.6008 79.1865 17C79.918 17.688 80.5449 18.4797 81.0464 19.3501C81.5396 20.1978 81.9229 21.1052 82.1865 22.05C82.6772 24.1362 82.792 26.2932 82.5264 28.4199C82.1201 31.3462 81.5225 34.2422 80.7363 37.0901C80.1963 39.24 80.1763 41.51 79.5664 43.5801C79.4463 44.04 79.3965 44.51 79.2363 44.95C78.6562 46.6101 78.0264 46.95 76.3164 46.8301C75.9263 46.8301 75.5366 46.8301 75.1562 46.72C73.8901 46.4851 72.98 45.3677 73.0063 44.0801C72.9531 43.04 72.9531 42.01 73.0063 40.99L73.0664 39.47C73.1064 38.9756 73.1802 38.4844 73.2866 38C73.7266 36.1101 74.2866 34.29 74.7866 32.51C75.5645 30.1233 76.002 27.6389 76.0864 25.1299L76.2466 25.1499Z" fill-rule="evenodd" fill="currentColor"/>
	<defs/>
</svg>
