<svg width="24" height="24" viewBox="0 0 110 110" fill="none" xmlns="http://www.w3.org/2000/svg" xmlns:xlink="http://www.w3.org/1999/xlink">
	<path d="M70.7539 56.1797C65.8438 55.4595 60.7539 55.0698 55.6338 54.5396C53.064 54.2798 50.4736 53.9697 47.8735 53.5396C46.5439 53.3496 45.3237 53.0996 43.8735 52.8496L41.2236 52.3096C40.7378 52.2114 40.2603 52.0776 39.7939 51.9097L38.2837 51.4297C37.5884 51.2505 36.917 50.9883 36.2837 50.6494C35.7939 50.3691 35.3374 50.0337 34.9238 49.6494C34.5596 49.2632 34.2588 48.8208 34.0337 48.3398C33.7891 47.7837 33.7129 47.1685 33.814 46.5698C34.0322 45.4395 34.6631 44.4307 35.584 43.7397C35.8037 43.5107 36.0444 43.3027 36.3037 43.1196L37.2437 42.5698C37.564 42.3896 37.8535 42.1895 38.1938 42.0298L39.2939 41.5796L40.2939 41.1797C40.6138 41.0596 40.9438 40.9897 41.2939 40.8896L42.2939 40.5996L42.7739 40.4595L43.1035 40.3896C43.9839 40.1997 44.8535 40.0498 45.7139 39.9194C47.4336 39.6694 49.1138 39.5098 50.7637 39.3594C53.8838 39.1724 56.9819 38.7173 60.0239 37.9995C60.3638 37.9189 60.6978 37.8154 61.0239 37.6895C61.1943 37.6333 61.3584 37.5596 61.5137 37.4697C61.7896 37.3013 61.9595 37.0029 61.9639 36.6797C61.9517 36.3218 61.8374 35.9746 61.6338 35.6797C61.3013 35.1299 60.8828 34.6367 60.3936 34.2197C59.2256 33.2407 57.9468 32.4019 56.584 31.7197C55.1538 30.9595 53.7539 30.2695 52.2739 29.6597C46.9067 27.6328 41.2944 26.3281 35.584 25.7798C31.9331 25.3462 28.2603 25.1226 24.584 25.1094C22.7539 25.1094 20.9136 25.1094 19.0737 25.2095C17.2339 25.3096 15.3638 25.3794 13.6235 25.6094C12.5337 25.7397 12.0537 25.7798 12.0039 25.6094C11.9536 25.4395 12.4038 24.9795 13.334 24.4697C14.6016 23.8281 15.9453 23.3511 17.334 23.0498C19.2563 22.5562 21.2222 22.2515 23.2036 22.1396C27.0854 21.9194 30.9775 21.9595 34.8535 22.2598C38.7466 22.5405 42.6177 23.0684 46.4438 23.8398C50.3604 24.6421 54.165 25.918 57.7739 27.6396C59.7168 28.5024 61.5386 29.6152 63.1938 30.9497C63.6602 31.3379 64.0918 31.7661 64.4839 32.2295C64.6992 32.4702 64.8999 32.7241 65.084 32.9897L65.3638 33.4097C65.4536 33.5596 65.5537 33.7598 65.6436 33.9297C66.4556 35.3989 66.6362 37.1348 66.1436 38.7397C65.7861 39.6548 65.167 40.4443 64.3638 41.0098C63.9702 41.2959 63.5479 41.5405 63.1035 41.7397C62.7778 41.8994 62.4438 42.043 62.1035 42.1694C61.4937 42.3896 60.8838 42.5698 60.2739 42.7695C59.6636 42.9697 59.0439 43.1094 58.4336 43.2397C55.9839 43.7495 53.5737 43.9995 51.2437 44.2397C49.0044 44.4731 46.7808 44.8374 44.584 45.3296C43.9238 45.4795 43.834 45.5195 43.584 45.5898L43.0137 45.7798C42.6655 45.9233 42.3311 46.0972 42.0137 46.2998C41.8438 46.4194 41.6338 46.5898 41.6436 46.8198C41.6538 47.0498 41.8638 47.1797 42.0337 47.2798C42.4268 47.4673 42.8394 47.6113 43.2637 47.7095L43.4336 47.7095L43.5137 47.7095L43.584 47.8398L44.2036 47.9795C44.6235 48.0796 44.9736 48.1797 45.6738 48.2896C46.9038 48.5195 48.1436 48.7197 49.3936 48.8994C54.3936 49.5996 59.5137 49.9595 64.6738 50.4497C67.8535 50.7495 71.0537 51.1094 74.2437 51.6396L76.6436 52.0698L79.0239 52.5796L80.1338 52.8096L81.4639 53.0698C82.6235 53.3096 83.7539 53.5898 84.8237 53.9194C85.8784 54.2285 86.8872 54.6753 87.8237 55.2495C88.6216 55.7114 89.3057 56.3472 89.8237 57.1094C90.1104 57.5928 90.2529 58.1479 90.2339 58.7095C90.1987 59.2671 89.9688 59.7944 89.584 60.1997C88.8101 60.9565 87.8677 61.519 86.834 61.8398C85.564 62.2817 84.2598 62.6162 82.9336 62.8398L80.8638 63.2397L79.3936 63.4897C77.3936 63.8296 75.5039 64.1396 73.6035 64.4897C71.7119 64.8433 69.8394 65.2935 67.9937 65.8398L67.4438 66.0195L67.0439 66.1597C66.7837 66.2598 66.5239 66.3594 66.2739 66.4795C65.7905 66.6841 65.3623 66.999 65.0239 67.3994C64.813 67.6997 64.813 68.0996 65.0239 68.3994C65.2358 68.6904 65.5229 68.9185 65.8535 69.0596C66.4717 69.3472 67.1235 69.5552 67.7939 69.6797C70.3037 70.3198 72.8638 70.9995 75.4336 71.5898L80.1035 72.6396C85.9536 74.0396 87.7339 74.9497 88.584 76.7397C88.812 77.1226 88.9995 77.5278 89.1436 77.9497C89.3838 79.2295 86.7837 79.5195 82.4336 78.7495C78.5039 78.0298 74.4937 77.2095 70.4336 76.1797L67.4336 75.3696L66.7036 75.1797L66.314 75.0698L65.6538 74.8398C65.2437 74.7197 64.7437 74.5396 64.2837 74.3794C63.8237 74.2197 63.3638 74.0298 62.9136 73.8398C61.3115 73.2002 59.9238 72.1182 58.9136 70.7197C58.5166 70.0557 58.2612 69.3169 58.1636 68.5498L58.1138 67.9395L58.1938 67.3296L58.1938 67.1797C58.1338 67.1797 58.1938 67.0796 58.1938 67.0298L58.2637 66.7495C58.2637 66.5596 58.3438 66.3594 58.3936 66.1895L59.0938 64.9194C59.2173 64.7012 59.3721 64.5024 59.5537 64.3296C59.7144 64.1255 59.8916 63.9346 60.084 63.7598C60.9858 62.9941 61.9971 62.3672 63.084 61.8994C63.6797 61.6284 64.291 61.3916 64.9136 61.1895L65.9136 60.8594L66.5239 60.6895C67.2437 60.4795 67.9438 60.3096 68.6436 60.1396C70.0439 59.8096 71.4639 59.5498 72.7739 59.3096C74.084 59.0698 75.5039 58.8296 76.8438 58.6094L79.9536 58.0898C79.9536 58.0898 80.0439 58.0898 80.064 58.0898C80.0708 58.0737 80.0708 58.0557 80.064 58.0396L79.1338 57.8398L76.9438 57.3696C76.2637 57.2295 75.5938 57.0796 74.9438 56.9595C73.5737 56.6997 72.1836 56.4897 70.7939 56.2998L70.7539 56.1797Z" fill-rule="evenodd" fill="currentColor"/>
	<defs/>
</svg>
