<svg width="24" height="24" viewBox="0 0 110 110" fill="none" xmlns="http://www.w3.org/2000/svg" xmlns:xlink="http://www.w3.org/1999/xlink">
	<path d="M54.5 45.0518C53.4214 45.3828 52.2686 45.3828 51.1899 45.0518C50.6978 44.9097 50.3057 44.5361 50.1401 44.0518C49.437 41.8208 49.0269 39.5083 48.9199 37.1719C48.7798 35.1719 49.4697 33.3516 49.75 31.4717C50.02 29.8516 50.3101 28.2314 50.6597 26.6118C50.8301 25.8018 51.0098 25.0015 51.23 24.2017C51.4121 23.3906 51.6357 22.5898 51.8999 21.8018C52.25 20.8818 52.6997 19.9917 53.0601 19.0815C53.23 18.6416 53.3398 18.1816 53.5 17.7314L53.73 17.0518L54.0601 16.4219C54.1401 16.2817 54.0601 16.0815 54.3501 16.0215C55 15.8716 56.5801 16.5215 57.6499 17.3115C57.8901 17.5015 58.3101 17.7617 58.2998 17.8315C58.0898 18.4917 60.1997 19.9717 59.8999 20.5615C59.3901 21.7119 59.6401 23.1416 59.6299 24.4419C59.5645 24.9385 59.4009 25.418 59.1499 25.8516C58.8398 26.4219 58.2998 26.9316 58.0098 27.5215C57.5874 28.5654 57.2529 29.6421 57.0098 30.7417C56.5659 32.5869 56.2324 34.457 56.0098 36.3418C55.6499 38.3418 55.4097 40.2417 55.2998 41.6719C55.1899 43.1016 55.23 43.9814 55.21 44.0415C55.1421 44.2139 55.04 44.3701 54.9097 44.5015C54.751 44.6675 54.6133 44.8521 54.5 45.0518Z" fill-rule="evenodd" fill="currentColor"/>
	<path d="M47.9199 86.5117C44.9199 86.7817 43.98 86.2319 43.73 85.6421C43.2529 84.6465 42.8423 83.6211 42.5 82.5718C42.3193 82.0747 42.1689 81.5674 42.0498 81.0518C41.9897 80.5317 41.9297 80.0518 41.9199 79.4917C41.9761 77.7451 42.1768 76.0059 42.52 74.292C42.6494 72.8237 42.8667 71.3643 43.1699 69.9219C43.4697 68.4917 43.7598 67.0718 44.1699 65.6719C44.4697 64.8618 44.8198 64.0718 45.0698 63.252C45.1631 62.8369 45.3042 62.4346 45.4897 62.0518L45.7598 61.4917C45.7959 61.3926 45.8501 61.3013 45.9199 61.2217L46.1997 60.9819C46.3301 60.8818 46.3901 60.7417 46.6401 60.6816C47.5239 60.5591 48.4229 60.75 49.1797 61.2217C49.3599 61.332 49.6997 61.4917 49.6997 61.562C49.6201 62.1719 51.6499 63.2319 51.6401 63.8818C51.6089 64.4927 51.6323 65.105 51.71 65.7119C51.8198 66.332 51.98 66.9717 52.0498 67.582C52.0767 68.0474 51.9839 68.5122 51.7798 68.9316C51.5298 69.4819 51.0898 69.9316 50.8398 70.542C50.5503 71.5259 50.3262 72.5283 50.1699 73.542C49.8037 75.1929 49.5234 76.8618 49.3301 78.542C49.2397 79.4121 49.1602 80.272 49.1299 81.062C49.1001 81.8521 48.8999 82.5918 48.8398 83.2217C48.7798 83.8521 48.73 84.3818 48.71 84.752C48.6899 85.1221 48.71 85.3618 48.71 85.4019C48.4741 85.791 48.2104 86.1616 47.9199 86.5117Z" fill-rule="evenodd" fill="currentColor"/>
	<path d="M84.4902 57.6118C83.73 58.4116 83.2402 59.0317 82.9004 59.4316C82.6841 59.7388 82.3911 59.9839 82.0503 60.1416C81.6626 60.293 81.2607 60.4038 80.8501 60.4717L79.5801 60.772C78.71 60.9819 77.8301 61.1816 76.9204 61.3618C76.5352 61.4434 76.1436 61.4902 75.75 61.502C75.3604 61.502 74.96 61.502 74.5601 61.4517C73.7603 61.4517 72.9502 61.3218 72.1304 61.3218C70.73 61.3218 69.3003 61.3218 67.8403 61.3218C66.3604 61.2065 64.8882 61.0098 63.4302 60.7319C62.5503 60.522 61.7002 60.3018 60.8003 60.0718C60.3901 59.9219 59.9702 59.8115 59.54 59.6919C59.1104 59.5718 58.6899 59.4019 58.2803 59.2319C58.1401 59.2319 57.9399 59.2319 57.8804 59.0117C57.71 58.3916 58.3501 56.6816 59.0903 55.4819C59.2603 55.2119 59.5103 54.7417 59.5703 54.752C60.1602 54.8818 61.4102 52.6318 61.9204 52.752C62.4404 52.8315 62.9697 52.8315 63.4902 52.752C64.04 52.6616 64.5903 52.5117 65.1104 52.4717C65.5264 52.4341 65.9453 52.4995 66.3301 52.6616C66.8203 52.8916 67.3301 53.292 67.8501 53.4917C68.7871 53.7358 69.7393 53.916 70.7002 54.0317C72.1304 54.2217 73.9399 54.3618 75.77 54.4917C77.6001 54.6216 79.4302 55.0117 80.9102 55.3218C81.2603 55.3916 81.6104 55.4819 81.9102 55.5718C82.1968 55.6206 82.4736 55.7153 82.73 55.8516C83.21 56.1118 83.48 56.2817 83.5303 56.3115C83.9028 56.7036 84.2251 57.1406 84.4902 57.6118Z" fill-rule="evenodd" fill="currentColor"/>
	<path d="M18 49.3818C18.0449 48.5801 18.2275 47.792 18.54 47.0518C18.7036 46.6543 18.9961 46.3232 19.3701 46.1118C19.8374 45.8696 20.335 45.6914 20.8501 45.582L22.3398 45.2119C23.3296 44.9868 24.3315 44.8164 25.3398 44.7017C26.188 44.6094 27.0459 44.6533 27.8799 44.832C28.71 44.9717 29.54 45.1416 30.3799 45.2417C31.8198 45.4116 33.27 45.6221 34.7202 45.8418C36.1665 46.1479 37.5952 46.5317 39 46.9917L41.5 47.9019C41.8799 48.082 42.2798 48.2417 42.6802 48.3916C43.0801 48.542 43.48 48.7319 43.8701 48.9219C44 48.9819 44.1899 48.9219 44.23 49.1616C44.3501 49.792 43.6099 51.4619 42.79 52.6118C42.6099 52.8721 42.3301 53.3218 42.27 53.3018C41.6802 53.1318 40.27 55.3018 39.71 55.1021C39.1733 54.9736 38.6216 54.9165 38.0698 54.9316C37.4902 54.9316 36.8999 55.0317 36.3599 55.002C35.9268 54.9922 35.5034 54.8716 35.1299 54.6519C34.6401 54.3618 34.1899 53.9019 33.6802 53.6519C32.7861 53.2612 31.8633 52.9404 30.9199 52.6919C29.3076 52.2769 27.6758 51.9429 26.0298 51.6919C24.2998 51.312 22.6001 50.9517 21.3101 50.772C20.7832 50.7202 20.2617 50.6265 19.75 50.4917C19.5229 50.4229 19.2993 50.3428 19.0801 50.252C18.75 50.0518 18.48 49.7119 18 49.3818Z" fill-rule="evenodd" fill="currentColor"/>
	<defs/>
</svg>
