<svg width="24" height="24" viewBox="0 0 110 110" fill="none" xmlns="http://www.w3.org/2000/svg" xmlns:xlink="http://www.w3.org/1999/xlink">
	<path d="M68.208 62.0684C65.0781 66.3481 61.8179 70.5283 58.3081 74.5483C54.7773 78.728 50.7471 82.4595 46.3081 85.6582L45.0278 86.4883L43.6479 87.3184C43.1636 87.5957 42.6587 87.8364 42.1382 88.0381C41.6118 88.2925 41.0625 88.4971 40.498 88.6479C39.9136 88.8462 39.3105 88.9834 38.6982 89.0581C38.0625 89.1514 37.4204 89.1914 36.7778 89.1782C35.6426 89.1245 34.5166 88.9502 33.418 88.6582C29.8389 87.6816 26.4858 86.0137 23.5479 83.748C22.0371 82.605 20.6909 81.2593 19.5479 79.748C18.2964 78.1221 17.4648 76.2124 17.1279 74.188C16.9575 73.1318 16.9575 72.0547 17.1279 70.998C17.2217 70.4883 17.3452 69.9839 17.498 69.4883L17.9482 68.2183C18.5508 66.5615 19.2661 64.9478 20.0879 63.3882C21.7114 60.3247 23.6167 57.4189 25.7778 54.708C27.6919 52.2915 29.7954 50.0312 32.0679 47.9482C33.2295 46.8828 34.4585 45.894 35.748 44.9883C36.0781 44.7583 36.3979 44.5283 36.748 44.3184L37.748 43.6982L38.2681 43.3882L38.8682 43.0981C39.2725 42.9023 39.6899 42.7354 40.1182 42.5981C42.3047 41.8779 44.6489 41.7812 46.8882 42.3184C49.0825 42.7993 51.1362 43.7817 52.8882 45.188C54.6567 46.6694 55.939 48.6484 56.5679 50.8682C56.9106 52.0117 57.0063 53.2148 56.8481 54.3979C56.6943 55.5605 56.2847 56.6738 55.6479 57.6582C55.4766 57.9067 55.2896 58.1436 55.0879 58.3682C54.9385 58.5132 54.7705 58.6377 54.5879 58.7383C54.2979 58.9082 54.0879 58.8979 53.9482 58.7383C53.6479 58.4883 53.7183 57.688 53.6479 56.6479C53.6401 55.4717 53.3267 54.3174 52.7378 53.2983C52.4106 52.7529 52.0103 52.2554 51.5479 51.8184C50.9922 51.355 50.4077 50.9277 49.7979 50.5381C49.5127 50.3711 49.2417 50.1807 48.9878 49.9683C48.7168 49.7729 48.4326 49.5957 48.1382 49.438C47.5532 49.1104 46.9365 48.8423 46.2979 48.6382C45.1147 48.2847 43.8662 48.2061 42.6479 48.4082C42.0811 48.498 41.5288 48.6665 41.0078 48.9082L39.9683 49.4883C39.6182 49.6782 39.2681 49.918 38.9683 50.1284C37.5137 51.0483 36.1387 52.0889 34.8579 53.2383C32.1606 55.6455 29.7212 58.3267 27.5781 61.2383C25.3809 64.0684 23.5713 67.1792 22.1982 70.4883C22.105 70.7046 22.0312 70.9287 21.978 71.1582C21.9126 71.3433 21.8657 71.5342 21.8379 71.728C21.8003 71.9229 21.7769 72.1201 21.7681 72.3184C21.748 72.5142 21.748 72.7119 21.7681 72.9082C21.8306 73.7549 22.0688 74.5791 22.4683 75.3281C23.4683 77.0737 24.8535 78.5684 26.5181 79.6982C28.271 80.9551 30.1895 81.9648 32.2183 82.6982C33.1943 83.0542 34.1978 83.3315 35.2183 83.5283C35.6943 83.6152 36.1748 83.6753 36.6582 83.708C37.0732 83.7236 37.4883 83.6968 37.8979 83.6284C38.1533 83.6182 38.4062 83.5713 38.6479 83.4883L39.3682 83.2881C39.8579 83.0483 40.3682 82.8784 40.8481 82.6182C41.3281 82.3584 41.8481 82.0781 42.3379 81.748C42.8281 81.418 43.3379 81.0884 43.8081 80.748C45.7886 79.2505 47.6509 77.6021 49.3779 75.8184C52.9253 72.1406 56.2134 68.2212 59.2183 64.0884C62.9805 58.9775 66.4624 53.6665 69.6479 48.1782C71.478 45.0283 73.2378 41.8184 74.8081 38.5684C75.5879 36.938 76.3179 35.2881 76.938 33.6582C77.2373 32.8691 77.4941 32.0645 77.708 31.248L77.8379 30.708C77.9058 30.3145 77.9058 29.9121 77.8379 29.5181C77.79 29.438 77.7563 29.3501 77.7378 29.2583L77.6479 28.918C77.5728 28.6763 77.4829 28.439 77.3779 28.208C77.1719 27.7495 76.9419 27.3022 76.688 26.8682C76.1792 26.0122 75.5791 25.2144 74.8979 24.4883C72.6201 22.1064 69.7036 20.4331 66.498 19.668C66.1353 19.5854 65.7681 19.5254 65.3979 19.4883L64.8779 19.438L64.4282 19.438C63.938 19.4731 63.4644 19.6274 63.0479 19.8882C61.7559 20.7744 60.5742 21.812 59.5278 22.978C58.4482 24.0981 57.4082 25.3281 56.2378 26.5181C54.7559 28.1724 53.0454 29.6069 51.1582 30.7783C50.1104 31.3789 48.876 31.5645 47.6982 31.2983C47.2114 31.2305 46.7329 31.1167 46.2681 30.958C45.6182 30.6382 45.5879 29.8584 46.0479 28.7383C46.7544 27.1699 47.7026 25.7222 48.8579 24.4482C50.8579 22.1582 52.668 19.8081 54.938 17.3384C56.2231 15.8501 57.7153 14.5537 59.3682 13.4883C59.9214 13.1592 60.4995 12.875 61.0981 12.6382C61.7925 12.3789 62.5137 12.1978 63.248 12.0981C64.502 11.9443 65.7715 11.9712 67.0181 12.1782C71.0278 12.8638 74.7734 14.6343 77.8481 17.2983C79.4165 18.6323 80.8052 20.1655 81.978 21.8584C82.5752 22.7446 83.1001 23.6777 83.5479 24.6479C83.792 25.1348 84.0059 25.6357 84.188 26.1479L84.438 26.918L84.5981 27.3979C84.6655 27.5757 84.7129 27.7603 84.7378 27.9482C84.8379 28.4683 84.8882 28.998 84.938 29.5283C84.9878 30.0581 84.8779 30.6084 84.8579 31.1479C84.8359 31.6011 84.7656 32.0503 84.6479 32.4883C84.5581 32.8384 84.478 33.2383 84.3682 33.4883C83.4731 36.2427 82.353 38.9185 81.0181 41.4883C79.7881 43.9482 78.478 46.3081 77.1182 48.6182C74.3979 53.2681 71.4482 57.728 68.3779 62.1084L68.208 62.0684Z" fill-rule="evenodd" fill="currentColor"/>
	<defs/>
</svg>
