<svg width="24" height="24" viewBox="0 0 110 110" fill="none" xmlns="http://www.w3.org/2000/svg" xmlns:xlink="http://www.w3.org/1999/xlink">
	<path d="M45.9111 86.7957C48.2109 71.5356 47.6812 55.7456 48.4912 40.3557C48.7109 36.1755 42.2109 36.1855 41.9912 40.3557C41.2109 55.1455 41.8511 70.4055 39.6509 85.0657C39.0312 89.1655 45.291 90.9255 45.9111 86.7957Z" fill-rule="evenodd" fill="currentColor"/>
	<path d="M59.9214 85.9358C60.0615 71.7856 59.9214 57.7456 62.1313 43.7256C62.7612 39.6257 56.5015 37.8657 55.8613 41.9956C53.5913 56.6157 53.5615 71.1758 53.4214 85.9358C53.4214 90.1157 59.8813 90.1157 59.9214 85.9358Z" fill-rule="evenodd" fill="currentColor"/>
	<path d="M29.4214 48.7957C32.5425 42.6204 36.2705 36.7715 40.5513 31.3357C43.8413 27.2056 50.9312 18.0657 57.1514 18.9856C57.5513 19.0457 57.6411 19.1057 58.4614 19.8257C59.4482 20.7527 60.3301 21.7856 61.0913 22.9055C62.9619 25.5581 64.6328 28.3459 66.0913 31.2456C69.1406 36.7275 71.4922 42.5696 73.0913 48.6355C74.0913 53.0256 80.8613 51.1655 79.8413 46.7756C78.0713 39.2156 74.4912 31.7756 70.7012 25.0557C68.041 20.3457 64.0015 12.6057 57.8711 12.0557C50.1611 11.3157 42.8711 18.1155 38.2114 23.3457C32.374 29.9971 27.4043 37.3628 23.4214 45.2656C21.3613 49.2656 27.4214 52.8057 29.4214 48.7957Z" fill-rule="evenodd" fill="currentColor"/>
	<defs/>
</svg>
