<svg width="24" height="24" viewBox="0 0 110 110" fill="none" xmlns="http://www.w3.org/2000/svg" xmlns:xlink="http://www.w3.org/1999/xlink">
	<path d="M43.2251 53.3049C43.2251 53.3049 48.4053 54.885 49.085 57.7649C49.7251 60.4551 44.8853 61.6951 44.8853 61.6951C44.8853 61.6951 53.2852 62.615 53.395 59.355C53.5049 56.095 50.4551 52.865 48.2549 53.0249C46.0552 53.1851 43.2251 53.3049 43.2251 53.3049Z" fill-rule="evenodd" fill="currentColor"/>
	<path d="M44.105 55.105C42.354 54.8145 40.5625 54.8757 38.835 55.2849C37.2007 55.6584 35.6831 56.4277 34.415 57.5249L34.1152 57.825L33.9854 57.9751C33.9854 57.9751 33.9854 58.0249 33.9854 58.0549C33.9053 58.1919 33.8384 58.3359 33.7852 58.4851C33.6387 58.9905 33.5249 59.5049 33.4453 60.0249C33.0923 62.4592 33.0386 64.9277 33.2852 67.375C33.5112 69.9976 33.9053 72.603 34.4653 75.175C34.9678 77.4736 35.6362 79.7329 36.4653 81.9351C36.9854 83.335 37.605 84.7051 38.1953 86.0549L38.6353 87.0549L38.9854 88.175C39.1953 88.885 39.415 89.585 39.6553 90.2749C39.9351 91.125 39.355 91.4851 38.165 91.2749C37.4258 91.1104 36.7173 90.8303 36.0649 90.4451C35.665 90.2244 35.2871 89.9666 34.9351 89.675C34.7451 89.5249 34.5952 89.355 34.4053 89.2051C34.27 89.0125 34.1465 88.812 34.0352 88.605C32.5474 85.6956 31.3193 82.6604 30.3652 79.5349C29.4312 76.3965 28.8281 73.1689 28.5649 69.905C28.4053 67.905 28.165 65.905 28.0449 63.855C27.9849 62.7859 27.9849 61.7141 28.0449 60.645C28.1396 59.4609 28.3882 58.2944 28.7852 57.175C29.0605 56.458 29.438 55.7844 29.9053 55.175L30.3149 54.6851L30.6753 54.345C30.9077 54.1187 31.1548 53.9082 31.415 53.7151C32.4028 52.9387 33.4932 52.3027 34.6553 51.825C36.8652 50.9441 39.2163 50.4697 41.5952 50.425C44.4858 50.3203 47.3584 50.9209 49.9653 52.175C52.4673 53.2979 54.312 55.5115 54.9653 58.175C55.02 58.4719 55.0498 58.7729 55.0552 59.075C55.0552 59.375 54.9951 59.675 54.9751 59.9751C54.9551 60.2749 54.7451 60.5349 54.6152 60.8049L54.0952 61.5349L53.4351 62.155C53.2021 62.3408 52.9546 62.5081 52.6953 62.655C52.2656 62.9026 51.8179 63.1165 51.355 63.2949C49.792 63.8491 48.1602 64.1858 46.5054 64.2949C45.7051 64.395 44.9253 64.365 44.125 64.395C43.3252 64.425 42.5352 64.395 41.7554 64.2849C40.9751 64.175 40.3853 64.2051 39.7554 64.075C39.125 63.9451 38.5952 63.845 38.165 63.7251C37.8125 63.6045 37.4766 63.4399 37.165 63.2351C36.7163 62.9536 36.3882 62.5151 36.2451 62.0049C36.1602 61.7979 36.0933 61.5837 36.0449 61.365C35.9653 60.7251 37.1152 60.365 38.895 60.365C41.4702 60.5901 44.0601 60.5901 46.6353 60.365C47.7744 60.2688 48.895 60.0164 49.9653 59.615C50.1851 59.5149 50.3652 59.405 50.5649 59.3149C50.7651 59.2251 50.6953 59.2251 50.7051 59.2151C50.6758 59.1528 50.6421 59.0928 50.605 59.0349C50.541 58.9246 50.4707 58.8179 50.395 58.7151C50.2153 58.5149 50.0952 58.2749 49.915 58.0649C49.5107 57.5779 49.0273 57.1621 48.4854 56.835C47.1611 55.967 45.6621 55.4004 44.0952 55.175L44.105 55.105Z" fill-rule="evenodd" fill="currentColor"/>
	<path d="M41.2852 21.6951C41.4048 21.165 41.5249 20.645 41.665 20.115L41.8052 19.5649C41.8428 19.3284 41.8965 19.0945 41.9648 18.865L42.375 17.4751C42.6147 16.5349 43.0151 15.7051 43.3149 14.835L43.9248 13.7451L44.2251 13.2051L44.5552 12.7749C45.2363 11.7427 46.2017 10.9299 47.335 10.4351C47.8711 10.1902 48.4468 10.0444 49.0352 10.0049C49.3726 9.98486 49.7114 10.0256 50.0352 10.125C50.3184 10.2214 50.5898 10.3489 50.8452 10.5049C51.5083 10.947 52.0791 11.5142 52.5249 12.175C53.0781 13.0483 53.4712 14.0134 53.6851 15.0249C53.9248 16.1089 54.0884 17.2083 54.1748 18.3149C54.1748 18.885 54.2549 19.4551 54.2749 20.0249C54.2949 20.595 54.2749 21.2351 54.2749 21.4851C54.2749 22.845 54.2749 24.1951 54.165 25.5449C54.0249 28.2251 53.8252 30.885 53.4551 33.5449C53.1851 35.895 52.9048 38.2549 52.6348 40.5449C52.4038 43.5999 51.6426 46.5913 50.3848 49.385C49.9351 50.2549 49.3848 49.905 48.9648 48.9751C48.355 47.6875 48.0405 46.2798 48.0449 44.855C48.0952 44.125 48.0449 43.385 48.145 42.655L48.3149 40.4651L48.5952 36.0449C48.6851 34.575 48.7749 33.0449 48.855 31.615C48.9351 30.1851 49.145 28.615 49.2852 27.175C49.4565 25.3799 49.4736 23.573 49.335 21.7749L49.3252 21.175L49.3252 20.7251L49.2051 19.7849C49.147 19.3735 49.0039 18.9785 48.7852 18.625C48.6802 18.4561 48.4756 18.3782 48.2852 18.4351C48.1235 18.491 47.9785 18.5874 47.8647 18.7151C47.373 19.3276 47.0059 20.031 46.7852 20.7849C46.7275 20.9221 46.6772 21.0625 46.6348 21.2051L46.3647 22.0649C46.1948 22.655 46.0151 23.2351 45.8647 23.835C45.5352 25.0249 45.2749 26.2451 45.0552 27.4651C44.3525 31.1682 43.9282 34.9185 43.7852 38.6851C43.7588 41.5559 43.9561 44.4246 44.375 47.2649C44.4551 47.885 44.5952 48.4751 44.665 49.095C44.7363 49.9211 44.686 50.7534 44.5151 51.5649C44.3501 52.062 44.0527 52.5044 43.6548 52.845C43.4956 53.0095 43.3252 53.1631 43.145 53.3049C42.855 53.4951 42.5352 53.375 42.145 52.9951C41.5498 52.4722 41.0845 51.8184 40.7852 51.085C40.2754 49.7812 39.9395 48.4163 39.7852 47.0249C39.585 45.645 39.4248 44.2351 39.3452 42.835C39.1919 40.0029 39.2183 37.1638 39.4248 34.335C39.5781 32.2283 39.8081 30.1216 40.1147 28.0149C40.2749 26.9551 40.4551 25.905 40.645 24.855C40.835 23.8049 40.9951 22.7351 41.2051 21.675L41.2852 21.6951Z" fill-rule="evenodd" fill="currentColor"/>
	<path d="M66.9849 27.2551C67.2349 26.415 67.4551 25.5652 67.645 24.7351C67.835 23.9053 68.0552 23.1052 68.1851 22.3152L68.1851 22.0251L68.1851 21.8452C68.1895 21.7986 68.1895 21.7517 68.1851 21.7051C68.1958 21.6055 68.1958 21.5049 68.1851 21.4053C68.1953 21.1699 68.1362 20.937 68.0151 20.7351C67.9385 20.5745 67.7534 20.4971 67.585 20.5552C67.4507 20.6448 67.3232 20.7451 67.2051 20.8552C67.0918 20.9446 66.9883 21.0452 66.895 21.1553C66.8281 21.219 66.7676 21.2893 66.7148 21.3652L66.6548 21.4351L66.5552 21.6152L66.335 21.9851C65.7651 22.9851 65.2549 23.9851 64.6748 25.0552C63.5552 27.1353 62.5249 29.3052 61.585 31.5151C60.7549 33.5151 60.125 35.5151 59.4448 37.5151C59.0352 38.8052 58.6851 40.1152 58.3052 41.4053L57.7251 43.3252C57.5552 43.9451 57.1948 44.5552 57.0049 45.1152C56.875 45.4551 56.6851 45.4851 56.4248 45.5552C56.165 45.6252 55.7949 45.4851 55.4248 45.0452C54.9785 44.5015 54.6147 43.8948 54.3452 43.2451C54.061 42.4858 53.9751 41.6667 54.0952 40.8652C54.3149 39.4053 54.5952 37.9751 54.915 36.5652C55.1987 35.1475 55.6001 33.7561 56.1147 32.4053C57.1216 29.6814 58.3315 27.0374 59.7349 24.4951C60.165 23.7351 60.5752 22.9451 60.9751 22.1553L62.3149 19.7751L62.7852 19.175C62.9648 18.8853 63.1348 18.5952 63.3452 18.2952C63.7451 17.6951 64.165 17.1353 64.585 16.5952C65.3228 15.6287 66.3071 14.8792 67.4351 14.425C68.0327 14.21 68.687 14.21 69.2852 14.425C69.5752 14.5752 69.8647 14.7151 70.1548 14.8752L70.9351 15.425C71.8789 16.407 72.521 17.6392 72.7852 18.9751C72.9429 19.698 73.0229 20.4353 73.0249 21.175C73.0527 21.5078 73.0527 21.8423 73.0249 22.175C73.0249 22.4451 73.0249 22.7251 72.9648 22.9751C72.8662 23.9873 72.689 24.9902 72.4351 25.9751C71.8022 28.3271 71.0176 30.6353 70.085 32.8853C68.7349 36.2651 67.085 39.4951 65.5249 42.6951C64.2949 45.1851 63.2148 47.6951 61.9248 50.1553C61.6348 50.6951 61.375 51.2451 61.0449 51.7751C60.6646 52.5171 60.1211 53.1633 59.4551 53.665C58.9673 53.9021 58.4121 53.9622 57.8848 53.8352C57.6519 53.8069 57.4209 53.76 57.1948 53.6951C56.8647 53.5652 56.7251 53.2351 56.6948 52.6951C56.6353 52.032 56.7671 51.3657 57.0752 50.7751L60.1548 44.2351C61.1548 41.9951 62.1548 39.7151 63.1548 37.425C64.6113 34.0781 65.8408 30.6372 66.835 27.1252L66.9849 27.2551Z" fill-rule="evenodd" fill="currentColor"/>
	<path d="M61.9053 73.175C59.915 75.7068 57.7246 78.0745 55.355 80.2551C54.5161 81.1118 53.6133 81.9041 52.6553 82.625C51.7446 83.2932 50.7617 83.8567 49.7251 84.3049C49.145 84.5559 48.5376 84.7371 47.915 84.845C47.1763 84.9824 46.415 84.9412 45.6953 84.7251L45.125 84.5251C44.9551 84.4351 44.7852 84.325 44.625 84.2251C44.2915 84.0146 43.9941 83.7512 43.7451 83.4451C43.499 83.1396 43.2939 82.8035 43.1353 82.4451C43.0098 82.1199 42.9097 81.7854 42.835 81.4451C42.6597 80.2478 42.7939 79.0256 43.2251 77.895C43.8467 76.1414 44.7085 74.4824 45.7852 72.9651C47.0542 71.0437 48.6802 69.3835 50.5752 68.075C51.1753 67.675 51.4751 68.165 51.4653 69.0051C51.4321 70.0813 51.0845 71.1243 50.4653 72.0051C50.125 72.425 49.8452 72.875 49.5352 73.3049C49.375 73.5251 49.2354 73.7451 49.105 73.9651L48.645 74.595C48.0889 75.4192 47.5913 76.2812 47.1553 77.175C46.7231 77.9604 46.4131 78.8066 46.2354 79.6851C46.1665 80.0137 46.1396 80.3496 46.1553 80.6851C46.2051 80.905 46.2051 81.095 46.2949 81.1951C46.3853 81.2949 46.3452 81.2651 46.3853 81.3049C46.4102 81.3491 46.4546 81.3789 46.5049 81.385C46.5049 81.385 46.5649 81.4451 46.6353 81.4451C46.7012 81.4348 46.769 81.4348 46.835 81.4451C47.2944 81.3909 47.7373 81.241 48.1353 81.0051C49.1895 80.3789 50.166 79.6304 51.0449 78.7751C53.1841 76.7817 55.1079 74.5698 56.7852 72.175C57.8535 70.6929 58.835 69.1504 59.7251 67.5549C60.3853 66.355 61.0449 65.145 61.5752 63.905C61.7153 63.595 61.8252 63.2751 61.9453 62.9651C62.0049 62.8149 62.0649 62.655 62.1152 62.4951L62.2354 62.125C62.3657 61.7427 62.4526 61.3469 62.4951 60.9451C62.6421 60.3767 62.3926 59.78 61.8853 59.4851C61.3853 59.2151 60.7451 59.595 60.3853 59.875C60.2051 60.0151 60.0552 60.2051 59.9253 60.3049C59.8301 60.3906 59.7119 60.4463 59.585 60.4651C59.585 60.4651 59.3252 60.4651 59.2051 60.4651C59.0586 60.48 58.9116 60.48 58.7651 60.4651C58.4858 60.438 58.2158 60.3494 57.9751 60.2051C57.7031 60.0034 57.458 59.7683 57.2451 59.5051C57.0479 59.2871 56.8735 59.0491 56.7251 58.7949C56.5508 58.3538 56.4888 57.8762 56.5449 57.405C56.543 57.1301 56.5972 56.8579 56.7051 56.605C56.7622 56.4734 56.8286 56.3464 56.9053 56.2251L57.0249 56.0349L57.0952 55.9351C57.0952 55.845 57.0952 55.845 57.0952 55.835L57.1753 55.7551C57.853 55.1865 58.5645 54.6589 59.3052 54.175C60.0156 53.7192 60.8062 53.4036 61.6353 53.2451C62.0156 53.1875 62.4004 53.1641 62.7852 53.175L63.3652 53.175L63.915 53.2949C64.6807 53.4858 65.4009 53.8254 66.0352 54.2949L66.8853 55.2949C67.1533 55.6216 67.3784 55.9812 67.5552 56.365C67.7251 56.7551 67.8252 57.1851 67.9751 57.605C68.125 58.0251 68.0952 58.5251 68.1553 58.9851C68.2153 59.4451 68.1553 59.9851 68.105 60.4751C68.0396 60.9863 67.9326 61.4912 67.7852 61.9851C67.6792 62.5112 67.5356 63.0293 67.355 63.5349L67.1553 64.135C67.105 64.2849 67.0552 64.4351 66.9951 64.575C65.7349 67.678 64.0522 70.592 61.9951 73.2351L61.9053 73.175Z" fill-rule="evenodd" fill="currentColor"/>
	<path d="M66.9854 76.635C65.5625 78.4912 64.0156 80.2485 62.3555 81.895C61.7251 82.4751 61.1753 83.115 60.4951 83.645C59.2944 84.5881 58.0205 85.4343 56.6851 86.175C55.9907 86.5605 55.2686 86.8948 54.5254 87.175C53.7368 87.4917 52.9033 87.6807 52.0552 87.7351C51.2163 87.7659 50.3843 87.5728 49.645 87.175C48.79 86.7683 48.165 85.9961 47.9453 85.075C47.8447 84.4673 47.9175 83.8435 48.1553 83.2749C48.3496 82.8003 48.6313 82.3662 48.9854 81.9951C49.5557 81.3486 50.2319 80.8042 50.9854 80.385C51.4551 80.145 51.6851 80.5249 51.7251 81.1951C51.7734 81.9951 51.665 82.7969 51.4053 83.5549C51.2891 83.811 51.2017 84.0796 51.145 84.355C51.145 84.4551 51.145 84.355 51.145 84.415C51.145 84.415 51.0854 84.415 51.3052 84.5349C51.6367 84.72 52.0244 84.7769 52.395 84.6951C52.6938 84.6609 52.9863 84.5869 53.2651 84.4751C53.5654 84.3149 53.8755 84.2051 54.1851 84.0151C55.7388 83.0027 57.0947 81.7148 58.1851 80.2151C59.5151 78.605 60.9551 77.0449 62.1851 75.2949C62.9521 74.2405 63.6567 73.1418 64.2954 72.0051C65.293 70.3809 66.0063 68.5989 66.4053 66.7351C66.5254 66.1528 66.4585 65.5474 66.2153 65.0051C66.1865 64.9192 66.1304 64.8455 66.0552 64.7949C66.0112 64.76 65.9492 64.76 65.9053 64.7949L66.1255 64.615L66.2451 64.5249C66.3154 64.5249 66.4053 64.365 66.4453 64.335C66.4873 64.2927 66.5244 64.2458 66.5552 64.1951C66.6553 64.0549 66.5552 64.085 66.5552 64.375C66.5347 64.571 66.5347 64.7688 66.5552 64.9651C66.5552 65.095 66.5552 65.2251 66.5552 65.355L66.5552 65.425L66.3354 65.4751C65.916 65.5862 65.4746 65.5862 65.0552 65.4751C64.6201 65.2681 64.2529 64.9421 63.9951 64.5349C63.8354 64.3149 63.665 64.115 63.5352 63.905C63.332 63.5474 63.2646 63.1284 63.3452 62.7251C63.4116 62.2297 63.6318 61.7681 63.9751 61.405C64.2954 61.0203 64.6694 60.6836 65.0854 60.405C65.9365 59.8506 66.998 59.7249 67.9551 60.0649C68.6128 60.2542 69.2158 60.5969 69.7153 61.0649C69.8286 61.165 69.9287 61.2651 70.0151 61.365C70.1055 61.4651 70.165 61.5449 70.2354 61.635L70.6255 62.1951C70.8418 62.5469 71.0161 62.9226 71.145 63.3149C71.2749 63.6372 71.3687 63.9724 71.4253 64.3149C71.6152 65.429 71.5947 66.5686 71.3652 67.675C71.1958 68.5759 70.9448 69.4595 70.6152 70.3149C69.6709 72.5833 68.4551 74.7288 66.9951 76.7051L66.9854 76.635Z" fill-rule="evenodd" fill="currentColor"/>
	<defs/>
</svg>
