<svg width="24" height="24" viewBox="0 0 110 110" fill="none" xmlns="http://www.w3.org/2000/svg" xmlns:xlink="http://www.w3.org/1999/xlink">
	<path d="M30.4702 16.6997C37.3682 13.2861 42.6396 7.28809 45.1401 0.00976562C45.3003 -0.430176 47.9004 14.3496 56.6602 17.1997C56.6602 17.1997 46.0601 22.2798 43.5503 32.3398C43.5601 32.4795 42.9502 24.3496 30.4702 16.6997Z" fill-rule="evenodd" fill="currentColor"/>
	<path d="M45.7598 64.5698C51.439 61.7554 55.7744 56.8086 57.8198 50.8096C57.9497 50.4497 60.0796 62.6094 67.3198 64.9497C67.3198 64.9497 58.6099 69.1294 56.5396 77.3994C56.5098 77.5098 56.0098 70.8296 45.7598 64.5698Z" fill-rule="evenodd" fill="currentColor"/>
	<path d="M0 46.0898C5.48193 43.3687 9.6709 38.5977 11.6602 32.8101C11.7798 32.4497 13.8501 44.1899 20.8398 46.4497C20.8398 46.4497 12.4199 50.4497 10.4302 58.4497C10.3799 58.5801 9.8999 52.1299 0 46.0898Z" fill-rule="evenodd" fill="currentColor"/>
	<defs/>
</svg>
