<svg width="24" height="24" viewBox="0 0 110 110" fill="none" xmlns="http://www.w3.org/2000/svg" xmlns:xlink="http://www.w3.org/1999/xlink">
	<path d="M73.1255 56.3516C73.4229 54.2085 73.4966 52.04 73.3452 49.8818C73.2666 48.8311 73.126 47.7861 72.9253 46.7515C72.7388 45.6958 72.4717 44.6562 72.1255 43.6416C72.0054 43.2749 71.8755 42.9048 71.7354 42.5317C71.5752 42.1816 71.3755 41.8418 71.1953 41.5317L70.6655 40.5317C70.4854 40.1914 70.2554 39.8818 70.0752 39.5317C68.7412 37.1211 66.8984 35.0293 64.6753 33.4019C62.3477 31.8174 59.6509 30.8599 56.8452 30.6216C56.2085 30.542 55.5669 30.5117 54.9253 30.5317L52.9253 30.6616C52.5874 30.6733 52.252 30.7241 51.9253 30.8115L50.9253 31.0215C50.2954 31.1914 49.6353 31.2715 49.0156 31.5015L46.6255 32.3818C46.2231 32.5225 45.8325 32.6929 45.4556 32.8916L44.2954 33.4517C42.6953 34.1118 41.2153 35.0317 39.6152 35.7817C38.6152 36.2417 38.3555 35.6616 38.7456 34.5518C39.0098 33.8394 39.3696 33.1665 39.8154 32.5518C40.3682 31.7056 41.0942 30.9863 41.9453 30.4414L44.4155 28.8716L47.0952 27.5815C48.0078 27.1533 48.9546 26.8022 49.9253 26.5317L51.5254 26.0718C52.0156 25.9517 52.5254 25.8818 53.0454 25.7915C57.2363 25.0444 61.5566 25.6909 65.3452 27.6318C69.9268 29.9082 73.7734 33.4292 76.4453 37.7915L77.4453 39.6016L78.2554 41.4917L78.6455 42.4414L78.9556 43.4414L79.5454 45.4414C80.1426 48.0649 80.4111 50.752 80.3452 53.4414C80.2764 56.6914 79.8335 59.9229 79.0254 63.0718C77.7437 67.894 75.3457 72.3472 72.0254 76.0718C69.4482 79.0605 66.1851 81.3804 62.5156 82.8315C62.1055 82.9814 61.6953 83.1016 61.2754 83.2114C60.8623 83.3462 60.437 83.4399 60.0054 83.4917C58.877 83.7222 57.7104 83.6914 56.5952 83.4019C55.9331 83.1309 55.3975 82.6201 55.0952 81.9717C54.9292 81.6982 54.7886 81.4106 54.6753 81.1118C54.4053 80.1914 55.5752 79.2417 57.3755 78.4717C58.0552 78.2314 58.6855 77.8716 59.3252 77.5815L60.2354 77.0518C60.5356 76.9019 60.8354 76.7515 61.1255 76.5815C62.2734 75.9795 63.353 75.2554 64.3452 74.4214C66.3579 72.7612 68.0259 70.7227 69.2554 68.4214C70.2021 66.5864 70.9785 64.6685 71.5752 62.6914C72.2339 60.6431 72.6797 58.5317 72.9053 56.3916L73.1255 56.3516Z" fill-rule="evenodd" fill="currentColor"/>
	<path d="M74.605 60.8618C76.6382 53.4751 76.4326 45.6514 74.0151 38.3818C73.7754 37.7217 73.4951 37.0815 73.2251 36.4419L72.8052 35.4419L72.3052 34.5317C71.9653 33.9316 71.665 33.3018 71.3052 32.7119C70.9453 32.1216 70.5552 31.5615 70.2051 30.9717C69.9082 30.4546 69.5742 29.96 69.2051 29.4917C68.835 29.0215 68.4854 28.4917 68.0952 28.0615L66.8452 26.7617L66.2251 26.1118L65.5254 25.5415L64.1353 24.4019C63.645 24.0718 63.1353 23.7715 62.6152 23.4517C61.5684 22.8081 60.4717 22.2495 59.335 21.7817C58.769 21.5239 58.1841 21.3101 57.585 21.1416L55.7954 20.5615L53.9653 20.1919C53.3535 20.0488 52.7314 19.9551 52.105 19.9116L50.2153 19.7515C49.5859 19.7119 48.9546 19.7119 48.3252 19.7515C47.6875 19.7432 47.0498 19.77 46.415 19.8315L44.5151 20.0815C39.9419 20.8379 35.606 22.6416 31.8452 25.3516C29.4463 27.0884 27.2134 29.0435 25.1753 31.1919C23.0796 33.3267 21.1602 35.6274 19.4351 38.0718C18.3252 39.5918 17.8853 39.1318 18.0254 37.3315C18.1123 36.1011 18.3613 34.8872 18.7651 33.7217C19.0195 32.9404 19.313 32.1729 19.645 31.4219C20.0645 30.6133 20.5288 29.8286 21.0352 29.0718C22.0083 27.6758 23.1172 26.3794 24.3452 25.2017L26.1953 23.4419C26.8052 22.8418 27.5151 22.3618 28.1953 21.8115C29.5181 20.752 30.9038 19.7734 32.3452 18.8818C33.0952 18.4619 33.8652 18.0718 34.6353 17.6616C35.0254 17.4717 35.395 17.2515 35.7954 17.0815L37.0054 16.5815C43.5435 13.769 50.8379 13.2373 57.7153 15.0718C58.7153 15.3916 59.7153 15.6719 60.7153 16.0117L63.7153 17.2119C65.6997 18.104 67.5864 19.1997 69.3452 20.4814C72.8467 23.0645 75.792 26.3257 78.0054 30.0718C80.3369 34.0903 82.0239 38.4502 83.0054 42.9917C83.9922 47.4868 84.3291 52.1006 84.0054 56.6919C83.7881 59.5449 83.2852 62.3687 82.5054 65.1216C80.5708 72.3174 75.9736 78.5088 69.645 82.4419C67.7935 83.6353 65.8271 84.6401 63.7754 85.4419C61.7271 86.2095 59.6108 86.7817 57.4551 87.1519C54.1211 87.7358 50.7222 87.8569 47.355 87.5117C43.9834 87.146 40.6768 86.3252 37.5254 85.0718C36.124 84.5581 34.7637 83.9395 33.4551 83.2217C31.6772 82.353 30.1387 81.062 28.9751 79.4619C28.3271 78.3862 28.2378 77.0645 28.7354 75.9116C28.8818 75.2974 29.0859 74.6978 29.3452 74.1216C29.8794 73.2476 30.8652 72.7549 31.8853 72.8516C33.2783 72.9653 34.6299 73.3813 35.8452 74.0718C39.9883 76.3599 44.5352 77.8237 49.2354 78.3818C53.7017 78.8442 58.2075 78.0366 62.2354 76.0518C65.2017 74.5776 67.8042 72.4634 69.855 69.8618C70.8984 68.563 71.8188 67.1704 72.605 65.7017C72.8052 65.3315 72.9854 64.9512 73.145 64.5615L73.4053 63.9917L73.625 63.3618C73.918 62.5308 74.1582 61.6826 74.3452 60.8218L74.605 60.8618Z" fill-rule="evenodd" fill="currentColor"/>
	<defs/>
</svg>
