<svg width="24" height="24" viewBox="0 0 110 110" fill="none" xmlns="http://www.w3.org/2000/svg" xmlns:xlink="http://www.w3.org/1999/xlink">
	<path d="M64.5039 62.0278C64.5039 62.0278 72.3237 55.2681 73.3037 57.2178C74.874 60.3682 69.0239 73.418 67.9937 74.0679C66.9639 74.7178 59.144 70.0679 57.8838 67.3281C57.104 65.6577 57.6738 61.728 61.1138 61.3281C62.2905 61.1768 63.4834 61.4233 64.5039 62.0278Z" fill-rule="evenodd" fill="currentColor"/>
	<path d="M61.7236 21.9282C60.7427 22.2251 59.792 22.6133 58.8838 23.0879C58.0283 23.5464 57.2295 24.1035 56.5039 24.748C55.0605 25.9595 53.9551 27.5234 53.2939 29.2881C52.8086 30.5864 53.3066 32.0464 54.4839 32.7778C54.9644 33.1138 55.5376 33.292 56.1235 33.2881C56.9141 33.3179 57.7017 33.1782 58.4336 32.8779C61.0073 31.7549 63.1226 29.791 64.4336 27.3081C64.6611 26.8696 64.8262 26.4019 64.9238 25.918L64.9238 25.7578L64.9238 25.5381L64.9238 25.0879C64.9492 24.7886 64.9492 24.4873 64.9238 24.188C64.8521 23.0127 64.5098 21.8696 63.9238 20.8481C62.5645 18.6973 60.4946 17.0908 58.0737 16.3081C56.8003 15.8452 55.4785 15.5264 54.1338 15.3579C52.8022 15.2031 51.4551 15.2402 50.1338 15.4678C47.3276 16.0366 44.6104 16.9785 42.0537 18.2681C39.6738 19.3979 37.3237 20.7178 34.8838 21.998C32.4004 23.3931 29.749 24.4653 26.9937 25.188C25.0522 25.6636 23.0249 25.6636 21.084 25.188C20.6001 25.0596 20.126 24.8994 19.6636 24.708C19.2051 24.54 18.7603 24.3359 18.334 24.0981C17.396 23.6279 16.5498 22.9946 15.834 22.228C14.3208 20.5898 13.6914 18.3218 14.1436 16.1382C14.5659 14.311 15.3628 12.5913 16.4839 11.0879C17.8237 9.25781 18.1235 9.89795 17.8936 11.8081C17.7554 13.0332 17.6885 14.2651 17.6938 15.498C17.6938 16.1709 17.7676 16.8413 17.9136 17.498C18.0439 18.002 18.2676 18.4771 18.5737 18.8979C18.877 19.3062 19.2617 19.647 19.7036 19.8979C19.9707 20.0513 20.248 20.1846 20.5337 20.2979C20.8589 20.4341 21.1929 20.5479 21.5337 20.6382C22.1162 20.8374 22.728 20.9385 23.3438 20.938C23.9785 20.9814 24.6162 20.9512 25.2437 20.8481C27.9336 20.3882 30.9238 18.8481 33.9336 17.208C37.0806 15.377 40.3408 13.7471 43.6938 12.3281C45.5166 11.5708 47.4185 11.0205 49.3638 10.688C51.4136 10.3843 53.5 10.4316 55.5337 10.8281C57.9307 11.2559 60.2412 12.0732 62.3735 13.248C63.4819 13.8691 64.5181 14.6104 65.4639 15.458C66.4229 16.3408 67.2573 17.3501 67.9438 18.458C69.2881 20.7676 69.9277 23.4194 69.7837 26.0879C69.6733 27.5166 69.2573 28.9043 68.564 30.1582C67.9634 31.2827 67.2241 32.3271 66.3638 33.2681C64.5088 35.3638 62.1567 36.9595 59.5239 37.9082C58.0425 38.4277 56.4565 38.5791 54.9038 38.3481C54.0752 38.1782 53.2783 37.8774 52.5439 37.458C51.8389 37.0483 51.207 36.5249 50.6738 35.9082C49.5562 34.731 48.8535 33.2212 48.6738 31.6079C48.5957 30.8271 48.6294 30.0391 48.7739 29.2681C48.8203 28.9004 48.9043 28.5386 49.0239 28.188C49.1079 27.8457 49.2217 27.5107 49.3638 27.188C49.8799 25.9165 50.5845 24.7295 51.4536 23.668C52.272 22.6299 53.2046 21.6875 54.2339 20.8579C54.8633 20.3345 55.5322 19.8599 56.2339 19.438C56.9438 19.0581 57.6436 18.668 58.3638 18.3579C59.7856 17.6973 61.2651 17.168 62.7837 16.7778C65.811 15.9761 68.9526 15.6958 72.0737 15.9482C74.5186 16.1338 76.8999 16.8145 79.0737 17.9482C81.3076 19.1831 83.1401 21.0327 84.354 23.2778C85.5298 25.5156 86.0596 28.0361 85.8838 30.5581C85.8188 31.7793 85.6211 32.9897 85.2939 34.168C84.9771 35.3306 84.5557 36.4619 84.0337 37.5479C82.374 40.7915 80.1377 43.7061 77.4336 46.1479C74.9336 48.5981 72.314 50.708 70.1338 53.0078C69.2207 53.9736 68.394 55.0176 67.6636 56.1279C66.7729 57.4814 66.0508 58.939 65.5137 60.4678C65.2021 61.3271 64.7231 62.1157 64.104 62.7881C63.873 63.0972 63.6191 63.3882 63.3438 63.6582C62.9136 63.998 62.4336 63.6582 61.9238 62.5479C61.248 60.8047 61.1533 58.8896 61.6538 57.0879C62.103 55.3086 62.8506 53.6182 63.8638 52.0879C64.8218 50.6631 65.9023 49.3247 67.0938 48.0879C68.2437 46.8779 69.4238 45.748 70.584 44.668L73.9937 41.5981C76.0635 39.8325 77.7979 37.7085 79.1138 35.3281C80.2783 33.1675 80.7822 30.7124 80.564 28.2681C80.3555 26.6304 79.6343 25.1006 78.5039 23.8979C77.2749 22.6289 75.7109 21.7339 73.9937 21.3179C69.9385 20.3672 65.6943 20.6104 61.7739 22.0181L61.7236 21.9282Z" fill-rule="evenodd" fill="currentColor"/>
	<path d="M67.5239 70.0278C68.791 67.6509 69.8481 65.168 70.6841 62.6079C70.8271 62.1509 70.9473 61.687 71.0439 61.2178L71.1138 60.8779L71.1138 60.7876C71.1138 60.7275 71.1138 60.668 71.1138 60.5977C71.2197 60.3345 71.2441 60.0454 71.1841 59.7676C70.9941 59.5176 70.6938 59.668 70.4238 59.7676L69.9741 59.9678L69.9038 59.9678L69.7837 60.0879L69.5039 60.2476L68.9438 60.5977L66.6641 61.9878L65.5938 62.6377L64.9941 62.9775L64.584 63.1577C64.4395 63.2007 64.2925 63.2339 64.144 63.2578C63.8384 63.2979 63.5293 63.2979 63.2241 63.2578C62.9341 63.2578 62.7637 63.1777 62.5337 63.1479L61.3237 62.8779L58.3838 62.1875C57.4595 61.9165 56.5122 61.7295 55.5537 61.6279C54.9839 61.6279 54.9341 61.2876 55.4341 60.7979C56.2817 60.1016 57.3374 59.7075 58.4341 59.6777C58.7241 59.6777 59.0039 59.6777 59.2939 59.6777L60.1138 59.7876L61.6938 60.0278C62.2041 60.1177 62.6938 60.1978 63.144 60.2476L63.4639 60.2476L63.584 60.1777L63.834 60.0078L64.4141 59.5879L65.6641 58.6777C66.0938 58.3779 66.5239 58.0576 66.9839 57.7778L68.6641 56.7778C69.5356 56.249 70.4785 55.8481 71.4639 55.5879C72.2974 55.3564 73.1904 55.5142 73.894 56.0176C74.5078 56.6616 74.8633 57.5088 74.894 58.3979C74.9946 59.458 74.9575 60.5269 74.7837 61.5776C74.1279 64.4473 73.1968 67.2471 72.0039 69.9375C71.6538 70.7578 71.2739 71.5776 70.854 72.3979L70.4341 73.1777C70.2852 73.4648 70.1182 73.7422 69.9341 74.0078C69.623 74.5239 69.1904 74.9565 68.6738 75.2676L68.4941 75.3677C68.0562 75.4326 67.6113 75.4326 67.1738 75.3677L66.5137 75.1875C66.2939 75.1079 66.084 75.0078 65.8638 74.918C65.4697 74.7578 65.0859 74.5742 64.7139 74.3677C64.4038 74.1978 64.1138 74.0176 63.8237 73.8477C62.6538 73.1279 61.5439 72.3677 60.4639 71.5479C58.6748 70.3262 57.0015 68.9438 55.4639 67.418C55.1338 67.0479 54.7739 66.7178 54.4639 66.3179C53.374 64.7876 53.4639 64.0078 54.4141 63.1978C54.6265 62.9976 54.854 62.814 55.0938 62.6479C55.9512 62.188 57.0146 62.4121 57.6138 63.1777C59.8862 65.5908 62.3994 67.7651 65.1138 69.668C65.4141 69.8779 65.7241 70.0776 66.0239 70.2676C66.3237 70.4575 66.6938 70.6577 66.8838 70.7676C66.8838 70.7676 66.8838 70.7676 66.8838 70.8379C66.8838 70.9077 66.8838 70.8379 66.9438 70.8379C66.9438 70.8379 66.9438 70.9077 67.0039 70.7378L67.374 70.0278L67.5239 70.0278Z" fill-rule="evenodd" fill="currentColor"/>
	<path d="M60.5435 79.9683C60.3237 79.7383 60.8135 79.6582 61.7334 79.6382C62.1606 79.6538 62.584 79.7246 62.9937 79.8481C63.2017 79.9814 63.396 80.1357 63.5737 80.3081C63.7456 80.8916 63.876 81.4863 63.9634 82.0884C64.0542 82.4863 64.0542 82.8999 63.9634 83.2983C63.8037 84.0781 63.6533 84.8682 63.4536 85.6382C63.4072 85.8169 63.3179 85.9814 63.1934 86.1182C62.7925 86.5938 62.5327 87.1724 62.4434 87.7881C62.4434 87.8882 62.3633 87.978 62.4434 88.1182C62.4355 88.8267 62.2314 89.519 61.8535 90.1182C61.3936 90.5083 61.0234 90.938 60.5835 91.3184C60.5137 91.3184 60.5835 91.4683 60.3438 91.458C59.9033 91.458 59.8936 91.5981 59.7935 91.728C59.6509 91.9282 59.4668 92.0957 59.2534 92.2183C59.0698 92.2773 58.8765 92.3013 58.6836 92.2881C58.4131 92.2168 58.1631 92.0835 57.9536 91.8979C57.8335 91.7183 57.5435 91.6582 57.3237 91.5381C57.2427 91.5063 57.166 91.4663 57.0938 91.418C56.8589 90.8711 56.6943 90.2964 56.6035 89.708L56.6733 89.4282C56.6733 89.2681 56.7437 89.0483 56.8037 88.8281C56.8853 88.4985 56.9487 88.1646 56.9937 87.8281C56.9937 87.7183 57.1235 87.6582 57.2134 87.5884C57.3037 87.5181 57.4336 86.1782 57.4536 86.1284C57.5938 85.8784 57.5435 85.5684 57.9634 85.418C58.0537 85.418 58.0537 85.3281 58.0635 85.2681C58.2026 84.7935 58.4048 84.3398 58.6636 83.918C58.75 83.6875 58.8169 83.4502 58.8633 83.208C58.8633 83.208 58.9434 83.1284 58.9736 83.0981C59.0034 83.0684 59.0835 83.0083 59.0938 82.9482C59.2993 82.3936 59.437 81.8159 59.5034 81.228C59.5034 81.0884 60.0435 80.5381 60.0137 80.3784C59.9834 80.2183 60.6333 80.0884 60.5435 79.9683Z" fill-rule="evenodd" fill="currentColor"/>
	<path d="M77.2334 75.2183C76.9634 75.2881 77.0737 74.8481 77.3633 74.1084C77.5254 73.7705 77.7344 73.4575 77.9834 73.1782C78.1797 73.061 78.3877 72.9639 78.6035 72.8882C78.7236 72.8882 79.9336 73.1382 80.3735 73.1982C80.7573 73.2617 81.1245 73.4014 81.4536 73.6084C82.1133 73.978 82.7837 74.3184 83.4536 74.6782C83.6001 74.7603 83.7212 74.8813 83.8037 75.0283C84.1099 75.5005 84.5684 75.8535 85.1035 76.0283C85.2046 76.0918 85.3325 76.0918 85.4336 76.0283C85.7134 75.8979 87.0137 76.5781 87.0938 76.7681C87.2046 77.0015 87.3281 77.2285 87.4634 77.4482C87.5938 77.6582 87.7134 77.8979 87.8335 78.1182C87.9536 78.3384 87.9536 78.1182 87.9033 78.3784C87.7637 78.8682 87.9033 78.8584 88.0234 78.9683C88.1567 79.146 88.2583 79.3457 88.3237 79.5581C88.3491 79.771 88.3491 79.9858 88.3237 80.1982C88.2603 80.5005 88.1416 80.7891 87.9736 81.0483C87.8164 81.2637 87.7046 81.5088 87.6436 81.7681C87.6436 81.8584 87.5635 81.9683 87.5337 82.0381C86.877 82.397 86.1567 82.6245 85.4136 82.708L85.0938 82.5884C84.9033 82.5181 84.6533 82.438 84.4136 82.3384C83.9336 82.1284 83.4136 81.8882 83.3535 81.8584C83.2935 81.8281 83.2036 81.668 83.1636 81.5381C83.1235 81.4082 81.7734 80.8481 81.7437 80.7983C81.5337 80.5581 81.2134 80.4883 81.2134 79.978C81.2134 79.8784 81.1533 79.8584 81.1035 79.8281C80.6973 79.4932 80.3408 79.1025 80.0435 78.668C79.8672 78.48 79.6729 78.3091 79.4634 78.1582C79.4634 78.1582 79.4634 78.0483 79.4033 77.998C79.3438 77.9482 79.4033 77.8584 79.3135 77.8281C78.8896 77.3911 78.4282 76.9932 77.9336 76.6382C77.8135 76.5781 77.5234 75.8481 77.3735 75.7983C77.2236 75.748 77.3535 75.188 77.2334 75.2183Z" fill-rule="evenodd" fill="currentColor"/>
	<defs/>
</svg>
