<svg width="24" height="24" viewBox="0 0 110 110" fill="none" xmlns="http://www.w3.org/2000/svg" xmlns:xlink="http://www.w3.org/1999/xlink">
	<path d="M53.0435 15.2495C60.0195 11.3479 68.4199 10.937 75.7432 14.1396C79.3101 15.6938 82.4692 18.052 84.9736 21.0295C85.6152 21.7371 86.1973 22.4961 86.7134 23.2996L87.5234 24.4795C87.7935 24.8696 87.9834 25.3096 88.2134 25.7195C88.6333 26.5596 89.1235 27.3796 89.4736 28.2395L90.4736 30.8696C91.3403 33.4795 91.8252 36.2009 91.9136 38.9497C91.9937 41.6682 91.6567 44.3833 90.9136 46.9995C90.5767 48.1399 90.1792 49.2615 89.7236 50.3596C89.2471 51.4426 88.7095 52.4976 88.1133 53.5195C87.52 54.5552 86.8687 55.5566 86.1636 56.5195C85.4111 57.4385 84.6064 58.3135 83.7534 59.1396C82.9307 59.9778 82.0557 60.7627 81.1333 61.4895C80.2041 62.2136 79.2324 62.8813 78.2236 63.4895C76.2402 64.614 74.1328 65.5034 71.9434 66.1396C67.5322 67.5642 62.8105 67.7236 58.3135 66.5996C56.1274 66.0469 54.0161 65.2344 52.0234 64.1797C50.0747 63.187 48.209 62.04 46.4434 60.7495L44.8735 59.5596L43.6333 58.5596C43.3989 58.3572 43.1445 58.1797 42.8735 58.0295C42.8022 58.0051 42.7246 58.0051 42.6533 58.0295C42.5835 58.0295 42.5435 58.1296 42.4834 58.1797L42.1533 58.4995C40.6035 60.0796 39.0435 61.6697 37.4434 63.2395L32.4434 68.4795C29.2036 71.8997 26.0234 75.3896 22.8335 78.8696L18.0332 84.0796C16.4434 85.8196 14.7231 87.4397 13.0332 89.0796C10.9434 91.1497 10.5635 90.3296 11.4434 87.7996C12.0605 86.1038 12.8096 84.4587 13.6836 82.8796C14.9341 80.7373 16.3979 78.7271 18.0532 76.8796C21.4668 73.053 24.9302 69.2764 28.4434 65.5496C30.1836 63.6897 31.9536 61.8396 33.7231 59.9995L36.4033 57.2595L37.7432 55.8896L39.9536 53.6897C40.3633 53.3997 40.7935 53.1196 41.2134 52.8696C41.4141 52.7861 41.6216 52.7192 41.8335 52.6697C42.0698 52.6187 42.312 52.5984 42.5532 52.6096C43.5581 52.6809 44.519 53.0498 45.3135 53.6697C45.7632 53.9695 46.2036 54.3196 46.6436 54.6697L47.4536 55.3096L48.7534 56.3096C50.4253 57.6062 52.2051 58.7571 54.0732 59.7495C57.6733 61.6204 61.7319 62.4253 65.7734 62.0696C68.3662 61.79 70.8818 61.0161 73.1836 59.7896C75.5298 58.5967 77.6299 56.9714 79.3735 54.9995C82.8413 51.0073 84.8013 45.9265 84.9136 40.6396C84.9834 37.7959 84.4834 34.967 83.4434 32.3196C82.937 30.9875 82.3149 29.7026 81.5835 28.4795L80.3433 26.7595C80.1499 26.4634 79.9214 26.1914 79.6636 25.9497L78.9233 25.1396C74.9526 21.0161 69.3242 18.9192 63.6235 19.4397C60.082 19.7969 56.7065 21.1182 53.8633 23.2595C53.1191 23.7756 52.4263 24.3616 51.7935 25.0095C51.4736 25.3196 51.1133 25.6196 50.7935 25.9397C50.4736 26.2595 50.2334 26.5796 49.9731 26.9397C48.9326 28.2725 48.1831 29.8088 47.7734 31.4497C47.1597 34.0076 47.3481 36.6926 48.3135 39.1396C49.313 41.6531 50.9336 43.8723 53.0234 45.5896C55.0483 47.3296 57.5229 48.4629 60.1636 48.8596C62.6626 49.2021 65.1929 48.5044 67.1636 46.9297C67.5171 46.6172 67.8511 46.2832 68.1636 45.9297C68.4463 45.5945 68.6914 45.2288 68.8936 44.8396C70.1943 42.3557 70.3115 39.4194 69.2134 36.8396C68.6147 35.5212 67.4077 34.5798 65.9834 34.3196C64.4531 34.02 62.8657 34.3132 61.5435 35.1396C61.0688 35.4172 60.6675 35.8049 60.3735 36.2695C60.1968 36.5742 60.0972 36.9177 60.0835 37.2695C60.0967 37.4619 60.127 37.6526 60.1733 37.8396C60.1733 37.9497 60.2231 38.0496 60.2632 38.1597L60.3433 38.3196C60.354 38.3521 60.354 38.3872 60.3433 38.4197C60.4561 38.5962 60.5864 38.7603 60.7334 38.9097C60.9834 39.1396 61.2334 39.3396 61.4336 39.4995C61.6333 39.6597 61.7734 39.7395 61.8032 39.8196C61.8335 39.8997 61.8032 39.8196 61.8032 40.0396C61.7886 40.1792 61.7886 40.3201 61.8032 40.4597C61.8032 40.6296 61.8032 40.6497 61.8032 40.7495C61.8032 40.8496 61.8735 40.9497 61.8633 40.9497C61.8608 40.9763 61.8608 41.0029 61.8633 41.0295C61.4434 40.5996 62.4434 41.6196 62.3335 41.5195C62.2632 41.4519 62.186 41.3916 62.1035 41.3396C61.9531 41.2417 61.792 41.1611 61.6235 41.0996L61.4634 41.0996L61.5234 41.0996C61.6787 41.0981 61.833 41.0779 61.9834 41.0396L62.1133 41.0396C62.1929 41.0225 62.2705 40.9956 62.3433 40.9597C62.4604 40.9226 62.5718 40.8687 62.6733 40.7996C62.7324 40.7554 62.7832 40.7014 62.8232 40.6396C62.8232 40.6897 62.8232 40.6396 62.8232 40.5396C62.8379 40.4839 62.8379 40.4253 62.8232 40.3696C62.6812 40.1458 62.4897 39.9575 62.2632 39.8196C62.0654 39.719 61.9302 39.5271 61.9019 39.3066C61.874 39.0864 61.957 38.8665 62.1235 38.7195C62.2837 38.573 62.4702 38.4575 62.6733 38.3796C63.0518 38.2649 63.4551 38.2649 63.8335 38.3796C64.334 38.5215 64.7827 38.8064 65.1235 39.1997C65.2778 39.3833 65.415 39.5808 65.5332 39.7896C65.6323 39.9805 65.7192 40.1775 65.7935 40.3796C66.0806 41.2327 66.0806 42.1565 65.7935 43.0095C65.6973 43.3042 65.5664 43.5862 65.4033 43.8496C65.2954 44.0095 65.1787 44.1631 65.0532 44.3096C64.9468 44.436 64.8301 44.5532 64.7036 44.6597C64.2031 45.1311 63.5957 45.4744 62.9336 45.6597C62.6089 45.7605 62.2729 45.8179 61.9336 45.8296C61.7769 45.8398 61.6201 45.8398 61.4634 45.8296L61.0435 45.8296C60.7686 45.8247 60.4941 45.7981 60.2231 45.7495C59.9673 45.7068 59.7134 45.6501 59.4634 45.5796C58.5161 45.2419 57.6284 44.7559 56.8335 44.1396C55.8633 43.5078 55.0469 42.6675 54.4434 41.6797C54.3257 41.4995 54.2188 41.3125 54.1235 41.1196L53.8633 40.6196C53.7134 40.2595 53.5635 39.8896 53.4336 39.5095C53.1816 38.6855 53.0435 37.8311 53.0234 36.9695C53.0083 35.168 53.5303 33.4028 54.5234 31.8997C55.4258 30.5532 56.6011 29.4119 57.9731 28.5496C59.2573 27.7336 60.6709 27.1418 62.1533 26.7996C63.6802 26.4456 65.2568 26.3574 66.8135 26.5396C70.3276 26.9033 73.4673 28.8953 75.2935 31.9197C76.144 33.301 76.7466 34.8206 77.0732 36.4097C77.6621 39.3127 77.4971 42.3184 76.5933 45.1396C76.1357 46.6111 75.4619 48.0066 74.5933 49.2795C74.3535 49.6096 74.1133 49.9397 73.8535 50.2795C73.5933 50.6196 73.2935 50.9297 73.0034 51.2197C72.458 51.7478 71.8838 52.2454 71.2832 52.7097C68.8174 54.5332 65.8828 55.6155 62.8232 55.8296C59.9585 55.969 57.0977 55.4773 54.4434 54.3896C52.5024 53.605 50.6812 52.5513 49.0332 51.2595C47.4326 49.9805 45.9951 48.5095 44.7534 46.8796C43.4995 45.2075 42.4893 43.3657 41.7534 41.4097C40.98 39.4043 40.5376 37.2866 40.4434 35.1396C40.2183 30.7568 41.4878 26.4272 44.0435 22.8596C44.3545 22.4224 44.688 22.0017 45.0435 21.5996L45.5532 20.9895L46.0635 20.4695L48.1636 18.4695C48.8936 17.8296 49.7134 17.2695 50.4932 16.6797C51.2612 16.0925 52.0815 15.5771 52.9434 15.1396L53.0435 15.2495Z" fill-rule="evenodd" fill="currentColor"/>
	<defs/>
</svg>
