<svg width="24" height="24" viewBox="0 0 110 110" fill="none" xmlns="http://www.w3.org/2000/svg" xmlns:xlink="http://www.w3.org/1999/xlink">
	<path d="M81.2163 25.9258C81.3467 25.8506 81.4619 25.7524 81.5562 25.6357C81.7261 25.4453 81.5562 25.3657 81.4663 25.2554C81.4082 25.1875 81.3442 25.1235 81.2764 25.0654L81.146 24.9854L80.5762 24.7256C80.1523 24.5352 79.7144 24.3779 79.2661 24.2554L77.916 23.8555C77.2583 23.6919 76.5898 23.5718 75.916 23.4956C75.2261 23.3657 74.5264 23.3457 73.8262 23.2456C68.6987 22.5586 63.4897 22.7959 58.4463 23.9453C56.1606 24.4858 53.9312 25.2388 51.7861 26.1953C49.0264 27.3955 46.4863 28.9854 43.6064 29.9453C42.7061 30.2256 42.1064 29.0054 42.1562 27.4355C42.1538 25.6377 43.0854 23.9678 44.6162 23.0254C47.5547 21.4604 50.6353 20.1777 53.8164 19.1953C57.0391 18.2222 60.3652 17.6313 63.7261 17.4355C67.7261 17.2354 71.9561 16.6558 76.166 17.2856C78.4868 17.627 80.7617 18.231 82.9463 19.0854L83.9463 19.5054C84.3433 19.6514 84.7305 19.8218 85.1064 20.0156C85.7812 20.3853 86.4263 20.8066 87.0361 21.2754C87.6367 21.6919 88.2021 22.1567 88.7261 22.6655C89.021 23.3335 89.0708 24.0845 88.8662 24.7856C88.6416 25.707 88.2734 26.5879 87.7764 27.3955C87.5264 27.8257 87.2563 28.2456 86.9761 28.6655C86.6963 29.0854 86.3765 29.5557 86.2163 29.7754C85.396 30.8555 84.5864 31.8555 83.7861 32.9556C81.3662 36.1558 78.7861 39.2153 76.646 42.4756C75.0059 44.9829 73.5132 47.584 72.1763 50.2656C71.8662 50.8354 71.6162 51.4258 71.2964 51.9956C70.1064 54.1157 69.436 54.6157 68.0864 54.5757C67.7832 54.5962 67.479 54.5962 67.1763 54.5757C66.2363 54.4155 65.916 53.1157 66.396 51.2256C67.1782 48.4082 68.2124 45.6675 69.4863 43.0356C70.1265 41.7153 70.8062 40.4155 71.4863 39.1255C72.166 37.8354 73.0664 36.6455 73.8765 35.4355C75.0962 33.6455 76.3765 31.8955 77.686 30.2153L79.6064 27.7056L80.5264 26.4653L80.9463 25.8955L81.2163 25.9258Z" fill-rule="evenodd" fill="currentColor"/>
	<path d="M27.9761 57.1953C29.436 55.6855 30.856 54.1455 32.356 52.6855C33.856 51.2256 35.356 49.7456 36.936 48.3755C38.0962 47.3755 39.0464 46.1655 40.2661 45.2256C44.4517 41.8027 48.9556 38.7891 53.7163 36.2256C54.7764 35.6655 55.7764 35.0156 56.8262 34.4556C57.876 33.8955 58.9263 33.3052 59.9561 32.7256C60.606 32.3252 61.3164 32.0254 61.9561 31.7256C62.6328 31.3516 63.3306 31.0176 64.0464 30.7256C65.5112 30.2266 67.0273 29.8911 68.5664 29.7256C69.5664 29.6152 69.666 30.5752 69.2661 31.8452C68.8413 33.3608 67.9185 34.689 66.646 35.6152C66.3462 35.8154 66.0562 36.0352 65.7461 36.2153L64.8062 36.7056L62.916 37.7056C61.686 38.4355 60.4463 39.1255 59.186 39.8052C57.9263 40.4854 56.7363 41.3052 55.4761 42.0054C54.2163 42.7056 53.0063 43.5352 51.7163 44.2554C50.9556 44.7163 50.2241 45.2236 49.5264 45.7754C48.8062 46.3052 48.0864 46.8555 47.396 47.4253L43.3862 51.0352C40.4863 53.7153 37.4863 56.4556 34.7964 59.4253C33.0762 61.2056 31.4863 63.1055 29.896 65.0054L26.4863 69.4653C25.4062 71.0054 24.3062 72.5254 23.356 74.1353C22.626 75.3853 21.9863 76.6853 21.356 77.9854C20.7261 79.2854 20.186 80.6155 19.4863 81.8555C19.166 82.3955 18.9263 82.9653 18.606 83.5054C17.4062 85.5054 16.606 85.9753 15.166 85.8154C14.8306 85.8052 14.4961 85.7683 14.166 85.7053C13.166 85.4653 12.7861 84.1953 13.1162 82.3455C13.3862 80.9954 13.6362 79.5955 14.0361 78.2454C14.436 76.8955 15.0361 75.6255 15.5864 74.3452C16.1362 73.0654 16.936 71.8853 17.6562 70.6553C18.376 69.4253 19.186 68.2754 19.9761 67.0854C22.4009 63.6138 25.0112 60.2754 27.7964 57.0854L27.9761 57.1953Z" fill-rule="evenodd" fill="currentColor"/>
	<defs/>
</svg>
