<svg width="24" height="24" viewBox="0 0 110 110" fill="none" xmlns="http://www.w3.org/2000/svg" xmlns:xlink="http://www.w3.org/1999/xlink">
	<path d="M64.6904 62.1458C63.4316 61.8381 62.3311 61.0759 61.6006 60.0056C61.4502 59.8057 61.2104 59.5256 61.1206 59.3958L60.7905 58.9556C60.5605 58.6558 60.3804 58.4258 60.1602 58.1658C59.9404 57.9058 59.4302 57.5256 59.1006 57.1658L58.9404 57.0156L58.8203 56.8857C58.772 56.8274 58.7188 56.7739 58.6602 56.7256C58.5312 56.5928 58.3633 56.5051 58.1802 56.4756C57.7603 56.4756 57.6704 56.9258 57.5903 57.3457C57.5903 57.3958 57.5903 57.6758 57.5903 57.8457C57.5903 58.0156 57.5903 58.2456 57.5903 58.4456C57.5918 58.8376 57.6255 59.229 57.6904 59.6157C57.8345 60.52 58.1069 61.3989 58.5005 62.2256C58.6401 62.4756 58.5005 62.7356 58.0103 62.8457C57.2729 62.9773 56.5195 62.7249 56.0103 62.1758C55.7637 61.8984 55.5361 61.6045 55.3306 61.2957C55.1675 60.9795 55.0464 60.6433 54.9702 60.2957C54.8184 59.6792 54.7246 59.0498 54.6904 58.4158L54.6304 57.4656C54.6162 56.9548 54.6362 56.4438 54.6904 55.9355C54.8384 55.0317 55.3428 54.2246 56.0903 53.6956C57.0122 53.1736 58.1299 53.1287 59.0903 53.5757C59.5977 53.7864 60.0801 54.0513 60.5303 54.3657C60.8848 54.5898 61.2197 54.844 61.5303 55.1257C62.1338 55.6807 62.6919 56.2827 63.2002 56.9258C63.8003 57.6458 63.8105 57.7556 64.0806 58.0557C64.2153 58.2473 64.4136 58.3853 64.6401 58.4456C64.875 58.4519 65.0908 58.3184 65.1904 58.1057C65.2915 57.959 65.375 57.8013 65.4404 57.6357C65.4858 57.5447 65.5259 57.4512 65.5605 57.3557L65.7202 56.9456L66.5005 54.9456C66.8735 53.7876 67.3662 52.6716 67.9702 51.6157C68.1187 51.3667 68.2856 51.1292 68.4702 50.9058C68.7085 50.5781 69.0693 50.3616 69.4702 50.3057C69.834 50.3835 70.1616 50.5806 70.4004 50.8657C70.5308 50.9819 70.6514 51.1091 70.7603 51.2456C70.9165 51.481 71.0063 51.7537 71.0205 52.0356C71.1152 52.3281 71.1152 52.6431 71.0205 52.9355C70.3203 54.4116 69.6997 55.9238 69.1602 57.4656L68.6904 58.6157C68.583 58.9587 68.4492 59.2932 68.2905 59.6157C68.1655 59.9414 68.001 60.2505 67.8003 60.5356C67.626 60.8137 67.418 61.0691 67.1802 61.2957L66.8403 61.6157L66.4502 61.8557C65.9067 62.1621 65.2808 62.2915 64.6602 62.2256L64.6904 62.1458Z" fill-rule="evenodd" fill="currentColor"/>
	<path d="M51.3501 74.2253C47.8975 70.1123 44.771 65.7358 42.0005 61.1355C39.0718 56.3601 37.1338 51.0449 36.3003 45.5054C35.6704 41.3132 36.0513 37.031 37.4102 33.0154C38.7563 29.4329 41.0557 26.2861 44.0605 23.9155C47.0474 21.6191 50.5923 20.1592 54.3301 19.6855C57.9526 19.2097 61.6348 19.4958 65.1401 20.5254C68.6665 21.575 71.8672 23.5056 74.4404 26.1355C76.6279 28.4541 78.4033 31.1292 79.6904 34.0454C80.9326 36.8613 81.8843 39.7964 82.5303 42.8054C82.9448 44.7397 83.2188 46.7017 83.3501 48.6755C83.5083 50.6011 83.5615 52.5339 83.5103 54.4656C83.4585 58.2947 83.1846 62.1179 82.6904 65.9155C82.3701 68.2654 81.6904 67.9155 80.9502 65.8555C79.959 62.6091 79.394 59.2476 79.2705 55.8555C79.2002 53.9556 79.0503 52.0654 78.9302 50.2156C78.8228 48.4082 78.6123 46.6086 78.3003 44.8254C77.6313 41.3115 76.4912 37.9043 74.9102 34.6956C74.1221 33.1838 73.1768 31.7593 72.0903 30.4456C71.0142 29.196 69.7729 28.0994 68.4004 27.1855C66.981 26.3042 65.46 25.5991 63.8701 25.0854C62.1836 24.5806 60.4463 24.2622 58.6904 24.1355C54.4917 23.7524 50.3062 24.9985 47.0005 27.6155C43.7485 30.3594 41.6548 34.2319 41.1401 38.4556C40.8364 40.8352 40.8735 43.2461 41.2505 45.6155C41.6597 48.0342 42.3306 50.4014 43.2505 52.6755C45.3018 57.3152 47.9219 61.6821 51.0503 65.6755C52.6904 67.8555 54.4004 69.9954 56.1602 72.1255L61.1001 78.0554C61.2603 78.2354 61.3901 78.4355 61.5605 78.5955C61.7305 78.7554 62.0205 78.5354 62.2305 78.4556C62.4404 78.3755 62.7803 78.1455 63.0503 77.9753L64.5303 76.9753C65.5303 76.2954 66.5903 75.6055 67.6602 74.9753C68.1904 74.6455 68.7402 74.3154 69.2905 73.9753L70.1704 73.4954C70.5103 73.3154 70.8003 73.1555 71.2305 72.9556C72.7202 72.2139 74.2998 71.6692 75.9302 71.3354C77.3037 71.0659 78.7168 71.0659 80.0903 71.3354C81.3901 71.5693 82.5952 72.1736 83.5605 73.0754C84.0498 73.5447 84.2681 74.2297 84.1401 74.8955C83.9951 75.4253 83.7358 75.9167 83.3804 76.3354C82.5864 77.3313 81.6499 78.2041 80.6001 78.9255C79.6001 79.6255 78.4302 80.3254 77.2705 81.0254L75.5801 82.0254L74.9404 82.4456L74.3901 82.8254C73.6792 83.3118 73.0103 83.8572 72.3901 84.4556C71.873 84.9202 71.4609 85.4895 71.1802 86.1255L71.1201 86.3054L69.6802 85.8354C69.6582 85.8247 69.6323 85.8247 69.6104 85.8354C69.6104 85.8354 69.6104 85.8354 69.6104 85.7654L69.6904 85.6055C69.7305 85.5 69.7505 85.3882 69.7505 85.2754C69.8076 84.9453 69.8345 84.6106 69.8301 84.2754L70.0405 84.2754C70.3901 84.2156 70.8203 84.1055 71.2402 83.9954L73.8901 83.2554C76.4004 82.5754 79.7803 81.6355 81.9502 81.8154C82.5474 81.8472 83.1382 81.9514 83.7104 82.1255C84.2485 82.3159 84.7393 82.6194 85.1504 83.0154C85.3071 83.2698 85.4253 83.5461 85.5005 83.8354C85.5391 84.0671 85.5391 84.3037 85.5005 84.5354C85.4141 85.1572 85.2212 85.7593 84.9302 86.3154C84.5811 86.981 84.1436 87.5964 83.6304 88.1455C82.5356 89.2129 81.3584 90.1926 80.1104 91.0754L79.4404 91.5754C79.2803 91.7046 79.1133 91.8247 78.9404 91.9355C78.7104 92.0654 78.5005 92.1755 78.3003 92.2654C77.9277 92.4282 77.5435 92.562 77.1504 92.6655C76.7905 92.8005 76.4536 92.9893 76.1504 93.2256C75.9102 93.3855 75.6802 93.3755 75.5005 93.0154C75.3003 92.4561 75.3003 91.8447 75.5005 91.2854C75.6201 90.9023 75.7739 90.531 75.9604 90.1755C76.0552 89.9761 76.1621 89.7822 76.2803 89.5955L76.3701 89.4456C76.3701 89.4456 76.3701 89.4456 76.3701 89.3755L76.3701 89.2554C76.479 88.9805 76.6128 88.7161 76.7705 88.4656C76.8682 88.3206 76.9521 88.1665 77.0205 88.0054C77.0308 87.9426 77.0308 87.8784 77.0205 87.8154C77.0293 87.7698 77.0176 87.7227 76.9888 87.686C76.96 87.6497 76.9165 87.6274 76.8701 87.6255C76.4878 87.6189 76.1094 87.7083 75.7705 87.8855L75.4102 88.0454L75.2705 88.1255L75.2104 88.1255L75.0605 88.1855L72.9004 88.7654C72.0425 88.9998 71.1709 89.1799 70.2905 89.3054L69.7505 89.3054L69.3105 89.3054C69.0771 89.2935 68.8457 89.2566 68.6201 89.1956C68.4292 89.1506 68.2417 89.0903 68.0605 89.0154L67.7705 88.8855C67.5303 88.7505 67.3052 88.5896 67.1001 88.4055C66.2451 87.6592 65.8301 86.5278 66.0005 85.4055C66.0005 85.2754 66.0005 85.1355 66.0605 85.0154C66.1201 84.8955 66.1504 84.7156 66.1401 84.7554L66.1401 84.6956L66.1401 84.5754L66.2402 84.3254C66.3501 84.0154 66.4907 83.7173 66.6602 83.4355C66.7969 83.165 66.9575 82.9072 67.1401 82.6655C67.7314 81.8274 68.4272 81.0679 69.2104 80.4055C69.9102 79.8054 70.6001 79.2754 71.2905 78.7854L72.2905 78.1455L72.5801 77.9456L72.3203 78.0854L71.9004 78.3154C71.5405 78.5154 71.1802 78.7354 70.8203 78.9456C69.3804 79.8254 67.9502 80.8054 66.4004 81.8354L65.8105 82.2253L65.3203 82.5454L64.7505 82.8955C64.0229 83.3586 63.2402 83.7283 62.4204 83.9954C61.6577 84.2053 60.853 84.2053 60.0903 83.9954C59.9048 83.9517 59.7329 83.8623 59.5903 83.7354L59.1104 83.4055L58.1104 82.7454L51.0103 74.3455L51.3501 74.2253Z" fill-rule="evenodd" fill="currentColor"/>
	<path d="M60.5503 51.4253C61.4189 51.9888 62.2119 52.6609 62.9102 53.4253L63.3403 53.8955L63.3403 53.9854L63.4502 54.1853L63.73 54.6953C63.7803 54.7654 63.8501 54.9753 63.9302 54.8955C63.9785 54.8396 64.0156 54.7751 64.04 54.7053C64.1299 54.4753 64.1001 54.1255 64.2202 53.8855C64.2202 53.8855 64.2202 53.8855 64.2202 53.7754L64.3301 53.3755L64.5903 52.4954L64.75 52.0054L65.0103 51.3855C65.1963 50.9543 65.4238 50.5422 65.6899 50.1555C66.1279 49.4475 66.7549 48.8762 67.5 48.5054C68.2388 48.1545 69.0747 48.0664 69.8701 48.2554C70.6758 48.4358 71.4268 48.8062 72.0601 49.3354C72.3779 49.6064 72.6816 49.8936 72.9702 50.1953C73.21 50.5054 73.3999 50.8354 73.6099 51.1953C74.2153 52.3149 74.583 53.5474 74.6899 54.8154C74.7603 55.3455 74.7603 55.8154 74.8101 56.3555C74.8599 56.8955 74.8101 57.3555 74.8101 57.8555C74.8213 58.8201 74.7812 59.7849 74.6899 60.7454C74.5703 61.9653 74.4199 63.1655 74.23 64.3455C74.1299 64.9353 73.8301 65.4954 73.7202 66.0754C73.6099 66.6555 73.4702 67.2354 73.3701 67.8154C73.27 68.3955 72.9102 68.4453 72.5303 67.8154C72.2871 67.385 72.0923 66.929 71.9502 66.4553C71.8403 66.1655 71.8003 65.8655 71.6899 65.5354C71.5503 65.2095 71.4302 64.8755 71.3301 64.5354C71.1899 63.2854 71.2202 62.0955 71.1401 60.9155L71.0303 59.1853C71.0303 58.6255 71.0303 58.0654 70.9502 57.5254C70.9009 56.5403 70.7397 55.564 70.4702 54.6155C70.4248 54.4153 70.3579 54.2209 70.27 54.0354C70.2002 53.8955 70.1201 53.6455 70.0801 53.5854C69.96 53.3455 69.9399 53.2153 69.8599 53.0554C69.7578 52.844 69.5537 52.7004 69.3203 52.6753C69.0889 52.7163 68.8936 52.8701 68.8003 53.0854C68.7432 53.1941 68.6963 53.3081 68.6602 53.4253C68.5903 53.6155 68.48 53.9353 68.3901 54.2554L68.2402 54.7754L68.02 55.6753L67.6299 57.4854C67.4604 58.5366 67.0537 59.5352 66.4399 60.4055C66.3237 60.5481 66.1968 60.6819 66.0601 60.8054C65.9102 60.9487 65.7285 61.0549 65.5303 61.1155C65.3599 61.1455 65.1846 61.1099 65.04 61.0154C64.8999 60.9353 64.79 60.9055 64.6201 60.7954L64.1299 60.4954L63.5503 60.0454L63.3999 59.9353L63.2402 59.7253L62.9302 59.3054L62.3101 58.4753L61.6899 57.6155L61.0503 56.8755C60.9399 56.7554 60.8403 56.6255 60.7202 56.5154L60.5103 56.2854C60.3701 56.1555 60.25 56.0054 60.1099 55.8855C59.5928 55.3689 58.9951 54.9399 58.3403 54.6155C58.1084 54.5095 57.8491 54.4814 57.6001 54.5354C57.3545 54.6177 57.1387 54.7708 56.98 54.9753C56.7285 55.3218 56.6177 55.7505 56.6699 56.1753C56.7192 56.8242 56.8677 57.4617 57.1099 58.0654C57.6426 59.4158 58.3447 60.6926 59.2002 61.8655C60.6006 63.6775 62.1714 65.3518 63.8901 66.8655C64.2603 67.2153 64.6499 67.5254 65.0103 67.8655C66.3701 69.1753 66.6299 69.7253 66.2803 70.7153C66.2153 70.9426 66.1387 71.1663 66.0503 71.3855C65.7002 72.0654 64.6699 71.9753 63.4702 71.1055C59.7554 68.3572 56.6333 64.8882 54.29 60.9055C53.792 60.0347 53.3896 59.1128 53.0903 58.1555C52.9287 57.5925 52.8149 57.0173 52.75 56.4353C52.7241 56.0525 52.7241 55.6682 52.75 55.2854C52.7827 54.8806 52.8633 54.4812 52.9902 54.0955C53.0444 53.9014 53.1113 53.7109 53.1899 53.5254L53.48 52.9954C53.6719 52.6372 53.9033 52.302 54.1699 51.9954C54.4502 51.7354 54.75 51.4753 55.0601 51.2354C55.3794 51.0276 55.7134 50.8438 56.0601 50.6853C57.5894 50.2329 59.2388 50.4587 60.5903 51.3054L60.5503 51.4253Z" fill-rule="evenodd" fill="currentColor"/>
	<path d="M32.8901 27.3354C33.2002 27.3354 33.1104 27.7654 32.77 28.4355C32.5962 28.7429 32.3652 29.0142 32.0903 29.2356C31.8892 29.3159 31.6816 29.3796 31.4702 29.4255C31.3701 29.4255 30.1802 29.0354 29.7402 28.9456C29.3452 28.8408 28.9702 28.6719 28.6299 28.4456C27.9302 28.0254 27.2002 27.6355 26.48 27.2256C26.3169 27.1355 26.1763 27.0088 26.0703 26.8555C25.6714 26.3469 25.1479 25.9507 24.5503 25.7056C24.4512 25.6272 24.3193 25.6045 24.2002 25.6455C23.4927 25.4856 22.8403 25.1406 22.3101 24.6455C22.0303 24.0554 21.6802 23.5654 21.3599 23.0254C21.3101 22.9556 21.2202 22.9456 21.25 22.7654C21.3301 22.3655 21.1602 22.3054 21.04 22.1655C20.8574 21.9519 20.7368 21.6926 20.6899 21.4155C20.6641 21.2297 20.6641 21.0413 20.6899 20.8555C20.6899 20.6855 20.98 20.4055 21.04 20.3855C21.1001 20.3655 21.2603 20.1355 21.3599 19.9956C21.3911 19.9417 21.4277 19.8911 21.4702 19.8455C21.4702 19.8455 21.9502 19.7854 22.4702 19.6956C22.8018 19.6458 23.1387 19.6458 23.4702 19.6956L23.7803 19.8254L24.4502 20.0854L25.6001 20.4956C25.71 20.4956 25.75 20.6755 25.8203 20.7954C25.8901 20.9155 27.3003 21.5154 27.3501 21.5654C27.5903 21.7954 27.9399 21.8755 28.02 22.3455C28.02 22.4355 28.1001 22.4556 28.1602 22.4956C28.6006 22.8228 29.0034 23.1985 29.3604 23.6155C29.5703 23.8154 29.8403 23.9556 30.0703 24.1355C30.0703 24.1355 30.1299 24.2356 30.1602 24.2854C30.1899 24.3354 30.23 24.4255 30.29 24.4556C30.8218 24.915 31.3828 25.3394 31.9702 25.7256C32.1201 25.8054 32.5303 26.5754 32.7002 26.6555C32.8701 26.7356 32.77 27.3455 32.8901 27.3354Z" fill-rule="evenodd" fill="currentColor"/>
	<path d="M40.1401 20.0454C40.3701 20.2456 39.9902 20.4756 39.27 20.6755C38.9414 20.7451 38.605 20.7686 38.27 20.7456C38.0601 20.6455 37.8599 20.5554 37.71 20.4656C37.5601 20.3755 37.1001 19.4656 36.8599 19.1155C36.6533 18.812 36.5044 18.4729 36.4199 18.1155C36.2202 17.4255 35.9702 16.7456 35.73 16.0354C35.6948 15.8706 35.6948 15.7002 35.73 15.5354C35.7959 14.9507 35.688 14.3596 35.4199 13.8354C35.4199 13.7456 35.4199 13.6455 35.21 13.5854C34.8096 13.0383 34.583 12.3833 34.5601 11.7056C34.7603 11.1155 34.8599 10.5454 35.0103 9.97559C35.0103 9.89551 35.0103 9.82544 35.1099 9.72559C35.3228 9.63843 35.4414 9.40967 35.3901 9.18555C35.4116 8.92358 35.5015 8.67212 35.6499 8.45557C35.7651 8.31763 35.896 8.19336 36.04 8.08545C36.2222 8.00488 36.4238 7.98047 36.6201 8.01562C36.77 8.10547 36.96 8.01562 37.1299 8.01562L37.3101 8.01562C37.3101 8.01562 37.6899 8.2854 38.0898 8.5354C38.3379 8.69849 38.5605 8.89722 38.75 9.12549C38.75 9.12549 38.8003 9.2356 38.8701 9.39551L39.1602 9.96558C39.3701 10.3855 39.6401 10.8054 39.6802 10.9055C39.7202 11.0056 39.6802 11.1155 39.6802 11.2256C39.6802 11.3354 40.2402 12.5955 40.25 12.6555C40.25 12.9556 40.46 13.2156 40.2002 13.5854C40.1699 13.6416 40.1699 13.7092 40.2002 13.7656C40.3228 14.283 40.3799 14.8137 40.3701 15.3455C40.4048 15.6116 40.4546 15.8752 40.52 16.1355C40.5298 16.1885 40.5298 16.2427 40.52 16.2954C40.501 16.3608 40.501 16.4302 40.52 16.4956C40.5933 17.1472 40.7002 17.7947 40.8398 18.4355C40.8901 18.5854 40.6299 19.3655 40.7002 19.5354C40.77 19.7056 40.0601 19.9756 40.1401 20.0454Z" fill-rule="evenodd" fill="currentColor"/>
	<path d="M31 37.4756C31.3003 37.3157 31.4805 37.7456 31.5503 38.4756C31.5474 38.8176 31.4829 39.1562 31.3604 39.4756C31.2002 39.6555 31.0503 39.8354 30.9102 39.9656C30.3232 40.1494 29.7456 40.363 29.1802 40.6055C28.7988 40.7783 28.3945 40.896 27.9805 40.9556C27.1602 41.1255 26.3403 41.3555 25.4902 41.5854C25.2954 41.6255 25.0947 41.6255 24.9004 41.5854C24.2305 41.4629 23.54 41.5217 22.9004 41.7556C22.7803 41.7556 22.6602 41.7556 22.5801 41.9556C21.8774 42.3301 21.0967 42.5356 20.3003 42.5557C19.6201 42.3455 18.9502 42.2456 18.3003 42.0955C18.2104 42.0955 18.1201 42.0955 18.0103 41.9756C17.77 41.6055 17.5801 41.6956 17.3804 41.6755C17.082 41.6218 16.793 41.5276 16.52 41.3955C16.3579 41.2842 16.2129 41.1494 16.0903 40.9956C15.9604 40.8655 16 40.4055 16.0303 40.3455C16.0601 40.2856 16.0303 39.9656 16.0303 39.7756C16.0303 39.5854 16.0303 39.6255 16.0303 39.5657C16.2441 39.3042 16.4712 39.0537 16.7104 38.8157C16.9185 38.532 17.1758 38.2881 17.4702 38.0955L17.8101 37.9756L18.5303 37.6956L19.6904 37.2056C19.8003 37.1455 19.9502 37.2056 20.0801 37.2056C20.2104 37.2056 21.8003 36.5754 21.8804 36.5754C22.25 36.5754 22.5903 36.3455 23.02 36.6255C23.1001 36.6855 23.1704 36.6255 23.25 36.6255C23.9062 36.4802 24.5815 36.4397 25.25 36.5056C25.5903 36.5056 25.9204 36.4556 26.25 36.4456C26.3101 36.4456 26.3804 36.4456 26.4404 36.5056C26.5186 36.5327 26.5986 36.5527 26.6802 36.5657C27.5 36.4956 28.3203 36.6555 29.1504 36.5657C29.3501 36.5657 30.2603 36.9656 30.4805 36.9556C30.7002 36.9456 30.8901 37.5356 31 37.4756Z" fill-rule="evenodd" fill="currentColor"/>
	<defs/>
</svg>
