<svg width="24" height="24" viewBox="0 0 110 110" fill="none" xmlns="http://www.w3.org/2000/svg" xmlns:xlink="http://www.w3.org/1999/xlink">
	<path d="M77.6616 28.8745C76.7417 28.9946 74.6616 28.7344 75.5312 23.0244C75.7715 21.4844 76.6914 18.0947 75.7114 16.6348C73.7114 13.6943 69.0415 21.8545 68.2812 23.1045C66.3716 26.2144 64.0015 29.5244 59.9214 29.2646C58.2329 29.0234 56.7363 28.0503 55.8315 26.6045C55.0615 25.3745 54.9014 23.8945 53.1714 23.6045C48.4116 22.8047 49.0815 31.6045 52.2915 32.9844C56.4316 34.8247 59.9414 35.5845 60.4517 40.8848C60.9014 45.6245 58.7515 50.5347 60.4517 55.1646C62.3115 60.1646 66.4517 58.4146 69.0615 55.0146C75.0615 47.1743 72.7114 44.8345 81.0015 48.1147C89.2915 51.3945 93.9214 48.9546 87.9316 43.2246C81.9414 37.4946 79.4814 38.2847 82.1914 33.5747C84.9014 28.8647 83.2412 28.2144 77.6616 28.8745Z" fill-rule="evenodd" fill="currentColor"/>
	<path d="M22.6313 65.1445C22.7412 63.7847 21.5215 62.7246 20.5615 61.7349C18.1914 59.2749 16.9614 55.5249 18.1113 52.3047C19.2612 49.0845 23.1113 46.8848 26.3115 48.1245C29.1611 49.2349 30.8911 52.5845 33.9111 53.1245C35.9614 53.4546 37.9712 52.3345 39.4814 50.9048C40.9912 49.4746 42.1514 47.7349 43.7114 46.3745C45.2715 45.0146 47.3911 44.0249 49.3813 44.5747C51.6411 45.2046 53.0112 47.6846 53.0015 50.0347C52.8364 52.3901 52 54.6494 50.5913 56.5449C49.1865 58.4106 47.9297 60.3833 46.8315 62.4448C45.7305 64.5547 45.6167 67.043 46.5215 69.2446C47.6313 71.4946 50.1016 72.7949 51.3115 74.9946C52.5444 77.4907 52.1499 80.4839 50.3115 82.5747C48.4517 84.6138 45.7368 85.6523 42.9912 85.3745C40.2769 85.0605 37.751 83.8291 35.8315 81.8848C34.8315 80.9648 34.0513 79.8848 33.0312 79.0747C32.0444 78.1636 30.7329 77.688 29.3911 77.7549C27.7515 77.9448 26.5015 79.2349 25.2212 80.2749C23.5376 81.7051 21.4932 82.646 19.3115 82.9946C17.1113 83.3271 14.873 82.7212 13.1411 81.3247C7.68115 76.6445 13.8213 70.0947 18.6611 68.2646C19.5093 68.0039 20.332 67.6694 21.1211 67.2646C21.9336 66.8389 22.4941 66.0513 22.6313 65.1445Z" fill-rule="evenodd" fill="currentColor"/>
	<defs/>
</svg>
