<svg width="24" height="24" viewBox="0 0 110 110" fill="none" xmlns="http://www.w3.org/2000/svg" xmlns:xlink="http://www.w3.org/1999/xlink">
	<path d="M54.4355 43.5857C49.4355 43.0156 50.0552 36.8755 53.5151 37.0957C53.5151 37.0957 49.8853 33.7156 47.9355 36.7156C46.3442 39.0686 46.7749 42.2415 48.9355 44.0857C51.1455 46.2156 54.4355 43.5857 54.4355 43.5857Z" fill-rule="evenodd" fill="currentColor"/>
	<path d="M39.5649 54.4258C44.125 53.4258 42.2651 48.0156 39.4849 48.6458C39.4849 48.6458 38.2549 48.0957 39.9849 47.7556C41.7148 47.4158 44.0352 46.8257 44.645 49.4058C45.2549 51.9856 45.0752 54.1057 43.645 54.8257C42.2148 55.5457 39.5649 54.4258 39.5649 54.4258Z" fill-rule="evenodd" fill="currentColor"/>
	<path d="M36.8853 60.4258C36.8853 60.4258 33.3052 57.7659 32.1953 62.5459C32.1953 62.5459 29.7349 60.1157 31.5449 58.2158C32.7266 56.793 34.8232 56.563 36.2852 57.6958C36.9849 58.4058 36.8853 60.4258 36.8853 60.4258Z" fill-rule="evenodd" fill="currentColor"/>
	<path d="M27.2852 67.4358C28.7651 67.4358 30.7251 69.1958 27.8452 71.3657C26.2554 72.5657 31.7852 72.9758 31.9453 70.0657C32.105 67.1558 30.6353 66.9158 29.7754 66.4958C28.915 66.0757 26.6152 67.4358 27.2852 67.4358Z" fill-rule="evenodd" fill="currentColor"/>
	<path d="M27.085 77.4158C26.3052 77.1658 23.2852 77.7859 24.875 80.0259C26.1353 81.8057 21.2651 78.6558 23.0449 76.8857C26.1152 73.8357 28.0151 77.7058 27.085 77.4158Z" fill-rule="evenodd" fill="currentColor"/>
	<path d="M21.895 86.0657C21.895 86.0657 23.355 85.3958 24.0649 86.2659C24.4351 86.6458 24.1548 84.9058 23.4351 84.6458C22.7148 84.3857 21.895 86.0657 21.895 86.0657Z" fill-rule="evenodd" fill="currentColor"/>
	<path d="M68.6553 52.7056C69.0454 51.4856 70.0151 30.5457 63.7051 27.4756C58.5054 24.9556 49.7051 25.0356 52.2754 23.6755C55.0352 22.2356 75.3755 18.5457 78.1055 26.4155C78.1055 26.4155 78.7451 19.2156 71.8853 17.8755C65.0254 16.5356 50.2153 20.2456 46.4351 21.5854C42.6553 22.9255 38.8652 24.0955 41.4351 25.5056C44.0054 26.9155 56.8452 26.9956 61.2451 29.5056C67.2451 33.0056 68.6553 52.7056 68.6553 52.7056Z" fill-rule="evenodd" fill="currentColor"/>
	<path d="M44.645 46.4558C45.501 46.9741 46.1938 47.7227 46.645 48.6157C47.0444 49.4348 47.2495 50.3347 47.2451 51.2458C47.2778 51.8784 47.2139 52.5125 47.0552 53.1257C46.8696 53.6692 46.603 54.1816 46.2651 54.6458C45.9116 55.0635 45.5049 55.4333 45.0552 55.7458C44.2134 56.2942 43.2539 56.637 42.2554 56.7458C41.3779 56.853 40.4883 56.7146 39.6851 56.3457C38.6968 55.9429 37.9556 55.0981 37.6851 54.0657C37.6152 53.7559 37.9653 53.6558 38.415 53.6458C38.8809 53.614 39.3486 53.6477 39.8052 53.7458C40.2578 53.9451 40.7695 53.9629 41.2354 53.7957C41.415 53.7258 41.605 53.7258 41.8252 53.6658C42.0835 53.5977 42.3369 53.5142 42.585 53.4158C42.8662 53.2983 43.0869 53.0706 43.1953 52.7856C43.3359 52.5059 43.4531 52.2151 43.5454 51.9158C43.7637 51.2415 43.6606 50.5042 43.2651 49.9158C42.9683 49.5469 42.5503 49.2952 42.085 49.2058C41.2559 49.0303 40.3921 49.2397 39.7354 49.7756C39.23 50.2466 38.8809 50.8606 38.7354 51.5356C38.6851 51.6658 38.7354 51.8157 38.6553 51.9458C38.4951 52.4258 38.2451 52.4958 37.3652 52.4558C37.165 52.4558 36.9653 52.4558 36.7651 52.4558C36.4507 52.4585 36.1479 52.3352 35.9243 52.1138C35.7007 51.8921 35.5752 51.5903 35.5752 51.2756C35.6924 49.0188 37.0972 47.0305 39.1851 46.1658C40.0459 45.7815 40.9829 45.5967 41.9253 45.6257C42.9067 45.6602 43.8647 45.9348 44.7153 46.4258L44.645 46.4558Z" fill-rule="evenodd" fill="currentColor"/>
	<path d="M32.6553 55.5659C33.3877 55.384 34.1479 55.3433 34.8955 55.4458L35.4253 55.5259L35.9756 55.6758L36.5254 55.8557L37.0454 56.1257C37.5674 56.3735 38.0415 56.7122 38.4453 57.1257C39.0854 57.8528 39.4565 58.7778 39.4951 59.7458C39.5781 60.6499 39.4014 61.5588 38.9854 62.3657C38.8555 62.7559 38.4653 63.0059 38.2056 63.3657C38.0552 63.5059 37.8955 63.6558 37.7354 63.7859C37.5586 63.8926 37.3711 63.9797 37.1753 64.0459C36.2959 64.3674 35.313 64.2124 34.5752 63.6357C34.3652 63.4758 34.5752 63.1658 34.8452 62.8359C35.1426 62.5095 35.478 62.2207 35.8452 61.9758C36.0176 61.9282 36.1597 61.8076 36.2354 61.6458C36.2354 61.5759 36.2354 61.5359 36.2354 61.5159L36.1655 61.4258C36.0854 61.3657 36.2651 61.1858 36.3452 60.8059C36.3901 60.5791 36.3228 60.3447 36.1655 60.1758C36.0854 60.0959 36.0552 59.9758 35.9756 59.9158C35.9199 59.8271 35.8525 59.7463 35.7754 59.6758C35.7104 59.5759 35.6255 59.4907 35.5254 59.4258C35.4209 59.3455 35.3066 59.2783 35.1855 59.2258C34.8877 59.0989 34.5688 59.0276 34.2451 59.0159C33.8594 58.9939 33.4746 59.0806 33.1353 59.2659C32.6226 59.5217 32.3174 60.0647 32.3652 60.6357C32.501 61.064 32.8252 61.4065 33.2451 61.5659C33.3452 61.5659 33.4653 61.6257 33.5454 61.6758C33.8555 61.8757 33.8555 62.1357 33.5454 62.9658L33.3354 63.5259C33.167 64.1143 32.5918 64.4893 31.9854 64.4058C30.9961 64.1626 30.1455 63.532 29.6255 62.6558C28.9868 61.5955 28.8096 60.3201 29.1353 59.1257C29.6328 57.3943 30.9912 56.0437 32.7256 55.5559L32.6553 55.5659Z" fill-rule="evenodd" fill="currentColor"/>
	<path d="M32.3154 66.3057C33.2075 67.406 33.5195 68.8667 33.1553 70.2356C33.0835 70.6819 32.9419 71.1138 32.7354 71.5156C32.5303 71.8562 32.2778 72.166 31.9854 72.4355C31.6748 72.6716 31.3394 72.8728 30.9854 73.0356C30.3291 73.333 29.6157 73.4832 28.8955 73.4756C28.6055 73.4756 28.3154 73.4756 28.0352 73.3955L27.2354 73.2056C26.9175 73.103 26.6069 72.9795 26.3052 72.8357C26.0322 72.6548 25.7866 72.436 25.5752 72.1855C25.4551 72.0156 25.6553 71.7556 25.9653 71.4956C26.2456 71.2249 26.5894 71.0291 26.9653 70.9255C27.2251 70.9255 27.4551 70.8557 27.6655 70.8457C27.8755 70.8357 28.0454 70.7356 28.1953 70.6655C28.4604 70.6023 28.7334 70.5786 29.0054 70.5957C29.0854 70.5762 29.1631 70.5459 29.2354 70.5056C29.2939 70.4399 29.3477 70.3696 29.3955 70.2957C29.4385 70.2209 29.4888 70.1506 29.5454 70.0857C29.585 70.0078 29.6318 69.9343 29.6851 69.8657C29.9146 69.5559 30.0054 69.1648 29.9351 68.7856C29.8809 68.5271 29.7261 68.3005 29.5054 68.1555C29.127 67.8716 28.6221 67.8215 28.1953 68.0256C27.8169 68.2703 27.5151 68.6169 27.3252 69.0256C27.2881 69.1152 27.2446 69.2021 27.1953 69.2856C26.9951 69.5557 26.7651 69.4856 26.0552 69.0857L25.5752 68.8257C25.0781 68.6111 24.7842 68.0923 24.8555 67.5557C25.3613 66.0181 26.7168 64.9165 28.3252 64.7356C29.0723 64.6296 29.8335 64.7192 30.5352 64.9956C31.2271 65.2666 31.8442 65.6985 32.3354 66.2556L32.3154 66.3057Z" fill-rule="evenodd" fill="currentColor"/>
	<path d="M21.5054 76.8857C21.8564 75.9304 22.542 75.1345 23.4351 74.6458C23.7412 74.437 24.0791 74.2783 24.4351 74.1758C25.7334 73.8564 27.082 74.4629 27.7051 75.6458C28.0093 76.1111 28.248 76.6157 28.415 77.1458C28.415 77.5459 28.5054 78.0259 28.4751 78.4058C28.3789 78.7241 28.2515 79.0322 28.0952 79.3259C27.9951 79.5159 27.7051 79.4258 27.3652 79.3259C27.0254 79.2258 26.645 79.0459 26.5649 78.8857C26.4854 78.7258 26.5649 78.7959 26.5649 78.7959C26.5684 78.7759 26.5684 78.7556 26.5649 78.7358C26.6221 78.5364 26.6221 78.3252 26.5649 78.1257C26.4351 77.6858 26.2051 77.8359 26.0054 77.8259C25.7031 77.7988 25.4033 77.8962 25.1753 78.0959C25.0151 78.2227 24.9082 78.4043 24.875 78.6057C24.8105 78.9458 24.9722 79.2888 25.2754 79.4558C25.5649 79.5657 25.8853 79.5657 26.1753 79.4558C26.2266 79.4395 26.2769 79.4192 26.3252 79.3958C26.4453 79.3958 26.5054 79.5759 26.5254 80.3259L26.5254 80.8359C26.5254 81.3857 26.355 81.9058 25.835 82.0159C25.0103 82.1204 24.1729 81.9705 23.4351 81.5859C22.7158 81.2434 22.1187 80.6885 21.7251 79.9958C21.2026 79.033 21.0977 77.8979 21.4351 76.8557L21.5054 76.8857Z" fill-rule="evenodd" fill="currentColor"/>
	<path d="M21.9351 83.0957C22.4785 82.856 23.0806 82.783 23.665 82.8855C24.1953 82.9829 24.689 83.2214 25.0952 83.5757C25.3857 83.791 25.6333 84.0588 25.8252 84.3655C26.1465 84.9524 26.1943 85.6506 25.9551 86.2756C25.769 86.7966 25.418 87.2424 24.9551 87.5457C24.7974 87.6597 24.626 87.7537 24.4453 87.8257C24.2954 87.9043 24.1377 87.9678 23.9751 88.0156C23.603 88.2002 23.1748 88.2395 22.7754 88.1255C22.645 88.1255 22.605 87.7957 22.605 87.4456C22.5898 87.1252 22.6411 86.8052 22.7554 86.5056C22.9175 86.3018 23.0366 86.0669 23.105 85.8157C23.1553 85.7356 23.105 85.7456 23.1851 85.7456C23.2686 85.8247 23.3672 85.886 23.4751 85.9255C23.4253 85.9255 23.2954 86.0256 23.3452 85.9856C23.397 85.9055 23.4219 85.8108 23.415 85.7156C23.415 85.6555 23.2754 85.6255 23.1553 85.7156C22.9258 85.8499 22.7793 86.0903 22.7651 86.3555C22.7651 86.5757 23.0454 86.6956 23.0752 86.6555L22.9653 86.7356L22.895 86.8755L22.7451 87.2957L22.605 87.7556C22.4751 88.2756 22.1353 88.6956 21.605 88.5657C20.8857 88.3293 20.333 87.7468 20.1353 87.0156C19.9551 86.4224 19.9551 85.7888 20.1353 85.1956C20.415 84.2378 21.082 83.4404 21.9751 82.9956L21.9351 83.0957Z" fill-rule="evenodd" fill="currentColor"/>
	<path d="M82.3052 27.2957C82.0117 30.6331 81.3853 33.9329 80.4351 37.1458C79.4883 40.373 78.2007 43.4905 76.5952 46.4458C75.9839 47.543 75.3164 48.6077 74.5952 49.6357L73.9854 50.5356C73.7183 50.9316 73.4175 51.303 73.085 51.6458L71.085 53.6458L70.6553 54.0857C70.5049 54.2258 70.3652 54.4158 70.2354 54.4358L69.415 54.7957L67.7949 55.5156C67.665 55.5657 67.5249 55.6658 67.395 55.6458C67.2368 55.6282 67.082 55.5876 66.9351 55.5256C66.6953 55.4038 66.4761 55.2451 66.2852 55.0557C65.8691 54.6616 65.5303 54.1936 65.2852 53.6758C64.7192 52.1748 64.3818 50.5969 64.2852 48.9956L64.145 47.7358L64.0649 46.8958L63.915 45.3857C63.7251 43.3857 63.4951 41.3857 63.1851 39.4758C62.9268 37.5999 62.4609 35.7585 61.7949 33.9858C61.5679 33.376 61.2056 32.8254 60.7354 32.3757C60.1064 32.0347 59.4331 31.7822 58.7354 31.6257C57.085 31.1858 55.3252 30.8557 53.5952 30.5256C51.355 30.1057 49.085 29.7258 46.8252 29.2258C44.4683 28.7778 42.1812 28.0178 40.0249 26.9658C39.2852 26.5156 39.1152 26.0757 39.3452 25.8157C39.7686 25.4854 40.2725 25.2747 40.8052 25.2058C42.8013 24.6917 44.8838 24.6064 46.915 24.9558L53.7451 26.1458C54.9053 26.3757 56.0552 26.5957 57.2354 26.8557C58.415 27.1157 59.5952 27.3958 60.895 27.8557C61.2549 27.9858 61.5449 28.0657 61.9551 28.2458C62.4287 28.4482 62.8784 28.7031 63.2949 29.0056C64.0288 29.5947 64.6406 30.3218 65.0952 31.1458C65.7646 32.3762 66.2754 33.6865 66.6152 35.0457C67.1973 37.4421 67.5981 39.8792 67.8149 42.3357C67.9551 43.7556 68.1152 45.1858 68.2852 46.6057C68.3213 46.8005 68.3447 46.9978 68.355 47.1958L68.355 47.5356C68.355 47.7656 68.415 47.9958 68.4653 48.2258C68.4912 48.4587 68.5659 48.6838 68.6851 48.8857C68.7749 49.0156 68.8853 48.8857 68.9653 48.7856L69.2153 48.5557C69.3926 48.4067 69.5532 48.239 69.6953 48.0557C69.8633 47.8792 70.0205 47.6921 70.165 47.4956L70.7153 46.6858C70.9321 46.394 71.1328 46.0903 71.3149 45.7756L72.395 43.8457C73.0894 42.4797 73.71 41.0776 74.2549 39.6458C75.2725 36.79 76.0288 33.8479 76.5151 30.8557C76.8062 29.2019 76.9995 27.5322 77.0952 25.8557C77.0952 25.0356 77.165 24.1758 77.0952 23.3958C77.0879 23.0142 77.0576 22.6335 77.0049 22.2556C76.9922 22.0215 76.938 21.7913 76.8452 21.5757C76.7583 21.4019 76.6396 21.2458 76.4951 21.1157C76.1221 20.7891 75.6914 20.5349 75.2251 20.3657C74.647 20.1318 74.0474 19.9543 73.4351 19.8357C72.0796 19.5801 70.7046 19.4429 69.3252 19.4258C66.4653 19.3904 63.6079 19.6045 60.7852 20.0657C56.4365 20.8643 52.1597 22.0112 47.9951 23.4958C47.085 23.8057 46.2153 24.1758 45.3252 24.4958C44.4351 24.8157 43.8252 25.0457 43.2651 25.2258C42.8037 25.3545 42.332 25.4414 41.855 25.4858C41.54 25.5217 41.2212 25.498 40.915 25.4158C40.7896 25.3806 40.6685 25.3301 40.5552 25.2656C40.4873 25.2434 40.4258 25.2058 40.375 25.1558L40.2451 25.0857L40.0952 25.0256C40.0396 24.9954 39.978 24.9783 39.915 24.9758C39.8643 24.9771 39.8154 24.9946 39.7749 25.0256C39.6782 25.1421 39.6191 25.2852 39.605 25.4358C39.5449 25.6858 39.4453 25.8958 39.0552 25.8257C38.9258 25.8047 38.8086 25.7371 38.7251 25.6357C38.562 25.49 38.4468 25.2983 38.395 25.0857C38.3403 24.8286 38.3403 24.5627 38.395 24.3057C38.439 24.1033 38.5024 23.9058 38.585 23.7158C38.8706 23.1096 39.2598 22.5579 39.7354 22.0857C40.2334 21.5815 40.7866 21.1355 41.3853 20.7556C49.0151 16.6458 57.4351 14.6458 66.5552 14.0557C68.8926 13.926 71.2368 14.0229 73.5552 14.3457C74.8857 14.5457 76.188 14.9016 77.4351 15.4058C77.7974 15.5608 78.1509 15.7344 78.4951 15.9258C78.8945 16.1333 79.2759 16.374 79.6353 16.6458C80.4546 17.2727 81.1357 18.0627 81.6353 18.9658L82.1753 20.4458C82.2412 20.6851 82.2876 20.9292 82.3149 21.1758L82.4053 21.7656C82.4951 22.4958 82.4951 23.0657 82.5352 23.7656L82.5352 25.5657L82.4351 27.2957L82.3052 27.2957Z" fill-rule="evenodd" fill="currentColor"/>
	<path d="M46.6753 43.9458C46.1196 43.0818 45.73 42.1221 45.5254 41.1157C45.3979 40.5889 45.3408 40.0476 45.355 39.5056C45.3779 38.9246 45.4653 38.3477 45.6152 37.7856L46.0649 36.5757C46.2622 36.1987 46.4932 35.8408 46.7554 35.5056C47.6963 34.4897 48.9297 33.791 50.2852 33.5056C51.4927 33.2253 52.748 33.2253 53.9551 33.5056L54.7354 33.6958C54.9951 33.7756 55.2354 33.8857 55.4951 33.9658C56 34.1477 56.4883 34.3718 56.9551 34.6357C58.1558 35.3132 58.9858 36.4966 59.2153 37.8557C59.2754 38.2856 58.5352 38.5056 57.6753 38.6357C56.9551 38.7861 56.2158 38.8198 55.4854 38.7358C55.3149 38.6658 55.2051 38.5356 55.0254 38.5156C54.8774 38.4812 54.7354 38.4238 54.605 38.3457C54.355 38.2258 54.145 38.0457 53.8652 37.9358C53.2695 37.6399 52.6323 37.4375 51.9751 37.3357C51.5444 37.2852 51.1099 37.3955 50.7554 37.6458L50.5054 37.8257C50.4497 37.8997 50.3862 37.9666 50.3149 38.0256C50.145 38.1257 50.085 38.2856 49.9453 38.4058C49.8247 38.5527 49.7178 38.71 49.625 38.8757C49.625 39.0757 49.4453 39.2458 49.4653 39.4858C49.4624 39.604 49.4458 39.7214 49.415 39.8357C49.4009 39.9788 49.4009 40.1228 49.415 40.2656C49.4175 40.5664 49.4575 40.8652 49.5352 41.1558L49.665 41.6758L49.875 42.1157C49.938 42.26 50.0259 42.3921 50.1353 42.5056C50.2217 42.634 50.3345 42.7429 50.4653 42.8257L50.7451 43.0356L51.0952 43.1357C51.3418 43.2087 51.5977 43.2458 51.855 43.2458C52.416 43.2222 52.9639 43.0681 53.4551 42.7957C54.2119 42.3308 54.7925 41.6272 55.105 40.7957L55.2651 40.3057C55.3853 39.7358 55.895 39.8057 56.8149 39.8257L57.4351 39.8257C57.7637 39.8369 58.0718 39.9858 58.2852 40.2358C58.5791 40.552 58.731 40.9746 58.7051 41.4058C58.4473 42.7373 57.7417 43.9407 56.7051 44.8157C55.6543 45.7637 54.3584 46.3979 52.9653 46.6458C51.7734 46.8467 50.5493 46.7046 49.4351 46.2358C48.2793 45.792 47.2832 45.0117 46.5752 43.9958L46.6753 43.9458Z" fill-rule="evenodd" fill="currentColor"/>
	<defs/>
</svg>
