<svg width="24" height="24" viewBox="0 0 110 110" fill="none" xmlns="http://www.w3.org/2000/svg" xmlns:xlink="http://www.w3.org/1999/xlink">
	<path d="M52.3506 58.7598C52.7407 57.5398 53.1304 56.3198 53.4604 55.1099L53.9707 53.3098L54.1606 52.4199L54.2104 52.2798C54.2793 52.0967 54.3232 51.9048 54.3403 51.71C54.3589 51.6079 54.292 51.51 54.1904 51.4897C54.0962 51.46 53.9951 51.46 53.9004 51.4897C53.6958 51.5596 53.5083 51.6719 53.3506 51.8198L53.2407 51.9399L52.9507 52.2498C52.7705 52.46 52.5708 52.6699 52.3906 52.8999C52.0205 53.3398 51.6606 53.8098 51.3105 54.2898C49.8594 56.2886 48.5239 58.3687 47.3105 60.5198C45.5005 63.7 43.9507 67.0698 42.3105 70.3899L41.1606 72.73C40.8208 73.5398 40.5205 74.3699 40.1606 75.1499L38.9507 77.5198L37.0605 81.2798C35.7104 83.9299 34.1704 86.2798 32.8604 87.22C32.2866 87.689 31.6377 88.0574 30.9404 88.3098C30.5415 88.4597 30.1094 88.4978 29.6904 88.4199C29.2148 88.2715 28.7803 88.0146 28.4204 87.6699C27.8701 87.0986 27.4473 86.417 27.1807 85.6699C26.8965 84.8936 26.7148 84.0833 26.6406 83.2598C26.5454 82.2622 26.5454 81.2576 26.6406 80.2598C26.7407 79.1499 26.9707 77.95 27.2007 76.7598C27.3306 76.1699 27.4707 75.5698 27.6206 74.98L28.0308 73.4399L28.6807 71.1799L29.3306 68.9399L29.8306 67.2397C30.0405 66.5598 30.2505 65.8499 30.4004 65.1299C30.4814 64.7751 30.5283 64.4136 30.5405 64.0498C30.5601 63.8667 30.5142 63.6824 30.4106 63.5298C30.2808 63.3999 30.0605 63.4399 29.8906 63.4299C29.1919 63.575 28.5742 63.9785 28.1606 64.5598C27.7368 65.0842 27.3525 65.6389 27.0107 66.22L25.7705 68.22L24.3506 70.6199C23.3506 72.2397 22.4204 73.8699 21.3506 75.47C20.2061 77.0825 18.8809 78.5588 17.4004 79.8699C17.0107 80.2 16.6104 80.5198 16.1904 80.8098C15.7559 81.0981 15.3052 81.3618 14.8403 81.5999C13.9033 82.0984 12.8892 82.4363 11.8403 82.5999C11.3687 82.6956 10.8823 82.6956 10.4106 82.5999C10.1104 82.5398 9.99072 82.45 10.0005 82.3499C10.0107 82.2498 10.1704 82.1099 10.4307 81.95L10.8906 81.6899L11.4404 81.3098C12.4712 80.5286 13.3237 79.5366 13.9404 78.3999C14.7607 77.1099 15.5806 75.5098 16.5708 73.7698C18.3403 71.0298 20.0205 68.0298 21.8306 64.9199L22.5308 63.7397C23.0005 62.9998 23.4707 62.2498 23.9707 61.5498C24.8491 60.1951 25.9014 58.9612 27.1006 57.8799C27.9746 57.0811 29.022 56.4956 30.1606 56.1699C30.6514 56.0398 31.1538 55.9595 31.6606 55.9299C32.1934 55.9434 32.7246 55.9934 33.2505 56.0798C33.5664 56.177 33.8765 56.2905 34.1807 56.4199C34.4673 56.5674 34.7329 56.7522 34.9707 56.97C35.3247 57.3091 35.6162 57.7087 35.8306 58.1499C36.3535 59.3694 36.4932 60.7192 36.2305 62.0198C35.9224 63.915 35.481 65.7864 34.9106 67.6199L34.5107 69.0098L34.2808 69.7798L33.8208 71.2498C33.5205 72.2166 33.2407 73.1865 32.9805 74.1599L32.7905 74.8899C32.7905 75.0498 32.7407 75.0498 32.7305 75.0598L32.7305 75.1199L32.6104 75.3699C32.3936 75.875 32.2422 76.406 32.1606 76.95C32.0811 77.2783 32.0811 77.6213 32.1606 77.95C32.2207 78.1099 32.3105 78.3098 32.4604 78.3198C32.5869 78.3022 32.7031 78.2424 32.7905 78.1499C32.9893 77.9436 33.1636 77.7153 33.3105 77.47C33.6406 76.9399 33.9307 76.3699 34.2607 75.71L35.6006 73.0098C36.0405 72.0098 36.6006 71.1499 37.0903 70.1899C38.0107 68.2698 38.9404 66.3599 39.9106 64.46C42.2231 59.6941 44.9331 55.1313 48.0107 50.8198C48.9653 49.5249 50.0625 48.3408 51.2808 47.2898C52.6206 46.0623 54.3545 45.353 56.1704 45.2898C57.0054 45.2808 57.8232 45.521 58.5205 45.98C59.085 46.5283 59.439 47.2573 59.5205 48.0398C59.6484 49.9226 59.4351 51.813 58.8906 53.6199C58.0708 56.7898 57.1406 59.8198 56.3008 62.8699C55.4209 65.8313 54.7065 68.8391 54.1606 71.8799C53.9668 72.9487 53.8765 74.0337 53.8906 75.1199C53.895 75.5181 53.9624 75.9128 54.0903 76.2898C54.1064 76.3318 54.1265 76.3721 54.1504 76.4099L53.3105 77.1099C53.2812 77.134 53.2549 77.1606 53.2305 77.1899L53.1606 77.2998C53.1606 77.2998 53.1606 77.2998 53.1606 77.1799C53.0908 76.95 52.9805 76.9099 52.7607 76.6099C52.0908 75.9998 52.3706 76.2498 52.3604 76.1299C52.6147 75.7095 52.8384 75.2717 53.0308 74.8198C53.2607 74.2998 53.4805 73.7698 53.7007 73.22C54.1304 72.1199 54.5405 70.9998 54.9507 69.8699C55.3604 68.7397 55.6606 67.72 56.0605 66.6199L57.2607 63.21C58.0708 60.9299 58.8906 58.6599 59.7505 56.4099C62.4507 49.4099 65.1704 42.4897 69.3804 36.0198C70.312 34.6025 71.3589 33.2646 72.5107 32.0198C73.0508 31.4299 73.5806 30.9099 74.0908 30.45C74.564 30.0415 75.0581 29.6577 75.5708 29.2998C76.3374 28.7424 77.1621 28.2695 78.0308 27.8899C79.0581 27.4277 80.1968 27.2715 81.3105 27.4399C81.6831 27.4802 82.0513 27.5537 82.4106 27.6599C82.8408 27.8699 82.5605 28.3799 81.8706 29.2598C81.1807 30.1399 80.1606 31.4399 78.8706 33.0098C77.9507 34.2397 76.9907 35.4099 76.1206 36.6899C75.6807 37.3298 75.2607 37.9897 74.8604 38.6899L73.5708 40.6899C71.855 43.4229 70.2896 46.2468 68.8804 49.1499C65.9678 55.2422 63.3711 61.4805 61.1006 67.8398C60.5908 69.0198 60.4004 70.3098 59.9404 71.5298C59.4805 72.7498 59.1104 73.9998 58.6406 75.2698C58.4106 75.8999 58.1606 76.5498 57.8706 77.2698C57.7305 77.6099 57.5806 77.96 57.3804 78.3499C57.127 78.8042 56.8252 79.23 56.4805 79.6199L56.2905 79.8599L55.9604 80.21L55.7705 80.3699C55.6948 80.4417 55.6147 80.5085 55.5308 80.5698C55.2871 80.7444 55.0298 80.8982 54.7607 81.0298L54.5405 81.1299L54.1807 81.2498C53.9253 81.321 53.6641 81.3711 53.4004 81.3999C52.8452 81.4495 52.2856 81.3777 51.7607 81.1899C51.4951 81.1062 51.2397 80.9922 51.0005 80.8499L50.5508 80.5298L50.1606 80.1399L49.9707 79.9399L49.9707 79.8699C49.4756 79.2495 49.1118 78.5349 48.9004 77.7698C48.6245 76.7949 48.5029 75.7825 48.5405 74.7698C48.5942 73.2629 48.7817 71.7637 49.1006 70.2898C49.3804 68.9099 49.7104 67.5898 50.1006 66.2898C50.8008 63.7 51.5806 61.2 52.3403 58.73L52.3506 58.7598Z" fill-rule="evenodd" fill="currentColor"/>
	<path d="M78.5708 15.02C80.0806 14.6899 81.5708 14.4099 83.2207 14.21C84.0308 14.1101 84.8408 14.03 85.7104 14L86.3906 14C86.7207 14 87.0405 14 87.3906 14C88.0181 14.0005 88.6416 14.0947 89.2407 14.28C89.6602 14.4092 90.063 14.5869 90.4404 14.8101C90.8423 14.9827 91.1885 15.2629 91.4404 15.6201C91.6807 15.97 91.9204 16.3301 92.1406 16.71C92.2876 17.1489 92.4077 17.5964 92.5005 18.05L92.6406 18.6499C92.7002 18.8474 92.7236 19.0542 92.7104 19.26C92.7104 19.6799 92.7104 20.1001 92.7104 20.51C92.7104 21.1201 92.6309 21.6001 92.6006 22.1101C92.5508 23.1101 92.3906 24.1101 92.2607 25.1101C91.9604 27.04 91.5605 28.8799 91.1807 30.73C90.8105 32.3501 90.6406 34.01 90.3008 35.6101L89.6904 38.6201C89.4805 39.6201 89.2705 40.5701 89.0605 41.5701C88.9507 42.1101 88.4707 42.2 87.8706 41.6399C87.0952 40.8259 86.6343 39.7625 86.5708 38.6399C86.5708 37.5266 86.5708 36.4268 86.5708 35.3401C86.5708 34.8 86.5708 34.26 86.6309 33.72L86.8506 32.1399C87.1509 30.04 87.5107 27.97 87.8506 25.9199C88.1074 24.7112 88.2114 23.4749 88.1606 22.24C88.1606 21.6599 87.9204 20.9199 87.9907 20.8701C88.0605 20.8201 87.9204 20.45 87.8408 20.24C87.7607 20.03 87.7808 19.97 87.6704 19.8999C87.5625 19.8347 87.4443 19.7874 87.3208 19.76C86.9443 19.6838 86.5566 19.6838 86.1807 19.76C84.853 19.8994 83.5366 20.1299 82.2407 20.45C80.5684 20.8496 78.9194 21.3403 77.3008 21.9199C74.7935 22.749 72.3613 23.7893 70.0308 25.03C68.3281 26.1155 66.7012 27.3149 65.1606 28.6201C64.8105 28.8899 64.5005 29.2 64.1606 29.45C62.8105 30.3899 62.1108 30.28 60.9106 29.1499C60.6406 28.8899 60.3506 28.6599 60.1108 28.3899C59.2827 27.4609 59.2827 26.0591 60.1108 25.1299C60.7466 24.3474 61.4312 23.606 62.1606 22.9099C62.8799 22.1995 63.6636 21.5569 64.5005 20.99C66.1997 19.8464 67.9888 18.8433 69.8506 17.99C71.2407 17.3401 72.6606 16.76 74.1206 16.23C75.5806 15.7 77.1206 15.3 78.5908 14.8999L78.5708 15.02Z" fill-rule="evenodd" fill="currentColor"/>
	<defs/>
</svg>
