<svg width="24" height="24" viewBox="0 0 110 110" fill="none" xmlns="http://www.w3.org/2000/svg" xmlns:xlink="http://www.w3.org/1999/xlink">
	<path d="M36.7925 27.4485L55.0425 27.4485C55.0425 27.4485 51.6523 20.4485 45.9126 21.7483C42.355 22.657 39.168 24.6489 36.7925 27.4485Z" fill-rule="evenodd" fill="currentColor"/>
	<path d="M33.5625 71.2883C33.5625 71.2883 35.0723 66.6482 41.3623 67.9683C47.6523 69.2883 44.4126 72.8582 44.4126 72.8582L33.5625 71.2883Z" fill-rule="evenodd" fill="currentColor"/>
	<path d="M61.2822 50.4883C62.0112 47.9338 64.3877 46.2053 67.042 46.2983C71.832 46.2983 74.8521 50.9783 74.8521 50.9783L61.2822 50.4883Z" fill-rule="evenodd" fill="currentColor"/>
	<path d="M57.0625 30.6584C53.5024 30.4585 49.9321 30.2783 46.3521 30.1885C45.0522 30.1885 43.7524 30.3083 42.4521 30.2583C37.8423 30.1084 33.2324 29.9585 28.6123 29.8984C26.6123 29.8984 24.5122 29.9685 22.4824 30.1084C19.8721 30.2783 17.2822 30.6685 14.582 30.1785C13.7422 30.0183 13.8721 28.9185 14.582 27.7883C14.9272 27.2007 15.3667 26.6738 15.8823 26.2285C16.4487 25.7444 17.1436 25.4353 17.8823 25.3384C23.1836 24.6152 28.5449 24.4377 33.8823 24.8083C37.1123 25.0784 40.4521 24.6484 43.7524 24.6084C47.3721 24.6084 51.0024 24.6084 54.6421 24.6685L61.3521 24.8284C64.7422 24.8984 68.1421 25.1084 71.5225 25.1284C74.1523 25.1284 76.7524 24.7983 79.4121 24.9983C79.9966 24.9766 80.5815 25.0305 81.1523 25.1584C83.3125 25.8083 83.9121 26.4285 84.1523 27.6785C84.2173 27.9517 84.2642 28.229 84.2925 28.5083C84.2925 29.3784 83.2925 30.0183 81.7524 30.4185C81.1821 30.5684 80.6323 30.6785 80.0425 30.8684C79.4761 30.9976 78.9014 31.0845 78.3223 31.1284C77.7524 31.1985 77.1821 31.2483 76.6123 31.2983C76.0327 31.3828 75.4478 31.4229 74.8623 31.4185C72.5625 31.4185 70.1821 31.3584 67.8623 31.2483C66.0923 31.1885 64.3022 31.1184 62.5225 31.0283L57.1523 30.8384L57.0625 30.6584Z" fill-rule="evenodd" fill="currentColor"/>
	<path d="M44.292 47.6282C47.8423 47.7683 51.4121 47.8682 54.9922 47.8682C56.292 47.8682 57.5923 47.6782 58.8921 47.6882C63.502 47.6882 68.1221 47.6882 72.7422 47.5884C74.7422 47.5884 76.8423 47.3682 78.8721 47.1582C81.4819 46.8882 84.0522 46.3882 86.8721 46.8284C87.7222 46.9583 87.5923 48.0684 86.9521 49.2083C86.6069 49.8132 86.168 50.3601 85.6523 50.8284C85.1118 51.3269 84.4375 51.657 83.7119 51.7783C78.4922 52.5083 73.1621 53.2483 67.7119 52.8882C64.4521 52.7383 61.1221 53.2683 57.812 53.4082C54.1724 53.5483 50.5322 53.5984 46.8721 53.5984C44.6323 53.5984 42.3823 53.5383 40.1323 53.5984C38.4321 53.5984 36.7222 53.4883 35.0122 53.4482C33.3022 53.4082 31.562 53.2283 29.8623 53.2283C27.2119 53.1282 24.5723 53.4583 21.8623 53.1282C21.2681 53.1267 20.6768 53.0493 20.1021 52.8982C17.9419 52.0784 17.3721 51.4282 17.252 50.1782C17.2051 49.9006 17.1816 49.6199 17.1821 49.3384C17.1821 48.4783 18.292 47.8982 19.832 47.5884C20.4023 47.4783 20.9419 47.4082 21.5322 47.2483C22.0962 47.1379 22.668 47.071 23.2422 47.0483C23.8022 47.0483 24.3623 46.9683 24.9224 46.9482C25.2021 46.9482 25.4922 46.9482 25.7822 46.8782L26.7119 46.8782C27.8623 46.8782 28.9922 46.9683 30.1621 46.9983C31.332 47.0283 32.5122 47.0684 33.6919 47.1282L38.9922 47.3484C40.7622 47.4082 42.5522 47.4382 44.3423 47.4783L44.292 47.6282Z" fill-rule="evenodd" fill="currentColor"/>
	<path d="M41.1724 70.5381C44.7222 70.6782 48.2925 70.7781 51.8623 70.7781C53.1724 70.7781 54.4624 70.5881 55.7725 70.5981C60.3721 70.5981 64.9922 70.5981 69.6221 70.4983C71.6221 70.4983 73.7222 70.2781 75.7524 70.0681C78.3623 69.7981 80.9321 69.2981 83.6924 69.7383C84.5522 69.8682 84.4224 70.9783 83.7725 72.1182C83.4336 72.7251 82.998 73.2725 82.4824 73.7383C81.9419 74.2368 81.2676 74.5669 80.5425 74.6882C75.3223 75.4182 69.9922 76.1582 64.5425 75.7981C61.2925 75.6482 57.9624 76.1782 54.6523 76.3181C51.0122 76.4583 47.3623 76.5083 43.7124 76.5083C41.4722 76.5083 39.2124 76.4482 36.9722 76.5083C35.2725 76.5083 33.562 76.3982 31.8521 76.3582C30.1421 76.3181 28.4424 76.1882 26.7422 76.1882C24.0923 76.0881 21.4521 76.4282 18.7422 76.0881C18.1484 76.0864 17.5566 76.0093 16.9824 75.8582C14.8223 75.0381 14.2524 74.3882 14.1323 73.1382C14.0874 72.8604 14.0605 72.5796 14.0522 72.2981C14.1021 71.4382 15.1724 70.8582 16.7021 70.5481C17.2822 70.4382 17.8223 70.3682 18.4121 70.2083C18.9731 70.0984 19.5415 70.0315 20.1123 70.0083C20.6821 70.0083 21.2422 69.9282 21.8022 69.9082C22.082 69.9082 22.3721 69.9082 22.6621 69.8381C22.9521 69.7683 23.2324 69.8381 23.5225 69.8381C24.6724 69.8381 25.8022 69.9282 26.9722 69.9583C28.1421 69.9883 29.3223 70.0281 30.4922 70.0881L35.7925 70.3081C37.5723 70.3682 39.3623 70.3982 41.1421 70.4382L41.1724 70.5381Z" fill-rule="evenodd" fill="currentColor"/>
	<path d="M48.2324 40.3184C46.2383 40.5874 44.2144 40.5469 42.2324 40.1982C40.2559 39.8733 38.3447 39.2317 36.5723 38.2983C35.0508 37.6252 33.7129 36.5964 32.6724 35.2983C31.7397 34.0437 31.1597 32.5625 30.9922 31.0083C30.9268 30.2375 30.9565 29.4617 31.0825 28.6982C31.2319 28.001 31.4429 27.3184 31.7124 26.6582C31.9756 26.03 32.2896 25.4248 32.6523 24.8484C33.0024 24.2859 33.4077 23.76 33.8623 23.2783L34.5522 22.5784L35.2822 21.9683C35.771 21.5669 36.2891 21.2026 36.8325 20.8782C38.6768 19.7095 40.7051 18.8611 42.8325 18.3682C43.5254 18.2236 44.2271 18.1201 44.9321 18.0583C45.6548 17.9617 46.3877 17.9854 47.1025 18.1282C48.543 18.4258 49.8726 19.1184 50.9424 20.1282C51.6025 20.7683 50.9424 21.3384 49.9424 21.8882C49.4321 22.1682 48.8726 22.4382 48.2925 22.7883C48.0024 22.9482 47.7422 23.0684 47.4722 23.2083C47.2388 23.3501 46.981 23.4485 46.7124 23.4983C46.4922 23.4983 46.2622 23.6382 46.0625 23.6582C45.853 23.6384 45.6421 23.6384 45.4321 23.6582L44.7925 23.7083L44.1421 23.8284C43.2563 23.9895 42.3931 24.2581 41.5723 24.6282C40.7344 24.9763 39.9395 25.4192 39.2021 25.9482L38.6621 26.3484L38.1724 26.7783C38.0098 26.9187 37.8564 27.0691 37.7124 27.2283C37.5625 27.3782 37.3623 27.5183 37.2324 27.6782L36.7422 28.2983L36.4121 28.9983C36.2456 29.4102 36.1772 29.8552 36.2124 30.2983C36.3413 31.218 36.7827 32.0652 37.4624 32.6982C38.4463 33.5798 39.6304 34.208 40.9121 34.5283C42.3223 34.9343 43.7852 35.1265 45.2524 35.0984C47.0122 35.1174 48.7485 34.6946 50.3022 33.8682C51.3872 33.282 52.2744 32.3877 52.8525 31.2983L53.2021 30.4382C53.3125 30.1582 53.3223 29.8782 53.4023 29.6082C53.4692 29.0671 53.418 28.5178 53.2524 27.9983C52.9448 27.1816 52.3887 26.4822 51.6621 25.9983C50.8838 25.4766 50.04 25.0596 49.1523 24.7583C48.7725 24.5984 48.3823 24.4883 48.0024 24.3384C47.4492 24.1724 46.958 23.845 46.5923 23.3982C46.3159 22.8342 46.1465 22.2241 46.0923 21.5984C46.0425 21.2583 45.9521 20.9182 45.9224 20.5984C45.8809 20.0435 46.1167 19.5044 46.5522 19.1582C47.1309 18.6003 47.9087 18.2976 48.7124 18.3184C50.1357 18.3276 51.5469 18.5847 52.8823 19.0784C54.2783 19.7312 55.5376 20.6443 56.5923 21.7683C57.8193 23.0742 58.6934 24.6709 59.1323 26.4082C59.5874 28.2617 59.5112 30.2061 58.9121 32.0183C58.6724 32.605 58.4224 33.1851 58.1621 33.7583C57.8525 34.3083 57.4824 34.8384 57.1621 35.3682C56.769 35.8582 56.3481 36.3257 55.9023 36.7683C55.4424 37.1882 54.9624 37.5684 54.4824 37.9482C52.6304 39.2446 50.5059 40.0999 48.2725 40.4482L48.2324 40.3184Z" fill-rule="evenodd" fill="currentColor"/>
	<path d="M72.1323 62.4883C70.3481 62.9739 68.498 63.1697 66.6523 63.0684C65.7705 63.0327 64.8926 62.9426 64.022 62.7983C63.1338 62.6511 62.2583 62.4373 61.4023 62.1582C60.1055 61.8083 58.8638 61.2798 57.7124 60.5884C56.5151 59.7856 55.5303 58.7048 54.8423 57.4382C54.1064 56.0112 53.918 54.3645 54.312 52.8083C54.9702 50.5493 56.2905 48.5396 58.1021 47.0383C59.5742 45.7913 61.2715 44.8374 63.1021 44.2283C65.355 43.5222 67.7695 43.5222 70.022 44.2283C70.7021 44.4683 70.4819 45.1382 69.8623 45.8584C69.5186 46.2705 69.1333 46.646 68.7124 46.9783C68.2881 47.3381 67.7944 47.6072 67.2622 47.7683C66.4067 47.9802 65.5781 48.2888 64.792 48.6882C64.0928 48.9917 63.4229 49.3599 62.792 49.7883C61.5864 50.6306 60.5996 51.748 59.9121 53.0483C59.812 53.2383 59.7222 53.4683 59.6421 53.6482C59.6045 53.7622 59.5776 53.8794 59.562 53.9983C59.5376 54.1726 59.5845 54.3494 59.6924 54.4883C60.2295 55.031 60.8682 55.4626 61.5723 55.7583C62.6299 56.2764 63.7588 56.6338 64.9224 56.8184C66.1523 57.0181 67.4038 57.0483 68.6421 56.9082C69.3462 56.8267 70.04 56.6726 70.7124 56.4482C71.3096 56.2361 71.8677 55.925 72.3623 55.5283C73.0249 54.9409 73.4248 54.1125 73.4722 53.2283C73.5737 52.2432 73.3301 51.2534 72.7822 50.4282C71.9023 49.2283 70.2222 48.8484 68.7124 48.8284C68.3521 48.8284 68.022 48.8882 67.7124 48.9082C67.1924 48.9639 66.6724 48.8049 66.272 48.4683C65.8472 48.0193 65.5532 47.4624 65.4224 46.8584C65.3022 46.4983 65.1523 46.1382 65.0522 45.7783C64.8828 45.2048 64.9551 44.5872 65.252 44.0684C65.6191 43.4763 66.1987 43.0469 66.8721 42.8684C68.0718 42.5142 69.3315 42.4121 70.5723 42.5684C71.9771 42.7122 73.3384 43.1409 74.5723 43.8284C75.9668 44.5901 77.1597 45.6733 78.0522 46.9883C78.9536 48.3655 79.522 49.9333 79.7124 51.5684C79.793 52.1445 79.8198 52.7271 79.792 53.3083C79.7773 53.9272 79.7036 54.5432 79.5723 55.1482C79.4375 55.7983 79.2329 56.4321 78.9624 57.0383C78.6836 57.6545 78.3491 58.2437 77.9624 58.7983C76.4941 60.6389 74.4927 61.9802 72.2319 62.6382L72.1323 62.4883Z" fill-rule="evenodd" fill="currentColor"/>
	<path d="M43.1123 83.6782C41.3301 84.0479 39.5 84.1289 37.6924 83.9182C35.9824 83.7246 34.3032 83.3215 32.6924 82.7183C31.3643 82.3125 30.1138 81.6873 28.9922 80.8684C27.9033 79.9265 27.0732 78.7217 26.582 77.3684C26.1265 76.0356 26.0469 74.6033 26.3521 73.2283C26.9053 70.9019 28.293 68.8594 30.252 67.4883C31.7676 66.3979 33.4585 65.5759 35.252 65.0583C37.4077 64.4165 39.6982 64.3818 41.8721 64.9583C42.542 65.1682 42.3721 65.8484 41.8022 66.5884C41.1714 67.4709 40.3101 68.1628 39.312 68.5884C38.4595 68.8535 37.6304 69.188 36.832 69.5884C36.1045 69.8677 35.3989 70.2019 34.7222 70.5884C33.5781 71.2476 32.624 72.1914 31.9521 73.3284C31.6055 73.8457 31.5596 74.5083 31.832 75.0684C32.1855 75.6191 32.6836 76.062 33.272 76.3484C34.2568 76.8975 35.3188 77.2954 36.4224 77.5283C37.5845 77.8035 38.7783 77.9211 39.9722 77.8784C41.2788 77.8738 42.5557 77.4841 43.6421 76.7583C43.9644 76.4988 44.2412 76.188 44.4624 75.8384C44.5811 75.6584 44.6753 75.4634 44.7422 75.2583C44.7905 75.1619 44.8311 75.0615 44.8623 74.9583L44.8623 74.6682C45.002 73.8281 44.7432 72.9709 44.1621 72.3484C42.9629 71.2078 41.4399 70.467 39.8022 70.2283C39.4424 70.1384 39.062 70.1384 38.7124 70.0583C37.4224 69.7483 37.2222 69.2483 37.042 67.5784C37.042 67.1982 36.9224 66.8184 36.9023 66.4382C36.8311 65.8452 37.0205 65.2505 37.4224 64.8083C37.9204 64.3101 38.5879 64.0176 39.292 63.9883C41.665 63.9155 44.0059 64.5452 46.022 65.7983C47.1987 66.5195 48.2466 67.4319 49.1221 68.4983C50.1816 69.8406 50.8711 71.4368 51.1221 73.1284C51.1973 73.813 51.1973 74.5037 51.1221 75.1882C51.063 75.8489 50.9253 76.5002 50.7124 77.1284C50.3228 78.333 49.6973 79.448 48.8721 80.4082C47.3516 82.1111 45.3442 83.3049 43.1221 83.8284L43.1123 83.6782Z" fill-rule="evenodd" fill="currentColor"/>
	<defs/>
</svg>
