<svg width="24" height="24" viewBox="0 0 110 110" fill="none" xmlns="http://www.w3.org/2000/svg" xmlns:xlink="http://www.w3.org/1999/xlink">
	<path d="M21.9976 61.981C21.1973 61.7109 20.8677 60.981 20.6675 60.061C20.6074 59.751 20.9575 59.1411 21.2275 59.1509C21.7373 59.1509 22.2876 59.2412 22.7876 59.3311C23.0977 59.4009 27.3975 61.2212 28.8774 61.7808C30.2939 62.3398 31.6763 62.981 33.0176 63.7012L41.0176 68.251C41.6079 68.5903 42.167 68.9819 42.6875 69.4209C44.4854 70.9062 46.4404 72.1904 48.5176 73.251C48.8462 73.4771 49.2227 73.6245 49.6177 73.6812C50.3276 73.6812 55.6177 77.1011 56.2476 77.6812C57.7173 79.1211 59.2476 80.4209 60.8174 81.791C61.0376 81.981 61.3477 82.0708 61.4175 82.4512C61.5977 83.311 62.1675 83.5708 62.6675 83.9609C63.3667 84.4985 64.0347 85.0762 64.6675 85.6909C64.9365 86.0835 65.1519 86.5107 65.3076 86.9609C65.5073 87.3711 64.8872 87.9609 64.7173 87.9609C64.2476 87.9609 64.3076 88.4912 64.1572 88.811C64.1108 88.9268 64.0469 89.0347 63.9673 89.1309C62.0073 88.8306 60.0742 88.3721 58.1875 87.7612C58.1875 87.7612 57.7173 87.541 57.0874 87.1812L54.8076 85.9209C53.0874 84.9209 51.2974 83.981 50.9175 83.8008C50.5396 83.5747 50.2017 83.2876 49.9175 82.9512C49.7676 82.791 44.5776 80.041 44.4272 79.8511C43.3667 79.2251 42.4277 78.4121 41.6572 77.4512C41.5073 77.2549 41.3164 77.0947 41.0977 76.981C39.3477 75.8408 37.7573 74.481 36.0977 73.1909C35.3076 72.5308 34.3677 71.9712 33.5073 71.3311C33.355 71.2036 33.2148 71.063 33.0874 70.9111C32.9224 70.7319 32.7417 70.5679 32.5474 70.4209C30.4375 69.0508 28.5474 67.3608 26.4175 66.0112C25.9375 65.6909 23.9272 63.7212 23.3477 63.4009C23.0376 63.231 22.3076 62.0811 21.9976 61.981Z" fill-rule="evenodd" fill="currentColor"/>
	<path d="M16.6978 36.9614C15.7554 36.5254 15.1128 35.6245 15.0078 34.5913C14.9375 34.2412 15.3677 33.5913 15.6875 33.6812C16.2974 33.8115 16.9077 33.9312 17.5078 34.1011C17.8574 34.2212 23.0576 36.7612 24.8677 37.5415C26.6064 38.3149 28.3057 39.1763 29.9575 40.1211C33.2773 42.1211 36.5674 44.1211 39.8677 46.0513C40.6001 46.4966 41.3018 46.9912 41.9678 47.5312C44.2754 49.3516 46.7305 50.9771 49.3076 52.3911C49.7114 52.6782 50.166 52.8853 50.6475 53.0015C51.4878 53.1313 58.2773 57.2812 59.0674 58.0015C61.0176 59.7012 63.0176 61.3213 64.9976 63.0015C65.2876 63.2314 65.6577 63.3711 65.7974 63.7715C66.1274 64.6914 66.7974 65.0312 67.4878 65.5015C68.3896 66.1406 69.2515 66.835 70.0674 67.5815C70.4692 68.021 70.8062 68.5161 71.0674 69.0513C71.3374 69.5112 70.6377 70.1313 70.4375 70.1113C69.8774 70.1113 69.9878 70.6611 69.8174 70.9912C69.7739 71.1167 69.7061 71.2324 69.6177 71.3315C67.269 70.7354 64.9717 69.9531 62.7476 68.9912L53.7476 63.8115C53.2749 63.5215 52.8442 63.168 52.4678 62.7612C52.2676 62.5913 45.8975 58.8911 45.6577 58.7612C44.3311 57.9868 43.1167 57.0347 42.0474 55.9312C41.8389 55.7031 41.5918 55.5137 41.3174 55.3711C39.0977 53.9814 37.0176 52.3711 34.8975 50.8213C33.8174 50.0215 32.6675 49.3315 31.5576 48.5815C31.3647 48.4326 31.1812 48.272 31.0078 48.1011C30.7847 47.8887 30.5474 47.6914 30.2974 47.5112C27.6074 45.8315 25.1675 43.7515 22.4878 42.0713C21.8774 41.6714 19.2676 39.2812 18.5376 38.8511C18.0474 38.4814 17.0977 37.1113 16.6978 36.9614Z" fill-rule="evenodd" fill="currentColor"/>
	<path d="M23.4277 15.8809C22.9028 15.6221 22.4751 15.2017 22.2075 14.6812C21.9092 14.1353 21.7319 13.5317 21.6875 12.9111C21.6875 12.5112 22.2974 11.9111 22.6274 12.0112L23.6274 12.2012L24.6875 12.4209C24.7974 12.4209 25.2275 12.6309 25.8975 12.9009C26.5674 13.1709 27.3774 13.6309 28.2573 14.0713C30.0376 14.9409 32.0273 15.9111 33.0576 16.3711C35.0576 17.2812 36.9375 18.3711 38.8174 19.3711L50.1577 26.1611C50.9956 26.668 51.7979 27.2329 52.5576 27.8511C55.2046 29.9263 58.021 31.7764 60.9775 33.3809C61.4448 33.7026 61.9663 33.9365 62.5176 34.0713C63.5176 34.2012 71.1973 39.0713 72.1074 39.811C74.3574 41.731 76.6777 43.5513 78.9673 45.4312C79.2974 45.6909 79.7173 45.8608 79.8975 46.291C80.3481 47.126 81.0469 47.8003 81.8975 48.2212C82.9409 48.9404 83.9424 49.7183 84.8975 50.5513C85.3525 51.0337 85.7451 51.5713 86.0674 52.1509C86.4077 52.6611 85.6675 53.2812 85.4473 53.2612C84.8174 53.2012 84.9775 53.8213 84.8174 54.1709C84.7739 54.2964 84.7061 54.4121 84.6177 54.5112C81.9429 53.8018 79.3198 52.9097 76.7676 51.8413L66.1973 46.1411C65.6514 45.8218 65.1475 45.4355 64.6973 44.9912C64.4575 44.8013 57.0176 40.7612 56.7676 40.5312C55.3374 39.5312 53.7676 38.7612 52.5776 37.3413C52.3296 37.0898 52.0425 36.8804 51.7275 36.7212C49.1577 35.1509 46.7275 33.3413 44.2974 31.5811C43.0474 30.6812 41.7173 29.9111 40.4375 29.061C40.2129 28.8916 39.999 28.708 39.7974 28.5112C39.5405 28.2686 39.2661 28.0449 38.9775 27.8413C35.8877 25.9209 33.0474 23.6011 29.9775 21.7109C29.2676 21.2612 26.2676 18.5112 25.4277 18.0112C24.9277 17.7109 23.8574 16.1108 23.4277 15.8809Z" fill-rule="evenodd" fill="currentColor"/>
	<defs/>
</svg>
