<svg width="24" height="24" viewBox="0 0 110 110" fill="none" xmlns="http://www.w3.org/2000/svg" xmlns:xlink="http://www.w3.org/1999/xlink">
	<path d="M17.165 80.3699L17.9849 80.2698C18.2524 80.2559 18.5161 80.1985 18.7651 80.0999L20.165 79.5398C21.0981 79.1995 22.0044 78.7881 22.875 78.3098C24.605 77.3799 26.3052 76.4199 27.9951 75.4299C29.6851 74.4399 31.3652 73.4299 32.9951 72.4299C33.8252 71.9099 34.6548 71.4299 35.4751 70.8499L37.9048 69.1599C41.1919 66.8623 44.3315 64.3608 47.3052 61.6699C48.9321 60.2002 50.4121 58.5759 51.7251 56.8198C52.5244 55.7288 53.1519 54.5212 53.585 53.2397C53.7129 52.7971 53.8096 52.3459 53.875 51.8899C53.9297 51.4187 53.9502 50.9441 53.9351 50.4697C53.897 49.9971 53.8027 49.5305 53.6548 49.0798C53.5049 48.6299 53.2852 48.2097 53.125 47.7598C52.8853 47.4973 52.6709 47.2126 52.4849 46.9099L52.0449 46.2397C51.7451 45.7998 51.4248 45.4697 51.1152 45.0798C50.8052 44.6899 50.4951 44.3298 50.1851 43.9697L49.1851 42.9697C48.5449 42.2698 47.8848 41.6499 47.1851 40.9697C46.4849 40.2898 45.855 39.7197 45.1851 39.1299C42.4448 36.7598 39.6348 34.5798 36.7749 32.4797C31.0684 28.3198 25.1816 24.4597 19.1152 20.8999C18.2251 20.3699 16.4048 23.2698 17.2148 23.8398C22.835 27.8398 28.2852 32.1699 33.4648 36.7097C36.0449 38.9797 38.5552 41.3098 40.895 43.7097C42.0649 44.9199 43.2051 46.1399 44.2349 47.3899L45.0049 48.3198L45.6851 49.2598C45.9194 49.5605 46.1362 49.8743 46.335 50.1997C46.4751 50.4797 46.8052 50.9099 46.6948 50.8999C46.4434 51.405 46.1274 51.8755 45.7549 52.2998C44.6655 53.541 43.4634 54.6792 42.165 55.6997C39.2998 57.9558 36.2939 60.0266 33.165 61.8999C29.9751 63.7998 26.8149 65.7998 23.5352 67.6099C20.2549 69.4199 16.7651 70.9099 14.0449 73.3499C13.6348 73.9597 16.1348 80.4299 17.165 80.3699Z" fill-rule="evenodd" fill="#242021"/>
	<path d="M45.4746 86.4998C50.1748 85.3098 53.7349 82.6597 57.5947 80.3599C61.4546 78.0598 65.145 75.5598 68.7446 72.8599C72.4048 70.1792 75.917 67.3015 79.2646 64.2397C81.0181 62.6306 82.6553 60.8997 84.165 59.0598C84.9961 58.05 85.7417 56.9729 86.395 55.8398C87.2393 54.4307 87.7651 52.8538 87.9351 51.2197C88.0352 50.0896 87.853 48.9521 87.4048 47.9097C87.2847 47.6399 87.1348 47.3799 86.9946 47.1299C86.9448 47.0334 86.8843 46.9429 86.8149 46.8599L86.7246 46.6199L86.165 45.8499C85.4077 44.8628 84.5928 43.9211 83.7246 43.0298C82.9248 42.1499 82.085 41.3699 81.2549 40.5398L78.7246 38.2397C75.2749 35.2397 71.7246 32.6299 68.0249 30.0798C60.7378 25.0266 53.1943 20.3538 45.4248 16.0798C44.3447 15.4797 42.625 18.4397 43.6348 19.0798C50.9243 23.834 57.9634 28.9607 64.7246 34.4397C68.085 37.1697 71.3447 40.0098 74.375 42.9797L76.6147 45.2397C77.2949 46.0098 78.0146 46.7698 78.6147 47.5398C79.2339 48.2876 79.8115 49.0686 80.3447 49.8799L80.7349 50.4597L80.8247 50.6099L80.8247 50.6797C80.9746 50.5898 80.5049 50.8999 81.1748 50.4797L81.2646 50.4297L81.2046 50.4297C81.1284 50.4382 81.0513 50.4382 80.9746 50.4297C80.8853 50.4407 80.7944 50.4407 80.7046 50.4297C80.5439 50.9626 80.2974 51.4658 79.9746 51.9197C79.481 52.6621 78.9292 53.3643 78.3247 54.0198C76.9814 55.522 75.5381 56.9319 74.0049 58.2397C70.7148 60.928 67.2832 63.4382 63.7246 65.7598C60.145 68.1099 56.5547 70.5098 52.8647 72.7598C49.1748 75.0098 45.2549 76.8999 42.105 79.6597C41.5649 80.2898 44.3047 86.6597 45.4746 86.4998Z" fill-rule="evenodd" fill="#242021"/>
	<defs/>
</svg>
