<svg width="24" height="24" viewBox="0 0 110 110" fill="none" xmlns="http://www.w3.org/2000/svg" xmlns:xlink="http://www.w3.org/1999/xlink">
	<path d="M83.3511 59.4121C83.5112 59.072 83.6714 58.7319 83.8013 58.4121C83.8613 58.2419 83.9414 58.072 83.9912 57.9121L84.0811 57.6621C84.0811 57.582 84.0811 57.4819 84.0811 57.512C84.2197 57.3555 84.2915 57.1509 84.2812 56.9421C84.2812 56.792 84.0811 56.802 83.9712 56.762L83.8911 56.762C83.8311 56.762 83.7812 56.6621 83.7114 56.6421C83.6411 56.6221 83.2612 56.4919 83.021 56.4221C82.521 56.272 82.021 56.1521 81.4614 56.032C80.3911 55.792 79.271 55.6021 78.1514 55.4421C77.1558 55.3225 76.1538 55.2625 75.1514 55.262C73.8613 55.262 72.4614 55.4121 71.1514 54.562C70.7412 54.302 71.0513 53.562 71.5513 52.832C71.7969 52.4465 72.0781 52.085 72.3911 51.752C72.6279 51.4309 72.9932 51.23 73.3911 51.2021C75.9717 51.1113 78.5547 51.3093 81.0913 51.792C81.8623 51.9565 82.6445 52.0635 83.4312 52.1121L84.041 52.1121L84.7812 52.2021C85.4048 52.2866 86.0205 52.4238 86.6211 52.6121L87.0811 52.8621C87.7305 53.1328 88.2524 53.6404 88.541 54.282C88.8281 54.9097 88.9751 55.592 88.9712 56.282C88.959 56.9893 88.8721 57.6931 88.7114 58.3821C88.5811 58.8821 88.4214 59.3821 88.2612 59.822C87.8403 60.9224 87.3564 61.9976 86.811 63.042C86.0015 64.592 85.021 66.042 84.0811 67.4819C83.3613 68.6121 82.791 69.8521 81.9614 70.9919C81.7964 71.2537 81.6016 71.4954 81.3813 71.7122C80.521 72.502 79.9814 72.4722 79.1113 71.7122C78.9033 71.5449 78.7061 71.3645 78.521 71.1721C77.9521 70.6116 77.7715 69.7664 78.061 69.022C78.2485 68.521 78.4619 68.0305 78.7012 67.552C78.9512 67.1021 79.2012 66.6621 79.4712 66.2222L81.1113 63.552C81.9258 62.2285 82.6377 60.8445 83.2412 59.4121L83.3511 59.4121Z" fill-rule="evenodd" fill="currentColor"/>
	<path d="M33.4512 42.8123C33.7559 42.7185 34.0664 42.645 34.3809 42.5923L34.5811 42.5923L34.6411 42.5923L34.7612 42.5923C34.8462 42.5771 34.9204 42.5247 34.9629 42.4492C35.0059 42.3735 35.0122 42.283 34.981 42.2021C34.9541 42.1274 34.9175 42.0566 34.8711 41.9922C34.751 41.7522 34.6309 41.5122 34.5312 41.2622C33.7603 39.3628 32.7812 37.5552 31.6108 35.8721C31.0815 35.125 30.5039 34.4136 29.8809 33.7422C29.0811 32.8921 28.2212 32.0823 27.4912 31.1821C27.2812 30.9221 27.4912 30.6321 27.9912 30.5022C28.6372 30.3506 29.3174 30.4622 29.8809 30.8123C30.9453 31.5244 31.9487 32.3237 32.8809 33.2021C33.7852 34.0989 34.5718 35.1069 35.2212 36.2021C36.001 37.5322 37.0513 38.7522 37.8311 40.1421L38.1812 40.7822L38.5811 41.5422C38.7544 42.0095 38.8682 42.4966 38.9209 42.9922C38.9019 43.2393 38.8584 43.4839 38.791 43.7222C38.7007 43.9529 38.5938 44.1768 38.4712 44.3921C38.209 44.8291 37.8701 45.2153 37.4712 45.5322C37.2612 45.675 37.0635 45.8354 36.8809 46.0122L36.3711 46.3323C35.3809 46.8718 34.3257 47.282 33.231 47.5522C31.6611 48.0122 30.0713 48.2622 28.521 48.6221C27.3213 48.8921 26.1709 49.3821 24.9409 49.7021C24.6772 49.7903 24.4062 49.8538 24.1309 49.8921C23.1309 49.9421 22.7412 49.6121 22.521 48.4722C22.4712 48.2122 22.4111 47.9622 22.3809 47.7021C22.2622 46.9094 22.6284 46.1223 23.311 45.7021C24.2134 45.1968 25.1831 44.823 26.1909 44.5923C27.1909 44.3323 28.1909 44.1221 29.1909 43.8921C30.6201 43.6106 32.0273 43.2263 33.4009 42.7422L33.4512 42.8123Z" fill-rule="evenodd" fill="currentColor"/>
	<path d="M32.7808 58.6321C32.7808 60.522 32.4707 62.4321 32.3408 64.332C32.291 65.022 32.4209 65.7021 32.3408 66.4021C32.0908 68.842 31.8008 71.292 31.6206 73.7319C31.4897 74.8103 31.4331 75.896 31.4507 76.9819C31.5576 78.384 31.4258 79.7942 31.061 81.1521C30.9209 81.582 30.251 81.522 29.5107 81.1521C28.6973 80.8289 28.0391 80.2061 27.6709 79.4121C26.9707 76.6921 26.1509 73.9622 26.811 71.1121C26.9087 69.3962 26.8418 67.675 26.6108 65.9719C26.541 64.082 26.541 62.1821 26.541 60.282C26.541 59.1121 26.6108 57.9421 26.6011 56.782C26.6426 55.0137 26.5894 53.2446 26.4409 51.4819C26.3413 50.8042 26.187 50.1355 25.981 49.4819L25.6709 48.4819C25.5908 48.1421 25.541 47.812 25.4907 47.4819C25.4409 47.1521 25.3706 46.9021 25.3608 46.6021C25.3608 46.4622 25.3608 46.332 25.3608 46.2122C25.4028 46.0986 25.4531 45.9883 25.5107 45.8821C25.6196 45.6943 25.7578 45.5254 25.9209 45.3821C26.3018 45.0742 26.751 44.8616 27.231 44.762C27.4907 44.6921 27.7407 44.6021 27.9907 44.552C28.9165 44.4609 29.8271 44.8357 30.4209 45.552C32.4209 47.822 32.521 50.3721 32.751 52.9121C32.8906 54.802 32.8608 56.7219 32.9106 58.6221L32.7808 58.6321Z" fill-rule="evenodd" fill="currentColor"/>
	<path d="M36.981 43.9521C37.0181 43.8777 37.0356 43.7949 37.0312 43.7119C37.0356 43.6487 37.0356 43.5852 37.0312 43.522C36.9819 43.384 36.9219 43.2502 36.8511 43.1221L36.541 42.552C35.7729 41.0376 34.9082 39.5747 33.9512 38.1721C33.271 37.1721 32.4209 36.272 31.6909 35.342C31.1782 34.6838 30.624 34.0591 30.0312 33.4719C29.9209 33.3521 29.7012 33.1721 29.6909 33.1521C29.6431 33.0938 29.5894 33.0403 29.5312 32.9919C29.4062 32.8796 29.2549 32.8005 29.0913 32.762C28.8545 32.738 28.6157 32.7798 28.4009 32.8821L28.2412 32.9619C28.1309 33.022 28.021 33.1121 27.9009 33.1821C27.7812 33.252 27.4512 33.512 27.2212 33.6821C26.2798 34.4695 25.3848 35.3108 24.541 36.2021C23.1079 37.6172 21.7715 39.1272 20.541 40.7219C19.7412 41.7219 18.9912 42.792 18.1611 43.792L17.521 44.542L16.7812 45.2119C16.2676 45.6521 15.7378 46.072 15.1909 46.4719C14.4712 46.9619 14.1108 46.4719 13.9712 45.4719C13.8901 44.8555 13.8633 44.2332 13.8911 43.6121C13.9067 43.2432 13.9468 42.8757 14.0112 42.512C14.0112 42.322 14.1011 42.1521 14.1309 41.9619C14.208 41.7969 14.2944 41.6365 14.3911 41.4819C15.8013 39.272 17.231 37.032 18.8809 34.8621C19.6948 33.7327 20.6123 32.6814 21.6211 31.7219C22.7222 30.6541 23.936 29.7085 25.2412 28.9021C26.3784 28.1091 27.7163 27.6516 29.1011 27.582C31.1011 27.6321 33.1011 29.2119 33.9312 29.9819C34.9399 30.877 35.873 31.8538 36.7212 32.9021C37.8823 34.3728 38.9644 35.905 39.9609 37.4919C40.4512 38.282 40.9609 39.052 41.4409 39.8521L42.3213 41.312C42.6812 41.9221 43.0112 42.532 43.3213 43.1521C43.6958 43.8633 44.0068 44.6062 44.251 45.3721C44.4438 46.0205 44.5283 46.696 44.501 47.3721C44.519 47.6777 44.4922 47.9844 44.4209 48.282C44.249 48.5764 44.0293 48.8398 43.771 49.062C43.2363 49.4585 42.6279 49.7439 41.981 49.9021C40.8496 50.1736 39.6938 50.3311 38.5312 50.3721C37.9209 50.3721 37.311 50.3721 36.7109 50.3721L35.4111 50.3721C33.731 50.3721 32.0713 50.3721 30.4111 50.4719C27.9399 50.6853 25.4971 51.1509 23.1211 51.8621C22.6211 52.002 22.1211 52.2119 21.6709 52.342L21.0513 52.4919C20.8779 52.5015 20.7041 52.5015 20.5312 52.4919C20.2432 52.4949 19.9575 52.4404 19.6909 52.332C19.4331 52.2163 19.1992 52.0537 19.001 51.8521C18.751 51.572 18.501 51.2219 18.2612 50.9121C18.021 50.6021 17.791 50.3921 17.6309 50.1721C17.3608 49.802 17.3413 49.3921 17.4712 48.542C17.521 48.3521 17.5312 48.022 17.6411 47.9121C17.7451 47.7527 17.8623 47.6021 17.9912 47.4619C18.2812 47.1372 18.6182 46.8574 18.9912 46.6321C19.5605 46.2761 20.1675 45.9844 20.8013 45.762C21.4209 45.532 22.041 45.322 22.6611 45.1521C23.9131 44.8208 25.186 44.5735 26.4712 44.4121C28.9219 44.0935 31.3896 43.9265 33.8608 43.9121L36.4912 43.9121L36.4912 43.9719C36.4912 44.022 36.7612 44.072 36.731 43.9719L36.981 43.9521Z" fill-rule="evenodd" fill="currentColor"/>
	<path d="M30.4209 24.9221C28.4209 24.8223 26.4209 24.6921 24.4209 24.5522C23.6909 24.5022 22.9712 24.5522 22.2412 24.5022C20.9609 24.4021 19.6812 24.082 18.4111 23.8621C17.1411 23.6421 15.8711 23.3821 14.6108 23.092L11.2812 22.4121C9.78369 22.1597 8.37207 21.5415 7.1709 20.6121C6.80127 20.3022 7.0708 20.0723 7.60107 19.9321C8.25049 19.7478 8.92969 19.6902 9.60107 19.7622C12.2012 20.2322 15.0112 20.1121 17.8213 20.4321C18.6865 20.5022 19.5557 20.5022 20.4209 20.4321C21.2944 20.3391 22.1729 20.2959 23.0513 20.3022C24.981 20.3022 26.9209 20.3022 28.8608 20.3022C30.0513 20.3022 31.251 20.2522 32.4409 20.1721C34.2554 20.1094 36.0649 19.9458 37.8608 19.6821C39.2261 19.3623 40.564 18.9343 41.8608 18.4021C42.1509 18.3022 42.4312 18.1421 42.7212 18.0623C43.8408 17.842 44.251 18.1721 44.7212 19.6021C44.8208 19.9221 44.9512 20.2422 45.0312 20.6021C45.3574 21.5562 45.0151 22.6111 44.1909 23.1921C41.8311 24.5723 39.1909 24.832 36.4712 25.0222C34.4712 25.1421 32.4712 25.1121 30.4712 25.1121L30.4209 24.9221Z" fill-rule="evenodd" fill="currentColor"/>
	<path d="M72.1211 41.4121C72.251 39.6621 72.5708 37.9021 72.751 36.1321C72.811 35.4922 72.751 34.8521 72.751 34.2021C73.0312 31.9221 73.3311 29.6321 73.5112 27.342C73.6382 26.3474 73.6885 25.3445 73.6611 24.342C73.5376 23.0312 73.6392 21.7087 73.9609 20.4321C74.0908 20.022 74.7612 20.052 75.521 20.3521C76.3335 20.6226 77.0103 21.1956 77.4111 21.9521C78.1709 24.532 79.001 27.1221 78.3408 29.832C78.0508 31.4421 78.4409 33.082 78.4712 34.7122C78.4712 36.512 78.4712 38.312 78.3711 40.1221L78.2012 43.4121C78.1211 45.092 77.9312 46.782 77.981 48.4722C78.02 49.1436 78.1035 49.8118 78.231 50.4722L78.4312 51.4722C78.4312 51.802 78.4312 52.1421 78.4312 52.4722C78.4512 52.7651 78.4512 53.0591 78.4312 53.3521C78.4209 53.4849 78.394 53.616 78.3511 53.7422C78.2856 53.8479 78.2124 53.9482 78.1309 54.042C77.9868 54.2097 77.8184 54.3547 77.6309 54.4722C77.1973 54.6897 76.7163 54.7964 76.231 54.782C75.9609 54.782 75.6909 54.782 75.4409 54.782C74.5557 54.6472 73.7666 54.1511 73.2612 53.4121C71.6909 51.1821 71.8208 48.9822 71.791 46.6521C71.791 44.9321 71.9312 43.1821 71.9712 41.4221L72.1211 41.4121Z" fill-rule="evenodd" fill="currentColor"/>
	<path d="M93.4209 55.1421C92.9678 56.7092 92.2944 58.2043 91.4209 59.5823C90.9907 60.3623 90.811 60.5823 90.541 61.0322L89.7607 62.1921C88.6909 63.7222 87.6611 65.2522 86.521 66.7222C85.7305 67.8484 84.8828 68.9331 83.981 69.9722C83.2432 70.7695 82.4478 71.5115 81.6011 72.1921C81.3706 72.3816 81.1304 72.5583 80.8809 72.7222C80.6006 72.917 80.3101 73.0972 80.0107 73.2622C79.2998 73.6326 78.5205 73.8538 77.7207 73.9121C77.1816 73.8894 76.6489 73.7849 76.1411 73.6023C75.666 73.4202 75.2134 73.1853 74.791 72.9021C74.1646 72.4688 73.5728 71.9873 73.021 71.4622C72.0215 70.5168 71.0767 69.5151 70.1909 68.4622C68.8809 66.8323 67.561 65.2622 66.271 63.7021C65.4312 62.7021 64.5811 61.7021 63.771 60.7021L63.1611 59.9521L62.6411 59.1421L61.6411 57.4922C61.231 56.8022 61.6411 56.4922 62.6411 56.5723C63.2329 56.6196 63.8169 56.7371 64.3809 56.9221C64.7227 57.0342 65.0566 57.1677 65.3809 57.3223L65.8911 57.5923C66.0381 57.707 66.1787 57.8306 66.311 57.9622C68.2012 59.8623 70.001 61.7922 71.7607 63.6821C72.6309 64.6323 73.5308 65.5422 74.3208 66.5022C75.0713 67.4038 75.8765 68.2585 76.731 69.0623C76.8369 69.1643 76.9502 69.2581 77.0708 69.3423L77.2207 69.4822C77.3164 69.5657 77.4351 69.6182 77.561 69.6323C77.772 69.6479 77.9805 69.5796 78.1411 69.4421C78.5435 69.1465 78.915 68.8115 79.251 68.4421C80.0386 67.6418 80.7798 66.7971 81.4707 65.9121C82.541 64.6421 83.541 63.2422 84.481 61.8022C84.9609 61.0723 85.4111 60.3323 85.8608 59.5823L86.9907 57.5823C87.3481 57.0383 87.6401 56.4543 87.8608 55.8423C87.9512 55.5823 87.7109 55.4221 87.521 55.3723C87.3105 55.3008 87.0923 55.2539 86.8711 55.2322C86.4609 55.1721 86.0308 55.1421 85.5811 55.1123L84.4111 55.1123L83.1709 55.1123C81.501 55.1123 79.8311 55.1123 78.1709 55.1821C75.5708 55.2622 72.9907 55.6223 70.2808 55.6023C69.6812 55.6023 69.0811 55.6023 68.4609 55.6023C67.6011 55.5627 66.7769 55.2473 66.1108 54.7021C65.8945 54.5051 65.7295 54.2578 65.6309 53.9822C65.5591 53.637 65.5254 53.2849 65.5308 52.9321C65.5171 52.6589 65.5171 52.3853 65.5308 52.1123C65.5308 51.7322 65.8511 51.4822 66.3711 51.0122C66.5859 50.7737 66.8687 50.6062 67.1812 50.5322C67.4863 50.4312 67.8013 50.3606 68.1211 50.3223C72.2207 50.0522 76.8208 49.8623 81.6309 49.7622L83.9409 49.7622C84.811 49.7622 85.1812 49.7622 87.021 49.7622C88.3857 49.823 89.7334 50.0859 91.021 50.5422C91.1611 50.6023 91.3208 50.6521 91.4512 50.7222L91.8008 50.9521C92.0371 51.0962 92.2583 51.2637 92.4609 51.4521L92.9409 52.1421L93.0708 52.3323L93.1309 52.3323L93.1309 52.3823L93.1309 52.4722C93.1968 52.5898 93.25 52.7139 93.291 52.8423C93.5269 53.5674 93.6118 54.333 93.541 55.0923L93.4209 55.1421Z" fill-rule="evenodd" fill="currentColor"/>
	<path d="M80.1909 82.3521C78.4409 82.1021 76.6709 81.9321 74.9009 81.8521C74.251 81.8521 73.6108 81.9521 72.9609 81.9221C71.8208 81.9221 70.6606 81.752 69.501 81.7122C68.3408 81.6721 67.1807 81.7122 66.041 81.772C65.0298 81.8599 64.0273 82.0237 63.041 82.262C61.791 82.572 60.561 82.9521 59.271 83.1921C58.8711 83.262 58.771 82.9421 58.9507 82.4622C59.2061 81.8047 59.6743 81.2517 60.2808 80.8921C62.7651 79.5701 65.4819 78.7415 68.2808 78.4521C69.9507 78.342 71.6309 77.762 73.3408 77.6921C75.2109 77.562 77.0811 77.562 78.9507 77.6021C80.1108 77.6021 81.2607 77.6921 82.4106 77.752C84.1509 77.8521 85.8911 78.062 87.6411 78.1621C88.3208 78.1621 89.001 78.1621 89.7007 78.1621C90.4058 78.1033 91.1133 78.0798 91.8208 78.092C92.1411 78.092 92.4707 78.092 92.8208 78.092C94.001 78.3521 94.2808 78.8721 94.0107 80.332C93.9507 80.6621 93.9106 80.9919 93.8208 81.332C93.6343 82.259 92.9731 83.019 92.0811 83.332C89.8652 83.6272 87.6162 83.563 85.4209 83.1421C83.7207 82.9221 81.9707 82.6621 80.2109 82.522L80.1909 82.3521Z" fill-rule="evenodd" fill="currentColor"/>
	<defs/>
</svg>
