<svg width="24" height="24" viewBox="0 0 110 110" fill="none" xmlns="http://www.w3.org/2000/svg" xmlns:xlink="http://www.w3.org/1999/xlink">
	<path d="M58.9497 76.3091L67.9497 75.1191C67.9497 75.1191 80.5601 53.8491 81.3599 53.1191C82.8101 51.8191 69.6797 77.2793 69.6797 77.2793L56.3999 78.5991L58.9497 76.3091Z" fill-rule="evenodd" fill="currentColor"/>
	<path d="M31.4302 68.4392L35.5703 74.6392L68.79 20.6292L61.5503 20.6292L31.4302 68.4392Z" fill-rule="evenodd" fill="currentColor"/>
	<path d="M46.8599 78.6592L57.52 77.6592L79.5801 40.0693C79.3999 40.3694 74.8999 31.7793 74.8999 31.7793L46.8599 78.6592Z" fill-rule="evenodd" fill="currentColor"/>
	<path d="M68.23 26.7393L66.7798 24.1692L66.4199 23.5593L66.23 23.2693C66.2275 23.2458 66.2275 23.2224 66.23 23.1992C66.2104 23.1062 66.1733 23.0178 66.1201 22.9392C66.0645 22.8979 66.0039 22.8643 65.9399 22.8391L65.8398 22.8391C65.8398 22.8391 65.7598 22.8391 65.6797 22.8391L65.4199 22.8391C64.7197 22.7793 64 22.7292 63.2598 22.6992C62 22.6392 60.73 22.7793 59.4497 22.6992C54.9399 22.5891 50.3701 22.3391 45.8198 22.3291C43.8154 22.342 41.8125 22.459 39.8198 22.6792C38.54 22.7993 37.2598 22.9993 35.98 23.1091C34.6738 23.1497 33.3667 23.0559 32.0801 22.8291C31.2598 22.6692 31.29 21.6892 31.8799 20.5593C32.5371 19.2141 33.6919 18.1775 35.1001 17.6692C40.3735 16.9417 45.707 16.7439 51.02 17.0791C54.23 17.2893 57.5498 16.9492 60.8501 16.9893C62.0298 16.9893 63.2197 17.0293 64.4199 17.1091L65.3301 17.1792L66.3301 17.2593C66.7964 17.2764 67.2593 17.3469 67.71 17.4692C68.1499 17.5676 68.5815 17.7014 69 17.8691C69.7744 18.4692 70.4263 19.2129 70.9199 20.0593C71.29 20.6392 71.6099 21.1792 71.9199 21.7393C73.0601 23.6792 74.1099 25.6292 75.1997 27.5493C76.8501 30.4592 78.4097 33.4292 80.1997 36.2292C81.5698 38.4092 83.1997 40.3691 84.7197 42.3892C85.0601 42.8291 85.4399 43.2292 85.7197 43.6992C85.9829 44.0437 86.1953 44.4243 86.3501 44.8291C86.4814 45.1243 86.54 45.4468 86.52 45.7693C86.3799 46.3701 86.0991 46.9287 85.6997 47.3992C85.52 47.6392 85.3901 47.8992 85.2197 48.0791C84.8799 48.3979 84.3999 48.5188 83.9497 48.3992C83.6118 48.3538 83.2778 48.2834 82.9497 48.1892C82.5708 48.0723 82.2271 47.8628 81.9497 47.5791C80.2456 45.9189 78.7144 44.0894 77.3799 42.1191C76 40.1191 74.73 38.1191 73.4897 36.0693C71.6499 33.0093 69.9297 29.8691 68.1299 26.8391L68.23 26.7393Z" fill-rule="evenodd" fill="currentColor"/>
	<path d="M27.48 36.5891C26.7002 37.8191 25.9102 39.0591 25.1499 40.3191C24.8799 40.7791 24.73 41.3191 24.4399 41.7493C23.4399 43.3391 22.21 44.8691 21.1802 46.4792C20.7305 47.1931 20.333 47.9385 19.9902 48.7092C19.5122 49.7205 18.8315 50.6223 17.9902 51.3591C17.6899 51.5791 17.21 51.2192 16.7798 50.6292C16.2939 50.0745 16.0176 49.3667 16 48.6292L16.3599 47.0491C16.5356 46.5483 16.7529 46.0635 17.0098 45.5991C17.5015 44.6306 18.0771 43.7073 18.73 42.8391C19.4082 41.6848 20.0059 40.4854 20.52 39.2493C21.23 37.9592 21.98 36.6792 22.7202 35.3892C23.1699 34.5991 23.6401 33.8091 24.0801 33.0093C24.7202 31.7791 25.54 30.6292 26.2002 29.4092C26.7002 28.4092 27.0098 27.4092 27.5098 26.4092C27.606 26.1824 27.7163 25.9619 27.8398 25.7493C28.0137 25.4333 28.313 25.2058 28.6641 25.124C29.0151 25.042 29.3843 25.1128 29.6802 25.3191C29.8599 25.4092 30.04 25.4893 30.21 25.5891C30.7251 25.9517 31.0073 26.5618 30.9502 27.1892C30.7251 29.093 30.2612 30.9609 29.5698 32.7493C29.459 33.0896 29.3286 33.4233 29.1802 33.7493L28.6499 34.6992L27.5801 36.6091L27.48 36.5891Z" fill-rule="evenodd" fill="currentColor"/>
	<path d="M28.23 61.0994C29.0601 62.5793 29.8901 64.0994 30.7603 65.5093C31.0703 66.0393 31.5 66.5093 31.7603 67.0093C32.8501 68.8892 33.9004 70.7993 35.0801 72.6094C35.6255 73.3811 36.2129 74.1223 36.8403 74.8293L38 76.1692C38.1904 76.3992 38.3604 76.6294 38.52 76.8494C38.6802 77.0693 38.6704 77.0793 38.75 77.2092C38.8301 77.3394 38.8604 77.4092 38.9102 77.5193C39.02 77.7993 38.7002 78.5193 37.96 78.8992C37.1689 79.3706 36.1919 79.4045 35.3701 78.9893C34.8101 78.5793 34.2803 78.1492 33.79 77.7192C33.5386 77.5088 33.2983 77.2852 33.0703 77.0493L32.4702 76.2793C31.7017 75.248 31.0317 74.1465 30.4702 72.9893C29.6553 71.6638 28.7393 70.4033 27.73 69.2192C26.73 67.8293 25.8101 66.4092 24.8701 64.9893L23.1504 62.3992C22.3423 61.022 21.4648 59.6868 20.52 58.3992C19.7153 57.4829 18.8608 56.6116 17.96 55.7893C17.7656 55.6096 17.5879 55.4121 17.4302 55.1992C16.8701 54.3794 16.9404 53.9292 17.6602 53.1194C17.813 52.9299 17.9766 52.7495 18.1504 52.5793C18.709 52.041 19.5557 51.9351 20.23 52.3193C20.7588 52.5786 21.2642 52.8831 21.7402 53.2292C22.1904 53.5894 22.6201 53.9592 23.04 54.3594C23.8564 55.1558 24.6274 55.9971 25.3501 56.8794C25.8901 57.5293 26.4102 58.2092 26.9204 58.8794C27.4302 59.5493 27.8403 60.3093 28.3203 61.0093L28.23 61.0994Z" fill-rule="evenodd" fill="currentColor"/>
	<path d="M76.0703 71.7393L73.8604 75.5491L73.2803 76.5491L72.9902 77.0391L72.8301 77.2891L72.5703 77.6692C72.2515 78.187 71.8828 78.6726 71.4702 79.1191C71.0078 79.5413 70.436 79.8254 69.8203 79.9392C69.5972 80.0012 69.3696 80.0479 69.1401 80.0791L68.5005 80.1892L67.6602 80.3191C67.1206 80.4114 66.5767 80.4749 66.0303 80.509C62.2104 80.6892 58.4805 80.7493 54.7305 80.8491C53.0601 80.8491 51.4004 81.009 49.7305 81.1792C48.686 81.3308 47.6348 81.4275 46.5801 81.4692C45.5122 81.4888 44.4438 81.4487 43.3804 81.3491C42.7104 81.269 42.7202 80.7393 43.1802 80.019C43.8003 79.0547 44.6953 78.2986 45.7505 77.8491C46.269 77.6462 46.8003 77.4758 47.3403 77.3391L48.9604 77.0391C50.0303 76.8391 51.1104 76.6792 52.1904 76.5391C53.2681 76.3843 54.3525 76.2842 55.4404 76.2393C56.5303 76.2393 57.6304 76.2393 58.7305 76.3191C61.3706 76.3066 64.0068 76.1128 66.6201 75.7393L67.6201 75.6292L68.1001 75.6292C68.4102 75.6292 68.5103 75.3291 68.7505 75.0491C69.4805 73.8892 70.2505 72.6091 70.9805 71.3591C71.8804 69.7991 72.79 68.2393 73.6704 66.6592C75.0103 64.269 76.4102 61.8892 77.6704 59.4692C78.6704 57.5791 79.3804 55.6091 80.3203 53.6792C80.5303 53.2493 80.7202 52.8091 80.9604 52.3892C81.1455 52.032 81.3706 51.6965 81.6304 51.3892C81.8486 51.197 82.0991 51.0447 82.3701 50.9392C82.8374 50.7437 83.3633 50.7437 83.8301 50.9392C84.041 51.0112 84.2451 51.1016 84.4404 51.2092C84.731 51.4377 84.9092 51.78 84.9302 52.1492C84.9692 52.3706 84.9927 52.5945 85.0005 52.8191C85.0195 53.1138 84.9995 53.4099 84.9404 53.6992C84.3101 55.3291 83.5801 57.0591 82.7803 58.7991C81.9805 60.5391 81.1104 62.2791 80.2202 64.019C78.9004 66.6191 77.4902 69.1892 76.1201 71.7991L76.0703 71.7393Z" fill-rule="evenodd" fill="currentColor"/>
	<path d="M45.0503 33.7393L38.3604 43.3091C37.5601 44.4792 36.8804 45.7292 36.0601 46.8892C33.1733 50.9824 30.23 55.0491 27.23 59.0891C25.9199 60.8892 24.73 62.7793 23.5503 64.6492C22.79 65.8491 22.1001 67.0791 21.3003 68.2693C20.4541 69.4392 19.4927 70.5212 18.4302 71.4993C17.75 72.1191 17.21 71.4993 16.9199 70.4192C16.7622 69.7642 16.6816 69.093 16.6802 68.4192C16.6704 67.6211 16.8198 66.8289 17.1201 66.0891C19.9888 61.0796 23.1963 56.2717 26.7202 51.6992C28.9302 48.9792 30.7202 45.7991 32.6499 42.8391L39.23 33.0891L43.23 27.0891L46.23 22.5193C47.23 21.0093 48.23 19.5193 49.23 17.9592C49.98 16.7593 50.6699 15.5391 51.3403 14.3191L52.3403 12.4792C52.6899 11.8792 53.0801 11.2891 53.4502 10.7092C53.8203 10.1292 54.0801 9.70923 54.4502 9.15918C54.9087 8.45361 55.4873 7.83423 56.1602 7.3291C56.6069 7.04956 57.1401 6.94287 57.6602 7.0293C57.8794 7.04395 58.0967 7.07739 58.3101 7.12915C58.6304 7.24927 58.7402 7.5791 58.75 8.12915C58.77 8.81543 58.6401 9.4978 58.3701 10.1292C57.5269 12.5461 56.5249 14.9045 55.3701 17.1892C54.23 19.3992 52.9302 21.6892 51.6001 23.9492C49.6001 27.2991 47.3101 30.5093 45.1602 33.7991L45.0503 33.7393Z" fill-rule="evenodd" fill="currentColor"/>
	<path d="M50.6797 43.2493L44.0396 53.0891C43.2397 54.2891 42.5698 55.5691 41.7495 56.769C38.8696 60.9592 35.96 65.1492 32.9897 69.2891C31.6997 71.1392 30.4995 73.0691 29.3398 74.9893C28.5796 76.2192 27.8799 77.4792 27.0796 78.6992C26.2197 79.9006 25.2417 81.0127 24.1597 82.019C23.4697 82.6592 22.9297 82.0791 22.6499 80.9392C22.4873 80.2849 22.4067 79.6133 22.4097 78.9392C22.3916 78.1282 22.5376 77.322 22.8398 76.5691C25.6929 71.4475 28.8867 66.5229 32.3999 61.8291C34.5996 59.0291 36.3198 55.769 38.2896 52.7393L44.8398 42.7393L48.8398 36.5691L51.8398 31.8792C52.8398 30.3291 53.8398 28.769 54.8398 27.1892C55.5698 25.9492 56.2295 24.6992 56.8896 23.3992L57.8896 21.519C58.2295 20.8992 58.5996 20.2991 58.9697 19.6892C59.3398 19.0791 59.5898 18.6191 59.9697 18.0991C60.4048 17.3743 60.9629 16.7312 61.6196 16.1992C62.0537 15.9126 62.5713 15.7788 63.0898 15.8191C63.313 15.8081 63.5366 15.8081 63.7598 15.8191C64.0898 15.9092 64.2295 16.2192 64.2695 16.7393C64.2944 17.4221 64.1787 18.1028 63.9297 18.7393C63.123 21.2322 62.1406 23.665 60.9897 26.019C59.7998 28.3792 58.5195 30.7292 57.1997 33.019C55.1997 36.4492 52.96 39.769 50.8296 43.1392L50.6797 43.2493Z" fill-rule="evenodd" fill="currentColor"/>
	<path d="M57.1499 46.1091L49.9097 57.3992C49.04 58.7793 48.2998 60.2292 47.4199 61.6091C44.2998 66.4392 41.1597 71.2693 37.96 76.0693C36.5596 78.2092 35.2598 80.4292 33.96 82.6191C33.1396 84.0393 32.3696 85.4792 31.5098 86.8792C30.5791 88.2673 29.5176 89.5635 28.3398 90.7493C27.5498 91.5093 27.0498 90.8892 26.8096 89.6892C26.4932 88.085 26.6387 86.4238 27.23 84.8992C30.3584 79.0388 33.8208 73.3628 37.5996 67.8992C39.9697 64.6492 41.8599 60.8992 44 57.4392L51.1299 45.9692C52.6099 43.6191 54.1299 41.2593 55.5498 38.9092L58.8999 33.5593C60.0298 31.7793 61.1597 30.0093 62.2397 28.2192C63.0898 26.8291 63.8599 25.4192 64.6396 24.0093C65.3799 22.5715 66.2046 21.179 67.1099 19.8391C67.5 19.2393 67.8696 18.6392 68.3096 18.0593C68.6499 17.5977 69.0171 17.157 69.4097 16.7393C69.6831 16.4353 69.9956 16.1697 70.3398 15.9492C70.6045 15.7966 70.8911 15.6853 71.1899 15.6191C71.4575 15.5693 71.7319 15.5693 72 15.6191C72.228 15.6433 72.4531 15.6938 72.6699 15.7693C72.9697 15.9192 73.02 16.2893 72.96 16.7693C72.9185 17.0833 72.855 17.394 72.77 17.6992C72.6504 18.1003 72.5 18.4915 72.3198 18.8691C71.1099 21.3992 70.1099 24.2092 68.6499 26.7693C67.1899 29.3291 65.7998 32.0093 64.3198 34.6392C62.0698 38.5193 59.5996 42.2993 57.2598 46.1492L57.1499 46.1091Z" fill-rule="evenodd" fill="currentColor"/>
	<path d="M66.5703 52.0793L59.5703 62.7092C58.73 63.9993 58.02 65.3792 57.1699 66.7092C54.1499 71.2427 51.0869 75.7559 47.98 80.2493C46.6201 82.2493 45.3604 84.3293 44.1304 86.3892C43.3301 87.7092 42.5903 89.0693 41.75 90.3892C40.8442 91.6848 39.8164 92.8901 38.6802 93.9893C37.9502 94.6892 37.4199 94.0991 37.1602 92.9192C37.0132 92.2227 36.9492 91.511 36.9702 90.7993C36.9717 89.9446 37.1416 89.0984 37.4702 88.3093C40.5054 82.8069 43.8716 77.4939 47.5503 72.3992C49.8501 69.3992 51.6802 65.8691 53.75 62.5894L60.6401 51.8093L64.8604 45.1692L68.04 40.1091C69.1001 38.3992 70.23 36.7192 71.23 35.0193C72.0103 33.6992 72.73 32.3591 73.4302 31.0193L74.4902 29.0193C74.8604 28.3591 75.2603 27.7192 75.6602 27.0693C76.0601 26.4192 76.3101 25.9192 76.71 25.3591C77.1929 24.5845 77.7974 23.8923 78.5 23.3093C78.9507 22.9827 79.5073 22.8364 80.0601 22.8992C80.2817 22.9001 80.5029 22.9236 80.7202 22.9692C81.04 23.0793 81.1499 23.4192 81.1499 23.9692C81.1401 24.6868 80.9941 25.396 80.7202 26.0593C79.7964 28.6907 78.7178 31.2651 77.4902 33.7693C76.2202 36.2793 74.8501 38.7693 73.4902 41.2893C71.3701 44.9792 69.0103 48.5493 66.77 52.1892L66.5703 52.0793Z" fill-rule="evenodd" fill="currentColor"/>
	<path d="M73.8701 56.269L67.8701 65.4092C67.1499 66.5291 66.5601 67.7192 65.8701 68.8291C63.27 72.7358 60.627 76.6157 57.9399 80.4692C56.75 82.1892 55.6899 83.9893 54.6299 85.769C53.9399 86.9092 53.3301 88.0891 52.6299 89.2192C51.8418 90.3418 50.9297 91.3716 49.9102 92.2891C49.2603 92.8691 48.7202 92.2891 48.3999 91.1992C48.2124 90.5752 48.105 89.9302 48.0801 89.2791C48.0278 88.5281 48.1372 87.7747 48.3999 87.0691C50.9229 82.3203 53.7734 77.7527 56.9302 73.3992C58.9302 70.8091 60.46 67.769 62.23 64.9492L68.1299 55.6592L71.7402 49.9292L74.46 45.5691C75.3701 44.1191 76.29 42.6792 77.1401 41.2092C77.7998 40.0691 78.3999 38.9092 78.9902 37.7393L79.8701 35.9792C80.1802 35.4092 80.52 34.8491 80.8701 34.2891C81.2202 33.7292 81.4302 33.2891 81.7803 32.8091C82.1968 32.1321 82.7358 31.5386 83.3701 31.0591C83.8105 30.792 84.3335 30.6958 84.8398 30.7891C85.0532 30.8108 85.2637 30.8511 85.4702 30.9092C85.7803 31.0291 85.8999 31.3491 85.9399 31.8391C85.9854 32.468 85.8931 33.0994 85.6699 33.6892C84.958 35.9814 84.0928 38.2231 83.0801 40.3992C82.02 42.5791 80.8799 44.759 79.71 46.9192C77.9199 50.1091 75.8901 53.1792 73.98 56.3191L73.8701 56.269Z" fill-rule="evenodd" fill="currentColor"/>
	<defs/>
</svg>
