<svg width="24" height="24" viewBox="0 0 110 110" fill="none" xmlns="http://www.w3.org/2000/svg" xmlns:xlink="http://www.w3.org/1999/xlink">
	<path d="M56.0298 83.27C56.4619 83.5337 56.7437 83.9858 56.79 84.4902C56.8247 85.083 56.7603 85.6777 56.5996 86.25C56.4897 86.7002 55.6699 87.5298 55.3301 87.4102C54.6758 87.1958 54.04 86.9282 53.4297 86.6099C53.04 86.4199 48.9199 82.3599 47.5098 81.02C46.1621 79.7046 44.9023 78.3018 43.7397 76.8198C41.3496 73.8198 38.9297 70.9102 36.5698 67.9199C36.0654 67.2373 35.6108 66.5186 35.21 65.77C33.7695 63.249 32.0952 60.8682 30.21 58.6602C29.9375 58.2534 29.5791 57.9121 29.1597 57.6602C28.3799 57.2798 23.6396 50.98 23.1597 50.04C22.0498 47.7202 20.7998 45.4902 19.6597 43.1802C19.4897 42.8501 19.1899 42.5898 19.25 42.1802C19.2822 41.3423 19.0244 40.5195 18.52 39.8501C17.9888 38.8872 17.5337 37.8843 17.1597 36.8501C17.0273 36.2598 16.9766 35.6543 17.0098 35.0498C17.0098 34.4902 18.0098 34.2202 18.1499 34.3101C18.6699 34.5601 18.8599 33.9902 19.1499 33.7402C19.2598 33.6509 19.3804 33.5771 19.5098 33.52C20.4629 34.1006 21.3662 34.7598 22.21 35.4902C23.2329 36.2368 24.1963 37.0625 25.0898 37.96C25.0898 37.96 25.46 38.4702 25.9897 39.1802L27.9399 41.77C29.3896 43.6802 30.9399 45.6602 31.27 46.0498C31.5938 46.4878 31.8472 46.9736 32.02 47.4902C32.1196 47.7202 36.6597 53.3501 36.8101 53.6001C37.7612 54.7695 38.5205 56.0825 39.0601 57.4902C39.1592 57.7808 39.3193 58.0464 39.5298 58.27C41.0801 60.3198 42.3999 62.54 43.79 64.71C44.5 65.8198 45.3398 66.8398 46.0996 67.9102C46.2217 68.1206 46.332 68.3374 46.4297 68.5601C46.5513 68.835 46.6948 69.0991 46.8599 69.3501C48.75 71.8301 50.3696 74.5 52.4097 76.8501C52.8799 77.3901 54.4897 80.46 55.0601 81.0498C55.3696 81.3701 55.6699 83.0601 56.0298 83.27Z" fill-rule="evenodd" fill="currentColor"/>
	<path d="M51.21 54.4902C51.6069 55.1338 51.6069 55.9463 51.21 56.5898C51.0898 56.8501 50.4795 57.1201 50.2896 56.9702C49.9199 56.6899 49.5396 56.4102 49.1997 56.1001C49.0098 55.9102 46.5195 52.5601 45.5698 51.48C45.1196 50.9399 44.6997 50.3999 44.2998 49.8398C43.8999 49.2798 43.5996 48.6802 43.2998 48.0898L39.2998 40.8999C39.0098 40.3643 38.772 39.8013 38.5898 39.2202C37.9243 37.2407 37.0454 35.3398 35.9697 33.5498C35.8472 33.2114 35.6279 32.916 35.3398 32.7002C34.7896 32.3599 32.3398 27.29 32.1499 26.5601C31.9399 25.6499 31.6899 24.77 31.4399 23.8799C31.1899 22.9902 31.0098 22.0698 30.7896 21.1699C30.7295 20.9199 30.5498 20.7002 30.6797 20.3701C30.856 19.7817 30.7764 19.1465 30.46 18.6201C30.1816 17.8823 29.9512 17.1274 29.7695 16.3599C29.7275 15.9229 29.7441 15.4824 29.8198 15.0498C29.8198 14.6499 30.5898 14.4702 30.7197 14.54C31.0898 14.75 31.2695 14.3301 31.5298 14.1602C31.6211 14.0972 31.7183 14.0439 31.8198 14C33.2026 15.1357 34.5059 16.3652 35.7197 17.6802L37.7197 20.6001C38.6196 22.1201 39.5498 23.7002 39.7197 24.0098C39.9111 24.3608 40.0366 24.7437 40.0898 25.1401C40.0898 25.3198 42.8696 29.8301 42.9399 30.0298C43.5225 30.9766 43.8657 32.0508 43.9399 33.1602C43.9546 33.3833 44.0229 33.5991 44.1396 33.79C44.8994 35.5063 45.5674 37.2622 46.1396 39.0498C46.46 39.9502 46.8999 40.7998 47.2695 41.6802C47.3179 41.8506 47.3545 42.0244 47.3799 42.2002C47.415 42.415 47.4722 42.6265 47.5498 42.8301C48.46 44.8999 49.2397 47.02 50.1099 49.1099C50.2998 49.5898 50.7695 52.1099 51.0396 52.6401C51.1396 52.9502 51.0498 54.21 51.21 54.4902Z" fill-rule="evenodd" fill="currentColor"/>
	<path d="M85.3096 71.79C85.8599 72.3301 85.5098 73.1299 84.6797 74.0801C84.4097 74.3799 83.3896 74.79 83.1597 74.6602C82.7163 74.4341 82.2915 74.1733 81.8896 73.8799C81.6895 73.6899 79.3398 70.3301 78.5996 69.1499C77.8955 68.0186 77.2998 66.8232 76.8198 65.5801C75.8198 63.0898 74.8198 60.5801 73.8198 58.0898C73.6069 57.5308 73.4526 56.9512 73.3599 56.3599C73 54.3364 72.3921 52.3647 71.5498 50.4902C71.4644 50.1494 71.2881 49.8384 71.0396 49.5898C70.5298 49.1899 68.6895 44.0103 68.6099 43.29C68.4194 41.4902 68.0298 39.7603 67.7998 37.98C67.7998 37.7202 67.5996 37.4902 67.7998 37.1899C68.0557 36.6489 68.0557 36.0215 67.7998 35.48C67.6064 34.7383 67.4692 33.9824 67.3896 33.2202C67.4043 32.7817 67.4922 32.3491 67.6494 31.9399C67.7598 31.5503 68.6494 31.4302 68.7295 31.5103C69.0996 31.7402 69.3696 31.3501 69.7295 31.2002C69.8389 31.144 69.9526 31.0972 70.0698 31.0601C71.3022 32.2837 72.4141 33.623 73.3896 35.0601C73.3896 35.0601 73.5898 35.4702 73.8496 36.0601C74.1099 36.6499 74.4497 37.3999 74.7896 38.1899C75.4595 39.7603 76.1597 41.3999 76.3198 41.7202C76.4604 42.0801 76.5317 42.4634 76.5298 42.8501C76.5298 43.04 78.6299 47.7002 78.6797 47.8501C79.1187 48.8252 79.3506 49.8809 79.3599 50.9502C79.3584 51.1626 79.4097 51.3726 79.5098 51.5601C80.1221 53.2549 80.646 54.981 81.0796 56.73C81.3398 57.6099 81.7095 58.4502 82.0796 59.3101C82.1182 59.4775 82.1416 59.6484 82.1494 59.8198C82.1636 60.0308 82.2036 60.2393 82.2695 60.4399C83.0796 62.4399 83.6196 64.5801 84.6299 66.5103C84.8896 66.9502 85.1694 69.4102 85.4297 69.9302C85.4297 70.27 85.0796 71.5698 85.3096 71.79Z" fill-rule="evenodd" fill="currentColor"/>
	<defs/>
</svg>
