<svg width="24" height="24" viewBox="0 0 110 110" fill="none" xmlns="http://www.w3.org/2000/svg" xmlns:xlink="http://www.w3.org/1999/xlink">
	<path d="M18.48 73.8174C17.6016 72.9854 16.9038 71.981 16.4302 70.8677C16 69.8501 15.7041 68.7812 15.5498 67.6875C15.3052 65.6904 15.3589 63.6685 15.71 61.6875C15.9141 60.2759 16.2485 58.8867 16.71 57.5376C18.3545 52.7788 21.4541 48.6577 25.5698 45.7573C27.4507 44.4971 29.5718 43.6392 31.7998 43.2373C32.5132 43.1123 33.2358 43.0522 33.96 43.0576C34.6816 43.0864 35.3999 43.1665 36.1099 43.2974L37.1499 43.4673C37.48 43.6074 37.7998 43.7773 38.1499 43.9375C38.7749 44.2544 39.3765 44.6152 39.9502 45.0176C40.6602 45.5073 40.4102 45.7275 39.5801 45.9375C39.1602 46.0474 38.5801 46.1274 37.98 46.2974C37.6602 46.3872 37.3301 46.4775 36.98 46.5474C36.8101 46.5474 36.6401 46.5474 36.4702 46.6572L35.98 46.6572C34.8711 46.5684 33.7554 46.6221 32.6602 46.8174C31.5845 46.9595 30.5322 47.2417 29.5303 47.6572C28.4946 48.1245 27.5127 48.7012 26.6001 49.3774C25.6533 50.1157 24.7705 50.9316 23.96 51.8174C21.9995 54.1787 20.6284 56.9722 19.96 59.9673C19.5171 61.5806 19.249 63.2368 19.1602 64.9072C19.0596 66.4917 19.3193 68.0781 19.9199 69.5474C20.3071 70.3755 20.8906 71.0962 21.6201 71.6475C22.3652 72.2681 23.2246 72.7368 24.1499 73.0273C26.98 73.9072 30.2998 73.0273 33.1499 71.5977C34.2622 71.0234 35.3228 70.354 36.3198 69.5977C36.8301 69.2173 37.3198 68.8276 37.8101 68.4272L39.3198 67.2974C39.7603 66.9575 40.1699 66.6074 40.6299 66.2974C41.2144 65.8198 41.8687 65.4355 42.5698 65.1572C43.0049 65.041 43.4648 65.0586 43.8901 65.2075C44.0669 65.249 44.2402 65.3027 44.4102 65.3677C44.6401 65.4976 44.6499 65.7676 44.5103 66.2173C44.3086 66.8374 43.9663 67.4019 43.5103 67.8677C40.2607 71.8696 35.9072 74.8291 30.9902 76.3774C28.9004 77.0366 26.689 77.2178 24.52 76.9072C22.2236 76.5488 20.0898 75.5029 18.3999 73.9072L18.48 73.8174Z" fill-rule="evenodd" fill="currentColor"/>
	<path d="M60.6602 40.0078C59.3198 42.1074 58.0298 44.2979 56.7202 46.5278L52.7798 53.1978C50.2153 57.813 47.377 62.271 44.2798 66.5479C41.9585 69.8203 39.1455 72.7144 35.9399 75.1274C32.958 77.3047 29.4922 78.7256 25.8398 79.2676C23.8613 79.541 21.8457 79.3105 19.98 78.5977C18.1196 77.8779 16.479 76.6851 15.2202 75.1377C13.9873 73.6479 13.1025 71.9023 12.6299 70.0278C12.415 69.1348 12.2549 68.23 12.1499 67.3179C12.0498 66.4277 12.0298 65.5376 12 64.6475C12.0386 61.1118 12.7163 57.6123 14 54.3179C15.103 51.3516 16.7817 48.6323 18.9399 46.3179C21.1836 43.9121 24.1187 42.2632 27.3398 41.5977C27.8467 41.4648 28.3667 41.3911 28.8901 41.3774L30.46 41.2676C30.9902 41.2676 31.46 41.2676 32.0298 41.3374C32.6001 41.4077 33.0298 41.4775 33.5601 41.5776C35.541 41.9976 37.46 42.6694 39.27 43.5776C40.9917 44.4355 42.6611 45.3936 44.27 46.4478C45.8901 47.4478 47.3501 48.6177 48.8999 49.6274C50.7998 50.8975 50.3301 51.2979 48.1802 51.0679C46.7368 50.8818 45.3091 50.5879 43.9102 50.1875C42.0786 49.6035 40.2881 48.8984 38.5498 48.0776C36.9917 47.3374 35.3594 46.7642 33.6802 46.3677L32.4902 46.1475C32.1001 46.1475 31.71 46.0479 31.3198 46.0376C30.937 46.0181 30.5532 46.0181 30.1699 46.0376L29.04 46.0977C28.6636 46.0981 28.2891 46.1553 27.9302 46.2676C27.5698 46.3574 27.2002 46.3975 26.8398 46.5078C26.145 46.7485 25.4751 47.0566 24.8398 47.4277C23.4751 48.2031 22.2622 49.2197 21.2598 50.4277C19.1226 53.063 17.6235 56.1567 16.8799 59.4678L16.5898 60.7378L16.4102 62.0376C16.25 62.9077 16.2798 63.7676 16.1899 64.6475L16.1899 65.9478L16.1899 66.5977L16.2598 67.2275C16.3198 67.6475 16.3501 68.0977 16.4199 68.4976C16.4854 68.8862 16.5752 69.2705 16.6899 69.6475C17.1899 71.4741 18.3154 73.0664 19.8701 74.1475C21.4492 75.2261 23.3838 75.6528 25.27 75.3379C27.3667 74.9478 29.3755 74.1821 31.2002 73.0776L31.8999 72.6777L32.5601 72.1978C33 71.8677 33.46 71.5874 33.8799 71.1978C34.7368 70.4995 35.5547 69.7554 36.3301 68.9678C37.2202 68.1274 38 67.1577 38.8198 66.2275C39.6401 65.2979 40.3599 64.2778 41.0698 63.2275C42.5298 61.2275 43.8701 59.0078 45.1602 56.7979C46.4502 54.5879 47.6899 52.3076 48.96 50.0278L52.77 43.2075C54.3198 40.4077 55.9102 37.5479 57.77 34.8276C59.6113 32.021 61.7949 29.4546 64.27 27.1875C68.1499 23.7476 73.4502 21.4678 78.9399 22.1074C80.3159 22.3203 81.6475 22.7598 82.8799 23.4077C86.52 25.3936 89.0859 28.8979 89.8799 32.9678C90.1099 34.0146 90.2007 35.0869 90.1499 36.1577C90.1196 36.6938 90.0596 37.228 89.9702 37.7578C89.8657 38.2671 89.7358 38.7715 89.5801 39.2676C89.0386 41.2954 88.0815 43.189 86.77 44.8276L85.77 46.0176C85.4199 46.3975 85.0098 46.7178 84.6299 47.0679C83.8486 47.7456 83.0195 48.3672 82.1499 48.9277C80.436 49.9668 78.624 50.8345 76.7402 51.5176C75.1436 52.1226 73.5146 52.6367 71.8599 53.0576C69.7349 53.644 67.5444 53.9634 65.3398 54.0078C64.2256 53.998 63.144 53.626 62.2598 52.9478C61.9019 52.7056 61.5674 52.4312 61.2598 52.1274C60.8701 51.6274 61.2598 51.0479 62.2598 50.4077C63.7554 49.5308 65.3833 48.9023 67.0801 48.5479C70.1646 47.8291 73.1948 46.897 76.1499 45.7578C78.7812 44.7729 81.1255 43.147 82.9702 41.0278L83.4902 40.2275C83.5801 40.0977 83.6802 39.9775 83.7598 39.8374L83.96 39.3975L84.3701 38.5376C84.4902 38.2378 84.5601 37.9077 84.6602 37.5977C84.8638 37.0234 84.9912 36.4248 85.04 35.8179C85.0708 35.2324 85.0371 34.6455 84.9399 34.0679C84.5151 31.5918 83.062 29.4121 80.9399 28.0679C80.2109 27.5806 79.3857 27.2563 78.52 27.1177C78.0679 27.0405 77.6084 27.0103 77.1499 27.0278L75.6201 27.1675C73.5742 27.4956 71.6289 28.2817 69.9302 29.4678C68.0376 30.7515 66.3516 32.3159 64.9302 34.1074C63.397 36.0088 61.9966 38.0137 60.7402 40.1074L60.6602 40.0078Z" fill-rule="evenodd" fill="currentColor"/>
	<defs/>
</svg>
