<svg width="24" height="24" viewBox="0 0 110 110" fill="none" xmlns="http://www.w3.org/2000/svg" xmlns:xlink="http://www.w3.org/1999/xlink">
	<path d="M20.2402 30.6089C20.0884 30.8638 20.0024 31.1523 19.9902 31.4487C19.9438 31.7349 20.0244 32.0264 20.21 32.249C20.9829 33.1567 22.04 33.7769 23.21 34.0088C24.1016 34.1597 25.0151 34.1191 25.8901 33.8887C26.7012 33.7373 27.4707 33.417 28.1499 32.9487C29.6206 31.9087 30.5571 30.2734 30.71 28.479C30.7744 27.5381 30.6274 26.5952 30.2798 25.7188C29.5264 24.0396 28.2632 22.6401 26.6699 21.7188C25.6157 21.1045 24.4951 20.6113 23.3301 20.249C22.6802 20.019 22.1201 19.7886 21.5698 19.6289C21.1265 19.4766 20.6587 19.4087 20.1899 19.4287C19.9819 19.4639 19.7715 19.3838 19.6401 19.2188C19.4292 18.9189 19.4292 18.519 19.6401 18.2188C20.0591 17.6484 20.6826 17.2612 21.3799 17.1387C22.1729 16.9536 22.9976 16.9536 23.79 17.1387C24.3799 17.2788 25.1602 17.4688 25.8599 17.709C26.5835 17.9478 27.2886 18.2388 27.9702 18.5786C29.3965 19.2778 30.687 20.2261 31.7798 21.3789C32.9565 22.6152 33.8232 24.1128 34.3101 25.749C34.8052 27.4399 34.8052 29.2378 34.3101 30.9287C33.7373 32.9307 32.6353 34.7407 31.1201 36.1689C29.5845 37.6562 27.603 38.5981 25.48 38.8486C25.2002 38.8486 24.9102 38.9087 24.6201 38.9189L23.7598 38.9189C23.1909 38.9019 22.6245 38.8281 22.0698 38.6987C20.9717 38.4556 19.9165 38.0474 18.9399 37.4888C17.8862 36.9062 16.9663 36.1089 16.2402 35.1489C15.4355 34.0752 15.0005 32.77 15 31.4287C15.04 29.8628 15.6313 28.3613 16.6699 27.189C17.6567 26.0615 18.9834 25.2856 20.4502 24.979C21.5698 24.7515 22.731 24.8452 23.7998 25.249C24.8354 25.6519 25.7485 26.3169 26.4502 27.1787C27.6577 28.7588 28.3926 30.6484 28.5698 32.6289C28.769 34.1421 28.6772 35.6797 28.2998 37.1587C27.8975 38.7358 27.0381 40.1587 25.8301 41.249C25.3433 41.7559 24.7754 42.1782 24.1499 42.499C23.3975 42.9219 22.5532 43.1553 21.6899 43.1787C21.4316 43.1763 21.1768 43.1216 20.9399 43.019C20.7139 42.8848 20.5024 42.7275 20.3101 42.5488C20.1426 42.4209 19.9824 42.2842 19.8301 42.1387C19.48 41.8086 19.9702 40.5586 21.0498 39.6187C21.4141 39.2559 21.748 38.8647 22.0498 38.4487C22.3398 38.0586 22.6401 37.749 22.8398 37.4487C23.0386 37.1353 23.1997 36.7998 23.3198 36.4487C23.4473 36.1216 23.5576 35.7876 23.6499 35.4487C23.7373 35.0806 23.7974 34.7061 23.8301 34.3286C23.8647 33.936 23.8647 33.5415 23.8301 33.1489C23.77 32.3545 23.5737 31.5767 23.25 30.8486C23.0908 30.4717 22.856 30.1313 22.5601 29.8486C22.354 29.6924 22.0977 29.6177 21.8398 29.6387C21.2017 29.6851 20.6348 30.0654 20.3501 30.6387L20.2402 30.6089Z" fill-rule="evenodd" fill="currentColor"/>
	<path d="M38.9297 71.0986C38.0269 71.8779 37.4546 72.9722 37.3301 74.1587C37.3081 74.5454 37.4761 74.9185 37.7798 75.1587L37.8999 75.2886L38.0801 75.3984L38.4497 75.6484C38.7598 75.7485 39.1099 75.9585 39.3799 76.0288C40.063 76.2358 40.8037 76.1104 41.3799 75.6885C42.1099 75.1543 42.686 74.437 43.0498 73.6084C43.499 72.6699 43.751 71.6489 43.79 70.6084C43.8838 68.3242 43.25 66.0693 41.98 64.1685C40.7642 62.4136 39.1636 60.96 37.2998 59.9185C34.9126 58.4766 32.1787 57.709 29.3896 57.6987C28.5298 57.6987 28.54 57.4785 29.27 57.0186C30.52 56.3096 31.9614 56.0122 33.3896 56.1685C36.6611 56.5435 39.77 57.7944 42.3896 59.7886C43.7744 60.8262 44.9429 62.1235 45.8301 63.6084C46.7417 65.1172 47.353 66.7881 47.6299 68.5288C47.9712 70.7178 47.751 72.958 46.9897 75.0386C46.5928 76.1196 46.0293 77.1318 45.3198 78.0386C44.5049 79.0952 43.4053 79.8965 42.1499 80.3486C40.7549 80.7959 39.252 80.7744 37.8701 80.2886C36.5879 79.8833 35.4194 79.1807 34.46 78.2388C33.4194 77.1631 32.8228 75.7349 32.79 74.2388C32.7778 72.9087 33.1235 71.5996 33.79 70.4487C34.5225 69.1602 35.5132 68.0371 36.6997 67.1484C37.8862 66.2559 39.25 65.6284 40.6997 65.3086C42.854 64.8496 45.0986 65.0986 47.1001 66.0186C49.0449 66.8945 50.7197 68.2759 51.9497 70.0186C53.8794 72.6548 54.9102 75.8418 54.8896 79.1084C54.9307 79.8042 54.8901 80.5024 54.77 81.1885C54.23 83.6987 53.6299 84.3384 52.4399 84.5386C52.187 84.603 51.9297 84.6465 51.6699 84.6685C50.8896 84.6685 50.3999 83.5288 50.3896 81.8784C50.3896 81.2686 50.3896 80.6587 50.29 80.0688C50.1899 79.4785 50.29 78.9185 50.2197 78.3584C50.1694 77.3027 49.9985 76.2559 49.71 75.2388C49.1636 73.3374 47.9985 71.6733 46.3999 70.5088C45.8223 70.1094 45.1841 69.8052 44.5098 69.6084C43.8569 69.4443 43.1802 69.3936 42.5098 69.4585C41.168 69.5942 39.9204 70.2129 39 71.1987L38.9297 71.0986Z" fill-rule="evenodd" fill="currentColor"/>
	<path d="M66.7202 42.4092C67.4268 40.7876 68.8916 39.6226 70.6299 39.2988C71.4688 39.1333 72.3315 39.1333 73.1699 39.2988C73.8267 39.4316 74.4644 39.6431 75.0703 39.9287C76.1382 40.4312 77.1284 41.0845 78.0103 41.8691C78.8882 42.6235 79.6587 43.4951 80.3003 44.459C81.375 45.9346 81.9907 47.6948 82.0703 49.519C82.0854 51.2417 81.4819 52.9131 80.3701 54.229C79.4058 55.3569 78.2129 56.2666 76.8701 56.8989C74.4023 58.1611 71.6333 58.7148 68.8701 58.499C66.4722 58.3315 64.1582 57.5498 62.1499 56.229C59.6377 54.6196 57.6982 52.2573 56.6104 49.479C56.2603 48.6392 56.9102 48.479 57.8701 48.7588C59.0728 49.1782 60.166 49.8618 61.0703 50.7588C62.6499 52.4761 64.6914 53.7017 66.9502 54.2891C68.0312 54.5806 69.1514 54.7021 70.27 54.6489C71.4395 54.6147 72.5981 54.4131 73.71 54.0488C75.0581 53.6479 76.2559 52.854 77.1499 51.769C77.8467 50.8716 78.0454 49.6846 77.6802 48.6089C77.2261 47.1616 76.3438 45.8853 75.1499 44.9487C74.5483 44.4419 73.874 44.0273 73.1499 43.7188C72.853 43.5996 72.5449 43.5093 72.23 43.4487C72.0225 43.4038 71.8076 43.4038 71.6001 43.4487C71.0352 43.5522 70.6191 44.0352 70.6001 44.6089C70.5796 45.2681 70.9209 45.8857 71.4902 46.2188C73.6201 47.8188 77.3999 47.0591 79.5903 45.019C81.2515 43.5518 81.8975 41.2461 81.2402 39.1289C81.1104 38.689 80.8799 38.2988 80.75 37.8491C80.4834 37.25 80.2983 36.6177 80.2002 35.9688C80.2651 35.4395 80.4209 34.9253 80.6602 34.4487C80.7803 34.229 80.8604 33.979 80.9702 33.7988C81.0801 33.6191 81.52 33.4189 82.0801 33.5488C82.8755 33.6929 83.5884 34.1279 84.0801 34.769C84.3223 35.0542 84.5464 35.355 84.75 35.6689C84.9697 35.9902 85.1699 36.3242 85.3501 36.6689C85.7251 37.4038 85.9946 38.1885 86.1499 38.999C86.4595 40.7251 86.2896 42.5024 85.6602 44.1392C84.3438 47.3462 81.686 49.814 78.3901 50.8892C77.1812 51.3149 75.9116 51.5444 74.6299 51.5688C73.2549 51.5918 71.8906 51.3188 70.6299 50.769C69.9453 50.4678 69.3032 50.0776 68.7202 49.6089C68.0239 49.0645 67.4453 48.3838 67.02 47.6089C66.0967 45.9922 65.9497 44.0459 66.6201 42.3091L66.7202 42.4092Z" fill-rule="evenodd" fill="currentColor"/>
	<defs/>
</svg>
