<svg width="24" height="24" viewBox="0 0 110 110" fill="none" xmlns="http://www.w3.org/2000/svg" xmlns:xlink="http://www.w3.org/1999/xlink">
	<path d="M73.4629 19.582C72.1528 20.4019 68.9326 22.5117 64.9028 25.4419C62.9028 26.9019 60.6626 28.562 58.3628 30.3418C56.063 32.1221 53.583 33.8521 51.2026 35.6919C46.4229 39.3618 41.833 43.1719 38.373 46.312C34.9126 49.4521 32.5728 51.8818 31.8931 52.6519L30.833 53.8418L30.1528 54.6421C30.103 54.7021 29.9727 54.8618 29.9927 54.8218C29.9375 54.8457 29.897 54.8936 29.8828 54.9521C29.8828 55.0317 29.9727 55.0317 30.043 55.0117C29.9028 55.082 30.5928 54.792 30.853 54.6821L31.853 54.2222C31.9629 54.1621 33.3428 53.562 35.4229 52.5718C37.5029 51.582 40.293 50.2422 43.1626 48.7422C48.8828 45.7422 55.1626 42.6318 57.2227 41.7422C57.4829 41.6318 58.543 41.1318 60.2729 40.4019C61.123 40.0317 62.1626 39.6118 63.3428 39.1519L65.2329 38.4521L66.2329 38.1118C66.6128 37.9922 66.853 37.8818 67.583 37.6821C68.8193 37.2979 70.0786 36.9907 71.353 36.7617C71.9727 36.6719 72.6626 36.4922 73.2427 36.4722L75.0127 36.3921C75.5728 36.3921 76.0728 36.4819 76.603 36.5317C77.1328 36.582 77.603 36.7422 78.0728 36.832C78.2988 36.8735 78.5132 36.9619 78.7026 37.0918L79.2827 37.4121C79.4595 37.5322 79.6235 37.6694 79.7729 37.8218C79.9492 37.9614 80.1069 38.123 80.2427 38.3018C80.4663 38.7144 80.5439 39.1899 80.4629 39.6519C80.4043 40.0752 80.29 40.4888 80.123 40.8818C79.6714 41.9302 79.0308 42.8862 78.2329 43.7021C77.1938 44.8076 76.0957 45.856 74.9429 46.8418L73.1128 48.4019L71.8628 49.4019C65.6128 54.3921 59.1826 59.252 54.103 63.252C49.0229 67.252 45.2729 70.4521 44.043 71.6421C43.1626 72.4819 41.2427 74.1719 38.9526 76.4019L37.4629 77.832C37.123 78.1719 36.7627 78.542 36.4126 78.9521C35.585 79.7998 34.9624 80.8262 34.5928 81.9521C34.5229 82.2515 34.5229 82.5625 34.5928 82.8618C34.6587 83.1543 34.8701 83.3926 35.1528 83.4922C35.6934 83.6367 36.2622 83.6367 36.8027 83.4922C37.8696 83.167 38.9067 82.7524 39.9028 82.252L41.4629 81.582L43.3228 80.6919L46.103 79.5117C46.4292 79.3394 46.8145 79.3159 47.1597 79.4482C47.5044 79.5806 47.7754 79.855 47.9028 80.2021C48.167 80.8115 47.9858 81.5225 47.4629 81.9321C46.1729 82.7319 44.873 83.7119 43.4629 84.4819L42.2827 85.1621C41.7729 85.4521 41.2827 85.752 40.7329 86.0317C39.7007 86.6045 38.6353 87.1152 37.543 87.562C35.7812 88.3281 33.8574 88.6475 31.9429 88.4922C31.0771 88.438 30.2568 88.0845 29.623 87.4922C29.0303 86.7729 28.7173 85.8638 28.7427 84.9321C28.8091 83.1084 29.3726 81.3379 30.373 79.812C31.0811 78.623 31.9014 77.5044 32.8228 76.4722C33.293 75.8921 33.8228 75.3218 34.3931 74.7319L35.6929 73.4219C39.0029 70.1519 42.9429 66.8018 46.6929 63.7119C54.293 57.562 61.2026 52.3418 61.6929 51.8721C64.2627 49.812 66.8228 47.7422 69.333 45.6519C70.1128 45.002 70.1929 44.9019 70.4927 44.6519L71.2529 43.9219C71.7197 43.4956 72.127 43.0078 72.4629 42.4722C72.4629 42.3521 72.583 42.1719 72.4629 42.0718C72.3086 42.0142 72.147 41.9775 71.9829 41.9619C71.6504 41.9292 71.3154 41.9292 70.9829 41.9619C70.3882 42.0356 69.8022 42.166 69.2329 42.3521L68.6826 42.542L67.6826 42.9219C66.6826 43.2617 65.7627 43.6719 64.8027 44.062C62.8828 44.8721 60.9829 45.7817 59.083 46.7021C55.293 48.582 51.5527 50.6118 47.8228 52.7021C44.313 54.6221 40.8931 56.7021 37.3428 58.752C36.4629 59.252 35.563 59.752 34.6431 60.2422C34.1626 60.4922 33.793 60.7021 33.1328 61.022C32.4727 61.3418 32.0229 61.5918 31.0527 62.022L29.7529 62.5518L28.4829 62.8721L27.853 63.022L27.2627 63.022C26.8838 63.0571 26.502 63.0571 26.123 63.022C24.6396 62.9131 23.25 62.2573 22.2227 61.1821C21.5078 60.3652 21.0825 59.335 21.0127 58.252C20.9478 57.1387 21.1318 56.0249 21.5527 54.9922L21.9229 54.1221C22.063 53.832 22.2529 53.542 22.4229 53.252C22.7773 52.6606 23.1646 52.0898 23.583 51.542C23.9727 51.022 24.373 50.542 24.7329 50.1021L25.5229 49.1919C27.6089 46.9302 29.8296 44.7964 32.1729 42.8018C36.7529 38.8618 41.5029 35.272 46.3428 31.8018C49.103 29.8018 51.8896 27.8652 54.7026 25.9922C57.5928 24.2119 60.5029 22.4722 63.4629 20.812C66.9727 18.8721 70.563 17.082 74.2227 15.3818C76.1089 14.439 78.1948 13.9653 80.3027 14.002C81.123 14.002 79.7129 14.9019 78.043 16.1719C76.373 17.4419 74.353 18.9922 73.4629 19.582Z" fill-rule="evenodd" fill="currentColor"/>
	<defs/>
</svg>
