<svg width="24" height="24" viewBox="0 0 110 110" fill="none" xmlns="http://www.w3.org/2000/svg" xmlns:xlink="http://www.w3.org/1999/xlink">
	<path d="M68.5913 21.5928C69.1782 21.4932 69.7778 21.6743 70.2109 22.0825C70.7021 22.5347 71.0791 23.0967 71.311 23.7227C71.4912 24.1626 71.1709 25.3027 70.8213 25.4126C70.1509 25.6328 69.4912 25.8525 68.8213 25.9927C68.731 25.9927 68.2812 26.0425 67.6509 26.0728L66.5713 26.1328L65.3213 26.2827C64.4512 26.3628 63.5513 26.5928 62.751 26.7427C61.9512 26.8926 61.2612 27.1626 60.8013 27.2925C59.0112 27.9126 57.291 28.4824 55.521 28.9927C54.6211 29.2227 53.7612 29.6025 52.8813 29.9126C52.001 30.2227 51.1909 30.6729 50.4111 31.0928C48.7339 31.9443 47.1226 32.9204 45.5913 34.0127C44.9209 34.5127 44.1909 34.9229 43.4609 35.3628C40.9463 36.8555 38.7783 38.8667 37.1011 41.2627C36.75 41.6089 36.501 42.0444 36.3813 42.5225C36.3213 42.9429 35.0913 44.6929 34.0811 46.5825C33.0713 48.4727 32.1709 50.4624 31.9209 50.9028C30.644 53.1094 29.729 55.5063 29.2109 58.0024C29.1113 58.3628 29.2109 58.7524 28.9312 59.0728C28.6567 59.4092 28.4771 59.8135 28.4111 60.2427C28.4111 60.6426 28.4111 61.0527 28.3413 61.4526C28.2109 62.5928 28.291 63.7124 28.1313 64.9028C28.0469 65.5093 27.9268 66.1104 27.771 66.7026C27.7354 66.8828 27.604 67.0283 27.4287 67.083C27.2534 67.1372 27.0625 67.0908 26.9312 66.9624C26.6211 66.4727 26.4209 66.9624 26.1812 67.0825C26.0967 67.1245 26.0049 67.1484 25.9111 67.1528C25.6826 66.811 25.4785 66.4531 25.3013 66.0825C24.854 65.2827 24.4761 64.4468 24.1709 63.5825C23.8271 62.6719 23.5298 61.7441 23.2812 60.8027C23.1401 60.2559 23.0566 59.6963 23.0312 59.1328C23.0312 59.0825 22.9609 58.3428 23.0312 57.2427C23.0312 56.6929 23.0811 56.0527 23.1113 55.3525C23.1411 54.6528 23.271 53.9326 23.3511 53.1929C23.6699 50.9482 24.1616 48.7314 24.8213 46.5625C25.0186 45.918 25.3262 45.312 25.731 44.7725C25.731 44.7026 25.9912 44.1226 26.3213 43.2827C26.6509 42.4429 27.1211 41.3828 27.6812 40.3628L28.4111 38.8228L29.1909 37.5127C29.4541 37.0361 29.7446 36.5757 30.061 36.1328C30.6509 35.4126 31.1611 34.6226 31.8213 33.9526C32.4307 33.2339 33.1699 32.6367 34.001 32.1929C34.3193 31.9927 34.6025 31.7427 34.8413 31.4526C37.1064 29.2256 39.6753 27.3301 42.4712 25.8228L44.561 24.6128C45.251 24.1929 45.9712 23.8228 46.7012 23.4727C46.9741 23.3618 47.2549 23.2715 47.541 23.2026C47.9009 23.1138 48.2549 23.0034 48.6011 22.8726C52.1416 21.3809 55.8813 20.4141 59.7012 20.0024C60.7041 19.9868 61.7065 20.0435 62.7012 20.1729L64.5312 20.4028C64.9448 20.4756 65.3618 20.5259 65.7812 20.5527C66.2798 20.6577 66.7612 20.833 67.2109 21.0728C67.6309 21.3384 68.1006 21.5156 68.5913 21.5928Z" fill-rule="evenodd" fill="currentColor"/>
	<path d="M76.2412 43.9927C77.0312 43.5625 77.8311 43.9927 78.5513 44.9927C78.8008 45.479 78.8408 46.0459 78.6611 46.5625C78.2935 46.9214 77.9028 47.2554 77.4912 47.5625C77.3711 47.6626 76.2812 47.9526 75.1211 48.4424C74.0972 48.8745 73.0962 49.3584 72.1211 49.8926C71.0015 50.6426 69.791 51.1123 68.7114 51.8223C67.5859 52.4771 66.5005 53.1982 65.4614 53.9824C64.9487 54.3789 64.458 54.8027 63.9912 55.2524C63.4937 55.6846 63.0352 56.1597 62.6211 56.6724C62.2324 57.1089 61.8003 57.5039 61.3311 57.8525C60.5938 58.5327 59.9238 59.2827 59.3311 60.0923C58.7681 60.9453 58.2734 61.8418 57.8511 62.7725C57.6851 63.0806 57.5928 63.4229 57.5811 63.7725C57.5225 64.1665 57.4082 64.5503 57.2412 64.9126C57.0713 65.4927 56.8413 66.2324 56.5913 66.9126C56.3413 67.5923 56.1714 68.4023 55.9814 69.0024C55.873 69.4233 55.7397 69.8379 55.5811 70.2427C55.2515 71.0923 54.9712 71.9727 54.5811 72.8423C54.1914 73.7124 54.061 74.6426 53.8013 75.5522C53.7114 75.8223 53.8013 76.1025 53.561 76.3423C53.1885 76.8389 53.0078 77.4531 53.0513 78.0723C52.9414 78.8823 52.811 79.7124 52.6514 80.5425C52.5327 80.9731 52.3823 81.394 52.2012 81.8022C52.0513 82.1924 51.561 82.0327 51.4912 81.9126C51.3013 81.5425 51.0811 81.9126 50.8711 81.9126C50.7988 81.9263 50.7241 81.9263 50.6514 81.9126C50.5913 81.9126 50.1611 80.6826 49.6514 79.3525C49.3926 78.7349 49.2017 78.0913 49.0811 77.4326C48.9834 77.0576 48.9097 76.6768 48.8613 76.2925C48.8613 76.2227 48.791 74.2925 48.7812 72.2324C48.8447 70.6831 49.0117 69.1396 49.2812 67.6123C49.3872 67.1577 49.5483 66.7178 49.7612 66.3022C49.7612 66.3022 49.8413 65.8325 50.0112 65.2324L50.6211 63.0723C50.8203 62.3447 51.064 61.6299 51.3511 60.9326C51.5811 60.3423 51.7412 59.9326 51.7715 59.8726C52.0479 59.2739 52.355 58.6899 52.6914 58.1226C53.0171 57.5825 53.4214 57.0938 53.8911 56.6724C54.0791 56.4863 54.2437 56.2783 54.3813 56.0522C54.9834 55.0986 55.6621 54.1958 56.4111 53.3525C57.2212 52.5522 57.9814 51.7124 58.8511 50.9927C59.7212 50.2725 60.5312 49.4126 61.4712 48.7427C61.6553 48.6372 61.8457 48.5435 62.041 48.4624C62.2837 48.3574 62.5176 48.2334 62.7412 48.0923C63.8354 47.2896 65.02 46.6182 66.2715 46.0923L67.1714 45.6426L68.1113 45.2827C68.7314 45.0327 69.3511 44.7725 69.9614 44.4927C70.2192 44.3892 70.4873 44.312 70.7612 44.2627L72.0215 44.0923C72.7358 44.0288 73.4443 43.9116 74.1411 43.7427C74.541 43.5923 75.9414 44.1826 76.2412 43.9927Z" fill-rule="evenodd" fill="currentColor"/>
	<defs/>
</svg>
