<svg width="24" height="24" viewBox="0 0 110 110" fill="none" xmlns="http://www.w3.org/2000/svg" xmlns:xlink="http://www.w3.org/1999/xlink">
	<path d="M52.0796 67.1836C55.7417 66.7148 59.2837 65.5615 62.5195 63.7837C65.7202 62.1426 68.4678 59.7383 70.5195 56.7837C71.4038 55.4072 71.9771 53.8545 72.1997 52.2339C72.2944 51.4468 72.2944 50.6509 72.1997 49.8638C72.1113 49.0688 71.9302 48.2866 71.6597 47.5337C71.2876 46.2852 70.3999 45.2554 69.2197 44.7036C67.8809 44.2402 66.4214 44.2646 65.0996 44.7739C62.7383 45.6211 60.6606 47.1104 59.0996 49.0737C57.3916 51.1494 56.0029 53.4683 54.9795 55.9536C54.5044 57.0513 54.1069 58.1807 53.7896 59.334C53.4912 60.4775 53.2705 61.6401 53.1294 62.814C52.8613 65.1831 52.9453 67.5791 53.3794 69.9238C53.5796 71.0439 53.9155 72.1353 54.3794 73.1738C54.6045 73.6636 54.8618 74.1382 55.1494 74.5938C55.4492 75.0205 55.7837 75.4219 56.1494 75.7939C56.4951 76.1646 56.877 76.4995 57.2896 76.7939C57.7695 77.0537 58.2896 77.3638 58.7295 77.604C59.1694 77.8438 59.7295 78.064 60.2998 78.2139C60.8452 78.3765 61.3994 78.5103 61.9595 78.6138C66.5498 79.4141 71.6294 78.1836 76.0796 76.0239C80.623 73.9136 84.4478 70.5166 87.0796 66.2539C89.5137 62.4541 91.1343 58.1909 91.8394 53.7339C92.6406 49.353 92.1401 44.833 90.3994 40.7339C89.2148 38.2061 87.3828 36.0361 85.0894 34.4438C82.749 32.8325 80.1055 31.7134 77.3193 31.1538C71.6353 29.9893 65.7368 30.4751 60.3193 32.5537C58.6396 33.2236 57.8994 33.5537 57.8496 33.3237C57.7998 33.0938 58.4697 32.4736 59.8496 31.5938C61.7607 30.4126 63.8271 29.5039 65.9897 28.894C69.1382 27.9888 72.4268 27.6738 75.6895 27.9639C78.9741 28.2593 82.1733 29.1719 85.1196 30.6538C88.168 32.2261 90.7529 34.5664 92.6196 37.4438C94.3994 40.3569 95.481 43.6431 95.7798 47.0439C96.0762 50.3364 95.8667 53.6548 95.1597 56.8838C93.8115 63.3647 90.6724 69.3374 86.0996 74.124C83.7427 76.4937 81.0049 78.4507 77.9995 79.9141C75.0312 81.4155 71.8403 82.4287 68.5498 82.9141C66.519 83.2363 64.4551 83.2935 62.4097 83.084C60.27 82.8706 58.1885 82.2637 56.2695 81.2939C55.7896 81.0337 55.2695 80.7837 54.8296 80.4937C54.3896 80.2036 53.8296 79.814 53.4395 79.4336C52.5933 78.6641 51.8472 77.7905 51.2197 76.834C50.0649 74.9922 49.2456 72.9609 48.7998 70.834C47.9292 66.7866 47.9292 62.6011 48.7998 58.5537C49.6914 54.5425 51.3931 50.7549 53.7998 47.4238C55.1357 45.5884 56.7363 43.9604 58.5498 42.5938C60.4751 41.1377 62.6924 40.1143 65.0498 39.5938C66.3198 39.3359 67.624 39.2886 68.9097 39.4536C70.2817 39.6396 71.5923 40.1392 72.7397 40.9141C73.8555 41.7051 74.7866 42.7285 75.4697 43.9141C76.1016 44.9932 76.5732 46.1587 76.8696 47.374C77.4297 49.7241 77.4297 52.1733 76.8696 54.5239C76.29 56.7993 75.271 58.9395 73.8696 60.8237C71.1274 64.353 67.6011 67.1948 63.5693 69.124C61.1616 70.3384 58.6216 71.2715 55.9995 71.9038C53.3281 72.5947 50.5615 72.8447 47.8096 72.644C45.041 72.3945 42.3354 71.6743 39.8096 70.5137C37.3062 69.2969 35.0483 67.6289 33.1494 65.5938C30.2871 62.5303 28.2646 58.7793 27.2798 54.7036C25.7905 48.6235 26.499 42.2124 29.2798 36.604L30.0195 35.2437L30.8296 33.9336C31.4277 33.0605 32.0967 32.2378 32.8296 31.4736C34.2319 29.9004 35.8677 28.5513 37.6797 27.4736C38.2065 27.1772 38.7671 26.9453 39.3496 26.7837C40.0737 26.5693 40.8403 26.5386 41.5796 26.6938C42.4106 26.9077 43.144 27.3979 43.6597 28.084C43.8848 28.3638 44.0762 28.6689 44.2295 28.9937C44.2896 29.144 44.3594 29.2837 44.4297 29.4536C44.4995 29.624 44.5498 29.8438 44.5894 30.0439C44.7578 31.0488 44.6719 32.0801 44.3394 33.0439C44.0728 33.8442 43.7383 34.6201 43.3394 35.3638C42.603 36.7817 41.7251 38.1221 40.7197 39.3638C38.7881 42.0078 36.2456 44.145 33.3096 45.5938C32.4849 45.9565 31.6182 46.2148 30.7295 46.3638C30.2695 46.4375 29.8052 46.481 29.3394 46.4937C28.8994 46.4937 28.5298 46.4937 28.1196 46.4937C26.4668 46.4653 24.8242 46.23 23.2295 45.7939C19.7134 44.9038 16.71 42.6226 14.9097 39.4736C13.4004 36.729 12.7617 33.5898 13.0796 30.4736C13.2715 28.0938 13.9521 25.7788 15.0796 23.6738C15.8394 22.2173 16.8555 20.9097 18.0796 19.814C18.8994 19.0649 19.8716 18.502 20.9297 18.1641C21.7051 17.9639 22.5161 17.9468 23.2998 18.1138C23.8794 18.1895 24.4434 18.3584 24.9697 18.6138C25.2598 18.8237 25.2397 19.084 24.9697 19.4438C24.8315 19.6523 24.6777 19.8496 24.5098 20.0337C24.3296 20.2837 24.0996 20.5239 23.8594 20.834C23.4194 21.4839 22.8096 22.144 22.1797 23.0239C21.4453 24.0664 20.8286 25.1865 20.3394 26.3638C19.502 28.3271 19.106 30.4507 19.1797 32.584C19.2046 34.4751 19.8789 36.3003 21.0894 37.7539C22.3931 39.1348 24.1216 40.0396 25.9995 40.3237C26.5322 40.4277 27.0693 40.5044 27.6094 40.5537C28.1494 40.5537 28.7798 40.6138 29.2695 40.6338C30.1094 40.5942 30.9282 40.3579 31.6597 39.9438C33.5942 38.8599 35.2939 37.4014 36.6597 35.6538C37.3794 34.7744 38.022 33.834 38.5796 32.8438C38.8218 32.4214 39.0293 31.98 39.1997 31.5239C39.231 31.439 39.2578 31.3521 39.2798 31.2637C39.3081 31.2002 39.3281 31.1328 39.3394 31.064C39.4595 30.9238 39.0396 30.9336 39.9995 30.9438C40.1572 30.9336 40.3145 30.9136 40.4697 30.8838C40.6094 30.8838 40.6597 30.8838 40.7695 30.834L40.9097 30.834L40.9795 30.834L39.4297 31.4238L39.5298 31.374C39.6802 31.3076 39.8242 31.2271 39.9595 31.1338L40.1597 30.9839L40.3096 30.8838C40.4043 30.8096 40.4946 30.7295 40.5796 30.644C40.8193 30.4336 40.8594 30.2437 40.8096 30.4038C40.7188 30.812 40.7188 31.2354 40.8096 31.644C40.8096 31.7637 40.8096 32.0137 40.8994 32.1738L40.7798 32.2339C40.6318 32.3057 40.4883 32.3857 40.3496 32.4736C39.9424 32.7427 39.5547 33.04 39.1895 33.3638C38.3208 34.1348 37.5117 34.9707 36.7695 35.8638C36.436 36.2544 36.1221 36.6616 35.8296 37.084C35.5498 37.5938 35.2095 38.084 34.9595 38.604C33.2969 41.6572 32.3979 45.0674 32.3394 48.5439C32.2656 52.0366 33.1182 55.4868 34.8096 58.5439C36.4663 61.5469 38.9844 63.9849 42.0396 65.5439C43.5903 66.3115 45.2441 66.8506 46.9497 67.144L48.2495 67.3237C48.6694 67.3237 49.0596 67.4038 49.4897 67.4038C50.3618 67.416 51.2339 67.3691 52.0996 67.2637L52.0796 67.1836Z" fill-rule="evenodd" fill="currentColor"/>
	<defs/>
</svg>
