<svg width="24" height="24" viewBox="0 0 110 110" fill="none" xmlns="http://www.w3.org/2000/svg" xmlns:xlink="http://www.w3.org/1999/xlink">
	<path d="M20.1646 66.479C23.7148 65.4097 27.1025 63.8623 30.2349 61.8789L40.5547 55.5791C43.0347 54.0488 45.5547 52.3291 47.9248 50.8691C48.9248 50.2188 50.105 49.4292 51.2646 48.709C52.4668 47.9678 53.7124 47.2998 54.9946 46.709C55.6616 46.3955 56.3516 46.1055 57.0649 45.8389C57.9849 45.4907 58.9404 45.2461 59.9146 45.1089C60.9155 44.9526 61.938 45.0107 62.9146 45.2788L63.625 45.479C63.8604 45.5513 64.0811 45.6665 64.2749 45.8188C64.6548 46.1021 64.9917 46.439 65.2749 46.8188C65.5732 47.1646 65.8008 47.5654 65.9448 47.999C66.0396 48.4326 66.0898 48.875 66.0947 49.3188C66.022 50.2788 65.7852 51.2192 65.3945 52.0991C65.1948 52.5591 65.0049 53.0391 64.7847 53.4688L64.4746 54.0791L64.2446 54.519L63.3149 56.2188L62.6948 57.3291C62.5513 57.5791 62.4277 57.8398 62.3247 58.1089C62.1875 58.3774 62.1519 58.6865 62.2246 58.979C62.3862 59.2241 62.6733 59.356 62.9648 59.3188C63.2339 59.3105 63.502 59.2769 63.7646 59.2188L64.1646 59.1191L64.7349 58.939L65.3149 58.7588L66.0747 58.4888C66.5947 58.2988 67.0747 58.1089 67.625 57.8892C69.6948 57.0391 71.7349 56.0288 73.7646 55.0088C76.3853 53.5938 79.0791 52.3188 81.835 51.189C84.6738 50.002 87.7002 49.3252 90.7749 49.189C92.7749 49.189 92.4048 49.8892 90.9746 50.7788L89.7246 51.5288C89.2446 51.7988 88.7246 52.0791 88.1548 52.4189C87.0249 53.0288 85.7446 53.7891 84.2949 54.4189L82.3647 55.4189C81.7246 55.7588 81.0947 56.0889 80.4346 56.4189C79.1348 57.0791 77.8447 57.769 76.5146 58.479C73.8105 59.9648 71.0264 61.3003 68.1748 62.479L67.0547 62.9189C66.9048 62.979 66.5449 63.0889 66.2949 63.1689L65.5249 63.479L64.6948 63.7388L64.2847 63.8691L63.7646 63.9688C63.1118 64.1431 62.4404 64.2402 61.7646 64.2588C61.166 64.3022 60.5645 64.2446 59.9849 64.0889C59.4766 63.9204 58.9976 63.6743 58.5649 63.3589C58.3428 63.1792 58.1323 62.9854 57.9346 62.7788C57.7627 62.5503 57.6118 62.3057 57.4849 62.0488C57.2393 61.5645 57.1025 61.0317 57.085 60.4888C57.0649 59.2363 57.3501 57.9976 57.9146 56.8789C58.1748 56.269 58.5547 55.5791 58.8247 55.0688L59.4849 53.939L60.625 52.019C60.7505 51.8555 60.8672 51.6851 60.9746 51.5088C61.145 51.272 61.2036 50.9727 61.1348 50.689C60.7598 50.354 60.2227 50.2715 59.7646 50.479L59.5449 50.5488C59.3911 50.604 59.2412 50.667 59.0947 50.7388C58.7847 50.8691 58.4746 51.019 58.1548 51.1792C57.5347 51.5088 56.8945 51.8789 56.2646 52.2788C55.0146 53.0889 53.7349 53.939 52.4346 54.8789L51.4346 55.5889L50.3647 56.2891L48.3647 57.5889L37.9448 64.0488L32.7446 67.269C30.9546 68.3291 29.1147 69.3691 27.1748 70.269C24.7417 71.4619 22.1582 72.3198 19.4946 72.8188C18.0801 73.0757 16.6401 73.1631 15.2046 73.0791C14.3188 73.0132 13.4487 72.811 12.6245 72.479C11.7715 72.1191 11.0146 71.564 10.4146 70.8589C9.97559 70.3203 9.63672 69.7075 9.41455 69.0488C9.19531 68.4023 9.06104 67.73 9.01465 67.0488C8.95996 65.9209 9.05762 64.791 9.30469 63.689C9.77148 61.7051 10.4414 59.7749 11.3047 57.9292C12.9082 54.3613 14.8506 50.9556 17.105 47.7588C18.8447 45.2988 20.6948 42.9688 22.6147 40.7588C23.6147 39.6489 24.5547 38.5391 25.5547 37.4688C26.5547 36.3989 27.5547 35.3789 28.6548 34.3589C29.7549 33.3389 30.4648 32.5688 31.4248 31.7188C34.9746 28.5288 36.355 27.8389 37.9346 28.0288C38.2886 28.0405 38.6401 28.0874 38.9849 28.1689C39.4648 28.3389 39.4746 28.8989 39.0947 29.7588C38.4878 30.9858 37.7104 32.1206 36.7847 33.1289L26.5347 44.8989C23.1997 48.7134 20.3696 52.9414 18.1147 57.479C17.3047 59.1279 16.603 60.8286 16.0146 62.5688C15.7524 63.3394 15.5483 64.1279 15.4048 64.9292C15.291 65.4951 15.2407 66.0718 15.2549 66.6489C15.2549 66.709 15.2549 66.6489 15.2549 66.7388L15.3149 66.7388C15.3149 66.7388 15.3149 66.7388 15.3745 66.7388L15.5649 66.7388C16.2646 66.8013 16.9697 66.7808 17.6646 66.6792C18.4824 66.5752 19.291 66.4116 20.085 66.189L20.1646 66.479Z" fill-rule="evenodd" fill="currentColor"/>
	<defs/>
</svg>
