<svg width="24" height="24" viewBox="0 0 110 110" fill="none" xmlns="http://www.w3.org/2000/svg" xmlns:xlink="http://www.w3.org/1999/xlink">
	<path d="M50.5044 69.9102C50.7544 68.7798 51.0244 67.6201 51.3643 66.4199C51.7222 65.1084 52.2319 63.8428 52.8843 62.6499C53.2861 61.915 53.7915 61.2417 54.3843 60.6499C54.7241 60.3223 55.0996 60.0337 55.5044 59.79C55.8564 59.5698 56.228 59.3823 56.6143 59.23C57.9233 58.6831 59.3105 58.3457 60.7241 58.23C62.5303 58.0635 64.3496 58.1104 66.1445 58.3701C67.6343 58.5898 69.0542 58.8501 70.4141 59.02C71.1045 59.1201 71.7544 59.1797 72.4141 59.21C73.2241 59.21 74.0444 59.2998 74.7544 59.3799C76.2144 59.5298 77.6045 59.6797 78.9541 59.6997C80.1616 59.8003 81.3765 59.6226 82.5044 59.1797C82.791 59.0469 83.0142 58.8062 83.1245 58.5098C83.1768 58.3384 83.2007 58.1592 83.1943 57.98C83.1943 57.7397 83.1943 57.5 83.1143 57.25C82.8281 56.2051 82.2729 55.2534 81.5044 54.4897C80.4106 53.3843 79.2192 52.3804 77.9443 51.4897C76.6743 50.4897 75.3545 49.4897 74.0542 48.4897C73.2544 47.7998 73.5444 47.6299 74.5044 47.7197C76.0605 47.8154 77.5923 48.1528 79.0444 48.7197C79.4443 48.8901 79.8643 49.0698 80.2544 49.2798C80.6445 49.4897 81.0244 49.7598 81.4043 50.0098C82.1924 50.5225 82.9385 51.0977 83.6343 51.73C84.397 52.4263 85.0688 53.2158 85.6343 54.0801C86.2793 55.0776 86.6992 56.2036 86.8643 57.3799C86.9829 58.103 86.9453 58.8428 86.7544 59.5498C86.5283 60.3589 86.0977 61.0957 85.5044 61.6899C84.5425 62.5645 83.354 63.1504 82.0742 63.3799C80.2012 63.7256 78.2871 63.793 76.3945 63.5801C75.3945 63.4897 74.3042 63.3999 73.3945 63.3799L72.7441 63.3799L71.8745 63.3799C71.3042 63.3799 70.7441 63.3799 70.1943 63.3799C68.0044 63.2998 65.9443 63.1099 64.0044 63.04C61.8945 62.98 59.8745 62.96 58.3545 63.6797L58.2041 63.7397L58.1245 63.7397C58.0669 63.7622 58.0132 63.7925 57.9644 63.8301C57.8359 63.915 57.7183 64.0156 57.6143 64.1299C57.3369 64.4277 57.1045 64.7646 56.9243 65.1299C56.4639 66.0332 56.0986 66.9814 55.8345 67.96C55.0942 70.5098 54.6245 73.3101 53.8345 76.1201C53.5542 77.2246 53.2036 78.3101 52.7842 79.3701C52.3247 80.5469 51.646 81.626 50.7842 82.5498C49.8062 83.6172 48.458 84.272 47.0142 84.3799C45.5752 84.4741 44.1519 84.0366 43.0142 83.1499C41.5181 81.9141 40.3618 80.3169 39.6543 78.5098C38.9805 76.8594 38.5234 75.1279 38.2944 73.3599C38.2944 72.98 38.1841 72.6001 38.1343 72.2197C38.0845 71.8398 38.0645 71.46 38.0542 71.0801C38.0386 70.478 38.0752 69.8755 38.1641 69.2798C38.2622 68.8623 38.4277 68.4639 38.6543 68.1001C38.9546 67.5737 39.418 67.1597 39.9741 66.9199C40.1919 66.7974 40.4194 66.6938 40.6543 66.6099C41.3442 66.4399 41.9141 67.6099 42.5645 69.4697C42.7544 70.8398 43.0142 72.1602 43.2842 73.4697C43.5981 74.667 44.0059 75.8374 44.5044 76.9697C44.8193 77.8384 45.3452 78.6147 46.0342 79.23C46.1694 79.3574 46.3403 79.4414 46.5244 79.4697C46.5527 79.4556 46.5859 79.4556 46.6143 79.4697C46.6143 79.4697 46.6943 79.4697 46.7344 79.4697C46.7744 79.4697 46.8945 79.4697 46.9644 79.4697C47.0854 79.4302 47.1997 79.3726 47.3042 79.2998C47.5117 79.1191 47.6934 78.9102 47.8442 78.6797C48.3179 77.9517 48.6943 77.165 48.9644 76.3398C49.5552 74.2344 50.0288 72.0977 50.3843 69.9399L50.5044 69.9102Z" fill-rule="evenodd" fill="currentColor"/>
	<path d="M59.8242 64.8999C59.7144 64.8999 59.5444 64.8999 59.2344 65.2998C58.8569 65.7935 58.5537 66.3394 58.3345 66.9199C57.8179 68.5283 57.4399 70.1772 57.2041 71.8501C56.894 73.6401 56.6045 75.5298 56.2041 77.48C55.9927 78.501 55.7021 79.5044 55.3345 80.48C54.9355 81.5645 54.4297 82.606 53.8242 83.5898C53.0928 84.7495 52.1211 85.7388 50.9741 86.4902C50.6616 86.7007 50.3262 86.875 49.9741 87.0098L49.3643 87.27C49.1646 87.3359 48.9609 87.3896 48.7544 87.4302C47.9355 87.625 47.083 87.625 46.2642 87.4302C45.8481 87.3638 45.4414 87.2461 45.0542 87.0801C44.8564 87.0117 44.6655 86.9243 44.4844 86.8198L44.0244 86.54C43.4438 86.1904 42.9043 85.7778 42.4141 85.3101C41.978 84.8623 41.5732 84.3848 41.2041 83.8799C40.8701 83.3975 40.563 82.8965 40.2842 82.3799C38.5474 78.6201 37.666 74.5215 37.7041 70.3799C37.6289 67.5503 37.7661 64.7192 38.1143 61.9102C38.1655 61.6763 38.1655 61.4341 38.1143 61.2002C38.0938 61.1255 38.0562 61.0571 38.0044 61C38.0044 60.9199 37.894 60.8799 37.8345 60.8301C37.6377 60.7314 37.4233 60.6738 37.2041 60.6602C36.6865 60.5991 36.1655 60.5723 35.644 60.5801C33.3696 60.707 31.105 60.9775 28.8643 61.3901C26.5142 61.79 24.1045 62.2002 21.5742 62.3901C18.8594 62.7095 16.1079 62.4434 13.5044 61.6099C11.9536 61.0674 10.5967 60.0796 9.60449 58.77C9.35596 58.458 9.13867 58.1235 8.9541 57.77C8.73389 57.4028 8.55908 57.0098 8.43408 56.6001C8.34863 56.394 8.28516 56.1792 8.24414 55.96C8.16309 55.7334 8.10596 55.4985 8.07422 55.2598C7.99658 54.7705 7.97998 54.2734 8.02441 53.7798C8.08447 53.2974 8.19189 52.8218 8.34424 52.3599C8.49658 51.9297 8.70166 51.52 8.9541 51.1401C9.38721 50.4546 9.9082 49.8291 10.5044 49.2798C11.5449 48.3638 12.6934 47.5781 13.9243 46.9399C16.1675 45.7656 18.5098 44.792 20.9243 44.0298C23.2544 43.2598 25.5742 42.6099 27.8643 41.9502L31.2344 40.9502C31.7842 40.79 32.3345 40.6299 32.8345 40.46C33.0371 40.4102 33.2324 40.333 33.4141 40.23C33.5483 40.1831 33.6763 40.1191 33.7944 40.04C34.1987 39.7192 34.3687 39.1855 34.2241 38.6899C34.165 38.4443 34.0708 38.2085 33.9443 37.9902C33.7295 37.6147 33.4854 37.2568 33.2144 36.9199C31.9199 35.3784 30.48 33.9653 28.9141 32.7002C27.3242 31.3301 25.6641 29.9902 24.0542 28.5C23.2119 27.7271 22.4297 26.8916 21.7144 26C21.2822 25.5054 20.9097 24.9614 20.6045 24.3799C20.4194 24.0215 20.2783 23.6421 20.1841 23.25C20.0767 22.8628 20.0229 22.4619 20.0244 22.0601C20.0747 21.0234 20.4849 20.0366 21.1841 19.27C21.7871 18.5947 22.5225 18.0498 23.3442 17.6699C24.8081 17.0181 26.3916 16.6772 27.9941 16.6699C30.9492 16.6641 33.876 17.2456 36.6045 18.3799C37.9463 18.9043 39.2495 19.5225 40.5044 20.23C41.7197 20.9824 42.8794 21.8208 43.9741 22.7402C46.1685 24.5469 48.0386 26.7144 49.5044 29.1499C50.394 30.6699 50.5044 31.46 50.3042 31.5298C50.1045 31.6001 49.394 31.02 48.3042 30.1099C46.7812 28.9263 45.1772 27.8501 43.5044 26.8901C42.5044 26.2998 41.394 25.73 40.2144 25.1699C39.624 24.8901 39.0244 24.6001 38.3843 24.3599C37.7441 24.1201 37.1543 23.7598 36.5142 23.48C34.3076 22.4341 31.9355 21.7808 29.5044 21.5498C28.4707 21.4463 27.4272 21.5103 26.4141 21.7402C26.0146 21.835 25.6309 21.9863 25.2744 22.1899C25.1294 22.272 24.9893 22.3623 24.8545 22.46L24.7344 22.5298C24.7344 22.5298 24.6543 22.3901 24.9043 22.8901C25.5942 23.8193 26.4009 24.6562 27.3042 25.3799C29.2441 27.0801 31.4644 28.73 33.6641 30.6299C34.854 31.6333 35.9546 32.7373 36.9541 33.9302C37.2373 34.2681 37.501 34.6221 37.7441 34.9902L37.9341 35.2798C38.0107 35.3906 38.0776 35.5078 38.1343 35.6299L38.5845 36.52C39.1333 37.7026 39.3413 39.0156 39.1841 40.3101C39.0371 41.5723 38.4702 42.7485 37.5742 43.6499C37.4712 43.77 37.3574 43.8804 37.2344 43.98L36.8442 44.2598L36.0444 44.8101L35.2544 45.2202L34.7041 45.48C33.9844 45.8198 33.3042 46.1099 32.6143 46.3799L30.6143 47.0298C27.9243 47.8599 25.3042 48.6099 22.7744 49.4702C20.3276 50.1831 17.9487 51.1104 15.6641 52.2402C15.0977 52.542 14.5591 52.8936 14.0542 53.29C13.7339 53.5801 13.4365 53.8945 13.1641 54.23C12.9795 54.4268 12.8818 54.6904 12.894 54.96C12.9331 55.0537 12.9634 55.1509 12.9844 55.25L13.1641 55.5801C13.2783 55.7998 13.4194 56.0049 13.5845 56.1899C14.4292 57.0142 15.5298 57.5254 16.7041 57.6401C18.2065 57.8403 19.7266 57.8638 21.2344 57.71C24.4443 57.4102 27.7642 56.71 31.2344 56.1499C33.0532 55.7983 34.9014 55.6172 36.7544 55.6099C38.0063 55.6069 39.2441 55.873 40.3843 56.3901C41.6587 57.0088 42.6108 58.1392 43.0044 59.5C43.0845 59.8701 43.1543 60.2598 43.2041 60.6401C43.2295 61.0029 43.2295 61.3672 43.2041 61.73L43.2041 62.27L43.2041 62.6299L43.144 63.2998L42.874 66L42.7041 68.6899C42.7041 69.5801 42.7041 70.46 42.7041 71.3501C42.7041 72.2402 42.8042 73.1001 42.8545 73.98C42.9043 74.8599 43.0542 75.71 43.2642 76.52C43.5273 78.1016 44.1465 79.6025 45.0742 80.9102C45.2744 81.2202 45.5444 81.4199 45.7544 81.7002C45.9868 81.9028 46.2383 82.0835 46.5044 82.2402C46.6807 82.3706 46.8813 82.4658 47.0942 82.52C47.2749 82.5649 47.4639 82.5649 47.644 82.52C47.7285 82.5088 47.8101 82.4814 47.8843 82.4399C48.0127 82.4009 48.1313 82.3359 48.2344 82.25C48.4741 82.0923 48.6924 81.9038 48.8843 81.6899C49.3457 81.1548 49.7139 80.5464 49.9741 79.8901C50.2983 79.1328 50.5591 78.3501 50.7544 77.5498C50.9941 76.73 51.1943 75.8599 51.3843 74.98L52.4741 69.48C52.7109 68.2822 53.0078 67.0977 53.3643 65.9302C53.7217 64.6177 54.2817 63.3691 55.0244 62.23C55.2417 61.9102 55.4858 61.6089 55.7544 61.3301C56.0332 61.0234 56.3452 60.7485 56.6841 60.5098C57.0342 60.2578 57.4097 60.0435 57.8042 59.8701C58.2012 59.7168 58.6089 59.5928 59.0244 59.5C59.3843 59.4326 59.7485 59.3926 60.1143 59.3799L60.6943 59.3799L61.2041 59.3799L62.9141 59.5498C67.4644 59.96 72.0244 60.3101 76.5244 60.3599C78.1938 60.3945 79.8638 60.3247 81.5244 60.1499C82.1265 60.1309 82.7271 60.0811 83.3242 60C83.791 59.9424 84.25 59.835 84.6943 59.6802C85.1592 59.5513 85.5322 59.2046 85.6943 58.75C85.7456 58.2754 85.605 57.8003 85.3042 57.4302C85.0679 57.0576 84.8003 56.7065 84.5044 56.3799C84.0596 55.9233 83.5923 55.4897 83.1045 55.0801C80.395 53.0005 77.5742 51.0713 74.6543 49.2998C73.8921 48.7725 73.1606 48.2017 72.4644 47.5898C72.0732 47.2769 71.6997 46.9429 71.3442 46.5898C70.9106 46.1616 70.5186 45.6929 70.1743 45.1899C69.459 44.1831 69.1421 42.9468 69.2842 41.7202C69.3545 41.4199 69.4043 41.1201 69.4844 40.8301L69.8345 39.98C70.1196 39.4556 70.4541 38.96 70.8345 38.5C71.0854 38.1777 71.3633 37.8765 71.6641 37.6001C71.9443 37.3101 72.2344 37.0801 72.5142 36.8301L73.2842 36.1802C73.5142 35.9902 73.7344 35.77 73.9644 35.5698C74.8716 34.7109 75.7202 33.7925 76.5044 32.8198C78.0635 30.8652 79.4048 28.7461 80.5044 26.5C80.7642 25.9502 81.0044 25.3999 81.2144 24.8501L81.4941 24.0601C81.5444 23.8799 81.6143 23.6602 81.6343 23.5298C81.8257 22.9692 81.8257 22.3608 81.6343 21.7998C81.5024 21.5459 81.2871 21.3442 81.0244 21.23C80.7607 21.123 80.4785 21.0688 80.1943 21.0698C79.9224 21.0879 79.6538 21.1382 79.394 21.2202C79.2642 21.2202 79.144 21.3198 79.0244 21.3701L78.8145 21.4502L78.4341 21.6401C76.6045 22.48 74.7144 23.75 72.6045 24.8501C70.9097 25.7905 69.1636 26.6353 67.374 27.3799C66.6758 27.6357 65.9648 27.8564 65.2441 28.04C64.5742 28.1899 63.9741 28.2998 63.4243 28.3901C61.8408 28.7065 60.1968 28.4961 58.7441 27.79C58.272 27.5806 57.8232 27.3223 57.4043 27.02C56.9541 26.5698 57.6343 26.0698 58.9741 25.3599C60.3145 24.6499 62.3042 23.52 64.8345 21.8799C66.7642 20.7598 68.6641 19.46 70.6943 18.1099C71.6943 17.4199 72.7842 16.79 73.9644 16.1099L74.8643 15.6299L75.8643 15.1802L76.3643 14.9502L77.1543 14.7002C77.6841 14.5498 78.2144 14.3301 78.7544 14.23L80.394 14C80.9341 14 81.4741 14 82.0142 14.0498C82.5459 14.0962 83.0713 14.1934 83.5845 14.3398C84.0854 14.5029 84.5737 14.7031 85.0444 14.9399C86.9512 15.9258 88.3003 17.7319 88.7041 19.8398C88.9102 20.937 88.9102 22.063 88.7041 23.1602C88.6226 23.7373 88.5024 24.3086 88.3442 24.8701C88.2144 25.46 88.0044 25.8701 87.8442 26.4199C87.3169 27.8047 86.6748 29.1426 85.9243 30.4199C84.522 32.8027 82.8911 35.0435 81.0542 37.1099C80.1152 38.1689 79.1133 39.1709 78.0542 40.1099C77.7642 40.3599 77.4844 40.6001 77.1841 40.8398L76.394 41.46L75.8545 41.8799L75.4341 42.27C75.3911 42.3413 75.333 42.4028 75.2642 42.4502L75.6143 42.7998C76.4849 43.4072 77.3936 43.9585 78.3345 44.4502L81.5845 46.3799C83.3384 47.4053 85.0347 48.5269 86.6641 49.7402L87.3042 50.25L87.624 50.5L88.0044 50.8301L88.7744 51.5098L89.7744 52.5098C90.4443 53.1699 90.9443 53.9102 91.5342 54.6099L92.2041 55.73C92.3257 55.9043 92.4326 56.0884 92.5244 56.2798L92.7241 56.8398C93.3496 58.249 93.4453 59.8359 92.9941 61.3101C92.521 62.7842 91.5439 64.0444 90.2344 64.8701C88.7817 65.7886 87.1538 66.3945 85.4541 66.6499C85.0044 66.7402 84.5645 66.8301 84.1343 66.8799L83.4844 66.96L82.9243 67.02C82.4038 67.0898 81.8784 67.1099 81.3545 67.0801C80.3545 67.0801 79.3545 66.9302 78.3545 66.8901C77.3545 66.8501 76.3545 66.7998 75.3545 66.7402C73.4141 66.6099 71.4941 66.4199 69.5942 66.2202C67.6943 66.02 65.7944 65.7798 63.9141 65.5298L61.0942 65.1499L60.4341 65.0601C60.3477 65.0698 60.2607 65.0698 60.1743 65.0601L59.9043 65.0601L59.8242 64.8999Z" fill-rule="evenodd" fill="currentColor"/>
	<path d="M61.2939 41.3003C61.9741 42.3003 61.7441 43.6304 61.7441 44.7402C61.4883 45.8369 60.9546 46.8496 60.1943 47.6802C59.8213 48.0728 59.3936 48.4097 58.9243 48.6802L58.354 48.9204C56.7578 49.3281 55.0801 49.29 53.5044 48.8101C52.1235 48.4531 50.8125 47.8687 49.624 47.0801C48.5308 46.4917 47.6313 45.5991 47.0342 44.5103C46.813 44.0356 46.7202 43.5117 46.7642 42.9902C46.8154 42.4722 47.0132 41.98 47.334 41.5703C47.8394 40.9404 48.5454 40.5024 49.334 40.3301C49.7842 40.21 49.9341 40.75 49.9443 41.4204C49.9395 42.0283 49.9028 42.6357 49.834 43.2402C49.834 43.2402 49.834 43.2402 49.834 43.3203C49.7314 43.2729 49.624 43.2363 49.5142 43.21C49.5571 43.2202 49.6016 43.2202 49.644 43.21C49.7383 43.2002 49.8301 43.1733 49.9141 43.1304L50.0244 43.0801L50.084 43.0801L50.2344 43.1704C50.374 43.2202 50.4341 43.3901 50.604 43.52C50.9624 43.8511 51.3472 44.1519 51.7544 44.4204L52.4341 44.8604L52.8042 45.0703C52.894 45.1401 52.874 45.1602 52.9243 45.2002C53.0986 45.3916 53.3369 45.5127 53.5942 45.54C53.8433 45.5703 54.0952 45.5703 54.3442 45.54L54.5044 45.54C55.3052 45.4922 55.9263 44.8223 55.9141 44.02C55.9116 43.5093 55.6714 43.0288 55.2642 42.7202C54.5449 42.1978 53.5918 42.1279 52.8042 42.54C52.0039 43.0967 51.2925 43.771 50.6943 44.54C50.5591 44.7319 50.4053 44.9097 50.2344 45.0703C50.0864 45.1855 49.9253 45.2832 49.7544 45.3604C49.5898 45.4004 49.4185 45.4004 49.2544 45.3604C48.8208 45.2549 48.4131 45.0645 48.0542 44.8003C47.8242 44.6504 47.5942 44.52 47.3843 44.3701C47.0386 44.1294 46.7871 43.7759 46.6743 43.3701C46.5391 42.9268 46.5391 42.4536 46.6743 42.0103C47.2368 40.7061 48.1548 39.5864 49.3242 38.7803C49.4644 38.6704 49.624 38.5703 49.7744 38.4702L50.4541 38.0601C50.9741 37.8403 51.4541 37.6104 52.0342 37.4204C53.0684 37.1929 54.1255 37.0889 55.1841 37.1104C55.5439 37.1104 55.9141 37.1602 56.2642 37.23L57.2642 37.4902C57.8813 37.7466 58.4858 38.0332 59.0742 38.3501C60.1182 39.0693 60.9199 40.0869 61.374 41.27L61.2939 41.3003Z" fill-rule="evenodd" fill="currentColor"/>
	<defs/>
</svg>
