<svg width="24" height="24" viewBox="0 0 110 110" fill="none" xmlns="http://www.w3.org/2000/svg" xmlns:xlink="http://www.w3.org/1999/xlink">
	<path d="M38.811 39.6462C39.3574 39.4194 39.8828 39.145 40.3813 38.8264C40.561 38.7063 40.6211 38.5063 40.8013 38.3762C41.5181 37.9204 42.188 37.3945 42.8013 36.8064C43.0586 36.5129 43.2588 36.1736 43.3911 35.8064C43.5811 35.3462 43.6211 34.8064 44.1914 34.5364C44.3613 34.4563 45.0913 34.8264 45.771 35.3064C46.4512 35.7864 47.0811 36.3662 47.001 36.6663C46.7168 37.7708 46.0771 38.751 45.1812 39.4563C44.5913 39.8962 44.3613 40.6062 43.8013 41.1262C43.2144 41.6824 42.5708 42.175 41.8813 42.5962C41.4712 42.8562 41.061 43.0764 40.6714 43.3164C40.0713 43.6562 39.481 43.9763 38.9512 44.3164C38.5767 44.6394 38.2407 45.0051 37.9512 45.4062C37.8711 45.4663 37.811 45.5664 37.7212 45.6162C37.4111 45.8164 37.0713 45.6162 36.521 45.0664L36.1411 44.6963C35.7544 44.3267 35.54 43.8113 35.5513 43.2764C35.6079 42.9658 35.6816 42.6589 35.771 42.3562C35.8745 42.1001 35.998 41.8525 36.1411 41.6162C36.2749 41.3887 36.4253 41.1716 36.5913 40.9663L36.8213 40.6763L37.1113 40.4763C37.6714 40.0962 38.2612 39.8164 38.771 39.4763L38.811 39.6462Z" fill-rule="evenodd" fill="currentColor"/>
	<path d="M32.8511 35.926C31.6982 34.4724 30.4736 33.0774 29.1812 31.7461C28.7012 31.2661 28.1313 30.8962 27.6611 30.406C25.9609 28.7061 24.1714 27.0862 22.3013 25.5161C21.4624 24.8442 20.5767 24.2327 19.6514 23.686C18.4111 23.0815 17.2461 22.333 16.1812 21.4561C15.8711 21.1362 16.231 20.5762 16.8813 20.1462C17.5659 19.6438 18.4424 19.4817 19.2612 19.7061C20.6089 20.2476 21.9185 20.8789 23.1812 21.5962C24.4624 22.3093 25.6431 23.1904 26.6914 24.2161C27.9609 25.4561 29.5713 26.3462 30.9414 27.5061C32.4536 28.7661 33.9023 30.1013 35.2812 31.5061C36.1211 32.3962 36.9609 33.2661 37.771 34.176C39.0312 35.5161 40.1411 36.9861 41.3911 38.3162C41.8613 38.8462 42.3911 39.3162 42.9214 39.8062C43.4512 40.2961 43.9214 40.8062 44.3911 41.3462C44.6162 41.5625 44.8232 41.7966 45.0112 42.0461C45.0874 42.1555 45.1577 42.2688 45.2212 42.3862C45.2563 42.5042 45.2832 42.6243 45.3013 42.7461C45.3418 42.9475 45.3418 43.1548 45.3013 43.3562C45.1802 43.7808 44.9409 44.1624 44.6113 44.4561C44.4512 44.6392 44.2812 44.8127 44.1011 44.9761C43.4092 45.4685 42.5029 45.5415 41.7412 45.166C40.6235 44.563 39.5713 43.8457 38.6011 43.0261C38.1533 42.6187 37.7451 42.1702 37.3813 41.686C36.981 41.2161 36.6011 40.7461 36.231 40.2561C35.0811 38.8562 33.9912 37.3662 32.751 35.9961L32.8511 35.926Z" fill-rule="evenodd" fill="currentColor"/>
	<path d="M35.6211 42.5264C36.6772 42.7644 37.7456 42.9446 38.8213 43.0662C39.3091 43.125 39.7998 43.155 40.291 43.1562C40.501 43.1562 40.7412 43.1562 40.9312 43.1562L41.2012 43.1562L41.3311 43.1562C41.5713 43.1562 41.7114 42.9563 41.8511 42.8062C41.9277 42.7388 41.9951 42.6616 42.0513 42.5762C42.0986 42.5176 42.1328 42.4495 42.1514 42.3762L42.3013 41.9763C42.5054 41.3237 42.6528 40.6545 42.7412 39.9763C42.9468 38.499 43.0303 37.0073 42.9912 35.5164C42.9561 34.1567 42.8359 32.8008 42.6313 31.4563C42.2417 29.7266 42.0439 27.9592 42.041 26.1863C42.041 25.6162 42.8213 25.5164 43.7114 25.7961C44.7407 26.0725 45.6123 26.7595 46.1211 27.6963C46.834 29.4473 47.416 31.2488 47.8613 33.0862C48.0791 34.0239 48.186 34.9836 48.1812 35.9463C48.2134 36.948 48.1699 37.9509 48.0513 38.9463C47.9214 40.1462 47.8813 41.3862 47.731 42.7463C47.731 43.0962 47.6211 43.4163 47.5913 43.8762C47.479 44.3235 47.3423 44.7642 47.1812 45.1963C46.8696 46.0732 46.3555 46.8647 45.6812 47.5063C44.8867 48.1494 43.9512 48.595 42.9512 48.8062C42.165 48.97 41.3643 49.0505 40.561 49.0461C39.1895 49.0332 37.8208 48.9026 36.4712 48.6562C34.8711 48.3862 33.3311 48.0063 31.811 47.6562C29.501 47.0662 27.2812 46.2764 25.0312 45.6562C23.291 45.1462 21.481 44.8962 19.6914 44.3562C19.291 44.2463 18.8813 44.1562 18.4912 44.0063C17.9546 43.7349 17.5249 43.2913 17.271 42.7463C17.1489 42.2192 17.1768 41.6685 17.3511 41.1562C17.4067 40.9089 17.4766 40.6653 17.561 40.4263C17.7412 40.0486 18.0493 39.7473 18.4312 39.5762C18.8823 39.291 19.3984 39.1257 19.9312 39.0962C20.3267 39.0562 20.7256 39.0562 21.1211 39.0962L22.2212 39.2864C22.9712 39.4263 23.7114 39.5862 24.4512 39.7563C25.9512 40.1062 27.4512 40.5164 28.9512 40.9062C31.1812 41.4763 33.4312 42.0962 35.6411 42.4563L35.6211 42.5264Z" fill-rule="evenodd" fill="currentColor"/>
	<path d="M60.231 61.4561C61.1606 60.936 62.1108 60.4561 63.0508 60.0562C63.3696 59.8413 63.7036 59.6509 64.0508 59.4861C64.6807 59.2461 65.3306 59.0759 65.9609 58.896L67.9609 58.5859C68.5098 58.4739 69.0459 58.3064 69.561 58.0859C70.1855 57.6836 70.9463 57.5503 71.6709 57.7161C71.9209 57.7961 72.1108 58.7161 72.1909 59.636C72.271 60.5562 72.271 61.636 71.9907 61.8159C71.0488 62.5759 69.9189 63.0667 68.7207 63.2361C67.9902 63.3896 67.3052 63.7114 66.7207 64.176C65.981 64.5461 65.2207 64.916 64.4907 65.3459C64.0381 65.6057 63.6035 65.8965 63.1909 66.2161C62.5498 66.679 61.9536 67.2014 61.4106 67.7761C61.2412 68.0322 61.1099 68.3118 61.021 68.606C60.9707 68.7561 60.9409 68.916 60.9009 69.0659C60.8462 69.2019 60.7793 69.3325 60.7007 69.4561C60.647 69.5725 60.5869 69.686 60.521 69.7961C60.2007 70.156 59.8208 70.106 58.8008 69.646L58.1206 69.3359C57.46 69.0732 56.958 68.5195 56.7607 67.8359C56.5444 67.0371 56.5444 66.1951 56.7607 65.396C57.0024 64.6873 57.3389 64.0146 57.7607 63.396C58.4761 62.6201 59.2896 61.9412 60.1807 61.376L60.231 61.4561Z" fill-rule="evenodd" fill="currentColor"/>
	<path d="M73.4106 66.356L77.3306 70.356C77.8008 70.8359 78.3306 71.2061 78.8208 71.7061C80.4507 73.4561 82.0508 75.2161 83.6006 77.0261C84.2905 77.8259 85.0405 78.5662 85.7905 79.2861C86.8315 80.1377 87.73 81.1506 88.4507 82.2861C88.6509 82.666 88.1309 83.0859 87.3906 83.2861C86.6333 83.5815 85.7837 83.5266 85.0708 83.136C84.0708 82.3259 82.9707 81.5061 81.9707 80.636C80.9438 79.7861 80.0088 78.8308 79.1807 77.7861C78.0532 76.5889 76.8179 75.4976 75.4907 74.5261L71.3906 70.9561C70.5405 70.2261 69.6909 69.4961 68.8208 68.8062C67.5264 67.7288 66.1709 66.7271 64.7607 65.8062C63.6108 65.166 62.3906 64.686 61.2607 64.0662C61.0107 63.936 60.7407 63.8359 60.5107 63.686L60.1807 63.4561C60.1138 63.3674 60.0537 63.2737 60.001 63.176C59.9067 63.0083 59.8428 62.8257 59.8105 62.636C59.7812 62.197 59.8604 61.7573 60.0405 61.356C60.1309 61.116 60.2007 60.886 60.3008 60.676C60.7183 59.9409 61.5171 59.5068 62.3608 59.5562C62.6978 59.5398 63.0352 59.5769 63.3608 59.666L64.2905 59.896C64.9077 60.0676 65.5151 60.2712 66.1108 60.5061C67.2227 61.0889 68.2686 61.7896 69.231 62.5959C70.7007 63.7461 72.0806 65.0361 73.4707 66.2861L73.4106 66.356Z" fill-rule="evenodd" fill="currentColor"/>
	<path d="M67.791 60.946C66.7241 60.7734 65.6494 60.6565 64.5708 60.5962C64.0508 60.5962 63.5708 60.5962 63.1006 60.5962C62.8906 60.5962 62.6509 60.5962 62.4609 60.6562L62.1909 60.6562L62.0605 60.6562C61.8208 60.6562 61.7007 60.8762 61.5708 61.0361C61.4971 61.1113 61.4336 61.1953 61.3809 61.2861C61.3369 61.3418 61.3062 61.4067 61.291 61.4761L61.1606 61.8862C61.001 62.5432 60.894 63.2119 60.8408 63.8862C60.7158 65.3701 60.7158 66.8621 60.8408 68.3462C60.9541 69.6904 61.1514 71.0264 61.4307 72.3462C61.9194 74.0483 62.2212 75.7986 62.3306 77.5662C62.3306 78.1462 61.5908 78.2861 60.6909 78.0562C59.6592 77.8579 58.7524 77.2476 58.1807 76.3662C57.3804 74.6597 56.7119 72.8945 56.1807 71.0862C55.9028 70.1658 55.7349 69.2158 55.6807 68.2561C55.6045 67.2576 55.6045 66.2546 55.6807 65.2561C55.7407 64.0562 55.6807 62.8062 55.7808 61.446C55.7808 61.0962 55.8506 60.7761 55.8506 60.3062C55.9395 59.8438 56.0527 59.3862 56.1909 58.936C56.4536 58.0432 56.9233 57.2244 57.5605 56.5461C58.3149 55.8604 59.2192 55.3604 60.2007 55.0862C60.979 54.8804 61.7769 54.7563 62.5806 54.7161C63.9526 54.6438 65.3281 54.6941 66.6909 54.8662C68.3008 55.0361 69.8608 55.3262 71.4009 55.6262C73.731 56.0862 76.001 56.7461 78.2808 57.2661C80.0508 57.676 81.8706 57.8262 83.6909 58.2661C84.0996 58.3379 84.5039 58.4348 84.9009 58.5562C85.4565 58.7891 85.9155 59.2056 86.2007 59.7361C86.3462 60.2527 86.3462 60.7996 86.2007 61.3162C86.1592 61.5693 86.1025 61.8198 86.0308 62.0662C85.8774 62.4534 85.5898 62.7727 85.2207 62.9661C84.7842 63.2773 84.2739 63.4702 83.7407 63.5261C83.3506 63.585 82.9551 63.605 82.5605 63.5862L81.3608 63.4561C80.6108 63.3562 79.8608 63.2461 79.1108 63.1162C77.6006 62.8562 76.1108 62.5361 74.5605 62.2261C72.291 61.7861 70.0107 61.3062 67.791 61.0762L67.791 60.946Z" fill-rule="evenodd" fill="currentColor"/>
	<path d="M38.6406 64.4561C38.187 63.7295 37.6499 63.0583 37.0405 62.4561C36.8008 62.2161 36.481 62.0862 36.2407 61.8462C35.4355 60.9521 34.5332 60.1506 33.5508 59.4561C33.1421 59.178 32.6719 59.0029 32.1807 58.946C31.9243 58.9253 31.667 58.9253 31.4106 58.946C31.1758 58.9563 30.9443 58.8896 30.7505 58.7561C30.3403 58.1899 30.0913 57.5229 30.0308 56.8262C29.8809 55.8262 30.3105 54.6863 31.0308 54.5662C32.1201 54.3806 33.2383 54.4595 34.2905 54.7961C35.1855 55.074 35.9922 55.5808 36.6309 56.2661C37.4336 56.9124 38.2861 57.4941 39.1807 58.0061C40.0713 58.6936 40.9009 59.4563 41.6606 60.2861C42.1406 60.8162 42.5908 61.3862 43.0205 61.9661C43.6387 62.8804 44.1934 63.8359 44.6807 64.8262C45.0806 65.5662 45.7505 66.2061 46.1709 66.9661C46.2427 67.1353 46.3027 67.3088 46.3506 67.4861C46.3872 67.6306 46.3872 67.7817 46.3506 67.9263C46.2598 68.0723 46.1367 68.1953 45.9907 68.2861C45.6226 68.5276 45.2173 68.7068 44.7905 68.8162L44.1108 69.0261C43.7437 69.1094 43.3652 69.1331 42.9907 69.0962C42.5903 69.061 42.1948 68.9839 41.8105 68.8662C41.4507 68.6462 41.0806 68.4661 40.8105 68.2661C40.623 68.0713 40.4521 67.8604 40.3008 67.6362C40.0317 67.2615 39.791 66.8669 39.5806 66.4561C39.3081 65.8118 38.9731 65.1956 38.5806 64.6162L38.6406 64.4561Z" fill-rule="evenodd" fill="currentColor"/>
	<path d="M32.3208 68.2361C30.771 69.1462 29.251 70.1763 27.7607 71.2361C27.2207 71.6362 26.7607 72.1462 26.231 72.5461C24.311 73.9563 22.4312 75.4563 20.5708 76.9961C19.7578 77.6831 18.9956 78.4282 18.291 79.2261C17.437 80.3015 16.4453 81.2598 15.3408 82.0762C14.9707 82.3062 14.5107 81.8262 14.2407 81.0762C13.8999 80.3113 13.9219 79.4331 14.3008 78.6863C15.1079 77.5244 15.9756 76.406 16.9009 75.3362C17.8184 74.2512 18.8662 73.2839 20.021 72.4563C21.3481 71.3218 22.6162 70.1201 23.8208 68.8562C25.251 67.5662 26.771 66.3562 28.311 65.1763C29.311 64.4761 30.2407 63.7661 31.2407 63.0962C32.7207 62.0962 34.3311 61.1562 35.8711 60.1663C37.0225 59.302 38.2358 58.5234 39.501 57.8362C39.791 57.6963 40.061 57.5061 40.3608 57.3962C40.6006 57.2827 40.8701 57.2476 41.1309 57.2961C41.3418 57.3184 41.5459 57.3831 41.731 57.4861C42.1089 57.7258 42.4053 58.0745 42.5811 58.4861C42.7007 58.7063 42.8311 58.9163 42.9209 59.1262C43.1685 59.9211 42.9951 60.7876 42.4609 61.4263C42.2856 61.6829 42.0771 61.9148 41.8408 62.1162C41.6211 62.3262 41.4111 62.5261 41.1909 62.7163C40.7607 63.0862 40.3408 63.5161 39.9009 63.8662C38.9507 64.4919 37.9692 65.0693 36.9609 65.5962C35.4609 66.4563 33.9009 67.3062 32.4009 68.3262L32.3208 68.2361Z" fill-rule="evenodd" fill="currentColor"/>
	<path d="M35.1807 53.5361C36.5493 53.5076 37.918 53.5576 39.2808 53.6863C40.0088 53.7532 40.7329 53.8564 41.4507 53.9963C41.8408 54.0862 42.2104 54.1663 42.6108 54.2861L43.1807 54.4563C43.4346 54.5291 43.6821 54.6228 43.9209 54.7363C45.4102 55.2241 46.6279 56.3115 47.2808 57.7363C47.4165 58.0625 47.5332 58.3965 47.6309 58.7363C47.7207 59.0762 47.7905 59.4062 47.8506 59.7363L47.9404 60.2363C47.9258 60.3926 47.9258 60.5498 47.9404 60.7063L47.9404 61.4563C47.8979 62.3655 47.7944 63.2708 47.6309 64.1663C47.3105 65.8762 46.8809 67.4763 46.4404 69.0461C46.0508 70.4363 45.6309 71.8062 45.2705 73.1663C44.8975 74.9443 44.2607 76.6567 43.3809 78.2463C43.0708 78.7363 42.3809 78.4563 41.7305 77.7861C40.9761 77.0537 40.5352 76.0571 40.5005 75.0063C40.6606 73.2163 40.8306 71.4363 41.0405 69.7163C41.146 68.8596 41.3232 68.0132 41.5708 67.1863L42.2305 64.7363C42.4868 63.8127 42.5649 62.8489 42.4604 61.8962L42.3809 61.3562L42.3208 61.0862C42.2725 60.9097 42.1982 60.7412 42.1006 60.5862C41.9731 60.4143 41.8047 60.2769 41.6108 60.1863C41.2207 60.0066 40.8115 59.8723 40.3906 59.7861C39.333 59.5771 38.2588 59.4668 37.1807 59.4563C35.7368 59.3916 34.2905 59.4216 32.8506 59.5461C30.5991 59.6846 28.3657 60.0361 26.1807 60.5962C24.5718 61.1377 23.0234 61.8447 21.5605 62.7063C21.2407 62.8762 20.9507 63.1062 20.6309 63.2563C20.1548 63.4434 19.6299 63.4646 19.1406 63.3162C18.6802 63.063 18.2729 62.7234 17.9404 62.3162C17.7534 62.1399 17.5767 61.9529 17.4106 61.7563C17.1777 61.4214 17.0942 61.0049 17.1807 60.6062C17.2261 60.01 17.4648 59.4446 17.8608 58.9963C18.4478 58.2986 19.1641 57.7214 19.9707 57.2961C20.728 56.8501 21.5127 56.4526 22.3208 56.1062C23.939 55.4319 25.6118 54.8965 27.3208 54.5063C29.9062 53.9216 32.5347 53.5471 35.1807 53.3862L35.1807 53.5361Z" fill-rule="evenodd" fill="currentColor"/>
	<path d="M66.5811 48.2861C65.5527 47.9172 64.5508 47.4797 63.5811 46.9761C63.1851 46.8323 62.8008 46.6584 62.4312 46.4561C61.7866 46.0127 61.2104 45.4768 60.7212 44.8662C60.3018 44.2461 59.9653 43.5737 59.7212 42.8662C59.521 42.2761 59.3213 41.7361 59.1611 41.2061C58.9126 40.5427 58.7705 39.844 58.7412 39.1362C58.7412 38.9163 58.9414 38.8562 59.271 38.926C59.6802 38.9961 60.0615 39.1797 60.3711 39.4561C60.8613 39.9961 61.3711 40.5161 61.7412 40.946C62.1235 41.3154 62.481 41.7095 62.811 42.1262C63.0112 42.3262 63.1714 42.6062 63.4512 42.7361C63.7314 42.8662 64.0312 43.0061 64.3413 43.1663C65.0698 43.53 65.834 43.8184 66.6211 44.0261C67.1543 44.1775 67.6953 44.301 68.2412 44.3962C69.0938 44.6018 69.959 44.7522 70.8311 44.8462C71.521 44.8462 72.2212 44.7161 72.9014 44.7661C73.0542 44.751 73.2085 44.751 73.3613 44.7661C73.8813 45.0762 74.0112 45.446 74.0112 46.196C74.0112 46.3662 74.0112 46.5361 74.0112 46.696C73.9497 47.2456 73.6641 47.7451 73.2212 48.0762C72.9297 48.3359 72.5898 48.5364 72.2212 48.6663C71.9111 48.8062 71.5913 48.9263 71.271 49.0361C70.6509 49.1211 70.0215 49.1211 69.4014 49.0361C68.9233 48.9963 68.4487 48.9229 67.9814 48.8162L66.5112 48.426L66.5811 48.2861Z" fill-rule="evenodd" fill="currentColor"/>
	<path d="M65.311 33.8962C66.7212 32.4563 68.1812 31.0461 69.6514 29.6462C70.1909 29.1362 70.6514 28.5361 71.1709 28.0461C73.1528 26.3337 75.229 24.7344 77.3911 23.2561C78.3911 22.6362 79.251 21.8962 80.1709 21.2561C80.7612 20.8262 81.3213 20.3562 81.9409 19.9463C82.5659 19.5532 83.2378 19.2407 83.9409 19.0161C84.3911 18.8862 84.7212 19.5562 84.811 20.4263C84.9834 21.2852 84.7715 22.1765 84.231 22.8662L81.1812 25.6262L79.6211 26.9761C79.1011 27.4263 78.4712 27.7761 77.9014 28.1963C76.5454 29.2668 75.3296 30.5032 74.2812 31.8762C72.9712 33.2661 71.7012 34.7063 70.4409 36.1763C69.6709 37.0962 68.8911 37.9961 68.1709 38.9463C67.0146 40.3594 65.936 41.835 64.9409 43.3662C64.561 43.9563 64.311 44.6462 63.9912 45.2661C63.6709 45.8862 63.3511 46.5461 62.9912 47.1562C62.8608 47.4431 62.7104 47.7205 62.541 47.9861C62.4653 48.0952 62.3818 48.199 62.291 48.2961C62.1812 48.3762 62.0713 48.4263 61.9712 48.4861C61.7749 48.5752 61.5654 48.6326 61.3511 48.6562C60.8613 48.6577 60.3794 48.5337 59.9512 48.2961C59.7012 48.1763 59.4409 48.0862 59.2212 47.9563C58.4536 47.436 58.0137 46.5522 58.061 45.6262C58.0474 45.2722 58.0879 44.918 58.1812 44.5762C58.251 44.2461 58.3413 43.9263 58.4312 43.5762C58.6113 42.9363 58.8213 42.3062 59.061 41.6763C59.6904 40.5305 60.4341 39.4517 61.2812 38.4563C62.501 36.8862 63.8511 35.3762 65.2012 33.8562L65.311 33.8962Z" fill-rule="evenodd" fill="currentColor"/>
	<path d="M60.4604 44.3962C60.436 44.4709 60.436 44.5515 60.4604 44.6262C60.4604 44.6262 60.4604 44.6963 60.5308 44.7563C60.6045 44.7852 60.6748 44.822 60.7407 44.8662C61.5366 45.053 62.3545 45.1272 63.1709 45.0862C63.8608 45.0862 64.5806 44.9062 65.3306 44.8762C68.0801 44.8118 70.8169 44.4768 73.5005 43.8762C74.7051 43.6096 75.8882 43.2554 77.0405 42.8164C78.4673 42.1667 79.9458 41.6384 81.4604 41.2363C81.9507 41.1462 82.2905 41.8064 82.3208 42.7163C82.3945 43.7549 81.998 44.7717 81.2407 45.4863C79.8276 46.5266 78.3213 47.4338 76.7407 48.1963C75.9536 48.5691 75.1245 48.8445 74.2705 49.0164C73.4209 49.2188 72.5591 49.3657 71.6909 49.4563C69.6006 49.6763 67.5908 50.5164 65.3906 50.8264C64.7812 50.9158 64.1665 50.9592 63.5508 50.9563L62.6006 50.9563L61.6006 50.8962C61.2651 50.877 60.9312 50.8369 60.6006 50.7764C60.2285 50.7283 59.8608 50.6514 59.5005 50.5464C58.666 50.3313 57.8789 49.9617 57.1807 49.4563C56.7588 49.1345 56.3823 48.7581 56.0605 48.3362C55.7407 47.9419 55.478 47.5042 55.2808 47.0364C55.0747 46.6389 54.9136 46.2195 54.8008 45.7864C54.6699 45.3843 54.5698 44.9731 54.5005 44.5564C54.1953 42.2866 54.1953 39.9861 54.5005 37.7163C54.6309 36.0164 54.5806 34.3264 54.7905 32.6262C54.8091 32.2505 54.8525 31.8765 54.9209 31.5063C55.0854 30.9817 55.4429 30.5386 55.9209 30.2664C56.4116 30.0969 56.936 30.0454 57.4507 30.1162C57.7207 30.1162 57.9805 30.1162 58.2104 30.1963C58.6064 30.2974 58.9575 30.5256 59.2104 30.8462C59.583 31.2141 59.8462 31.678 59.9707 32.1863C60.1704 32.874 60.2485 33.5916 60.2007 34.3064C60.2007 34.9863 60.2007 35.6663 60.1509 36.3064C60.1509 37.6362 60.0205 38.9463 60.0107 40.1863C60.0171 41.0554 60.0742 41.9236 60.1807 42.7864C60.2666 43.3054 60.4038 43.8145 60.5908 44.3064L60.4604 44.3962Z" fill-rule="evenodd" fill="currentColor"/>
	<defs/>
</svg>
