<svg width="24" height="24" viewBox="0 0 110 110" fill="none" xmlns="http://www.w3.org/2000/svg" xmlns:xlink="http://www.w3.org/1999/xlink">
	<path d="M20.5952 35.0012C20.1328 38.071 20.3101 41.2031 21.1152 44.2014C21.5059 45.7019 22.0625 47.1543 22.7754 48.5312C23.5088 49.8975 24.3911 51.1785 25.4053 52.3513C26.9468 54.011 28.7632 55.3914 30.7754 56.4314L32.1255 57.1013C32.5752 57.3213 33.0552 57.4712 33.5254 57.6814C33.9922 57.8748 34.4697 58.0417 34.9556 58.1814C35.437 58.3469 35.9277 58.4839 36.4253 58.5913C42.6582 60.0305 49.2095 58.7349 54.4253 55.0312C57.5405 52.7993 59.9883 49.7603 61.5054 46.2412C62.4531 44.0256 62.9722 41.6504 63.0352 39.2412L63.0352 37.4514C62.9404 36.8552 62.8804 36.2544 62.8555 35.6514C62.7344 34.4255 62.5 33.2139 62.1553 32.0312C61.7554 30.5312 62.1553 30.4812 63.2852 31.5112C63.5654 31.7712 63.8955 32.1013 64.2852 32.5112C64.6436 32.9805 64.9775 33.4678 65.2852 33.9712C65.7139 34.5571 66.0508 35.2046 66.2852 35.8914C66.3955 36.2512 66.5054 36.6313 66.5952 37.0212C66.6631 37.4219 66.7095 37.8259 66.7354 38.2312C67.0835 44.2046 65.0723 50.0757 61.1353 54.5813C59.2358 56.8281 56.9707 58.7383 54.4355 60.2312C51.8896 61.6997 49.1084 62.7148 46.2153 63.2312C42.7256 63.9236 39.1421 64.0015 35.6255 63.4612C32.0181 62.9548 28.5869 61.5825 25.6255 59.4612C24.8179 58.8774 24.04 58.2532 23.2954 57.5913C22.9355 57.2512 22.5952 56.8914 22.2954 56.5913C21.939 56.2466 21.6045 55.8792 21.2954 55.4912C19.9487 53.9866 18.7998 52.3164 17.8755 50.5212C16.1201 47.0198 15.1768 43.1677 15.1152 39.2512C14.9976 34.449 16.2725 29.7153 18.7852 25.6213C20.7339 22.6355 23.252 20.063 26.1953 18.0513C29.0864 16.0134 32.3423 14.5503 35.7852 13.7412C41.1807 12.3997 46.8682 12.8887 51.9556 15.1313C52.5288 15.3713 53.0786 15.6313 53.6055 15.9114C54.1558 16.1736 54.687 16.4744 55.1953 16.8113C55.6753 17.1313 56.1255 17.4014 56.4854 17.7014C56.8452 18.0012 57.1553 18.3113 57.4854 18.5913C57.9438 19.0544 58.3525 19.5637 58.7056 20.1113C59.1909 20.8069 59.3882 21.6636 59.2554 22.5012C59.2266 22.8396 59.1665 23.1743 59.0752 23.5012C58.6655 24.4314 56.9653 23.6814 54.4653 22.2913C53.9956 22.0413 53.5151 21.8113 53.0752 21.5312L51.6753 20.7512L50.2852 20.0713L48.8755 19.4812C46.9897 18.7502 45.0103 18.2891 42.9956 18.1113C38.8892 17.7759 34.7754 18.6558 31.1655 20.6414C29.7847 21.3813 28.4844 22.2627 27.2852 23.2712C26.1152 24.2974 25.0562 25.4438 24.1255 26.6914C23.2056 27.8928 22.4487 29.2109 21.8755 30.6113C21.2974 32.0264 20.8975 33.5076 20.6855 35.0212L20.5952 35.0012Z" fill-rule="evenodd" fill="currentColor"/>
	<path d="M15.875 71.3213C15.4951 71.9814 15.1553 72.6614 14.875 73.3213C14.5952 73.9814 14.2451 74.7114 13.9653 75.4214C13.7554 75.9414 13.665 76.4814 13.4854 77.0112C12.8101 78.8706 12.2427 80.7671 11.7852 82.6914C11.6328 83.5532 11.5488 84.426 11.5352 85.3013L11.5352 86.9714C11.5703 87.5342 11.5703 88.0986 11.5352 88.6614C11.5352 89.0212 11.2153 89.0413 10.835 88.8113C10.3057 88.4775 9.90186 87.9785 9.68506 87.3914C9.3252 86.1897 9.09717 84.9524 9.00537 83.7014C8.95508 83.0791 8.95508 82.4536 9.00537 81.8313C9.01855 81.2085 9.1123 80.5898 9.28516 79.9915C9.48486 79.2905 9.62891 78.575 9.71533 77.8513C9.85498 77.1213 9.96533 76.3713 10.1353 75.6313C10.3052 74.8914 10.585 74.0513 10.8252 73.2612L11.6553 70.9414C12.0454 70.0112 12.4053 69.0713 12.8252 68.1514C13.125 67.4514 13.4453 66.7612 13.8252 66.0713C14.2051 65.3813 14.4951 64.6914 14.8252 64.0112C15.375 62.9514 15.7554 61.8113 16.415 60.7114C16.542 60.4468 16.6997 60.1985 16.8853 59.9714C17.0347 59.7849 17.2061 59.6172 17.395 59.4714C17.5591 59.3599 17.748 59.2913 17.9453 59.2712C18.3604 59.2617 18.7563 59.4468 19.0151 59.7712C19.1997 59.926 19.3706 60.0967 19.5254 60.2812C19.9292 60.8093 20.1216 61.469 20.0654 62.1313C19.855 62.9915 19.585 63.8413 19.2852 64.7612L18.7954 66.1213C18.625 66.5813 18.3154 66.9614 18.105 67.4114C17.395 68.7014 16.6152 70.0015 15.9751 71.4114L15.875 71.3213Z" fill-rule="evenodd" fill="currentColor"/>
	<path d="M14.6953 60.3713L15.9551 59.3713C16.4717 58.9602 17.0278 58.6018 17.6152 58.3013C18.1177 58.0217 18.6802 57.8674 19.2554 57.8513C19.8247 57.8777 20.3667 58.1045 20.7852 58.4912C21.1113 58.7637 21.4185 59.0576 21.7051 59.3713C22.0015 59.7253 22.2627 60.1072 22.4854 60.5112C22.6885 60.8298 22.8657 61.1643 23.0151 61.5112C23.1055 61.7512 23.1851 62.0012 23.2651 62.2412C23.4253 62.7214 23.5654 63.2412 23.7153 63.6814L24.5254 66.5112C24.7764 67.3301 25.0801 68.1318 25.4351 68.9114C25.8115 69.9551 26.0176 71.0522 26.0454 72.1614C26.0454 72.5312 25.5952 72.6414 24.9951 72.5613C24.3052 72.5342 23.6426 72.2852 23.1055 71.8513C22.7451 71.4014 22.3853 70.9614 22.0454 70.5112C21.7881 70.0325 21.5771 69.5303 21.415 69.0112C21.0386 67.9805 20.7349 66.9246 20.5054 65.8513C20.3638 65.2178 20.1313 64.6082 19.8154 64.0413L19.5854 63.6113L19.4653 63.4114C19.4653 63.3313 19.4653 63.3513 19.415 63.3113C19.3652 63.2712 19.3154 63.1113 19.2754 63.0012C19.2354 62.8914 19.165 62.7412 19.0854 62.6113C19.0474 62.5449 19.0005 62.4841 18.9453 62.4314C18.8853 62.3713 18.8154 62.4314 18.7451 62.4314C18.4629 62.5142 18.1963 62.6426 17.9551 62.8113L17.8755 62.8513L17.6353 63.0413L17.1152 63.4614C16.7651 63.7412 16.4253 64.0312 16.1152 64.3413C15.0771 65.2476 14.0986 66.2195 13.1851 67.2512C12.5425 68.1008 11.9575 68.9929 11.4351 69.9214C11.3052 70.1213 11.2153 70.3313 11.0752 70.5212C10.5552 71.2114 10.1851 71.2612 9.31543 70.7913C9.12549 70.6814 8.91504 70.5813 8.7251 70.4614C8.11865 70.1177 7.84863 69.387 8.08545 68.7312C8.86963 66.8445 9.99121 65.1162 11.395 63.6313C12.4341 62.4688 13.5361 61.3638 14.6953 60.3213L14.6953 60.3713Z" fill-rule="evenodd" fill="currentColor"/>
	<path d="M80.9551 31.4414C79.7739 30.8438 78.5508 30.3323 77.2954 29.9114C76.8354 29.7415 76.2954 29.7314 75.8853 29.5813C75.0654 29.3013 74.2251 29.1213 73.375 28.9014L72.1055 28.6514C71.6787 28.5317 71.2441 28.4414 70.8052 28.3813C70.0415 28.262 69.2671 28.2217 68.4951 28.2612C67.4971 28.3335 66.4956 28.3503 65.4951 28.3113C65.1753 28.3113 65.1553 27.9915 65.3555 27.6113C65.6216 27.1128 66.0479 26.7185 66.5654 26.4915C67.0791 26.3044 67.6035 26.1477 68.1353 26.0212C68.6675 25.877 69.209 25.7666 69.7554 25.6914C70.835 25.4814 71.9453 25.4814 73.0254 25.6914C74.3052 25.9814 75.6753 25.9214 77.0254 26.1614C78.4644 26.4258 79.8843 26.7866 81.2754 27.2415C82.125 27.5312 82.9751 27.8213 83.8052 28.1614C85.0854 28.6414 86.3052 29.2612 87.5552 29.8113C88.5054 30.2812 89.5552 30.6013 90.5552 31.1514C90.7822 31.2761 91.0024 31.4131 91.2153 31.5613C91.54 31.7612 91.7593 32.0942 91.8154 32.4714C91.7754 32.8521 91.6016 33.2063 91.3252 33.4714C91.1792 33.6636 91.0225 33.8474 90.8555 34.0212C90.3896 34.5046 89.7344 34.7571 89.0654 34.7114C88.6553 34.6313 88.2754 34.5413 87.895 34.4514C87.5151 34.3613 87.125 34.2515 86.7153 34.1414C86.3052 34.0312 85.875 33.9514 85.4951 33.8513C85.1138 33.6887 84.7427 33.5017 84.3853 33.2913C83.2754 32.7114 82.145 32.0613 80.9253 31.5613L80.9551 31.4414Z" fill-rule="evenodd" fill="currentColor"/>
	<path d="M90.7153 29.4812L91.2554 30.0913C91.4653 30.3213 91.6655 30.5713 91.8652 30.8113C92.2563 31.2666 92.5923 31.7666 92.8652 32.3013C93.0903 32.7622 93.2065 33.2686 93.2051 33.7812C93.1899 34.2988 92.9995 34.7959 92.6655 35.1912C92.4551 35.4912 92.1655 35.7712 91.9155 36.0613C91.6016 36.3652 91.2524 36.6304 90.8755 36.8513C90.5518 37.0425 90.2178 37.2161 89.8755 37.3713L89.4053 37.6013L89.0654 37.7212L87.7451 38.1514L85.1455 38.9512C84.3994 39.2019 83.6709 39.5027 82.9653 39.8513C82.0083 40.2278 80.9932 40.4375 79.9653 40.4712C79.6255 40.4712 79.4951 40.0212 79.5352 39.4214C79.5508 38.7483 79.7783 38.0974 80.1855 37.5613C80.5854 37.2012 80.9751 36.8413 81.3755 36.5613C81.8169 36.2722 82.29 36.0339 82.7852 35.8513C83.7163 35.4873 84.6719 35.1897 85.6455 34.9612C86.2275 34.8228 86.7847 34.5933 87.2954 34.2812L87.7754 34.0112C87.8677 33.9534 87.9648 33.9033 88.0654 33.8613C88.1895 33.8093 88.3096 33.7493 88.4253 33.6812C88.5552 33.6113 88.6753 33.4912 88.6255 33.3613C88.5537 33.1067 88.439 32.8665 88.2852 32.6514L88.1152 32.4114L87.7451 31.9612C87.4751 31.6514 87.2051 31.3413 86.9155 31.0513C86.0605 30.115 85.1421 29.2395 84.1655 28.4312C83.3633 27.8669 82.521 27.3621 81.6455 26.9214C81.4531 26.8279 81.2666 26.7244 81.0854 26.6113C80.4253 26.1614 80.3853 25.8113 80.8452 24.9412C80.9453 24.7412 81.0454 24.5413 81.1655 24.3513C81.4727 23.7471 82.1597 23.4387 82.8154 23.6113C84.5947 24.2346 86.2354 25.1995 87.6455 26.4512C88.7354 27.3513 89.7451 28.3513 90.7852 29.4014L90.7153 29.4812Z" fill-rule="evenodd" fill="currentColor"/>
	<path d="M42.4551 31.5515C42.375 31.2915 42.1953 31.3416 42.0454 31.4614C41.9468 31.5505 41.8594 31.6514 41.7852 31.7615L41.7051 31.8816L41.395 32.4214L40.8052 33.4214C40.2451 34.4214 39.8052 35.5215 39.2451 36.5715L37.7554 39.3716L36.2251 42.1514C35.7173 43.1377 35.1562 44.0957 34.5454 45.0215L34.2954 45.3716C34.1855 45.5295 34.0654 45.6799 33.9351 45.8215L33.5454 46.2815L33.1152 46.6914C32.5693 47.1851 31.8506 47.4436 31.1152 47.4114C30.8018 47.3425 30.499 47.2314 30.2153 47.0815C29.9565 46.8997 29.7334 46.6726 29.5552 46.4114C29.1636 45.8445 28.9229 45.1873 28.855 44.5015L28.7754 43.9714C28.77 43.9282 28.77 43.8848 28.7754 43.8416C28.7754 43.7915 28.7754 43.7615 28.7754 43.7214L28.7754 43.5315C28.7754 43.2815 28.7754 43.0315 28.7754 42.7915C28.7754 42.3015 28.7754 41.7915 28.7754 41.3416C28.874 38.9011 29.3564 36.4917 30.2051 34.2014C30.5654 33.4614 30.7954 33.7415 30.9253 34.4114C31.1523 35.4585 31.2266 36.5332 31.145 37.6016C31.0454 38.7715 30.9951 39.9414 31.0054 41.0916C31.0054 41.6614 31.0054 42.2214 31.105 42.7615C31.105 43.0115 31.2153 43.3516 31.2451 43.4915C31.2451 43.5515 31.2451 43.7615 31.4351 43.7214L31.5454 43.7214C31.5776 43.7053 31.605 43.6814 31.625 43.6514C31.7051 43.5515 31.7754 43.4614 31.855 43.3416C32.145 42.9214 32.4453 42.4314 32.7354 41.9414C33.0254 41.4514 33.3652 40.7214 33.7354 39.9414C34.105 39.1614 34.3652 38.6216 34.6553 37.9414C35.2554 36.5815 35.8052 35.1814 36.4253 33.8115C36.7754 33.0615 37.125 32.3015 37.4951 31.5515L38.0654 30.4214L38.1953 30.1714L38.395 29.7214L38.8252 28.8215C39.3149 27.7107 39.958 26.6738 40.7354 25.7415C41.333 25.0283 42.0854 24.4607 42.9351 24.0815C43.4595 23.8623 44.0352 23.7964 44.5952 23.8916C44.8892 23.9722 45.1621 24.1155 45.395 24.3115C45.5845 24.5015 45.7554 24.709 45.9053 24.9314C46.1929 25.4155 46.4116 25.9373 46.5552 26.4814C46.7236 27.1233 46.8306 27.7795 46.875 28.4414C46.9692 29.522 47.0024 30.6072 46.9751 31.6914L46.875 34.1614C46.875 35.6814 46.8252 37.1614 46.875 38.6914C47.0659 40.9114 47.4678 43.1079 48.0752 45.2515C48.1851 45.6914 48.375 46.0615 48.4951 46.4214C48.5454 46.5815 48.605 46.7114 48.6353 46.8416C48.6729 46.9243 48.6997 47.0117 48.7153 47.1016C48.7153 47.1016 48.7153 47.2615 48.7153 47.3215C48.666 47.3787 48.626 47.4426 48.5952 47.5115C48.3467 47.8472 48.2622 48.2766 48.3652 48.6814C48.4248 48.9226 48.5083 49.1572 48.6152 49.3816C48.7554 49.7415 48.6753 50.1316 47.9854 50.4414C47.5215 50.5764 47.0288 50.5764 46.5654 50.4414C45.9897 50.2649 45.4648 49.9529 45.0352 49.5315C44.1528 48.4351 43.4751 47.1885 43.0352 45.8516C42.8252 45.2615 42.645 44.6714 42.4854 44.0916C42.3564 43.5149 42.2661 42.9302 42.2153 42.3416C41.9995 40.0613 41.9526 37.7686 42.0752 35.4814C42.2754 30.7114 42.3652 32.4814 42.3652 31.8015L42.4551 31.5515Z" fill-rule="evenodd" fill="currentColor"/>
	<defs/>
</svg>
