<svg width="24" height="24" viewBox="0 0 110 110" fill="none" xmlns="http://www.w3.org/2000/svg" xmlns:xlink="http://www.w3.org/1999/xlink">
	<path d="M57.2236 83.5083C58.1157 78.094 58.627 72.624 58.7534 67.1382C58.6167 63.9128 58.103 60.7144 57.2236 57.6082C56.2236 53.1982 53.2236 50.5483 48.6235 50.7883C44.0234 51.0283 39.4736 56.9783 39.4336 57.0383C40.7637 55.2783 43.7935 54.7283 45.8735 54.8381C52.5537 55.1982 54.8735 62.6082 55.6235 68.1682C56.375 73.1323 56.5195 78.1692 56.0537 83.1682L57.2236 83.5083Z" fill-rule="evenodd" fill="currentColor"/>
	<path d="M71.3535 50.8083C71.3535 50.8083 73.7637 41.0183 73.6934 33.2983C73.6934 30.2183 72.1035 24.7783 71.8335 23.5283C70.8335 19.1084 67.6133 16.6982 62.9634 16.9482C58.3135 17.1982 53.8433 23.1284 53.7734 23.1982C55.1035 21.4385 58.1333 20.8784 60.2134 20.9983C66.8936 21.3584 69.2134 28.7683 69.9634 34.3284C70.668 39.4053 70.7686 44.5479 70.2637 49.6484L71.3535 50.8083Z" fill-rule="evenodd" fill="currentColor"/>
	<path d="M53.9434 60.7683C53.7344 59.094 53.3315 57.4497 52.7437 55.8682C52.4795 55.1946 52.1445 54.5508 51.7437 53.9482C51.439 53.4929 51.0444 53.1047 50.5835 52.8083L50.3638 52.6782L50.0635 52.5884C49.8672 52.5332 49.6665 52.4963 49.4634 52.4783C49.0571 52.4441 48.6479 52.4541 48.2437 52.5083C46.6636 52.7483 44.6934 54.0984 42.9434 55.7083C41.1313 57.4038 39.4092 59.1929 37.7837 61.0684C36.2935 62.7783 34.8438 64.5083 33.4136 66.2683C31.6494 68.6084 29.585 70.7065 27.2734 72.5083C26.5137 73.0383 26.0537 72.3584 26.0034 71.2283C25.9551 69.7903 26.3999 68.3789 27.2637 67.2283C29.0435 65.0183 30.7534 62.7283 32.5234 60.4382C34.3643 58.0916 36.3447 55.8574 38.4536 53.7483C39.7837 52.4783 41.1138 51.0884 42.7236 49.7483C43.5815 49.0571 44.5181 48.4697 45.5137 47.9983C46.6226 47.4734 47.8271 47.1807 49.0537 47.1382C49.7261 47.1304 50.3975 47.2009 51.0537 47.3484C51.3916 47.4202 51.7251 47.5103 52.0537 47.6182C52.3838 47.7483 52.7236 47.8782 53.0537 48.0283C54.2202 48.6555 55.2427 49.521 56.0537 50.5684C57.4243 52.3901 58.4419 54.4521 59.0537 56.6482C59.7754 59.1318 60.2705 61.6755 60.5337 64.2483C60.8052 68.0527 60.8315 71.8706 60.6138 75.6782C60.4834 78.6084 60.5635 81.5283 60.1934 84.4983C60.1235 85.1482 60.0635 85.8083 59.9336 86.4983C59.3936 88.9282 58.6436 89.5884 56.9336 89.4983C56.5684 89.4919 56.2041 89.4587 55.8438 89.3982C54.5835 89.1182 53.9634 87.9382 54.0435 86.3982C54.2437 81.6682 54.5938 76.7383 54.5537 71.7483C54.5537 69.9082 54.4736 68.0583 54.3335 66.2383C54.2759 64.4204 54.1123 62.6072 53.8438 60.8083L53.9434 60.7683Z" fill-rule="evenodd" fill="currentColor"/>
	<path d="M68.7139 26.6182C68.5044 24.9441 68.1016 23.2998 67.5137 21.7183C67.2476 21.0454 66.9126 20.4019 66.5137 19.7983C66.2065 19.3452 65.812 18.9575 65.3535 18.6582L65.1338 18.5083L64.8438 18.4382C64.644 18.3831 64.4399 18.3464 64.2334 18.3284C63.8281 18.2891 63.4194 18.2891 63.0137 18.3284C61.4536 18.5483 59.4834 19.9182 57.7437 21.5283C56.0034 23.1382 54.2734 25.0283 52.5938 26.9082C51.1035 28.5984 49.6738 30.3682 48.2139 32.0884C46.438 34.4072 44.3711 36.4875 42.0635 38.2783C41.3037 38.8083 40.8438 38.1282 40.7935 36.9983C40.7451 35.5586 41.1934 34.1462 42.0635 32.9983C43.8535 30.7883 45.5635 28.5083 47.3335 26.2183C49.1758 23.8818 51.1489 21.6516 53.2437 19.5383C54.5737 18.2583 55.8838 16.8584 57.5034 15.5383C58.3579 14.8369 59.2949 14.2424 60.2935 13.7683C62.0327 12.9773 63.9863 12.7908 65.8438 13.2383C66.1636 13.3184 66.4736 13.3882 66.8438 13.4983C67.2139 13.6084 67.5137 13.7683 67.8438 13.9182C69.0151 14.5601 70.0376 15.4429 70.8438 16.5083C72.2173 18.3281 73.2354 20.3909 73.8438 22.5884C74.5688 25.0703 75.061 27.6147 75.3135 30.1882C75.5933 33.9922 75.6235 37.8103 75.4038 41.6182C75.2734 44.5483 75.4038 47.4683 74.9834 50.4382C74.9136 51.0884 74.8535 51.7483 74.7236 52.4382C74.1738 54.8782 73.4336 55.5283 71.7236 55.4382C71.335 55.439 70.9473 55.4089 70.5635 55.3484C69.3037 55.0784 68.6836 53.8882 68.7637 52.3484C68.9639 47.6084 69.3135 42.6782 69.2734 37.6882C69.2734 35.8484 69.1938 33.9983 69.0537 32.1782C68.9692 30.3728 68.7856 28.5735 68.5034 26.7883L68.7139 26.6182Z" fill-rule="evenodd" fill="currentColor"/>
	<defs/>
</svg>
