<svg width="24" height="24" viewBox="0 0 110 110" fill="none" xmlns="http://www.w3.org/2000/svg" xmlns:xlink="http://www.w3.org/1999/xlink">
	<path d="M73.0962 71.2605C72.4194 73.1492 71.4023 74.8979 70.0962 76.4204C68.7412 77.8723 67.1226 79.0532 65.3262 79.9006C62.1035 81.3784 58.564 82.0315 55.0264 81.8005C52.4927 81.7146 49.9966 81.1584 47.666 80.1606C46.6621 79.7046 45.6958 79.1694 44.7764 78.5605C44.3462 78.2505 43.8462 77.9006 43.4761 77.5605L42.3765 76.7104C40.9297 75.5972 39.4243 74.5623 37.8662 73.6106C34.9009 71.6763 31.481 70.5522 27.9463 70.3506C26.3916 70.2896 24.8374 70.4856 23.3462 70.9304C21.8413 71.3477 20.3989 71.9631 19.0562 72.7605C17.3804 73.7996 15.9263 75.1589 14.7764 76.7605C14.4761 77.1506 14.1963 77.5706 13.9263 77.9905C13.6562 78.4106 13.3262 78.8105 13.0464 79.2505C12.4663 80.1006 11.936 81.0105 11.4062 81.9304C10.7563 83.0806 10.3262 82.7705 10.1162 81.4504C9.98486 80.5664 9.96484 79.6694 10.0562 78.7805C10.1099 78.1875 10.2065 77.5994 10.3462 77.0205L10.6162 76.0806C10.7661 75.7805 10.9263 75.4805 11.1064 75.1804C12.4233 72.9958 14.1807 71.1091 16.2661 69.6406C18.3486 68.2134 20.668 67.1672 23.1162 66.5505C25.6011 65.9353 28.1812 65.803 30.7163 66.1606C33.1714 66.512 35.5527 67.2617 37.7661 68.3806C40.3096 69.6575 42.7832 71.0696 45.1763 72.6106L46.0562 73.1804C46.3462 73.3806 46.6562 73.5706 46.8862 73.7104C47.3833 74.0198 47.8975 74.3003 48.4263 74.5505C49.4868 75.0439 50.5918 75.4358 51.7261 75.7205C54.2222 76.3357 56.8301 76.3357 59.3262 75.7205C60.5576 75.4199 61.7417 74.9521 62.8462 74.3306C63.8721 73.7917 64.7637 73.0295 65.4561 72.1006C67.1763 69.8906 67.6763 66.5105 67.6162 63.0305C67.6162 57.7305 66.686 52.1006 66.8462 46.2104C66.8921 43.845 67.228 41.4941 67.8462 39.2104C68.5415 36.7493 69.8091 34.4875 71.5464 32.6106C71.9121 32.1843 72.3101 31.7866 72.7363 31.4204C73.1323 31.0208 73.5679 30.6624 74.0361 30.3506C74.4663 30.0706 74.8765 29.8105 75.2461 29.5906C75.5967 29.4141 75.9614 29.2668 76.3364 29.1506C76.8906 28.9526 77.4692 28.8315 78.0562 28.7905C78.9409 28.8003 79.7788 29.1899 80.3564 29.8606C80.6631 30.1487 80.9443 30.4631 81.1963 30.8005C81.5312 31.4097 81.4966 32.1553 81.1064 32.7305C80.5933 33.5391 79.9629 34.2671 79.2363 34.8906L78.7764 35.2905C78.6465 35.4404 78.5063 35.5706 78.3662 35.7104C78.2261 35.8506 77.7964 36.2305 77.5464 36.5105C77.2964 36.7905 77.0762 37.0706 76.8364 37.3406C76.5962 37.6106 76.4463 37.9204 76.2461 38.2004C75.5229 39.3499 75.002 40.615 74.7061 41.9404C74.376 43.4512 74.2148 44.9941 74.2261 46.5405C74.2261 48.2205 74.1465 50.0305 74.2261 51.9204C74.3062 54.7605 74.5161 57.7405 74.5361 60.9204C74.5571 62.5896 74.4907 64.2585 74.3364 65.9204C74.1533 67.7539 73.7812 69.5635 73.2261 71.3206L73.0962 71.2605Z" fill-rule="evenodd" fill="currentColor"/>
	<path d="M85.6562 27.6304C85.6904 27.0376 85.6904 26.4434 85.6562 25.8506C85.6562 25.7505 85.6562 25.7405 85.6562 25.6604C85.6562 25.5806 85.6562 25.5505 85.6562 25.5105C85.6562 25.4705 85.4663 25.2805 85.2461 25.1604C84.7622 25.0432 84.2642 24.9929 83.7661 25.0105C82.5337 24.9355 81.2964 25.0229 80.0864 25.2705C78.7285 25.4983 77.3911 25.8325 76.0864 26.2705C74.9043 26.6921 73.7739 27.2456 72.7163 27.9204C71.3896 28.8306 69.9424 29.5508 68.416 30.0605C67.9263 30.2004 67.416 29.5405 67.2061 28.5405C66.915 27.4368 67.1196 26.2612 67.7661 25.3206C68.0864 24.9905 68.416 24.6504 68.7661 24.3206L69.2661 23.8406L69.8364 23.4504C70.5879 22.9443 71.3696 22.4836 72.1763 22.0706C73.7729 21.2017 75.4824 20.5588 77.2563 20.1604C78.3765 19.9404 79.5063 19.6904 80.686 19.4104C81.9336 19.0942 83.2202 18.9595 84.5063 19.0105C86.2295 19.0972 87.8843 19.7114 89.2461 20.7705C90.5605 21.9307 91.4155 23.5237 91.6562 25.2605C91.8633 26.8591 91.8867 28.4763 91.7261 30.0806C91.4463 32.3384 91.0391 34.5786 90.5063 36.7905C90.1763 38.4705 90.1362 40.2004 89.9263 41.8904C89.9106 42.2605 89.8638 42.6284 89.7861 42.9905C89.3862 44.2905 88.7861 44.5405 87.1265 44.3005C86.7461 44.2405 86.3564 44.2004 85.9863 44.1206C84.8364 43.9497 83.9277 43.0571 83.7363 41.9104C83.5737 40.4089 83.6411 38.8916 83.936 37.4104C84.1763 35.9805 84.5063 34.6106 84.7764 33.2705C85.2319 31.4241 85.4766 29.532 85.5063 27.6304L85.6562 27.6304Z" fill-rule="evenodd" fill="currentColor"/>
	<defs/>
</svg>
