<svg width="24" height="24" viewBox="0 0 110 110" fill="none" xmlns="http://www.w3.org/2000/svg" xmlns:xlink="http://www.w3.org/1999/xlink">
	<path d="M41.083 44.6304C44.6729 44.6304 48.543 44.0903 52.6426 43.8604C54.7534 43.7153 56.8721 43.7153 58.9829 43.8604C60.0796 43.9409 61.1714 44.0811 62.2529 44.2803L63.0728 44.4302C63.3628 44.5103 63.6528 44.5703 63.9429 44.6602C64.5161 44.812 65.0801 44.9956 65.6328 45.21C68.8857 46.3774 71.7544 48.4189 73.9229 51.1104C74.8921 52.3862 75.6333 53.8208 76.1128 55.3501C76.6104 56.9365 76.7471 58.6143 76.5127 60.2603C76.3965 61.0669 76.2021 61.8608 75.9326 62.6304C75.6416 63.3496 75.3076 64.0508 74.9326 64.73C74.1787 65.9922 73.2568 67.146 72.1929 68.1602C70.1782 70.0449 67.8677 71.5854 65.353 72.7202C62.9546 73.834 60.4526 74.708 57.8828 75.3301C53.396 76.3989 48.7944 76.9097 44.1826 76.8501C38.3569 76.8296 32.5771 75.8149 27.0928 73.8501C25.4429 73.0703 25.7627 72.8501 27.3726 72.6104C29.9082 72.3042 32.4683 72.2603 35.0127 72.48C36.4229 72.6001 37.833 72.6699 39.2329 72.7002C40.6328 72.73 42.0229 72.8101 43.4126 72.8003C46.1689 72.8091 48.9214 72.5947 51.6426 72.1602C54.3315 71.7349 56.9756 71.0654 59.543 70.1602C62.0571 69.2837 64.4497 68.0908 66.6626 66.6104C67.8989 65.7588 68.978 64.6997 69.853 63.48C70.6685 62.394 71.1792 61.1099 71.333 59.7603C71.563 57.27 69.9229 54.7603 67.563 52.9702C66.2588 51.9692 64.7852 51.2104 63.2129 50.73C62.833 50.6001 62.4326 50.5503 62.043 50.4302C61.6528 50.3101 61.1826 50.2803 60.7529 50.2002C59.8643 50.0708 58.9697 49.9873 58.0728 49.9502C54.2515 49.9028 50.4316 50.1299 46.6426 50.6304C44.1357 50.9014 41.6147 51.0249 39.0928 51C37.7778 50.9658 36.4658 50.8589 35.1626 50.6802C33.7002 50.4517 32.293 49.9531 31.0127 49.21C28.8174 48.019 27.2563 45.9243 26.7427 43.48C26.3413 41.125 26.8765 38.7065 28.2329 36.7402C28.8105 35.8774 29.4595 35.0645 30.1729 34.3101C30.8555 33.5889 31.5767 32.9043 32.333 32.2603C33.0781 31.627 33.856 31.0327 34.6626 30.48C35.063 30.2002 35.4629 29.9102 35.8726 29.6499L37.1128 28.9102C42.2563 25.8164 48.0347 23.9287 54.0127 23.3901C55.3423 23.2646 56.6782 23.2246 58.0127 23.27C59.0718 23.356 60.1235 23.5093 61.1626 23.73C61.8516 23.917 62.521 24.168 63.1626 24.48C64.0825 24.8877 64.7646 25.6948 65.0127 26.6699C65.146 27.0693 65.2368 27.4819 65.2827 27.8999C65.2827 28.54 64.7329 28.96 63.853 29.1602C63.3325 29.2637 62.8027 29.3105 62.2729 29.3003C61.5874 29.354 60.8984 29.354 60.2129 29.3003C57.9297 29.2134 55.6431 29.3374 53.3828 29.6699C51.1025 30.0479 48.8579 30.6162 46.6729 31.3701C44.5054 32.1699 42.4194 33.1743 40.4429 34.3701C38.5142 35.4824 36.7563 36.8667 35.2227 38.48C34.9429 38.75 34.7427 39.0703 34.4829 39.3604L34.1226 39.8003L33.8726 40.1602C33.5889 40.5405 33.3726 40.9668 33.2329 41.4199C33.1323 41.688 33.105 41.978 33.1528 42.2603C33.1836 42.5195 33.2915 42.7632 33.4629 42.96C33.729 43.271 34.0513 43.5288 34.4126 43.7202C34.9102 43.9722 35.4429 44.1475 35.9927 44.2402C36.376 44.314 36.7632 44.3638 37.1528 44.3901C37.563 44.4502 37.9927 44.4702 38.4229 44.4902C39.2827 44.5503 40.1729 44.4902 41.0728 44.4902L41.083 44.6304Z" fill-rule="evenodd" fill="currentColor"/>
	<path d="M43.4727 60.3701C42.9727 56.3101 42.3628 52.25 41.7227 48.2002C41.4927 46.7202 41.1025 45.27 40.8628 43.79C40.0728 38.5698 39.1924 33.3501 38.1128 28.1699C37.6128 25.8901 37.1128 23.5898 36.4126 21.3701C36.0127 19.9302 35.5327 18.52 35.1128 17.0898C34.6924 15.6602 34.3125 14.2402 34.0527 12.7603C33.8926 11.8301 34.7427 11.6299 35.8525 12.0698C37.3027 12.665 38.4673 13.7974 39.1025 15.23C40.3027 18.1299 41.3628 21.0498 42.2627 24.02C43.1045 27.0186 43.7329 30.0728 44.1426 33.1602C44.417 35.0327 44.7944 36.8887 45.2725 38.7202C45.7026 40.5801 46.1826 42.4399 46.5728 44.2998C46.9624 46.2998 47.3726 48.4102 47.7124 50.4702L48.7124 56.6699L49.8027 64.3198C50.0825 66.25 50.3428 68.1899 50.5625 70.1299C50.7827 72.0698 51.0527 74 51.3027 75.9302C51.5225 77.4199 51.8125 78.9302 52.0625 80.3799C52.3623 81.8608 52.5859 83.3564 52.7324 84.8599C52.7324 85.5298 52.8525 86.1802 52.8628 86.8599C52.8955 87.7847 52.7178 88.7046 52.3428 89.5498C52.0625 90.085 51.5854 90.4897 51.0127 90.6802C50.7471 90.8003 50.4731 90.9004 50.1924 90.98C49.3027 91.1602 48.5225 90.1299 48.0024 88.4399C46.3125 83.4399 45.8525 78.0698 45.0728 72.6201C44.5127 68.6201 44.0127 64.48 43.3525 60.3999L43.4727 60.3701Z" fill-rule="evenodd" fill="currentColor"/>
	<path d="M58.4326 39.7002C58.519 43.6001 58.7026 47.5034 58.9824 51.4102C59.0728 52.8301 59.3726 54.23 59.4727 55.6499C59.6426 58.1602 59.9126 60.6499 60.1128 63.1802C60.3125 65.71 60.5425 68.1802 60.8926 70.7002C61.2007 72.9102 61.6211 75.103 62.1523 77.27C62.4624 78.6499 62.9023 80 63.2324 81.3799C63.5532 82.7681 63.7939 84.1738 63.9526 85.5898C64.0327 86.48 63.2324 86.5898 62.1826 86.1499C60.8086 85.5151 59.7163 84.3979 59.1128 83.0098C57.2598 77.3232 56.0752 71.4404 55.5825 65.48C55.4023 63.7002 55.2227 61.8999 54.9424 60.0898C54.6626 58.2798 54.4126 56.48 54.2124 54.6802C53.8027 50.6802 53.5327 46.6802 53.3125 42.6802C53.2227 41.4502 53.2026 40.21 53.1523 38.98C53.1025 37.75 53.0127 36.54 53.0127 35.3101C52.9424 31.5801 53.0127 27.8301 53.0127 24.1099C53.0127 22.6699 53.0127 21.2402 53.0127 19.7998C53.0127 18.3599 53.0127 16.9399 53.1128 15.48C53.1128 14.8501 53.1626 14.2202 53.2324 13.5801C53.5928 11.1899 54.0825 10.46 55.1323 10.1802C55.3716 10.1035 55.6152 10.0435 55.8628 10C56.6426 10 57.1128 11 57.1426 12.6499C57.2324 15.1099 57.3926 17.6499 57.5728 20.1899C57.6226 21.46 57.7827 22.7598 57.8525 24.0601L57.8525 26.0601L57.9526 28.0601C58.0728 31.9399 58.3926 35.8599 58.5327 39.7798L58.4326 39.7002Z" fill-rule="evenodd" fill="currentColor"/>
	<defs/>
</svg>
