<svg width="24" height="24" viewBox="0 0 110 110" fill="none" xmlns="http://www.w3.org/2000/svg" xmlns:xlink="http://www.w3.org/1999/xlink">
	<path d="M56.9424 68.4341C57.8379 68.2305 58.6357 67.7256 59.2026 67.0039C59.8975 66.0322 60.3467 64.9067 60.5127 63.7241C60.9312 60.6338 60.877 57.498 60.3525 54.4238C60.0127 52.0342 59.3525 49.6641 58.8926 47.2339L57.5327 40.7241C57.3027 39.6138 57.0928 38.4941 56.9126 37.3237C56.7925 36.7241 56.7925 36.1338 56.6724 35.5239C56.5527 34.9141 56.5825 34.2441 56.5928 33.644C56.5259 31.106 56.9785 28.5806 57.9224 26.2241C58.4517 25.0078 59.1558 23.876 60.0127 22.8638C60.874 21.8716 61.8862 21.021 63.0127 20.3438C64.9517 19.2173 67.0977 18.4927 69.3228 18.2139C71.4331 17.9287 73.5723 17.9287 75.6826 18.2139C81.022 18.7725 86.0737 20.9102 90.1924 24.354C91.4326 25.4941 90.5425 26.124 88.8926 26.2139C86.665 26.3062 84.4409 25.9663 82.3428 25.2139C78.1919 23.5415 73.6758 22.9834 69.2427 23.5938C67.3716 23.8569 65.6265 24.6875 64.2427 25.9741C63.605 26.6274 63.0781 27.3809 62.6826 28.2041C62.2759 29.1421 61.9834 30.126 61.8125 31.1338C61.6006 32.457 61.5737 33.8032 61.7324 35.1338C61.9492 36.6157 62.2466 38.0845 62.6226 39.5342C63.3828 42.5342 64.2725 45.644 64.9624 48.7939C65.7832 52.3193 66.2949 55.9097 66.4927 59.5239C66.5894 61.4448 66.4688 63.3701 66.1328 65.2642C65.7847 67.3726 64.9185 69.3623 63.6128 71.0537C61.8413 73.1421 59.3354 74.4702 56.6128 74.7642C54.1982 75.0259 51.7563 74.8154 49.4224 74.144C46.0527 73.2642 43.0625 71.9141 40.0928 70.9141C38.6934 70.4033 37.2554 70.0054 35.7925 69.7241C34.3838 69.5142 32.9517 69.5142 31.5425 69.7241C29.3804 70.0571 27.3374 70.9312 25.6025 72.2642C23.8613 73.623 22.3257 75.2261 21.0425 77.0239L20.2026 78.2539C19.9424 78.6738 19.6826 79.104 19.3926 79.5142C17.3926 82.7041 16.4424 83.624 14.4927 83.5142C14.0566 83.5493 13.6187 83.5493 13.1826 83.5142C11.7925 83.1738 11.5625 81.1538 12.8428 78.2241C13.8223 75.9673 15.0571 73.8301 16.5225 71.854C18.1489 69.6909 20.1387 67.8267 22.4028 66.3438C24.8613 64.77 27.6313 63.7466 30.5225 63.3438C31.2524 63.2539 31.9727 63.2041 32.7026 63.144C33.4326 63.084 34.2324 63.144 34.9727 63.1938C36.3774 63.3203 37.769 63.5645 39.1328 63.9238C43.0127 64.9238 46.2227 66.4141 49.2427 67.4438C52.2627 68.4741 54.8926 68.9639 56.8926 68.3438L56.9424 68.4341Z" fill-rule="evenodd" fill="currentColor"/>
	<defs/>
</svg>
