<svg width="24" height="24" viewBox="0 0 110 110" fill="none" xmlns="http://www.w3.org/2000/svg" xmlns:xlink="http://www.w3.org/1999/xlink">
	<path d="M53.9326 29.9805C53.9326 29.9805 57.4229 36.3506 54.5229 42.5806C51.623 48.8105 43.9727 51.8406 42.8027 52.2205C41.6328 52.6006 49.8628 52.7004 49.8628 52.7004C49.8628 52.7004 57.603 49.8306 59.083 45.5806C60.563 41.3306 60.3931 36.8904 59.293 34.9805C58.1929 33.0706 53.9326 29.9805 53.9326 29.9805Z" fill-rule="evenodd" fill="currentColor"/>
	<path d="M62.1226 44.4404C61.5928 46.1223 60.752 47.6895 59.6426 49.0603C59.0898 49.793 58.4595 50.4634 57.7627 51.0603C57.1309 51.5779 56.4624 52.0491 55.7627 52.4702C53.2397 53.8682 50.5522 54.9465 47.7627 55.6804C45.9229 56.2202 44.3325 56.9004 42.7627 57.5103C39.9897 58.6104 37.4106 60.1465 35.1226 62.0603C32.8403 63.9519 31.0293 66.3484 29.8325 69.0603C29.5811 69.6611 29.374 70.2793 29.2129 70.9104C29.0625 71.5403 28.9727 72.1904 28.8828 72.8403C28.7925 73.4902 28.7925 74.1404 28.8828 74.8403L28.9629 75.8403C28.9648 76.1748 28.9883 76.5088 29.0327 76.8403C29.271 78.5437 29.6797 80.2188 30.2524 81.8403C30.7827 83.5303 31.4028 85.2703 32.0024 87.0503C32.3628 88.1704 31.7026 88.3704 30.5024 87.8804C28.7114 87.1375 27.1851 85.8726 26.1226 84.2502C24.9766 82.3845 24.1045 80.364 23.5327 78.2502C22.9395 76.0083 22.8403 73.6643 23.2427 71.3804C23.5737 69.0864 24.3159 66.8711 25.4326 64.8403C25.9771 63.8699 26.5918 62.9407 27.2725 62.0603C27.9648 61.1956 28.7168 60.3801 29.5225 59.6204C33.2188 55.9604 37.6167 53.0862 42.4526 51.1704C45.0728 50.2402 47.5425 49.6104 49.7427 48.7302C51.7852 48.0674 53.6011 46.8442 54.9824 45.2004C56.4502 43.0173 56.9595 40.3289 56.3926 37.7603C55.8438 35.5964 54.9814 33.5244 53.8325 31.6104C52.5396 29.3994 51.4966 27.0518 50.7227 24.6104C50.0928 22.5256 49.8887 20.3354 50.1226 18.1704C50.3999 15.9551 51.2476 13.8496 52.5825 12.0603C53.1191 11.2812 53.7324 10.5576 54.4126 9.90039C55.292 9.04321 56.3662 8.41187 57.5425 8.0603C58.2358 7.90576 58.9619 8.05103 59.5425 8.46045C59.8291 8.61597 60.103 8.79321 60.3628 8.99023C61.0825 9.64038 60.4824 11.0903 59.1729 12.6504C58.3032 13.73 57.521 14.877 56.8325 16.0803C56.3022 17.0928 55.9985 18.2087 55.9429 19.3503C55.9106 20.541 56.083 21.728 56.4526 22.8604C56.9053 24.1914 57.5024 25.469 58.2324 26.6704C59.7305 29.0798 60.9771 31.6365 61.9526 34.3003C62.4888 35.9158 62.792 37.5994 62.8525 39.3003C62.9092 41.0405 62.6899 42.7788 62.2026 44.4504L62.1226 44.4404Z" fill-rule="evenodd" fill="currentColor"/>
	<path d="M63.2129 67.7205C68.8828 65.2805 69.5928 62.9304 70.7729 60.4104C72.3828 56.9304 71.6128 52.4805 71.6128 52.4805C73.3677 53.7495 74.3789 55.8059 74.313 57.9705C74.313 61.7305 71.123 64.1006 69.2329 66.1904C67.3428 68.2805 63.2129 67.7205 63.2129 67.7205Z" fill-rule="evenodd" fill="currentColor"/>
	<path d="M70.333 69.8901C68.3525 70.9365 66.2349 71.7007 64.043 72.1602C62.043 72.6301 60.043 72.9302 58.2026 73.2402C56.8628 73.4802 55.6025 73.9001 54.333 74.1902C52.1792 74.6667 50.0933 75.4092 48.1226 76.4001C46.2886 77.3215 44.7983 78.8081 43.8726 80.6401C43.7827 80.8401 43.6729 81.04 43.5928 81.2502L43.4028 81.9102C43.249 82.3179 43.1548 82.7456 43.1226 83.1802C43.0942 84.0837 43.1782 84.9873 43.3726 85.8701C43.6611 87.0391 44.123 88.158 44.7427 89.1902C44.9028 89.4402 45.043 89.7102 45.2227 89.9402C45.355 90.2068 45.5054 90.4641 45.6729 90.7102C45.9912 91.2244 46.3672 91.7007 46.793 92.1301C47.3228 92.6602 47.1226 93.1802 46.0728 93.4702C45.3687 93.6328 44.6367 93.6328 43.9326 93.4702C43.4775 93.3882 43.0342 93.2505 42.6128 93.0601C42.3828 92.9602 42.1929 92.8201 41.9526 92.7002C41.7583 92.5425 41.5776 92.3687 41.4126 92.1802C40.228 90.8557 39.293 89.3276 38.6528 87.6702C37.8931 85.9043 37.6304 83.9644 37.8926 82.0601C38.4849 78.3767 40.5962 75.1111 43.7129 73.0601C46.9614 70.9126 50.5479 69.3271 54.3228 68.3701C58.3228 67.3701 62.043 67.0701 65.3228 65.8201C67.2148 65.2051 68.8843 64.0471 70.1226 62.4902C70.957 61.2773 71.4727 59.8743 71.6226 58.4102C71.6899 56.7324 71.5488 55.053 71.2026 53.4102C70.9067 51.8193 70.8794 50.1899 71.1226 48.5901C71.4219 46.9067 72.1064 45.3152 73.1226 43.9402C73.5449 43.3542 74.02 42.8083 74.543 42.3101C74.9619 41.9236 75.4248 41.5879 75.9229 41.3101C76.3027 41.1492 76.7104 41.0642 77.1226 41.0601C77.7578 41.0334 78.376 41.2683 78.833 41.7102C79.0586 41.8821 79.269 42.0728 79.4629 42.2803C79.7183 42.6655 79.7666 43.1519 79.5928 43.5801C79.4209 44.2146 79.1724 44.8257 78.8525 45.4001C77.6025 46.9902 76.7729 48.9502 76.9126 50.1001C76.9727 50.7703 76.9829 51.5701 77.1328 52.6602C77.2827 53.7502 77.5229 55.1001 77.6128 56.7502C77.6924 58.0583 77.5879 59.3711 77.3027 60.6501C76.5142 64.6501 73.9951 68.0957 70.4229 70.0601L70.333 69.8901Z" fill-rule="evenodd" fill="currentColor"/>
	<defs/>
</svg>
