<svg width="24" height="24" viewBox="0 0 110 110" fill="none" xmlns="http://www.w3.org/2000/svg" xmlns:xlink="http://www.w3.org/1999/xlink">
	<path d="M33.1401 28.4612C36.6733 26.8013 40.4521 25.7239 44.3301 25.2712C45.3301 25.1313 46.2402 25.0913 47.2002 25.0413C48.1494 24.9863 49.1006 24.9863 50.0498 25.0413L52.8701 25.1313C53.8101 25.2212 54.75 25.3613 55.6802 25.4712C56.3599 25.5713 57.0498 25.6213 57.6802 25.7312L59.6802 26.1313L61.6802 26.5413C62.3501 26.7112 63 26.9512 63.6802 27.1711C68.3247 28.6716 72.6392 31.0479 76.3901 34.1711C80.0786 37.2629 83.2515 40.9221 85.79 45.0112L87.3398 47.7812C87.5898 48.2412 87.8799 48.6812 88.1001 49.1614L88.7598 50.5913C89.1899 51.5913 89.6699 52.4912 90.0698 53.4612L91.2402 56.4612C91.6709 57.7227 92.0283 59.0083 92.3101 60.3113C92.6704 61.5969 92.938 62.907 93.1099 64.2312C93.27 65.5513 93.4702 66.8613 93.54 68.2312L93.54 70.2312C93.54 70.9014 93.3901 71.5713 93.3198 72.2312C93.0601 73.8914 92.4302 73.6614 91.3198 72.3713C90.5947 71.5835 89.9731 70.7065 89.4702 69.7612C88.8716 68.5889 88.3926 67.3594 88.04 66.0913C87.7837 64.8777 87.4497 63.6819 87.04 62.5112C86.6401 61.3513 86.3398 60.1614 85.8799 59.0312C85.4199 57.9014 85.0698 56.7512 84.6602 55.6013L83.2202 52.2812C81.1577 47.897 78.3911 43.8806 75.0298 40.3914C72.9644 38.239 70.5713 36.4268 67.9399 35.0212C67.2798 34.6614 66.5698 34.3914 65.8799 34.0713C65.1992 33.7446 64.5015 33.4541 63.79 33.2012L61.6099 32.4612L60.54 32.1013L59.4302 31.8513L56.9902 31.2712C56.1802 31.1013 55.3398 31.0413 54.5098 30.9114C52.854 30.6736 51.1831 30.55 49.5098 30.5413C41.9727 30.281 34.6055 32.821 28.8301 37.6711C23.9131 41.8132 19.981 46.9988 17.3198 52.8513C15.3057 57.3538 13.8906 62.1008 13.1099 66.9712C12.9399 68.0312 12.71 69.0613 12.5098 70.1213C11.71 74.0513 11.4399 75.2913 10.29 76.1213C10.0601 76.3113 9.8501 76.5813 9.66992 76.7012C9.2002 77.1213 8.06982 75.3713 8 72.1414C8 70.9512 8 69.7512 8 68.5513C8 67.9412 8 67.3413 8.06982 66.7312C8.14014 66.1213 8.22998 65.5312 8.31006 64.9312C8.69873 62.5186 9.24316 60.1335 9.93994 57.7913C11.3789 52.9446 13.4824 48.3208 16.1899 44.0513C20.2642 37.3689 26.106 31.9424 33.0698 28.3713L33.1401 28.4612Z" fill-rule="evenodd" fill="currentColor"/>
	<path d="M38.1602 40.0312C40.8457 38.9048 43.6831 38.1804 46.5801 37.8811C47.29 37.8113 48.0098 37.7812 48.7197 37.7312C49.4297 37.6812 50.1401 37.7312 50.8501 37.7312C52.2656 37.738 53.6792 37.845 55.0801 38.0513C57.1533 38.3098 59.1938 38.7822 61.1699 39.4612C64.6343 40.697 67.834 42.5767 70.6001 45.0012C73.249 47.4465 75.4907 50.2991 77.2397 53.4512L78.3599 55.4612C78.7197 56.1611 79 56.8911 79.3599 57.6013C79.9961 59.0208 80.5566 60.4727 81.04 61.9512C81.3501 62.9011 81.5298 63.8811 81.77 64.8413L82.1099 66.2913L82.3101 67.7612C82.6499 69.7097 82.6499 71.7026 82.3101 73.6511C82.0601 74.8811 81.5 74.7212 80.54 73.7812C79.9258 73.228 79.3877 72.5957 78.9399 71.9011C78.6992 71.4905 78.4824 71.0664 78.29 70.6311C78.0659 70.1733 77.8887 69.6943 77.7598 69.2012C77.3799 67.4011 76.7598 65.7012 76.2197 63.9912C75.8599 63.1711 75.6299 62.3213 75.3501 61.4712C75.229 61.0452 75.0718 60.6304 74.8799 60.2312L74.3799 59.0112C73.0093 55.7583 71.1401 52.7388 68.8398 50.0613C65.833 46.8755 61.9614 44.6372 57.6997 43.6211L55.9399 43.2212C55.6499 43.1611 55.3501 43.0713 55.0498 43.0312L54.1401 42.9211L52.3198 42.6912L50.4697 42.6912C48.0161 42.6069 45.5635 42.8833 43.1899 43.5112C40.2524 44.2761 37.4912 45.604 35.0601 47.4211C31.2993 50.2554 28.272 53.9482 26.23 58.1912C24.6909 61.4451 23.6299 64.9041 23.0801 68.4612C22.9697 69.2412 22.7998 69.9912 22.6401 70.7712C22.0298 73.6511 21.7798 74.5613 20.77 75.1912C20.5601 75.3413 20.3799 75.5312 20.23 75.6211C19.8101 75.9312 18.8101 74.6211 18.6899 72.2212C18.6299 71.3313 18.6001 70.4312 18.5898 69.5212C18.563 68.6106 18.627 67.6995 18.7798 66.8013C19.6001 61.1941 21.6826 55.8464 24.8701 51.1611C28.1353 46.2449 32.7207 42.3491 38.1001 39.9211L38.1602 40.0312Z" fill-rule="evenodd" fill="currentColor"/>
	<path d="M43.1802 53.6914C46.543 52.2585 50.269 51.9089 53.8398 52.6914C54.4702 52.8613 55.1001 52.9915 55.73 53.1414C56.3599 53.2913 56.9502 53.5413 57.54 53.7812C59.5776 54.7271 61.4351 56.0198 63.0303 57.6013C64.5879 59.1465 65.9058 60.9163 66.9399 62.8513L67.6099 64.1213L68.1401 65.4614C68.5698 66.3113 68.8398 67.2214 69.1401 68.0913C69.3301 68.6714 69.4199 69.2715 69.5698 69.8513L69.7603 70.7314L69.8599 71.6313C70.0684 72.8259 69.9897 74.0532 69.6299 75.2114C69.3599 75.9514 68.8799 75.8213 68.0698 75.2114C67.5806 74.8967 67.1333 74.5203 66.7402 74.0913C66.3833 73.634 66.1118 73.1155 65.9399 72.5613C65.6567 71.575 65.3228 70.6038 64.9399 69.6514C64.7437 69.189 64.5767 68.7146 64.4399 68.2314C64.2983 67.7593 64.1313 67.2954 63.9399 66.8413C63.1602 64.9775 62.1523 63.2175 60.9399 61.6013C59.3247 59.6748 57.2007 58.2402 54.8101 57.4614C52.2295 56.4705 49.4097 56.2822 46.7202 56.9214C45.0479 57.3665 43.4829 58.1455 42.1201 59.2114C39.9326 60.8979 38.1606 63.0635 36.9399 65.5413C36.0439 67.4419 35.4307 69.4631 35.1201 71.5413C35.0532 71.9873 34.9565 72.4285 34.8301 72.8613C34.7026 73.4634 34.4941 74.0454 34.21 74.5913C34.1108 74.7627 33.9824 74.915 33.8301 75.0413C33.6528 75.1636 33.4653 75.2705 33.27 75.3613C33.0898 75.4414 32.9302 75.5613 32.79 75.6113C32.6499 75.6614 32.3398 75.6113 32.0303 75.2014C31.8462 75.0024 31.7124 74.7625 31.6401 74.5015C31.5361 74.1765 31.4692 73.8411 31.4399 73.5015C31.3599 72.9478 31.3096 72.3904 31.29 71.8313L31.29 70.9915C31.2998 70.7129 31.3296 70.4355 31.3799 70.1614C31.8584 66.7502 33.1255 63.4976 35.0801 60.6614C37.0552 57.6096 39.8198 55.1492 43.0801 53.5413L43.1802 53.6914Z" fill-rule="evenodd" fill="currentColor"/>
	<defs/>
</svg>
