<svg width="24" height="24" viewBox="0 0 110 110" fill="none" xmlns="http://www.w3.org/2000/svg" xmlns:xlink="http://www.w3.org/1999/xlink">
	<path d="M50.3379 48.2649C48.7983 49.675 47.3379 51.145 45.7983 52.595C44.2583 54.0449 42.8682 55.595 41.458 57.135C40.438 58.2749 39.5781 59.5249 38.5781 60.625C36.7983 62.625 35.0581 64.7148 33.3081 66.7849C31.5581 68.855 29.8179 70.9648 28.2383 73.175C27.5283 74.175 26.8379 75.175 26.1782 76.175L24.2983 79.2549C23.498 80.5649 22.6982 81.885 21.938 83.2549C21.5483 83.925 21.1479 84.585 20.728 85.2549L20.0879 86.2549C19.8579 86.575 19.5581 86.845 19.2983 87.145C18.5879 87.865 18.3682 87.615 18.188 86.605C18.0371 85.9497 17.9766 85.2766 18.0083 84.605C18.0552 83.7549 18.2373 82.9177 18.5483 82.125C18.8481 81.375 19.1479 80.625 19.4683 79.885L20.4683 77.6951C21.1328 76.229 21.8701 74.7971 22.6782 73.405C24.291 70.6143 26.0986 67.9409 28.0879 65.405C28.688 64.645 29.2583 63.855 29.8179 63.0349C30.3779 62.2148 30.978 61.345 31.5781 60.5349C32.728 58.925 33.8682 57.2749 35.1382 55.7549L37.208 53.2249C37.918 52.395 38.6479 51.595 39.3682 50.7749C40.0879 49.9551 40.8081 49.145 41.5483 48.345L43.7983 45.9749L45.188 44.5249L46.5781 43.115C47.5781 42.1851 48.4683 41.2148 49.4482 40.3049C50.9482 38.9351 52.4482 37.5249 53.958 36.2148L56.2383 34.2148C57.0083 33.5649 57.7783 32.905 58.5283 32.2148C60.8579 30.125 63.0181 27.885 65.4282 25.8049C65.9683 25.355 66.4282 24.875 67.0381 24.4451C67.7905 23.8435 68.6929 23.4595 69.6479 23.335C70.3804 23.3374 71.0757 23.6543 71.5581 24.2051C71.8623 24.4695 72.1528 24.75 72.4282 25.0449C73.2583 26.0449 72.8882 27.5349 71.688 28.8149C68.0283 32.615 63.7983 36.135 59.688 39.875L57.3682 41.9551L55.0679 44.085C53.5283 45.4949 51.998 46.9351 50.478 48.385L50.3379 48.2649Z" fill-rule="evenodd" fill="currentColor"/>
	<path d="M65.1182 31.7051C65.1182 31.7051 59.248 51.365 71.8682 53.7051C84.248 55.9651 80.0679 22.7051 84.958 14.575C85.0879 14.355 51.3882 10.7351 43.8379 24.835C42.3882 27.5549 41.5078 31.105 44.0181 33.5051C46.5278 35.905 49.978 36.625 53.1279 36.625C58.958 36.7351 64.9282 32.345 65.1182 31.7051Z" fill-rule="evenodd" fill="currentColor"/>
	<defs/>
</svg>
