<svg width="24" height="24" viewBox="0 0 110 110" fill="none" xmlns="http://www.w3.org/2000/svg" xmlns:xlink="http://www.w3.org/1999/xlink">
	<path d="M30.6001 42.585C30.6001 47.1748 21.73 47.9048 21.73 42.355C21.73 39.4248 24.6802 38.2349 27.3301 38.355C29.46 38.4351 30.6001 40.665 30.6001 42.585Z" fill-rule="evenodd" fill="currentColor"/>
	<path d="M68.9902 53.8052C68.9902 57.2051 62.4102 57.7451 62.4102 53.625C62.4102 51.4551 64.6001 50.625 66.5601 50.625C68.1504 50.7251 68.9902 52.375 68.9902 53.8052Z" fill-rule="evenodd" fill="currentColor"/>
	<path d="M63.27 41.105C63.27 43.6851 58.27 44.105 58.27 40.9648C58.27 39.3247 59.9302 38.645 61.4199 38.7148C62.5674 38.9038 63.3745 39.9468 63.27 41.105Z" fill-rule="evenodd" fill="currentColor"/>
	<path d="M26.1699 70.5444C26.1699 74.2148 19.0898 74.8145 19.0898 70.3545C19.0898 68.0049 21.46 67.0444 23.5898 67.1348C25.25 67.2148 26.1699 69.0049 26.1699 70.5444Z" fill-rule="evenodd" fill="currentColor"/>
	<path d="M82.0898 59.8149C82.0898 62.145 77.5898 62.5146 77.5801 59.6948C77.5801 58.2046 79.0801 57.605 80.4302 57.6948C81.4473 57.8672 82.1665 58.7856 82.0898 59.8149Z" fill-rule="evenodd" fill="currentColor"/>
	<path d="M44.9204 41.1045C44.9204 43.7847 39.7402 44.2046 39.7402 40.9746C39.7402 39.2646 41.4604 38.5645 43.0103 38.6348C44.1963 38.8291 45.0308 39.9077 44.9204 41.1045Z" fill-rule="evenodd" fill="currentColor"/>
	<path d="M15.0898 29.9951C15.0898 32.585 10.0898 32.9951 10.0898 29.855C10.0898 28.2051 11.7598 27.5352 13.2598 27.5952C14.4009 27.7979 15.1963 28.8408 15.0898 29.9951Z" fill-rule="evenodd" fill="currentColor"/>
	<path d="M54.5 18.4248C54.5 21.0547 49.4199 21.4248 49.4199 18.2949C49.4199 16.6147 51.1099 15.9351 52.6201 16.0049C53.7842 16.1943 54.6045 17.25 54.5 18.4248Z" fill-rule="evenodd" fill="currentColor"/>
	<path d="M51.96 84.1548C51.96 86.9849 46.48 87.4351 46.48 84.0049C46.48 82.1948 48.2998 81.4648 49.9399 81.5347C51.25 81.585 51.96 82.9648 51.96 84.1548Z" fill-rule="evenodd" fill="currentColor"/>
	<path d="M88.71 66.2148C88.71 70.6445 80.1299 71.3545 80.1299 65.9849C80.1299 63.1548 82.98 61.9849 85.54 62.1147C87.6001 62.2148 88.71 64.3848 88.71 66.2148Z" fill-rule="evenodd" fill="currentColor"/>
	<path d="M72.1802 24.6851C72.1802 27.9849 65.8101 28.5049 65.8101 24.5151C65.8101 22.415 67.9199 21.5151 69.8101 21.6353C71.3599 21.7051 72.1802 23.3052 72.1802 24.6851Z" fill-rule="evenodd" fill="currentColor"/>
	<path d="M18.2798 52.0747C18.2798 56.355 10 57.0747 10 51.855C10 49.1147 12.75 48.0049 15.23 48.105C17.2202 48.2148 18.2798 50.2749 18.2798 52.0747Z" fill-rule="evenodd" fill="currentColor"/>
	<path d="M53.98 30.8452C53.98 35.7651 44.46 36.5552 44.4502 30.585C44.4502 27.4448 47.6201 26.165 50.4502 26.2852C52.7603 26.3853 53.98 28.7852 53.98 30.8452Z" fill-rule="evenodd" fill="currentColor"/>
	<path d="M43.8999 54.7549C43.8999 58.8149 36.04 59.4648 36.04 54.5449C36.04 51.9448 38.6499 50.8945 41.04 50.9946C42.8901 51.0747 43.8999 53.0449 43.8999 54.7549Z" fill-rule="evenodd" fill="currentColor"/>
	<path d="M92.1802 52.1045C92.1802 56.9946 82.73 57.7749 82.73 51.8545C82.73 48.7349 85.8701 47.4746 88.73 47.5947C90.9702 47.6846 92.1802 50.0649 92.1802 52.1045Z" fill-rule="evenodd" fill="currentColor"/>
	<path d="M51.96 67.9053C51.96 72.835 42.4199 73.625 42.4102 67.6553C42.4102 64.5049 45.5801 63.2251 48.4102 63.3452C50.73 63.4351 51.96 65.8452 51.96 67.9053Z" fill-rule="evenodd" fill="currentColor"/>
	<path d="M78.3003 37.6348C78.3003 42.3149 69.2402 43.0649 69.2402 37.3945C69.2402 34.3945 72.2402 33.1948 74.9604 33.3047C77.0903 33.3945 78.3003 35.6748 78.3003 37.6348Z" fill-rule="evenodd" fill="currentColor"/>
	<path d="M30.7197 22.625C30.7197 27.1851 21.8999 27.915 21.8999 22.395C21.8999 19.4849 24.8301 18.2949 27.4697 18.395C29.5898 18.4951 30.7197 20.7148 30.7197 22.625Z" fill-rule="evenodd" fill="currentColor"/>
	<path d="M66.2803 70.5547C66.2803 74.2949 59.04 74.895 59.04 70.355C59.04 67.9648 61.4502 66.9946 63.6099 67.085C65.3501 67.2148 66.2803 68.9849 66.2803 70.5547Z" fill-rule="evenodd" fill="currentColor"/>
	<path d="M79.8198 78.5352C79.8198 82.4653 72.2197 83.0952 72.21 78.335C72.21 75.8252 74.7397 74.8052 77.0098 74.895C78.8398 74.9751 79.8198 76.8853 79.8198 78.5352Z" fill-rule="evenodd" fill="currentColor"/>
	<defs/>
</svg>
