<svg width="24" height="24" viewBox="0 0 110 110" fill="none" xmlns="http://www.w3.org/2000/svg" xmlns:xlink="http://www.w3.org/1999/xlink">
	<path d="M29.5098 77.9927C29.1602 76.9927 28.8101 76.0825 28.5098 75.0723C28.3403 74.5474 28.2002 74.0132 28.0898 73.4727C28.0898 73.3325 28.0298 73.1426 28 72.9727L28 72.3926C28.0044 72.0151 28.0513 71.6392 28.1401 71.2725C28.3335 70.3403 28.7368 69.4648 29.3198 68.7124C30.2534 67.6562 31.3345 66.7397 32.5298 65.9927C33.6401 65.2524 34.79 64.6226 35.9302 63.9927C37.0698 63.3623 37.9302 62.8926 38.9302 62.4023C40.1875 61.6865 41.5317 61.1353 42.9302 60.7627C43.3799 60.6626 43.5 61.1123 43.3501 61.7026C43.1641 62.4307 42.7241 63.0693 42.1099 63.5024C40.8799 64.2427 39.7002 65.0425 38.48 65.7427L34.7998 67.7427C33.4194 68.5474 32.2559 69.6768 31.4102 71.0327C31.2236 71.3037 31.085 71.6045 31 71.9224C30.9248 72.2212 30.9248 72.5337 31 72.8325C31.2134 73.7441 31.4805 74.6426 31.7998 75.5225C32.1973 76.6479 32.6509 77.7529 33.1602 78.8325C33.8813 80.4849 34.7515 82.0684 35.7598 83.5625C36.5371 84.627 37.4907 85.5503 38.5801 86.2925C38.7998 86.4326 39.0298 86.5425 39.2202 86.6426C39.6001 86.8423 39.75 86.9624 39.8198 87.1924C39.9077 87.5195 39.9648 87.8545 39.9902 88.1924C39.9902 88.3823 40.0801 88.5723 40.1099 88.7427C40.1748 89.0649 40.0361 89.394 39.7598 89.5723C39.5796 89.7417 39.3467 89.8442 39.1001 89.8623C38.813 89.9214 38.5171 89.9214 38.23 89.8623C36.73 89.3306 35.4048 88.3965 34.3999 87.1626C33.4692 86.0771 32.6548 84.8975 31.9702 83.6426C30.9707 81.8286 30.0986 79.9473 29.3599 78.0127L29.5098 77.9927Z" fill-rule="evenodd" fill="currentColor"/>
	<path d="M61.1602 45.8721C61.7563 47.8481 62.8433 49.6406 64.3203 51.0825C64.6104 51.3525 64.9004 51.6025 65.2002 51.8423C65.5 52.0825 65.8604 52.2622 66.2002 52.4922C68.2002 54.1123 71.0703 54.5825 73.9702 54.4922C75.2573 54.4087 76.521 54.1113 77.7104 53.6123C78.4482 53.2983 79.1602 52.9272 79.8403 52.5024C80.4902 52.0825 81.1904 51.7222 81.8403 51.2524C82.2402 50.9922 82.73 51.3423 82.9004 52.1323C83.0088 52.6089 82.9878 53.106 82.8403 53.5723C82.689 54.1406 82.3594 54.645 81.9004 55.0122C78.5425 57.4277 74.3589 58.3999 70.2803 57.7124C69.0415 57.4873 67.8213 57.1699 66.6304 56.7622C66.0078 56.5405 65.4058 56.2661 64.8301 55.9424C64.3203 55.6123 63.8301 55.2725 63.3101 54.9424C61.1592 53.3096 59.4424 51.1738 58.3101 48.7222C57.9624 47.9727 57.6846 47.1929 57.48 46.3921C57.3701 45.9922 57.3301 45.5723 57.25 45.1724C57.165 44.7676 57.1152 44.356 57.1001 43.9424C56.9258 41.4448 57.4707 38.9497 58.6704 36.7524C59.5327 35.0391 60.7456 33.5264 62.23 32.3125C62.5703 32.0625 62.9204 31.8325 63.23 31.6123C64.6304 30.9023 65.23 31.0522 65.77 31.5522C65.894 31.6611 66.0112 31.7783 66.1201 31.9023C66.2656 32.1455 66.2656 32.4492 66.1201 32.6924C65.9468 33.082 65.6826 33.4248 65.3501 33.6924C64.7603 34.1025 64.3501 34.7822 63.8403 35.1724C63.6001 35.4121 63.4102 35.6924 63.1802 35.9321C62.9463 36.1621 62.7383 36.417 62.5601 36.6924C62.3804 36.9722 62.2002 37.2324 62.0103 37.4922C61.8203 37.7524 61.73 38.0723 61.5703 38.3525C61.4102 38.6323 61.4204 38.6323 61.3501 38.7822L61.2002 39.2324C61.1201 39.5425 60.9604 39.8223 60.9102 40.1421C60.4492 42.0347 60.5566 44.021 61.2202 45.8525L61.1602 45.8721Z" fill-rule="evenodd" fill="currentColor"/>
	<path d="M36.6899 29.4722C36.2905 28.7773 35.8462 28.1094 35.3599 27.4722C34.8101 26.832 34.2397 26.1924 33.6201 25.5723C33.1899 25.1221 32.6201 24.7822 32.1899 24.332C30.5801 22.7124 28.8999 21.1621 27.1299 19.6523C26.3613 18.978 25.5532 18.3501 24.71 17.7725C23.5864 17.0884 22.5459 16.2759 21.6099 15.3521C21.3301 15.042 21.6099 14.6523 22.2197 14.3521C22.8965 14.0166 23.6753 13.9487 24.3999 14.1621C25.6499 14.6924 26.8896 15.2524 28.0801 15.9023C28.6841 16.2124 29.2627 16.5703 29.8101 16.9722C30.3398 17.4121 30.8101 17.8623 31.3501 18.3521C32.52 19.5225 34.04 20.3521 35.3501 21.3521C36.8125 22.5513 38.208 23.8296 39.5298 25.1821C39.9399 25.6421 40.3398 26.082 40.7397 26.5723L41.3398 27.332C41.54 27.582 41.7197 27.9224 41.9097 28.2124C42.2251 28.7432 42.4546 29.3203 42.5898 29.9224C42.6797 30.3921 42.75 30.8623 42.7998 31.3721C42.9263 32.4902 42.8105 33.623 42.46 34.6924C42.1753 35.6055 41.7578 36.4712 41.2197 37.2622C40.9692 37.6333 40.6987 37.9902 40.4097 38.332C40.1289 38.6357 39.8247 38.9165 39.5 39.1724C39.2402 39.4028 38.9663 39.6162 38.6797 39.812C37.5898 40.4023 37.0601 40.1021 36.1797 38.6621C35.98 38.332 35.7598 38.0024 35.5898 37.6621C35.0269 36.7593 34.9448 35.6372 35.3701 34.6621C35.792 33.9551 36.1724 33.2236 36.5098 32.4722C36.5044 32.4458 36.5044 32.4185 36.5098 32.3921C36.5098 32.3921 36.79 32.542 36.6499 32.4922L36.46 32.4224C36.46 32.4224 36.46 32.3022 36.5498 32.2124L36.6597 31.9023L36.7598 31.4722L36.8198 30.9722L38.3501 30.7124L38.1499 30.7124L37.9199 30.7124C37.7681 30.7358 37.6177 30.7695 37.4697 30.812L37.0498 30.9521C36.9497 30.9521 36.9897 30.9521 36.9897 30.9521C37.1001 31.0024 36.9897 30.8223 36.9897 30.7324C37.0078 30.6128 37.0078 30.4917 36.9897 30.3721C36.8862 30.0439 36.7451 29.7285 36.5698 29.4321L36.6899 29.4722Z" fill-rule="evenodd" fill="currentColor"/>
	<path d="M37.5298 29.1123C34.3501 26.1123 30.96 23.2021 27.48 20.4922C26.21 19.4922 24.8398 18.6821 23.5498 17.7622C22.98 17.3623 22.4199 16.9521 21.8398 16.5825L21.4102 16.3125L21.2002 16.1821L21.1299 16.1221L20.8999 15.9321C20.6958 15.7856 20.478 15.6582 20.25 15.5522C20.1294 15.4912 19.9946 15.4639 19.8599 15.4722C19.7202 15.4722 19.7202 15.6421 19.6699 15.7422C19.6201 15.8423 19.52 16.2021 19.4399 16.4722C19.3916 16.6016 19.3579 16.7354 19.3398 16.8721C19.2798 17.1724 19.2202 17.5522 19.1602 17.8721C18.9302 19.2725 18.73 20.6924 18.54 22.1221C18.2202 24.6523 18.0698 27.2222 17.8999 29.7725C17.79 31.4224 17.73 33.0625 17.54 34.7725C17.4331 35.6118 17.2729 36.4434 17.0601 37.2622C16.9399 37.6821 16.8301 38.0923 16.6899 38.5122C16.5498 38.9321 16.3901 39.3525 16.1699 39.8022C15.5 40.9922 14.96 40.2222 14.3999 39.2324C13.5703 37.9141 13.0889 36.4072 13 34.8525C13.1602 31.6421 13.29 28.3223 13.5098 24.9922C13.6299 23.3125 13.77 21.6421 13.9702 19.9424C14.0601 19.1025 14.1802 18.2524 14.3101 17.3921L14.5498 15.9121C14.6182 15.1719 14.7349 14.437 14.8999 13.7124L15.25 12.5425L15.4199 11.9521C15.48 11.7524 15.6099 11.6724 15.7002 11.5322C16.1201 11.0225 16.3398 10.3921 17.1299 10.1523C18.6274 9.81641 20.1963 10.0405 21.54 10.7822C21.9302 10.9424 22.3198 11.1421 22.71 11.3325L23.71 11.8823L25.2002 12.7124C26.1401 13.2422 27.0498 13.7925 27.9302 14.3721C31.79 16.9224 35.4399 19.6924 39.0098 22.5723C40.1099 23.4521 41.2002 24.3623 42.2798 25.2925L43.0801 26.0024C43.23 26.1221 43.3301 26.2324 43.5 26.3623L44.0801 26.8921C44.855 27.5435 45.5557 28.2778 46.1699 29.0825C46.3101 29.2925 46.4302 29.4922 46.5498 29.7021C46.7139 29.9814 46.8193 30.291 46.8599 30.6123C46.9209 30.9448 46.9038 31.2871 46.8101 31.6123C46.6196 32.2812 46.3115 32.9111 45.8999 33.4722C45.4902 34.0625 45.0283 34.6147 44.52 35.1221L43.7402 35.8823L43.0898 36.4424C41.4497 37.7832 39.7334 39.0283 37.9502 40.1724C35.1738 42.1416 32.229 43.8618 29.1499 45.3125C28.4502 45.6123 27.77 45.9521 27.02 46.1924C26.4341 46.3828 25.8315 46.5171 25.2202 46.5923C24.7739 46.6279 24.3247 46.5732 23.8999 46.4321C23.1865 46.1919 22.6108 45.6567 22.3198 44.9624C22.1294 44.6431 21.9658 44.3086 21.8301 43.9624C21.5298 42.7925 22.4302 41.7124 23.8999 40.7124C26.23 39.5322 28.5601 38.1724 30.8999 36.7124C32.0498 35.9624 33.2402 35.2925 34.4102 34.5625C35.5801 33.8325 36.71 33.0723 37.7798 32.2925C38.2202 31.9624 38.6499 31.6221 39.0498 31.2925C39.4502 30.9624 39.2402 31.1523 39.2598 31.1323C39.2891 31.144 39.3213 31.144 39.3501 31.1323C39.3589 31.0996 39.3589 31.0649 39.3501 31.0322L39.25 30.9321L39.02 30.7124L38.5 30.2222L37.4399 29.2222L37.5298 29.1123Z" fill-rule="evenodd" fill="currentColor"/>
	<path d="M69.5698 60.1123C64.3521 59.4448 59.6812 56.5435 56.77 52.1621C55.6665 50.6284 54.8501 48.9072 54.3599 47.082C53.9487 45.4492 53.8369 43.7549 54.0298 42.082C54.1992 40.4321 54.6558 38.8247 55.3799 37.332C56.0498 35.8594 56.9585 34.5078 58.0698 33.332C59.1201 32.1768 60.3213 31.168 61.6401 30.332C63.8652 28.8408 66.3418 27.7637 68.9497 27.1523C70.6714 26.7153 72.4624 26.6235 74.2197 26.8823C76.0713 27.1611 77.7456 28.1377 78.8999 29.6123C79.5898 30.542 78.8999 30.8022 77.8101 30.8721C77.1768 30.9058 76.5459 30.9727 75.9199 31.0723C75.2847 31.1709 74.6426 31.2212 74 31.2222C72.7886 31.1855 71.5811 31.3755 70.4399 31.7822C69.2197 32.1924 68.0298 32.7822 66.7998 33.332C66.1899 33.6221 65.6001 33.9521 65.0298 34.2822C64.4868 34.6201 63.9629 34.9873 63.46 35.3823C62.4512 36.1743 61.5469 37.0918 60.77 38.1123C59.814 39.3516 59.2529 40.8496 59.1597 42.4121C59.0688 43.9824 59.3394 45.5527 59.9497 47.002C60.2881 47.8359 60.7104 48.6338 61.21 49.3823C61.7158 50.1128 62.3032 50.7837 62.96 51.3823C64.3218 52.644 65.9429 53.5928 67.71 54.1621C68.8179 54.5259 69.9668 54.751 71.1299 54.832C72.3115 54.9004 73.4971 54.8232 74.6597 54.6021C76.3755 54.3179 77.999 53.6323 79.3999 52.6021C80.7646 51.5396 81.8037 50.1157 82.3999 48.4922C83.2568 45.9565 83.1826 43.1982 82.1899 40.7124C81.98 40.2021 81.7598 39.7124 81.54 39.2622C81.2246 38.6787 81.0083 38.0464 80.8999 37.3921C80.9248 36.79 81.0674 36.1992 81.3198 35.6523C81.4497 35.332 81.52 34.9722 81.6499 34.6523C81.8799 34.1011 82.4624 33.7852 83.0498 33.8921C84.0503 34.002 84.9683 34.4971 85.6099 35.272C86.2231 35.938 86.7568 36.6729 87.1997 37.4624C87.6382 38.2285 87.9746 39.0488 88.1997 39.9023C88.7358 41.6089 88.9727 43.395 88.8999 45.1821C88.7539 48.9668 87.2646 52.5757 84.6997 55.3623C82.7373 57.4712 80.2163 58.9795 77.4297 59.7124C76.1431 60.0679 74.8228 60.2856 73.4897 60.3623C72.1807 60.4634 70.8647 60.4399 69.5601 60.292L69.5698 60.1123Z" fill-rule="evenodd" fill="currentColor"/>
	<path d="M26.8999 79.522C26.0801 78.0522 25.3101 76.522 24.5801 75.0122L24.27 74.3423C24.1201 74.002 23.96 73.6621 23.8198 73.3423C23.6802 73.022 23.5601 72.6421 23.4399 72.3423C23.3198 72.042 23.0498 71.6523 23.0298 71.3423C22.8013 70.6953 22.8013 69.9893 23.0298 69.3423C23.1514 69.0425 23.3164 68.7627 23.52 68.5122C23.7476 68.2632 23.9878 68.0259 24.2397 67.8022C24.6499 67.5322 25.04 67.2422 25.4702 66.9922L26.1001 66.6123L26.6201 66.312L28.1499 65.502C29.6201 64.752 31.0098 63.9224 32.48 63.2622C35.0898 62.1021 37.73 61.0322 40.48 60.0723C41.8398 59.5923 43.1899 59.0723 44.6602 58.752L45.2197 58.6221C45.4736 58.5586 45.731 58.5088 45.9897 58.4722C46.5088 58.3584 47.0391 58.3081 47.5698 58.3223C47.8218 58.3149 48.0737 58.3384 48.3198 58.3921C48.5767 58.4297 48.8242 58.5146 49.0498 58.6421C49.4932 58.8955 49.8809 59.2358 50.1899 59.6421L50.6001 60.2119L50.9502 60.8223L51.27 61.4521L51.5298 62.0322C51.7998 62.6421 52.04 63.252 52.27 63.8521C52.73 65.0522 53.1602 66.2319 53.5801 67.3921C54.7368 70.2397 55.7085 73.1592 56.4897 76.1323C56.6074 76.4673 56.4736 76.8384 56.1699 77.022C55.7246 77.2812 55.1904 77.3394 54.7002 77.1821C53.9204 76.9966 53.186 76.6562 52.54 76.1821C52.1743 75.9092 51.8389 75.5972 51.54 75.252C51.2529 74.8857 51.0176 74.4824 50.8398 74.0522C49.6001 70.9819 48.5898 67.9023 47.5 65.1221L47.0898 64.1221L47.0298 64.0122L47.0298 63.812C47.0298 63.7422 47.0298 63.5923 46.9399 63.542C46.894 63.5107 46.8433 63.4873 46.79 63.4722L46.6802 63.4722L46.1699 63.6021L43.8999 64.1123C40.27 65.1123 36.71 67.002 33.2202 68.6924C32.3101 69.1421 31.3999 69.5923 30.5098 70.062L29.1899 70.7622L28.6099 71.0723L28.3101 71.2422C28.1899 71.3022 28.23 71.4521 28.2397 71.542C28.2861 71.7656 28.3462 71.9863 28.4199 72.2021L28.5498 72.542L28.8599 73.272C29.0801 73.772 29.3101 74.272 29.5498 74.792C30.1099 75.9722 30.71 77.1523 31.3398 78.312C31.9702 79.4722 32.7002 80.5923 33.4102 81.7119C34.2676 83.0439 35.1953 84.3291 36.1899 85.562C36.6074 86.0718 37.0581 86.5527 37.54 87.002C37.8599 87.3022 38.3398 87.6323 38.79 87.3521C38.8999 87.3521 39 87.272 39.1099 87.2422L39.27 87.1724L39.5298 87.0522L40.5898 86.5723C43.3999 85.2222 46.0601 83.5723 48.98 82.1924C49.6099 81.8823 50.25 81.562 50.98 81.292C53.5298 80.292 54.71 80.5923 55.4502 81.8921C55.6328 82.146 55.7837 82.4214 55.8999 82.7119C56.0347 83.2202 55.9116 83.7622 55.5698 84.1621C55.3804 84.4102 55.1621 84.6348 54.9199 84.832C54.6094 85.0674 54.2739 85.2686 53.9199 85.4321C51.9199 86.4321 49.7197 87.6123 47.4697 88.7319C46.3501 89.3022 45.21 89.8921 44.0098 90.4224L42.1802 91.2319L41.1802 91.6323C41.1201 91.6323 40.9199 91.6924 40.7798 91.752L40.3198 91.9224L39.3999 92.252C38.2075 92.5376 36.9507 92.3438 35.8999 91.7119C35.4302 91.4478 34.9907 91.1328 34.5898 90.772C34.3901 90.582 34.1802 90.4121 33.9897 90.2119C33.8481 90.0806 33.7144 89.9404 33.5898 89.792C33.1299 89.3022 32.73 88.792 32.3501 88.3423C31.6001 87.3423 30.9399 86.4023 30.3501 85.4321C29.7598 84.4619 29.1401 83.4321 28.5698 82.4922L27.73 81.0122L26.8599 79.5522L26.8999 79.522Z" fill-rule="evenodd" fill="currentColor"/>
	<defs/>
</svg>
