<svg width="24" height="24" viewBox="0 0 110 110" fill="none" xmlns="http://www.w3.org/2000/svg" xmlns:xlink="http://www.w3.org/1999/xlink">
	<path d="M36.103 17.1675C32.8032 17.7075 30.6431 19.4775 29.9834 22.7578C28.7935 28.7578 30.8135 34.3774 30.853 40.3276C30.853 45.1475 29.1431 49.2676 24.2534 50.7876C14.9233 53.6777 11.6733 67.5977 24.3032 69.2275C29.0732 69.8379 33.8833 69.7578 38.6631 70.0376C41.8232 70.2275 46.0635 70.3379 47.7632 73.5376C49.103 76.0776 47.8232 79.1079 49.0132 81.5376C51.583 86.8975 60.9233 85.6079 65.0132 83.1978C71.4233 79.4478 71.603 70.4175 71.0234 63.8477C70.5234 58.2178 72.7832 55.8477 77.353 52.5278C80.1631 50.4575 86.9033 45.5278 85.9434 41.3975C83.6631 31.5776 66.9434 44.7476 61.9434 38.0977C59.9434 35.3774 59.873 31.8774 58.5635 28.8677C55.9634 22.8677 49.9331 18.9478 43.7231 17.5879C41.2295 16.9883 38.6479 16.8457 36.103 17.1675Z" fill-rule="evenodd" fill="currentColor"/>
	<defs/>
</svg>
