<svg width="24" height="24" viewBox="0 0 110 110" fill="none" xmlns="http://www.w3.org/2000/svg" xmlns:xlink="http://www.w3.org/1999/xlink">
	<path d="M63.2065 64.6616C61.3726 64.7708 59.5327 64.687 57.7163 64.4116C56.0166 64.1716 54.3965 63.8418 52.7866 63.5117C49.5767 62.8318 46.4863 61.9717 43.4263 61.0417L41.4966 60.5317L41.0864 60.3618L40.7666 60.2617C40.6665 60.2617 40.5063 60.1316 40.4766 60.2617C40.3657 60.4761 40.2754 60.7004 40.2065 60.9316L40.0864 61.1316C40.043 61.2512 40.0127 61.3755 39.9966 61.5017L39.6963 62.9717L38.4863 68.9717C37.6807 73.0388 36.605 77.0476 35.2666 80.9717C35.0166 81.6516 34.7563 82.3318 34.4565 82.9717C34.3066 83.3118 34.1465 83.6616 33.9766 83.9717C33.7603 84.4114 33.52 84.8386 33.2563 85.2517C32.7378 86.1125 32.0586 86.8662 31.2563 87.4717C30.4766 88.0581 29.522 88.3645 28.5464 88.3418C27.9424 88.1819 27.3511 87.978 26.7764 87.7317C26.1963 87.4116 25.6167 87.0718 25.0464 86.7317C23.0464 85.5217 21.0464 84.4216 19.1465 83.2317C18.1465 82.6516 17.2266 82.0518 16.2866 81.4417C15.8115 81.1436 15.3599 80.8093 14.9365 80.4417L13.6064 79.4417C12.5366 78.5918 12.9165 77.9617 14.4766 77.5217C15.4819 77.2686 16.5107 77.1211 17.5464 77.0818C18.8218 77.1077 20.0781 77.397 21.2363 77.9316C22.8164 78.6716 24.3765 79.4417 25.9067 80.2017L28.0864 81.3118C28.0864 81.3118 28.1665 81.3816 28.2466 81.3716C28.3267 81.3618 28.2466 81.3716 28.3066 81.3018C28.3667 81.2317 28.4365 81.0718 28.5063 80.9417C28.5767 80.8118 28.7666 80.4216 28.8965 80.1416C29.1567 79.5818 29.3965 78.9817 29.6367 78.3618C30.5864 75.8518 31.3965 73.0918 32.1963 70.3018C32.9224 67.5757 33.4966 64.8113 33.9165 62.0217L34.3164 59.5818C34.4941 58.4155 34.7515 57.2629 35.0864 56.1316C35.2461 55.6418 35.4678 55.1748 35.7466 54.7417C36.0093 54.3447 36.3496 54.0046 36.7466 53.7417C36.9429 53.6641 37.1475 53.6104 37.3564 53.5818C37.564 53.543 37.7754 53.5261 37.9863 53.5317C38.229 53.5066 38.4736 53.5066 38.7163 53.5317L39.5464 53.6917L39.8164 53.7517L43.3965 54.8916L45.5967 55.5718C47.063 56.0183 48.5332 56.4385 50.0063 56.8318C52.8994 57.6353 55.8521 58.2039 58.8364 58.5317C59.9722 58.6521 61.1162 58.6787 62.2563 58.6118C62.6372 58.5967 63.0151 58.5464 63.3867 58.4617C63.6978 58.3977 63.9888 58.2607 64.2363 58.0618C64.3867 57.9717 64.4165 57.7917 64.4663 57.6416C64.5166 57.4917 64.5664 57.3218 64.6064 57.1616C64.6465 57.0017 64.7266 56.6616 64.7866 56.3618L64.9863 55.3618C66.1167 49.6316 67.3765 43.7917 68.6763 38.0417C69.6763 33.5618 70.4966 29.0417 71.9463 24.6018C72.2764 23.6018 72.5464 22.6018 72.9463 21.6516C73.4219 20.2979 74.2139 19.0771 75.2563 18.0918C76.001 17.5366 76.9497 17.3323 77.8564 17.5317C78.2798 17.5784 78.6978 17.6619 79.1064 17.7817C79.7261 18.0969 80.1138 18.7363 80.1064 19.4316C80.1475 19.8909 80.1475 20.3525 80.1064 20.8118C80.04 21.3716 79.9092 21.9219 79.7163 22.4517C77.4067 29.4517 75.7163 37.4517 73.7163 45.5317C73.1665 47.9917 72.6064 50.4617 72.0566 52.9316L71.2163 56.7117L70.6665 59.0217C70.5366 59.6306 70.3423 60.2239 70.0864 60.7917C69.8149 61.3218 69.5073 61.833 69.1665 62.3218C68.7466 62.6917 68.2964 63.0217 67.8564 63.3218C67.3779 63.6218 66.8682 63.8699 66.3364 64.0618C65.8032 64.2671 65.2549 64.4309 64.6963 64.5518C64.4204 64.6218 64.1396 64.6721 63.8564 64.7017L63.2065 64.7817L63.2065 64.6616Z" fill-rule="evenodd" fill="currentColor"/>
	<path d="M78.2266 19.4717C78.2266 19.3516 78.2266 19.4016 78.2266 19.3716L78.2266 19.0718C78.2266 18.9417 78.2266 18.6917 78.0566 18.7117C77.9536 18.6975 77.8496 18.6975 77.7466 18.7117L77.5566 18.7717C77.4302 18.8181 77.3145 18.8894 77.2163 18.9817C76.4863 19.5217 75.8564 20.2317 75.1367 20.8616C72.4004 23.0234 69.8081 25.3618 67.3765 27.8616C66.3096 29.0022 65.3394 30.2297 64.4766 31.5317C63.5029 33.1558 62.3672 34.6768 61.0864 36.0718C60.7866 36.3318 59.7065 36.1316 58.9268 35.0718C58.0742 34.0137 57.8423 32.585 58.3164 31.3118C58.8149 30.3298 59.4077 29.3989 60.0864 28.5317C60.7363 27.6616 61.4165 26.8318 62.0864 26.0317C63.5059 24.4211 65.0581 22.9324 66.7266 21.5818C67.7246 20.7444 68.6763 19.853 69.5767 18.9116L70.9966 17.5317C71.4966 17.0818 71.9966 16.6516 72.5566 16.2517C73.1167 15.8516 73.3467 15.6616 73.7563 15.3816L74.3965 14.9617C74.6367 14.7817 75.0166 14.5918 75.3164 14.3916C75.9141 13.9958 76.5596 13.6768 77.2363 13.4417C77.8296 13.2095 78.4521 13.0613 79.0864 13.0017C79.3955 12.9927 79.7041 13.0195 80.0063 13.0818C80.0063 13.0818 79.9268 13.3118 80.0063 13.2117C80.04 13.21 80.0732 13.21 80.1064 13.2117L80.2866 13.3318L80.6265 13.5818C81.1025 14.0266 81.4658 14.5786 81.6865 15.1917C82.46 17.0867 83.1274 19.0229 83.6865 20.9917C84.4565 23.5117 85.0864 26.0718 85.8867 28.5518C86.5063 30.4817 87.3965 32.3118 88.1265 34.2217C88.2866 34.6416 88.4863 35.0417 88.6167 35.4717C89.0767 37.1016 88.7563 37.7417 87.4663 38.3418C87.1777 38.4915 86.8804 38.625 86.5767 38.7417C85.5337 39.0625 84.4141 38.5625 83.9565 37.5718C82.3691 34.2979 81.1323 30.8655 80.2666 27.3318C79.5264 24.7017 78.8564 22.0017 78.0464 19.4316L78.2266 19.4717Z" fill-rule="evenodd" fill="currentColor"/>
	<defs/>
</svg>
