<svg width="24" height="24" viewBox="0 0 110 110" fill="none" xmlns="http://www.w3.org/2000/svg" xmlns:xlink="http://www.w3.org/1999/xlink">
	<path d="M37.2515 25.3135C37.0723 24.9253 36.8286 24.5703 36.5312 24.2637C36.4077 24.1558 36.2773 24.0552 36.1411 23.9634C35.6895 23.563 35.1846 23.2266 34.6411 22.9634C34.3926 22.8584 34.1299 22.791 33.8613 22.7637C33.5513 22.7637 33.1812 22.8433 33.1411 22.7036C32.9253 22.5361 32.7734 22.2993 32.7114 22.0337C32.6396 21.6177 32.8945 21.2158 33.3013 21.1035C34.2285 21.0449 35.1465 21.3179 35.8911 21.8735C36.311 22.1836 36.811 22.3433 37.2515 22.6533C37.7314 22.9849 38.1621 23.3818 38.5312 23.8335C39.1421 24.5586 39.543 25.437 39.6914 26.3735C39.8149 26.8242 39.8916 27.2866 39.9214 27.7534C39.9214 27.8535 39.9214 27.9634 39.9214 28.0635C39.8511 28.4434 39.6514 28.5034 39.061 28.3433C38.9258 28.3159 38.792 28.2793 38.6611 28.2334C38.3135 28.1455 38.0107 27.9316 37.811 27.6333C37.6284 27.2271 37.5264 26.7891 37.5112 26.3433C37.4761 25.9927 37.3706 25.6528 37.2012 25.3433L37.2515 25.3135Z" fill-rule="evenodd" fill="currentColor"/>
	<path d="M15.1812 47.6533C15.6797 47.999 16.2349 48.2563 16.8208 48.4131C17.0508 48.4634 17.271 48.4131 17.501 48.4131C17.9116 48.5015 18.3311 48.5449 18.751 48.5435L19.0708 48.5435L19.4009 48.5435C19.6206 48.5635 19.8413 48.5635 20.061 48.5435C20.4287 48.4731 20.7725 48.3115 21.061 48.0732C21.4404 47.7651 21.7979 47.4312 22.1309 47.0732C22.2612 46.9531 22.4712 47.0732 22.6812 47.2632C22.959 47.5693 23.084 47.9849 23.021 48.3931C22.6372 49.9272 21.4229 51.1143 19.8809 51.4634C18.9912 51.4634 18.1709 51.7935 17.311 51.7832C16.3765 51.7583 15.4521 51.5859 14.5708 51.2734C14.0156 51.0791 13.4878 50.8135 13.001 50.4834C12.1851 49.96 11.5195 49.2324 11.0708 48.3735C10.8735 48.0156 10.7095 47.6411 10.5811 47.2534C10.5112 46.8496 10.5112 46.437 10.5811 46.0332C10.5908 45.8638 10.6211 45.6958 10.6709 45.5332C10.7446 45.2949 10.9385 45.1123 11.1812 45.0532C11.4297 45.0107 11.6851 45.0347 11.9209 45.1235L12.3311 45.2534C12.7246 45.4473 13.0513 45.7534 13.271 46.1333C13.541 46.6035 13.7812 46.8535 14.0312 46.8833C14.2812 46.9131 14.1812 46.8833 14.2812 46.9932C14.5742 47.2559 14.9131 47.4629 15.2812 47.6035L15.1812 47.6533Z" fill-rule="evenodd" fill="currentColor"/>
	<path d="M39.6909 68.373C39.1885 68.728 38.6211 68.9795 38.021 69.1133C37.8213 69.1772 37.6177 69.2275 37.4106 69.2632C37.0781 69.2856 36.7437 69.2856 36.4106 69.2632C36.0811 69.2632 35.7407 69.2632 35.4106 69.2134C35.0811 69.1631 34.791 69.2134 34.4707 69.0933C34.0254 69.0532 33.623 68.8096 33.3809 68.4331C33.311 68.313 33.541 68.1431 33.8008 67.9932C34.061 67.8433 34.3208 67.6831 34.4307 67.7134C34.9551 67.8135 35.4873 67.8633 36.021 67.8633C36.2329 67.8779 36.4458 67.8579 36.6509 67.8032L37.1909 67.6333C37.5767 67.5283 37.9414 67.3594 38.271 67.1333C38.4922 67.0054 38.6938 66.8472 38.8711 66.6631C39.1743 66.3735 39.4277 66.0356 39.6211 65.6631C39.7383 65.3398 39.8188 65.0044 39.8608 64.6631C39.876 64.5889 39.8965 64.5151 39.9209 64.4434C40.0308 64.1831 40.1807 64.1631 40.6509 64.313L40.9707 64.4233C41.272 64.5098 41.5039 64.7495 41.5811 65.0532C41.624 65.7715 41.4077 66.4814 40.9707 67.0532C40.6372 67.5522 40.2329 68 39.771 68.3833L39.6909 68.373Z" fill-rule="evenodd" fill="currentColor"/>
	<path d="M55.5913 50.9033C55.4009 51.1479 55.2769 51.437 55.2314 51.7432C55.2314 51.8633 55.291 51.9536 55.3013 52.0732C55.3833 52.6558 55.6792 53.187 56.1313 53.5635C56.3643 53.7949 56.6304 53.9907 56.9214 54.1436C57.3589 54.3159 57.7329 54.6201 57.9912 55.0132C58.0713 55.1636 57.771 55.4932 57.4214 55.7935C57.0713 56.0933 56.6514 56.3936 56.4214 56.3232C55.4688 56.1001 54.6279 55.5435 54.0513 54.7534C53.5581 54.2002 53.144 53.5806 52.8213 52.9136C52.5415 52.1206 52.5415 51.2559 52.8213 50.4634C52.9692 50.0269 53.1704 49.6104 53.4214 49.2236C53.8184 48.687 54.2822 48.2031 54.8013 47.7832C55.1538 47.3828 55.5571 47.0298 56.001 46.7334C56.1084 46.6743 56.2183 46.6206 56.3311 46.5732C56.771 46.4434 56.9712 46.5732 57.1411 47.2432C57.187 47.3809 57.2241 47.521 57.251 47.6636C57.3398 48.0435 57.3081 48.4419 57.1611 48.8032C57.0449 49.0889 56.8975 49.3604 56.7212 49.6133C56.561 49.8032 56.3911 49.9634 56.2314 50.1333C55.9897 50.3647 55.7842 50.6313 55.6211 50.9233L55.5913 50.9033Z" fill-rule="evenodd" fill="currentColor"/>
	<path d="M71.4214 85.8931C70.0693 85.7607 68.7744 85.2817 67.6611 84.5029C67.2041 84.2642 66.7861 83.957 66.4214 83.5928C65.8403 82.936 65.4072 82.1616 65.1514 81.3228C65.019 80.9507 64.9282 80.5649 64.8813 80.1729C64.811 79.7832 64.7812 79.4629 64.7212 79.0332C64.6865 78.8403 64.6396 78.6499 64.5811 78.4629C64.5811 78.2729 64.5112 78.103 64.4912 77.9229C64.5181 77.5762 64.667 77.2505 64.9111 77.0029C65.0562 76.8193 65.2207 76.6519 65.4014 76.5029C65.6411 76.3457 65.896 76.2119 66.1611 76.103C66.4326 75.9917 66.7095 75.8945 66.9912 75.813C67.2002 75.7832 67.4121 75.7832 67.6211 75.813C67.8911 75.813 68.1113 76.3828 68.2314 77.0332C68.2925 77.3628 68.3228 77.6978 68.3213 78.0332L68.3213 78.2529L68.3213 78.373C68.3384 78.4077 68.3584 78.4414 68.3813 78.4731C68.3813 78.4731 68.3813 78.4731 68.2812 78.4731C68.2583 78.4653 68.2339 78.4653 68.2114 78.4731L68.2114 78.6528C68.2368 78.8955 68.2368 79.1401 68.2114 79.3828C68.3022 79.9058 68.6523 80.3467 69.1411 80.5532C69.6685 80.9136 70.2534 81.1807 70.8711 81.3428L71.5713 81.4531L72.3013 81.4531C73.0791 81.4565 73.8491 81.2964 74.561 80.9829C74.8291 80.8359 75.0669 80.6392 75.2612 80.4028C75.4414 80.1528 75.6411 79.9331 75.811 79.7231C75.8696 79.624 75.9365 79.5303 76.0112 79.4429C76.0791 79.3877 76.1572 79.3467 76.2412 79.3228C76.3511 79.3384 76.4561 79.376 76.5513 79.4331C76.9058 79.6416 77.2407 79.8828 77.5513 80.1528L78.1313 80.623C78.7393 81.0649 79.0483 81.8105 78.9312 82.5532C78.6255 83.3784 78.0874 84.0977 77.3813 84.623C76.6963 85.0737 75.9434 85.4116 75.1514 85.623C73.9385 85.9609 72.6777 86.0928 71.4214 86.0132L71.4214 85.8931Z" fill-rule="evenodd" fill="currentColor"/>
	<path d="M19.0513 52.9834C17.2803 53.376 15.437 53.29 13.7109 52.7334C13.0239 52.5396 12.3774 52.2246 11.8013 51.8032C10.6997 50.9404 10.0396 49.6318 10.001 48.2334C9.97852 47.0337 10.3276 45.8564 11.001 44.8633C11.5322 44.0327 12.1865 43.2876 12.9409 42.6533C13.4458 42.2295 14.0166 41.8916 14.6309 41.6533C15.2988 41.4961 15.9995 41.5557 16.6309 41.8232C17.021 42.0034 16.8408 42.4731 16.541 43.0332C16.2412 43.5933 15.9512 44.373 15.751 44.6831C15.1826 44.9893 14.6772 45.3999 14.2612 45.8931C14.0322 46.1548 13.8311 46.4399 13.6611 46.7432C13.4712 47.0317 13.3008 47.3325 13.1509 47.6431C12.8311 48.4233 13.2212 48.9731 13.9712 49.4531C14.9844 50.0469 16.1665 50.2856 17.3311 50.1333C18.0947 50.0405 18.8359 49.8135 19.521 49.4634C20.5474 49.0205 21.3413 48.168 21.7109 47.1133C21.8062 46.729 21.8062 46.3276 21.7109 45.9434C21.6104 45.6445 21.4224 45.3833 21.1709 45.1934C21.061 45.0933 20.9209 45.0234 20.791 44.9033C20.291 44.4434 20.2212 44.0435 20.8911 43.2334C21.0312 43.0435 21.1709 42.8535 21.3311 42.6733C21.7524 42.0898 22.5454 41.9175 23.1709 42.2734C23.7144 42.6274 24.1748 43.0947 24.521 43.6431C24.9326 44.3462 25.166 45.1392 25.2012 45.9531C25.2739 47.4287 24.8203 48.8813 23.9209 50.0532C22.6973 51.5762 20.9893 52.6348 19.0811 53.0532L19.0513 52.9834Z" fill-rule="evenodd" fill="currentColor"/>
	<path d="M55.021 56.9233C53.4463 56.125 52.1621 54.8516 51.3506 53.2832C51.001 52.6128 50.8125 51.8696 50.8008 51.1133C50.8223 50.4453 50.9893 49.79 51.291 49.1934C51.5825 48.667 51.9648 48.1963 52.4209 47.8032C52.8169 47.4199 53.2563 47.0845 53.731 46.8032C54.2007 46.5498 54.7017 46.3584 55.2207 46.2334C56.106 46.0093 57.0181 45.9082 57.9307 45.9336C58.543 45.9473 59.1484 46.0654 59.7207 46.2832C60.2944 46.5928 60.7432 47.0908 60.9907 47.6934C61.1406 48.0732 60.6709 48.3232 60.0708 48.5933C59.5098 48.8599 58.9653 49.1606 58.4409 49.4937C57.9331 49.4214 57.4185 49.4214 56.9106 49.4937C56.625 49.5312 56.3408 49.585 56.0605 49.6533C55.7612 49.6982 55.4663 49.772 55.1807 49.8735C54.8369 49.9897 54.5508 50.2329 54.3809 50.5532C54.2686 50.7974 54.2236 51.0664 54.251 51.3335C54.4072 52.2476 54.9648 53.0439 55.771 53.5034C56.3311 53.8789 56.9541 54.1499 57.6108 54.3032C58.5396 54.5869 59.5444 54.4673 60.3809 53.9736C60.9521 53.4521 61.376 52.79 61.6108 52.0532C61.6318 51.9512 61.6318 51.8457 61.6108 51.7437C61.6108 51.5034 61.8408 51.4233 62.9409 51.3032L63.7007 51.2134C64.5308 51.1235 65.3105 51.4536 65.3208 52.4434C65.3003 53.1792 65.0864 53.8965 64.7007 54.5234C64.4062 54.9888 64.0718 55.4268 63.7007 55.8335C62.8467 56.855 61.6738 57.5596 60.3706 57.8335C58.5625 58.1846 56.6885 57.9058 55.0605 57.0435L55.021 56.9233Z" fill-rule="evenodd" fill="currentColor"/>
	<path d="M37.3208 27.4932C37.9512 27.0933 38.3711 26.7031 38.4111 26.043C38.4111 25.813 38.271 25.563 38.1709 25.2031C37.8394 23.9355 36.9541 22.8848 35.7607 22.3433C35.2471 22.1577 34.6802 22.1899 34.1909 22.4331C33.8594 22.6084 33.5503 22.8232 33.271 23.0732C33.001 23.333 32.6909 23.4834 32.4209 23.7134C32.1509 23.9434 31.751 23.793 31.311 23.3232C30.7734 22.7056 30.7007 21.8101 31.1309 21.1133C31.5771 20.5752 32.1074 20.1128 32.7012 19.7432C33.3564 19.3486 34.0903 19.1025 34.8511 19.0234C36.3174 18.8838 37.7734 19.3784 38.8511 20.3833C40.0542 21.3569 41.0562 22.5562 41.8008 23.9131C42.209 24.7944 42.3843 25.7651 42.311 26.7334C42.2319 27.6846 41.9268 28.6035 41.4209 29.4131C40.8398 30.2871 40.0923 31.0381 39.2212 31.623C38.9058 31.8491 38.5713 32.0464 38.2212 32.2134C37.8394 32.4077 37.4321 32.5454 37.0107 32.623C36.2075 32.7817 35.3838 32.812 34.5708 32.7134C33.3579 32.6343 32.1621 32.3818 31.021 31.9634C30.7666 31.8721 30.519 31.7617 30.2808 31.6333C29.7041 31.0078 29.731 30.0361 30.3408 29.4434C30.4639 29.2588 30.5972 29.082 30.7407 28.9131C31.2388 28.4248 31.8804 28.1089 32.5708 28.0132L32.9409 27.9331L33.1309 27.8833L33.251 27.8833L33.7407 27.9331L34.5908 28.0234C34.96 28.062 35.332 28.062 35.7012 28.0234L35.9111 28.0234C36.0273 28.0332 36.145 28.0127 36.251 27.9634C36.6089 27.8335 36.9463 27.6514 37.251 27.4233L37.3208 27.4932Z" fill-rule="evenodd" fill="currentColor"/>
	<path d="M86.1411 48.3936C86.6309 48.1733 86.9712 48.0635 87.1411 47.6436C87.1411 47.4937 87.0513 47.3232 87.001 47.0332C86.8135 46.0039 86.1753 45.1128 85.2612 44.6035C84.8789 44.4185 84.4331 44.4185 84.0513 44.6035C83.7881 44.7437 83.543 44.915 83.3213 45.1133C83.0947 45.2837 82.8496 45.4277 82.5913 45.5435C82.146 45.6123 81.6958 45.4546 81.3911 45.1235C80.8164 44.5723 80.6772 43.7065 81.0513 43.0034C81.4312 42.5098 81.895 42.0869 82.4209 41.7534C83.0317 41.394 83.7153 41.1758 84.4209 41.1133C85.792 40.9629 87.1577 41.4365 88.1411 42.4033C89.2158 43.3018 90.1201 44.3853 90.811 45.6035C91.188 46.4189 91.3467 47.3184 91.271 48.2134C91.1802 49.0688 90.8887 49.8911 90.4209 50.6133C89.8916 51.4048 89.2124 52.084 88.4209 52.6133C88.1304 52.8164 87.8223 52.9937 87.501 53.1436C87.1484 53.3145 86.7754 53.4385 86.3911 53.5137C85.6562 53.6538 84.9043 53.6807 84.1611 53.5933C83.0601 53.5366 81.9712 53.3384 80.9209 53.0034C80.6865 52.9346 80.459 52.8442 80.2412 52.7334C79.6909 51.9434 79.8511 51.3833 80.4912 50.5435C80.6411 50.3535 80.7812 50.1533 80.9312 49.9937C81.4561 49.4878 82.0933 49.1143 82.791 48.9033L83.1309 48.7637L83.3013 48.6934L83.4209 48.6934L83.8213 48.6934L84.481 48.6934C84.689 48.6924 84.8965 48.6724 85.1011 48.6333C85.1011 48.6333 85.1011 48.7236 85.271 48.6333C85.5332 48.5708 85.7852 48.4731 86.021 48.3433L86.1411 48.3936Z" fill-rule="evenodd" fill="currentColor"/>
	<path d="M39.1313 72.1831C37.6147 72.6055 35.9985 72.4849 34.561 71.8433C34.0464 71.6357 33.5674 71.3491 33.1411 70.9932C32.3945 70.2983 31.8867 69.3843 31.6914 68.3833C31.5269 67.4341 31.7002 66.4575 32.1812 65.623C32.5488 65.0044 33.0073 64.4448 33.541 63.9634C33.8643 63.6455 34.2314 63.376 34.6313 63.1631C35.1006 62.9146 35.645 62.8472 36.1611 62.9731C36.541 63.0933 36.3013 63.6431 36.1611 64.2134C36.0215 64.7832 36.061 65.3833 35.9214 65.5132C35.5796 65.8125 35.2715 66.1479 35.0015 66.5132C34.8228 66.7451 34.6841 67.0054 34.5913 67.2832C34.4712 67.6733 34.9614 67.9634 35.4014 68.1533C36.3335 68.7158 37.5044 68.7002 38.4214 68.1133C39.0283 67.75 39.5205 67.2231 39.8413 66.5933C39.9185 66.3765 39.9185 66.1396 39.8413 65.9233C39.8413 65.7231 39.6011 65.6934 39.6611 65.6533C39.6523 65.6343 39.6523 65.6123 39.6611 65.5933C39.6763 65.5317 39.6963 65.4712 39.7212 65.4131L39.7812 65.123C39.7812 64.9233 39.8613 64.6831 39.9512 64.353L40.0513 63.9331C40.1011 63.7017 40.2466 63.502 40.4512 63.3833C40.7324 63.1812 41.0762 63.0854 41.4214 63.1133C42.1382 63.2544 42.7803 63.6484 43.2314 64.2231C43.4785 64.5098 43.6504 64.8535 43.7314 65.2231C43.8242 65.5488 43.8779 65.8848 43.8911 66.2231C43.9248 67.4053 43.6079 68.5703 42.9814 69.5732C42.0254 70.8325 40.7007 71.7622 39.1914 72.2329L39.1313 72.1831Z" fill-rule="evenodd" fill="currentColor"/>
	<path d="M73.8408 87.1831C71.7842 87.812 69.5723 87.6987 67.5908 86.8633C66.8711 86.5933 66.1968 86.2158 65.5908 85.7432C64.5391 84.833 63.8066 83.6099 63.501 82.2529C63.2378 80.9478 63.4429 79.5918 64.0811 78.4233C64.5894 77.5234 65.2412 76.7129 66.0107 76.0229C66.4849 75.5752 67.0161 75.1919 67.5908 74.8833C68.2412 74.541 68.9883 74.4287 69.7109 74.563C70.2207 74.6934 69.9507 75.2832 69.7109 75.8931C69.4707 76.5029 69.3608 77.1733 69.0308 77.3931C68.356 77.8682 67.7617 78.4492 67.271 79.1133C66.8667 79.6279 66.623 80.2505 66.5708 80.9033C66.5679 81.3223 66.7378 81.7236 67.041 82.0132C67.3774 82.3311 67.7622 82.5947 68.1807 82.793C69.167 83.3389 70.311 83.5298 71.4209 83.333C72.1665 83.2061 72.876 82.9199 73.501 82.4932C74 82.1641 74.4541 81.7705 74.8506 81.3232C75.2627 80.895 75.6006 80.4019 75.8506 79.8633C75.999 79.4849 76.0439 79.0742 75.981 78.6733C75.981 78.3032 75.7109 78.103 75.7007 77.9131C75.6909 77.7231 75.6309 77.7632 75.5908 77.6733C75.4829 77.1553 75.4829 76.6211 75.5908 76.103C75.5908 75.9331 75.5908 75.7729 75.6606 75.623C75.7134 75.3662 75.895 75.1543 76.1406 75.063C76.5322 74.8848 76.9727 74.8428 77.3906 74.9434C78.2856 75.1807 79.0679 75.7261 79.6006 76.4829C79.9023 76.8657 80.1079 77.3149 80.2007 77.793C80.2959 78.2266 80.3394 78.6694 80.3311 79.1133C80.334 80.6934 79.875 82.2402 79.0107 83.563C77.7271 85.3042 75.9346 86.604 73.8809 87.2832L73.8408 87.1831Z" fill-rule="evenodd" fill="currentColor"/>
	<path d="M75.4814 31.5034C74.8481 32.2461 74.0815 32.8633 73.2212 33.3232C72.4521 33.7432 71.6318 34.0625 70.7812 34.2734C70.1318 34.4624 69.4575 34.5498 68.7812 34.5337C66.0967 34.3896 63.7471 32.6821 62.7812 30.1733C62.605 29.752 62.4907 29.3076 62.4414 28.8535C62.3774 28.269 62.4282 27.6782 62.5913 27.1133C62.7207 26.499 63.0781 25.9561 63.5913 25.5933C63.9614 25.3735 64.1211 25.8232 64.2812 26.3032C64.4414 26.7837 64.7812 27.2334 64.7812 27.5234C64.7729 28.1172 64.936 28.7007 65.2515 29.2036C65.5742 29.7314 65.9912 30.1953 66.4814 30.5732C67.1958 31.0127 68.0708 31.105 68.8613 30.8232C69.7817 30.5986 70.6289 30.1406 71.3213 29.4937C71.6802 29.1846 71.9351 28.7725 72.0513 28.3135C72.0884 27.999 72.0366 27.6802 71.9014 27.3936C71.7163 26.9995 71.438 26.6562 71.0913 26.3936C70.8242 26.1982 70.502 26.0933 70.1714 26.0933C69.873 26.1143 69.5776 26.168 69.291 26.2534C69.1812 26.2534 69.0713 26.3633 68.9814 26.3633C68.6313 26.4136 68.5112 26.0635 68.1411 24.6436L67.8711 23.6436C67.5811 22.5732 67.7715 21.5337 68.6611 21.1436C69.335 20.8721 70.0552 20.7358 70.7812 20.7437C71.5317 20.792 72.2642 20.9961 72.9312 21.3433C74.2178 22.0459 75.2632 23.1187 75.9312 24.4233C76.541 25.5195 76.8447 26.7598 76.811 28.0137C76.7344 29.2944 76.2705 30.522 75.4814 31.5337L75.4814 31.5034Z" fill-rule="evenodd" fill="currentColor"/>
	<defs/>
</svg>
