<svg width="24" height="24" viewBox="0 0 110 110" fill="none" xmlns="http://www.w3.org/2000/svg" xmlns:xlink="http://www.w3.org/1999/xlink">
	<path d="M40.1221 70.8037C37.4819 70.6238 34.8218 70.4839 32.1221 70.4138C31.1221 70.4138 30.1821 70.5239 29.2119 70.4839C25.7817 70.3538 22.3418 70.2739 18.8921 70.0837C17.3618 70.0239 15.832 70.0837 14.312 70.1538C12.353 70.3516 10.3765 70.2944 8.43213 69.9839C7.81201 69.8638 7.90186 69.2939 8.43213 68.6538C9.0625 67.8521 9.93604 67.2764 10.9219 67.0139C14.8076 66.2449 18.7607 65.8665 22.7217 65.8838C25.1636 65.8909 27.604 65.7639 30.0317 65.5039C32.7217 65.3838 35.4219 65.3337 38.1221 65.3037L43.1221 65.3037C45.6421 65.3037 48.1821 65.3538 50.6919 65.3037C51.6919 65.3037 52.6919 65.1838 53.6318 65.0737C54.5718 64.9639 55.6318 64.8337 56.6318 64.7839C57.0718 64.7839 57.5117 64.6738 57.9521 64.6738C58.1465 64.677 58.3408 64.697 58.5317 64.7339C58.6919 64.7812 58.8486 64.8379 59.002 64.9038C59.2656 65.0034 59.4946 65.177 59.6621 65.4038C59.9438 65.9265 60.1138 66.502 60.1621 67.0938C60.1621 67.3838 60.252 67.6638 60.252 67.9138C60.2217 68.3726 60.0347 68.8069 59.7217 69.1438C59.542 69.3638 59.332 69.6138 59.082 69.8738C58.8716 70.103 58.6016 70.269 58.3018 70.3538C56.6631 70.7634 54.9888 71.0146 53.3018 71.1038C51.6021 71.1738 49.8418 71.3037 48.0918 71.2039C45.4717 71.1338 42.812 70.9639 40.1421 70.9038L40.1221 70.8037Z" fill-rule="evenodd" fill="currentColor"/>
	<path d="M54.4722 42.2437C51.1919 42.0537 47.8921 41.8938 44.5918 41.8137C43.3818 41.8137 42.1919 41.9436 40.9819 41.9038C36.7222 41.7637 32.4619 41.6836 28.1821 41.4736C26.2817 41.4136 24.3921 41.4736 22.5117 41.5737C20.0835 41.8198 17.6338 41.7561 15.2222 41.3838C14.4619 41.2437 14.5718 40.5737 15.2222 39.8237C16.0166 38.8594 17.0996 38.1758 18.312 37.8738C20.7119 37.4636 23.1421 37.1238 25.5718 36.8738C28.019 36.5664 30.4868 36.4495 32.9521 36.5237C35.9521 36.7036 38.9521 36.1836 42.0317 36.0437C45.3618 35.8938 48.7119 35.8237 52.0317 35.7837L58.2222 35.7837C61.3521 35.7837 64.4917 35.8438 67.6118 35.7837C68.8218 35.7837 70.0317 35.6538 71.252 35.5137L73.0718 35.3037L74.9321 35.0938C75.4722 35.0938 76.0117 34.9636 76.562 34.9736C76.8032 34.9802 77.0439 35.0037 77.2817 35.0437C77.48 35.0999 77.6738 35.1702 77.8618 35.2537C78.1826 35.374 78.4658 35.5776 78.6821 35.8438C79.0425 36.4756 79.2612 37.1787 79.3218 37.9038C79.3218 38.2537 79.4419 38.5837 79.4419 38.9038C79.4116 39.4507 79.1802 39.967 78.792 40.3538C78.5474 40.657 78.2866 40.9475 78.0117 41.2236C77.8867 41.375 77.7251 41.4919 77.542 41.5637C77.3804 41.6458 77.2134 41.7158 77.042 41.7737C74.9976 42.2581 72.9111 42.5459 70.812 42.6338C68.7021 42.7236 66.522 42.8738 64.3418 42.7537C61.0918 42.6836 57.792 42.4736 54.4819 42.4236L54.4722 42.2437Z" fill-rule="evenodd" fill="currentColor"/>
	<path d="M47.8818 57.6436C47.8818 61.4436 49.0117 75.3037 50.332 76.0537C51.6519 76.8037 72.832 72.5837 72.5918 72.0938C71.2119 69.5337 47.8818 56.4336 47.8818 57.6436Z" fill-rule="evenodd" fill="currentColor"/>
	<path d="M64.1021 26.0938C64.1021 30.8037 65.502 47.9939 67.1021 48.9238C68.7021 49.8538 95.042 44.6638 94.7422 44.0938C93.0322 40.8738 64.1021 24.6238 64.1021 26.0938Z" fill-rule="evenodd" fill="currentColor"/>
	<defs/>
</svg>
