<svg width="24" height="24" viewBox="0 0 110 110" fill="none" xmlns="http://www.w3.org/2000/svg" xmlns:xlink="http://www.w3.org/1999/xlink">
	<path d="M38.4297 28.3569C36.437 28.1438 34.4336 28.0469 32.4297 28.0669C31.6797 28.0669 30.9497 28.2468 30.1997 28.2568C27.5449 28.2485 24.8916 28.3755 22.25 28.637C21.1001 28.7927 19.9702 29.071 18.8799 29.467C18.1797 29.657 17.5 29.917 16.8799 30.127C16.2915 30.3296 15.6802 30.4573 15.0596 30.5068C14.3447 30.1521 13.832 29.4885 13.6699 28.707C13.3857 27.4915 13.8159 26.22 14.7798 25.427C15.5532 24.9878 16.3511 24.5938 17.1699 24.2468C17.9653 23.9834 18.7817 23.7859 19.6099 23.657C21.2339 23.3772 22.8828 23.2666 24.5298 23.3269C26.5 23.2263 28.4629 23.0161 30.4097 22.697C32.5796 22.5269 34.7598 22.4768 36.96 22.5168L37.96 22.5168L39.0498 22.5669C40.0112 22.5903 40.9697 22.6772 41.9199 22.8269C42.8931 22.9771 43.8276 23.3167 44.6699 23.8269C45.3267 24.2305 45.8027 24.8716 46 25.6169C46.147 26.3689 46.1265 27.1438 45.9399 27.887C45.7227 28.8867 45.3867 29.8567 44.9399 30.7769C44.6899 31.2668 44.3999 31.7769 44.1099 32.2668C44.0381 32.3953 43.958 32.519 43.8696 32.637L43.71 32.917L43.3999 33.437C43.2202 33.7375 43.0015 34.0132 42.75 34.2568C41.75 35.137 41.2197 35.0969 40.1099 34.467C39.8496 34.3269 39.5898 34.207 39.3496 34.0669C38.5576 33.5129 38.2173 32.5083 38.5098 31.5869L38.7397 30.4968L38.8398 29.957C38.8853 29.7976 38.9385 29.6409 39 29.4868L39.1797 29.0369C39.1797 28.957 39.1797 28.957 39.1797 28.917C39.1567 28.8694 39.1226 28.8281 39.0796 28.7969C38.9497 28.677 38.8599 28.7268 38.8599 28.7268C38.8979 28.688 38.8979 28.6257 38.8599 28.5869L38.73 28.5869L38.46 28.5869L38.4297 28.3569Z" fill-rule="evenodd" fill="currentColor"/>
	<path d="M35.5601 43.0569C35.3799 42.7668 35.23 42.4868 35.0298 42.1169C34.8179 41.6868 34.6274 41.2463 34.46 40.7969C34.145 39.9043 33.9897 38.9634 34 38.0168C34.0283 37.0779 34.2715 36.1577 34.71 35.3269C34.9204 34.9048 35.1646 34.5002 35.4399 34.1169C35.5557 33.9182 35.6895 33.7307 35.8398 33.5569L36.1401 33.177C37.6201 31.3669 39.0498 29.937 40.5 28.437C40.7896 28.0625 41.1255 27.7266 41.5 27.437L41.9902 26.9968C42.1401 26.8269 42.3999 26.667 42.4399 26.417C42.48 26.167 42.1499 26.1169 41.9502 26.0769C41.0698 26.0769 41.5 26.187 37.5698 26.5068C33.48 26.8569 29.3799 27.0669 25.3198 27.5068C23.3198 27.707 21.27 27.927 19.3198 28.2268L17.8599 28.4768L17.1602 28.6169L16.6401 28.7468C16.4214 28.7661 16.2065 28.8132 16 28.887C15.897 28.9253 15.8115 29 15.7598 29.0969C15.7495 29.2034 15.7495 29.3105 15.7598 29.417L15.7598 29.7668L15.7598 30.2869L15.7598 31.907C15.7598 32.9968 15.7598 34.0769 15.8398 35.167C16.0527 39.7043 16.7637 44.2048 17.96 48.5869L18.5298 50.427C18.73 51.0369 18.9702 51.627 19.1899 52.2268C19.4092 52.823 19.6592 53.4072 19.9399 53.9768L20.21 54.5569L20.4199 54.887L20.6602 55.3069C20.7998 55.427 20.96 55.2368 21.0801 55.167L21.4302 54.8369L21.8198 54.437C22.8101 53.3269 23.8799 52.1069 25 50.887C26.2402 49.5168 26.7002 50.187 26.3799 51.887C26.1401 53.0195 25.7603 54.1179 25.25 55.157C25.0898 55.4768 24.9199 55.8069 24.73 56.157L24.4302 56.667L24.25 56.957L23.8999 57.397C23.4268 58.0171 22.8979 58.5928 22.3198 59.1169C21.8105 59.5757 21.1777 59.8748 20.5 59.9768C20.2578 60.0066 20.0122 60.0066 19.77 59.9768C19.6406 59.96 19.5132 59.9297 19.3901 59.887C19.2837 59.8225 19.1831 59.749 19.0898 59.667L17.9302 58.7568L17 57.2769C16.8599 57.0269 16.6802 56.7769 16.5601 56.5369L16.2598 55.897C15.9902 55.3269 15.6899 54.7468 15.4399 54.167C14.96 52.9968 14.4399 51.8169 14.1001 50.627C13.3198 48.2651 12.7017 45.8528 12.25 43.407C11.7881 40.9863 11.4541 38.5427 11.25 36.0869C11.1602 34.887 11.0801 33.637 11 32.397C11 31.7769 11 31.147 11 30.5269L11 29.207C11 28.657 11 28.1069 11.0801 27.5669C11.1772 27.1804 11.3149 26.8049 11.4902 26.447C11.6943 26.094 11.9619 25.7822 12.2798 25.5269C12.9512 25.0066 13.7095 24.6104 14.52 24.3569L15.1401 24.167C15.2383 24.1426 15.335 24.1125 15.4302 24.0769L15.6299 24.0269L16.4199 23.8369L17.9399 23.5369C21.71 22.887 25.3999 22.387 29.1401 21.887C31.0098 21.627 32.8701 21.3369 34.7402 21.1169L40.5898 20.467L43.1499 20.167C43.9561 20.0332 44.7734 19.9795 45.5898 20.0068C46.2622 20.0134 46.9321 20.0872 47.5898 20.2268C48.1606 20.3396 48.7124 20.5315 49.23 20.7969C49.7451 21.0371 50.207 21.377 50.5898 21.7969C51.0093 22.2678 51.2402 22.8765 51.2402 23.5068C51.1099 24.6235 50.7231 25.6946 50.1099 26.637C49.1562 27.8997 48.1167 29.0957 47 30.217L44.3799 33.0168C43.6899 33.7568 43 34.4868 42.3799 35.2268C42.0532 35.6003 41.7202 35.9702 41.3799 36.3369C41.2202 36.5168 41.0801 36.697 40.9399 36.877L40.6299 37.2769C40.4375 37.4905 40.3003 37.748 40.23 38.0269C40.2002 38.3191 40.2412 38.6143 40.3501 38.887C40.4072 39.0378 40.4736 39.1848 40.5498 39.3269C40.6401 39.5269 40.7998 39.7468 40.9302 39.967C41.2407 40.4236 41.5742 40.8643 41.9302 41.2869C43.4956 43.0991 45.2153 44.7722 47.0698 46.2869C49.9302 48.667 52.9702 50.917 56.0698 53.0769C59.1699 55.2368 62.3398 57.3269 65.5698 59.2668C70.5698 62.2668 75.7998 64.7969 80.96 67.447C82.0898 68.0269 83.23 68.5469 84.3701 69.157C88.5698 71.407 89.7002 72.4768 89.8701 74.3669C89.9507 74.7856 89.9946 75.2104 90 75.637C89.8701 76.937 87.6201 76.937 84.3101 75.637C74.1631 71.5161 64.4492 66.4011 55.3101 60.3669C51.7422 58.0811 48.3008 55.604 45 52.947C43.3398 51.5969 41.6899 50.197 40.0801 48.647C38.3105 47.0093 36.7427 45.1663 35.4102 43.157L35.5601 43.0569Z" fill-rule="evenodd" fill="currentColor"/>
	<path d="M47.3799 61.217C49.2397 63.0969 51.1201 64.947 53.0898 66.697C53.7998 67.3269 54.5801 67.887 55.3101 68.5071C57.8501 70.7471 60.4897 72.887 63.2002 74.887C64.4229 75.7788 65.6914 76.6064 67 77.3669C68.7236 78.269 70.3931 79.2708 72 80.3669C72.4897 80.7371 72.1899 81.147 71.4897 81.3669C70.5493 81.6619 69.5356 81.623 68.6201 81.2571C64.8765 79.7361 61.355 77.718 58.1499 75.2571C56.29 73.677 54.1499 72.3169 52.23 70.7571C50.1401 69.0171 48.1001 67.217 46.1299 65.3669L42.46 61.887C40.6299 60.157 38.8599 58.3569 37 56.707C35.5601 55.427 34 54.3469 32.4399 53.177C32.1099 52.927 31.75 52.707 31.4399 52.427C30.2397 51.427 30.0698 50.8669 30.6201 49.7869C30.75 49.5469 30.8501 49.2869 31 49.0569C31.5098 48.2969 32.48 48.207 33.4897 48.8169C36.4736 50.7493 39.2339 53.0063 41.7202 55.5469C43.6499 57.397 45.5298 59.3069 47.46 61.137L47.3799 61.217Z" fill-rule="evenodd" fill="currentColor"/>
	<defs/>
</svg>
