<svg width="24" height="24" viewBox="0 0 110 110" fill="none" xmlns="http://www.w3.org/2000/svg" xmlns:xlink="http://www.w3.org/1999/xlink">
	<path d="M40.2637 32.0801C42.3511 31.1855 44.4961 30.4307 46.6836 29.8203C47.2866 29.6592 47.8975 29.5288 48.5137 29.4302L49.1035 29.3403C49.3438 29.3403 49.5835 29.2803 49.8237 29.27C50.2871 29.2417 50.752 29.252 51.2139 29.3003C52.1143 29.3608 52.9893 29.624 53.7734 30.0703C54.1431 30.3003 54.4795 30.5796 54.7734 30.9004C55.0674 31.2256 55.3159 31.5889 55.5137 31.98C55.8345 32.666 56.0015 33.4131 56.0039 34.1699C56.0039 34.5601 56.0039 34.96 55.9438 35.3604L55.8838 36.0503L55.8838 36.1699C55.9136 36.3882 56.0332 36.584 56.2139 36.71C56.5771 36.895 56.9692 37.0171 57.3735 37.0703C58.769 37.2388 60.1826 37.1919 61.5635 36.9302C63.1216 36.6846 64.6641 36.3506 66.1836 35.9302C69.2734 35.0601 72.3535 33.9302 75.4136 32.7402C78.2139 31.6104 80.8237 30.3003 83.4038 28.9902C85.0635 28.1401 86.6738 27.1802 88.4038 26.3604C90.1338 25.54 91.8135 24.79 93.5835 24.1201C94.7139 23.71 94.8838 24.3901 94.3838 25.54C93.627 27.1992 92.4473 28.6304 90.9639 29.6899C90.5537 29.96 90.1636 30.2402 89.7437 30.5L88.4839 31.2202L85.9336 32.6104C84.2236 33.5303 82.4839 34.4004 80.7236 35.2402C77.1826 36.957 73.5029 38.3721 69.7236 39.4702C67.4136 40.1104 65.0835 40.8403 62.5938 41.3701C61.2974 41.6519 59.979 41.8228 58.6538 41.8804C57.9214 41.9131 57.188 41.873 56.4639 41.7603C55.6089 41.6299 54.7832 41.3525 54.0234 40.9399C53.2695 40.5513 52.6187 39.9893 52.1235 39.3003C51.6704 38.6201 51.3604 37.8545 51.2139 37.0503C51.1396 36.6313 51.1128 36.2051 51.1338 35.7803L51.1338 35.5503L51.1338 35.4004C51.1738 35.1987 51.1738 34.9917 51.1338 34.79C51.0454 34.4961 50.7969 34.2788 50.4937 34.23C50.1626 34.1724 49.8247 34.1724 49.4937 34.23C48.0825 34.5103 46.7002 34.9185 45.3638 35.4502C43.9136 36 42.5137 36.6201 40.9937 37.2803C39.4736 37.9399 37.9937 38.4502 36.5938 39.1201C32.2183 41.0664 27.9785 43.3047 23.9038 45.8203C20.7637 47.8203 17.8535 50.0801 14.9937 52.29C14.3535 52.77 13.7637 53.29 13.1138 53.75C10.7339 55.4902 9.81348 55.75 8.42383 55.1001C8.09814 54.9731 7.78369 54.8193 7.48389 54.6401C6.57373 54.02 6.95361 52.4902 8.57373 50.7803C9.78369 49.5239 11.0586 48.3325 12.3936 47.21C13.7637 46.1304 15.1836 45.1104 16.6235 44.1401C19.5039 42.1401 22.5537 40.3501 25.6938 38.6201C28.0269 37.3403 30.417 36.1436 32.8638 35.0303C34.0938 34.4702 35.3237 33.9302 36.5737 33.4302L38.4536 32.6802C38.9336 32.5 39.5337 32.23 40.1436 31.9702L40.2637 32.0801Z" fill-rule="evenodd" fill="currentColor"/>
	<path d="M48.8838 54.3501L48.7734 54.5303L48.7036 54.5903C48.6504 54.6362 48.6089 54.6948 48.5835 54.7603C48.5488 54.9082 48.6133 55.062 48.7437 55.1401C48.7764 55.1694 48.8135 55.1929 48.8535 55.2104C48.9185 55.2559 48.9946 55.2837 49.0737 55.2905C49.2061 55.3413 49.3433 55.3784 49.4834 55.4004L50.0635 55.4902C50.9272 55.5801 51.7964 55.6035 52.6636 55.5601C53.9937 55.4902 55.3438 55.1904 56.7236 54.9805C61.6753 54.167 66.5493 52.936 71.2935 51.3003C73.4238 50.5503 75.5337 49.6904 77.5835 48.8003L85.4238 45.1904C86.2236 44.8203 86.4238 45.2803 86.0435 46.1904C85.4346 47.4629 84.4819 48.54 83.2935 49.3003C80.7412 50.9341 78.0967 52.4199 75.3735 53.7505C72.5918 54.9736 69.728 56.0029 66.8037 56.8301C63.2837 57.8301 59.7134 59.1401 55.9238 59.8301C53.7681 60.2573 51.5674 60.4082 49.3735 60.2803C48.7241 60.2197 48.0796 60.1162 47.4438 59.9702L46.3135 59.5903C45.9482 59.4492 45.5972 59.2754 45.2637 59.0703C44.6201 58.6846 44.0757 58.1538 43.6738 57.5205C43.2876 56.8804 43.1128 56.1353 43.1738 55.3901C43.2744 54.4668 43.582 53.5781 44.0737 52.7905L44.6836 51.7905L44.8335 51.5405L45.1035 51.6104C45.2363 51.6597 45.374 51.6963 45.5137 51.7202L45.8335 51.7202C46.2134 51.7202 46.2134 51.5903 46.0635 51.7905C46.0122 51.8516 45.9688 51.9185 45.9336 51.9902L45.9336 52.0503C45.8838 52.1504 46.3037 51.1401 46.1235 51.5703C46.0928 51.6284 46.0659 51.6885 46.0435 51.7505C45.9961 52.0547 45.9727 52.3623 45.9736 52.6704L45.9736 52.8901L45.8535 52.8901L45.5337 52.9604C44.9976 53.103 44.4697 53.2769 43.9536 53.4805C40.5342 54.8457 37.2275 56.4771 34.0635 58.3604C31.5938 59.8301 29.4136 61.6401 27.1338 63.3003C26.6338 63.6704 26.1338 64.0601 25.6538 64.4102C23.7734 65.7305 22.9336 65.7705 21.8438 65.1602C21.5859 65.0342 21.3354 64.894 21.0938 64.7402C20.3838 64.2002 20.6836 62.9702 21.8838 61.5801C22.8135 60.5801 23.7837 59.6704 24.8037 58.7705C25.8428 57.895 26.9312 57.0806 28.0635 56.3301C30.3521 54.7949 32.7183 53.3799 35.1538 52.0903C36.9834 51.0903 38.8438 50.2002 40.8237 49.3604C41.8838 48.9395 42.9692 48.5854 44.0737 48.3003L44.6235 48.1602C44.8037 48.1602 45.0835 48.0801 45.3037 48.0503C45.5234 48.0205 45.6636 48.0503 45.8335 48.0503L46.2734 48.0503L46.5635 48.0503C46.9463 48.1123 47.3193 48.2231 47.6738 48.3804C48.0381 48.5576 48.3745 48.7866 48.6738 49.0601C49.0669 49.4326 49.374 49.8867 49.5737 50.3901C49.6631 50.627 49.73 50.8711 49.7734 51.1201C49.7734 51.2402 49.7734 51.3604 49.7734 51.4805L49.7734 51.7505C49.7837 51.9302 49.7837 52.1104 49.7734 52.2905L49.7036 52.6504C49.6621 52.8477 49.6055 53.0415 49.5337 53.2305C49.3755 53.6367 49.1885 54.0308 48.9736 54.4102L48.8838 54.3501Z" fill-rule="evenodd" fill="currentColor"/>
	<path d="M45.3633 72.9102C45.4336 72.9102 45.3633 73.02 45.8833 73.0503C46.4033 73.0801 46.8833 73.0503 47.4634 73.0503C48.6431 73.0259 49.8198 72.9155 50.9834 72.7202C51.8633 72.5801 52.7036 72.29 53.5933 72.1001C56.7612 71.4365 59.8838 70.5747 62.9434 69.52C64.2935 69.02 65.6333 68.46 66.9434 67.8799C68.6035 67.1001 70.2437 66.27 71.9434 65.5903C72.4736 65.3799 72.6533 65.7603 72.4834 66.4302C72.2212 67.3457 71.666 68.1499 70.9033 68.7202C69.2988 69.8438 67.6289 70.8721 65.9033 71.8003C64.1416 72.627 62.3198 73.3188 60.4536 73.8701C58.2134 74.5303 55.9834 75.52 53.6533 76.1802C52.356 76.5381 51.041 76.8286 49.7134 77.0503C48.3159 77.3101 46.8906 77.3872 45.4736 77.2803C43.3433 77.1001 40.5537 75.98 40.4736 73.6099C40.5347 72.7822 40.814 71.9849 41.2837 71.3003L41.6235 70.73L41.7134 70.5801L41.7837 70.5801L41.9136 70.5801C42.167 70.6816 42.4419 70.7192 42.7134 70.6899C42.6636 70.6899 42.7134 70.6899 42.6133 70.8101L42.5537 70.9199L42.5537 70.98C42.4033 71.3301 42.7437 70.5 42.7134 70.5903C42.5903 70.8486 42.562 71.1426 42.6333 71.4199L42.6333 71.5703L42.5835 71.5703C42.541 71.5581 42.4961 71.5581 42.4536 71.5703C42.3413 71.5859 42.2305 71.6128 42.1235 71.6499C41.8833 71.7202 41.6235 71.8101 41.3633 71.9102C40.832 72.1128 40.311 72.3433 39.8037 72.6001C38.2119 73.5244 36.6787 74.5464 35.2134 75.6602C34.8833 75.8701 34.5732 76.1099 34.2134 76.3101C32.9434 77.0601 32.3232 76.9399 31.5435 76.2603C31.3633 76.0903 31.1636 75.9502 31.0034 75.7803C30.4937 75.21 30.6836 74.3101 31.4634 73.4199C32.0684 72.7969 32.7061 72.2061 33.3735 71.6499C34.0547 71.0991 34.7769 70.6011 35.5337 70.1602C36.2935 69.7002 37.0732 69.27 37.8936 68.8701C38.772 68.4258 39.6807 68.0449 40.6133 67.73C40.8325 67.6528 41.0566 67.5894 41.2837 67.54L41.6733 67.4502C41.875 67.4111 42.0786 67.3843 42.2837 67.3701L42.4434 67.3701C42.5166 67.3647 42.5903 67.3647 42.6636 67.3701C42.9229 67.3789 43.1807 67.4121 43.4336 67.4702C43.6855 67.5298 43.9307 67.6167 44.1636 67.73C44.4229 67.8589 44.6646 68.0205 44.8833 68.21C45.021 68.3325 45.1509 68.4629 45.2734 68.6001C45.4038 68.7676 45.521 68.9443 45.6235 69.1299C45.8237 69.4922 45.9526 69.8896 46.0034 70.3003C46.0435 70.5952 46.0435 70.895 46.0034 71.1899C45.9785 71.3755 45.9414 71.5591 45.8936 71.7402C45.8936 71.8701 45.8037 72 45.7637 72.1201L45.6436 72.3901L45.4834 72.7002C45.458 72.7144 45.4424 72.7412 45.4424 72.77C45.4424 72.7993 45.458 72.8262 45.4834 72.8403L45.3633 72.9102Z" fill-rule="evenodd" fill="currentColor"/>
	<defs/>
</svg>
