<svg width="24" height="24" viewBox="0 0 110 110" fill="none" xmlns="http://www.w3.org/2000/svg" xmlns:xlink="http://www.w3.org/1999/xlink">
	<path d="M34.6021 39.1636C34.2319 41.4438 29.4722 43.4639 29.4722 39.1636C29.5122 35.8638 35.1221 36.2437 34.6021 39.1636Z" fill-rule="evenodd" fill="currentColor"/>
	<path d="M44.6724 29.7236C44.4121 31.3438 41.0122 32.7837 41.0122 29.7236C41.0122 27.3638 45.0122 27.6538 44.6724 29.7236Z" fill-rule="evenodd" fill="currentColor"/>
	<path d="M19.1821 68.5439C18.9023 70.2339 15.3623 71.7339 15.3623 68.5439C15.3623 66.084 19.5322 66.3838 19.1821 68.5439Z" fill-rule="evenodd" fill="currentColor"/>
	<path d="M54.2319 56.5039C53.9619 58.124 50.582 59.564 50.582 56.5039C50.6021 54.1538 54.6021 54.4341 54.2319 56.5039Z" fill-rule="evenodd" fill="currentColor"/>
	<path d="M49.4321 35.8843C49.062 38.1641 44.292 40.1841 44.292 35.8843C44.292 32.584 49.9121 32.9839 49.4321 35.8843Z" fill-rule="evenodd" fill="currentColor"/>
	<path d="M52.3818 84.6538C51.9619 87.2437 46.6021 89.4937 46.6021 84.6436C46.6021 80.9336 52.9219 81.3838 52.3818 84.6538Z" fill-rule="evenodd" fill="currentColor"/>
	<path d="M41.2217 49.3335C40.832 51.6836 35.9219 53.7739 35.9219 49.3335C35.9219 45.9238 41.7119 46.3438 41.2217 49.3335Z" fill-rule="evenodd" fill="currentColor"/>
	<path d="M49.4326 60.874C49.1123 62.874 44.9824 64.5938 44.9824 60.874C44.9824 58.0039 49.8525 58.354 49.4326 60.874Z" fill-rule="evenodd" fill="currentColor"/>
	<path d="M29.522 59.6338C28.6021 61.1641 24.6021 61.2441 25.832 58.1338C26.792 55.7739 30.7021 57.6841 29.522 59.6338Z" fill-rule="evenodd" fill="currentColor"/>
	<path d="M23.8818 18.3438C23.9922 15.6836 29.1719 12.7236 29.7617 17.6538C30.2119 21.4238 23.7319 21.7236 23.8818 18.3438Z" fill-rule="evenodd" fill="currentColor"/>
	<path d="M80.7422 32.7837C80.8521 30.3237 85.6421 27.584 86.1821 32.144C86.6021 35.6338 80.6021 35.9141 80.7422 32.7837Z" fill-rule="evenodd" fill="currentColor"/>
	<path d="M15.002 84.3936C15.0923 82.3335 19.1021 80.0439 19.5522 83.8638C19.9023 86.7837 14.8823 87.0137 15.002 84.3936Z" fill-rule="evenodd" fill="currentColor"/>
	<path d="M68.7617 54.354C68.8721 51.8438 73.7617 49.0537 74.312 53.7036C74.7417 57.2437 68.6021 57.5439 68.7617 54.354Z" fill-rule="evenodd" fill="currentColor"/>
	<path d="M41.4321 79.1738C41.522 77.0039 45.7422 74.5938 46.2222 78.6138C46.6021 81.6841 41.312 81.9341 41.4321 79.1738Z" fill-rule="evenodd" fill="currentColor"/>
	<path d="M18.522 39.4937C17.9702 40.5171 17.1982 41.4048 16.2617 42.0938C15.9917 42.2939 15.6616 42.0938 15.8018 41.6938C16.082 40.9937 16.3521 40.2739 16.7017 39.584C17.4116 38.2764 18.1958 37.0107 19.0518 35.7939C20.1992 34.1304 21.4409 32.5347 22.772 31.0137C24.4014 29.0869 26.2393 27.3462 28.252 25.8237C32.4888 22.5547 37.5571 20.5386 42.8818 20.0039C44.127 19.9224 45.3774 20.0029 46.6021 20.2437C48.8447 20.6377 50.9683 21.5371 52.812 22.874C54.6094 24.1836 56.123 25.8433 57.2617 27.7539C57.6421 28.374 57.9517 29.0439 58.3618 29.6138C58.7769 30.3281 59.1123 31.0864 59.3618 31.874C59.5718 32.4536 59.772 33.124 59.9619 33.814C60.1519 34.5039 60.3218 35.2739 60.4717 35.8638C60.6875 36.8994 61.0229 37.9062 61.4717 38.8638C61.6787 39.2222 61.9238 39.5576 62.2017 39.8638C62.8906 40.627 63.855 41.0845 64.8818 41.1338C66.5117 41.4038 68.1719 41.6938 69.832 42.084C70.3228 42.1255 70.7993 42.2686 71.2319 42.5039C72.1543 43.0605 73.1714 43.4434 74.2319 43.6338C75.6772 44.1025 77.0479 44.7759 78.3018 45.6338C78.938 46.0781 79.498 46.6216 79.9619 47.2437C80.4019 47.7837 79.6816 48.1538 79.4619 48.104C78.8218 47.9536 79.062 48.5137 78.9316 48.7837C78.8965 48.8833 78.8423 48.9751 78.772 49.0537C77.5249 48.6841 76.251 48.4131 74.9619 48.2437C74.4819 48.1738 73.9619 48.1641 73.4917 48.0938L72.1519 47.9238C71.3418 47.814 70.7119 47.7539 70.5117 47.7036C70.5117 47.7036 69.752 47.5337 68.6719 47.354C67.5918 47.1738 66.1318 46.9639 64.6118 46.7739L64.0317 46.7036L63.312 46.5938C62.8125 46.5049 62.3184 46.3877 61.832 46.2437C60.8652 45.9414 59.9458 45.5039 59.1021 44.9438C58.0762 44.2148 57.1978 43.2988 56.5117 42.2437C56.0435 41.4673 55.7056 40.6196 55.5117 39.7339C55.5117 39.644 55.2217 38.9141 54.9619 37.9038C54.832 37.4141 54.6919 36.834 54.562 36.2637C54.4316 35.6938 54.312 35.1841 54.1616 34.6538C53.7954 33.2642 53.2686 31.9219 52.5918 30.6538C51.8521 29.3115 50.9409 28.0713 49.8818 26.9639C49.6821 26.7373 49.4409 26.5508 49.1719 26.4141C47.0518 25.1338 44.0718 24.7939 41.0317 25.0439C39.459 25.1836 37.9048 25.4819 36.3921 25.9341C36.1221 26.0239 35.832 26.0737 35.5518 26.144C35.2104 26.2188 34.876 26.3228 34.5518 26.4536C30.9512 27.8789 27.6606 29.9878 24.8618 32.6641C24.542 32.9839 23.562 33.8438 22.6421 34.814C21.8892 35.5718 21.1812 36.373 20.522 37.2139C20.1519 37.6338 18.772 39.0239 18.522 39.4937Z" fill-rule="evenodd" fill="currentColor"/>
	<path d="M82.832 56.1138C82.8853 55.77 83.0908 55.4683 83.3921 55.2939C83.4824 55.2241 83.6924 55.2939 83.7124 55.394C83.7324 55.4941 83.7124 55.8638 83.792 56.0439C83.8721 56.2241 83.6621 58.2441 83.6021 58.9639C83.5464 59.6597 83.4292 60.3491 83.252 61.0239C82.9321 62.4229 82.4902 63.7915 81.9321 65.1138C81.7822 65.3931 81.5972 65.6514 81.3823 65.8838C80.6733 66.6953 80.0342 67.5649 79.4722 68.4839C79.3486 68.6206 79.2686 68.7915 79.2422 68.9741C79.0005 69.5093 78.6841 70.0078 78.3022 70.4541C77.9448 70.937 77.5464 71.3887 77.1123 71.8037L74.8721 73.4741C74.7622 73.5439 74.7021 73.6738 74.522 73.6641C74.0923 73.6641 73.9424 73.8638 73.7324 74.0537C73.4204 74.3105 73.0854 74.5381 72.7324 74.7339C72.5166 74.8086 72.29 74.8457 72.062 74.8438C71.8423 74.8438 71.5522 74.4341 71.562 74.354C71.562 74.124 71.3022 74.0537 71.1523 73.9141C71.0913 73.8687 71.0376 73.8145 70.9922 73.7539C71.2368 72.9263 71.5723 72.1279 71.9922 71.374C72.062 71.374 73.9922 68.9238 74.1924 68.624C74.3076 68.4766 74.4546 68.3569 74.6221 68.2739C74.7124 68.2739 76.062 66.1938 76.1021 66.1138C76.4521 65.7441 76.6421 65.2739 77.1021 65.0239C77.1914 64.9697 77.2612 64.8896 77.3022 64.7939C77.5322 64.4341 77.772 64.0737 78.0322 63.7339C78.2754 63.3877 78.5356 63.0542 78.812 62.7339C79.1123 62.394 79.312 62.0039 79.5723 61.644C79.5723 61.584 79.7021 61.5337 79.752 61.4639C79.8267 61.3945 79.894 61.3174 79.9521 61.2339C80.5884 60.3438 81.1411 59.3965 81.6021 58.4038C81.8999 57.9058 82.1704 57.3916 82.4121 56.8638C82.5742 56.627 82.7148 56.376 82.832 56.1138Z" fill-rule="evenodd" fill="currentColor"/>
	<path d="M55.292 70.6138C55.9312 71.0703 56.1104 71.9429 55.7021 72.6138C55.6021 72.874 54.9819 73.1938 54.8022 73.104C54.4419 72.9341 54.1021 72.7739 53.8022 72.604C53.3247 72.2334 52.8198 71.8989 52.292 71.604C51.5562 71.2495 50.7705 71.0103 49.9619 70.894C48.9619 70.7241 47.8921 70.6338 46.8022 70.5439C44.4443 70.4766 42.085 70.5801 39.7422 70.854C39.1929 70.894 38.6411 70.894 38.0923 70.854C36.1919 70.854 34.2822 70.9741 32.272 71.084C31.9336 71.0684 31.5952 71.1123 31.272 71.2139C30.103 71.3623 28.918 71.3218 27.7622 71.0938C27.3364 71.0293 26.915 70.9355 26.502 70.814C26.1094 70.7148 25.7222 70.5947 25.3423 70.4541C24.8379 70.2769 24.3574 70.0386 23.9121 69.7437C22.0698 68.4551 20.7305 66.5684 20.1221 64.4038C20.0522 64.124 19.8521 63.8438 19.9619 63.5337C20.2822 62.8438 19.9619 62.314 20.022 61.7241C20.0161 60.9365 20.1035 60.1509 20.2822 59.3838C20.4116 58.9995 20.5898 58.6333 20.812 58.2939C20.9819 57.9741 21.542 58.1738 21.6118 58.2939C21.8022 58.6138 22.0723 58.3638 22.312 58.2939C22.3945 58.2788 22.4795 58.2788 22.562 58.2939C22.6519 58.2939 22.9521 59.2939 23.4521 60.2139C23.6724 60.6372 23.9268 61.0415 24.2119 61.4238C24.3394 61.623 24.4404 61.8384 24.5122 62.064C24.7114 62.7461 25.0332 63.3867 25.4619 63.9541C25.9365 64.5415 26.5571 64.9932 27.2622 65.2637C27.4902 65.394 27.7109 65.5376 27.9219 65.6938C28.5728 65.8901 29.2437 66.0107 29.9219 66.0537C30.9219 66.1538 32.1021 66.1338 32.1919 66.1338C33.1221 66.1274 34.0508 66.2178 34.9619 66.4038C35.1509 66.4336 35.3433 66.4336 35.5322 66.4038C37.1719 66.314 38.8618 66.3237 40.5322 66.3037L43.1821 66.2041C43.3433 66.2139 43.5034 66.2339 43.6621 66.2637C43.8721 66.2637 44.0723 66.3237 44.272 66.3237C46.4873 66.3286 48.6938 66.6035 50.8423 67.144C51.0713 67.2104 51.2954 67.2939 51.5122 67.394L52.5122 67.9238C52.8584 68.1157 53.1924 68.3296 53.5122 68.564C53.7349 68.7002 53.9487 68.8506 54.1519 69.0137C54.3853 69.2319 54.5869 69.481 54.752 69.7539C54.8887 70.0659 55.0703 70.3555 55.292 70.6138Z" fill-rule="evenodd" fill="currentColor"/>
	<defs/>
</svg>
