<svg width="24" height="24" viewBox="0 0 110 110" fill="none" xmlns="http://www.w3.org/2000/svg" xmlns:xlink="http://www.w3.org/1999/xlink">
	<path d="M74.9487 45.2739L76.0088 46.6538L76.8091 47.6538C77.0991 48.0137 77.3789 48.4741 77.6587 48.894C78.2085 49.6675 78.6025 50.54 78.8188 51.4639L78.9189 52.104C78.9189 52.314 78.9189 52.5239 78.9189 52.7339C78.896 53.1797 78.7803 53.6157 78.5791 54.0137C78.168 54.7788 77.5645 55.4229 76.8291 55.8838C75.9463 56.3931 75.0386 56.8569 74.1089 57.2739C74.0449 57.3096 73.978 57.3398 73.9087 57.3638L73.8291 57.3638L73.6489 57.4541L73.2988 57.624L72.6187 57.9741C72.1587 58.2241 71.709 58.4741 71.2588 58.7437C69.959 59.5239 68.769 60.5337 67.519 61.4541C65.2891 63.084 63.189 64.9438 61.0791 66.8237C58.9688 68.7041 56.9287 70.7241 54.979 72.8237C53.249 74.6738 51.6587 76.6841 50.1289 78.6841C48.189 81.2837 46.1987 83.8638 44.0288 86.3237C43.3491 87.084 43.0288 86.7339 43.1187 85.7241C43.2334 84.187 43.6694 82.6914 44.3989 81.334C47.6938 75.3906 51.77 69.915 56.519 65.0537C57.2588 64.3438 57.9688 63.584 58.709 62.834L60.959 60.604C62.4795 59.0928 64.0854 57.6709 65.769 56.3438C66.769 55.6338 67.689 54.9438 68.709 54.3438C69.209 54.0137 69.709 53.7041 70.249 53.4038L71.0391 52.9639L71.2388 52.8638L71.3887 52.7837L71.5391 52.7241L72.1787 52.4541C72.3887 52.354 72.6587 52.2739 72.769 52.0439C72.8789 51.814 72.769 51.5938 72.6187 51.394C72.5034 51.1772 72.3765 50.9673 72.2388 50.7637L71.9189 50.2739L71.2891 49.4839L69.999 47.874L67.3491 44.624C64.6333 41.2886 62.103 37.8066 59.769 34.1938C58.8687 32.7739 57.9487 31.374 57.1187 29.874C56.29 28.3394 55.6201 26.7246 55.1187 25.0537C54.894 24.293 54.7202 23.5181 54.5991 22.7339C54.5361 22.0986 54.5361 21.459 54.5991 20.8237C54.6821 20.3706 54.8408 19.9346 55.0688 19.5337C55.3486 18.9512 55.8433 18.4995 56.4487 18.2739C56.6787 18.1611 56.9199 18.0742 57.1689 18.0137C57.9087 17.9038 58.3887 19.0938 59.1689 20.6841C59.8813 23.167 60.9668 25.5273 62.3887 27.6841C63.7231 30.1294 65.2163 32.4844 66.8589 34.7339C69.3589 38.2241 72.1387 41.624 75.0688 45.1538L74.9487 45.2739Z" fill-rule="evenodd" fill="currentColor"/>
	<path d="M70.1987 39.5137C71.4487 41.4336 72.8091 43.2739 74.1987 45.0938C74.9287 45.9839 75.6587 46.8838 76.4189 47.7637L77.5791 49.0737L77.9888 49.5239L78.5591 50.124L79.7388 51.2739L80.8589 53.5039C80.9062 54.3525 80.6704 55.1934 80.189 55.894C79.6304 56.6855 78.9795 57.4072 78.249 58.0439L77.1689 59.0439L76.5088 59.604C74.7588 61.0537 73.019 62.4336 71.2891 63.8237C68.6689 65.9336 66.1787 68.1641 63.6289 70.3237C60.4487 73.0039 57.3389 75.7637 54.3589 78.644C52.8687 80.084 51.3589 81.5439 49.999 83.0537C49.2891 83.8037 48.5889 84.564 47.9087 85.3438L47.3789 85.9438L46.5591 86.9438L44.979 88.9438C44.6064 89.3706 44.1719 89.7383 43.689 90.0337C43.5156 90.165 43.3232 90.2695 43.1187 90.3438L42.5889 90.584C42.4731 90.6294 42.3447 90.6294 42.229 90.584C42.1138 90.5459 42.0029 90.4956 41.8989 90.4336C41.7085 90.3149 41.5278 90.1816 41.3589 90.0337C40.9761 89.6851 40.6396 89.2886 40.3589 88.854C39.7261 87.7139 39.1973 86.519 38.7788 85.2837L38.2188 83.7036L37.7788 82.4736C36.0488 77.4736 34.2788 72.4736 32.1787 67.7939C30.8477 64.7739 29.3452 61.8325 27.6787 58.9839C26.1504 56.1924 24.1895 53.6611 21.8687 51.4839C21.1387 50.894 20.8687 50.4839 21.0591 50.2236C21.249 49.9639 21.8789 49.7739 22.8989 49.9536C24.2549 50.2505 25.5308 50.8374 26.6387 51.6738C28.1709 52.7646 29.5039 54.1108 30.5791 55.6538C34.0664 61.0645 36.9917 66.8179 39.3091 72.8237C40.5088 75.7539 41.6089 78.7139 42.6089 81.6641L42.7988 82.2036L42.8989 82.4839C42.8989 82.564 42.8989 82.4839 42.8989 82.5537L42.8989 82.6836C42.9106 82.8052 42.9307 82.9253 42.959 83.0439L43.019 83.2637C43.019 83.3438 43.1089 83.4336 43.1387 83.374L43.3989 83.1836L43.6787 82.9639L43.769 82.894L43.8887 82.7637L44.0488 82.584L44.6987 81.874C50.5078 75.5459 56.6743 69.5562 63.1689 63.9336C65.6689 61.7939 68.1689 59.7139 70.709 57.644L72.5791 56.0938L74.0088 54.874C74.2695 54.6699 74.5078 54.4385 74.7188 54.1836C74.7769 54.123 74.8149 54.0464 74.8291 53.9639C74.8291 53.8838 74.7388 53.834 74.6987 53.7739L74.3687 53.4141L72.1289 50.9438C71.1987 49.854 70.249 48.7837 69.3687 47.6641C65.6421 43.0825 62.52 38.041 60.0791 32.6641C59.1987 30.6641 58.3789 28.6641 57.6987 26.5938L57.1787 25.0537L56.749 23.6138C56.5889 23.0537 56.4487 22.4839 56.2988 21.9038C56.1489 21.3237 56.019 20.6641 55.8687 20.0337C55.8188 19.894 55.8687 19.6841 55.709 19.604C55.5488 19.5239 55.439 19.7539 55.3389 19.854C55.2388 19.9536 54.939 20.3438 54.749 20.5938L53.6489 22.1338L53.0889 22.894L52.1587 24.1338C50.105 26.8857 47.8594 29.4888 45.439 31.9238C42.9658 34.4243 40.1509 36.562 37.0791 38.2739C35.6943 39.0449 34.2373 39.6782 32.729 40.1641C31.5293 40.543 30.2974 40.811 29.0488 40.9639C28.1836 41.0303 27.313 40.9863 26.459 40.834C25.4272 40.7207 24.4629 40.2671 23.7188 39.5439C23.4448 39.3008 23.1938 39.0327 22.9688 38.7437C22.499 37.874 24.7891 37.3838 28.189 36.0537C30.748 35.2393 33.186 34.0859 35.439 32.624C37.7798 31.1289 39.9521 29.3853 41.9189 27.4238C43.98 25.3804 45.8916 23.1914 47.6387 20.874C48.1387 20.2139 48.3291 19.9736 49.459 18.4238C50.3789 17.1738 51.2788 15.8438 52.209 14.6338C52.439 14.3237 52.6689 14.064 52.9087 13.7837C53.1489 13.5039 53.3789 13.3037 53.6089 13.104C54.002 12.7637 54.4434 12.4839 54.9189 12.2739C55.2832 12.1406 55.6631 12.0532 56.0488 12.0137C56.4404 11.9819 56.834 12.0054 57.2188 12.084L57.479 12.1538C57.5483 12.1924 57.6152 12.2358 57.6787 12.2837L58.0791 12.5737L58.8789 13.1641L59.6787 13.7539C59.8188 13.7539 59.9287 14.1841 60.0488 14.4438L60.3989 15.314C60.8989 17.314 61.3389 19.314 61.9087 21.2139L62.4487 22.9937C62.5791 23.4438 62.749 23.8838 62.8989 24.334C63.189 25.2236 63.499 26.104 63.8989 26.9736C64.2988 27.8438 64.5889 28.7236 64.959 29.5737C66.4551 33.0117 68.2627 36.3052 70.3589 39.4141L70.1987 39.5137Z" fill-rule="evenodd" fill="currentColor"/>
	<defs/>
</svg>
