<svg width="24" height="24" viewBox="0 0 110 110" fill="none" xmlns="http://www.w3.org/2000/svg" xmlns:xlink="http://www.w3.org/1999/xlink">
	<path d="M51.0278 51.1934L45.9277 54.8032L40.9277 58.5234C39.728 59.4531 38.6479 60.5234 37.4277 61.4531C33.1577 64.7134 28.8779 68.0034 24.7778 71.4531C22.9277 73.0435 21.228 74.7432 19.5679 76.4233C17.5439 78.6719 15.3438 80.7551 12.9878 82.6533C12.2178 83.2031 11.4277 82.3833 11.1177 81.0032C10.9609 80.2178 10.9609 79.4087 11.1177 78.6233C11.2451 77.7656 11.5933 76.9558 12.1279 76.2732C13.1279 75.0532 14.2178 73.8931 15.2778 72.7231C16.3379 71.5532 17.5278 70.5132 18.6777 69.4434C21.0049 67.2979 23.4453 65.2783 25.9878 63.3931C29.0479 61.1431 31.7476 58.2632 34.6978 55.7534C36.3076 54.373 37.958 53.0234 39.6177 51.6831C41.2778 50.3433 42.938 49.0132 44.6177 47.6831C46.668 46.0732 48.7979 44.5234 50.9277 42.9233C54.0879 40.5234 57.3877 38.2534 60.5576 35.8633C61.7578 34.8633 62.9976 33.9731 64.1777 32.9731C64.7778 32.4834 65.3579 31.9731 65.9678 31.4932L67.8677 30.0933C68.438 29.6831 68.958 29.2231 69.5479 28.853C70.3501 28.2925 71.3091 27.9985 72.2876 28.0132C73.062 28.1475 73.7441 28.6011 74.168 29.2632C74.4575 29.5825 74.7314 29.9165 74.9878 30.2632C75.728 31.4932 75.3179 33.063 74.0776 34.2632C73.0776 35.0332 72.1377 35.9634 71.1279 36.7832C70.6177 37.2031 70.1279 37.5933 69.5879 38.0034C69.0479 38.4131 68.5879 38.8633 68.0278 39.2734C67.4678 39.6831 66.9277 40.1431 66.3677 40.5234C65.8076 40.9033 65.2676 41.3032 64.708 41.7134C63.5977 42.5132 62.458 43.2935 61.3179 44.0732C59.6377 45.2734 57.9409 46.46 56.228 47.6333L51.1377 51.3232L51.0278 51.1934Z" fill-rule="evenodd" fill="currentColor"/>
	<path d="M84.6279 46.9932C85.748 42.4634 92.6279 24.4634 89.938 20.0532C88.0479 16.9331 48.6182 21.5229 50.4478 23.7632C53.7881 27.8633 58.6182 30.2134 62.9678 33.043C67.6978 36.123 72.1079 39.5532 76.5879 42.9834C77.3179 43.5229 84.228 48.623 84.6279 46.9932Z" fill-rule="evenodd" fill="currentColor"/>
	<defs/>
</svg>
