<svg width="24" height="24" viewBox="0 0 110 110" fill="none" xmlns="http://www.w3.org/2000/svg" xmlns:xlink="http://www.w3.org/1999/xlink">
	<path d="M57.1177 44.5789C54.5977 47.3389 52.1177 50.0889 49.6079 52.8889C48.6978 53.8889 47.8877 54.999 46.978 56.009L37.3076 66.689C35.8877 68.2891 34.5376 69.959 33.2178 71.6089C32.3779 72.679 31.5479 73.769 30.688 74.8188L30.0278 75.6089L29.2876 76.3188C28.7876 76.7891 28.2876 77.249 27.708 77.689C27.1279 78.1289 26.708 77.749 26.6479 76.769C26.6328 76.1677 26.6899 75.5667 26.8179 74.979C26.8901 74.6392 26.9873 74.3049 27.1079 73.979L27.3179 73.439C27.4175 73.2754 27.5278 73.1184 27.6479 72.969C31.0576 68.6289 34.5776 64.3389 38.458 60.2891C40.7676 57.8589 42.8579 55.0588 45.1079 52.469C47.5679 49.6189 50.1079 46.7988 52.5776 43.979L57.208 38.7891C59.5479 36.1589 61.9478 33.5688 64.208 30.929L66.8276 27.8389C67.688 26.8389 68.5679 25.8389 69.478 24.8389C69.8779 24.3989 70.2378 23.949 70.6577 23.519C72.2676 21.959 72.9478 21.6289 73.8579 21.8989C74.0679 21.938 74.2725 22.002 74.4678 22.0889C75.0376 22.3889 74.7778 23.4089 73.8276 24.709L71.7178 27.5291L69.5176 30.5291L68.3877 31.969C67.998 32.459 67.5776 32.969 67.168 33.3989L64.688 36.219C62.1978 39.019 59.688 41.8389 57.1978 44.6389L57.1177 44.5789Z" fill-rule="evenodd" fill="currentColor"/>
	<path d="M58.8682 41.3892C56.3081 44.3892 53.748 47.3892 51.228 50.4492C50.3179 51.5593 49.4878 52.7393 48.5679 53.8394C45.3081 57.7393 42.0181 61.6091 38.8081 65.5493C37.3877 67.2893 36.0381 69.1091 34.728 70.9192C33.8779 72.0693 33.1182 73.2793 32.1978 74.4092C31.293 75.5364 30.3247 76.6116 29.2979 77.6292C28.6479 78.2593 28.188 77.7593 28.0781 76.7192C27.957 75.302 28.2822 73.8826 29.0078 72.6592C29.3794 72.0276 29.7905 71.4197 30.2378 70.8394L31.5479 69.0693C32.418 67.8892 33.3081 66.7292 34.2178 65.5693C36.0278 63.2593 37.8979 60.9792 39.8682 58.7593C42.2178 56.0693 44.2881 53.0693 46.5078 50.2092C48.958 47.0693 51.4478 43.9692 53.938 40.8591L58.5479 35.1392C60.8779 32.2493 63.2778 29.3992 65.5479 26.4792C67.2881 24.1992 68.8179 21.8293 70.478 19.4792C70.8481 18.9692 71.168 18.4792 71.5781 17.9692C73.0879 16.1692 73.8081 15.7893 74.9077 16.0693C75.1592 16.1182 75.4062 16.1848 75.6479 16.2693C76.3779 16.6091 76.2681 17.7693 75.418 19.2693C72.708 23.7454 69.7012 28.0349 66.418 32.1091C63.978 35.2292 61.5278 38.3691 58.9878 41.4292L58.8682 41.3892Z" fill-rule="evenodd" fill="currentColor"/>
	<path d="M59.3779 39.5291C56.5879 43.0291 53.7881 46.5291 51.0381 50.0491C50.0381 51.3391 49.1782 52.719 48.1582 54.0491L42.7681 60.7991C40.938 63.019 39.0981 65.239 37.3081 67.489C35.7183 69.489 34.3081 71.5991 32.8281 73.6792C31.9082 75.0291 31.0479 76.4092 30.1079 77.739C29.0972 79.0271 27.9976 80.2434 26.8179 81.3792C26.0679 82.0791 25.4883 81.5391 25.1982 80.3091C24.8306 78.6382 24.9771 76.8953 25.6182 75.3091C29.0708 69.5854 32.959 64.1362 37.248 59.009C39.8882 56.009 42.1382 52.4392 44.5879 49.1592C47.3081 45.5591 50.0781 41.989 52.8281 38.4192L57.918 31.8191C60.4282 28.4492 63.188 25.229 65.6382 21.8191C67.5879 19.229 69.188 16.4392 71.1279 13.8191C71.5479 13.249 71.9482 12.6592 72.4082 12.1091C74.2183 10.239 75.208 9.80908 76.248 10.0691C76.4893 10.0947 76.7271 10.145 76.958 10.219C77.6182 10.509 77.3882 11.719 76.6079 13.459C74.2383 18.759 70.8481 23.729 67.498 28.769C65.0479 32.5391 62.208 36.0491 59.498 39.6592L59.3779 39.5291Z" fill-rule="evenodd" fill="currentColor"/>
	<path d="M58.5483 77.7891C57.1182 78.9192 55.6182 80.0691 54.1782 81.2092C53.6484 81.6292 53.1782 82.1191 52.6685 82.5391C50.7983 84.0093 48.9185 85.4792 47.1084 87.0093C46.2983 87.6792 45.5884 88.4692 44.8384 89.1892C43.9614 90.1558 43.019 91.0613 42.0181 91.8992C41.6982 92.1292 41.2383 91.7891 41.0181 91.1492C40.8833 90.7781 40.8291 90.3828 40.8584 89.9893C40.875 89.5825 41.0107 89.1895 41.2485 88.8591C42.9546 86.6106 45.0347 84.6724 47.3984 83.1292C48.7881 82.1292 49.9785 80.8992 51.2783 79.7991C52.5781 78.6992 54.1782 77.4192 55.6382 76.2493L58.2881 74.0691L60.2881 72.4292C60.9785 71.8992 61.6782 71.3691 62.3481 70.8191C63.3481 69.9592 64.3481 69.0093 65.3481 68.1392C65.5781 67.9492 65.7681 67.7393 66.0283 67.5591C66.3467 67.292 66.7236 67.1038 67.1284 67.0093C67.418 66.9407 67.7231 67.0234 67.9385 67.2292C68.0464 67.3062 68.144 67.397 68.2285 67.4993C68.3408 67.6936 68.3628 67.9272 68.2881 68.1392C68.2139 68.4336 68.0737 68.707 67.8784 68.9392C66.3584 70.7092 64.6284 72.5291 62.8281 74.2593C62.1787 74.9031 61.4907 75.5076 60.7681 76.0691L58.6084 77.8291L58.5483 77.7891Z" fill-rule="evenodd" fill="currentColor"/>
	<path d="M62.2383 72.769L57.1182 77.499C56.498 78.0789 55.9683 78.749 55.3481 79.3188C53.1382 81.3188 50.8984 83.3188 48.7183 85.3789C47.7607 86.293 46.8525 87.2578 45.998 88.269C44.8184 89.489 43.8784 90.929 42.1582 91.6589C41.6382 91.9089 41.248 91.3889 41.0283 90.5291C40.8975 90.0522 40.8203 89.5627 40.7983 89.0688C40.7676 88.7998 40.7676 88.5281 40.7983 88.259C40.8687 88.0273 40.9805 87.8105 41.1284 87.6189C41.6582 86.949 42.1982 86.2791 42.748 85.6189C43.2983 84.959 43.9482 84.3889 44.5684 83.7791C45.8213 82.5745 47.1362 81.4363 48.5083 80.3689C50.1328 78.9512 51.6724 77.4385 53.1182 75.8389L58.1182 70.949L61.2183 67.949C62.7583 66.3989 64.3882 64.949 65.8584 63.3389C67.0083 62.0989 67.958 60.719 69.0181 59.4189C69.2583 59.1289 69.458 58.8188 69.7183 58.5488C70.7183 57.5488 71.208 57.4189 72.1484 57.999C72.3682 58.1389 72.5981 58.259 72.7983 58.4089C73.4526 58.9893 73.5444 59.978 73.0083 60.6689C71.3545 63.2683 69.4341 65.688 67.2783 67.8889C65.6982 69.6089 63.9883 71.209 62.2783 72.8889L62.2383 72.769Z" fill-rule="evenodd" fill="currentColor"/>
	<path d="M62.998 68.9592C61.1582 70.8892 59.2783 72.7993 57.3979 74.7092C56.7183 75.4092 56.1382 76.1892 55.3979 76.8792C52.978 79.3291 50.5479 81.7693 48.2183 84.2993C47.2183 85.4392 46.2183 86.5991 45.2183 87.7493C44.1182 89.2393 42.8579 90.8291 41.6182 92.0691C41.2383 92.4492 40.7681 92.2493 40.5479 91.5093C40.3032 90.4932 40.4492 89.4221 40.958 88.5093C41.958 86.7593 43.0879 85.0691 44.2681 83.4392C45.4482 81.8093 46.9082 80.4392 48.3481 79.0193C50.1182 77.3792 51.5181 75.3191 53.1182 73.4592C54.8882 71.4592 56.6782 69.4592 58.5381 67.4592L61.918 63.8093C63.6182 61.9492 65.3682 60.1191 66.918 58.1992C68.168 56.7092 69.2681 55.1992 70.4683 53.6392C70.7065 53.2761 70.9849 52.9407 71.2979 52.6392C72.498 51.5791 73.0879 51.4292 73.8979 51.7192C74.084 51.7737 74.2646 51.844 74.438 51.9292C74.9683 52.2092 74.9282 53.0493 74.438 54.1592L73.8979 55.4092C73.6997 55.8047 73.4795 56.1885 73.2383 56.5593C72.7783 57.3093 72.2383 58.0593 71.7881 58.7993C70.8071 60.3054 69.7104 61.7332 68.5083 63.0691C66.748 65.0691 64.8882 67.0691 63.0879 69.0691L62.998 68.9592Z" fill-rule="evenodd" fill="currentColor"/>
	<defs/>
</svg>
