<svg width="24" height="24" viewBox="0 0 110 110" fill="none" xmlns="http://www.w3.org/2000/svg" xmlns:xlink="http://www.w3.org/1999/xlink">
	<path d="M49.124 73.9231C48.0107 75.4016 46.8086 76.8108 45.5239 78.1431C44.2231 79.4675 42.8477 80.7161 41.4038 81.8831C40.854 82.293 40.3438 82.7332 39.8237 83.1631C39.3022 83.5886 38.7578 83.9858 38.1938 84.353C36.188 85.6086 34.0684 86.6731 31.8638 87.533C30.7939 88.0132 29.6636 88.323 28.5737 88.7131C27.4839 89.103 26.3638 89.3831 25.2339 89.613C24.104 89.843 23.2339 90.093 22.2339 90.2632C21.2339 90.4331 20.2339 90.6831 19.2339 90.813C16.7222 91.3567 14.1416 91.5085 11.584 91.2632C10.7837 91.1631 10.8638 90.373 11.4736 89.5032C12.2148 88.4502 13.3013 87.6897 14.5439 87.353C16.9536 86.853 19.2939 86.2632 21.5439 85.593C23.7939 84.9231 26.1636 84.4331 28.4438 83.6531C31.1899 82.6345 33.73 81.1306 35.9438 79.2131C38.4854 77.2 40.7871 74.9016 42.8037 72.363C44.0703 70.7776 45.2266 69.1069 46.2637 67.363C47.8691 64.6655 49.2246 61.8271 50.314 58.8831C51.0405 56.5376 51.6382 54.1541 52.104 51.7432C52.2339 51.2031 52.3037 50.6631 52.4639 50.1331C53.084 48.1331 53.7437 47.6631 55.4639 47.9031C55.8955 47.9526 56.3232 48.033 56.7437 48.1431C58.0142 48.4993 58.7861 49.7844 58.5039 51.073C57.9053 55.6846 56.6211 60.1809 54.6938 64.4131C53.1973 67.791 51.3823 71.019 49.2739 74.053L49.124 73.9231Z" fill-rule="evenodd" fill="currentColor"/>
	<path d="M69.6035 50.6133L69.9238 51.8831C70.0439 52.4531 70.1235 53.0232 70.1836 53.5532C70.3052 54.5215 70.3521 55.4976 70.3237 56.4731C70.3081 57.1772 70.0659 57.8574 69.6338 58.4131C69.5439 58.5332 69.3438 58.6033 69.2339 58.7832C69.0889 58.8699 68.9297 58.9309 68.7637 58.9631C68.4775 58.9883 68.1899 58.9883 67.9038 58.9631C67.3652 58.9463 66.8335 58.8347 66.334 58.6331C65.6069 58.2939 64.9111 57.8923 64.2539 57.4331C63.9438 57.2231 63.6338 57.0132 63.334 56.8333L62.5337 56.3533C62.2139 56.1631 61.8936 55.9832 61.5337 55.8132C60.8848 55.4661 60.2173 55.1555 59.5337 54.8831C58.123 54.3274 56.6587 53.9187 55.1636 53.6631C53.8115 53.45 52.4409 53.3762 51.0737 53.4431C49.3237 53.4431 47.584 53.7231 45.7837 53.623C45.2236 53.623 45.1938 52.9431 45.584 52.2332C46.0508 51.3503 46.8799 50.7148 47.854 50.4932C48.8105 50.3262 49.7749 50.2092 50.7437 50.1431C51.7212 50.1116 52.6992 50.135 53.6738 50.2131C55.6597 50.3684 57.6143 50.7959 59.4839 51.4832C60.604 51.9031 61.7437 52.3132 62.8735 52.7832L63.7437 53.1431L64.314 53.4131C64.4858 53.4983 64.6499 53.5989 64.8037 53.7131L65.3936 54.1431C65.5024 54.2258 65.624 54.29 65.7539 54.3333C65.814 54.3333 65.9038 54.3333 65.9336 54.3333C65.9678 54.2939 65.9888 54.2449 65.9937 54.1931C66.0371 53.7222 66.0137 53.2476 65.9238 52.7832L65.8237 52.2332L65.5137 51.1431C65.3237 50.4231 65.1035 49.7031 64.8638 49.0032C64.2017 46.8469 63.2817 44.7786 62.1235 42.8433C61.2388 41.4885 60.1255 40.2976 58.834 39.3232C58.5737 39.1331 58.2939 39.0032 58.0439 38.8533C57.6929 38.6921 57.3745 38.4685 57.104 38.1931C56.9292 37.8767 56.7915 37.541 56.6938 37.1931C56.6338 37.0132 56.5537 36.8433 56.5039 36.6731C56.4536 36.5032 56.5039 36.1531 56.8838 35.8931C57.3662 35.5378 57.9766 35.4036 58.564 35.5232C60.5669 35.9729 62.3867 37.0188 63.7837 38.5232C64.4561 39.1846 65.0439 39.927 65.5337 40.7332C66.0317 41.5105 66.4858 42.3152 66.8936 43.1431C68.0762 45.5276 69.0308 48.0188 69.7437 50.5833L69.6035 50.6133Z" fill-rule="evenodd" fill="currentColor"/>
	<path d="M67.2241 56.563L67.2241 56.4829L67.2241 56.303L67.2241 55.9131C67.2241 55.4331 67.2739 54.9131 67.2241 54.4231C67.207 53.3601 67.1372 52.2988 67.0142 51.2429C66.752 49.0613 66.314 46.9043 65.7041 44.793C65.2261 43.3142 64.6377 41.8735 63.9438 40.4829C63.6816 39.9294 63.3809 39.3948 63.0439 38.8831C62.8843 38.6631 62.7241 38.4631 62.584 38.303C62.5093 38.2073 62.418 38.126 62.314 38.063C62.0942 37.9031 62.0342 37.9531 61.2241 37.9531C60.5537 37.958 59.8848 38.0183 59.2241 38.1331C56.4326 38.6455 53.7349 39.5796 51.2241 40.9031C48.9771 42.1001 46.856 43.5205 44.894 45.1431C43.6143 46.1431 42.354 47.2729 41.1738 48.4031C40.0068 49.4614 38.8955 50.5796 37.8442 51.7529C37.374 52.333 36.5142 52.1731 36.2139 50.853C35.9863 49.0339 36.5674 47.2065 37.8042 45.853C39.0518 44.4868 40.3882 43.2041 41.8042 42.0129C43.2197 40.8508 44.7021 39.7722 46.2441 38.783C49.3716 36.7131 52.8223 35.179 56.4541 34.2429C57.0142 34.123 57.564 33.9631 58.144 33.853L59.9141 33.563C60.4941 33.4531 61.1343 33.4631 61.7441 33.4031C62.6187 33.2896 63.5073 33.4175 64.314 33.7729C65.0674 34.1284 65.7461 34.624 66.314 35.2329C66.7759 35.7178 67.1973 36.2395 67.5742 36.793C68.2559 37.7852 68.8418 38.8398 69.3242 39.9431C70.3247 42.2656 71.1084 44.6758 71.6641 47.1431C72.2603 49.5701 72.6284 52.0476 72.7642 54.543C72.7642 54.9331 72.7642 55.333 72.7642 55.7329L72.7642 56.623L72.7642 57.033C72.7676 58.0969 72.5708 59.1521 72.1841 60.1431C71.9937 60.6162 71.7075 61.0452 71.3442 61.4031C70.9604 61.751 70.5166 62.0254 70.0342 62.2131C69.0347 62.5205 67.9849 62.6294 66.9438 62.533C66.5405 62.4941 66.1396 62.4307 65.7441 62.343C65.3643 62.2529 65.084 62.1431 64.7441 62.043L64.2642 61.8931L63.854 61.7329L63.0439 61.4031L60.0039 60.043C58.0513 59.1672 56.0474 58.4092 54.0039 57.7729C50.998 56.9119 47.8608 56.6003 44.7441 56.853C44.104 56.853 43.5039 57.103 42.874 57.1431C42.2441 57.1831 41.874 57.333 41.4341 57.343C41.2476 57.3538 41.0605 57.3538 40.874 57.343C40.7148 57.3408 40.5566 57.3171 40.4038 57.2729C39.7178 56.9968 39.1367 56.5103 38.7441 55.8831C38.4839 55.553 38.1841 55.2529 37.9741 54.8831C37.6118 54.3303 37.6118 53.6157 37.9741 53.063C38.2021 52.6895 38.4854 52.3523 38.814 52.063C39.2168 51.6868 39.7036 51.4124 40.2339 51.2629C43.6484 50.085 47.3066 49.7959 50.8643 50.4231C54.229 51.0747 57.5 52.1396 60.604 53.593C61.7139 54.103 62.8042 54.593 63.854 55.123L65.3843 55.853C65.834 56.053 66.3843 56.323 66.624 56.3931L66.8442 56.4929L66.9141 56.4929C66.9424 56.4988 66.9712 56.4924 66.9941 56.4751C67.0171 56.458 67.0317 56.4316 67.0342 56.4031L67.2241 56.563Z" fill-rule="evenodd" fill="currentColor"/>
	<path d="M76.5938 35.7129C76.6436 36.033 76.1436 36.103 75.4336 36.1528C75.1167 36.1438 74.8086 36.0469 74.5435 35.873C74.3965 35.6355 74.2725 35.3843 74.1733 35.123C74.1245 34.6877 74.1245 34.2483 74.1733 33.813C74.2534 33.1729 74.4233 32.4929 74.4937 32.1328C74.6416 31.4607 74.9019 30.8184 75.2637 30.2329C75.5991 29.6387 75.9839 29.0732 76.4136 28.543C76.8267 28.0044 77.271 27.4902 77.7437 27.0029C77.9463 26.7734 78.1948 26.5894 78.4736 26.4629C79.3877 25.9729 80.2373 25.3716 81.0034 24.6729C81.1338 24.563 81.3037 24.4829 81.3535 24.2529C81.4038 24.0229 82.0034 23.553 82.7134 23.1428C83.2393 22.8037 83.812 22.5444 84.4136 22.373C84.9136 22.313 85.4136 22.293 85.9233 22.2529C86.4351 22.2561 86.9458 22.2896 87.4536 22.353C87.6035 22.353 87.7334 22.283 87.8838 22.4529C88.105 22.7336 88.4595 22.8748 88.8135 22.823C89.2363 22.8552 89.646 22.9817 90.0137 23.1929C90.2178 23.3413 90.3911 23.5281 90.5234 23.7429C90.6636 23.9229 90.5234 24.4629 90.4233 24.533C90.3237 24.603 90.3335 24.9729 90.3135 25.2129C90.3135 25.283 90.3135 25.3928 90.3135 25.4529C90.3135 25.5129 89.8135 25.823 89.4233 26.1628C89.1704 26.4316 88.8926 26.676 88.5938 26.8928C88.4746 26.9336 88.3608 26.9873 88.2534 27.053C88.0117 27.1628 87.7773 27.2898 87.5537 27.4329C87.2935 27.593 87.0137 27.7129 86.8037 27.823L86.3838 28.113C86.2837 28.2129 86.1138 28.1628 85.9536 28.113C85.6675 28.2861 85.3965 28.4836 85.1436 28.7029C84.7534 29.0129 84.3936 29.373 84.3535 29.373C83.9834 29.5229 83.7837 29.9229 83.2134 29.843C83.1255 29.8381 83.04 29.8752 82.9834 29.9429C82.4395 30.4075 81.8647 30.8352 81.2637 31.2229C80.9854 31.4612 80.731 31.7258 80.5034 32.0129C80.5034 32.063 80.3735 32.073 80.3135 32.113C80.2295 32.1418 80.1519 32.186 80.0835 32.2429C79.812 32.5979 79.5146 32.9321 79.1934 33.2429C78.895 33.5371 78.6426 33.874 78.4434 34.2429C78.2905 34.4236 78.1157 34.5847 77.9233 34.7229C77.7358 34.8733 77.5767 35.0562 77.4536 35.2629C77.3135 35.4128 76.5537 35.563 76.5938 35.7129Z" fill-rule="evenodd" fill="currentColor"/>
	<path d="M63.2437 24.053C63.354 24.363 62.854 24.3931 62.0439 24.2332C61.666 24.1348 61.3052 23.9797 60.9736 23.7729C60.8037 23.573 60.644 23.3831 60.5239 23.2131C60.4038 23.043 60.3237 21.863 60.1738 21.4231C60.0991 21.0466 60.0991 20.6594 60.1738 20.283C60.2939 19.5229 60.3438 18.7532 60.4038 17.9631C60.4214 17.7839 60.4829 17.6121 60.584 17.4631C60.9199 16.9229 61.0645 16.2854 60.9937 15.6531C60.9937 15.553 60.9937 15.4431 60.8638 15.323C60.6489 14.6294 60.6489 13.8867 60.8638 13.1931C61.2456 12.686 61.5996 12.1587 61.9238 11.613C61.9238 11.543 61.9238 11.4431 62.1338 11.4031C62.624 11.303 62.5737 11.113 62.644 10.9431C62.7368 10.6951 62.8721 10.4648 63.0439 10.2629C63.2261 10.1404 63.4297 10.0522 63.644 10.0032C63.9585 9.98608 64.2734 10.0408 64.564 10.1631C64.7539 10.313 65.084 10.283 65.3638 10.323L65.6538 10.373C66.1021 10.8809 66.4756 11.45 66.7637 12.063L66.7637 12.3931L66.834 13.103C66.834 13.6431 66.9536 14.2031 66.9736 14.323C66.9937 14.4431 66.8638 14.543 66.7837 14.6531C66.7036 14.7629 66.7837 16.343 66.7837 16.4031C66.6738 16.7332 66.7837 17.093 66.3237 17.4031C66.2339 17.4031 66.2437 17.533 66.2339 17.593C66.1494 18.1797 65.9849 18.7517 65.7437 19.293C65.6538 19.5881 65.5835 19.8887 65.5337 20.1931C65.5337 20.2432 65.4536 20.293 65.4141 20.343C65.3608 20.3955 65.3169 20.4563 65.2837 20.5229C65.144 21.2532 64.7539 21.9131 64.6738 22.6731C64.6738 22.853 63.9141 23.4932 63.8838 23.6731C63.854 23.853 63.2036 23.9431 63.2437 24.053Z" fill-rule="evenodd" fill="currentColor"/>
	<path d="M43.0938 32.1431C43.1538 32.4832 42.7837 32.6731 42.2339 32.7432C41.9824 32.7405 41.7378 32.6602 41.5337 32.5132C41.4214 32.3418 41.3179 32.165 41.2236 31.9832C41.1333 31.2998 40.9653 30.6287 40.7236 29.9832C40.5474 29.5444 40.4033 29.093 40.2939 28.6331C40.0264 27.7197 39.6919 26.8274 39.2939 25.9631C39.2363 25.7615 39.2095 25.5525 39.2139 25.343C39.23 24.6111 39.0205 23.8921 38.6138 23.2832C38.5439 23.1731 38.5137 23.053 38.3237 23.0132C37.7715 22.4338 37.334 21.7551 37.0337 21.0132C36.9438 20.3831 36.894 19.6931 36.7539 19.0132C36.7539 18.9131 36.644 18.873 36.7539 18.6931C36.9297 18.4929 36.9297 18.1934 36.7539 17.9932C36.6265 17.7397 36.5229 17.4753 36.4438 17.2031C36.4448 16.9802 36.4751 16.7583 36.5337 16.5432C36.6694 16.2766 36.8818 16.0571 37.144 15.9131C37.374 15.863 37.5039 15.573 37.6841 15.373C37.7422 15.3018 37.8057 15.2349 37.874 15.1731C38.2944 15.1853 38.7095 15.2664 39.104 15.4131C39.5371 15.5391 39.9536 15.717 40.3438 15.9431L40.6938 16.2932C40.894 16.5032 41.1841 16.7732 41.4438 17.063C41.8364 17.4985 42.1909 17.967 42.5039 18.4631C42.624 18.593 42.604 18.803 42.6138 18.9832C42.624 19.1631 42.9141 19.5332 43.2139 20.053C43.4209 20.4089 43.6079 20.7764 43.7739 21.1531C43.9937 21.5996 44.0503 22.1091 43.9341 22.593C43.8921 22.6819 43.8921 22.7844 43.9341 22.873C44.1572 23.6531 44.2617 24.4622 44.2437 25.2732C44.2437 25.6831 44.3037 26.093 44.3237 26.5032C44.313 26.5818 44.293 26.6592 44.2637 26.7332C44.25 26.8293 44.25 26.927 44.2637 27.0232C44.2637 28.0232 44.1138 28.9631 44.0938 29.9331C44.0938 30.1631 43.624 31.1931 43.584 31.4431C43.5439 31.6931 43.0737 32.0332 43.0938 32.1431Z" fill-rule="evenodd" fill="currentColor"/>
	<defs/>
</svg>
