<svg width="24" height="24" viewBox="0 0 110 110" fill="none" xmlns="http://www.w3.org/2000/svg" xmlns:xlink="http://www.w3.org/1999/xlink">
	<path d="M33.73 61.4949C34.6401 63.9348 35.5 66.4048 36.3203 68.8848C36.6104 69.7947 37.0503 70.6548 37.3203 71.5847C37.79 73.2048 38.1899 74.8547 38.5601 76.5049C38.9302 78.1548 39.1704 79.8547 39.4004 81.5049C39.6201 82.9849 39.8901 84.5049 40.1304 85.9448C40.4854 87.8484 40.4854 89.8013 40.1304 91.7048C40 92.3047 39.3003 92.2048 38.5303 91.7048C37.6431 91.1887 36.9697 90.373 36.6304 89.4048C36.4502 88.5247 36.1802 87.6548 35.9902 86.7747L35.46 84.1348C35.1104 82.3647 34.7402 80.5847 34.46 78.7549C34.022 76.521 33.3516 74.3391 32.46 72.2449C31.6304 69.8748 30.7402 67.4949 29.7803 65.1348C29.1899 63.6748 28.5903 62.2148 27.9502 60.7747C26.9502 58.5847 26.0503 56.3547 24.9502 54.1948C24.54 53.3447 24.0103 52.5547 23.5801 51.7048C23.1309 50.855 22.73 49.9802 22.3804 49.0847C22.1846 48.6619 22.0464 48.2144 21.9702 47.7549C21.9702 47.5247 21.9702 47.3147 21.9204 47.1248C21.8701 46.9348 21.9204 46.7249 21.9204 46.5547C21.9453 46.2471 22.041 45.9492 22.2002 45.6848C22.498 45.2595 22.9644 44.9829 23.48 44.9248C23.6899 44.877 23.9053 44.8567 24.1201 44.8647C24.4521 44.9465 24.7559 45.1157 25 45.3547L25.52 45.7349C25.6914 45.8625 25.8403 46.0181 25.96 46.1948C26.8101 47.1948 27.6401 48.5247 28.5703 49.8447C29.5 51.1648 30.0303 52.7649 30.7603 54.3047C31.7603 56.6147 32.7603 59.0347 33.7603 61.4448L33.73 61.4949Z" fill-rule="evenodd" fill="currentColor"/>
	<path d="M27.5698 43.9648C27.3999 44.1748 27.1401 43.8547 26.8799 43.2549C26.7842 42.9641 26.7339 42.6606 26.73 42.3547C26.7808 42.1707 26.8442 41.9902 26.9199 41.8147C26.9199 41.7549 27.77 41.0547 28.02 40.7449C28.2549 40.489 28.5322 40.2756 28.8398 40.1147C29.4302 39.7749 30 39.3748 30.5898 39.0049C30.7212 38.9199 30.874 38.8748 31.0298 38.8748C31.5688 38.8564 32.082 38.6392 32.4702 38.2649C32.54 38.2048 32.6299 38.1848 32.6401 37.9949C32.6499 37.8047 33.8501 36.8748 34.0601 36.8948C34.5898 36.9648 35.0601 36.8948 35.5801 36.8948C35.6602 36.8948 35.6899 36.8147 35.8398 36.9849C36.1899 37.4048 36.2798 37.2649 36.4199 37.2349C36.6406 37.186 36.8691 37.186 37.0898 37.2349C37.2866 37.3474 37.4653 37.489 37.6201 37.6548C37.8364 37.9595 38.002 38.2971 38.1099 38.6548C38.1924 38.958 38.3315 39.2432 38.52 39.4949L38.6699 39.7947C38.6094 40.488 38.4263 41.165 38.1299 41.7947C38.1299 41.8848 36.6099 42.7947 36.46 42.8948C36.3101 42.9949 36.23 42.8948 36.1001 42.8948C35.9702 42.8948 34.8398 43.6248 34.77 43.6147C34.4702 43.6147 34.25 43.8647 33.8198 43.6147C33.7397 43.5547 33.6899 43.6147 33.6401 43.6147C33.1431 43.76 32.6279 43.834 32.1099 43.8347C31.8569 43.8806 31.6064 43.9407 31.3599 44.0149C31.3071 44.0234 31.2529 44.0234 31.2002 44.0149C31.1299 44.0149 31.0601 44.0149 31.0098 44.0149C30.3984 44.1077 29.7939 44.2415 29.2002 44.4148C29.0601 44.4648 28.2998 44.2749 28.1401 44.3447C27.98 44.4148 27.6299 43.8748 27.5698 43.9648Z" fill-rule="evenodd" fill="currentColor"/>
	<path d="M24.46 39.6348C24.54 39.8748 24.1299 39.9248 23.46 39.8247C23.1699 39.7571 22.895 39.635 22.6499 39.4646C22.5283 39.3108 22.4146 39.1506 22.3101 38.9846C22.3101 38.9048 22.21 37.7046 22.1201 37.2646C22.0552 36.8809 22.0552 36.4885 22.1201 36.1047C22.1807 35.3477 22.2944 34.5957 22.46 33.8547C22.499 33.687 22.5859 33.5342 22.71 33.4148C23.0981 32.9741 23.333 32.4199 23.3799 31.8347C23.4224 31.7236 23.3945 31.5981 23.3101 31.5146C23.2266 30.8723 23.3418 30.2197 23.6401 29.6448C24.085 29.2966 24.5059 28.9192 24.8999 28.5146C24.96 28.4646 24.8999 28.3748 25.1299 28.3748C25.6001 28.3748 25.5703 28.2046 25.6602 28.0747C25.8125 27.8811 26.0029 27.7212 26.2202 27.6047C26.4062 27.5466 26.5972 27.5032 26.79 27.4746C27.0464 27.4666 27.3003 27.5215 27.5303 27.6348C27.6699 27.7747 27.9399 27.7546 28.1602 27.7947L28.3999 27.8547C28.6157 28.1384 28.8125 28.4358 28.9902 28.7446C29.124 28.9363 29.2314 29.1448 29.3101 29.3647C29.3633 29.4641 29.397 29.5728 29.4102 29.6846C29.4102 29.6846 29.29 31.5747 29.27 31.8347C29.25 32.0947 29.1299 32.0146 29.0303 32.0947C28.9302 32.1748 28.77 33.5947 28.73 33.6448C28.5703 33.9048 28.6001 34.2346 28.1299 34.3848C28.063 34.4031 28.0176 34.4653 28.02 34.5347C27.8311 35.0261 27.5713 35.4875 27.25 35.9048C27.1099 36.1348 27.0503 36.3948 26.9102 36.6248C26.9102 36.6248 26.8101 36.6846 26.77 36.7246C26.709 36.7571 26.6543 36.8013 26.6099 36.8547C26.2729 37.3906 25.9727 37.9485 25.71 38.5247C25.6602 38.6548 25.02 39.1548 24.9902 39.3247C24.96 39.4946 24.4302 39.5247 24.46 39.6348Z" fill-rule="evenodd" fill="currentColor"/>
	<path d="M18.6201 38.3848C18.8599 38.3848 18.6201 38.7849 18.1499 39.3049C17.9233 39.5393 17.6597 39.7354 17.3701 39.8848C17.1538 39.9036 16.936 39.9036 16.7202 39.8848C16.6001 39.8848 15.5 39.2749 15.0601 39.105C14.6938 38.9722 14.3789 38.7271 14.1602 38.4048L12.7798 36.8049C12.6802 36.6741 12.6177 36.5186 12.6001 36.355C12.541 35.8086 12.272 35.3066 11.8501 34.9548C11.7798 34.8948 11.75 34.8049 11.5601 34.825C11.3701 34.845 10.5 33.6648 10.5601 33.4548C10.6201 33.2449 10.5601 32.9348 10.5601 32.6548L10.5601 31.845C10.5601 31.7749 10.48 31.7449 10.6099 31.585C10.9102 31.2148 10.77 31.1448 10.7598 30.9949C10.6943 30.7729 10.6943 30.5369 10.7598 30.3149C10.8276 30.123 10.9077 29.936 11 29.7549C11.1162 29.5718 11.2832 29.4258 11.48 29.335C11.6499 29.335 11.77 29.105 11.8999 28.9749L12.0498 28.845C12.1694 28.8289 12.2905 28.8289 12.4102 28.845C12.6528 28.8198 12.8975 28.8198 13.1401 28.845C13.4805 28.8611 13.8174 28.925 14.1401 29.0349L14.98 29.625C15.4102 29.9148 15.71 30.2949 15.8198 30.345C15.9302 30.3948 15.8799 30.5649 15.8799 30.6848C15.8799 30.8049 16.9702 31.6848 16.9502 31.7649C17.04 32.0549 17.2998 32.2148 17.0898 32.6748C17.0464 32.7271 17.0464 32.8027 17.0898 32.855C17.3223 33.29 17.4844 33.759 17.5698 34.2449C17.6577 34.4753 17.7681 34.6965 17.8999 34.9048C17.8999 34.9048 17.8999 35.0149 17.8999 35.0649C17.8853 35.1274 17.8853 35.1924 17.8999 35.2549C18.042 35.5042 18.1626 35.7651 18.2598 36.0349C18.3667 36.2979 18.4937 36.552 18.6401 36.7949C18.7002 36.8948 18.6401 37.6948 18.71 37.7949C18.7798 37.8948 18.5098 38.375 18.6201 38.3848Z" fill-rule="evenodd" fill="currentColor"/>
	<path d="M17.3799 43.4946C17.5898 43.3047 17.8101 43.7146 17.9102 44.4348C17.9307 44.7698 17.9072 45.106 17.8398 45.4348L17.5801 45.9846C17.5801 46.0447 16.6499 46.6248 16.3501 46.9048C16.083 47.1328 15.7739 47.3062 15.4399 47.4148C14.79 47.5447 14.1401 47.7246 13.4399 47.8748C13.29 47.9192 13.1299 47.9192 12.98 47.8748C12.4648 47.7205 11.9111 47.7561 11.4199 47.9746C11.3301 47.9746 11.2402 47.9746 11.1899 48.1648C11.1401 48.3547 9.72021 48.7546 9.50977 48.6848C9.00977 48.4846 8.50977 48.4348 8.04004 48.2646C7.97021 48.2646 7.91016 48.2646 7.81982 48.1348C7.6001 47.7446 7.47021 47.8347 7.33008 47.8247C7.10938 47.8206 6.89209 47.7729 6.68994 47.6848C6.58008 47.6348 6.43994 47.4148 6.31006 47.2446C6.19482 46.9729 6.13672 46.6799 6.14014 46.3848C6.14355 46.1279 6.0957 45.873 6 45.6348C6 45.5447 6 45.4348 6 45.3647C6.24951 44.8137 6.5874 44.3071 7 43.8647C7 43.8647 8.60986 43.2246 8.77979 43.1248C8.9502 43.0247 8.99023 43.1248 9.1001 43.1948C9.20996 43.2646 10.4199 42.6748 10.48 42.6748C10.7598 42.6748 11.02 42.4946 11.3501 42.8147C11.4199 42.8748 11.4702 42.8147 11.5298 42.8147C12.0132 42.7346 12.5068 42.7346 12.9902 42.8147C13.2383 42.7996 13.4854 42.7695 13.73 42.7246C13.73 42.7246 13.8301 42.7246 13.8799 42.7847C13.9302 42.8447 14 42.8447 14.0498 42.8347C14.6299 42.6948 15.2598 42.8347 15.8501 42.7646C15.9902 42.7646 16.71 43.1448 16.8501 43.0947C16.9902 43.0447 17.3101 43.5847 17.3799 43.4946Z" fill-rule="evenodd" fill="currentColor"/>
	<path d="M18.5898 48.9546C18.48 48.6946 18.9199 48.7847 19.6802 49.0647C20.0356 49.2122 20.3716 49.4038 20.6802 49.6345C20.8135 49.8076 20.937 49.9878 21.0498 50.1746C21.1001 50.2747 21.0498 51.3347 21.0498 51.7146C21.064 52.0591 20.9956 52.4021 20.8501 52.7146C20.6099 53.3147 20.4102 53.9346 20.1802 54.5347C20.1201 54.6697 20.0186 54.7817 19.8901 54.8547C19.4736 55.1401 19.1807 55.5723 19.0698 56.0647C19.0112 56.1523 19.0112 56.2668 19.0698 56.3547C19.23 56.5947 18.6899 57.7947 18.5098 57.8945C18.0801 58.1345 17.6899 58.4045 17.2798 58.6545C17.2197 58.6545 17.2798 58.7747 17.0498 58.7346C16.6099 58.6345 16.6099 58.7346 16.52 58.8845C16.3813 59.0325 16.2148 59.1514 16.0298 59.2346C15.8408 59.2632 15.6489 59.2632 15.46 59.2346C15.1797 59.1379 14.9194 58.9922 14.6899 58.8047C14.4917 58.6409 14.269 58.5093 14.0298 58.4146L13.7798 58.2747C13.5073 57.7532 13.3154 57.1936 13.21 56.6145C13.21 56.6145 13.3101 56.2146 13.4102 55.7947C13.5098 55.3745 13.6499 54.9746 13.6499 54.8845C13.6499 54.7947 13.79 54.7546 13.8901 54.7046C13.9897 54.6545 14.25 53.4646 14.2798 53.4246C14.3101 53.3845 14.4399 52.9346 14.8901 52.9045C14.98 52.9045 14.9897 52.8447 15.0098 52.7947C15.2183 52.4155 15.4922 52.0769 15.8198 51.7947C15.9551 51.6167 16.0728 51.4258 16.1699 51.2246C16.2104 51.1987 16.2539 51.1785 16.2998 51.1646C16.3599 51.1646 16.4302 51.1646 16.4502 51.0747C16.772 50.6577 17.0498 50.2085 17.2798 49.7346C17.2798 49.6145 17.9502 49.3147 17.98 49.1746C18.0098 49.0347 18.6299 49.0647 18.5898 48.9546Z" fill-rule="evenodd" fill="currentColor"/>
	<path d="M52.8599 48.4348C52.1797 51.4949 51.6997 54.6147 51.1899 57.7449C51.0098 58.8848 50.9897 60.0449 50.8198 61.1948C50.54 63.1948 50.2832 65.228 50.0498 67.2949L49.46 73.4448C49.2998 75.2749 49.27 77.1047 49.2598 78.9248C49.2598 80.0947 49.3301 81.2549 49.2598 82.4348C49.1899 83.6147 48.9497 84.7849 48.71 85.9648C48.54 86.6948 48.2197 86.5847 47.71 85.9648C47.0024 85.04 46.4639 83.9973 46.1201 82.8848C46.0498 82.5947 45.96 82.2949 45.9097 81.9949L45.8398 81.0947L45.6997 79.3049C45.6201 78.1047 45.5601 76.8948 45.5298 75.6948C45.4287 73.2695 45.5425 70.8401 45.8701 68.4348C46.2598 65.5449 46.1699 62.5049 46.4399 59.5349C46.5801 57.9048 46.77 56.2649 46.9897 54.6448C47.21 53.0249 47.5 51.3948 47.7998 49.7749C48.1597 47.7749 48.6001 45.7749 49.0498 43.7749C49.75 40.7749 50.6499 37.7749 51.5801 34.8848C52.2261 32.5693 52.9941 30.2896 53.8799 28.0549C54.0615 27.5469 54.2788 27.0522 54.5298 26.5747C54.7314 26.1943 54.9624 25.8298 55.2197 25.4849C55.4272 25.2554 55.6748 25.0657 55.9497 24.9248C56.4453 24.7166 57.0044 24.7166 57.5 24.9248C57.7656 24.9934 58.0264 25.0803 58.2798 25.1848C59.0801 25.5747 59.2798 26.6648 58.8896 27.9248C57.5601 31.5549 56.2197 35.3049 55.0898 39.3147C54.27 42.3147 53.5098 45.3147 52.9497 48.4348L52.8599 48.4348Z" fill-rule="evenodd" fill="currentColor"/>
	<path d="M60.8301 28.5149C60.6001 28.4448 60.7402 28.125 61.1001 27.6948C61.2837 27.5134 61.4966 27.3647 61.73 27.2549L62.23 27.2549C62.2998 27.2549 63.23 27.7148 63.5298 27.8149C63.8345 27.9258 64.1206 28.0806 64.3799 28.2749C64.8901 28.6448 65.4502 28.9849 66 29.335C66.1211 29.4165 66.2207 29.5264 66.29 29.6548C66.5342 30.1023 66.9214 30.4543 67.3901 30.6548C67.4766 30.7048 67.5835 30.7048 67.6699 30.6548C67.9302 30.5549 69.0801 31.2549 69.1499 31.4348C69.3301 31.8848 69.5898 32.2549 69.7798 32.6948C69.7798 32.7549 69.8999 32.7549 69.7798 32.9348C69.6099 33.355 69.7798 33.3848 69.8398 33.4949C69.9653 33.6587 70.0571 33.8457 70.1099 34.0449C70.0986 34.2422 70.0615 34.437 70 34.625C69.8643 34.8977 69.6777 35.1421 69.4502 35.345C69.2598 35.4548 69.1201 35.7449 68.96 35.9648C68.9082 36.042 68.8516 36.1155 68.79 36.1848C68.2129 36.3748 67.6069 36.4595 67 36.4348C66.9399 36.4348 65.5898 35.5349 65.4199 35.4348C65.25 35.335 65.3198 35.2449 65.29 35.1348C65.2598 35.0249 64.1802 34.355 64.1602 34.3049C64 34.0649 63.73 33.9548 63.77 33.5149C63.77 33.4521 63.7354 33.3945 63.6802 33.365C63.354 33.0107 63.0781 32.6138 62.8599 32.1848C62.7144 31.9922 62.5576 31.8086 62.3901 31.6348C62.3901 31.6348 62.3901 31.5349 62.3901 31.4949C62.3901 31.4548 62.3901 31.365 62.3301 31.325C61.9951 30.8552 61.6348 30.4045 61.25 29.9749C61.1602 29.875 60.98 29.1848 60.8599 29.075C60.7402 28.9648 60.9199 28.5349 60.8301 28.5149Z" fill-rule="evenodd" fill="currentColor"/>
	<path d="M63.75 24.5549C63.5498 24.6848 63.3599 24.4148 63.2202 23.9248C63.1733 23.6938 63.1733 23.4558 63.2202 23.2249C63.3198 23.075 63.4102 22.9448 63.5 22.835C63.5898 22.7249 64.5 22.355 64.8198 22.1548C65.1123 21.9763 65.4287 21.8416 65.7598 21.7549C66.4102 21.5549 67.0601 21.3049 67.71 21.075C67.8535 21.0208 68.0073 21 68.1602 21.0149C68.6919 21.0483 69.2222 20.9304 69.6899 20.6748C69.77 20.6748 69.8599 20.625 69.9199 20.4749C70.395 20.0967 70.96 19.8486 71.5601 19.7549C72.0498 19.855 72.5601 19.845 73.0098 19.9248C73.0801 19.9248 73.1299 19.865 73.2402 20.0149C73.4702 20.365 73.5898 20.2649 73.7402 20.2549C73.9531 20.2385 74.1675 20.2659 74.3701 20.335C74.5229 20.439 74.6582 20.5674 74.77 20.7148C74.9067 20.9575 74.9888 21.2273 75.0098 21.5049C75.0312 21.7444 75.0957 21.9783 75.2002 22.1948C75.2002 22.2649 75.2598 22.375 75.2798 22.4348C75.0342 22.988 74.6958 23.4951 74.2798 23.9348C74.2798 24.0049 72.6201 24.5449 72.4399 24.6348C72.2598 24.7249 72.2202 24.6348 72.1099 24.575C72 24.5149 70.75 25.0149 70.6899 25.0049C70.3901 25.0049 70.1299 25.1448 69.7798 24.8948C69.729 24.8596 69.6611 24.8596 69.6099 24.8948C69.1113 24.95 68.6084 24.95 68.1099 24.8948C67.8501 24.8948 67.6001 24.9448 67.3501 24.9648C67.3003 24.9695 67.25 24.9695 67.2002 24.9648C67.1406 24.9509 67.0791 24.9509 67.02 24.9648C66.4302 25.0349 65.7998 24.9648 65.21 25.075C65.0698 25.075 64.3701 24.875 64.21 24.9048C64.0498 24.9348 63.8301 24.4949 63.75 24.5549Z" fill-rule="evenodd" fill="currentColor"/>
	<path d="M56.4497 19.6248C56.7197 19.7349 56.4497 20.1047 55.8398 20.5049C55.5269 20.6794 55.1899 20.8076 54.8398 20.8848L54.2397 20.8848C54.1699 20.8848 53.2397 20.325 52.8696 20.1748C52.5522 20.0283 52.2642 19.825 52.02 19.575C51.6196 19.0449 51.1797 18.575 50.75 18.0049C50.6553 17.8794 50.5967 17.731 50.5796 17.575C50.4897 17.0427 50.2173 16.5586 49.8096 16.2048C49.7397 16.1448 49.71 16.0649 49.54 16.085C49.3696 16.1047 48.3799 15.0149 48.3799 14.7549C48.3799 14.2148 48.1899 13.7549 48.1299 13.2349C48.1299 13.1648 48.0298 13.1448 48.1299 12.9849C48.3896 12.6147 48.25 12.5449 48.1997 12.4048C48.1094 12.2065 48.0581 11.9927 48.0498 11.7749C48.1025 11.584 48.1836 11.4019 48.29 11.2349C48.4839 11.0139 48.7222 10.8367 48.9897 10.7148C49.2217 10.6079 49.4292 10.4546 49.5996 10.2649L49.8296 10.1047C50.4331 10.0942 51.0347 10.1821 51.6099 10.3647C51.6099 10.3647 52.8896 11.5449 53.0498 11.6548C53.21 11.7649 53.1196 11.8547 53.1299 11.9749C53.1396 12.095 54.1299 12.9749 54.1899 12.9749C54.3096 13.2349 54.5898 13.3848 54.4497 13.825C54.4497 13.9148 54.4497 13.9448 54.5098 13.9849C54.7886 14.3892 55.0107 14.8301 55.1699 15.2949C55.2817 15.5176 55.4155 15.7288 55.5698 15.9248C55.5698 15.9248 55.5698 16.0349 55.5698 16.085C55.5698 16.1348 55.5698 16.2249 55.5698 16.2649C55.9399 16.7249 56.04 17.3748 56.3999 17.8647C56.4897 17.9749 56.3999 18.7949 56.5498 18.9248C56.6997 19.0549 56.3799 19.595 56.4497 19.6248Z" fill-rule="evenodd" fill="currentColor"/>
	<path d="M60.96 19.5447C60.96 19.8147 60.54 19.7346 59.96 19.4048C59.7354 19.2183 59.5396 18.999 59.3799 18.7546C59.3101 18.5647 59.2397 18.3848 59.1997 18.2446C59.1597 18.1047 59.3701 17.1648 59.3701 16.7747C59.394 16.4304 59.4751 16.0925 59.6099 15.7747C59.9399 15.2146 60.23 14.6047 60.54 14.0146C60.6133 13.8799 60.7197 13.7661 60.8501 13.6848C61.2749 13.374 61.5903 12.9363 61.75 12.4348C61.75 12.3547 61.8501 12.2847 61.75 12.1548C61.6499 12.0247 62.2798 10.6848 62.4497 10.5747C62.8999 10.3147 63.23 9.98462 63.6499 9.70483C63.71 9.70483 63.6499 9.57471 63.8701 9.60474C64.2598 9.6748 64.2798 9.52466 64.3799 9.41479C64.5137 9.25122 64.6807 9.11816 64.8701 9.02466C65.0415 8.9917 65.2183 8.9917 65.3896 9.02466C65.6396 9.09302 65.8691 9.21997 66.0601 9.39478C66.1699 9.55469 66.4297 9.62476 66.6299 9.73462L66.8501 9.85474C67.0513 10.3799 67.1694 10.9331 67.1997 11.4946C67.1997 11.4946 66.6201 13.0847 66.5801 13.2747C66.54 13.4646 66.4297 13.4248 66.3301 13.4746C66.23 13.5247 65.8501 14.7847 65.8198 14.8247C65.6299 15.0347 65.6001 15.3347 65.1797 15.4048C65.1001 15.4048 65.0898 15.4746 65.0601 15.5247C64.8184 15.9387 64.5186 16.3159 64.1699 16.6448C64.0215 16.8413 63.8877 17.0486 63.77 17.2646C63.77 17.2646 63.6797 17.2646 63.6396 17.3347C63.585 17.3596 63.5342 17.3936 63.4897 17.4348C63.2197 17.9548 62.6997 18.3147 62.4097 18.8247C62.3398 18.9448 61.6299 19.2546 61.5498 19.4048C61.4697 19.5547 60.9497 19.4448 60.96 19.5447Z" fill-rule="evenodd" fill="currentColor"/>
	<path d="M53.25 23.2048C53.4502 23.0149 53.6001 23.4048 53.6802 24.125C53.7026 24.4604 53.6758 24.7974 53.6001 25.125C53.5137 25.2993 53.4131 25.4666 53.2998 25.625C53.25 25.7048 52.2998 26.085 51.98 26.2649C51.6885 26.417 51.3682 26.5056 51.04 26.5249C50.3901 26.585 49.75 26.7048 49.1001 26.7749C48.9487 26.7922 48.7954 26.7644 48.6602 26.6948C48.1855 26.4949 47.6587 26.4563 47.1602 26.585C47.0801 26.585 46.9897 26.585 46.9102 26.7249C46.8301 26.865 45.4199 27.0449 45.2397 26.9448C44.7998 26.7148 44.3501 26.5249 43.8999 26.2949C43.8398 26.2949 43.77 26.2949 43.71 26.1548C43.5801 25.7649 43.4399 25.825 43.2998 25.7949C43.0894 25.7449 42.8892 25.6567 42.71 25.5349C42.5967 25.3948 42.5083 25.2356 42.4502 25.0649C42.3921 24.8081 42.3921 24.5417 42.4502 24.2849C42.5166 24.0647 42.5371 23.8333 42.5098 23.605L42.5098 23.355C42.8379 22.928 43.229 22.5537 43.6699 22.2449L45.3901 21.865C45.48 21.865 45.5801 21.9148 45.6699 21.9749C45.7598 22.0349 47 21.7549 47.0498 21.7549C47.3101 21.8049 47.5698 21.6748 47.8301 22.0049C47.8301 22.0649 47.9302 22.0549 47.9897 22.0049C48.4438 21.9951 48.8965 22.0591 49.3301 22.1948C49.5596 22.2148 49.7905 22.2148 50.02 22.1948C50.02 22.1948 50.1001 22.2449 50.1401 22.2649C50.1802 22.2849 50.25 22.345 50.2998 22.345C50.8438 22.4165 51.3921 22.4431 51.9399 22.4248C52.0698 22.4248 52.6802 22.7849 52.8301 22.7449C52.98 22.7048 53.1699 23.2749 53.25 23.2048Z" fill-rule="evenodd" fill="currentColor"/>
	<path d="M74.5796 57.9946C73.4199 59.9048 72.3096 61.8748 71.2798 63.8848C70.8999 64.6147 70.6597 65.4048 70.2798 66.1448L69.2798 68.1448L68.2798 70.0747C67.5898 71.3748 66.9297 72.6846 66.2798 74.0747C65.7397 75.2546 65.3599 76.5046 64.9297 77.7146C64.3799 79.1646 63.8599 80.7546 63.1997 82.2246C62.9897 82.6946 62.6299 82.5947 62.2598 82.0747C61.7539 81.3359 61.4849 80.4602 61.4897 79.5647C61.6509 76.0498 62.5791 72.6125 64.21 69.4946C64.6528 68.5366 65.0435 67.5552 65.3799 66.5547C65.77 65.5547 66.1396 64.5547 66.5796 63.5547C67.5796 61.4246 68.6299 59.3347 69.7397 57.2646C70.4097 55.9946 71.1499 54.7346 71.8496 53.4846C72.9399 51.5747 74.1499 49.7246 75.3696 47.8948C76.2236 46.3865 77.186 44.9429 78.25 43.5747C78.5059 43.2686 78.7832 42.9812 79.0796 42.7146C80.23 41.7146 81 41.8447 81.6699 42.3547C81.8311 42.4641 81.9849 42.5845 82.1299 42.7146C82.5298 43.1746 82.3896 43.9048 82.04 44.7947C80.9399 47.2947 79.46 49.6448 78.04 52.2747C76.9097 54.1448 75.71 56.0347 74.6299 58.0146L74.5796 57.9946Z" fill-rule="evenodd" fill="currentColor"/>
	<path d="M84.2002 48.1648C84.0303 48.0847 84.2002 47.8447 84.5303 47.5449C84.7017 47.4202 84.895 47.3286 85.1001 47.2749C85.2368 47.2632 85.3735 47.2632 85.5103 47.2749C85.5703 47.2749 86.2202 47.8049 86.5103 47.9348C86.7373 48.0618 86.9404 48.2275 87.1104 48.4248C87.48 48.7849 87.8701 49.1348 88.27 49.4749C88.3501 49.5596 88.4141 49.6577 88.46 49.7649C88.5962 50.1494 88.8657 50.4724 89.2202 50.6748C89.2803 50.6748 89.3203 50.7749 89.4502 50.7449C89.5801 50.7148 90.52 51.3948 90.5601 51.5449C90.6504 51.9348 90.8203 52.2649 90.9302 52.6448C90.9302 52.7048 91.02 52.7048 90.9302 52.8447C90.7402 53.1748 90.8604 53.2148 90.9302 53.3147C91.022 53.4595 91.0767 53.6243 91.0903 53.7949C91.0684 53.9558 91.0176 54.1118 90.9404 54.2549C90.7925 54.4553 90.6133 54.6309 90.4102 54.7749C90.23 54.8347 90.0903 55.0549 89.9302 55.2048C89.8784 55.2634 89.8218 55.3169 89.7603 55.3647C89.2773 55.45 88.7832 55.45 88.3003 55.3647C88.2402 55.3647 87.3003 54.4749 87.1201 54.3647C86.9404 54.2549 87.0601 54.2048 87.0503 54.1047C87.04 54.0049 86.23 53.3347 86.21 53.2849C86.1104 53.0747 85.9102 52.9548 85.98 52.5947C85.98 52.5249 85.98 52.4949 85.98 52.4648C85.7388 52.1545 85.5371 51.8152 85.3804 51.4548C85.3003 51.2749 85.1704 51.1147 85.0703 50.9348C84.9702 50.7549 85.0703 50.8547 85.0703 50.8147C85.0864 50.7695 85.0864 50.7202 85.0703 50.6748C84.8623 50.24 84.6318 49.8159 84.3804 49.4048C84.3101 49.3147 84.27 48.7249 84.1904 48.6248C84.1104 48.5249 84.27 48.1948 84.2002 48.1648Z" fill-rule="evenodd" fill="currentColor"/>
	<path d="M86.8398 43.875C86.6602 43.9749 86.5498 43.7048 86.5 43.2449C86.4951 43.033 86.5327 42.8223 86.6099 42.625C86.7051 42.52 86.8052 42.4199 86.9102 42.325C86.9697 42.325 87.8198 42.0649 88.1001 41.9248C88.3613 41.8142 88.6377 41.7434 88.9199 41.7148C89.48 41.6348 90.04 41.5149 90.6001 41.3948C90.7246 41.3652 90.855 41.3652 90.98 41.3948C91.4087 41.5007 91.8599 41.4692 92.27 41.3049C92.3623 41.2976 92.4434 41.24 92.48 41.1548C92.9053 40.897 93.3926 40.7588 93.8901 40.7549C94.29 40.9048 94.6797 40.9548 95.0898 41.095C95.1401 41.095 95.1997 41.095 95.2598 41.2048C95.4199 41.5549 95.5298 41.4749 95.6602 41.4949C95.8428 41.5039 96.0205 41.5552 96.1797 41.6448C96.2969 41.7583 96.395 41.8901 96.4697 42.0349C96.5547 42.272 96.5923 42.5234 96.5801 42.7749C96.5562 42.9907 96.5801 43.2092 96.6499 43.4148L96.6499 43.6448C96.3857 44.0947 96.0479 44.4971 95.6499 44.835C95.6499 44.8948 94.21 45.1548 94.0498 45.2148C93.8901 45.2749 93.8701 45.1648 93.7798 45.115C93.6899 45.0649 92.5801 45.335 92.5298 45.3149C92.29 45.3149 92.0498 45.3149 91.79 45.095C91.79 45.0349 91.6899 45.095 91.6401 45.095C91.2134 45.0813 90.79 45.0142 90.3799 44.8948C90.1602 44.8948 89.9497 44.8948 89.73 44.845C89.73 44.845 89.6602 44.845 89.6201 44.7849C89.5737 44.7563 89.5229 44.7361 89.4697 44.7249C88.96 44.7249 88.4697 44.5349 87.9399 44.5449C87.8198 44.5449 87.27 44.2349 87.1401 44.2349C87.0098 44.2349 86.9102 43.845 86.8398 43.875Z" fill-rule="evenodd" fill="currentColor"/>
	<path d="M80.0898 37.8845C80.2998 38.0247 80 38.2947 79.4297 38.5645C79.1523 38.6758 78.8584 38.74 78.5601 38.7546C78.3804 38.7229 78.2036 38.6797 78.0298 38.6245C77.96 38.6245 77.25 37.8745 76.9399 37.6245C76.6846 37.4185 76.4653 37.1719 76.29 36.8945C76.0298 36.3345 75.7197 35.7947 75.4399 35.2346C75.3691 35.1101 75.3379 34.9673 75.3501 34.8245C75.3564 34.3315 75.186 33.8525 74.8696 33.4746C74.8696 33.4045 74.8101 33.3245 74.6499 33.3145C74.4897 33.3047 73.77 32.2046 73.7798 32.0247C73.7798 31.5447 73.7197 31.1345 73.71 30.6946C73.71 30.6245 73.6299 30.6045 73.71 30.4746C73.9697 30.1746 73.8501 30.1045 73.8101 29.9946C73.7534 29.8235 73.7227 29.6448 73.7197 29.4646C73.7734 29.3044 73.8442 29.1501 73.9297 29.0046C74.0894 28.802 74.2861 28.6323 74.5098 28.5046C74.6997 28.5046 74.8599 28.2446 75.0298 28.0945L75.2197 27.9346C75.813 27.9785 76.3911 28.1418 76.9199 28.4146L77.1196 28.6345C77.2686 28.7805 77.4053 28.9375 77.5298 29.1045C77.8198 29.4646 78.1099 29.8345 78.1797 29.9045C78.25 29.9746 78.1797 30.1045 78.1797 30.2246C78.1797 30.3445 79.02 31.3245 79.0298 31.3745C79.1001 31.6445 79.3301 31.8345 79.1499 32.2146C79.1499 32.2947 79.1499 32.3345 79.1499 32.3845C79.3501 32.8083 79.4854 33.2603 79.5498 33.7246C79.6216 33.9468 79.7085 34.1641 79.8101 34.3745C79.8101 34.3745 79.8101 34.4746 79.8101 34.5247C79.79 34.5796 79.79 34.6396 79.8101 34.6946C80.0601 35.1946 80.04 35.8047 80.2798 36.3245C80.3398 36.4446 80.1597 37.1646 80.2798 37.3245C80.3999 37.4846 80 37.8345 80.0898 37.8845Z" fill-rule="evenodd" fill="currentColor"/>
	<path d="M84.8599 38.3547C84.8599 38.6248 84.3999 38.4849 83.8599 38.085C83.644 37.8801 83.4648 37.6399 83.3301 37.3748C83.3301 37.1748 83.2598 36.9849 83.2397 36.825C83.2197 36.6648 83.6299 35.7449 83.71 35.335C83.7979 34.9802 83.9429 34.6426 84.1401 34.335C84.5801 33.7849 84.9897 33.2048 85.4199 32.6348C85.5171 32.5066 85.644 32.4036 85.79 32.335C86.2837 32.0681 86.6875 31.6609 86.9502 31.1648C86.9502 31.085 87.0698 31.0249 87.02 30.8748C86.9697 30.7249 87.8301 29.4348 88.02 29.3447C88.52 29.1248 88.9102 28.825 89.3901 28.5947C89.46 28.5947 89.4697 28.4749 89.6299 28.5249C90.02 28.6448 90.0601 28.5249 90.1802 28.3948C90.3481 28.2485 90.5415 28.1335 90.75 28.0549C90.9253 28.0227 91.105 28.0227 91.2798 28.0549C91.5186 28.1599 91.7275 28.321 91.8901 28.5249C91.96 28.7048 92.2197 28.8149 92.3999 28.9448L92.5898 29.0947C92.6851 29.6709 92.6851 30.2588 92.5898 30.835C92.5898 30.835 91.71 32.4048 91.5898 32.5947C91.4697 32.7849 91.4199 32.7249 91.3101 32.7749C91.2002 32.825 90.5801 34.0549 90.5298 34.085C90.3101 34.2849 90.2197 34.585 89.7798 34.6047C89.7002 34.6047 89.6699 34.6648 89.6401 34.7148C89.314 35.0977 88.937 35.4341 88.52 35.7148C88.3364 35.8987 88.1626 36.0923 88 36.2949C88 36.2949 87.9102 36.2949 87.8599 36.3547C87.8101 36.4148 87.73 36.3547 87.6899 36.4448C87.3198 36.9348 86.6899 37.2349 86.3398 37.7249C86.2397 37.835 85.46 38.0649 85.3398 38.2048C85.2197 38.3447 84.8701 38.2449 84.8599 38.3547Z" fill-rule="evenodd" fill="currentColor"/>
	<path d="M76.46 40.9749C76.6602 40.8247 76.7002 41.2148 76.6504 41.9749C76.6143 42.3162 76.5366 42.6519 76.4204 42.9749C76.3086 43.1343 76.1851 43.2847 76.0503 43.4248C75.98 43.4946 75.0503 43.7148 74.7402 43.8347C74.4604 43.9294 74.1626 43.9568 73.8701 43.9148L72.1504 43.7546C72.02 43.738 71.8979 43.6821 71.8003 43.5947C71.4531 43.3086 71.0083 43.1687 70.5601 43.2048C70.4692 43.1833 70.3745 43.2188 70.3203 43.2947C70.1602 43.4946 68.9902 43.2947 68.8701 43.2048C68.5503 42.9048 68.2202 42.6448 67.8701 42.3547C67.8701 42.3547 67.75 42.3547 67.7402 42.1848C67.7402 41.7847 67.5903 41.8247 67.48 41.7646C67.3188 41.6895 67.1758 41.5803 67.0601 41.4448C66.9951 41.2881 66.9512 41.1233 66.9302 40.9548C66.9399 40.6899 66.9976 40.4292 67.1001 40.1848C67.1895 39.9751 67.2437 39.7522 67.2603 39.5247L67.2603 39.2747C67.6387 38.9092 68.0703 38.6023 68.54 38.3647L69.2803 38.3647C69.6602 38.3647 70.04 38.3647 70.1201 38.3647C70.2002 38.3647 70.27 38.4548 70.3301 38.5247C70.3901 38.5947 71.48 38.5247 71.52 38.5247C71.73 38.6147 71.98 38.5247 72.1201 38.9048C72.1201 38.9849 72.2002 38.9749 72.2402 38.9749C72.6255 39.054 72.9946 39.1995 73.3301 39.4048C73.5127 39.4824 73.7041 39.5361 73.9004 39.5647C73.9004 39.5647 73.96 39.6348 73.9902 39.6648C74.02 39.6948 74.0601 39.7546 74.1001 39.7646C74.5356 39.9336 74.9883 40.0542 75.4502 40.1248C75.5601 40.1248 75.98 40.5947 76.1104 40.5847C76.2402 40.5747 76.3804 41.0447 76.46 40.9749Z" fill-rule="evenodd" fill="currentColor"/>
	<defs/>
</svg>
