<svg width="24" height="24" viewBox="0 0 110 110" fill="none" xmlns="http://www.w3.org/2000/svg" xmlns:xlink="http://www.w3.org/1999/xlink">
	<path d="M36.9092 54.76C36.5811 53.8357 36.3628 52.8755 36.2593 51.8999C36.1318 50.9553 36.1079 49.9998 36.1895 49.05C36.3286 47.146 36.8486 45.2891 37.7192 43.5901C38.0796 43 38.3892 42.3799 38.7695 41.8201C39.1489 41.2615 39.563 40.7271 40.0093 40.22C41.5864 38.5227 43.4019 37.064 45.3994 35.8899C46.3994 35.3101 47.3394 34.72 48.3994 34.24L49.8892 33.47L51.4194 32.79C52.3296 32.3899 53.2295 31.98 54.1392 31.6201C55.0493 31.26 55.9492 30.8401 56.8594 30.49C58.0293 30.05 59.1992 29.5801 60.3794 29.1599C61.5737 28.7529 62.8125 28.4912 64.0693 28.3799C64.8496 28.25 64.7896 28.4299 64.2593 28.9199C63.9893 29.1599 63.6294 29.53 63.1792 29.97C62.9438 30.1814 62.6934 30.3752 62.4292 30.55L61.9995 30.8401C61.8394 30.8999 61.6895 30.98 61.5195 31.04C56.8687 32.8728 52.3218 34.9592 47.8994 37.29C45.2915 38.7131 43.0098 40.6646 41.1992 43.02C40.2285 44.2444 39.5083 45.6477 39.0796 47.1499L38.8496 48.29L38.7295 49.47L38.7295 50.6699L38.8594 51.8401C39.1445 53.7744 39.9854 55.5842 41.2793 57.05C43.4375 59.3057 45.9468 61.1968 48.7095 62.6499C50.8496 63.8799 53.0693 64.9299 55.1895 66.3799C55.6494 66.71 56.1191 67.01 56.5693 67.3799C58.0996 68.8999 58.3296 69.6799 58.0493 70.3799C58.0112 70.5325 57.9644 70.6829 57.9092 70.8301C57.7495 71.1599 56.7495 70.8899 55.7192 70.0601C52.4893 67.6399 48.3892 65.77 44.3794 63.0601C42.8281 62.0959 41.3862 60.9658 40.0796 59.6899C38.6899 58.2898 37.5981 56.623 36.8691 54.79L36.9092 54.76Z" fill-rule="evenodd" fill="currentColor"/>
	<path d="M43.0796 40.8C41.1221 42.3291 39.6436 44.387 38.8193 46.73C38.7095 47.3301 38.5093 47.9099 38.4292 48.53L38.3394 49.47L38.2896 49.9399L38.2896 50.3899C38.2764 50.9775 38.3301 51.5647 38.4492 52.1399C38.5195 52.4299 38.5596 52.72 38.6294 53.01L38.9395 53.8301C39.7134 55.4954 40.8311 56.978 42.2192 58.1799C44.9966 60.6492 48.0908 62.7375 51.4194 64.3899L56.6992 67.1399L59.2896 68.55L61.9492 69.95C65.2661 71.604 68.3193 73.7405 71.0093 76.29C72.6816 77.99 74.1455 79.8833 75.3696 81.9299C75.9639 82.9534 76.4497 84.0359 76.8193 85.1599C76.9995 85.72 77.1895 86.27 77.3594 86.8301L77.7495 88.54C78.0493 89.96 77.5996 89.8701 76.5996 88.99C76.0693 88.5601 75.4893 87.8999 74.6792 87.21C74.2896 86.8501 73.8794 86.47 73.4795 86.0601C73.2773 85.845 73.0601 85.6443 72.8296 85.46C72.6592 85.23 72.4595 85 72.2896 84.76C71.0483 83.106 69.6147 81.6055 68.0195 80.29C66.4482 78.9802 64.7988 77.7681 63.0796 76.6599C61.2241 75.5591 59.311 74.5576 57.3496 73.6599C56.8794 73.4399 56.1294 73.05 55.7095 72.8101L54.2593 71.98L51.2593 70.28C48.8394 68.8899 46.2593 67.6001 43.6592 66.0601C40.918 64.5383 38.4697 62.5403 36.4292 60.1599C35.8594 59.4526 35.3477 58.7002 34.8994 57.9099L34.2393 56.6899L33.7393 55.3799C33.4214 54.5054 33.1938 53.6008 33.0596 52.6799C32.9561 51.7703 32.9028 50.8555 32.8994 49.9399C33.0283 46.3584 34.2534 42.9028 36.4092 40.04C37.7095 38.3765 39.2417 36.9082 40.9595 35.6799C42.6206 34.512 44.3804 33.4915 46.2192 32.6299C48.9346 31.375 51.7432 30.3318 54.6196 29.51C55.3296 29.3 56.0293 29.0801 56.6792 28.8701C57.3296 28.6599 58.0093 28.45 58.6792 28.1899C59.3496 27.9299 59.9795 27.6899 60.6094 27.3999C61.2446 27.1289 61.8657 26.8252 62.4692 26.49C66.1606 24.5344 69.3291 21.7227 71.7095 18.29C71.9683 17.9312 72.2051 17.5571 72.4194 17.1699C72.6494 16.79 72.8794 16.4199 73.0996 16.03C73.7563 15.0327 74.4922 14.0898 75.2993 13.21C75.8262 12.7051 76.4849 12.3584 77.1992 12.21C77.5049 12.1206 77.8154 12.0505 78.1294 12C78.5894 12 78.8594 12.3799 78.9795 13.1699C79.1309 14.3184 79.0112 15.4863 78.6294 16.5801C78.3335 17.655 77.9214 18.6946 77.3994 19.6799L76.5293 21.1201C76.2192 21.5901 75.8794 22.04 75.5293 22.5C74.1514 24.3264 72.5601 25.9814 70.7896 27.4299C67.2173 30.291 63.1499 32.4705 58.7896 33.8601L54.3594 35.29C52.9595 35.75 51.5894 36.29 50.2593 36.8C47.6958 37.8127 45.2939 39.1938 43.1294 40.8999L43.0796 40.8Z" fill-rule="evenodd" fill="currentColor"/>
	<path d="M75.7593 37.0801C76.4121 37.7749 77.0166 38.5132 77.5693 39.29C77.8501 39.6797 78.1104 40.0835 78.3491 40.5002C78.6162 40.8887 78.8599 41.2927 79.0791 41.7102C79.5127 42.5769 79.877 43.4763 80.1694 44.4001C80.3091 44.8601 80.4795 45.3201 80.5791 45.79L80.8291 47.2002L80.9492 47.9102C80.9492 48.1501 80.9492 48.3801 80.9492 48.6201L81.0791 50.03C81.0791 50.9802 80.9292 51.9802 80.8491 52.9402C80.4678 54.875 79.7324 56.7227 78.6792 58.3901C77.2563 60.6899 75.4023 62.6934 73.2192 64.29C69.6187 66.6211 65.7759 68.5557 61.7593 70.0601C59.8394 70.8301 58.0093 71.5701 56.1494 72.3901C54.0493 73.28 52.2192 73.8 50.3691 74.5801C47.1606 75.8647 44.1689 77.6355 41.499 79.8301C38.1631 82.6904 35.3745 86.1331 33.269 89.9902C32.5493 91.2102 32.269 90.9902 32.0894 89.5901C32.0894 89.2502 32.0293 88.8301 32.0093 88.3501C31.9849 87.8157 32.0083 87.2803 32.0791 86.7502C32.1348 85.407 32.4756 84.0913 33.0791 82.8901C35.5317 78.2639 39.2681 74.4443 43.8394 71.8901C46.019 70.6448 48.2925 69.5715 50.6392 68.6802L52.3091 68.05L53.1094 67.77L53.8091 67.52L55.499 66.8501L57.2095 66.2102C59.9048 65.2561 62.5342 64.1235 65.0791 62.8201C67.4717 61.6045 69.708 60.1035 71.7393 58.3501C74.3784 56.25 75.8633 53.0208 75.7393 49.6501L75.7393 48.6501L75.5791 47.6501C75.4707 46.9692 75.2998 46.2998 75.0693 45.6501C74.9609 45.3267 74.8271 45.0125 74.6694 44.7102C74.542 44.3877 74.3882 44.0767 74.2095 43.78C72.2881 40.7214 69.5713 38.2429 66.3491 36.6101C63.8086 35.2336 61.1597 34.0667 58.4292 33.1201C57.0791 32.6501 55.5991 32.1702 54.1694 31.6201C52.7393 31.0701 51.3193 30.4802 49.9292 29.8201C45.5186 27.8923 41.4624 25.239 37.9292 21.9702C37.1279 21.2332 36.3823 20.4377 35.6992 19.5901C33.4092 16.0901 33.5791 14.4902 34.3291 13.29C34.478 13.0115 34.6519 12.7471 34.8491 12.5002C35.1792 12.1802 35.6592 12.3201 36.2793 12.7402C36.5991 12.9502 36.9292 13.2402 37.3394 13.5701C37.749 13.9001 38.1094 14.3201 38.5693 14.77C39.1792 15.4702 39.9595 16.03 40.5693 16.7202L41.5693 17.7202L42.5693 18.6602C43.9966 19.8845 45.5034 21.0137 47.0791 22.04C48.708 23.095 50.4053 24.0403 52.1592 24.8701C53.9458 25.7271 55.7822 26.4751 57.6592 27.1101L59.9292 27.8801C60.7192 28.1501 61.5093 28.4402 62.2993 28.7402C63.8691 29.3601 65.4492 30.0103 66.999 30.8C70.2793 32.3369 73.2695 34.4275 75.8394 36.9802L75.7593 37.0801Z" fill-rule="evenodd" fill="currentColor"/>
	<path d="M60.8594 16.6499L57.8594 16.51C57.4863 16.53 57.1123 16.53 56.7393 16.51C55.4194 16.3198 54.0991 16.0798 52.8091 15.8599C52.2393 15.74 51.6592 15.71 51.0894 15.6299C50.3506 15.6069 49.6206 15.4617 48.9292 15.2C48.7095 15.1099 48.7891 14.79 49.0293 14.48C49.2695 14.1187 49.6504 13.8755 50.0791 13.8101C51.5063 13.738 52.937 13.7715 54.3594 13.9099C55.2427 13.9475 56.1279 13.8904 56.9995 13.74C57.9995 13.74 58.9995 13.74 59.9995 13.6699L61.8594 13.6699C62.8091 13.6699 63.7593 13.6699 64.6992 13.5898C65.0674 13.5566 65.4316 13.4932 65.7891 13.3999L66.3394 13.27C66.5225 13.26 66.7061 13.26 66.8892 13.27C67.0493 13.26 67.2095 13.26 67.3691 13.27C67.9692 13.3398 68.1592 13.5798 68.2393 14.27C68.2393 14.4299 68.2891 14.5898 68.2993 14.76C68.3306 15.262 68.0698 15.7371 67.6294 15.98C67.0596 16.3481 66.4194 16.5935 65.7495 16.7C65.1147 16.7683 64.4771 16.8018 63.8394 16.8L60.8691 16.8L60.8594 16.6499Z" fill-rule="evenodd" fill="currentColor"/>
	<path d="M57.3892 19.9001C57.7998 20.0408 58.2212 20.1477 58.6494 20.22C58.7993 20.22 58.9492 20.22 59.1094 20.22C59.6895 20.3 60.3296 20.3801 60.9492 20.4402C61.2183 20.4756 61.4907 20.4756 61.7593 20.4402C62.0825 20.3223 62.4365 20.3223 62.7593 20.4402C62.9795 20.5601 62.7593 22.3101 62.4292 22.4402C61.7759 22.613 61.0918 22.6335 60.4292 22.5C60.0044 22.488 59.5796 22.5386 59.1694 22.6501C58.6733 22.6851 58.1753 22.6851 57.6792 22.6501C57.3794 22.6501 57.0693 22.6501 56.7793 22.5701C56.3442 22.4836 55.9028 22.4299 55.4595 22.4102C55.1172 22.4531 54.7812 22.5369 54.4595 22.6602C54.3872 22.6848 54.314 22.7048 54.2393 22.72C53.9595 22.72 53.8892 22.55 53.8892 21.8401L53.8892 21.29C53.8657 20.8784 54.002 20.4736 54.2695 20.1602C54.8027 19.8049 55.4404 19.6394 56.0796 19.6902C56.5068 19.686 56.9331 19.7332 57.3491 19.8301L57.3892 19.9001Z" fill-rule="evenodd" fill="currentColor"/>
	<path d="M52.8491 85.5002L55.8491 85.7302C56.209 85.7302 56.5693 85.7302 56.939 85.7302C58.2393 85.9402 59.5293 86.1802 60.8193 86.3501C61.3892 86.4402 61.959 86.4502 62.5293 86.4902C63.2622 86.479 63.9932 86.5732 64.6992 86.7703C64.9189 86.8501 64.8691 87.1702 64.6992 87.5002C64.4834 87.8735 64.1206 88.1387 63.6992 88.2302C62.2559 88.405 60.7983 88.4351 59.3491 88.3201C58.4526 88.2942 57.5562 88.3479 56.6689 88.4802C55.6689 88.4802 54.6689 88.4802 53.6689 88.4802L51.8193 88.4802C50.8794 88.4802 49.939 88.4802 48.999 88.4802C48.6323 88.5125 48.2681 88.5691 47.9092 88.6501L47.3594 88.7803C47.1758 88.7903 46.9922 88.7903 46.8091 88.7803C46.6494 88.79 46.4893 88.79 46.3291 88.7803C45.7192 88.7002 45.5391 88.4602 45.479 87.7803C45.479 87.6101 45.479 87.4502 45.479 87.29C45.4438 86.8103 45.6738 86.3496 46.0791 86.0901C46.6523 85.7322 47.2915 85.4941 47.959 85.3901C48.6035 85.3213 49.251 85.2878 49.8994 85.29C50.8994 85.29 51.8994 85.3601 52.8994 85.3801L52.8491 85.5002Z" fill-rule="evenodd" fill="currentColor"/>
	<path d="M56.7192 82.0701C56.1313 81.9458 55.5371 81.8525 54.9395 81.79C54.7192 81.79 54.4995 81.79 54.2793 81.79C53.4893 81.71 52.6792 81.6099 51.8794 81.5701C51.5244 81.5581 51.1694 81.5815 50.8193 81.6399C50.3711 81.7649 49.8975 81.7649 49.4492 81.6399C49.1592 81.52 49.4492 79.77 49.9292 79.6399C50.8096 79.4495 51.7153 79.4089 52.6094 79.52C53.1763 79.542 53.7437 79.4949 54.2993 79.3799C54.9194 79.3799 55.5591 79.3799 56.1992 79.3799C56.5894 79.3799 56.9795 79.3799 57.3691 79.3799C57.9692 79.3799 58.5591 79.52 59.1392 79.51C59.6006 79.4705 60.0586 79.3967 60.5093 79.29C60.6094 79.29 60.7095 79.23 60.8091 79.23C61.1792 79.23 61.2891 79.4099 61.2993 80.1199C61.3091 80.2798 61.3091 80.4402 61.2993 80.6001C61.3433 81.0298 61.1709 81.4531 60.8394 81.73C60.105 82.0969 59.2896 82.2725 58.4692 82.24C57.8843 82.2546 57.2993 82.2246 56.7192 82.1499L56.7192 82.0701Z" fill-rule="evenodd" fill="currentColor"/>
	<path d="M59.709 44.71C58.7891 44.6001 57.8594 44.49 56.9292 44.4001C56.5962 44.4192 56.2622 44.4192 55.9292 44.4001C54.729 44.21 53.5293 44.01 52.3291 43.8901C51.7964 43.855 51.2617 43.855 50.729 43.8901C50.0474 44.0032 49.3501 43.9758 48.6792 43.8101C48.4692 43.74 48.499 43.26 48.6792 42.8101C48.8594 42.3601 49.1592 41.8101 49.5493 41.8101C50.9165 41.5718 52.312 41.5381 53.689 41.71C54.54 41.7646 55.394 41.7346 56.2393 41.6201C57.1792 41.6201 58.1191 41.6899 59.0693 41.73L60.8091 41.8201C61.689 41.8201 62.5693 41.9202 63.439 41.8201C64.1294 41.8201 64.7993 41.6702 65.4893 41.6301C65.6411 41.5999 65.7974 41.5999 65.9492 41.6301C66.4224 41.7266 66.7588 42.1472 66.749 42.6301C66.749 42.76 66.749 42.8901 66.749 43.01C66.7041 43.4277 66.4629 43.7991 66.0991 44.01L65.6592 44.3201C65.5239 44.4001 65.3794 44.4639 65.229 44.51C64.9292 44.6201 64.6294 44.72 64.3291 44.8C64.0312 44.8945 63.7271 44.968 63.4189 45.02L62.499 45.02C61.5791 45.02 60.6494 44.9001 59.7192 44.8501L59.709 44.71Z" fill-rule="evenodd" fill="currentColor"/>
	<path d="M60.0098 50.2898L56.0098 49.9998C55.5195 49.9998 55.0098 49.9998 54.5396 49.9998C52.8096 49.8699 51.0693 49.6099 49.3394 49.4998C48.5703 49.4548 47.7988 49.4548 47.0298 49.4998C46.0493 49.6292 45.0552 49.6123 44.0796 49.45C43.7695 49.3799 43.7896 48.8599 44.0796 48.3398C44.2837 47.7756 44.7505 47.3464 45.3296 47.1899C47.3193 46.9304 49.3315 46.8936 51.3296 47.0798C52.5396 47.22 53.7896 46.9998 55.0298 47.0198L59.1094 47.1299L61.6196 47.1299L63.5195 47.1299C64.1597 47.1299 64.7896 47.1299 65.4194 47.1299C66.4194 47.1299 67.3496 46.9099 68.3096 46.7998C68.522 46.7751 68.7368 46.7751 68.9497 46.7998C69.7397 46.8799 69.9497 47.0999 70.1797 47.6699C70.2256 47.7971 70.2622 47.9275 70.2896 48.0598C70.3696 48.48 70.0493 48.8799 69.4795 49.1599C68.6455 49.5618 67.7554 49.835 66.8394 49.97C65.9497 50.1399 65.0396 50.2598 64.1396 50.3499C63.4736 50.3979 62.8052 50.3979 62.1396 50.3499L60.1396 50.2898L60.0098 50.2898Z" fill-rule="evenodd" fill="currentColor"/>
	<path d="M57.2891 56.7L55.1689 56.49C54.9092 56.49 54.6592 56.49 54.3989 56.49C53.4893 56.3699 52.5791 56.23 51.6689 56.1599C51.27 56.125 50.8682 56.125 50.4692 56.1599C49.9609 56.2646 49.437 56.2646 48.9292 56.1599C48.6089 56.0598 48.9292 54.5498 49.5293 54.4399C50.5728 54.2798 51.6353 54.2798 52.6792 54.4399C53.3257 54.4448 53.9712 54.3945 54.6089 54.2898C55.3091 54.2898 56.019 54.2898 56.7393 54.2898L58.0488 54.2898C58.7153 54.3257 59.3828 54.3257 60.0488 54.2898C60.5562 54.1953 61.0547 54.0581 61.5391 53.8799C61.6489 53.8799 61.7593 53.7898 61.8691 53.77C62.2793 53.7 62.4189 53.8699 62.5391 54.5598C62.5391 54.72 62.5991 54.8799 62.6191 55.0398C62.7578 55.5012 62.5942 56.0002 62.209 56.2898C61.3457 56.7112 60.3882 56.9041 59.4292 56.8499C58.7192 56.8499 58.0093 56.8499 57.2988 56.78L57.2891 56.7Z" fill-rule="evenodd" fill="currentColor"/>
	<defs/>
</svg>
