<svg width="24" height="24" viewBox="0 0 110 110" fill="none" xmlns="http://www.w3.org/2000/svg" xmlns:xlink="http://www.w3.org/1999/xlink">
	<path d="M5.05029 38.8806C4.91406 38.1326 5.05615 37.3608 5.45068 36.7107C5.85986 36.1184 6.45996 35.6843 7.15039 35.4805L7.85059 35.3406C8.08008 35.3208 8.31104 35.3208 8.54053 35.3406C9.92773 35.6418 11.1313 36.4983 11.8706 37.7107C12.0503 37.9307 12.1704 38.1807 12.3306 38.4106C12.4937 38.6299 12.6406 38.8604 12.7705 39.1006C13.2051 39.6553 13.4873 40.3135 13.5903 41.0105C13.5903 41.2305 13.1006 41.3606 12.5903 41.3606C12.0806 41.3606 11.5005 41.2605 11.3804 40.9507C10.939 39.8984 10.3931 38.8933 9.75049 37.9507C9.36133 37.489 8.78418 37.228 8.18066 37.2405C7.65332 37.1543 7.15088 37.4978 7.04053 38.0205C6.96582 38.3232 7.05713 38.6428 7.28027 38.8606C7.55664 39.0271 7.86865 39.1265 8.19043 39.1506C8.60107 39.2163 9.01514 39.2598 9.43066 39.2805C10.1426 39.2876 10.8521 39.3613 11.5503 39.5005C11.7197 39.5225 11.8853 39.5698 12.0405 39.6406C12.6304 39.8806 12.7007 40.1807 12.4902 40.6406C12.4434 40.7566 12.3896 40.8701 12.3306 40.9805C12.1489 41.2998 11.7954 41.4805 11.4307 41.4407C10.4307 41.3105 9.64062 41.2605 8.35059 41.1606C7.75049 41.157 7.15527 41.0522 6.59033 40.8506C5.76562 40.4858 5.17432 39.7373 5.01025 38.8506L5.05029 38.8806Z" fill-rule="evenodd" fill="currentColor"/>
	<path d="M6.9707 36.7305C7.3042 36.4985 7.68213 36.3384 8.08057 36.2605C8.21826 36.2175 8.3584 36.1843 8.50049 36.1604C8.9624 36.1741 9.41699 36.2759 9.84082 36.4604C10.0063 36.521 10.1772 36.5679 10.3506 36.6003C10.5757 36.6133 10.7852 36.7183 10.9307 36.8904C10.9307 36.9504 10.8506 37.2104 10.7007 37.4604C10.5508 37.7104 10.3706 37.9705 10.2705 37.9805C9.97412 38.0215 9.67236 37.9763 9.40088 37.8503C9.24072 37.7705 9.08057 37.8503 8.95068 37.9404L8.46045 38.0903C8.35498 38.1443 8.25439 38.2078 8.16064 38.2805C8.00684 38.4055 7.88623 38.5669 7.81055 38.7505C7.81055 38.9004 7.81055 39.0803 7.81055 39.2205C7.81055 39.3604 7.81055 39.2903 7.81055 39.3203C7.81055 39.3503 7.58057 39.4504 7.23047 39.4404L6.96045 39.4404C6.71924 39.4338 6.48975 39.3333 6.3208 39.1604C6.14209 38.9277 6.00928 38.6631 5.93066 38.3804C5.93799 38.1182 6.00635 37.8613 6.13086 37.6304C6.33154 37.2722 6.604 36.959 6.93066 36.7104L6.9707 36.7305Z" fill-rule="evenodd" fill="currentColor"/>
	<path d="M93.27 35.9204C93.187 35.7239 93.0435 35.5593 92.8604 35.4504C92.79 35.4077 92.7163 35.3708 92.6401 35.3403C92.354 35.22 92.0498 35.1492 91.7402 35.1304C91.6074 35.1106 91.4727 35.1106 91.3403 35.1304C91.1816 35.186 91.0171 35.2229 90.8501 35.2402C90.8003 35.2402 90.73 35.1304 90.7202 34.9902C90.6899 34.8472 90.7441 34.6995 90.8604 34.6104C91.2368 34.4087 91.6655 34.3252 92.0903 34.3704C92.3433 34.3904 92.5972 34.3904 92.8501 34.3704C93.1519 34.377 93.4502 34.438 93.73 34.5503C93.9233 34.6248 94.105 34.7258 94.27 34.8503C94.5332 35.0757 94.7388 35.3601 94.8701 35.6804C95.0239 35.9219 95.1328 36.1897 95.1904 36.4702C95.1904 36.5303 95.1904 36.5903 95.1904 36.6404C95.1904 36.6904 95.1201 36.8103 94.98 36.8203C94.8145 36.8469 94.646 36.8469 94.48 36.8203L94.21 36.7603C93.9336 36.6758 93.666 36.5652 93.4102 36.4304L93.1904 36.2603C93.1304 36.2603 93.02 36.2603 93.04 36.2603L93.1704 36.2603L93.25 36.2603C93.2476 36.2405 93.2476 36.2202 93.25 36.2004C93.25 36.1404 93.25 36.0703 93.25 36.0002L93.27 35.9204Z" fill-rule="evenodd" fill="currentColor"/>
	<path d="M75.4707 75.3403C75.668 75.0005 75.832 74.6421 75.9604 74.2705C76.0962 73.8984 76.1899 73.5129 76.2407 73.1204C76.2407 72.8103 76.2407 72.5005 76.2407 72.1804C76.3159 70.9949 76.3159 69.8059 76.2407 68.6204C76.2407 68.0803 76.1606 67.5503 76.1108 67.0005C76.0073 66.2859 76.0688 65.5574 76.2905 64.8704C76.3809 64.6504 76.6807 64.7605 76.9707 64.9805C77.2822 65.1904 77.5063 65.5068 77.6006 65.8704C77.7407 67.1104 77.8706 68.4404 77.9004 69.8704C77.9004 70.7205 78.1406 71.5803 78.1904 72.4805C78.2251 72.9866 78.2251 73.4944 78.1904 74.0005C78.1313 74.5242 78.0176 75.0405 77.8506 75.5405C77.6626 76.1619 77.3828 76.7517 77.0205 77.2905C76.4385 78.1443 75.6128 78.803 74.6504 79.1804C73.9785 79.4966 73.2695 79.7283 72.5405 79.8704C72.3809 79.8704 72.2305 79.9304 72.0708 79.9404C71.8623 79.9719 71.6499 79.9187 71.481 79.793C71.312 79.6672 71.2002 79.479 71.1704 79.2705C71.1704 79.1604 71.1108 79.0603 71.1006 78.9604C71.083 78.5894 71.293 78.2451 71.6309 78.0903C72.7407 77.5503 73.6309 77.0903 74.2905 76.7605C74.793 76.4041 75.1875 75.9163 75.4307 75.3503L75.4707 75.3403Z" fill-rule="evenodd" fill="currentColor"/>
	<path d="M62.3306 16.0105C63.0034 16.3867 63.5977 16.8892 64.0806 17.4905C64.521 18.071 64.8779 18.7104 65.1406 19.3904C65.3486 19.855 65.5156 20.3369 65.6406 20.8303C65.8418 21.6868 65.9556 22.561 65.9805 23.4404C65.9805 24.3303 65.9805 25.1003 66.0605 25.9204C66.1514 26.6277 66.2983 27.3267 66.5005 28.0105C66.7251 28.8616 67.1274 29.6555 67.6802 30.3403C67.8604 30.5105 67.7803 30.6604 67.4604 30.6504C66.9604 30.5852 66.5161 30.2988 66.2505 29.8704C65.208 28.1001 64.7109 26.0618 64.8203 24.0105C64.7974 22.8787 64.5811 21.7593 64.1802 20.7004C63.8291 19.5652 63.1636 18.5527 62.2603 17.7805C61.7031 17.332 61.0376 17.0388 60.3306 16.9304C59.1929 16.7969 58.04 16.9412 56.9702 17.3503C56.1509 17.6934 55.3809 18.144 54.6802 18.6904C54.5205 18.8003 54.3804 18.9404 54.2305 19.0503C53.6602 19.4905 53.4404 19.5603 53.0303 19.3303C52.9331 19.2886 52.8394 19.2383 52.7505 19.1804C52.4604 18.9905 52.5103 18.5503 52.9204 18.1003C54.2344 16.7273 55.9438 15.7976 57.8105 15.4404C59.3325 15.0752 60.9346 15.252 62.3403 15.9404L62.3306 16.0105Z" fill-rule="evenodd" fill="currentColor"/>
	<path d="M11.9805 59.8103C12.1567 60.7158 12.5708 61.5581 13.1807 62.2505C13.4248 62.5044 13.689 62.7385 13.9707 62.9504C14.9644 63.8081 16.1406 64.4272 17.4106 64.7605C17.9883 64.907 18.5854 64.9644 19.1807 64.9304C19.5703 64.9304 19.9404 64.8303 20.3203 64.8103C20.7065 64.7854 21.0942 64.7854 21.4805 64.8103C21.7407 64.8103 21.8203 65.2004 21.7007 65.6504C21.5918 66.1807 21.2397 66.6292 20.7505 66.8604C18.8804 67.2915 16.918 67.0359 15.2207 66.1404C14.1738 65.6492 13.187 65.0383 12.2803 64.3203C11.3198 63.4575 10.5908 62.3677 10.1606 61.1504C9.90186 60.4043 9.77002 59.6201 9.77051 58.8303C9.79102 57.656 10.0928 56.5039 10.6504 55.4705C11.0332 54.6699 11.5098 53.918 12.0703 53.2305C12.1997 53.083 12.3364 52.9429 12.4805 52.8103C13.0405 52.3303 13.3706 52.3904 13.7305 52.6704C13.8159 52.7263 13.8965 52.7898 13.9707 52.8604C14.0874 52.9832 14.1426 53.1523 14.1206 53.3203C14.1152 53.5359 14.0454 53.7449 13.9204 53.9204C13.1528 54.9192 12.5552 56.0376 12.1504 57.2305C11.8994 58.0608 11.8613 58.9414 12.0405 59.7903L11.9805 59.8103Z" fill-rule="evenodd" fill="currentColor"/>
	<path d="M29.7505 53.2205C29.4951 52.2188 29.105 51.2566 28.5903 50.3604C28.0459 49.439 27.4238 48.5657 26.7305 47.7505C25.3203 46.0303 23.7305 44.3904 22.1401 42.6104C20.937 41.3142 19.8711 39.8967 18.9604 38.3804C18.1333 36.9753 17.5742 35.4292 17.3105 33.8203C17.2402 33.0203 17.1201 32.2205 17.1104 31.4204C17.145 30.6133 17.2251 29.8086 17.3506 29.0105C17.9653 25.8425 19.7017 23.0024 22.2402 21.0105C24.4448 19.262 27.0879 18.1548 29.8804 17.8103C30.3208 17.7456 30.7651 17.7156 31.2104 17.7205C31.6567 17.6953 32.104 17.6953 32.5503 17.7205L33.8901 17.8604L34.5503 17.9404L35.2002 18.1204C35.6401 18.2305 36.0605 18.3704 36.4902 18.5105C36.9028 18.6799 37.3066 18.8704 37.7002 19.0803C38.1016 19.2661 38.4893 19.48 38.8604 19.7205L39.8604 20.5105C40.7305 21.1904 40.3506 21.3904 39.3604 21.3003C38.8604 21.3003 38.2603 21.1104 37.5205 21.0105C37.1401 21.0105 36.7505 20.9204 36.3604 20.8403C36.1602 20.8403 35.9604 20.7405 35.7505 20.7104L35.1104 20.6204C34.7305 20.5703 34.3701 20.4504 34.0005 20.3704L32.8604 20.2703C32.1016 20.2104 31.3394 20.2104 30.5806 20.2703C29.0742 20.4465 27.606 20.8616 26.2305 21.5005C23.4102 22.7156 21.1821 24.9937 20.0303 27.8403C19.4062 29.6455 19.2549 31.5801 19.5903 33.4604C19.9946 35.3723 20.8213 37.1694 22.0103 38.7205C23.3857 40.5374 24.8682 42.2705 26.4502 43.9104C28.1377 45.6328 29.6147 47.5496 30.8506 49.6204C32.084 52.3391 32.7642 55.2761 32.8506 58.2605C32.9683 60.3835 33.2153 62.4973 33.5903 64.5903C33.958 66.5955 34.9116 68.4465 36.3306 69.9104C38.5776 72.0554 41.7607 72.9106 44.7803 72.1804C45.4194 72.0286 46.0449 71.8245 46.6504 71.5703C48.9004 70.5103 49.5005 69.9504 50.3506 70.0703C50.5386 70.0732 50.7261 70.0935 50.9102 70.1304C51.1704 70.2104 51.1504 70.5005 50.9102 70.9604C50.728 71.2507 50.5166 71.522 50.2803 71.7703C49.9312 72.0984 49.5605 72.4023 49.1704 72.6804C47.7905 73.6199 46.231 74.2634 44.5903 74.5703C41.0459 75.168 37.4272 74.0557 34.8306 71.5703C33.5259 70.3149 32.5303 68.7749 31.9204 67.0703C31.4888 65.8796 31.187 64.6458 31.0205 63.3904C30.8403 62.1704 30.7305 60.9805 30.6304 59.8103C30.5239 57.5811 30.2192 55.3657 29.7202 53.1904L29.7505 53.2205Z" fill-rule="evenodd" fill="currentColor"/>
	<path d="M34.9106 67.0105L35.1807 67.7004C35.2705 67.9304 35.4004 68.1304 35.5005 68.3403C35.5972 68.5464 35.7109 68.7439 35.8408 68.9304C35.9492 69.1194 36.0762 69.2971 36.2207 69.4604C36.8286 70.1934 37.5552 70.8186 38.3706 71.3105C40.0127 72.3462 41.9453 72.8232 43.8804 72.6704C44.2568 72.6255 44.6265 72.5349 44.9805 72.4004C45.394 72.2063 45.7891 71.9753 46.1606 71.7104C47.0107 71.1104 47.9307 70.2405 49.0908 69.3303C49.7188 68.8313 50.3877 68.3865 51.0908 68.0005C51.4824 67.7898 51.8867 67.6028 52.3008 67.4404C52.7407 67.3005 53.1807 67.1904 53.6206 67.0703C55.2544 66.7793 56.9312 66.8374 58.5405 67.2405C60.6304 67.7505 62.3706 68.4204 63.8008 68.5903C64.3735 68.6956 64.9634 68.6614 65.5205 68.4905C65.7705 68.4905 65.9707 68.2605 66.2207 68.1804C66.4707 68.1003 66.6807 67.8403 66.9106 67.5903L67.4907 66.9104C67.6235 66.7292 67.731 66.5308 67.8105 66.3203C68.0151 65.6699 68.1489 64.9995 68.2104 64.3203C68.3008 63.5305 68.3804 62.6604 68.5806 61.6704C68.7861 60.5251 69.2549 59.4431 69.9507 58.5105C71.3164 56.9346 73.125 55.8057 75.1406 55.2705C76.6494 54.9319 78.125 54.46 79.5508 53.8604C80.7412 53.2485 81.7407 52.3215 82.4404 51.1804C83.1436 49.9819 83.5195 48.6199 83.5308 47.2305C83.5938 44.2788 82.291 41.4631 80.0005 39.6003C78.0005 37.9604 75.1504 37.5005 72.3105 37.1804C69.4707 36.8604 66.5107 36.8503 63.5908 36.8005C61.7104 36.8005 59.8105 36.7405 57.8906 36.6204C55.8818 36.5471 53.8916 36.2109 51.9707 35.6204C51.4199 35.4314 50.8955 35.1726 50.4106 34.8503C50.1353 34.668 49.8774 34.4604 49.6406 34.2305L49.1206 33.6604C48.4526 32.916 47.8633 32.105 47.3608 31.2405C46.3608 29.5405 45.5908 27.8303 44.7104 26.2405C43.6006 24.2405 44.1108 24.1804 45.7905 25.4805C46.873 26.4004 47.9043 27.3784 48.8804 28.4104L50.7505 30.2805C51.0508 30.6204 51.3706 30.9404 51.6807 31.2805L52.1704 31.7605C52.2456 31.824 52.3257 31.8809 52.4106 31.9304C53.0176 32.2537 53.6724 32.4766 54.3506 32.5903C55.2095 32.7605 56.0776 32.8809 56.9507 32.9504C58.7505 33.1204 60.6406 33.1804 62.5405 33.2305C66.4707 33.2327 70.3975 33.4631 74.3008 33.9204C76.4941 34.1729 78.624 34.8164 80.5908 35.8203C84.6963 38.1741 87.2466 42.5281 87.2905 47.2605C87.3423 49.645 86.6426 51.9854 85.2905 53.9504C84.8721 54.5391 84.3965 55.085 83.8706 55.5803C83.6006 55.8203 83.3408 56.0703 83.0708 56.3005L82.1807 56.9004C81.0352 57.6365 79.7886 58.2024 78.4805 58.5803C77.3105 58.9504 76.2305 59.2705 75.3506 59.6404C74.9336 59.8066 74.5376 60.0215 74.1704 60.2805C73.9907 60.3904 73.8506 60.5405 73.6904 60.6604C73.5308 60.7805 73.3706 60.9705 73.3208 61.0605C72.894 61.7764 72.6538 62.5876 72.6206 63.4204C72.5195 64.7139 72.3188 65.9978 72.0205 67.2605C71.8159 68.0549 71.4775 68.8091 71.0205 69.4905C70.5923 70.1104 70.0957 70.6807 69.5405 71.1904C68.3296 72.3284 66.7593 73.0073 65.1006 73.1104C63.5679 73.1575 62.0381 72.9548 60.5708 72.5105C59.2607 72.1704 58.0806 71.8303 57.0107 71.6604C56.0776 71.4636 55.1094 71.5117 54.2007 71.8005C53.2295 72.2087 52.3413 72.7917 51.5806 73.5205C50.5459 74.4744 49.4395 75.3469 48.2705 76.1304C47.5688 76.5701 46.8081 76.9067 46.0107 77.1304C45.228 77.3501 44.4229 77.481 43.6108 77.5205C40.5273 77.626 37.4907 76.7468 34.9404 75.0105C33.3643 73.9573 32.0557 72.5498 31.1206 70.9004C30.2417 69.3428 29.6172 67.655 29.2705 65.9004C28.5908 62.5005 28.5908 59.2605 28.0405 56.3203C27.7119 54.1636 26.8716 52.1167 25.5908 50.3503C24.1182 48.4868 22.5459 46.7041 20.8804 45.0105C19.0396 43.2209 17.4336 41.2048 16.1006 39.0105C14.7378 36.6006 14.1743 33.8208 14.4907 31.0703C14.7314 29.0286 15.3022 27.0393 16.1807 25.1804C17.9497 21.3655 21.2012 18.4395 25.1807 17.0803C27.1313 16.4014 29.1851 16.063 31.2505 16.0803C33.0635 16.0442 34.8721 16.2698 36.6206 16.7505C38.9893 17.3252 41.1611 18.5232 42.9106 20.2205C43.9888 21.3506 44.4839 22.916 44.2505 24.4604C44.0908 24.9404 43.5005 24.7705 42.5605 24.2905C41.6206 23.8105 40.2104 23.1104 38.4805 22.2905C35.8311 21.1072 32.9175 20.6382 30.0308 20.9304C27.2896 21.1497 24.7163 22.3372 22.7705 24.2805C21.8604 25.2412 21.1318 26.3594 20.6206 27.5803C20.0952 28.8374 19.7583 30.165 19.6206 31.5205C19.4004 34.0803 20.2607 35.9805 22.1904 38.3303C23.5908 40.0105 25.4604 41.8503 27.3105 43.8804C28.2505 44.8804 29.1606 45.9805 30.0605 47.1404C31.0562 48.4907 31.8481 49.98 32.4106 51.5605C33.2739 54.3477 33.7715 57.2351 33.8906 60.1504C33.9717 62.45 34.3516 64.729 35.0205 66.9304L34.9106 67.0105Z" fill-rule="evenodd" fill="currentColor"/>
	<path d="M80.1606 74.7603C80.0229 75.4185 79.7798 76.0498 79.4404 76.6304C79.0918 77.2153 78.6567 77.7444 78.1504 78.2002C77.2397 78.9949 76.1689 79.5847 75.0107 79.9302C74.2734 80.1807 73.5132 80.355 72.7407 80.4502C70.1831 80.6528 67.6108 80.333 65.1807 79.5103C64.1133 79.1384 63.0825 78.6697 62.1006 78.1104C60.7915 77.4165 59.7603 76.2937 59.1807 74.9302C59.0005 74.5103 59.5107 74.3003 60.1807 74.2502C60.8691 74.1748 61.5645 74.3035 62.1807 74.6204C62.6104 74.9802 63.1807 75.1802 63.5703 75.5203C64.0312 75.835 64.5122 76.1189 65.0107 76.3704C66.0781 76.8879 67.1978 77.2903 68.3506 77.5703C69.083 77.7485 69.8413 77.7959 70.5903 77.7102C71.3252 77.5979 72.0508 77.4307 72.7607 77.2102C74.1235 76.9248 75.2993 76.0693 75.9907 74.8604C76.3735 74.0466 76.5356 73.1465 76.4604 72.2502C76.3389 70.571 76.1118 68.9009 75.7808 67.2502C75.4077 65.781 75.3027 64.2566 75.4707 62.7502C75.5249 62.3748 75.6187 62.0061 75.7505 61.6501C75.9185 61.1619 76.2803 60.7639 76.7505 60.5503C77.1372 60.4534 77.5469 60.5222 77.8804 60.7402C78.0703 60.8315 78.2539 60.9351 78.4307 61.0503C78.9077 61.5039 79.1631 62.1428 79.1304 62.8003C79.1304 63.2703 79.1304 63.5903 79.1304 63.9802C79.1304 64.3704 79.2007 64.7703 79.2607 65.2102C79.3906 66.1104 79.6006 67.2102 79.8403 68.3503C80.3701 70.4441 80.4956 72.6194 80.2104 74.7603L80.1606 74.7603Z" fill-rule="evenodd" fill="currentColor"/>
	<path d="M61.0205 13.2004C62.2031 13.2778 63.3604 13.5798 64.4302 14.0903C65.5757 14.6482 66.5547 15.4963 67.2705 16.5505C67.7866 17.2261 68.1792 17.9878 68.4302 18.8005C69.0503 21.5005 68.7402 23.8005 68.8506 25.9404C68.896 26.8315 69.085 27.7095 69.4102 28.5405C69.6045 29.0415 69.8247 29.5322 70.0703 30.0105C70.1509 30.2893 70.2476 30.563 70.3604 30.8303C70.4644 31.1189 70.6021 31.394 70.7705 31.6504C70.9502 32.0105 70.7705 32.1904 70.2705 32.2905C69.4443 32.4495 68.5894 32.3518 67.8203 32.0105C67.6279 31.8999 67.4409 31.7798 67.2603 31.6504C67.1079 31.5046 66.9707 31.3438 66.8506 31.1704C66.5767 30.8606 66.332 30.5259 66.1206 30.1704C65.7168 29.4773 65.4487 28.7139 65.3306 27.9204C65.0894 26.5579 65.0225 25.1699 65.1304 23.7905C65.1694 23.0574 65.0986 22.3225 64.9204 21.6104C64.8506 21.2605 64.7305 20.9404 64.6406 20.6104C64.5503 20.2805 64.4102 20.0305 64.3105 19.7705C63.96 18.5891 63.001 17.6875 61.8003 17.4104C60.9126 17.1846 59.9912 17.1201 59.0806 17.2205C57.5991 17.3774 56.1748 17.8772 54.9204 18.6804C53.9541 19.3611 53.0625 20.1421 52.2603 21.0105C52.0845 21.2146 51.8906 21.4021 51.6802 21.5703C51.4199 21.8442 51.0586 21.9995 50.6802 21.9995C50.3022 21.9995 49.9409 21.8442 49.6802 21.5703C49.521 21.4651 49.3677 21.3516 49.2202 21.2305C48.9961 21.0283 48.8657 20.7422 48.8604 20.4404C48.8364 20.0732 48.9233 19.7073 49.1104 19.3904C49.7002 18.3247 50.4795 17.376 51.4102 16.5903C52.4023 15.7031 53.5088 14.9529 54.7002 14.3604C56.6567 13.3872 58.8271 12.9229 61.0103 13.0105L61.0205 13.2004Z" fill-rule="evenodd" fill="currentColor"/>
	<path d="M12.5903 57.3406C12.4458 57.6306 12.3447 57.9407 12.2905 58.2605L12.1704 58.7205C12.1851 58.8735 12.1851 59.0276 12.1704 59.1804L12.1704 59.6504L12.2305 60.1006L12.2305 60.5806L12.3906 61.0305C12.4497 61.2634 12.5625 61.4792 12.7207 61.6604C12.8804 61.8506 13.0005 62.0706 13.1406 62.2705C14.9619 64.6692 18.0405 65.7478 20.9604 65.0105L21.8306 64.7505L22.6704 64.3804C23.2505 64.1804 23.7607 63.8506 24.3804 63.6404C24.7607 63.5105 25.0806 63.9404 25.1206 64.6404C25.1289 65.0225 25.0645 65.4026 24.9307 65.7605C24.793 66.1733 24.5176 66.5264 24.1504 66.7605L23.1504 67.3904C22.7827 67.5708 22.4058 67.7312 22.0205 67.8704C21.25 68.167 20.4482 68.375 19.6304 68.4905C19.2158 68.5422 18.7979 68.5591 18.3804 68.5405C17.9668 68.5474 17.5537 68.5037 17.1504 68.4104C16.7407 68.3306 16.3306 68.2505 15.9307 68.1404C15.5308 68.0305 15.1504 67.8506 14.7705 67.6904C12.8506 66.9543 11.1357 65.7678 9.77051 64.2305C8.31494 62.3655 7.72559 59.9678 8.15039 57.6404C8.24951 56.9524 8.43799 56.28 8.71045 55.6404C8.90479 54.9814 9.20166 54.3569 9.59033 53.7905C10.7866 52.3279 12.1455 51.0061 13.6406 49.8506C14.1704 49.4004 14.6406 48.9104 15.1304 48.4204L15.8403 47.6804C16.0806 47.4404 16.3506 47.2305 16.6006 47.0205C16.8506 46.8105 17.0308 46.6204 17.2607 46.4504C17.543 46.1611 17.9346 46.0046 18.3384 46.0198C18.7422 46.0352 19.1211 46.2207 19.3804 46.5305C19.5605 46.6804 19.7607 46.8105 19.9307 46.9604C20.4761 47.5161 20.5352 48.386 20.0708 49.0105C19.4395 50.1208 18.6475 51.1318 17.7207 52.0105C16.8403 52.8206 15.9307 53.5605 15.1006 54.3005C14.5327 54.7944 13.9951 55.322 13.4907 55.8804C13.3892 55.9905 13.2959 56.1074 13.2104 56.2305L13.0806 56.4004L13.0107 56.5305C12.9761 56.5703 12.9458 56.614 12.9204 56.6604L12.8403 56.9004L12.6807 57.3604L12.5903 57.3406Z" fill-rule="evenodd" fill="currentColor"/>
	<path d="M81.5903 19.8303C82.1699 19.8342 82.7305 20.0352 83.1807 20.4001C83.5093 20.6865 83.7661 21.0464 83.9307 21.4502C84.186 22.0847 84.249 22.7805 84.1104 23.4502C84.0435 23.8752 83.9014 24.2852 83.6904 24.6602C82.9678 25.6667 81.9512 26.4248 80.7803 26.8303C80.3306 27.0103 79.8906 27.2102 79.4507 27.3503C78.9116 27.6086 78.3179 27.7322 77.7207 27.7102C77.5205 27.7102 77.4604 27.3503 77.5005 26.9402C77.5073 26.5459 77.6606 26.168 77.9307 25.8804C78.4106 25.6104 78.8403 25.3103 79.2705 25.0503L80.6104 24.5103C81.0776 24.3035 81.4346 23.9067 81.5903 23.4202C81.6616 23.2422 81.6992 23.0522 81.7007 22.8604C81.708 22.7871 81.708 22.7134 81.7007 22.6401C81.7061 22.6172 81.7061 22.5933 81.7007 22.5703C81.7007 22.5703 81.7007 22.5703 81.7803 22.4402L81.8706 22.2603L81.8706 22.1802L81.8706 22.1304C81.8706 21.7302 81.8706 22.6702 81.8706 22.5703C81.8706 22.5703 81.8706 22.5703 81.8105 22.5703C81.7505 22.5703 81.7402 22.5703 81.6206 22.6401C81.1523 23.0813 80.7725 23.6074 80.5005 24.1902C80.2476 24.8005 79.9111 25.3728 79.5005 25.8901C79.3872 26.0063 79.2598 26.1072 79.1206 26.1902C78.5503 26.5002 78.2603 26.3503 78.0005 25.9402L77.8306 25.6602C77.7217 25.3359 77.7217 24.9846 77.8306 24.6602C77.8589 24.5588 77.8794 24.4551 77.8906 24.3503L77.8906 24.0403C77.8906 23.8804 77.9805 23.7202 78.0405 23.5403C78.186 23.0979 78.3564 22.6638 78.5503 22.2402C78.7549 21.7676 79.0205 21.3237 79.3403 20.9202C79.4561 20.7769 79.583 20.6431 79.7207 20.5203L79.9404 20.3203L80.2505 20.1401C80.6592 19.905 81.1191 19.7747 81.5903 19.7603L81.5903 19.8303Z" fill-rule="evenodd" fill="currentColor"/>
	<path d="M94.5903 32.2903C95.0342 32.4529 95.4419 32.7009 95.7905 33.0203C96.2163 33.3911 96.5254 33.8774 96.6807 34.4204C96.8442 34.9751 96.8442 35.5654 96.6807 36.1204C96.5508 36.5769 96.3184 36.9978 96.0005 37.3503C95.6543 37.7634 95.2295 38.1033 94.7505 38.3503C93.4209 38.8213 91.9976 38.9653 90.6006 38.7703C90.0405 38.7703 89.4902 38.7703 88.9507 38.6604C88.2256 38.646 87.5166 38.4463 86.8906 38.0803C86.6904 37.9404 86.8906 37.6104 87.1104 37.2703C87.3306 36.9304 87.7505 36.5603 88.1104 36.5203C88.7202 36.5203 89.3306 36.3303 89.9307 36.3403C90.5303 36.3503 91.1206 36.3403 91.7202 36.3403C92.3389 36.3445 92.937 36.1201 93.4004 35.7104C93.4731 35.6575 93.5405 35.5972 93.6006 35.5303C93.6606 35.5303 93.6006 35.4504 93.7104 35.4802C93.8203 35.5103 93.8706 35.4802 93.8003 35.4802L93.7104 35.4802C93.7104 35.4802 93.7104 35.4802 93.7104 35.4104C93.5513 35.1987 93.2939 35.0852 93.0303 35.1104C92.2988 35.186 91.6045 35.4707 91.0303 35.9304C90.5205 36.3103 90.1104 36.8604 89.5605 37.3203C89.4453 37.4309 89.3179 37.5283 89.1807 37.6104C88.6504 37.9104 88.3506 37.8003 87.9507 37.2202C87.8604 37.0903 87.7705 36.9604 87.6904 36.8203C87.478 36.4558 87.4414 36.0149 87.5903 35.6204C87.7305 35.3704 87.8804 35.1104 88.0303 34.8704C88.1807 34.6304 88.4004 34.4304 88.6104 34.2104C89.0786 33.7341 89.5986 33.3115 90.1606 32.9504C90.707 32.5854 91.3081 32.3088 91.9404 32.1304C92.8115 31.8889 93.7354 31.917 94.5903 32.2104L94.5903 32.2903Z" fill-rule="evenodd" fill="currentColor"/>
	<path d="M53.7002 87.6804C52.8398 88.1062 51.8647 88.2429 50.9204 88.0703C50.4688 87.9856 50.04 87.8083 49.6602 87.5503C49.291 87.2822 49.001 86.9194 48.8203 86.5005C48.7305 86.2405 48.6201 86.0005 48.54 85.7505L48.4902 85.5603C48.4902 85.4705 48.4902 85.4204 48.4902 85.3503C48.4902 85.2803 48.4902 85.0803 48.4902 84.9404L48.4902 84.5803C48.4902 84.2803 48.6104 84.0005 48.6704 83.7104L48.6704 83.5005C48.7349 83.4546 48.7812 83.3872 48.8003 83.3103C48.8701 83.1804 48.9204 83.0703 48.9805 82.9705C49.2031 82.5989 49.4541 82.2444 49.7305 81.9104C50.2051 81.3228 50.7568 80.8015 51.3701 80.3604C51.8374 80.0059 52.2725 79.6111 52.6704 79.1804C52.9404 78.9604 53.1802 78.7104 53.4004 78.5005L53.5801 78.3403L53.8501 78.2703C54.0435 78.2297 54.2339 78.1763 54.4204 78.1104C54.6802 78.0403 54.8901 78.1104 55.1504 78.5503C55.3198 78.8167 55.4575 79.1018 55.5601 79.4004C55.6152 79.5808 55.6587 79.7644 55.6904 79.9504C55.6904 80.0503 55.6904 80.1304 55.6904 80.2405C55.6704 80.3081 55.6401 80.3723 55.6001 80.4304C55.3354 80.8096 55.041 81.1672 54.7202 81.5005C54.4121 81.7534 54.0767 81.9714 53.7202 82.1504L51.8901 83.0903C51.748 83.1733 51.6167 83.2742 51.5 83.3904C51.4165 83.5078 51.355 83.6401 51.3203 83.7803C51.3057 83.8782 51.2856 83.9749 51.2603 84.0703L51.2603 84.2803L51.2603 84.3503C51.2251 84.5474 51.2886 84.7493 51.4302 84.8904C51.6025 85.0271 51.8213 85.0916 52.04 85.0703C52.2256 85.0742 52.4102 85.0542 52.5903 85.0103C52.792 84.928 52.9731 84.8015 53.1201 84.6404C53.7134 84.0679 54.0908 83.3086 54.1904 82.4905C54.2495 81.7837 54.2295 81.0725 54.1304 80.3704C54.1304 80.2104 54.1304 80.0503 54.1304 79.8804C54.1958 79.3794 54.625 79.0061 55.1304 79.0103C55.25 79.0007 55.3706 79.0007 55.4902 79.0103C55.9316 79.0371 56.3193 79.3125 56.4902 79.7205C56.6772 80.0232 56.79 80.3657 56.8203 80.7205C56.8799 81.0808 56.9131 81.4451 56.9204 81.8103C56.9443 82.6355 56.8364 83.4592 56.6001 84.2505C56.3535 84.9058 56.0132 85.5222 55.5903 86.0803C55.3784 86.3926 55.1372 86.6838 54.8701 86.9504C54.7061 87.1145 54.5288 87.2651 54.3403 87.4004C54.1562 87.5315 53.9619 87.6484 53.7603 87.7505L53.7002 87.6804Z" fill-rule="evenodd" fill="currentColor"/>
	<defs/>
</svg>
