<svg width="24" height="24" viewBox="0 0 110 110" fill="none" xmlns="http://www.w3.org/2000/svg" xmlns:xlink="http://www.w3.org/1999/xlink">
	<path d="M68.3203 70.0525C65.8301 70.3525 63.3203 70.8325 60.8901 71.3826C59.9902 71.5825 59.1201 71.8926 58.2202 72.1025C55.0703 72.9026 51.9302 73.8225 48.8501 74.9224C47.4805 75.4026 46.1401 75.9224 44.8501 76.5625C43.1401 77.2725 41.4902 78.1326 39.7104 78.6824C39.1504 78.8625 39.04 78.4424 39.3003 77.8425C39.6909 77.0288 40.3374 76.365 41.1401 75.9524C44.5566 74.1677 48.1626 72.7722 51.8901 71.7925C53 71.4724 54.1304 71.1326 55.2603 70.7925C56.3901 70.4524 57.5303 70.0725 58.6704 69.7925C61.1802 69.1025 63.7402 68.5925 66.3003 68.1326C67.8901 67.9126 69.4702 67.6426 71.0801 67.5225C73.5029 67.2876 75.937 67.1975 78.3701 67.2524C79.3101 67.3125 80.2505 67.2524 81.1904 67.3625C82.1382 67.4163 83.083 67.5198 84.02 67.6724C84.4302 67.7524 84.8403 67.8025 85.2603 67.8926C85.8281 67.9858 86.3604 68.2312 86.8003 68.6025C87.0537 68.8091 87.2153 69.1072 87.25 69.4324C87.2637 69.5754 87.2637 69.7195 87.25 69.8625C87.25 70.2825 86.4902 70.4424 85.4404 70.3325C82.2593 69.7378 79.0254 69.4763 75.79 69.5525C73.2832 69.6057 70.7817 69.813 68.3003 70.1724L68.3203 70.0525Z" fill-rule="evenodd" fill="currentColor"/>
	<path d="M70.9707 55.8428C70.6377 56.2153 70.2656 56.5505 69.8604 56.8428C69.6304 57.0027 69.3906 57.1626 69.1606 57.3027C68.9204 57.4333 68.6694 57.5437 68.4106 57.6328C67.8071 57.8704 67.1567 57.9663 66.5107 57.9126C65.9199 57.855 65.3442 57.6924 64.8105 57.4326C64.0776 57.0718 63.3784 56.6467 62.7207 56.1626L60.9805 54.8828C60.1606 54.2727 59.2607 53.7227 58.5205 53.1926C55.6367 51.2461 52.5356 49.6421 49.2808 48.4126C47.8076 47.8621 46.2969 47.4175 44.7607 47.0828C42.7803 46.7244 40.8232 46.2468 38.9004 45.6526C38.3105 45.4426 38.4707 44.8528 39.1006 44.3027C39.9209 43.5715 41.0059 43.2097 42.1006 43.3027C44.2334 43.5383 46.3374 43.9871 48.3804 44.6428C50.4463 45.271 52.4541 46.0774 54.3804 47.0527C56.8096 48.1575 59.1499 49.448 61.3804 50.9126C62.5205 51.7427 63.6504 52.5928 64.7607 53.3628C65.2441 53.7197 65.7593 54.0312 66.3008 54.2927C66.6133 54.458 66.9878 54.458 67.3008 54.2927C67.4336 54.2327 67.5576 54.1553 67.6704 54.0627C67.7993 53.9937 67.917 53.906 68.0205 53.8027C68.2881 53.5583 68.5293 53.2869 68.7407 52.9927C69.2344 52.363 69.6758 51.6941 70.0605 50.9927C71.2905 48.7627 72.4507 46.3528 73.6504 43.9927C74.521 42.0852 75.5234 40.2407 76.6504 38.4727C76.8833 38.0527 77.1841 37.6743 77.5405 37.3528C78.9204 36.1726 79.5405 36.0227 80.3203 36.4126C80.4956 36.4863 80.6631 36.5767 80.8203 36.6826C81.2905 37.0728 81.0605 37.8728 80.4707 38.7927C80.1294 39.5625 79.7354 40.3079 79.2905 41.0227C78.8604 41.7427 78.4307 42.4626 78.0205 43.2427C77.1904 44.7627 76.3804 46.3828 75.5703 48.0627C74.9604 49.3127 74.3506 50.5728 73.6606 51.8828C72.9385 53.3069 72.063 54.6479 71.0508 55.8828L70.9707 55.8428Z" fill-rule="evenodd" fill="currentColor"/>
	<path d="M15.0801 32.4626C18.0757 31.0808 21.1396 29.8525 24.2603 28.7825C27.3071 27.7026 30.3701 26.7026 33.4502 25.7825C35.7002 25.1025 37.9004 24.2825 40.1602 23.6826C48.1567 21.5464 56.27 19.877 64.4604 18.6826C68.1104 18.1926 71.7705 17.6826 75.4604 17.3325C77.8394 17.0916 80.2295 16.9814 82.6201 17.0024C83.8394 17.0381 85.0547 17.1482 86.2603 17.3325C87.4888 17.563 88.6841 17.9424 89.8203 18.4626C91.2603 19.1526 90.6602 20.1025 89.2202 21.0125C88.3672 21.5642 87.4751 22.052 86.5503 22.4727C85.481 22.907 84.334 23.1179 83.1802 23.0925C78.6992 23.0757 74.2222 23.363 69.7803 23.9526C65.2505 24.5425 60.6504 25.0825 56.0005 25.7625C50.4404 26.5525 44.8501 28.3525 39.3301 29.9526C33.2705 31.7327 27.2202 33.6526 21.4102 35.9526C20.0205 36.5225 18.6401 37.1226 17.3301 37.7625L16.3301 38.2524L15.9902 38.4426L15.7305 38.5825C15.4302 38.7825 14.9902 39.0024 15.0103 39.4226C14.9902 39.6355 14.9902 39.8496 15.0103 40.0625C15.0103 40.1726 15.0103 40.2825 15.0103 40.3926C15.0103 40.5024 15.0605 40.7625 15.1001 40.9526C15.6104 43.6826 16.4502 46.5825 17.2402 49.4326L19.7202 58.0425C20.9902 62.5225 22.4702 66.8926 23.1704 71.6626C23.3477 72.7219 23.4683 73.7903 23.5303 74.8625C23.5601 75.7314 23.5166 76.6011 23.4004 77.4626C23.2734 78.0754 23.0542 78.6655 22.7505 79.2126C22.3403 79.9912 21.6089 80.5505 20.7505 80.7427C20.4272 80.8586 20.0918 80.9358 19.7505 80.9727C19.2104 80.9727 18.8501 80.5325 18.5801 79.8425C18.2456 78.9128 18.0078 77.9512 17.8701 76.9727C17.5137 73.1433 16.8242 69.3523 15.8105 65.6426C14.8105 61.7227 13.6401 57.7026 12.4102 53.6426C11.7402 51.4126 11.0605 49.1526 10.4102 46.8125C10.1001 45.6326 9.78027 44.4526 9.51025 43.1826L9.31055 42.1826L9.22021 41.6726L9.12012 40.9927C8.95996 39.8682 8.95996 38.7268 9.12012 37.6025L9.29053 37.0425C9.29053 36.9626 9.29053 36.8425 9.43018 36.7825L9.53027 36.5125C9.68652 36.1504 9.89551 35.8135 10.1504 35.5125C10.687 34.9094 11.3027 34.3813 11.9805 33.9426C12.3105 33.7026 12.6401 33.5024 12.9805 33.3025L13.7505 32.9526C14.1704 32.7227 14.5903 32.5024 15.0005 32.3025L15.0801 32.4626Z" fill-rule="evenodd" fill="currentColor"/>
	<path d="M63.5303 73.9526C61.9004 74.2126 60.2705 74.5825 58.6406 74.9526L53.7505 76.1526C52.5503 76.4727 51.4106 76.9226 50.2104 77.2327C48.1104 77.7827 46.0005 78.3726 43.9004 78.9626C41.8003 79.5527 39.7007 80.2227 37.6206 80.9026C35.7705 81.5327 33.9707 82.2827 32.2007 83.0427C29.9775 84.1619 27.627 85.0081 25.2007 85.5627C24.4307 85.7026 24.2007 84.9126 24.4604 83.8525C24.7793 82.5479 25.5884 81.416 26.7207 80.6926C28.958 79.4468 31.3003 78.3997 33.7207 77.5627C36.126 76.646 38.5796 75.8616 41.0703 75.2126C42.5605 74.8027 44.0703 74.3027 45.5503 73.7527C47.0303 73.2026 48.5503 72.6025 50.0303 72.1426C51.5103 71.6826 53.3604 71.1426 55.0303 70.6926L57.5806 70.0427L60.1406 69.4626C61.1904 69.2126 62.2505 69.0227 63.3203 68.8325C64.3906 68.6426 65.4507 68.4326 66.5303 68.2927C69.7959 67.8105 73.0898 67.5435 76.3906 67.4927C78.9404 67.3826 81.4805 67.2627 84.0405 67.3625C84.6006 67.3625 85.1504 67.3625 85.7104 67.4526C87.7104 67.9126 88.3003 68.4526 88.4707 69.7927C88.5278 70.0698 88.5679 70.3503 88.5903 70.6326C88.5903 71.4927 87.5903 72.2527 86.1206 72.4126C85.5771 72.4978 85.0298 72.5547 84.4805 72.5825C83.9404 72.5825 83.4004 72.5825 82.8604 72.5825C81.8003 72.5825 80.7305 72.5825 79.6704 72.5825L78.1406 72.5825L76.5405 72.5825C75.4707 72.5825 74.4004 72.6726 73.3306 72.7327C70.0684 72.9629 66.8247 73.4072 63.6206 74.0627L63.5303 73.9526Z" fill-rule="evenodd" fill="currentColor"/>
	<path d="M72.4404 53.8625C72.2002 54.2627 71.9302 54.6226 71.6802 55.0027C71.4194 55.3545 71.1353 55.6885 70.8301 56.0027L70.3804 56.3926L69.8604 56.6426L69.3403 56.8926C69.2397 56.9231 69.145 56.9702 69.0601 57.0327L68.77 57.0327C67.9722 57.0903 67.1714 56.9778 66.4204 56.7026C65.6104 56.4026 64.79 55.9626 64.0703 55.6125L61.4102 54.2327C60.5601 53.8027 59.7202 53.3826 58.8604 52.9827C57.6201 52.4026 56.3101 51.9827 55.04 51.4727C50.6128 49.4741 45.9922 47.936 41.25 46.8826C39.1289 46.4539 36.9741 46.2129 34.8101 46.1626C33.4302 46.1025 32.0503 46.1626 30.6802 46.1626C29.2886 46.1265 27.8999 46.0164 26.52 45.8328C25.6504 45.6926 25.6802 44.7627 26.3701 43.7227C27.23 42.4067 28.5933 41.5027 30.1401 41.2227C31.645 41.0662 33.1597 41.0293 34.6704 41.1125C36.1802 41.1826 37.6704 41.3027 39.1802 41.4927C42.1855 41.8787 45.144 42.5688 48.0103 43.5527C51.4204 44.7327 55.0903 45.5527 58.4702 46.9927C60.3203 47.7727 62.1504 48.6326 63.9302 49.5327L65.25 50.2227L65.9102 50.5627L66.1602 50.6926L66.3203 50.7927L66.9004 51.1125L67.2002 51.2727C67.3003 51.2727 67.4204 51.3826 67.52 51.2727C67.7319 51.1104 67.9116 50.9104 68.0503 50.6826L68.29 50.3428L68.4102 50.1626L68.6201 49.8127L70.4204 46.6826C72.2402 43.4827 74.25 40.3228 76.3604 37.2527C77.9434 34.7617 79.7222 32.4009 81.6802 30.1926C82.1377 29.6997 82.6255 29.2356 83.1401 28.8027C83.5615 28.4536 84.0171 28.1487 84.5 27.8926C84.8555 27.7249 85.2383 27.623 85.6304 27.5928C86.291 27.5806 86.9209 27.8716 87.3403 28.3826C87.5938 28.6101 87.8247 28.8611 88.0303 29.1326C88.6401 30.0627 88.2002 31.2126 87.2402 32.3127C83.9404 35.6448 81.0532 39.3613 78.6401 43.3826C77.6401 44.9626 76.7104 46.5828 75.7603 48.2527L74.3403 50.7827L73.6104 52.0828L72.5503 53.9526L72.4404 53.8625Z" fill-rule="evenodd" fill="currentColor"/>
	<path d="M84.1406 47.2224L85.4204 43.2224C85.5806 42.7324 85.6104 42.2224 85.7803 41.7524C86.4307 40.0725 87.0503 38.3826 87.8706 36.7524C88.2305 36.0325 88.4604 35.2725 88.8003 34.5325C88.9766 34.0337 89.1978 33.5518 89.4604 33.0925C89.5918 32.8547 89.7456 32.6304 89.9204 32.4226C90.126 32.2134 90.3467 32.0195 90.5806 31.8425C90.8804 31.6226 91.2402 32.0725 91.5806 32.6526C91.7388 32.9402 91.8789 33.2373 92.0005 33.5425C92.123 33.783 92.1685 34.0554 92.1304 34.3225C91.771 36.114 91.2559 37.8706 90.5903 39.5725C90.1816 40.6907 89.9194 41.8569 89.8105 43.0425L88.9307 46.9524C88.7705 47.7524 88.6206 48.5625 88.4902 49.3726C88.2251 50.5837 88.0581 51.8145 87.9902 53.0525C88.0049 53.5356 88.0547 54.0168 88.1406 54.4924C88.1904 54.9724 88.2603 55.4924 88.3003 55.9126C88.3354 56.1143 88.3354 56.3206 88.3003 56.5225C88.1606 57.2725 87.8105 57.5225 86.7905 57.6726L86.1006 57.7825C85.3955 57.8616 84.7056 57.5415 84.3105 56.9524C83.769 56.105 83.3955 55.1611 83.2104 54.1726C83.1006 53.239 83.1006 52.2959 83.2104 51.3625C83.3525 49.9756 83.5996 48.6018 83.9507 47.2524L84.1406 47.2224Z" fill-rule="evenodd" fill="currentColor"/>
	<defs/>
</svg>
