<svg width="24" height="24" viewBox="0 0 110 110" fill="none" xmlns="http://www.w3.org/2000/svg" xmlns:xlink="http://www.w3.org/1999/xlink">
	<path d="M27.9556 32.8394C31.4883 34.958 35.1641 36.8291 38.9556 38.4395L44.8555 41.0195L50.7554 43.6396C53.6357 44.8994 56.5854 46.0195 59.4556 47.3896C64.5786 49.7905 69.5361 52.5298 74.2954 55.5894C76.7642 57.1572 79.0835 58.9482 81.2256 60.9395C83.5269 62.9727 85.3999 65.4443 86.7354 68.2095L87.1655 69.2095C87.2954 69.5396 87.3857 69.8994 87.4956 70.2095C87.6055 70.5195 87.7153 70.8994 87.7954 71.2095L87.9653 72.3096C88.0737 73.0645 88.104 73.8281 88.0557 74.5894C87.9941 75.3369 87.8774 76.0791 87.7056 76.8096C87.4956 77.5195 87.1953 78.1992 86.9253 78.8794L85.8354 80.7192L84.5654 82.3594C84.0928 82.8838 83.5815 83.3716 83.0356 83.8193C81.6265 84.9507 80.0044 85.7876 78.2656 86.2793C76.6084 86.7422 74.896 86.9741 73.1753 86.9692C69.9062 86.9023 66.666 86.3389 63.5654 85.2993C61.6753 84.6992 62.0654 84.2192 63.8154 83.8394C64.6855 83.6294 65.9053 83.4492 67.3257 83.2393C68.7456 83.0293 70.3257 82.8296 71.9556 82.7192C74.5435 82.6572 77.0483 81.7939 79.1255 80.2495C79.3257 80.0493 79.5356 79.8794 79.7354 79.6792C79.9355 79.4795 80.0854 79.2593 80.2754 79.0493C80.5957 78.5596 80.9756 78.0493 81.2754 77.5493C81.5312 77.0806 81.7324 76.584 81.8755 76.0693L81.9756 75.7192C82.0288 75.6099 82.0591 75.4907 82.0654 75.3696C82.0654 75.1426 82.0957 74.9126 82.1553 74.6792C82.1968 73.6904 82.0229 72.7046 81.6455 71.7896C81.1543 70.6729 80.5371 69.6157 79.8057 68.6396C78.0889 66.3486 76.0708 64.2998 73.8057 62.5493C70.7998 60.2744 67.5815 58.2954 64.1953 56.6396C60.7554 54.9092 57.1953 53.3496 53.6157 51.7593L41.7954 46.5894C37.8555 44.8696 33.7954 43.1992 29.7954 41.1895C24.9355 38.7295 20.0654 35.7793 16.1455 31.5493C15.9556 31.3496 15.7754 31.1694 15.5757 30.9395C15.3755 30.7095 15.1753 30.4692 15.0054 30.2192C14.6299 29.7173 14.2954 29.1855 14.0054 28.6294C13.3994 27.458 13.0576 26.1675 13.0054 24.8496C12.9448 23.3838 13.3857 21.9409 14.2554 20.7593C14.4795 20.4722 14.7197 20.1987 14.9756 19.9395C15.2295 19.7046 15.4966 19.4844 15.7754 19.2793C16.2588 18.9434 16.7598 18.6328 17.2754 18.3496C19.272 17.3223 21.4302 16.646 23.6553 16.3496C25.7593 16.062 27.8833 15.9517 30.0054 16.0195C36.3232 16.2617 42.606 17.0781 48.7754 18.4595C50.1157 18.7495 51.4355 18.9893 52.7754 19.3394C54.5186 19.7256 56.2007 20.3477 57.7754 21.1895C58.6016 21.7041 59.2559 22.4521 59.6553 23.3394C59.8418 23.6611 60.0054 23.9951 60.1455 24.3394C60.2754 24.8794 59.7856 25.2295 58.7554 25.4595C57.2891 25.7432 55.7817 25.7432 54.3154 25.4595C48.8555 24.5996 43.4355 23.4595 37.9854 22.7495C35.3335 22.3818 32.6621 22.1685 29.9854 22.1094C27.5234 22.0278 25.062 22.2969 22.6753 22.9092C21.936 23.1182 21.2192 23.3994 20.5356 23.7495C20.2251 23.9014 19.9272 24.0786 19.6455 24.2793C19.3755 24.4595 19.4756 24.4194 19.4355 24.4194C19.4355 24.4194 19.4355 24.4194 19.4355 24.5596C19.4702 24.9858 19.6001 25.3994 19.8154 25.7695C19.9531 26.0205 20.1143 26.2578 20.2954 26.4795L20.4453 26.6592L20.6753 26.9092L21.1455 27.4092C21.4453 27.7495 21.7954 28.0596 22.1455 28.4092C22.4956 28.7593 22.8257 29.0493 23.1953 29.3394C24.6904 30.5938 26.2896 31.7178 27.9756 32.6992L27.9556 32.8394Z" fill-rule="evenodd" fill="currentColor"/>
	<path d="M65.3257 64.3794C66.3608 65.1235 67.2861 66.0088 68.0757 67.0093C69.0864 68.3516 69.4526 70.0718 69.0757 71.7095C69.0757 71.8594 69.0156 71.9995 68.9658 72.1396L68.7856 72.5493L68.4258 73.3594C68.1411 73.8716 67.8062 74.354 67.4258 74.7993L66.1455 75.7393C65.9058 75.8594 65.6558 75.9395 65.4258 76.0493C65.1958 76.1597 65.0356 76.1992 64.8354 76.2793C64.1323 76.4976 63.4087 76.645 62.6758 76.7192C61.3457 76.8564 60.0054 76.8564 58.6758 76.7192C57.5654 76.5894 56.4956 76.5894 55.4058 76.4492C54.0186 76.3887 52.644 76.1538 51.3154 75.7495C50.9058 75.6094 50.9858 75.1797 51.3857 74.7495C51.8643 74.1533 52.5366 73.7427 53.2856 73.5894C55.8887 73.2046 58.5146 72.9941 61.1455 72.9595C61.499 72.9521 61.8511 72.9082 62.1958 72.8296C62.5117 72.7354 62.8198 72.6152 63.1157 72.4692C63.4155 72.2695 63.4658 72.2993 63.5854 72.1797C63.6992 72.0942 63.8062 72.001 63.9058 71.8994C64.1763 71.6431 64.2974 71.2656 64.2256 70.8994C64.2192 70.8047 64.1919 70.7124 64.1455 70.6294C64.1079 70.5171 64.0503 70.4121 63.9756 70.3193C63.7759 70.0405 63.5479 69.7822 63.2959 69.5493C62.522 68.8525 61.6694 68.2485 60.7559 67.7495C59.2822 66.9004 57.7363 66.1841 56.1357 65.6094C54.8755 65.1694 53.5059 65.1597 52.2158 64.8096C51.9355 64.7393 51.6357 64.6992 51.3555 64.5996C50.9258 64.5366 50.5444 64.2896 50.312 63.9224C50.0791 63.5552 50.0186 63.105 50.1455 62.6895C50.1597 62.438 50.1899 62.1875 50.2358 61.9395C50.4478 61.1875 51.1069 60.6484 51.8857 60.5894C53.1826 60.4043 54.499 60.4043 55.7959 60.5894C57.1118 60.7949 58.4092 61.106 59.6758 61.5195C60.6704 61.7842 61.6382 62.1421 62.5654 62.5894C63.5469 63.0796 64.4985 63.6274 65.4155 64.2295L65.3257 64.3794Z" fill-rule="evenodd" fill="currentColor"/>
	<defs/>
</svg>
