<svg width="24" height="24" viewBox="0 0 110 110" fill="none" xmlns="http://www.w3.org/2000/svg" xmlns:xlink="http://www.w3.org/1999/xlink">
	<path d="M41.4966 70.8181C39.0269 70.5229 36.644 69.7231 34.4966 68.468C33.7246 68.041 32.9858 67.5564 32.2866 67.0181C29.9312 65.1035 27.9043 62.8167 26.2866 60.248C25.5664 59.1382 24.8667 58.0181 24.2866 56.8782C23.4468 55.4321 22.7402 53.9124 22.1763 52.3381C21.8066 51.3381 22.9663 52.3381 23.9165 53.928C25.5674 56.7991 27.4858 59.5078 29.6465 62.0181C30.979 63.5076 32.5508 64.7649 34.2964 65.738C35.2324 66.282 36.2085 66.7532 37.2163 67.1482C38.2124 67.5566 39.248 67.8616 40.3066 68.0581C41.6226 68.3201 42.9678 68.4075 44.3066 68.3181C46.3457 68.2185 48.3491 67.7441 50.2163 66.9182C51.5996 66.21 52.8813 65.3186 54.0264 64.2681C54.2964 64.0681 54.5166 63.8181 54.7764 63.6082C55.7764 62.7981 56.1167 62.6082 56.7764 62.8882C56.9365 62.948 57.1064 62.988 57.2466 63.0581C57.7065 63.2881 57.6763 64.0581 57.0566 64.8982C55.2764 67.6182 52.1665 69.3281 48.9565 70.2881C46.5254 70.9883 43.9819 71.209 41.4663 70.938L41.4966 70.8181Z" fill-rule="evenodd" fill="currentColor"/>
	<path d="M62.9365 18.6179L64.6465 18.918C65.2192 19.051 65.7837 19.218 66.3369 19.418C67.4458 19.7812 68.5171 20.25 69.5366 20.8181C70.2622 21.2285 70.9668 21.6758 71.6465 22.158C73.7305 24.063 75.4277 26.3513 76.6465 28.8979L77.0869 29.688L77.4766 30.498C77.7646 31.0173 78.0249 31.5513 78.2568 32.0979C78.5366 32.7981 78.8467 33.488 79.1069 34.198C79.3467 34.9221 79.5273 35.6646 79.6465 36.418C79.7065 36.8879 79.2666 36.958 78.6465 36.7581C77.9097 36.5166 77.2759 36.0339 76.8467 35.3879C76.4868 34.7581 76.0767 34.158 75.7168 33.5381C75.5469 33.228 75.3267 32.938 75.1465 32.6379L74.6465 31.718C73.9668 30.498 73.2666 29.3081 72.5269 28.1379C72.3193 27.7693 72.0601 27.4326 71.7568 27.1379C71.4766 26.8379 71.1865 26.5281 70.877 26.248L69.877 25.5181L69.377 25.1479L68.8467 24.8379C67.354 23.8335 65.668 23.1521 63.8965 22.8379L62.2065 22.5979L60.4766 22.5979C60.0337 22.5967 59.5913 22.6401 59.1567 22.728L57.8369 22.918C56.959 23.1028 56.0938 23.3433 55.2466 23.6379C54.5898 23.8831 53.96 24.1946 53.3667 24.5681C52.7666 24.928 52.1567 25.238 51.5767 25.658C51.3325 25.8398 51.0752 26.0037 50.8066 26.1479C49.8066 26.658 49.3169 26.5581 48.6167 25.8181C48.4565 25.6479 48.2769 25.488 48.1367 25.3081C47.6729 24.6455 47.8091 23.7356 48.4468 23.238C48.9419 22.7214 49.4697 22.2371 50.0269 21.7881C50.6143 21.374 51.229 20.9998 51.8667 20.668C52.5103 20.2905 53.1787 19.9563 53.8667 19.668C54.5669 19.408 55.2969 19.208 56.0269 18.998C57.1445 18.7441 58.2764 18.5571 59.4165 18.438C59.9966 18.438 60.5869 18.438 61.1768 18.438C61.7642 18.4167 62.3525 18.4402 62.9365 18.5081L62.9365 18.6179Z" fill-rule="evenodd" fill="currentColor"/>
	<path d="M33.2964 65.3081C35.6387 67.4622 38.564 68.8779 41.7065 69.3779C42.8086 69.4797 43.9194 69.426 45.0063 69.218C48.8965 68.748 52.7964 65.918 55.6465 62.3081C56.8765 60.6709 57.8853 58.8789 58.6465 56.978C59.6465 54.5281 60.1865 51.978 61.0264 49.468C61.2964 48.678 62.1963 48.8679 63.0264 49.738C64.0581 50.8665 64.4893 52.4194 64.1865 53.918C62.9624 60.0125 59.7129 65.5139 54.9663 69.5281C53.4663 70.7603 51.8677 71.8674 50.1865 72.8381C48.4106 73.8445 46.459 74.5029 44.4365 74.7781C42.2266 75.0415 39.9858 74.8613 37.8467 74.248C35.7993 73.6619 33.8462 72.7864 32.0464 71.6479C29.9087 70.2798 27.9448 68.658 26.1963 66.8181C23.644 64.054 21.4902 60.9475 19.7964 57.5881C18.3667 55.0471 17.2007 52.3665 16.3164 49.5881C16.1123 48.9626 15.9487 48.3247 15.8267 47.678C15.4365 45.218 16.0767 44.3579 17.6167 43.908C17.9517 43.769 18.2959 43.6521 18.6465 43.5581C19.8667 43.408 20.8066 44.3081 21.3667 45.698C22.7451 49.8923 24.6255 53.9048 26.9663 57.6479C28.6494 60.5085 30.8105 63.0588 33.3564 65.188L33.2964 65.3081Z" fill-rule="evenodd" fill="currentColor"/>
	<path d="M9.64648 37.8381C10.999 35.02 13.4224 32.8596 16.3765 31.8381L16.5664 31.8381C17.2466 31.6716 17.9492 31.6177 18.6465 31.678C19.0044 31.7185 19.3589 31.7854 19.7065 31.8779C19.8765 31.938 20.0664 31.988 20.2168 32.0481L20.6167 32.238C22.1089 33.0818 23.4673 34.1436 24.6465 35.3879C25.7368 36.478 26.7368 37.5581 27.7568 38.6079C28.647 39.5139 29.603 40.3528 30.6167 41.1179C31.8965 42.1179 33.1865 42.928 34.3164 43.918C34.6567 44.218 34.3867 44.918 33.6567 45.418C32.8091 46.0459 31.6982 46.1934 30.7168 45.8081C29.1123 45.0237 27.605 44.0537 26.2266 42.918C24.9277 41.8652 23.6987 40.7295 22.5469 39.5181C21.8828 38.8416 21.1289 38.2593 20.3066 37.7881C19.938 37.5701 19.5532 37.3796 19.1567 37.218L18.6465 37.0081C18.5488 36.9839 18.4546 36.9468 18.3667 36.8979C18.1875 36.8328 17.9956 36.812 17.8066 36.8381C17.5908 36.8984 17.3804 36.9753 17.1768 37.0681C16.9214 37.2056 16.6772 37.3625 16.4468 37.5381C15.9277 37.9561 15.4727 38.448 15.0967 38.998C14.3901 40.0286 13.8096 41.1396 13.3667 42.3081C12.6367 44.2017 12.1528 46.1812 11.9268 48.198C11.8433 49.7727 11.8936 51.3518 12.0767 52.918C12.0767 53.2681 12.1465 53.6079 12.1367 53.918C12.0864 55.208 11.7666 55.6179 10.5767 55.918C10.3066 55.978 10.0366 56.0581 9.7666 56.0979C8.82812 56.2061 7.96191 55.5823 7.7666 54.658C7.28271 53.158 7.02637 51.594 7.00684 50.0181C6.91504 45.8057 7.76953 41.6265 9.50684 37.7881L9.64648 37.8381Z" fill-rule="evenodd" fill="currentColor"/>
	<path d="M69.3965 25.718C67.2754 23.7546 64.5332 22.5977 61.6465 22.448C61.1167 22.448 60.5869 22.448 60.0566 22.5281C59.5269 22.6079 59.0566 22.748 58.4766 22.7881C54.4121 23.6868 50.7754 25.9441 48.1665 29.188C47.5239 29.9197 46.9326 30.6948 46.3965 31.5081C45.8965 32.3579 45.3965 33.178 44.9268 34.0581C43.7568 36.2881 42.9268 38.658 41.627 40.8879C41.2168 41.5781 40.3867 41.188 39.7568 40.228C38.9785 39.0459 38.7798 37.5742 39.2168 36.228C40.1826 33.5798 41.4399 31.0476 42.9668 28.678C44.5376 26.2117 46.5317 24.0417 48.8569 22.2681C49.5869 21.7581 50.2969 21.208 51.0469 20.698C51.7969 20.188 52.5566 19.698 53.4067 19.2581L54.6465 18.5681L55.9668 18.0281C56.8516 17.6868 57.7651 17.4255 58.6968 17.248C62.8335 16.55 67.0835 17.3362 70.6968 19.468C72.791 20.7532 74.6733 22.3557 76.2769 24.218C78.564 26.9766 80.4155 30.0691 81.7666 33.3879C82.939 35.8633 83.9121 38.4282 84.6768 41.0581C84.8623 41.6362 85.0029 42.228 85.0967 42.8281C85.1821 43.303 85.2188 43.7856 85.2065 44.2681C85.1748 44.6169 85.0762 44.9563 84.9165 45.2681C84.5669 45.833 83.9985 46.2278 83.3467 46.3579C83.02 46.479 82.686 46.5791 82.3467 46.658C81.0645 46.7532 79.9014 45.9072 79.5967 44.658C78.8369 42.658 78.1567 40.658 77.3667 38.658C76.5767 36.658 75.6465 34.8281 74.7168 32.918C73.4097 30.2085 71.5732 27.7876 69.3169 25.7981L69.3965 25.718Z" fill-rule="evenodd" fill="currentColor"/>
	<path d="M91.377 50.438C90.7358 51.7615 89.8384 52.9443 88.7368 53.918C88.3965 54.178 88.0566 54.428 87.7368 54.658C87.4165 54.8879 86.9966 55.0281 86.6167 55.198C86.2231 55.3442 85.8188 55.458 85.4067 55.5381L84.7969 55.678L84.1865 55.678C83.6147 55.7339 83.0386 55.7339 82.4668 55.678L81.6465 55.5481C81.3911 55.4851 81.1431 55.3948 80.9067 55.2781C79.4253 54.5916 78.0986 53.6118 77.0068 52.3979C76.0103 51.3521 75.1069 50.2209 74.3066 49.0181C73.5967 48.0181 72.8867 47.0181 72.2065 46.0181C71.2314 44.7327 70.6045 43.217 70.3867 41.6179C70.3867 41.0981 71.0767 40.978 71.9365 41.0781C72.3804 41.1313 72.8164 41.2354 73.2368 41.3879C73.6299 41.5007 73.9785 41.731 74.2368 42.0481C75.877 44.228 77.5366 46.418 79.2368 48.468C80.1899 49.5605 81.4951 50.2856 82.9268 50.5181C83.436 50.688 83.9873 50.688 84.4966 50.5181C85.0913 50.3049 85.5957 49.896 85.9268 49.3582C86.5352 48.4221 87.0259 47.4146 87.3867 46.3582C88.0166 44.6179 88.6665 42.748 89.1968 40.8779C89.6069 39.418 89.7969 37.8779 90.1968 36.408C90.2729 36.0691 90.3696 35.7351 90.4868 35.408C91.0166 34.2581 91.4868 34.0381 92.6768 34.3181C92.9468 34.3879 93.2168 34.438 93.4668 34.5281C94.3057 34.8186 94.8379 35.644 94.7568 36.5281C94.7124 37.8237 94.5483 39.1125 94.2666 40.3779C94.0269 41.658 93.7168 42.8979 93.4067 44.218C92.9194 46.3704 92.2705 48.4829 91.4668 50.5381L91.377 50.438Z" fill-rule="evenodd" fill="currentColor"/>
	<defs/>
</svg>
