<svg width="24" height="24" viewBox="0 0 110 110" fill="none" xmlns="http://www.w3.org/2000/svg" xmlns:xlink="http://www.w3.org/1999/xlink">
	<path d="M82.3535 57.9492C81.5347 57.2788 80.9043 56.4067 80.5234 55.4194C80.3481 55.0459 80.2461 54.6416 80.2236 54.2295C80.3047 52.9609 80.9839 51.8062 82.0537 51.1191C82.4238 50.8794 82.7236 50.6494 83.0537 50.4292C83.3818 50.1191 83.7905 49.9077 84.2334 49.8193C84.3838 49.8193 84.6436 50.1392 84.8237 50.5693C85.0034 50.9995 85.1235 51.5693 84.9639 51.7495C84.6226 52.293 84.2051 52.7847 83.7236 53.2095C83.4834 53.3193 83.7236 53.5894 83.7935 53.6592C83.813 53.9121 83.9272 54.1479 84.1138 54.3193C84.6089 54.8208 85.2793 55.1108 85.9834 55.1294C86.1763 55.0981 86.3604 55.0269 86.5234 54.9194C86.6738 54.8491 86.7935 54.7393 86.9038 54.6895C87.0137 54.6392 86.9834 54.5894 87.0337 54.5894C87.3652 54.9272 87.6357 55.3193 87.8335 55.7495L88.1235 56.2095C88.4507 56.6899 88.5107 57.3042 88.2837 57.8394C88.1431 58.2095 87.896 58.5298 87.5737 58.7593C87.2983 58.9756 87 59.1602 86.6836 59.3096C86.0767 59.4648 85.4404 59.4648 84.8335 59.3096C83.936 59.0615 83.0942 58.644 82.3535 58.0791L82.3535 57.9492Z" fill-rule="evenodd" fill="currentColor"/>
	<path d="M13.2734 34.1592C13.1099 33.584 12.9995 32.9946 12.9438 32.3994C12.9438 32.0991 12.9438 31.7993 12.9438 31.499C12.9307 31.2036 12.9575 30.9077 13.0234 30.6191C13.0439 30.1787 13.1182 29.7422 13.2437 29.3193C13.7739 27.9492 14.7222 26.7808 15.9536 25.979C16.2139 25.8091 16.4336 25.6094 16.6938 25.4492L17.4839 25.0493C18.1235 24.6768 18.8442 24.4644 19.5835 24.4292C19.8237 24.4292 19.8735 24.749 19.8237 25.1592C19.7925 25.5874 19.624 25.9941 19.3438 26.3193L18.9536 26.5894L18.6235 26.9092C18.4136 27.1294 18.1836 27.2993 17.9839 27.499C17.7759 27.6748 17.5552 27.8354 17.3237 27.979C17.1035 28.1392 16.9238 28.3291 16.6836 28.499C16.4375 28.7207 16.249 28.9985 16.1338 29.3091C16.0337 29.6392 15.9639 29.959 15.8638 30.3091C15.6982 31.0566 15.6982 31.8315 15.8638 32.5791C15.9023 32.8198 15.9692 33.0547 16.0635 33.2793L16.1836 33.6294L16.3638 33.9492C16.6943 34.6333 17.1978 35.2192 17.8237 35.6494C18.0806 35.7798 18.3525 35.877 18.6338 35.939C18.9097 35.9727 19.1836 36.0229 19.4536 36.0894C19.5703 36.0996 19.687 36.0996 19.8037 36.0894C20.2339 36.1694 20.3638 36.3794 20.4639 36.979C20.4639 37.1191 20.5234 37.2593 20.5435 37.3994C20.6177 37.8633 20.314 38.3037 19.8535 38.3994C19.4722 38.5405 19.0703 38.6187 18.6636 38.6294C18.2456 38.6821 17.8213 38.6377 17.4238 38.499C17.0249 38.3618 16.6372 38.1943 16.2637 37.999C15.9238 37.769 15.5737 37.519 15.2637 37.2593C14.3423 36.4146 13.6533 35.3467 13.2637 34.1592L13.2734 34.1592Z" fill-rule="evenodd" fill="currentColor"/>
	<path d="M23.5239 37.4795C20.9419 39.1279 17.7734 39.5796 14.834 38.7192C13.7466 38.4526 12.7256 37.9658 11.834 37.2896C10.2402 36.0366 9.22852 34.187 9.03369 32.1694C8.85986 30.2944 9.35986 28.4189 10.4438 26.8794C11.3901 25.6221 12.7319 24.7202 14.2539 24.3193C16.0068 23.8022 17.8848 23.9009 19.5737 24.5991C20.0737 24.8193 19.9038 25.0894 19.4136 25.3691C18.7505 25.7393 18.0498 26.0376 17.3237 26.2593C16.0776 26.4917 14.9658 27.1885 14.2139 28.2095C13.9839 28.6494 13.7036 28.9395 13.5039 29.3892C13.2808 29.8525 13.1353 30.3491 13.0737 30.8594C13.0278 31.1938 13.0518 31.5347 13.144 31.8594C13.2061 32.1777 13.3247 32.4824 13.4937 32.7593C13.8604 33.3062 14.3545 33.7559 14.9336 34.0693C16.4497 34.8872 18.2476 35.0005 19.854 34.3794C20.8633 34.0239 21.7305 33.3501 22.3237 32.4595C22.748 31.8257 22.9775 31.082 22.9839 30.3193C22.918 29.5723 22.5586 28.8813 21.9839 28.3994C20.9087 27.6045 19.6494 27.0952 18.3237 26.9194L17.4438 26.8296C17.0361 26.8105 16.6416 26.6787 16.3037 26.4492C16.0391 26.1538 15.8262 25.8159 15.6738 25.4492C15.5938 25.2593 15.4839 25.0894 15.4238 24.9292C15.3203 24.6265 15.3936 24.2915 15.6138 24.0596C15.7539 23.8594 15.9185 23.6782 16.104 23.5195C16.3247 23.3462 16.5864 23.2324 16.8638 23.1895C18.6997 22.7622 20.6182 22.8555 22.4038 23.4595C23.4194 23.7891 24.3467 24.3462 25.1138 25.0894C26.0347 25.9463 26.7402 27.0083 27.1738 28.1895C27.5112 29.1514 27.6377 30.1743 27.5439 31.1895C27.4644 32.1021 27.2202 32.9932 26.8237 33.8193C26.1196 35.3604 25.0059 36.6782 23.604 37.6294L23.5239 37.4795Z" fill-rule="evenodd" fill="currentColor"/>
	<path d="M45.3438 51.9893C42.311 52.2261 39.313 51.2144 37.0435 49.189C36.1006 48.394 35.3916 47.3569 34.9937 46.189C34.481 44.2842 34.7173 42.2554 35.6538 40.519C36.0459 39.771 36.5225 39.0698 37.0737 38.4292C37.6279 37.8394 38.249 37.3159 38.9238 36.8691C40.0771 36.041 41.3818 35.4463 42.7637 35.1191C44.5708 34.6968 46.4678 35.2505 47.7637 36.5791C48.1338 36.979 47.8335 37.209 47.2534 37.4189C46.6738 37.6289 45.8135 37.9492 45.2534 38.0889L44.8438 38.1792L44.4238 38.3193C44.3052 38.3691 44.1914 38.4292 44.0835 38.499C43.9648 38.5308 43.8506 38.5781 43.7437 38.6392C43.3003 38.8521 42.8838 39.1172 42.5034 39.4292C41.7271 40.1494 40.9897 40.9106 40.2935 41.709C39.896 42.1528 39.6689 42.7236 39.6538 43.3193C39.6646 43.7676 39.792 44.2051 40.0234 44.5889C40.3218 45.0898 40.7598 45.4932 41.2837 45.749C41.9595 46.124 42.6982 46.3711 43.4634 46.479C44.23 46.6406 45.0293 46.4893 45.6836 46.0591C46.1133 45.7026 46.3892 45.1938 46.4536 44.6392C46.5796 43.9185 46.5 43.1768 46.2236 42.499C45.8218 41.4829 45.0024 40.6885 43.9736 40.3193C43.8823 40.2925 43.7852 40.2925 43.6938 40.3193C43.6938 40.3193 43.6938 40.3193 43.6938 40.1992C43.7007 40.1763 43.7007 40.1519 43.6938 40.1289C43.7031 40.0693 43.7031 40.0088 43.6938 39.9492C43.645 39.7236 43.5679 39.5049 43.4634 39.2993C43.3438 39.0391 43.1938 38.729 43.0337 38.439C42.8921 38.1929 42.7354 37.9556 42.5635 37.729C42.3066 37.313 42.2407 36.8066 42.3838 36.3389C42.54 35.5308 43.231 34.9351 44.0537 34.8989C45.418 34.7222 46.8008 35.0376 47.9536 35.7891C48.8633 36.3926 49.6504 37.1631 50.2734 38.0591C50.8496 38.8701 51.3076 39.7593 51.6338 40.6992C51.8022 41.1992 51.936 41.7104 52.0337 42.229C52.4897 44.6792 51.9224 47.2085 50.4634 49.229C49.8101 50.062 48.9849 50.7441 48.0435 51.229C47.2065 51.6562 46.3042 51.9404 45.3735 52.0693L45.3438 51.9893Z" fill-rule="evenodd" fill="currentColor"/>
	<path d="M37.3135 71.8589C36.8662 72.9556 36.104 73.895 35.1235 74.5591C34.8931 74.7227 34.6489 74.8667 34.3936 74.9893L34.0239 75.1592L33.6836 75.269C33.2378 75.4243 32.7793 75.5415 32.3135 75.6191L31.1836 75.7793C30.7607 75.7759 30.3384 75.7324 29.9238 75.6489C29.1709 75.4248 28.4839 75.02 27.9238 74.4692C27.6597 74.2305 27.4453 73.9414 27.2939 73.6191C27.125 73.335 26.9971 73.0288 26.9136 72.709C26.6089 71.6235 26.6089 70.4746 26.9136 69.3892C27.1133 68.5 27.4761 67.6558 27.9839 66.8989C28.564 65.8579 29.6255 65.1753 30.8135 65.0791C31.1738 65.0791 31.2139 65.5693 31.1636 66.1792C31.1538 66.7026 31.0664 67.2217 30.9038 67.7192C30.3413 68.6528 30.1055 69.7466 30.2339 70.8291C30.2417 70.9653 30.2793 71.0986 30.3438 71.2192L30.4536 71.3091C30.4536 71.3091 30.4536 71.3892 30.5337 71.3892C30.5605 71.3999 30.585 71.417 30.6035 71.439C30.6035 71.439 30.6738 71.439 30.6938 71.439C30.7139 71.439 30.8335 71.439 30.9038 71.439C30.9736 71.439 31.1836 71.439 31.3335 71.439C31.4839 71.439 31.7236 71.3091 31.9336 71.269C32.2334 71.1914 32.502 71.0239 32.7036 70.7891C32.999 70.4214 33.1548 69.9609 33.1436 69.4893C33.2124 68.6729 32.8984 67.8716 32.2939 67.3193C32.1543 67.1846 31.9331 67.1846 31.7939 67.3193C31.7139 67.4492 31.7437 67.6289 31.6836 67.749C31.6553 67.8252 31.6147 67.896 31.5635 67.959C31.4976 68.0063 31.4229 68.04 31.3438 68.0591C31.2085 68.0386 31.0771 67.998 30.9536 67.939C30.5435 67.748 30.146 67.5308 29.7637 67.2891L29.1738 66.939C28.8672 66.7393 28.6221 66.459 28.4639 66.1289C28.2036 65.7231 28.1167 65.2295 28.2236 64.7593C28.5215 64.042 29.0132 63.4224 29.6436 62.9692C30.542 62.4204 31.5991 62.1914 32.6436 62.3193C33.6772 62.4717 34.644 62.9238 35.4238 63.6191C36.0586 64.1528 36.5879 64.8003 36.9839 65.5293C37.4976 66.4839 37.8008 67.5376 37.8735 68.6191C37.9624 69.729 37.8086 70.8447 37.4238 71.8892L37.3135 71.8589Z" fill-rule="evenodd" fill="currentColor"/>
	<path d="M65.6738 62.7988C65.1968 63.0146 64.6919 63.1631 64.1738 63.2393L63.4038 63.3291L62.624 63.229C62.1055 63.1655 61.6035 63.0063 61.144 62.7588L60.7939 62.6089L60.5239 62.3789C60.3154 62.23 60.1147 62.0698 59.9238 61.8989C59.3237 61.4282 58.8438 60.8213 58.5239 60.1289C58.2969 59.5537 58.1914 58.9375 58.2139 58.3188C58.2266 57.8271 58.29 57.3379 58.4038 56.8589C58.5923 55.9697 58.9126 55.1138 59.354 54.3188C59.7168 53.6152 60.167 52.96 60.6938 52.3691C61.0801 51.9165 61.5972 51.5947 62.1738 51.4492C62.8115 51.2993 63.4819 51.459 63.9839 51.8789C64.2637 52.1392 63.9238 52.4692 63.5439 52.8789C63.3462 53.0601 63.1807 53.2729 63.0537 53.5088C62.9717 53.6665 62.9307 53.8418 62.9341 54.019C62.9341 54.1689 62.9341 54.2192 62.7739 54.3789C62.6235 54.5728 62.4863 54.7764 62.3638 54.9893C62.0654 55.5386 61.8018 56.1064 61.5737 56.689C61.4463 57.0317 61.4292 57.4058 61.5239 57.7588C61.5596 57.9438 61.6133 58.1245 61.6841 58.2988C61.8877 58.7505 62.3291 59.0488 62.8237 59.0688C63.1938 59.0776 63.5527 58.9414 63.8237 58.689C64.3032 58.291 64.4795 57.6338 64.2637 57.0488C64.0239 56.5991 63.334 56.5591 62.9541 56.6392C62.8721 56.6704 62.7886 56.6973 62.7041 56.7192C62.3838 56.7192 62.374 56.4292 62.374 55.2192L62.374 54.3789C62.374 53.439 62.7637 52.729 63.6138 52.5991C64.2847 52.5029 64.9688 52.561 65.6138 52.769C65.9702 52.8413 66.3096 52.9805 66.6138 53.1792C66.9312 53.3403 67.2241 53.5459 67.4839 53.7891C68.5801 54.7646 69.1758 56.1836 69.104 57.6489C69.1177 57.918 69.0903 58.188 69.0239 58.4492C68.9824 58.7188 68.9258 58.9858 68.854 59.249C68.6797 59.7622 68.4448 60.252 68.1538 60.709C67.5762 61.6226 66.7739 62.373 65.8237 62.8892L65.6738 62.7988Z" fill-rule="evenodd" fill="currentColor"/>
	<path d="M66.084 22.6094C66.1963 22.9824 66.5562 23.2246 66.9438 23.189C67.104 23.189 67.0742 22.939 67.2041 22.8892C67.6841 22.6689 67.6938 21.8892 67.0439 21.269C66.978 21.1899 66.8965 21.1255 66.8042 21.0791C66.6748 20.9731 66.5342 20.8828 66.3843 20.8091C66.0923 20.6494 65.7788 20.5312 65.4541 20.459C65.124 20.3936 64.7842 20.3936 64.4541 20.459C64.3779 20.4707 64.3003 20.4707 64.2241 20.459C64.1582 20.5005 64.0879 20.5342 64.0142 20.5591C63.834 20.5591 63.6938 20.7393 63.4941 20.8394C63.2939 20.939 62.7339 20.7393 62.4141 20.1392C62.229 19.7749 62.1562 19.3647 62.2041 18.959C62.2983 18.4438 62.5977 17.9893 63.0342 17.6992C63.2539 17.5791 63.4839 17.4492 63.7139 17.3394C63.9429 17.2573 64.1768 17.1904 64.4141 17.1392C64.8711 17.0229 65.3433 16.979 65.814 17.0093C66.2402 17.04 66.6626 17.1138 67.0742 17.229C67.4551 17.3516 67.8291 17.4951 68.1938 17.6592L68.7339 17.959L69.0942 18.1792C69.2139 18.249 69.3843 18.269 69.4741 18.3789C69.874 18.7593 70.2739 19.1094 70.6538 19.499C71.021 19.8589 71.3555 20.2505 71.6538 20.6689C71.8574 21.0747 72.0278 21.4961 72.1641 21.9292C72.313 22.4253 72.4331 22.9292 72.5239 23.439C72.6147 23.9067 72.6519 24.3833 72.6343 24.8594C72.5776 25.8267 72.229 26.7539 71.6343 27.519C70.291 29.1479 68.2632 30.0542 66.1538 29.9692C64.916 29.9663 63.6997 29.6426 62.624 29.0293C61.0176 28.1304 59.9692 26.4849 59.834 24.6489C59.7598 23.9844 59.7598 23.314 59.834 22.6489C59.9287 21.8833 60.1626 21.1411 60.5239 20.459C60.6724 20.1079 60.8564 19.7725 61.0742 19.459C61.4331 19.0229 61.9131 18.7026 62.4541 18.5391C62.9561 18.522 63.4409 18.7227 63.7842 19.0894C64.0059 19.2695 64.2163 19.4629 64.4141 19.6689C64.7065 19.9854 64.9341 20.3555 65.084 20.7593C65.2144 20.9927 65.3247 21.2368 65.4141 21.4893C65.5542 21.9492 65.814 22.0693 65.9741 22.0991C66.0518 22.1265 66.1362 22.1265 66.2139 22.0991C66.1328 22.1846 66.1094 22.3101 66.1538 22.4189L66.084 22.6094Z" fill-rule="evenodd" fill="currentColor"/>
	<path d="M90.8735 57.6196C90.0161 58.3828 88.9868 58.9282 87.8735 59.2095C86.8418 59.4629 85.7681 59.4937 84.7236 59.2993C84.0161 59.2051 83.3237 59.02 82.6636 58.7495C82.1299 58.4644 81.6245 58.1294 81.1538 57.7495C80.627 57.3682 80.1646 56.9058 79.7837 56.3794C78.9849 55.2373 78.7627 53.7881 79.1836 52.4595C79.4604 51.4912 79.9258 50.5869 80.5537 49.7993C80.9409 49.2773 81.4268 48.8354 81.9834 48.4995C82.5811 48.1318 83.2969 48.0068 83.9834 48.1494C84.4336 48.2695 84.2236 48.7095 83.9834 49.1494C83.7437 49.5894 83.5737 50.2192 83.3638 50.4595C82.8896 51.0044 82.5474 51.6509 82.3638 52.3496C82.2817 52.6431 82.2314 52.9448 82.2134 53.2495C82.209 53.4438 82.2256 53.6387 82.2637 53.8296C82.4189 54.1777 82.6914 54.4609 83.0337 54.6294C83.2646 54.7544 83.5015 54.8682 83.7437 54.9692L84.4336 55.2192C85.376 55.5776 86.4263 55.5195 87.3237 55.0596C87.5952 54.9043 87.8413 54.709 88.0537 54.4795C88.2412 54.3057 88.3999 54.103 88.5234 53.8794C88.73 53.5562 88.8018 53.165 88.7236 52.7896C88.6128 52.4087 88.3267 52.104 87.9536 51.9692C87.8057 51.915 87.6509 51.8813 87.4937 51.8696C87.2876 51.8491 87.0796 51.8491 86.8735 51.8696C86.4634 51.8696 86.0635 52.0396 85.6934 52.0894C85.5234 52.0894 85.3735 52.1992 85.2134 52.2192C84.9585 52.2588 84.7002 52.1772 84.5137 51.9995C84.249 51.7373 84.02 51.4414 83.8335 51.1196L83.4434 50.5493C83.2466 50.2554 83.165 49.8994 83.2134 49.5493C83.3081 49.1509 83.5376 48.7974 83.8638 48.5493C84.127 48.3193 84.4233 48.1304 84.7437 47.9893C85.0659 47.8325 85.4004 47.7021 85.7437 47.5996C86.4204 47.4136 87.127 47.3623 87.8237 47.4492C88.1914 47.4873 88.5562 47.5542 88.9136 47.6494C89.3574 47.8105 89.7915 47.9976 90.2134 48.2095C90.6431 48.436 91.0425 48.7148 91.4038 49.0396C91.5889 49.1934 91.7627 49.3604 91.9233 49.5396L92.3535 50.1094C93.1777 51.3003 93.4204 52.7993 93.0137 54.1895C92.9868 54.3662 92.9434 54.5405 92.8838 54.7095L92.6538 55.2095C92.5166 55.5532 92.3564 55.8872 92.1733 56.2095C91.9736 56.4795 91.7534 56.8296 91.5635 57.0396C91.3735 57.2495 91.1934 57.4692 90.9736 57.6694L90.8735 57.6196Z" fill-rule="evenodd" fill="currentColor"/>
	<path d="M72.3037 83.0088C71.6396 82.2642 71.1841 81.3569 70.9839 80.3789C70.8965 80.0513 70.8364 79.7168 70.8037 79.3789C70.8037 79.0688 70.8838 78.769 70.9438 78.479C71.0317 78.2036 71.1489 77.939 71.2939 77.689C71.5288 77.1997 71.8208 76.7397 72.1636 76.3188C72.4385 76 72.6958 75.6665 72.9336 75.3188C73.2188 74.8906 73.6118 74.5459 74.0737 74.3188C74.2339 74.2588 74.4937 74.5688 74.7036 74.959C74.9136 75.3491 75.1235 75.8291 75.0137 76.0591C74.7065 76.7529 74.3452 77.4214 73.9336 78.0591C73.8052 78.3765 73.7773 78.7251 73.8535 79.0591C73.8828 79.4526 74.0137 79.8315 74.2339 80.1592C74.689 80.7529 75.3545 81.1504 76.0938 81.269C76.4048 81.2388 76.6919 81.0879 76.8936 80.8491C76.8936 80.8491 76.9536 80.7588 77.0039 80.749C77.0537 80.7388 77.0039 80.749 77.0938 80.749C77.1665 80.7905 77.2334 80.8408 77.2939 80.8989L77.8936 81.4292L78.2437 81.729C78.6538 82.0547 78.8174 82.6016 78.6538 83.0991C78.2778 83.772 77.6475 84.2661 76.9038 84.4688C76.2197 84.6631 75.498 84.6836 74.8037 84.5288C73.8257 84.2661 72.9419 83.7319 72.2539 82.9888L72.3037 83.0088Z" fill-rule="evenodd" fill="currentColor"/>
	<path d="M82.5239 79.6294C82.2051 81.0635 81.4341 82.3569 80.3237 83.3193C79.3794 84.1343 78.271 84.7378 77.0737 85.0894C76.2715 85.3711 75.4331 85.5361 74.584 85.5791C74.1953 85.5801 73.8071 85.5464 73.4238 85.4795C73.0244 85.4365 72.6318 85.3462 72.2539 85.2095C71.457 84.9624 70.728 84.5347 70.124 83.9595C69.0381 82.8657 68.4243 81.3901 68.4141 79.8491C68.3608 78.6367 68.6011 77.4292 69.1138 76.3291C69.4854 75.6235 70.02 75.0166 70.6738 74.5591L71.1938 74.2495C71.3838 74.1792 71.5737 74.1294 71.7642 74.0791C72.1362 73.9673 72.5278 73.9331 72.9141 73.9795C73.394 73.9795 73.2939 74.4194 73.0342 74.9194C72.9141 75.1792 72.7539 75.4292 72.624 75.6992C72.5244 75.9487 72.4038 76.1899 72.2642 76.4194C72.2041 76.4995 72.1538 76.5791 72.0938 76.6494C72.0342 76.7192 72.0142 76.8394 71.9741 76.9292C71.8945 77.1094 71.8345 77.2969 71.7939 77.4893C71.7939 77.6694 71.7241 77.8892 71.6641 78.0693C71.604 78.2495 71.6641 78.4692 71.6641 78.6792C71.6689 79.4155 71.8438 80.1411 72.1738 80.7993C72.1738 80.8794 72.2939 80.9395 72.354 81.0195C72.4121 81.0952 72.4927 81.1514 72.584 81.1792C72.667 81.2383 72.7539 81.292 72.8438 81.3394L73.1641 81.4092C73.6753 81.4624 74.1924 81.4316 74.6938 81.3193C75.8789 81.1694 76.9429 80.5176 77.6138 79.5293C77.7661 79.2622 77.8584 78.9653 77.8838 78.6592C77.916 78.355 77.8955 78.0469 77.8237 77.7495C77.7681 77.2949 77.5342 76.8813 77.1738 76.5991C76.7754 76.3442 76.2817 76.2852 75.834 76.4395C75.3691 76.6025 74.939 76.8501 74.564 77.1694C74.1445 77.5288 73.7471 77.9126 73.374 78.3193C73.2041 78.4893 73.0737 78.6992 72.894 78.8594C72.0938 79.2593 71.624 79.1392 70.6841 78.4692C70.4741 78.3091 70.2539 78.1792 70.0537 78.0195C69.3726 77.4424 69.1562 76.4829 69.5239 75.6694C69.6255 75.3125 69.7842 74.9751 69.9941 74.6694C70.2104 74.3945 70.4404 74.1309 70.6841 73.8794C71.1978 73.3506 71.7715 72.8843 72.394 72.4893C73.145 72.0278 73.9653 71.6904 74.8237 71.4893L75.6841 71.2993C75.9741 71.2993 76.2642 71.2993 76.564 71.2993C77.1455 71.2993 77.7246 71.3799 78.2842 71.5396C81.7939 72.3594 83.3438 76.8691 82.6538 79.6895L82.5239 79.6294Z" fill-rule="evenodd" fill="currentColor"/>
	<defs/>
</svg>
