<svg width="24" height="24" viewBox="0 0 110 110" fill="none" xmlns="http://www.w3.org/2000/svg" xmlns:xlink="http://www.w3.org/1999/xlink">
	<path d="M21.8726 59.8101C23.8726 61.8101 25.8726 63.75 27.8726 65.71C28.6025 66.4199 29.3823 67.0801 30.1128 67.8C32.6724 70.3501 35.2227 72.9099 37.6724 75.5701L40.9927 79.0601C42.4746 80.5178 43.7109 82.2065 44.6523 84.0601C44.9126 84.6899 44.6523 84.6799 44.1523 84.3501C43.3867 83.8591 42.6641 83.3037 41.9927 82.6899C41.6426 82.3301 41.2524 81.98 40.8926 81.6299L40.3228 81.1199L39.7627 80.6399L37.5825 78.45C36.1323 76.99 34.6426 75.54 33.2227 74C31.5327 72.1599 29.5425 70.46 27.6826 68.7L21.5625 62.8401C20.3125 61.6199 19.0728 60.4099 17.8525 59.1299C17.6226 58.8899 17.3823 58.6499 17.1626 58.3899C16.9424 58.1299 16.9326 58.1399 16.8228 58C16.7124 57.8601 16.5928 57.74 16.4424 57.52C16.1353 57.1626 15.9775 56.7007 16.0024 56.23C16.04 55.999 16.1074 55.7737 16.2026 55.5601C16.2925 55.3401 16.4126 55.1101 16.4824 54.98C17.1626 53.76 17.9326 52.7 18.6426 51.5901C19.7627 49.8899 20.7827 48.1699 21.8027 46.47C22.0327 46.0901 22.2227 45.71 22.4727 45.3501C22.7827 44.8704 23.1343 44.4187 23.5225 44C23.7622 43.7983 24.0469 43.6577 24.3525 43.5901C24.4702 43.5486 24.5903 43.5154 24.7124 43.49C24.8823 43.49 24.9727 43.6399 24.9824 44.01C24.9888 44.5159 24.8862 45.0171 24.6826 45.48C23.2925 48.96 20.8325 51.9299 19.0625 55.1299C18.9126 55.4199 18.7524 55.71 18.6226 55.98L18.5327 56.1799L18.7324 56.4299L19.0527 56.8C19.9326 57.8 20.9424 58.8 21.9326 59.8L21.8726 59.8101Z" fill-rule="evenodd" fill="currentColor"/>
	<path d="M52.8325 64.6399C52.8325 64.6399 55.1426 64.4897 55.5024 63.1799C55.8623 61.8699 55.5024 67.0999 55.5024 67.0999L52.8325 64.6399Z" fill-rule="evenodd" fill="currentColor"/>
	<path d="M56.2227 53.8L50.1226 54.0801L47.9126 54.24L43.9927 54.45C42.6826 54.45 41.3726 54.54 40.0625 54.6199C38.9023 54.7 37.7427 54.8 36.6025 54.8999L32.1724 55.29C31.7124 55.29 31.7725 55.29 32.1724 55.23C32.5723 55.1699 33.2627 54.98 34.1025 54.8401C37.1025 54.3301 40.1025 53.8401 43.1025 53.51L48.6626 52.9199L54.7925 52.3899L58.5625 52.1099C60.4727 51.96 62.3823 51.8401 64.2725 51.6399C65.7427 51.5 67.1626 51.24 68.6123 51.04C68.9326 51.04 69.2427 50.9399 69.6123 50.9099C70.8027 50.79 71.1924 50.9099 71.4927 51.3201C71.5664 51.4128 71.6299 51.5134 71.6826 51.6199C71.8325 51.97 71.3726 52.3 70.5024 52.49C67.8442 53.0215 65.1499 53.3557 62.4424 53.49L56.2227 53.8301L56.2227 53.8Z" fill-rule="evenodd" fill="currentColor"/>
	<path d="M37.9424 50.4099L36.6523 48.7798C36.4927 48.5798 36.3125 48.3999 36.1626 48.2C35.6523 47.46 35.1626 46.71 34.6724 45.95L34.0127 44.95C33.7158 44.5518 33.4829 44.1099 33.3228 43.6399C33.2324 43.3298 33.8325 43.5298 34.1626 43.9399C34.7227 44.73 35.3926 45.47 35.9824 46.2898C36.3726 46.7607 36.7866 47.2114 37.2227 47.6399L38.5825 49.1799L39.4326 50.1199C39.8726 50.5898 40.3027 51.0698 40.7725 51.5C41.1577 51.8132 41.5581 52.1069 41.9727 52.3799C42.0664 52.4341 42.1567 52.4941 42.2427 52.5598C42.5527 52.8198 42.5728 52.98 42.3428 53.3398C42.2949 53.4268 42.2417 53.5105 42.1826 53.5898C42.0093 53.8435 41.6729 53.9255 41.4023 53.7798C40.6045 53.3171 39.8882 52.7258 39.2827 52.0298C38.8125 51.52 38.3628 51.0298 37.9023 50.46L37.9424 50.4099Z" fill-rule="evenodd" fill="currentColor"/>
	<path d="M24.8125 59.8701C27.2227 62.6401 29.7227 65.3301 32.2227 68.02C33.1528 69.02 34.2227 69.8901 35.1025 70.8901C38.3525 74.4099 41.5327 78.01 44.6929 81.6599C46.0625 83.3 47.5127 84.8999 48.9126 86.53L50.2725 88.1201C50.6729 88.71 51.0625 89.28 51.4126 89.9199C52.2168 91.2295 52.7192 92.7019 52.8828 94.23C52.8828 95.4399 52.2124 95.01 51.4126 94.55C50.2842 94.0615 49.2139 93.4478 48.2227 92.72C47.7627 92.29 47.2725 91.8701 46.7627 91.45C46.2969 90.9944 45.8564 90.5137 45.4429 90.01L42.7627 87.01L41.4126 85.51L40.1226 83.9199C39.2627 82.8501 38.4126 81.77 37.5728 80.6699C35.3784 78.085 33.041 75.6245 30.5728 73.3C27.9927 70.6001 25.4126 67.8701 22.8726 65.0801C21.2925 63.3901 19.7427 61.6401 18.2227 59.74L17.8027 59.1599C17.6328 58.9199 17.4624 58.6301 17.2925 58.3601C16.9844 57.8313 16.7837 57.2468 16.7026 56.6401C16.7578 56.0137 16.8994 55.3979 17.1226 54.8101C17.4028 54.1899 17.5728 53.8101 17.7925 53.4001C18.6226 51.78 19.5024 50.27 20.3125 48.74C20.9429 47.54 21.5127 46.3401 22.0527 45.1301C22.5928 43.9199 23.0527 42.6799 23.6826 41.55C23.9624 41.04 24.1626 40.55 24.4429 40.04C24.7661 39.3723 25.1763 38.7502 25.6626 38.1899C26.0215 37.8911 26.4468 37.6819 26.9028 37.5801C27.1128 37.5801 27.3325 37.4399 27.5127 37.4099C27.6929 37.3801 28.0327 37.5901 28.2026 38.0901C28.416 38.7837 28.4473 39.5208 28.2925 40.23C28.0527 41.5 27.7524 42.76 27.4229 43.99C27.2637 44.6016 27.0493 45.1973 26.7827 45.77C26.5425 46.3501 26.2827 46.9199 26.0225 47.49C24.9727 49.77 23.8027 52 22.7925 54.1699L22.2227 55.3201C22.1313 55.5017 22.0513 55.6887 21.9824 55.8801L21.8926 56.1001C21.877 56.0911 21.8579 56.0911 21.8428 56.1001C21.7427 55.98 22.0928 56.4399 22.3027 56.72L23.1025 57.72C23.6729 58.3901 24.2725 59.0601 24.8828 59.72L24.8125 59.8701Z" fill-rule="evenodd" fill="currentColor"/>
	<path d="M75.5425 32.6399C76.5762 35.2397 77.8066 37.7571 79.2227 40.1699C80.6523 42.6299 82.2227 45.01 83.9526 47.48L85.7124 50.01L86.0122 50.8L86.1523 51.2L86.2324 51.3899L86.2324 51.49L86.0723 51.49C86.1172 51.7581 86.1172 52.0317 86.0723 52.3C85.9966 52.5811 85.8892 52.8528 85.7524 53.1099C85.4487 53.6548 85.1147 54.1821 84.7524 54.6899L84.2925 55.3301L83.9624 55.77C79.2124 61.8301 74.3823 67.6599 69.8325 73.77C67.8325 76.48 65.8325 79.25 64.0425 82.02C62.8623 83.8 61.7524 85.6299 60.6523 87.4399C59.5522 89.25 58.2725 90.97 57.2725 92.79C56.6724 93.9099 56.2725 93.6599 56.0322 92.3398C55.8354 90.2534 56.1333 88.1497 56.9023 86.2C58.9316 82.2097 61.2061 78.3489 63.7124 74.6399C66.2925 71.01 69.0122 67.5 71.8726 64.0701C73.5723 62.0701 75.2124 59.8599 76.8125 57.6599L80.8823 52C80.8823 51.9199 81.0425 51.8201 80.9824 51.73L80.8223 51.48C80.8223 51.3799 80.7026 51.28 80.6323 51.1699L80.4326 50.8699L80.1426 50.46L78.9824 48.8201C78.2227 47.74 77.4224 46.6399 76.6724 45.47C75.1318 43.1755 73.7295 40.7913 72.4727 38.3301C72.0225 37.45 71.6025 36.55 71.2026 35.6399C70.9922 35.1899 70.8125 34.73 70.6226 34.27L70.4126 33.76L70.3022 33.4199C70.2417 33.2112 70.1577 33.01 70.0522 32.8201C69.8418 32.7764 69.6274 32.7529 69.4126 32.75L69.0825 32.75L67.3325 32.75C65.9526 32.6799 64.5723 33.02 63.1826 32.96L59.0225 33.05L54.8623 33.21C53.4824 33.21 52.1025 33.3 50.7227 33.3699C46.4424 33.5999 42.2622 34.22 38.0425 34.6899C37.1123 34.79 36.2124 34.96 35.2725 35.03C34.3325 35.0999 33.6826 35.1199 33.0723 35.1099C32.5444 35.0322 32.0322 34.8738 31.5522 34.6399C30.8447 34.2874 30.2441 33.7524 29.8125 33.0898C29.6167 32.8376 29.4365 32.5737 29.2725 32.3C29.0825 31.8699 29.3325 31.46 29.9326 30.9399C30.7563 30.2139 31.7192 29.6628 32.7622 29.3201C36.5967 28.5559 40.4688 27.9951 44.3623 27.6399C46.3623 27.4399 48.3623 27.2766 50.3623 27.1499C52.3623 27.03 54.3623 26.8599 56.3623 26.8899L60.3623 26.8899L62.3623 26.8899C63.0308 26.875 63.6992 26.9084 64.3623 26.99C65.0425 27.0999 65.7227 27.24 66.3623 27.3201L68.4224 27.3201C68.6323 27.3201 69.5024 27.3201 70.1025 27.3699C70.437 27.3743 70.7715 27.4009 71.1025 27.45L71.5825 27.45C71.7285 27.4812 71.8672 27.5388 71.9922 27.6199C72.2563 27.729 72.4922 27.8965 72.6826 28.1099L72.9922 28.3799C73.0923 28.24 72.7925 28.6799 73.2124 28.0801L73.2725 28.1599L73.4023 28.3398L74.4526 29.72L75.2822 31.6399L75.6523 32.55L75.5425 32.6399Z" fill-rule="evenodd" fill="currentColor"/>
	<path d="M55.6426 54.9199C52.8823 55.0398 50.1123 55.1899 47.3525 55.4099C46.3525 55.48 45.3525 55.71 44.3525 55.76C40.7725 55.8999 37.1924 56.0598 33.6226 56.3499C32.8228 56.4099 32.0425 56.5298 31.2427 56.5898L28.8726 56.8098C27.8726 56.9099 26.8726 57.0298 25.8726 57.0898L25.1025 57.0898L24.3228 57C23.7925 56.9399 23.2725 56.8799 22.7324 56.77C22.3926 56.71 22.2026 56.5798 22.2524 56.5298C22.3027 56.48 22.4624 56.4399 22.7124 56.2798C23.0581 56.0718 23.3921 55.8447 23.7124 55.5999L24.3823 55.1199C24.5024 55.02 24.6323 54.96 24.7627 54.8499L25.1626 54.72C27.1626 54.1399 29.1626 53.5298 31.1626 53.0398C33.1626 52.74 35.2725 52.51 37.3726 52.3999C39.8726 52.2898 42.3726 51.6599 44.9624 51.3999C47.7627 51.1199 50.5728 50.8999 53.3823 50.71L58.5928 50.3799C61.2124 50.21 63.8623 50.1499 66.4727 49.97C67.4727 49.8999 68.4727 49.7798 69.4727 49.6599L70.9927 49.48C71.2427 49.48 71.5024 49.4099 71.7524 49.3999L72.5225 49.3999C72.9824 49.3999 73.4224 49.3999 73.8823 49.3999C75.5728 49.5999 76.1025 49.99 76.3428 50.98C76.4121 51.1853 76.4658 51.396 76.5024 51.6099C76.5825 52.24 75.8428 52.8999 74.6826 53.1299C73.8125 53.3398 72.9424 53.5498 72.0527 53.7798C71.1748 53.9517 70.2856 54.0586 69.3926 54.0999C67.6025 54.24 65.7627 54.3599 63.9224 54.46C61.1826 54.6299 58.4023 54.75 55.6323 54.97L55.6426 54.9199Z" fill-rule="evenodd" fill="currentColor"/>
	<path d="M56.3325 43.71C55.3325 44.71 54.3325 45.71 53.3325 46.71L50.2227 49.74C49.4624 50.48 48.8027 51.3101 48.0024 52.04L46.8926 53.04C46.3301 53.5544 45.7246 54.0195 45.0825 54.4299C44.7583 54.5793 44.4243 54.7063 44.0825 54.8101C43.748 54.8423 43.4106 54.822 43.0825 54.75C42.3799 54.54 41.7407 54.1584 41.2227 53.6399C40.9326 53.3999 40.6626 53.1399 40.3926 52.8799L39.8423 52.28C39.5127 51.9299 39.2026 51.5601 38.9023 51.2L37.1323 49.03C36.1323 47.76 34.9927 46.55 33.8823 45.3899C33.124 44.6897 32.4219 43.9307 31.7827 43.1199C31.1626 42.3 30.5728 41.4399 29.9326 40.6199C29.5425 40.1099 29.7227 39.98 30.4023 40.02C31.4736 40.0916 32.5215 40.3628 33.4927 40.8201L34.2324 41.23C34.4839 41.3489 34.7163 41.5039 34.9224 41.6899L36.1226 42.79C36.9126 43.53 37.6826 44.28 38.4224 45.04C39.9023 46.5601 41.3423 48.1299 42.6426 49.6699C42.7588 49.7817 42.854 49.9138 42.9224 50.0601C42.9834 50.1448 43.0498 50.2251 43.1226 50.3C43.1953 50.3804 43.2886 50.4392 43.3926 50.47C43.4927 50.47 43.5728 50.3899 43.6626 50.3298C43.7441 50.2654 43.8208 50.1953 43.8926 50.1199L44.3423 49.6399L45.6426 48.24L51.5024 41.9299L53.3823 40.02L55.4526 38.02C56.0996 37.3398 56.8364 36.751 57.6426 36.27C58.0181 36.0959 58.4204 35.9875 58.8325 35.95C59.2222 36.0962 59.5815 36.3132 59.8926 36.5898C60.6035 37.2107 61.272 37.8789 61.8926 38.5898L63.2725 40.0798C64.7026 41.5898 66.2725 42.8999 67.8125 44.3101C68.1523 44.6199 68.5127 44.8899 68.8125 45.22C68.9624 45.3699 69.0923 45.52 69.2124 45.6499C69.3325 45.78 69.3823 45.95 69.4526 46.0798C69.5703 46.3196 69.6514 46.5759 69.6924 46.8398C69.7222 47.0684 69.7017 47.3003 69.6323 47.52C69.5317 47.7791 69.4048 48.0271 69.2524 48.26C69.1123 48.49 69.0127 48.72 68.8823 48.8899C68.5327 49.3999 67.2427 49.5898 66.1626 48.8899C65.7451 48.6667 65.356 48.3948 65.0024 48.0798C64.6323 47.79 64.2725 47.48 63.9224 47.1699C63.2124 46.55 62.5327 45.8999 61.8623 45.23C61.1924 44.5601 60.5327 43.8699 59.8623 43.23L58.8623 42.1799L58.4727 41.75C58.4727 41.75 58.4727 41.75 58.4727 41.6899C58.4727 41.6299 58.4727 41.6899 58.4023 41.6899L58.2324 41.8799L57.8726 42.25L56.4224 43.79L56.3325 43.71Z" fill-rule="evenodd" fill="currentColor"/>
	<path d="M38.2222 63.6401C38.6626 63.3101 39.1025 63 39.5122 62.6401C39.6626 62.52 39.7422 62.3401 39.9023 62.2302C40.4526 61.8201 41.0425 61.4502 41.5625 61.03C41.7803 60.835 41.96 60.6011 42.0923 60.3401C42.2725 60.01 42.3325 59.5901 42.8125 59.4902C43.1123 59.4202 45.2622 61.3701 45.0322 61.78C44.606 62.4888 43.9697 63.0479 43.2124 63.3801C42.7222 63.5901 42.5225 64.0601 42.2124 64.3801C41.9023 64.7002 41.4224 65.0901 41.0322 65.4402C40.6426 65.79 40.5425 65.8701 40.3125 66.1001C39.9629 66.4167 39.6289 66.7505 39.3125 67.1001C39.0923 67.3901 39.0122 67.79 38.7725 68.1001C38.7412 68.1738 38.6968 68.2415 38.6426 68.3C38.4126 68.51 38.2026 68.4702 37.7124 68.1802L37.3726 67.9802C37.0532 67.7964 36.8301 67.4822 36.7622 67.1201C36.7021 66.6821 36.7021 66.238 36.7622 65.8C36.8677 65.4531 37.0083 65.1182 37.1826 64.8C37.3926 64.28 37.8823 63.9902 38.2524 63.6101L38.2222 63.6401Z" fill-rule="evenodd" fill="currentColor"/>
	<path d="M58.8525 67.28C58.8101 67.562 58.7148 67.8333 58.5728 68.0801L58.2529 68.7502L57.5928 70.1301C57.4229 70.3 57.3228 70.5901 57.1226 70.7603C57.0845 70.7476 57.0474 70.731 57.0127 70.7102C55.3828 69.7585 53.8662 68.6245 52.4927 67.3301L51.5825 66.4702L51.1226 66.0601L50.7627 65.5103C50.4526 65.0801 50.0327 64.8 49.8828 64.5901C49.665 64.3472 49.5015 64.0608 49.4028 63.7502C49.3428 63.53 49.7627 63.0901 50.3125 62.7502C50.8628 62.4102 51.6025 62.0701 51.9526 62.2402L52.3926 62.4602L52.4526 62.4602C52.4526 62.4602 52.4526 62.4602 52.4526 62.55C52.4956 62.8337 52.5869 63.1077 52.7227 63.3601C52.8032 63.5464 52.9224 63.7136 53.0728 63.8501C53.1826 63.9502 53.2427 63.9302 53.3828 64.0701C53.415 64.0867 53.4453 64.1067 53.4727 64.1301C53.5527 64.1301 53.6729 64.3101 53.7529 64.3201C53.8081 64.3 53.8589 64.2695 53.9028 64.2302C53.9961 64.1465 54.0713 64.0444 54.1226 63.9302C54.2104 63.7373 54.2646 63.531 54.2827 63.3201C54.3799 62.8618 54.3799 62.3884 54.2827 61.9302C54.1973 61.616 54.0659 61.3159 53.8926 61.04C53.7529 60.7402 53.5928 60.4402 53.4727 60.1201C53.4126 59.9802 53.3125 59.8401 53.3428 59.6902C53.4028 59.1001 53.7627 58.8101 54.8027 58.6902C55.0347 58.6553 55.2686 58.6353 55.5029 58.6301C56.1514 58.595 56.7983 58.7256 57.3828 59.0103L57.8525 59.3101C57.9722 59.4106 58.0796 59.5247 58.1729 59.6501C58.355 59.8867 58.5127 60.1414 58.6426 60.4102C58.7339 60.6812 58.8042 60.9585 58.8525 61.2402L58.8525 61.4502L58.9126 61.8701L59.0127 62.7002C59.1641 64.2432 59.1641 65.7971 59.0127 67.3401L58.8525 67.28Z" fill-rule="evenodd" fill="currentColor"/>
	<path d="M35.7524 21.72C36.0625 21.72 35.8325 22.1101 35.3125 22.8C35.0527 23.1089 34.75 23.3782 34.4126 23.6001C34.188 23.6707 33.957 23.7175 33.7227 23.74C33.1807 23.4971 32.6533 23.2231 32.1426 22.9199C31.7998 22.7302 31.5 22.4714 31.2627 22.1599C30.7627 21.5601 30.2627 20.98 29.7627 20.3799C29.6577 20.2363 29.583 20.0732 29.5425 19.8999C29.4014 19.313 29.1001 18.7764 28.6729 18.3501C28.6128 18.27 28.5728 18.1699 28.4126 18.1699C28.2524 18.1699 27.2827 16.78 27.2725 16.54C27.1948 15.9495 27.1484 15.3555 27.1328 14.76C27.1328 14.6799 27.0625 14.6199 27.1328 14.49C27.2769 14.324 27.3086 14.0879 27.2129 13.8899C27.1548 13.6511 27.1279 13.4058 27.1328 13.1599C27.1729 12.9966 27.2407 12.8411 27.3325 12.7C27.4028 12.5701 27.8027 12.47 27.8525 12.48C27.9028 12.49 28.1626 12.3699 28.3228 12.3L28.4829 12.24C28.7349 12.3174 28.979 12.418 29.2129 12.54C29.4785 12.6433 29.7388 12.7603 29.9927 12.8899C29.9927 12.8899 30.3228 13.1899 30.7129 13.48C31.1025 13.77 31.3828 14.1399 31.4727 14.1899C31.5625 14.24 31.5527 14.3899 31.5625 14.5C31.5728 14.6101 32.6328 15.5 32.6626 15.5C32.7925 15.75 33.0728 15.9099 32.9629 16.3301C32.9629 16.4199 32.9629 16.45 33.0225 16.5C33.3232 16.8967 33.5718 17.3303 33.7627 17.79C33.8955 18.0054 34.0459 18.2095 34.2129 18.3999C34.2129 18.3999 34.2129 18.5 34.2129 18.55C34.2129 18.6001 34.2129 18.6899 34.2627 18.73C34.5786 19.2375 34.9473 19.7102 35.3628 20.1399C35.4829 20.22 35.5928 20.98 35.7329 21.0601C35.8726 21.1399 35.6328 21.72 35.7524 21.72Z" fill-rule="evenodd" fill="currentColor"/>
	<path d="M64.4321 18.71C64.5225 19.02 64.0522 18.98 63.2524 18.71C62.8926 18.5576 62.5562 18.3557 62.2524 18.1101C62.1201 17.9229 62.0029 17.7256 61.9023 17.52C61.9023 17.4199 62.0322 16.21 62.0522 15.78C62.0698 15.3853 62.165 14.9978 62.3325 14.6399C62.6523 13.9199 62.9321 13.1799 63.2422 12.46C63.3115 12.292 63.4175 12.1418 63.5522 12.02C64.0044 11.5967 64.3242 11.0513 64.4722 10.45C64.4722 10.3501 64.5723 10.27 64.4722 10.1201C64.5469 9.43896 64.7871 8.78662 65.1724 8.21997L66.4624 7.05005C66.5225 7 66.4624 6.8999 66.6924 6.90991C66.9106 6.95752 67.1323 6.84448 67.2222 6.63989C67.3633 6.44043 67.5356 6.26489 67.7324 6.12012C67.9033 6.04663 68.0864 6.00586 68.2725 6C68.5151 6.04541 68.7422 6.1521 68.9321 6.31006C69.0425 6.47998 69.3022 6.51001 69.5122 6.6001L69.7222 6.69995C69.9351 7.27612 70.0698 7.87817 70.1226 8.48999C70.1226 8.48999 70.0122 8.97998 69.9023 9.48999C69.7925 10 69.6226 10.49 69.6226 10.6201C69.6226 10.75 69.4722 10.8 69.3823 10.8799C69.2925 10.96 68.9624 12.4399 68.9321 12.49C68.7524 12.76 68.7422 13.1001 68.3125 13.25C68.2222 13.25 68.2124 13.3501 68.1924 13.4099C67.9648 13.9116 67.6797 14.3848 67.3423 14.8201C67.2051 15.0662 67.0815 15.3201 66.9722 15.5801C66.9722 15.6299 66.8823 15.6499 66.8423 15.6899C66.8022 15.73 66.7222 15.77 66.7021 15.8301C66.3647 16.4109 66.0708 17.0159 65.8223 17.6399C65.8223 17.8 65.1025 18.28 65.0625 18.47C65.0225 18.6599 64.3926 18.6399 64.4321 18.71Z" fill-rule="evenodd" fill="currentColor"/>
	<path d="M54.2227 44.8201L52.0625 46.98C51.8022 47.25 51.5825 47.5601 51.3223 47.8201C50.3926 48.76 49.4424 49.6899 48.5425 50.6499C48.1426 51.0801 47.7725 51.54 47.4126 52C46.9814 52.6682 46.4033 53.2292 45.7227 53.6399C45.4526 53.78 45.3623 53.47 45.2925 53.0898C45.1484 52.6995 45.1484 52.2705 45.2925 51.8799C45.6602 51.2295 46.0996 50.6226 46.6025 50.0701C47.1128 49.4788 47.6533 48.9148 48.2227 48.3799C48.8584 47.6926 49.4526 46.968 50.0024 46.21C50.6626 45.4099 51.3423 44.6299 52.0024 43.8599L53.3125 42.46C53.9727 41.75 54.6626 41.0601 55.3125 40.3301C55.8022 39.76 56.2026 39.1199 56.7227 38.51C56.8423 38.3799 56.9424 38.23 57.0625 38.1099C57.2432 37.9395 57.4868 37.8513 57.7349 37.8665C57.9829 37.8816 58.2139 37.9988 58.3726 38.1899L58.6123 38.4299C58.7188 38.5786 58.7749 38.7573 58.7725 38.9399C58.7891 39.1572 58.7583 39.3757 58.6826 39.5801C58.5796 39.8787 58.4238 40.1565 58.2227 40.3999C58.0327 40.6299 57.8423 40.9099 57.6323 41.1499C57.2227 41.6299 56.7725 42.1499 56.3125 42.6299L54.2427 44.8599L54.2227 44.8201Z" fill-rule="evenodd" fill="currentColor"/>
	<defs/>
</svg>
