<svg width="24" height="24" viewBox="0 0 110 110" fill="none" xmlns="http://www.w3.org/2000/svg" xmlns:xlink="http://www.w3.org/1999/xlink">
	<path d="M49.3242 58.4407C50.3013 57.3787 51.1382 56.1956 51.8145 54.9209C52.022 54.4756 52.1924 54.0139 52.3242 53.5408C52.9326 51.7048 53.2002 49.7729 53.1143 47.8408C53.0713 46.958 52.9473 46.0811 52.7441 45.2207C52.5142 44.1208 52.1646 43.0508 52.0244 41.9109C52.0244 41.5608 52.4243 41.4109 53.0244 41.5308C53.7075 41.6514 54.2974 42.0791 54.6245 42.6907C55.6895 45.0376 56.0742 47.6362 55.7344 50.1907C55.6479 51.7864 55.4102 53.3701 55.0244 54.9209C54.8901 55.366 54.7231 55.8005 54.5244 56.2207C54.3345 56.6208 54.1143 56.9807 53.9043 57.3608C53.4644 58.0928 52.98 58.7976 52.4546 59.4707C51.8042 60.3125 51.085 61.0986 50.3042 61.8208C49.1011 62.918 47.7349 63.822 46.2544 64.5007C45.1172 65.1003 43.8862 65.5027 42.6143 65.6907C42.3281 65.7156 42.0405 65.7156 41.7544 65.6907C41.5288 65.6973 41.3037 65.6736 41.0845 65.6208C40.9258 65.5542 40.7827 65.4556 40.6646 65.3308C40.4546 65.1296 40.3232 64.8601 40.2944 64.5708C40.2661 64.4321 40.2461 64.292 40.2344 64.1509C40.2344 63.7307 40.6846 63.3408 41.3145 63.0508C42.1758 62.8206 43.0234 62.5437 43.8545 62.2207C44.6655 61.916 45.4458 61.5344 46.1846 61.0808C47.3486 60.3354 48.3911 59.4146 49.2744 58.3508L49.3242 58.4407Z" fill-rule="evenodd" fill="currentColor"/>
	<path d="M12.3745 34.2109C12.2617 34.429 12.168 34.6565 12.0947 34.8909C12.0947 34.9707 12.0947 35.0408 12.0947 35.1108C11.9717 35.3584 11.8936 35.626 11.8647 35.9009C11.8647 36.0208 11.9443 36.0408 12.0347 36.0608C12.1245 36.0808 12.3545 35.9109 12.2744 36.2808C12.0498 36.8503 11.7754 37.3992 11.4546 37.9209C11.0044 38.6709 10.3945 39.2908 10.1348 39.1609C9.93213 39.0388 9.74121 38.8982 9.56445 38.7407C9.3999 38.552 9.25879 38.3438 9.14453 38.1208C8.93555 37.7 8.86914 37.2227 8.95459 36.7607C9.05469 36.2407 8.83447 35.8909 8.84473 35.4807C8.87695 35.0671 8.9541 34.658 9.07471 34.2607L9.28467 33.5908C9.36475 33.2507 9.54443 32.9409 9.58447 32.5908C9.56543 32.3306 9.52148 32.073 9.45459 31.8208C9.45459 31.7607 9.45459 31.6909 9.45459 31.6309C9.45459 31.4109 9.73438 31.4109 10.4546 31.6309L10.9346 31.7708C11.3486 31.8887 11.7358 32.0857 12.0747 32.3508C12.4014 32.6548 12.5952 33.075 12.6147 33.5208C12.5918 33.76 12.5376 33.9954 12.4546 34.2207L12.3745 34.2109Z" fill-rule="evenodd" fill="currentColor"/>
	<path d="M72.1147 91.1008C71.6885 91.0015 71.2734 90.8608 70.8745 90.6809C70.7295 90.6418 70.5889 90.5881 70.4546 90.5208C69.9839 90.2285 69.5981 89.8184 69.335 89.3308C69.2349 89.1309 69.085 88.9707 68.9746 88.7908C68.7798 88.5974 68.6904 88.3218 68.7349 88.0508C68.7349 87.9507 69.0947 87.8308 69.4648 87.7307C69.7393 87.6362 70.0249 87.5791 70.3149 87.5608C70.6245 87.7107 70.835 87.6709 70.8545 88.0107C70.8745 88.3508 71.0947 88.1809 71.2246 88.2407C71.4014 88.3328 71.5898 88.4001 71.7847 88.4407C71.9209 88.4561 72.0586 88.4561 72.1948 88.4407C72.417 88.4541 72.6392 88.4165 72.8447 88.3308C72.9946 88.2507 73.0547 87.9907 73.1445 87.8208C73.2349 87.6509 73.1445 87.7407 73.2046 87.7307C73.2646 87.7207 73.4448 87.8108 73.8545 88.3708L74.1245 88.7407C74.4121 89.0664 74.5688 89.4866 74.5649 89.9209C74.5488 90.0999 74.5049 90.2751 74.4346 90.4407C74.3584 90.5669 74.2637 90.6814 74.1548 90.7808C73.9355 90.957 73.6841 91.0896 73.4146 91.1709C72.9878 91.2405 72.5518 91.2405 72.1245 91.1709L72.1147 91.1008Z" fill-rule="evenodd" fill="currentColor"/>
	<path d="M16.0044 72.2007C16.6396 73.1582 17.4507 73.9861 18.3945 74.6406C18.7705 74.8696 19.1616 75.0735 19.5645 75.2507C20.9927 76.0198 22.5415 76.5405 24.1445 76.7908C24.8633 76.9058 25.5957 76.9058 26.3145 76.7908C27.2344 76.6807 28.1045 76.5107 28.9644 76.3508C29.2544 76.3508 29.4346 76.5608 29.3945 77.0208C29.3604 77.3145 29.272 77.5991 29.1343 77.8608C28.9595 78.1467 28.7153 78.3838 28.4243 78.5508C27.3857 79.0735 26.2373 79.3408 25.0742 79.3308C24.5132 79.3442 23.9517 79.3174 23.3945 79.2507C22.8394 79.1604 22.2939 79.0198 21.7646 78.8308C20.4561 78.4575 19.1733 78 17.9243 77.4607C16.5918 76.7524 15.4121 75.7871 14.4546 74.6208C14.1846 74.2307 13.8843 73.8708 13.6445 73.4707L12.9443 72.2207C12.4756 70.925 12.1401 69.5847 11.9443 68.2207C11.7324 67.1511 11.6748 66.0566 11.7744 64.9707C11.7827 64.729 11.8267 64.4897 11.9043 64.2607C12.2144 63.4106 12.5244 63.2607 13.1445 63.2607C13.2788 63.2676 13.4126 63.2842 13.5444 63.3108C13.9951 63.491 14.2725 63.9475 14.2246 64.4307C14.3047 65.2808 14.2246 65.9907 14.3242 66.7207C14.4019 67.4688 14.5454 68.2083 14.7544 68.9307L15.0244 69.8508L15.3145 70.6208C15.394 70.8833 15.5122 71.1326 15.6646 71.3608C15.7827 71.6086 15.9268 71.8433 16.0942 72.0608L16.0044 72.2007Z" fill-rule="evenodd" fill="currentColor"/>
	<path d="M94.3047 54.5408C93.9897 55.325 93.6152 56.084 93.1846 56.8108C92.9644 57.1709 92.7744 57.5508 92.5244 57.8909L91.7944 58.8909C91.4683 59.4011 91.104 59.8857 90.7046 60.3408C90.354 60.7432 89.9692 61.1145 89.5547 61.4509C89.1543 61.8008 88.7744 62.1609 88.3745 62.4509C87.5464 63.0803 86.6777 63.6548 85.7744 64.1709C85.3745 64.3909 84.9946 64.6409 84.6147 64.8809L83.4546 65.5908C82.4966 66.2542 81.3979 66.6855 80.2446 66.8508C79.8745 66.8508 79.7144 66.1509 79.7544 65.3508C79.7944 64.5508 80.0146 63.7107 80.5444 63.4907L81.2544 63.2107L81.9346 62.8608C82.3848 62.6309 82.8647 62.4509 83.3047 62.2107C83.7446 61.9707 84.1846 61.7307 84.6543 61.5007C85.1245 61.2708 85.5244 60.9807 85.9946 60.7407C87.0493 60.0339 87.9341 59.1016 88.5845 58.0107C89.0244 57.4707 89.3247 56.8408 89.7144 56.2607C90.1045 55.6809 90.3745 55.0308 90.6348 54.3708L91.1045 53.1509L91.4546 51.9209C91.6147 51.2708 91.7144 50.6108 91.8247 49.9209C91.9077 49.2576 91.9312 48.5881 91.8945 47.9209C91.8096 46.9075 91.6357 45.9036 91.3745 44.9209C91.3745 44.7009 91.2847 44.4907 91.2744 44.2708C91.2119 43.9612 91.2471 43.6399 91.3745 43.3508C91.5405 43.1064 91.7549 42.8989 92.0044 42.7407C92.1245 42.6609 92.2344 42.5708 92.3447 42.5107C92.5459 42.4109 92.7827 42.4109 92.9844 42.5107C93.3159 42.6111 93.6064 42.8142 93.8145 43.0908C94.1768 43.5535 94.5107 44.0376 94.8145 44.5408C95.0801 45.0461 95.2783 45.584 95.4043 46.1409C95.561 46.6936 95.668 47.259 95.7246 47.8308C95.7412 48.4084 95.7178 48.9863 95.6543 49.5608C95.5786 50.4136 95.4385 51.2593 95.2344 52.0908C95.0044 52.9209 94.7847 53.7507 94.4746 54.5508L94.3047 54.5408Z" fill-rule="evenodd" fill="currentColor"/>
	<path d="M37.3745 19.1709C36.8447 19.4009 36.3745 19.6809 35.8047 19.9509C35.2349 20.2209 34.8047 20.5908 34.3345 20.9509C33.8647 21.311 33.7246 21.5908 33.3945 21.8909C32.207 22.9973 31.1953 24.2788 30.3945 25.6909C30.0625 26.325 29.8076 26.9963 29.6348 27.6909C29.4556 28.5798 29.1943 29.4502 28.8545 30.291C28.7246 30.571 28.3745 30.5811 27.9346 30.291C27.4946 30.001 26.7944 29.4109 26.8345 28.761C26.8335 28.1921 26.874 27.624 26.9546 27.061C27.0874 26.5217 27.2612 25.9934 27.4746 25.481C27.7046 24.981 27.9448 24.481 28.2148 24.011C28.4849 23.541 28.8247 23.1008 29.1548 22.6709C30.0049 21.6709 30.6548 20.481 31.5947 19.521C32.1016 18.9875 32.6538 18.499 33.2446 18.061L34.1348 17.4109L35.1348 16.8708C35.9302 16.4946 36.7524 16.177 37.5947 15.9209C38.2549 15.741 38.9146 15.5908 39.5947 15.4209C40.2744 15.251 40.9346 15.261 41.5947 15.1509C42.2549 15.041 42.5947 15.051 43.1245 14.991C43.6377 14.9146 44.1567 14.8877 44.6748 14.9109C44.9004 14.8997 45.1265 14.9231 45.3447 14.981C46.1646 15.231 46.3447 15.491 46.4248 16.1108C46.4341 16.2375 46.4341 16.3645 46.4248 16.491C46.4248 16.8508 46.0049 17.281 45.4248 17.491L44.7847 17.7109C44.585 17.7629 44.3809 17.7964 44.1748 17.811C43.7646 17.811 43.3745 17.981 42.9849 18.041C42.5947 18.1008 42.1948 18.1008 41.8145 18.1709C41.4346 18.241 41.0547 18.301 40.6748 18.3408C40.3892 18.3667 40.1074 18.4236 39.8345 18.511L39.0049 18.7209C38.4565 18.8884 37.9189 19.0889 37.3945 19.321L37.3745 19.1709Z" fill-rule="evenodd" fill="currentColor"/>
	<path d="M42.0942 37.1709C39.999 36.7888 37.8398 36.9646 35.8345 37.6809C32.2144 38.978 29.3857 41.8582 28.1543 45.501C27.1294 48.1611 27.0586 51.0945 27.9541 53.8008C28.917 56.5911 30.6934 59.0291 33.0542 60.8008C35.1826 62.344 37.7451 63.1736 40.374 63.1709C42.0835 63.2861 43.8003 63.1853 45.4844 62.8708C47.1953 62.5779 48.8643 62.0776 50.4541 61.3809C51.4541 60.9209 51.5142 61.2009 50.9341 62.1008C50.7627 62.3694 50.5649 62.6206 50.3442 62.8508C50.0786 63.1677 49.7842 63.459 49.4644 63.7209C48.6934 64.4199 47.7837 64.9482 46.7944 65.271C44.8784 65.9124 42.8823 66.2827 40.8643 66.3708C38.79 66.4119 36.7261 66.073 34.7744 65.3708C34.2681 65.1926 33.7739 64.9822 33.2944 64.741C32.7891 64.5022 32.3008 64.2283 31.8345 63.9209C30.9844 63.3245 30.188 62.6553 29.4541 61.9209C27.9531 60.4932 26.7319 58.7974 25.8545 56.9209C24.7769 54.636 24.2007 52.147 24.1641 49.6208C24.1519 47.0779 24.7559 44.5696 25.9243 42.3108C28.5566 37.376 33.4395 34.0435 38.9941 33.3909C42.3462 33.0747 45.7183 33.7346 48.7041 35.2908C50.936 36.4971 52.854 38.2095 54.3042 40.2908C55.0068 41.3232 55.6001 42.4258 56.0742 43.5808C56.5898 44.7505 56.9272 45.991 57.0742 47.261C57.4106 51.1448 56.4775 55.033 54.4141 58.3408C53.9897 59.0718 53.5117 59.7703 52.9844 60.4309C52.3228 61.3608 51.4575 62.127 50.4541 62.6709C49.9204 62.9612 49.29 63.0156 48.7144 62.8208C48.48 62.7639 48.2524 62.6836 48.0342 62.5808C47.4243 62.1609 48.0342 61.0808 49.2144 59.491C51.0303 57.2354 52.3247 54.6057 53.0044 51.7908C53.3198 50.4824 53.4111 49.1299 53.2744 47.7908C53.1816 47.1521 53.021 46.5251 52.7944 45.9209C51.0923 41.2805 46.9854 37.9451 42.0942 37.231L42.0942 37.1709Z" fill-rule="evenodd" fill="currentColor"/>
	<path d="M35.2046 13.8608C38.564 12.4238 42.312 12.1699 45.8345 13.1409C47.1133 13.4373 48.3472 13.9014 49.5044 14.521C53.4355 16.7886 56.083 20.7603 56.6646 25.261C56.9507 27.1206 56.9067 29.0164 56.5342 30.8608C56.2827 32.0383 55.8477 33.1689 55.2446 34.2109C55.0918 34.4692 54.9214 34.7163 54.7344 34.9509C54.5342 35.1809 54.3145 35.3909 54.1045 35.6008C53.6919 36.0225 53.2324 36.395 52.7344 36.7109C52.1343 37.1108 52.0146 36.791 52.0942 36.071C52.0942 35.7009 52.2246 35.261 52.2944 34.741C52.3525 34.2034 52.4395 33.6692 52.5542 33.1409C53.2432 31.4438 53.4775 29.5964 53.2344 27.781C52.9824 25.9771 52.4351 24.2271 51.6143 22.6008C51.0962 21.6045 50.3574 20.7393 49.4546 20.071C49.0029 19.7393 48.5166 19.4575 48.0044 19.231L47.2446 18.8508C46.9844 18.741 46.7144 18.6709 46.4443 18.571C45.2773 18.136 44.0488 17.8894 42.8042 17.8408C42.165 17.8059 41.5239 17.8059 40.8843 17.8408C40.2368 17.8904 39.5947 17.9941 38.9644 18.1509C37.3701 18.5007 35.8608 19.1633 34.5244 20.1008C32.439 21.5007 30.8687 23.5449 30.0542 25.9209C29.9023 26.3711 29.8052 26.8376 29.7646 27.311L29.6646 28.021L29.6646 28.731C29.6646 29.2109 29.6646 29.6609 29.7344 30.1409C29.8042 30.6208 29.8843 31.071 29.9844 31.531C30.0845 31.991 30.2144 32.321 30.3042 32.7109C30.5645 34.2009 30.4546 34.7109 29.5444 35.511C29.3442 35.6809 29.1543 35.8909 28.9546 36.031C28.2744 36.531 27.2446 36.1609 26.4243 34.8408C25.8145 33.8633 25.3779 32.7874 25.1343 31.6609C25.0039 31.0933 24.9033 30.5193 24.8345 29.9409C24.7842 29.3408 24.7744 28.731 24.7744 28.1208C24.7861 25.5886 25.4766 23.1057 26.7744 20.9309C28.7197 17.6936 31.6592 15.1716 35.1543 13.741L35.2046 13.8608Z" fill-rule="evenodd" fill="currentColor"/>
	<path d="M39.1245 42.2407C39.7778 42.429 40.4478 42.5562 41.1245 42.6208C41.3823 42.6123 41.6396 42.5889 41.8945 42.5508C42.8662 42.5994 43.8394 42.488 44.7744 42.2207C45.1792 42.0811 45.5649 41.8931 45.9248 41.6609C46.3232 41.2805 46.8013 40.9937 47.3247 40.8208C47.5244 40.8208 47.9946 41.2007 48.3247 41.7607C48.6548 42.3208 48.9448 43.1008 48.6846 43.4907C48.4248 43.8809 48.1748 44.1008 47.9048 44.3809C47.6147 44.6436 47.311 44.8906 46.9946 45.1208C46.6416 45.2634 46.2808 45.387 45.9146 45.4907C45.5396 45.5742 45.1582 45.6277 44.7744 45.6509C44.3301 45.6794 43.8906 45.76 43.4644 45.8909C43.0381 46.0137 42.604 46.1072 42.1646 46.1709C41.1826 46.2593 40.1934 46.2122 39.2246 46.0308C38.6289 45.9094 38.0415 45.7524 37.4644 45.5608C37.0347 45.4009 36.6147 45.2007 36.2046 45.0107C35.7944 44.8208 35.3945 44.5808 35.0146 44.3308C34.6348 44.0808 34.3647 44.0007 34.0747 43.8008C33.7847 43.6008 33.4844 43.3708 33.2144 43.1309C33.0869 43.032 32.9756 42.9138 32.8848 42.7808C32.7905 42.6816 32.7432 42.5471 32.7544 42.4109C32.7544 42.2957 32.771 42.1809 32.8047 42.0708C32.9014 41.8416 33.0522 41.6389 33.2446 41.4807C33.3394 41.385 33.4395 41.2949 33.5444 41.2107C33.9482 40.9631 34.4248 40.8608 34.8945 40.9209C35.2744 40.9209 35.4146 41.0608 35.7046 41.0708C35.9946 41.0808 36.1846 41.1509 36.3848 41.2007C36.585 41.2151 36.7793 41.2732 36.9546 41.3708C37.1191 41.4592 37.2896 41.5361 37.4644 41.6008C37.998 41.8501 38.5586 42.0378 39.1348 42.1609L39.1245 42.2407Z" fill-rule="evenodd" fill="currentColor"/>
	<path d="M63.9546 72.8608C66.2573 71.71 68.1523 69.8811 69.3848 67.6208C69.7866 66.792 70.0923 65.9197 70.2944 65.0208C70.5215 64.2295 70.6523 63.4136 70.6846 62.5908C70.7095 62.1746 70.7095 61.7571 70.6846 61.3408C70.6821 61.1428 70.6621 60.9453 70.6245 60.7507C70.6089 60.5549 70.5757 60.3606 70.5244 60.1709C70.1094 58.4341 69.3623 56.7939 68.3247 55.3408C67.3813 54.0032 66.1895 52.8591 64.8145 51.9709C63.9536 51.437 63.0425 50.988 62.0947 50.6309C61.6245 50.4709 61.1748 50.2209 60.6948 50.0808L59.9849 49.8108C59.7349 49.7507 59.4946 49.6809 59.2446 49.6008C58.6245 49.3909 58.6445 48.6709 59.3047 47.9009C60.2373 46.8535 61.6406 46.3557 63.0244 46.5808C64.3945 46.865 65.7021 47.3936 66.8848 48.1409C68.0479 48.843 69.1255 49.6787 70.0947 50.6309C71.0537 51.563 71.9058 52.5994 72.6348 53.7209C73.396 54.854 74.0078 56.0808 74.4546 57.3708C74.5947 57.7607 74.7046 58.1609 74.8145 58.5908C74.9204 59.0291 75.0005 59.4731 75.0547 59.9209C75.1382 60.3435 75.1948 60.771 75.2246 61.2009C75.2837 61.6184 75.3169 62.0393 75.3247 62.4609C75.4131 64.1504 75.207 65.8423 74.7148 67.4609C73.5547 70.9163 71.2422 73.8679 68.1646 75.8208C66.3647 76.9937 64.3755 77.8464 62.2847 78.3408C60.7251 78.7227 59.1187 78.8777 57.5146 78.8008C55.9126 78.7544 54.3247 78.4885 52.7944 78.0107C50.3516 77.3301 48.1084 76.0713 46.2544 74.3408C45.8276 73.967 45.4541 73.5364 45.1445 73.0608C44.916 72.6787 44.7222 72.2771 44.5645 71.8608C44.4326 71.573 44.374 71.2568 44.3945 70.9409C44.4443 70.4578 44.6514 70.0044 44.9849 69.6509C45.1113 69.4922 45.2485 69.3418 45.3945 69.2009C45.6348 69.0107 45.9448 69.0508 46.3945 69.2009C46.6348 69.2957 46.8687 69.406 47.0947 69.5308C47.2217 69.5896 47.3369 69.6709 47.4346 69.7708C47.5601 69.8523 47.6777 69.946 47.7847 70.0508C48.0957 70.3533 48.4302 70.6306 48.7847 70.8809C48.957 70.9985 49.1147 71.1362 49.2544 71.2908C49.4146 71.4309 49.5845 71.5508 49.7446 71.6809L50.2246 72.0608L50.7349 72.4009C51.0552 72.6304 51.3892 72.8406 51.7349 73.0308C53.1943 73.8118 54.7959 74.2913 56.4448 74.4409C59.0093 74.6353 61.5742 74.0647 63.8145 72.8008L63.9546 72.8608Z" fill-rule="evenodd" fill="currentColor"/>
	<path d="M91.0845 49.2507C91.105 46.0938 90.0469 43.0242 88.0845 40.5508C87.3145 39.6902 86.4292 38.9399 85.4546 38.3208C83.7393 37.0808 81.7896 36.2029 79.7241 35.7407C78.6479 35.5283 77.5513 35.4377 76.4546 35.4709C75.3096 35.501 74.1724 35.6619 73.0645 35.9509C71.1338 36.4797 69.3799 37.5156 67.9844 38.9509C66.1743 40.8008 65.1445 43.2507 63.5742 45.5308C63.0942 46.2507 62.6646 45.9709 62.3745 45.0508C62.188 44.4619 62.0903 43.8484 62.0845 43.2307C62.062 42.8391 62.0889 42.446 62.1646 42.0608C62.2603 41.6675 62.3979 41.2854 62.5742 40.9209C63.999 37.9946 66.2612 35.5579 69.0742 33.9209C70.5093 33.1545 72.0298 32.5603 73.6045 32.1509C75.1543 31.7217 76.7563 31.5132 78.3643 31.5308C80.3477 31.5405 82.3223 31.7925 84.2441 32.2808C85.2334 32.5239 86.1899 32.8831 87.0942 33.3508C88.0068 33.7881 88.8745 34.314 89.6846 34.9209C93.1538 37.7112 95.5151 41.6465 96.3442 46.0208C96.8467 48.6404 96.8125 51.3347 96.2441 53.9409C95.3516 57.8794 93.1479 61.3979 89.9941 63.9209C87.7222 65.9844 84.9731 67.4517 81.9941 68.1909C81.3374 68.3516 80.6685 68.4587 79.9941 68.5107C79.0762 68.6274 78.144 68.4709 77.3145 68.0608C77.0659 67.9265 76.8511 67.7388 76.6846 67.5107C76.543 67.2617 76.4321 66.9963 76.3545 66.7209C76.269 66.5083 76.1958 66.2913 76.1343 66.0708C76.0244 65.5608 77.1343 64.6609 78.5342 64.3608C80.5854 63.9683 82.5249 63.1282 84.2144 61.9009C85.0459 61.3047 85.8223 60.6355 86.5342 59.9009C86.8945 59.5208 87.2441 59.1208 87.5342 58.7109C87.6846 58.5208 87.8042 58.3108 87.9644 58.1309C88.1333 57.9604 88.2842 57.7727 88.4146 57.5708C90.2124 55.2166 91.1128 52.2988 90.9546 49.3408L91.0845 49.2507Z" fill-rule="evenodd" fill="currentColor"/>
	<path d="M19.7847 79.9209C16.6655 78.7668 14.064 76.5312 12.4546 73.6208C12.1548 73.1108 11.9048 72.6208 11.6245 72.0608C11.395 71.5254 11.1948 70.978 11.0244 70.4209C10.5142 68.4392 10.4561 66.3679 10.8545 64.3608C11.2437 62.4048 12.0371 60.552 13.1846 58.9209C14.2217 57.4985 15.5015 56.2698 16.9644 55.2908C17.4458 54.9785 17.9434 54.6914 18.4546 54.4309C18.9717 54.2039 19.5112 54.033 20.0645 53.9209C20.6211 53.8127 21.188 53.769 21.7544 53.7908C22.312 53.7971 22.8667 53.8745 23.4048 54.0208C24.0747 54.1909 23.8945 54.7209 23.3545 55.3408C22.7393 56.0542 22.0293 56.6799 21.2446 57.2009C20.5532 57.5359 19.8853 57.9167 19.2446 58.3408C18.6167 58.7979 18.0459 59.3281 17.5444 59.9209C16.4897 61.1738 15.6021 62.5588 14.9048 64.0408C14.5361 65.0166 14.3823 66.0603 14.4546 67.1008C14.5479 68.1655 14.7764 69.2139 15.1348 70.2209C15.5239 71.3157 16.1064 72.3318 16.8545 73.2209C17.6313 74.1179 18.5586 74.8726 19.5947 75.4509C20.8945 76.1643 22.3428 76.5649 23.8247 76.6208C24.9702 76.644 26.1128 76.4958 27.2144 76.1809C28.3516 75.8569 29.4336 75.365 30.4248 74.7209C31.8506 73.6941 32.9873 72.3162 33.7246 70.7209L34.1846 69.6609C34.3882 69.1606 34.7363 68.7324 35.1846 68.4309C35.5732 68.2229 36.0195 68.1489 36.4546 68.2209C36.6909 68.2053 36.9282 68.2053 37.1646 68.2209C37.8945 68.3408 38.3047 69.2209 38.1646 70.5708C37.9941 71.5737 37.6562 72.5405 37.1646 73.4309C36.6562 74.3901 36.0283 75.2808 35.2944 76.0808C33.7603 77.6992 31.8706 78.9385 29.7744 79.7009C29.3945 79.8508 29.0244 79.9709 28.6445 80.0908L27.4146 80.4109C27.0005 80.5115 26.5791 80.5818 26.1548 80.6208C25.7344 80.6877 25.3101 80.7244 24.8848 80.731C23.1689 80.7986 21.4561 80.5442 19.8345 79.981L19.7847 79.9209Z" fill-rule="evenodd" fill="currentColor"/>
	<path d="M78.6343 18.4009C78.2383 18.845 77.8071 19.2563 77.3447 19.6309C77.0269 19.8921 76.6929 20.1326 76.3447 20.3508C76.0063 20.5322 75.6553 20.6895 75.2944 20.8208C74.8086 21.0471 74.2935 21.2053 73.7646 21.2908C73.354 21.3125 72.9434 21.2546 72.5547 21.1208C72.1509 21.0034 71.7983 20.7532 71.5547 20.4109C71.4243 20.2808 71.4146 20.0308 71.3447 19.8809C71.2754 19.7134 71.248 19.5315 71.2646 19.3508C71.2539 18.9492 71.3184 18.5491 71.4546 18.1709C71.749 17.3691 72.1528 16.6121 72.6543 15.9209C72.9546 15.4509 73.0947 15.1909 73.3047 14.9209C73.5156 14.6348 73.7686 14.3818 74.0547 14.1709C74.2446 14.0408 74.4844 14.2808 74.6846 14.6409C74.9146 14.9922 75.0103 15.4146 74.9546 15.8308L74.7046 16.5408L74.6445 16.5408C74.4346 16.6782 74.2681 16.8723 74.1646 17.1008C74.0244 17.3508 74.1646 17.5208 74.2544 17.5007C74.3862 17.489 74.5166 17.4656 74.6445 17.4309C74.7998 17.4282 74.9526 17.3943 75.0947 17.3308L75.3345 17.2109C75.4888 17.1113 75.6357 17.0012 75.7744 16.8809C75.9609 16.7246 76.1377 16.5576 76.3047 16.3809C76.4419 16.2332 76.5688 16.0762 76.6846 15.9109C76.8271 15.7314 76.9297 15.5234 76.9844 15.3008C77.0767 15.0662 77.0767 14.8054 76.9844 14.5708C76.9443 14.4888 76.8818 14.4194 76.8047 14.3708C76.7671 14.3481 76.7266 14.3313 76.6846 14.3208C76.6846 14.3208 76.5845 14.3208 76.5947 14.3208L76.8643 13.8208C76.8594 13.8674 76.8594 13.9143 76.8643 13.9609C76.855 14.0474 76.855 14.1345 76.8643 14.2209C76.9395 14.4563 77.0435 14.6814 77.1743 14.8909C77.2646 15.0107 77.1743 14.9509 76.9546 14.8308C76.7344 14.7109 76.4443 14.4309 75.9546 14.0107L75.2544 13.4509C74.5044 12.9209 74.0244 12.1208 74.4546 11.4409C74.8154 10.7998 75.4102 10.3232 76.1143 10.1108C76.3594 10.0461 76.6113 10.0093 76.8643 10.0007C77.146 9.99512 77.4277 10.0186 77.7046 10.0708C78.2476 10.1887 78.7568 10.428 79.1943 10.7708L79.4243 10.9509L79.5947 11.1008C79.6924 11.209 79.7793 11.3262 79.8545 11.4509C79.9438 11.5669 80.0444 11.6741 80.1543 11.7708C80.2847 11.8608 80.2944 12.0408 80.3643 12.1709C80.5718 12.7485 80.6797 13.3572 80.6846 13.9709L80.6846 14.7607L80.3545 15.9209C80.1445 16.2808 79.9346 16.6309 79.7544 16.981C79.2046 17.731 79.0044 17.981 78.6943 18.4409L78.6343 18.4009Z" fill-rule="evenodd" fill="currentColor"/>
	<path d="M73.8345 92.0908C73.2676 92.449 72.6294 92.6777 71.9644 92.761C71.2871 92.8445 70.6001 92.7585 69.9644 92.511C69.5493 92.3904 69.1621 92.1899 68.8242 91.9209C68.5728 91.6843 68.3418 91.4268 68.1343 91.1509C67.9048 90.845 67.7197 90.5083 67.5845 90.1509C67.3623 89.509 67.2803 88.8271 67.3442 88.1509C67.3853 87.5786 67.4995 87.0139 67.6841 86.4709C67.8145 86.1003 68.0186 85.76 68.2842 85.4709C68.5825 85.135 69.0054 84.9363 69.4541 84.9209C69.7241 84.9209 69.8042 85.511 69.9043 86.1008C69.9551 86.5217 70.0771 86.9307 70.2642 87.3108C70.2642 87.4609 70.1343 87.991 70.0645 88.6208C70.0444 88.7729 70.105 88.9246 70.2241 89.021C70.3945 89.1414 70.5713 89.2515 70.7544 89.3508C70.9971 89.6021 71.3535 89.7083 71.6943 89.6309C71.9814 89.561 72.2402 89.4038 72.4341 89.1809C72.7744 88.8608 73.0444 88.3008 72.9341 88.041C72.8242 87.781 72.7041 88.1008 72.5342 88.1609C72.3643 88.2209 72.4341 88.241 72.3745 88.251C72.1543 88.251 72.0142 88.1008 71.8042 87.251L71.6445 86.7009C71.4258 86.1907 71.582 85.5969 72.0244 85.261C72.4111 85.0647 72.8408 84.9685 73.2744 84.981C73.8896 84.9932 74.4824 85.2156 74.9541 85.6108C75.4961 86.0544 75.873 86.6672 76.0244 87.3508C76.1387 87.8882 76.1387 88.4436 76.0244 88.981C75.752 90.2683 74.9922 91.4006 73.9043 92.1409L73.8345 92.0908Z" fill-rule="evenodd" fill="currentColor"/>
	<path d="M67.854 62.301C67.8154 62.1755 67.7241 62.0735 67.604 62.021L66.8843 61.6409C66.9941 61.6409 66.9443 61.6409 66.9741 61.5808C67.0376 61.45 67.0718 61.3066 67.0742 61.1609C67.0352 60.9978 66.9849 60.8374 66.9243 60.6809C66.7925 59.9312 66.4453 59.2361 65.9243 58.6809C65.7056 58.4451 65.4248 58.2754 65.1143 58.1909C64.7241 58.0908 64.4243 58.1309 64.1143 58.011C63.896 57.7258 63.7959 57.3679 63.834 57.011C63.834 56.521 64.1641 55.9209 64.6343 55.9109C65.3887 55.8713 66.1377 56.0596 66.7842 56.4509C67.3506 56.8164 67.8125 57.323 68.124 57.9209C68.6094 58.542 69.0283 59.2124 69.374 59.9209C69.7749 60.8894 69.7344 61.9844 69.2642 62.9209L69.0942 63.1909L69.0942 63.261C68.9058 63.4666 68.6685 63.6213 68.4043 63.7109C68.2422 63.7593 68.0732 63.783 67.9043 63.781C67.7715 63.7688 67.6406 63.7419 67.5142 63.7009C67.1934 63.5796 66.9053 63.3843 66.6743 63.1309C66.0942 62.491 65.854 61.8809 65.4443 61.3608C65.1284 61.0103 64.7949 60.6765 64.4443 60.3608C64.3696 60.3098 64.2998 60.2529 64.2344 60.1909C64.0342 59.9609 64.1343 59.821 64.4443 59.251L64.644 58.8708C64.8159 58.4458 65.291 58.2302 65.7241 58.3809C66.2842 58.5752 66.8101 58.8552 67.2842 59.2109C67.6714 59.5134 68.0083 59.8745 68.2842 60.281C68.4482 60.4902 68.5923 60.7146 68.7144 60.9509L68.7144 61.031L68.6343 61.1409C68.564 61.2209 68.4844 61.3508 68.4341 61.3909C68.3843 61.4309 68.3442 61.491 68.3042 61.551C68.1729 61.7419 68.062 61.9463 67.9741 62.1609C67.9619 62.217 67.9619 62.2749 67.9741 62.3308L67.854 62.301Z" fill-rule="evenodd" fill="currentColor"/>
	<path d="M6.94434 37.6909C6.67578 37.3447 6.4541 36.9648 6.28467 36.561C6.11523 36.1509 6.02051 35.7141 6.00439 35.271C5.98584 34.8672 6.02588 34.4629 6.12451 34.071C6.19043 33.699 6.30127 33.3362 6.45459 32.991C6.56104 32.728 6.68799 32.4739 6.83447 32.231C6.96143 31.981 7.13477 31.7571 7.34424 31.571C7.9917 30.981 8.79248 30.5857 9.6543 30.4309C10.374 30.302 11.1089 30.2817 11.8345 30.3708C12.4497 30.4443 13.0605 30.5513 13.6646 30.6909C14.5459 30.811 15.3022 31.3784 15.6646 32.1909C15.7646 32.491 15.0942 32.811 14.4346 33.1409C14.1323 33.2856 13.8418 33.4529 13.5645 33.6409C13.3047 33.801 13.1543 33.9209 13.1045 33.9009C12.6445 33.761 11.8145 33.6309 10.9746 33.4709C10.5591 33.3975 10.147 33.616 9.97461 34.001C9.85986 34.1257 9.78613 34.2827 9.76465 34.4509C9.72607 34.6047 9.70557 34.7625 9.70459 34.9209C9.75537 35.2126 9.92139 35.4719 10.1646 35.6409C10.6914 36.0686 11.3301 36.3359 12.0044 36.4109C12.2837 36.4292 12.564 36.4021 12.8345 36.3308L13.6343 36.1709C13.7422 36.135 13.8525 36.1082 13.9644 36.0908C14.3745 36.0908 14.4946 36.251 14.8047 37.021L15.0044 37.541C15.2441 38.0518 15.1084 38.6602 14.6743 39.021C14.0562 39.4749 13.3521 39.7981 12.6045 39.9709C11.8853 40.0388 11.1602 39.9949 10.4546 39.8408C9.07373 39.5383 7.82422 38.8066 6.88428 37.751L6.94434 37.6909Z" fill-rule="evenodd" fill="currentColor"/>
	<path d="M44.7441 52.9207C45.123 52.4019 45.5303 51.9043 45.9644 51.4307C46.1245 51.2607 46.2144 51.0208 46.3945 50.8608C47.022 50.27 47.7129 49.75 48.4541 49.3108C48.8042 49.1108 49.1343 48.8809 49.4541 48.6506C49.9277 48.1895 50.6221 48.0383 51.2441 48.2607C51.4644 48.3608 51.3442 49.2107 51.2441 50.0508C51.2051 50.4329 51.1885 50.8167 51.1943 51.2007C51.1943 51.5208 51.2642 51.7007 51.1943 51.7407C51.0293 51.8508 50.8467 51.9319 50.6543 51.9807C50.4863 52.0361 50.311 52.0664 50.1343 52.0708C49.9443 52.0708 49.7241 52.0708 49.4941 52.1309C48.9443 52.2107 48.6445 52.6409 48.2344 52.9307C47.7642 53.2717 47.3135 53.6389 46.8843 54.0308C46.6162 54.2722 46.3623 54.5293 46.1245 54.8008C45.7397 55.1924 45.4043 55.6287 45.1245 56.1008C44.9575 56.4749 44.8369 56.8677 44.7642 57.2708C44.7642 57.3508 44.7642 57.4407 44.7041 57.5208C44.6143 57.8108 44.4741 57.8608 44.0142 57.8208L43.6943 57.8208C43.373 57.8022 43.1133 57.5513 43.0845 57.2307C43.0557 56.3281 43.248 55.4321 43.6445 54.6208C43.9478 54.0266 44.2988 53.458 44.6943 52.9207L44.7441 52.9207Z" fill-rule="evenodd" fill="currentColor"/>
	<path d="M34.7344 53.791C35.2617 54.2451 35.7563 54.7363 36.2144 55.261C36.3745 55.4509 36.5942 55.5908 36.7544 55.8008C37.0068 56.1824 37.2212 56.5876 37.3945 57.011C37.5542 57.4509 37.6445 57.8909 37.7544 58.3108C37.8359 58.6506 37.9395 58.9846 38.0645 59.3108C38.2896 59.7312 38.3398 60.2236 38.2041 60.6809C38.1343 60.8308 37.6143 60.8708 37.0645 60.8508C36.5142 60.8308 35.9243 60.771 35.8242 60.6008C35.4395 60.1064 35.1699 59.5327 35.0342 58.9209C34.9028 58.5459 34.6626 58.2188 34.3442 57.981C34.042 57.6182 33.707 57.2834 33.3442 56.981C33.1045 56.8008 32.8745 56.5808 32.6143 56.3909C32.2261 56.0781 31.7905 55.8284 31.3242 55.6509C30.9443 55.5508 30.5645 55.491 30.1841 55.3809C30.1016 55.3677 30.021 55.3442 29.9443 55.3108C29.6445 55.1809 29.6143 54.9109 29.6743 54.4409L29.6743 54.1108C29.7476 53.7747 29.9629 53.4866 30.2642 53.3208C30.7139 53.1433 31.1792 53.0093 31.6543 52.9209C32.0835 52.8264 32.5303 52.8542 32.9443 53.001C33.583 53.1736 34.1978 53.4255 34.7744 53.751L34.7344 53.791Z" fill-rule="evenodd" fill="currentColor"/>
	<defs/>
</svg>
