<svg width="24" height="24" viewBox="0 0 110 110" fill="none" xmlns="http://www.w3.org/2000/svg" xmlns:xlink="http://www.w3.org/1999/xlink">
	<path d="M27.4854 30.6721C27.9751 30.2593 28.3418 29.7197 28.5449 29.1123C28.5903 28.8677 28.6206 28.6206 28.6353 28.3723C28.7212 27.8894 28.7212 27.395 28.6353 26.9121C28.5537 26.3726 28.3955 25.8472 28.165 25.3523C27.9688 24.9341 27.6738 24.5703 27.3052 24.2922C26.8828 24.0566 26.4492 23.843 26.0049 23.6521C25.8164 23.2603 25.8164 22.804 26.0049 22.4121C26.1748 21.762 26.7974 21.3357 27.4653 21.4121C28.4678 21.6799 29.3628 22.2532 30.0249 23.0522C30.5957 23.7224 31.0093 24.5115 31.2354 25.3623C31.6152 26.3828 31.8804 27.4426 32.0249 28.5222C32.0688 29.7532 31.7788 30.9729 31.1851 32.0522C30.8164 32.728 30.3403 33.3394 29.7749 33.8623C28.8975 34.6252 27.8418 35.155 26.7051 35.4021C26.2749 35.5022 25.855 35.6521 25.415 35.7322C24.979 35.8572 24.5288 35.9277 24.0752 35.9421C23.8799 35.9773 23.6802 35.9773 23.4854 35.9421C22.8052 35.7422 22.6851 35.3723 22.9351 34.3323C22.9854 34.0923 23.0352 33.8523 23.105 33.6223C23.2695 32.9883 23.6519 32.4326 24.1851 32.0522L24.5952 31.8423C24.6973 31.7605 24.812 31.6963 24.9351 31.6521C25.0352 31.6521 25.1353 31.5923 25.2354 31.5623L25.4854 31.4622C25.8149 31.3821 26.0249 31.2822 26.2749 31.2422C26.6958 31.158 27.084 30.957 27.395 30.6621L27.4854 30.6721Z" fill-rule="evenodd" fill="currentColor"/>
	<path d="M49.7852 31.312C49.9619 31.5349 50.1709 31.7305 50.4053 31.8921C50.6465 32.0801 50.9121 32.2349 51.1953 32.3521C51.4146 32.4207 51.6382 32.4741 51.8652 32.512C52.6914 32.8892 53.5986 33.0542 54.5049 32.9919C54.7202 32.9797 54.9326 32.9358 55.1353 32.8621C55.3345 32.8232 55.5288 32.7629 55.7148 32.6821C55.9639 32.6042 56.1948 32.4785 56.395 32.312C56.6001 32.1555 56.7847 31.9741 56.9453 31.772C57.0649 31.6521 57.145 31.6921 57.1851 31.8821C57.2026 32.0115 57.2026 32.1426 57.1851 32.272C57.1909 32.4553 57.1348 32.635 57.0249 32.782C56.835 33.052 56.665 33.3821 56.4351 33.6521C56.2349 33.9473 55.9805 34.2017 55.6851 34.4021C55.3965 34.5906 55.084 34.7388 54.7549 34.842C54.4351 34.9666 54.0977 35.0408 53.7549 35.062C53.355 35.062 52.9551 35.1621 52.5449 35.2419C52.1348 35.312 51.7153 35.312 51.3052 35.2419C50.8486 35.1824 50.3975 35.0889 49.9551 34.9619C49.5156 34.8052 49.085 34.625 48.665 34.4221L47.9253 33.9719C47.6851 33.812 47.4751 33.6021 47.2451 33.4221C46.6318 32.801 46.1133 32.0935 45.7051 31.322C45.5049 31.042 45.355 30.762 45.1753 30.4719C44.9668 30.1987 44.7954 29.8997 44.665 29.582C44.6113 29.4456 44.5679 29.3052 44.5352 29.1621C44.4648 28.6221 44.6851 28.4221 45.5352 28.262L46.0752 28.1521C46.5791 28.0698 47.0952 28.1768 47.5249 28.4519C48.1074 28.9221 48.5991 29.4949 48.9751 30.1421C49.2749 30.4519 49.5049 30.812 49.875 31.1421L49.7852 31.312Z" fill-rule="evenodd" fill="currentColor"/>
	<path d="M28.0649 51.9919C28.4072 51.5557 28.6221 51.033 28.6851 50.4819C28.7451 50.272 28.625 50.042 28.6851 49.822C28.7466 48.9197 28.6382 48.0139 28.3647 47.1521C28.2388 46.7942 28.0601 46.4573 27.835 46.1521C27.728 45.9924 27.6001 45.8477 27.4551 45.7219C27.355 45.6619 27.3052 45.542 27.085 45.582C26.8647 45.6221 26.7852 45.4219 26.7949 45.1121C26.7979 44.9045 26.8887 44.7083 27.0449 44.572C27.2705 44.3555 27.5894 44.2656 27.895 44.332C28.707 44.5383 29.396 45.075 29.7949 45.812C30.1138 46.3684 30.3403 46.9729 30.4648 47.6021C30.6953 48.3418 30.8721 49.0969 30.9951 49.8621C31.0186 50.7986 30.8091 51.7266 30.3848 52.562C30.1201 53.0647 29.7832 53.5264 29.3848 53.9319C28.7983 54.5088 28.123 54.988 27.3848 55.3521C26.8579 55.6748 26.314 55.9688 25.7549 56.2319C25.625 56.282 25.5049 56.3621 25.375 56.4021C24.875 56.522 24.6851 56.4021 24.5249 55.782C24.5249 55.6521 24.4448 55.512 24.415 55.3721C24.2959 54.9885 24.418 54.571 24.7251 54.312C25.5049 53.782 26.2251 53.4419 26.8447 53.012C27.2959 52.7341 27.6812 52.3623 27.9751 51.9219L28.0649 51.9919Z" fill-rule="evenodd" fill="currentColor"/>
	<path d="M53.835 50.8623C54.1499 50.5308 54.3379 50.0986 54.3652 49.6423C54.3652 49.4521 54.2749 49.2722 54.2852 49.0723C54.2949 48.8723 54.2852 48.6924 54.2852 48.5022C54.27 48.3079 54.2295 48.1162 54.165 47.9324C54.0352 47.5222 53.875 47.1023 53.7051 46.6824C53.542 46.3591 53.3101 46.0757 53.0249 45.8523C52.8867 45.7581 52.7393 45.6777 52.585 45.6123C52.5415 45.5872 52.5015 45.5571 52.4653 45.5222C52.4004 45.4988 52.3369 45.4722 52.2749 45.4424C52.0537 45.0649 51.9561 44.6279 51.9951 44.1924C52.0142 43.8538 52.1362 43.5293 52.3452 43.2622C52.5532 42.9717 52.9194 42.8403 53.2651 42.9324C54.1626 43.0977 54.9912 43.5256 55.645 44.1624C56.1816 44.6274 56.5708 45.239 56.7651 45.9224C56.9077 46.335 57.0815 46.7361 57.2852 47.1223C57.9658 48.4331 58.1094 49.9575 57.6851 51.3723C57.5151 51.9702 57.2446 52.5349 56.8853 53.0422C56.3447 53.7253 55.7197 54.3369 55.0249 54.8623C54.5752 55.3145 54.0757 55.7136 53.5352 56.0522C53.4209 56.1318 53.3003 56.2019 53.1753 56.2622C52.6851 56.4521 52.4351 56.2622 52.1152 55.6724C52.0376 55.55 51.9673 55.4231 51.9053 55.2922C51.8027 55.0911 51.751 54.8679 51.7549 54.6423C51.7441 54.429 51.7856 54.2161 51.875 54.0222C52.1353 53.5422 52.3452 53.0823 52.5249 52.6824C52.7051 52.2822 52.9551 52.0723 53.1152 51.8022C53.3662 51.4966 53.5776 51.1606 53.7451 50.8022L53.835 50.8623Z" fill-rule="evenodd" fill="currentColor"/>
	<path d="M29.1353 75.9819C29.4268 75.5364 29.5986 75.0232 29.6353 74.4919C29.6353 74.272 29.6353 74.042 29.6353 73.812C29.6719 72.9456 29.5425 72.0801 29.2549 71.262C29.1035 70.916 28.9263 70.5818 28.7251 70.262C28.4453 69.842 28.1353 69.4519 27.875 68.9919C27.7949 68.8521 27.9253 68.6619 28.2051 68.532C28.5537 68.3857 28.9463 68.3857 29.2949 68.532C29.8857 68.8398 30.4199 69.2456 30.875 69.7319C31.2075 70.3018 31.4277 70.9297 31.5249 71.582C31.6353 72.3521 31.9453 73.072 32.0151 73.8621C32.1011 74.7563 31.9849 75.6584 31.6753 76.502C31.4663 77.0483 31.1616 77.553 30.7749 77.9919C30.1919 78.5649 29.5156 79.0349 28.7749 79.3818C28.2451 79.6519 27.7749 80.012 27.2549 80.282C27.146 80.3528 27.0327 80.4163 26.915 80.4719C26.4849 80.6418 26.3052 80.4719 26.0352 79.8621L25.855 79.4119C25.6646 79.0125 25.7275 78.5383 26.0151 78.2019C26.6709 77.6567 27.3813 77.1809 28.1353 76.782C28.5161 76.5928 28.8403 76.3064 29.0752 75.9519L29.1353 75.9819Z" fill-rule="evenodd" fill="currentColor"/>
	<path d="M52.3652 67.9622C53.3911 68.0176 54.3794 68.3645 55.2153 68.9622C55.4858 69.1064 55.7432 69.2737 55.9854 69.4622C56.6182 70.1477 57.1626 70.9104 57.605 71.7322C57.7944 72.0803 58.0083 72.4146 58.2451 72.7322C58.5801 73.0913 58.7842 73.5527 58.8252 74.042C58.8252 74.2122 58.4551 74.4121 58.0049 74.552C57.626 74.7224 57.2065 74.7812 56.7949 74.7222C56.4497 74.5354 56.1157 74.3284 55.7949 74.1021C55.4795 73.9104 55.2285 73.6282 55.0752 73.292C54.8853 72.8621 54.2949 72.7021 54.0049 72.542C53.7178 72.3616 53.4038 72.2268 53.0752 72.1421C52.9766 72.1235 52.8794 72.0967 52.7852 72.062C52.6724 72.0469 52.5581 72.0469 52.4453 72.062C52.0322 72.0796 51.6392 72.2424 51.335 72.522C51.0942 72.8186 50.9106 73.158 50.7949 73.522C50.7681 73.5979 50.7344 73.6716 50.6953 73.7419C50.4951 73.9722 50.2549 73.9121 49.5352 73.512L49.0552 73.252C48.5723 73.0244 48.2295 72.5774 48.1353 72.052C48.0913 71.4836 48.1768 70.9128 48.3853 70.3821C48.4795 70.1018 48.6177 69.8386 48.7949 69.6021C48.998 69.3748 49.2188 69.1641 49.4551 68.9722C50.3022 68.3445 51.3052 67.9607 52.355 67.8621L52.3652 67.9622Z" fill-rule="evenodd" fill="currentColor"/>
	<path d="M77.1353 73.6418C77.5859 73.3992 77.9761 73.0574 78.2754 72.6418C78.3652 72.47 78.4453 72.293 78.5151 72.1121C78.937 71.5212 79.2017 70.833 79.2852 70.1121C79.2944 69.8232 79.2026 69.5403 79.0254 69.312C78.8853 68.9919 78.6953 68.772 78.4951 68.312C78.4351 68.1619 78.5952 67.782 78.9351 67.4419C79.2827 67.0237 79.833 66.8313 80.3652 66.9419C80.7686 67.1306 81.1421 67.3765 81.4751 67.6719C81.7441 68.0049 81.9414 68.3894 82.0552 68.802C82.2803 69.5386 82.2803 70.3254 82.0552 71.062C81.9116 71.8665 81.7178 72.6614 81.4751 73.4419C81.1216 74.2493 80.627 74.9873 80.0151 75.6218C79.6196 75.9973 79.1875 76.3323 78.7251 76.6218C77.9707 77.0781 77.123 77.3584 76.2451 77.4419C75.5371 77.5767 74.8145 77.6204 74.0952 77.572C73.9419 77.5505 73.791 77.5137 73.645 77.4619C73.4058 77.3867 73.2544 77.1511 73.2852 76.9019C73.3154 76.5845 73.4146 76.2773 73.5752 76.002C73.665 75.832 73.7451 75.6719 73.8354 75.522C74.1245 75.0615 74.5098 74.6689 74.9653 74.3718C75.3267 74.156 75.7222 74.0037 76.1353 73.9219C76.4482 73.8789 76.7461 73.7625 77.0054 73.582L77.1353 73.6418Z" fill-rule="evenodd" fill="currentColor"/>
	<path d="M28.8452 37.7422C27.2568 37.9624 25.6392 37.7871 24.1353 37.2322C22.7104 36.6875 21.4497 35.7852 20.4751 34.6121C19.8008 33.8318 19.2295 32.968 18.7749 32.042C18.0493 30.418 17.8267 28.614 18.1353 26.8621C18.4658 25.1667 19.2583 23.5957 20.4248 22.322C21.3872 21.1768 22.5801 20.2466 23.9248 19.592C24.8677 19.0874 25.9473 18.8982 27.0049 19.052C28.0723 19.2239 29.0298 19.8049 29.6748 20.6721C30.0552 21.1921 29.4849 21.592 28.6748 22.0222C28.2676 22.2424 27.8799 22.4966 27.5151 22.782C27.1553 23.042 26.895 23.3821 26.7349 23.5022L26.5352 23.6821C26.4751 23.7622 26.4248 23.842 26.3652 23.832C26.3052 23.822 26.0952 23.9321 25.9248 24.032C25.5439 24.2297 25.1851 24.4678 24.855 24.7422C23.9404 25.2808 23.1475 26.0024 22.5249 26.8621C21.7749 27.9421 22.1152 29.6121 22.8149 30.8621C23.4658 31.8628 24.4922 32.5591 25.6621 32.7944C26.8325 33.0295 28.0483 32.7837 29.0352 32.1121C30.1597 31.0708 30.6211 29.4954 30.2349 28.0122C29.8999 26.7407 29.1631 25.6116 28.1353 24.792C27.9199 24.6616 27.7129 24.5181 27.5151 24.3621C27.2808 24.1055 27.1772 23.7549 27.2349 23.4121C27.2783 23.1987 27.3457 22.9907 27.4351 22.792C27.5552 22.5222 27.7148 22.2222 27.8853 21.8821L28.3052 21.0022C28.5508 20.5488 28.9468 20.1953 29.4248 20.0022C29.6924 19.8743 29.9902 19.8225 30.2852 19.8521C30.6064 19.8665 30.9204 19.9519 31.2051 20.1021L31.875 20.4521L32.2051 20.6421L32.4648 20.8921C32.8271 21.2173 33.1616 21.5718 33.4648 21.9521C33.7461 22.3359 34.0029 22.7368 34.2349 23.1521C34.4448 23.582 34.6553 24.0122 34.8252 24.4521C35.4888 26.3298 35.6943 28.3389 35.4248 30.312C35.2646 32.0496 34.6245 33.708 33.5752 35.1021C33.2549 35.4622 32.9248 35.812 32.5752 36.1021C32.2095 36.4099 31.8218 36.6907 31.415 36.9421C31.2197 37.0752 31.0161 37.1956 30.8052 37.302L30.1553 37.522C29.7397 37.6729 29.3115 37.7834 28.875 37.8521L28.8452 37.7422Z" fill-rule="evenodd" fill="currentColor"/>
	<path d="M58.6152 34.8621C57.5391 36.0679 56.1064 36.8982 54.5249 37.2322C52.0596 37.6274 49.5347 37.1082 47.4253 35.772C44.5825 33.7153 43.1304 30.24 43.665 26.772C43.7725 25.9834 44.0747 25.2341 44.5449 24.592C44.9927 23.9653 45.5645 23.4377 46.2251 23.042C47.7632 22.1833 49.542 21.8564 51.2852 22.1121C51.7949 22.1821 51.7251 22.272 51.2852 22.502C50.8452 22.7322 50.165 23.2222 49.4253 23.6821C48.812 24.033 48.2529 24.4709 47.7651 24.9822C47.4434 25.3362 47.2251 25.772 47.1353 26.2419C47.1348 26.4573 47.1113 26.6719 47.0649 26.8821L46.9751 27.302L46.9751 27.7322C46.9331 28.3376 46.9702 28.946 47.085 29.542C47.5371 31.0706 48.6323 32.3262 50.085 32.9822C50.8486 33.3755 51.6875 33.6006 52.5449 33.6421C53.3584 33.6929 54.168 33.4939 54.8652 33.072C55.2812 32.8086 55.644 32.4692 55.9351 32.072C56.2222 31.6257 56.4253 31.1311 56.5352 30.6121C56.7285 29.791 56.7114 28.9346 56.4849 28.1221C56.2559 27.3633 55.7808 26.7019 55.1353 26.2419C54.1294 25.4915 52.8994 25.1038 51.645 25.1421C51.3628 25.1724 51.0776 25.1724 50.7949 25.1421C50.3667 25.1121 49.9761 24.8872 49.7349 24.532C49.625 24.3137 49.5444 24.0815 49.4951 23.842C49.4351 23.542 49.395 23.1921 49.355 22.842C49.3149 22.4919 49.2651 22.2122 49.2451 21.9421C49.2368 21.4399 49.3833 20.9478 49.665 20.532C49.9429 20.0005 50.4536 19.6304 51.0449 19.532C51.4937 19.4373 51.9478 19.3738 52.4053 19.342C52.8706 19.3259 53.3364 19.3594 53.7949 19.4421C54.7842 19.604 55.7422 19.9177 56.6353 20.3721C57.6611 20.8711 58.5762 21.5715 59.3252 22.4321C60.0542 23.4277 60.5654 24.5657 60.8252 25.772C61.0088 26.6121 61.0664 27.4751 60.9951 28.332C60.9951 28.762 60.9253 29.1121 60.9053 29.4919C60.8721 29.8748 60.8188 30.2551 60.7451 30.6321C60.4155 32.1875 59.7119 33.6394 58.6953 34.8621L58.6152 34.8621Z" fill-rule="evenodd" fill="currentColor"/>
	<path d="M77.585 25.6619C77.7148 26.082 78.2949 26.4719 78.645 26.2419C78.7651 26.1619 78.645 25.8821 78.7451 25.792C78.9263 25.5588 78.9722 25.2473 78.8647 24.9719C78.7964 24.7671 78.6953 24.5745 78.5649 24.4019C78.3506 24.1245 78.0981 23.8787 77.8149 23.6719C77.1162 23.114 76.2583 22.792 75.3647 22.752C74.2944 22.7986 73.2676 23.1875 72.4351 23.8621C72.1147 24.052 71.665 23.7419 71.4351 23.082C71.3335 22.6816 71.3335 22.2622 71.4351 21.8621C71.5815 21.3645 71.896 20.9333 72.3252 20.6421C74.0024 19.5811 76.0742 19.3489 77.9448 20.012C78.3789 20.1453 78.7974 20.3228 79.1948 20.542C79.4048 20.6519 79.585 20.7419 79.8052 20.8721L80.4951 21.342C80.9922 21.6975 81.437 22.1216 81.8149 22.6021C82.2451 23.072 82.5947 23.6021 82.9551 24.042C83.4976 25.1667 83.917 26.3469 84.2051 27.562C84.5039 28.6689 84.48 29.8384 84.1348 30.9319C83.9683 31.4888 83.7329 32.0229 83.4351 32.522C83.1064 33.001 82.7085 33.429 82.2549 33.792C81.3032 34.5242 80.145 34.937 78.9448 34.9719C77.4844 35.0452 76.0317 34.7166 74.7451 34.022C73.7593 33.5002 72.9043 32.7617 72.2451 31.8621C71.6406 30.9753 71.2129 29.9805 70.9849 28.9319C70.5801 27.2151 70.6528 25.4204 71.1948 23.7419C71.3213 23.2896 71.4917 22.8506 71.7051 22.4319C71.8848 22.0737 72.1064 21.738 72.3647 21.4319C72.5103 21.2812 72.6992 21.1797 72.9048 21.1421C73.437 21.1199 73.9634 21.2593 74.415 21.542C74.7148 21.6919 75.0151 21.822 75.3052 21.9919C76.1489 22.4265 76.6724 23.303 76.6548 24.252C76.8647 24.822 77.165 24.9219 77.3447 24.9419C77.4375 24.958 77.5327 24.9324 77.605 24.8721C77.5283 25.0051 77.5283 25.1689 77.605 25.302L77.585 25.6619Z" fill-rule="evenodd" fill="currentColor"/>
	<path d="M31.9351 57.2922C30.6064 58.3484 28.9883 58.9761 27.2949 59.0923C25.5454 59.2246 23.8066 58.7244 22.395 57.6821L21.6753 57.1123L21.0352 56.4822C20.6104 56.0535 20.271 55.5479 20.0352 54.9922C19.3008 53.1475 19.2725 51.0967 19.9551 49.2322C20.5376 47.6511 21.4551 46.2148 22.645 45.0222C23.6353 43.9602 24.8198 43.0979 26.1353 42.4822C27.0923 42.1228 28.127 42.0229 29.1353 42.1921C30.0986 42.3821 30.9697 42.8933 31.605 43.6423C31.9653 44.1023 31.605 44.2922 31.0151 44.4221C30.7251 44.4221 30.3452 44.5723 30.0151 44.6621C29.6851 44.7522 29.335 44.9023 29.0151 44.9722C28.5278 45.0923 28.0757 45.3252 27.6953 45.6523C27.2373 45.9526 26.8027 46.2869 26.395 46.6523C25.4888 47.4893 24.7251 48.4688 24.1353 49.5522C23.8076 50.1643 23.6919 50.8674 23.8052 51.5522C23.938 52.1091 24.1831 52.6333 24.5249 53.0923C24.8428 53.6086 25.3311 53.9976 25.9053 54.1921C26.562 54.3889 27.2661 54.3608 27.9053 54.1123C28.3394 53.9348 28.7441 53.6919 29.105 53.3923C29.4517 53.0701 29.7368 52.687 29.9453 52.2622C30.2637 51.5171 30.417 50.7122 30.395 49.9023C30.3833 49.0566 30.167 48.2263 29.7651 47.4822C29.4658 46.9653 29.0342 46.5376 28.5151 46.2422C28.0869 46.0312 27.6118 45.9346 27.1353 45.9622L26.5952 46.0322C26.271 46.031 25.9624 45.8931 25.7451 45.6523C25.4282 45.2922 25.1499 44.9001 24.915 44.4822C24.7852 44.2522 24.625 44.0522 24.5151 43.8423C24.3184 43.4851 24.2964 43.0576 24.4551 42.6821C24.6162 42.0801 25.0381 41.5813 25.605 41.3223C26.1055 41.0618 26.6528 40.9055 27.2153 40.8623C27.8062 40.7898 28.4058 40.8237 28.9854 40.9622C30.1543 41.2576 31.2349 41.8306 32.1353 42.6323C33.7383 44.1501 34.7603 46.1804 35.0249 48.3723C35.2656 49.918 35.1904 51.4963 34.8052 53.0122C34.3384 54.7224 33.3574 56.2478 31.9951 57.3823L31.9351 57.2922Z" fill-rule="evenodd" fill="currentColor"/>
	<path d="M59.8447 52.8621C59.5249 54.2964 58.7827 55.6025 57.7148 56.6121C56.6421 57.5957 55.2822 58.209 53.835 58.3621L53.145 58.4822L52.4248 58.4822C51.9482 58.5371 51.4653 58.5168 50.9951 58.4221C49.3784 58.0154 47.9263 57.1216 46.835 55.8621C46.5586 55.5864 46.314 55.2812 46.105 54.9521C45.873 54.6409 45.6753 54.3054 45.5146 53.9521C45.2104 53.2874 44.9985 52.5842 44.8848 51.8621L44.7847 50.8621C44.7847 50.542 44.7847 50.2222 44.7847 49.9121C44.7778 49.5972 44.8013 49.2825 44.855 48.9722C44.8848 48.6636 44.9453 48.3589 45.0347 48.062C45.415 46.5447 46.4023 45.2502 47.7646 44.4822C48.1548 44.2322 48.1948 44.4221 48.085 44.8521C48.0249 45.072 47.9351 45.3521 47.8247 45.6421C47.7148 45.9321 47.645 46.322 47.4849 46.6421C47.0308 47.7012 46.9565 48.8845 47.2749 49.9922C47.7817 50.9004 48.3359 51.7815 48.9351 52.6321C49.2983 53.1409 49.8076 53.5278 50.395 53.7422C50.9766 53.8865 51.5684 53.9868 52.165 54.042L52.6748 54.1121L53.1948 54.062C53.5342 54.0652 53.8716 54.0146 54.1948 53.9121C54.7349 53.7246 55.1919 53.353 55.4849 52.8621C55.9614 52.0269 56.187 51.0723 56.1348 50.1121C56.0493 48.5569 55.4399 47.0762 54.4048 45.9121C54.0581 45.5503 53.6006 45.3145 53.105 45.2422C52.7471 45.1948 52.3857 45.2961 52.105 45.522C51.9951 45.6121 51.915 45.7322 51.8047 45.832C51.686 45.8804 51.562 45.9141 51.4351 45.9321C51.2646 45.8979 51.0996 45.8408 50.9448 45.762C50.5347 45.5837 50.1533 45.3445 49.8149 45.052C49.605 44.9021 49.395 44.772 49.2148 44.6221C48.9072 44.3767 48.7153 44.0144 48.6851 43.6221C48.6191 43.0632 48.7461 42.4988 49.0449 42.022C49.3574 41.6191 49.7446 41.2798 50.1851 41.022C50.689 40.7668 51.228 40.5881 51.7847 40.4922C52.9688 40.3018 54.1826 40.4763 55.2646 40.9922C56.2148 41.4453 57.0518 42.1047 57.7148 42.9221C58.2993 43.6326 58.7773 44.4243 59.1348 45.272C59.6484 46.4382 59.9629 47.6821 60.0649 48.9521C60.0649 49.272 60.0649 49.582 60.0649 49.9021C60.0649 50.2222 60.1147 50.532 60.0649 50.9021C60.0664 51.5737 59.9995 52.2439 59.8647 52.9021L59.8447 52.8621Z" fill-rule="evenodd" fill="currentColor"/>
	<path d="M71.8252 48.592C72.4263 48.9456 73.1768 48.9221 73.7549 48.532C73.9048 48.3721 73.5449 48.1721 73.665 48.032C73.8945 47.7529 73.9663 47.376 73.855 47.032C73.7031 46.6155 73.355 46.3008 72.9248 46.1921C72.3613 46.0969 71.7861 46.2749 71.375 46.6721C71.1172 46.9026 70.8979 47.1726 70.7251 47.4719C70.6812 47.5574 70.624 47.6353 70.5552 47.7021C70.4448 47.832 70.3149 47.9521 70.2051 48.092C69.9595 48.3589 69.729 48.6394 69.5151 48.9321C69.2349 49.302 69.0552 49.1921 68.875 48.7021C68.7554 48.3782 68.6685 48.0432 68.6152 47.7021C68.5996 47.4656 68.5996 47.2285 68.6152 46.9919C68.6094 46.6792 68.6816 46.3701 68.8252 46.092L69.0649 45.542L69.355 44.9221C69.4648 44.7119 69.5552 44.502 69.665 44.292L70.0752 43.6821C70.2964 43.3159 70.6147 43.0183 70.9951 42.822C71.3149 42.6221 71.6548 42.312 71.9951 42.072C72.5767 41.7764 73.2007 41.574 73.8452 41.4719C74.4194 41.3755 75.0029 41.3418 75.585 41.3721C76.6367 41.4451 77.6602 41.7451 78.585 42.252C79.4233 42.658 80.1875 43.2024 80.8452 43.8621C81.2148 44.2319 81.5952 44.6121 81.9551 45.012C82.3091 45.4116 82.6431 45.8289 82.9551 46.262C83.6602 47.1133 84.1509 48.1216 84.3848 49.2021C84.6816 50.3918 84.5942 51.645 84.1348 52.782C83.6758 53.9207 82.8623 54.8813 81.8149 55.522C80.5488 56.3047 79.1104 56.7646 77.625 56.8621C75.3286 57.0117 73.0342 56.5493 70.9751 55.522C70.1899 55.1423 69.4463 54.6833 68.7549 54.1521L68.2451 53.7119L67.7749 53.1921C67.6216 53.0032 67.478 52.8062 67.3452 52.6021C67.2695 52.5027 67.1992 52.3992 67.1348 52.292L67.0151 51.8921L66.7749 51.1821C66.7749 50.9321 66.665 50.6721 66.625 50.4021C66.5586 49.926 66.6138 49.4409 66.7852 48.9919C66.8457 48.6309 67.0254 48.3 67.2949 48.052C67.6592 47.6665 68.1479 47.4221 68.6748 47.3621C68.8774 47.3325 69.0825 47.3325 69.2852 47.3621C69.562 47.4297 69.8169 47.5674 70.0249 47.762C70.1719 47.8882 70.3086 48.0254 70.4351 48.1721C70.4893 48.2815 70.5947 48.356 70.7158 48.3701C70.8369 48.3843 70.957 48.3359 71.0352 48.2419C71.0967 48.1819 71.1294 48.0981 71.125 48.012C71.2104 48.1863 71.3613 48.3193 71.5449 48.3821L71.8252 48.592Z" fill-rule="evenodd" fill="currentColor"/>
	<path d="M34.375 77.1023C33.9878 78.4104 33.2676 79.5955 32.2852 80.5422C31.2905 81.479 30.0479 82.1106 28.7051 82.3623C27.8545 82.5659 26.9775 82.6367 26.105 82.5723C25.731 82.5562 25.3589 82.5024 24.9951 82.4124C24.6128 82.3345 24.2358 82.2341 23.8652 82.1123C23.4854 81.9521 23.105 81.7922 22.7354 81.6123C22.3652 81.4321 21.9951 81.1023 21.665 80.8223C21.3477 80.4951 21.0601 80.1404 20.8052 79.7622L20.5054 79.1624C20.3955 78.9719 20.3276 78.7607 20.3052 78.5422C20.2222 78.1345 20.1919 77.7178 20.2153 77.3022C20.2183 76.9241 20.2686 76.5479 20.3652 76.1821C20.6172 75.0032 21.0923 73.8831 21.7651 72.8823C22.5308 71.6611 23.6123 70.6694 24.895 70.0122C25.2754 69.8123 25.2651 69.9023 25.0952 70.2622L24.7651 70.9722C24.6558 71.3132 24.5259 71.6472 24.375 71.9722C23.8486 73.0615 23.5654 74.2524 23.5454 75.4622C23.5303 75.9216 23.5874 76.3806 23.7153 76.8223C23.751 76.9731 23.8081 77.1179 23.8853 77.2522C23.9014 77.3818 23.9014 77.5127 23.8853 77.6423C23.9351 77.9521 24.3154 78.2222 24.835 78.3723C25.105 78.4321 25.4351 78.4421 25.7354 78.5022C26.0684 78.4829 26.4023 78.4829 26.7354 78.5022C28.0254 78.6008 29.2617 77.9673 29.9351 76.8623C30.3843 76.0845 30.6157 75.2002 30.605 74.3022C30.6694 72.8621 30.1587 71.4553 29.1851 70.3923C28.8247 70.0608 28.3774 69.8389 27.895 69.7522C27.4639 69.6921 27.0264 69.6921 26.5952 69.7522C26.4053 69.7522 26.2251 69.8623 26.0254 69.8923C25.6753 70.0122 25.3252 69.7622 25.0254 69.6624C24.7212 69.4873 24.4556 69.2527 24.2451 68.9722C24.125 68.8323 23.9854 68.7021 23.8853 68.5623C23.7124 68.3215 23.668 68.012 23.7651 67.7322C23.897 67.2903 24.1416 66.8906 24.4751 66.5723C24.7646 66.2629 25.1299 66.0354 25.5352 65.9124C25.9478 65.7444 26.377 65.6204 26.8154 65.5422C27.7798 65.3857 28.769 65.4963 29.6753 65.8623C30.5957 66.2271 31.4326 66.7747 32.1353 67.4722C32.7734 68.123 33.3125 68.8643 33.7354 69.6721C34.9009 71.9805 35.1646 74.6401 34.4751 77.1323L34.375 77.1023Z" fill-rule="evenodd" fill="currentColor"/>
	<path d="M54.4751 70.8621C54.0801 70.6084 53.6377 70.4385 53.1748 70.3621C52.7866 70.2957 52.3882 70.3933 52.0747 70.6321C51.7827 70.9292 51.5337 71.2659 51.335 71.6321C51.0791 72.0112 50.8516 72.4089 50.6548 72.822C50.4971 73.1479 50.4019 73.501 50.375 73.8621C50.2666 74.8191 50.4224 75.7874 50.8247 76.6621C51.2036 77.4871 51.7642 78.2153 52.4648 78.792C53.3745 79.4636 54.4238 79.9216 55.5347 80.1321C55.9048 80.2422 56.0249 80.772 55.7148 81.4321C55.5225 81.833 55.2295 82.1775 54.8647 82.4321C54.4229 82.7471 53.8867 82.9023 53.3447 82.8721C49.2915 82.6082 46.0796 79.3486 45.875 75.292C45.749 74.0464 45.8369 72.7883 46.1348 71.572C46.3047 70.9922 46.4648 70.572 46.665 70.0022C46.8945 69.4744 47.1724 68.9688 47.4951 68.4922C48.2827 67.3186 49.3994 66.4038 50.7051 65.8621C52 65.3625 53.417 65.2717 54.7646 65.6021C58.4121 66.575 61.21 69.5042 62.0146 73.1921C62.1997 74.1296 62.1997 75.0945 62.0146 76.032C61.7817 76.999 61.3223 77.897 60.6748 78.6521C60.4043 78.9644 60.1104 79.2551 59.7949 79.522C58.5347 80.332 57.9551 80.1021 57.2847 79.1621C57.1226 78.9475 56.9722 78.7236 56.835 78.4922C56.4741 77.7839 56.5083 76.939 56.9248 76.2622C57.4849 75.3621 57.5747 74.7322 57.4351 74.4722C57.3555 74.3232 57.2852 74.1697 57.2251 74.0122C57.1147 73.812 57.0049 73.572 56.8247 73.292C56.2632 72.2935 55.436 71.4697 54.4351 70.9121L54.4751 70.8621Z" fill-rule="evenodd" fill="currentColor"/>
	<path d="M82.8555 77.6521C81.8242 78.8203 80.4014 79.5708 78.8555 79.7622C77.4839 79.8984 76.1016 79.6599 74.8555 79.072C74.0171 78.7156 73.2461 78.2183 72.5752 77.6021C72.0078 77.0403 71.5229 76.4006 71.1353 75.7021C70.7451 74.9722 70.4971 74.1746 70.4053 73.3521C70.2324 71.8083 70.5845 70.2512 71.4053 68.9321C72.0479 67.8379 72.9561 66.9231 74.0454 66.272C74.7529 65.8506 75.5454 65.5911 76.3652 65.5122C77.1841 65.4653 77.9976 65.6711 78.6953 66.1021C79.1152 66.3621 78.8052 66.782 78.3154 67.2122C77.855 67.6365 77.3599 68.021 76.8354 68.3621C76.1138 68.678 75.5015 69.1997 75.0752 69.8621C74.6392 70.4956 74.3555 71.2209 74.2451 71.9822C74.1152 72.8621 74.9453 73.7522 75.8555 74.3921C76.3374 74.7449 76.8745 75.0151 77.4453 75.1921C77.9253 75.3533 78.4473 75.3354 78.9155 75.1421C79.2188 75.0056 79.4858 74.8003 79.6953 74.542C79.9517 74.2573 80.1333 73.9138 80.2251 73.542C80.4282 72.896 80.4893 72.2139 80.4053 71.542C80.3638 71.2319 80.2798 70.9292 80.1553 70.6421C80.0151 70.3591 79.8369 70.0967 79.6255 69.8621C78.9668 69.2617 78.0249 69.0872 77.1953 69.4121C76.9854 69.4121 76.7852 69.562 76.5654 69.6021C75.7451 69.792 75.3853 69.6021 74.9155 68.3921C74.8052 68.1221 74.6753 67.8521 74.5854 67.582C74.2026 66.7424 74.5688 65.7512 75.4053 65.3621C76.1128 65.0642 76.8682 64.895 77.6353 64.8621C78.5898 64.7917 79.5483 64.9421 80.4351 65.302C81.4116 65.7026 82.2734 66.3381 82.9453 67.1521C83.248 67.5232 83.5161 67.9216 83.7451 68.342C83.9985 68.782 84.2031 69.248 84.3555 69.7322C84.5435 70.3838 84.6577 71.0547 84.6953 71.7322C84.8115 73.0906 84.6201 74.4578 84.1353 75.7322C83.9902 76.0955 83.8164 76.4465 83.6152 76.782C83.4053 77.1121 83.1753 77.4021 82.9453 77.7122L82.8555 77.6521Z" fill-rule="evenodd" fill="currentColor"/>
	<defs/>
</svg>
