<svg width="24" height="24" viewBox="0 0 110 110" fill="none" xmlns="http://www.w3.org/2000/svg" xmlns:xlink="http://www.w3.org/1999/xlink">
	<path d="M44.0596 41.6792C46.3496 44.8992 48.6499 48.1892 50.96 51.3992C51.8096 52.5691 52.7998 53.6292 53.6396 54.8091L58.0498 61.0691C59.5098 63.1692 60.9097 65.3191 62.3896 67.3992C63.6899 69.249 65.1196 71.009 66.5396 72.749C68.4741 74.8918 70.2207 77.197 71.7598 79.6392C72.21 80.4392 71.4697 80.8992 70.2998 80.8892C68.8076 80.8652 67.3794 80.2795 66.2998 79.249C62.144 75.0815 58.3252 70.5908 54.8799 65.8191C52.8799 62.8191 50.3599 60.1792 48.0996 57.3491C45.6499 54.2393 43.1997 51.0791 40.7598 47.8992L36.2798 42.0591C34 39.1292 31.7798 36.1191 29.3696 33.3491C27.5298 31.1492 25.4697 29.2192 23.5498 27.1492C23.1196 26.6992 22.6797 26.269 22.2896 25.7791C21.98 25.3953 21.6958 24.991 21.4399 24.5691C21.2788 24.2361 21.1772 23.8772 21.1396 23.509C21.0645 22.8926 21.1909 22.2681 21.5 21.7292C21.6118 21.4573 21.7422 21.1934 21.8896 20.9392C22.1875 20.5581 22.6782 20.3828 23.1499 20.489C23.8989 20.5928 24.6216 20.8372 25.2798 21.2092C27.4033 22.7402 29.4087 24.4282 31.2798 26.259C32.2798 27.1792 33.1899 28.1091 34.1099 29.0791C35.0298 30.0491 35.8496 31.0791 36.6997 32.1492C39.2397 35.2192 41.6997 38.4092 44.1499 41.5491L44.0596 41.6792Z" fill-rule="evenodd" fill="currentColor"/>
	<path d="M64.7998 48.6194C61.96 51.8594 59.1001 55.0994 56.2998 58.3694C55.2998 59.5593 54.3999 60.8694 53.3599 62.0493L47.8701 68.2893C46.0298 70.3694 44.1299 72.3894 42.3101 74.4792C40.6499 76.3293 39.1699 78.2793 37.6499 80.2092C35.8462 82.782 33.8398 85.2063 31.6499 87.4592C30.9399 88.1394 30.3301 87.4592 30.1201 86.3093C29.873 84.739 30.1958 83.1323 31.0298 81.7793C34.4717 76.3535 38.3052 71.1863 42.5 66.3193C45.1401 63.4893 47.3398 60.1294 49.77 57.0293C52.46 53.6294 55.1899 50.2693 57.9102 46.8994L62.9697 40.6992C65.5 37.5493 68.1201 34.4492 70.4697 31.1992C72.3398 28.7092 73.9102 26.0593 75.6401 23.5093C76.02 22.9492 76.3701 22.3794 76.79 21.8394C77.1177 21.4175 77.4717 21.0166 77.8501 20.6394C78.1504 20.3887 78.4873 20.1863 78.8501 20.0393C79.4395 19.8066 80.0889 19.7717 80.7002 19.9392C80.9907 19.9861 81.2783 20.053 81.5601 20.1394C81.98 20.3093 82.1802 20.7092 82.23 21.3293C82.2676 22.1428 82.1558 22.9561 81.8999 23.7292C80.7427 26.3481 79.4062 28.8843 77.8999 31.3193C77.1499 32.5593 76.3901 33.7993 75.5698 34.9993C74.75 36.1992 73.8501 37.3394 72.9697 38.4993C70.3599 41.9492 67.5898 45.3193 64.8901 48.7192L64.7998 48.6194Z" fill-rule="evenodd" fill="currentColor"/>
	<path d="M15.1699 26.9495C15.0913 25.2759 15.1987 23.5991 15.4902 21.9495C15.5698 21.5193 15.71 21.0393 15.8301 20.5793C16.001 19.9968 16.2324 19.4338 16.52 18.8994C16.6802 18.6294 16.8101 18.3394 16.98 18.0793L17.5498 17.3394C17.9482 16.8701 18.4253 16.4741 18.96 16.1694C19.3521 15.9507 19.7637 15.77 20.1899 15.6294C20.6099 15.5093 21.0698 15.4595 21.5098 15.3694C21.9404 15.2566 22.3853 15.2061 22.8301 15.2195C23.2998 15.2195 23.5601 15.2195 23.9302 15.2793C26.0029 15.6418 28.0088 16.3162 29.8799 17.2793C31.6499 18.1494 33.2798 19.1094 34.8799 20.0894C36.2998 20.9595 37.7798 21.7095 39.1602 22.5593C41.0015 23.4912 42.7295 24.6321 44.3101 25.9595C44.7798 26.3994 44.3101 27.1494 43.4199 27.7195C42.3936 28.3967 41.1235 28.5938 39.9399 28.2593C38.9399 27.8594 37.9399 27.4495 36.9902 27.0393C36.0249 26.6541 35.0918 26.1926 34.2002 25.6594C32.4302 24.6594 30.71 23.5493 29 22.4993C28.4912 22.1899 27.9595 21.9192 27.4102 21.6895C26.8726 21.4751 26.3213 21.2981 25.7598 21.1594C25.2324 21.0178 24.6938 20.9209 24.1499 20.8694C23.9058 20.8262 23.6582 20.8059 23.4102 20.8093C23.2437 20.8254 23.0762 20.8254 22.9102 20.8093C22.6577 20.7761 22.4014 20.8142 22.1699 20.9194C21.9351 21.0515 21.7437 21.2498 21.6201 21.4893C21.6201 21.5693 21.6201 21.5593 21.5298 21.6895C21.4883 21.8069 21.4546 21.9272 21.4302 22.0493C21.3506 22.3174 21.2935 22.5918 21.2598 22.8694C21.1802 23.4495 21.0898 24.0894 21.0498 24.7393C20.9653 26.407 21.0088 28.0786 21.1802 29.7393C21.4009 32.3579 21.8052 34.9575 22.3901 37.5193C22.6401 38.5193 22.9399 39.5193 23.2402 40.4495C23.54 41.3794 23.8999 42.3894 24.1299 43.3894C24.21 43.8394 24.3301 44.2693 24.3799 44.7292C24.5898 46.4495 24.23 47.1394 23.3301 47.6194C23.1421 47.7383 22.9448 47.8418 22.7402 47.9294C22.3892 48.0171 22.0171 47.9316 21.7402 47.6995C21.3008 47.4211 20.9282 47.0488 20.6499 46.6094L19.1602 44.1794C18.75 43.3293 18.3599 42.4595 18 41.5693C17.2725 39.7546 16.7134 37.8767 16.3301 35.9595C15.6616 32.9971 15.2168 29.9885 15 26.9595L15.1699 26.9495Z" fill-rule="evenodd" fill="currentColor"/>
	<path d="M80.6499 23.3293C80.6167 22.3191 80.4863 21.3145 80.2598 20.3293C80.2598 20.1792 80.2598 20.1492 80.21 20.0693C80.1445 19.8442 79.9663 19.6699 79.7397 19.6091C79.7002 19.6165 79.6597 19.6165 79.6201 19.6091C79.4346 19.6147 79.2505 19.6382 79.0698 19.6792L78.4897 19.7593C78.2852 19.8064 78.0781 19.8433 77.8701 19.8691C76.2417 20.1323 74.6436 20.5579 73.1001 21.1392C71.4458 21.7371 69.8296 22.4351 68.2598 23.2292C66.8501 23.9292 65.5498 24.8394 64.2598 25.6692C62.6338 26.897 60.8843 27.9526 59.04 28.8193C58.4297 29.0593 57.9697 28.3193 57.8501 27.2493C57.6787 26.0371 58.0439 24.8105 58.8501 23.8892C59.6401 23.1492 60.4399 22.4192 61.27 21.7292C62.0791 21.0044 62.9604 20.3645 63.8999 19.8193C65.8008 18.6841 67.811 17.7427 69.8999 17.0093C71.1699 16.5693 72.4199 16.0093 73.7197 15.4792C74.3501 15.1992 75.0498 14.9692 75.7197 14.7192C76.439 14.4854 77.1743 14.3049 77.9199 14.1792C78.3599 14.1191 78.77 14.0393 79.23 14.0193L80.0698 14.0193C80.3726 13.9937 80.6772 13.9937 80.98 14.0193C82.1206 14.1604 83.1875 14.6572 84.0298 15.4392C84.2456 15.6201 84.4404 15.8247 84.6099 16.0493C84.8018 16.2561 84.9697 16.4844 85.1099 16.7292C85.25 16.9792 85.4297 17.2092 85.54 17.4492L85.8501 18.1392C86.1445 18.958 86.3491 19.8064 86.46 20.6692C86.6699 22.5552 86.7065 24.4565 86.5698 26.3491C86.4297 29.1091 85.9897 31.7893 85.7397 34.4392C85.5601 36.5093 85.54 38.5493 85.3101 40.5693C85.23 41.0093 85.1797 41.4492 85.0698 41.8892C84.9502 42.4939 84.6973 43.0642 84.3301 43.5593C84.0117 43.8831 83.5981 44.0969 83.1499 44.1692C82.9355 44.2241 82.7188 44.2676 82.5 44.2993C82.1328 44.3137 81.7871 44.1255 81.6001 43.8093C81.272 43.3635 81.0562 42.8457 80.9697 42.2993C80.79 41.3691 80.6001 40.4092 80.4399 39.4692C80.2798 38.5293 80.3198 37.5991 80.29 36.6592C80.251 34.8135 80.3174 32.9673 80.4897 31.1292C80.7334 28.5366 80.79 25.9299 80.6597 23.3293L80.6499 23.3293Z" fill-rule="evenodd" fill="currentColor"/>
	<path d="M68.8398 68.8992C68.1733 67.999 67.5068 67.1091 66.8398 66.229C66.5801 65.9092 66.29 65.6292 66.04 65.3091L63.4399 61.8291C63.0498 61.3191 62.6299 60.8291 62.2202 60.3391C61.645 59.7507 61.166 59.0757 60.7998 58.3391C60.5898 57.8691 62.0303 57.699 62.6201 58.3391C63.6201 59.5291 64.7803 60.719 65.7603 62.0491C66.4062 62.8257 67.1011 63.5605 67.8398 64.249L70.1299 66.699L71.5303 68.229C72.25 68.979 72.9302 69.7991 73.6299 70.5691C74.1899 71.1592 74.8501 71.6392 75.4399 72.219C75.5698 72.3391 75.71 72.449 75.8301 72.5791C76.27 73.1091 76.2803 73.3792 75.8301 73.8792C75.7402 73.989 75.6499 74.1091 75.5498 74.209C75.2129 74.5298 74.6987 74.5754 74.3101 74.3191C73.0879 73.519 71.9546 72.5903 70.9302 71.5491C70.1699 70.759 69.5303 69.8291 68.7998 68.969L68.8398 68.8992Z" fill-rule="evenodd" fill="currentColor"/>
	<defs/>
</svg>
