<svg width="24" height="24" viewBox="0 0 110 110" fill="none" xmlns="http://www.w3.org/2000/svg" xmlns:xlink="http://www.w3.org/1999/xlink">
	<path d="M62.8901 32.6655C62.52 35.6421 61.8496 38.5737 60.8901 41.4155C60 44.1855 58.9502 46.8652 57.8101 49.4854C56.6699 52.1055 55.4102 54.6655 54.0801 57.1855C52.75 59.7056 51.3901 62.1855 49.8599 64.6353C48.75 66.4053 47.5898 68.1553 46.3301 69.8652C46.0298 70.2754 45.6699 70.7451 45.3301 71.2256L44.5298 72.2256C44.25 72.5752 43.96 72.9053 43.6602 73.2256C43.0601 73.8853 42.46 74.4653 41.8501 75.0654C41.2734 75.6919 40.666 76.2896 40.0298 76.8555C39.1045 77.6055 38.0732 78.2153 36.9702 78.6655C36.1392 78.9756 35.2568 79.1245 34.3701 79.1055C33.9526 79.0732 33.542 78.9824 33.1499 78.8354C32.6553 78.6519 32.2271 78.3247 31.9199 77.8955C31.439 77.1631 31.1724 76.311 31.1499 75.4355C31.0298 73.7153 31.77 71.2056 32.9902 68.5854C33.5801 67.2754 34.2598 65.9556 34.9902 64.6655L35.4199 63.9253L35.79 63.3252L36.52 62.1455C38.4971 59.0029 40.7349 56.0322 43.21 53.2651C45.6816 50.543 48.3345 47.9902 51.1499 45.6255L54.8599 42.5454L56.71 41.0254L57.6401 40.2651L58.6401 39.4854C61.2612 37.4766 64.063 35.7158 67.0098 34.2256C70.772 32.2881 74.7637 30.833 78.8901 29.8955C79.8901 29.6953 80.9702 29.4653 82.04 29.3555C83.0981 29.187 84.1689 29.1133 85.2402 29.1353C86.3101 29.1353 87.3901 29.2651 88.4502 29.3354C89.5098 29.4053 90.5698 29.6353 91.6099 29.9053C94.21 30.6255 93.6099 31.2451 91.3999 31.9053C90.8599 32.0552 90.21 32.3052 89.4902 32.5454C89.1299 32.6655 88.75 32.7754 88.3599 32.9155L87.1499 33.4053C86.3101 33.6655 85.4102 34.1152 84.48 34.4053C83.5498 34.6953 82.5498 34.9453 81.48 35.2056C77.771 36.1313 74.1782 37.4731 70.77 39.2056C67.313 40.8071 64.0625 42.8218 61.0898 45.2056C57.8701 47.7852 54.7202 50.3555 51.73 52.9556C48.7539 55.5527 46.0195 58.4146 43.5601 61.5054C42.8198 62.4453 42.1099 63.4155 41.4302 64.4155C41.0898 64.9053 40.77 65.4155 40.4302 65.9355L39.9502 66.6953L39.71 67.0752C39.292 67.771 38.9565 68.5122 38.71 69.2852C38.645 69.4829 38.605 69.688 38.5898 69.8955C38.5898 70.0854 38.6602 70.3452 38.8901 70.3452C39.2998 70.2837 39.6865 70.1147 40.0098 69.8555C40.3374 69.6133 40.645 69.3457 40.9302 69.0552L41.3599 68.6055L41.5601 68.3755L41.8398 68.0454C42.2002 67.6152 42.6299 67.0454 43.04 66.5352C43.4502 66.0254 43.8501 65.4453 44.2402 64.8955C45.0298 63.7954 45.79 62.6553 46.52 61.4951C47.98 59.1855 49.3398 56.7954 50.5898 54.3452C53.0581 49.4448 55.0669 44.3267 56.5898 39.0552C57.0322 37.4619 57.3892 35.8467 57.6602 34.2153C57.9341 32.6748 58.0083 31.105 57.8799 29.5454C57.8442 28.9146 57.6772 28.2983 57.3901 27.7354C57.2188 27.3662 56.8867 27.0972 56.4902 27.0054C55.2017 26.8384 53.8926 27.0469 52.7202 27.6055C51.6602 28.0151 50.5801 28.5552 49.5 29.0854C48.4199 29.6152 47.3799 30.2954 46.3501 30.9951C44.2534 32.4092 42.2495 33.9561 40.3501 35.6255C36.5522 38.9888 33.0864 42.709 30 46.7354C25.3262 52.9966 21.4058 59.7871 18.3198 66.9653C17.6001 68.5254 17.0601 70.1152 16.27 71.6455C15.4248 73.7852 14.2983 75.8027 12.9199 77.6455C12.4629 78.147 11.9609 78.6055 11.4199 79.0151C11.0176 79.353 10.5698 79.6323 10.0898 79.8452C9.7124 80.0571 9.32178 80.2441 8.91992 80.4053C8.37012 80.5454 8.1499 79.9253 8.06982 78.6055C8.06982 77.9556 8.00977 77.1152 8 76.1152C8.05371 74.9971 8.22461 73.8877 8.50977 72.8052C9.02002 71.0454 9.50977 69.2554 10.1499 67.4854C10.79 65.7153 11.52 64.0054 12.27 62.2754C13.8472 58.7944 15.6196 55.4058 17.5801 52.1255C21.6118 45.3613 26.4541 39.1152 32 33.5254C34.103 31.3813 36.3735 29.4087 38.79 27.6255C41.292 25.7539 43.9712 24.1328 46.79 22.7852C47.5537 22.4141 48.3423 22.0967 49.1499 21.8354C49.5669 21.7051 49.9912 21.5981 50.4199 21.5151C50.8501 21.4155 51.2598 21.3154 51.73 21.2451C53.8403 20.8188 56.0254 20.9502 58.0698 21.6255C58.2271 21.6748 58.3809 21.7349 58.5298 21.8052C58.6973 21.8579 58.8579 21.9282 59.0098 22.0151C59.3618 22.1826 59.6968 22.3833 60.0098 22.6152C60.6055 23.0483 61.1226 23.5791 61.54 24.1855C62.2046 25.1548 62.6514 26.2568 62.8501 27.4155C63.1934 29.1401 63.271 30.9072 63.0801 32.6553L62.8901 32.6655Z" fill-rule="evenodd" fill="currentColor"/>
	<defs/>
</svg>
