<svg width="24" height="24" viewBox="0 0 110 110" fill="none" xmlns="http://www.w3.org/2000/svg" xmlns:xlink="http://www.w3.org/1999/xlink">
	<path d="M39.4375 44.623C41.4438 44.1899 43.3506 43.3828 45.0576 42.2432C46.6606 41.2207 47.9487 39.7739 48.7778 38.063C48.9077 37.7529 49.0376 37.4429 49.1479 37.063L49.3276 36.063C49.3945 35.7339 49.4243 35.3984 49.4175 35.063C49.436 34.73 49.436 34.396 49.4175 34.063C49.4043 33.4424 49.3203 32.8252 49.1675 32.2231C49.0332 31.5903 48.832 30.9736 48.5679 30.3828C47.9893 29.1167 47.2354 27.9385 46.3276 26.8828C44.3232 24.6045 41.9033 22.7275 39.1978 21.353C36.7236 20.0879 34.0894 19.1631 31.3677 18.603C29.6426 18.2095 27.8916 17.9424 26.1279 17.8032C24.4521 17.6255 22.7588 17.751 21.1279 18.1729C20.2476 18.5532 20.0176 18.3032 20.6377 17.3232C21.1362 16.7139 21.752 16.2109 22.4478 15.8433C23.4053 15.3579 24.4551 15.0815 25.5278 15.0332C27.5127 14.9409 29.502 15.0415 31.4678 15.333C33.4185 15.5825 35.3477 15.98 37.2378 16.5229C39.1626 17.0791 41.0278 17.8228 42.8076 18.7432C44.6323 19.667 46.3379 20.8086 47.8877 22.1431C49.8955 23.7959 51.6123 25.7734 52.9678 27.9932C54.3906 30.4092 55.0659 33.1934 54.9077 35.9932C54.8379 36.7432 54.6978 37.4932 54.5776 38.2329C54.4575 38.9731 54.1377 39.6631 53.9175 40.3628C53.6245 41.0684 53.2905 41.7563 52.9175 42.4229C52.5088 43.1021 52.0508 43.7505 51.5479 44.3628C49.6494 46.5674 47.2485 48.2822 44.5479 49.3628C41.377 50.6641 37.9746 51.3066 34.5479 51.2529C31.9248 51.2178 29.334 50.6743 26.9175 49.6528L25.9976 49.2632L25.1279 48.7432L24.2578 48.2231C23.9775 48.043 23.6875 47.813 23.4175 47.603C22.313 46.6948 21.3789 45.5977 20.6577 44.3628C20.0874 43.3711 19.6919 42.2886 19.4878 41.1631C19.269 39.9419 19.3511 38.6855 19.7275 37.5029C20.1108 36.3105 20.7686 35.2246 21.6479 34.333C22.5488 33.4224 23.6523 32.7373 24.8677 32.333C25.8794 31.9746 26.9443 31.7886 28.0176 31.7832C29.2915 31.7188 30.5552 32.0352 31.6479 32.6929C32.2749 33.167 32.6445 33.9067 32.6479 34.6929C32.7021 35.0771 32.7222 35.4653 32.7075 35.853C32.6177 37.1128 31.0679 37.6729 29.2476 37.6729C28.2334 37.603 27.2217 37.8438 26.3477 38.3628C25.8804 38.7188 25.5542 39.229 25.4277 39.8032C25.4287 40.3535 25.5806 40.8931 25.8677 41.3628C26.0986 41.7588 26.3813 42.1221 26.7075 42.4429C26.8721 42.6128 27.0493 42.77 27.2378 42.9131L27.5176 43.1128L27.8979 43.3232C30.7676 45.063 35.3779 45.5229 39.3979 44.4531L39.4375 44.623Z" fill-rule="evenodd" fill="currentColor"/>
	<path d="M76.0181 67.4131C73.1616 67.6895 70.2793 67.3311 67.5781 66.3628C64.8306 65.3809 62.3867 63.6987 60.4878 61.4829C59.7686 60.6465 59.1323 59.7422 58.5879 58.7827C58.0913 57.8096 57.728 56.7734 57.5078 55.7031C57.3208 54.8013 57.2207 53.8838 57.208 52.9629C57.2148 52.083 57.2783 51.2046 57.3979 50.333C57.6343 48.6855 58.04 47.0669 58.6079 45.5029C59.7183 42.5562 61.147 39.7397 62.8682 37.103C63.6079 35.9531 64.3779 34.8027 65.208 33.6831C66.0381 32.563 66.8779 31.5127 67.7778 30.4829C68.938 29.0815 70.2568 27.8198 71.708 26.7227C72.1035 26.4385 72.5181 26.1812 72.9482 25.9531C73.4233 25.7349 73.9189 25.564 74.4282 25.4429C75.5688 25.127 76.7856 25.2407 77.8481 25.7627C78.5181 26.1328 78.5781 26.5527 78.3882 26.7627C78.1982 26.9727 77.7178 27.1631 77.228 27.4629C76.73 27.7798 76.3232 28.2207 76.0479 28.7427L75.5581 29.563C75.478 29.7031 75.3682 29.8428 75.2881 29.9927L74.8882 30.333C72.6069 32.3228 70.6113 34.6177 68.958 37.1528C68.1279 38.4331 67.2178 39.8027 66.418 41.1528C65.6182 42.5029 64.8481 43.9331 64.1382 45.3628C62.498 48.7729 62.2378 52.8428 63.5181 55.6128C63.8516 56.3989 64.3262 57.1177 64.918 57.7329C65.5806 58.4053 66.3267 58.9897 67.1382 59.4727C68.7993 60.4751 70.6807 61.0557 72.6182 61.1631C75.1123 61.3467 77.6133 60.9102 79.8979 59.8931C81.6294 59.127 83.1875 58.0181 84.478 56.6328C85.7197 55.3501 86.5068 53.6958 86.7178 51.9229C86.8286 50.6914 86.4717 49.4634 85.7178 48.4829C85.0615 47.6421 84.1182 47.0723 83.0679 46.8828C82.6235 46.8262 82.1753 46.8096 81.728 46.833L81.1279 46.833C81.0391 46.8237 80.9521 46.8032 80.8682 46.7729L80.6079 46.7729C80.2847 46.7471 79.9707 46.6519 79.688 46.4927C79.0732 46.1572 78.5381 45.6934 78.1182 45.1328C77.8779 44.8428 77.5981 44.583 77.3979 44.313C77.0527 43.8135 77.0527 43.1523 77.3979 42.6528C77.6299 42.2515 77.9087 41.8789 78.228 41.543C78.6792 41.1445 79.2065 40.8418 79.7778 40.6528C80.2539 40.4448 80.7607 40.3164 81.2778 40.2729C81.8062 40.1821 82.3428 40.1523 82.8779 40.1831C83.4419 40.1899 84.0039 40.2466 84.5581 40.353C85.1079 40.4927 85.6782 40.6328 86.2378 40.8228C88.5254 41.7124 90.4292 43.3755 91.6182 45.5229C92.7993 47.6338 93.3086 50.0547 93.0781 52.4629C92.9727 53.6152 92.7275 54.75 92.3481 55.8428C91.9546 56.8721 91.4551 57.8569 90.8579 58.7827C89.189 61.3271 86.9233 63.4248 84.2578 64.8931C81.7236 66.3223 78.9287 67.23 76.0381 67.563L76.0181 67.4131Z" fill-rule="evenodd" fill="currentColor"/>
	<path d="M56.3979 73.5527C56.5513 72.8872 56.5024 72.1909 56.2578 71.5527C55.9424 70.7046 55.4634 69.9268 54.8477 69.2627C53.1987 67.5522 51.2671 66.1382 49.1377 65.083C47.5078 64.2031 45.688 63.6631 43.9478 62.8931C40.9502 61.5879 37.75 60.8096 34.4878 60.5928C31.1694 60.3818 27.8428 60.8442 24.7075 61.9531C21.9243 63.0195 19.3589 64.5854 17.1377 66.5728C14.3477 69.1929 11.6177 71.9331 10.4878 75.5728C10.1777 76.6929 9.75781 76.5728 9.32764 75.4131C9.07715 74.5977 8.96875 73.7451 9.00781 72.8931C9.03564 71.6733 9.31152 70.4727 9.81787 69.3628C10.3203 68.3179 10.9053 67.3149 11.5679 66.3628C12.2412 65.4482 12.9907 64.5918 13.8076 63.8027C14.5972 63.0151 15.4282 62.271 16.2979 61.5728L17.6479 60.5728L19.0679 59.5728C22.9629 57.1284 27.416 55.7139 32.0078 55.4629C34.7603 55.3052 37.521 55.3921 40.2578 55.7231C42.9878 56.0669 45.6714 56.7144 48.2578 57.6528C51.0776 58.7305 53.7627 60.1333 56.2578 61.833C57.583 62.7388 58.8037 63.7886 59.8979 64.9629C61.0889 66.2466 62.0347 67.7378 62.688 69.3628C62.8477 69.9131 63.0078 70.4531 63.1577 71.0029C63.3076 71.5527 63.2876 72.1328 63.3379 72.7031C63.353 73.8306 63.2114 74.9546 62.918 76.043C62.2637 78.1001 61.0889 79.9531 59.5078 81.4229C57.2891 83.5103 54.5444 84.9551 51.5679 85.603C48.7622 86.2217 45.8745 86.3809 43.0176 86.0728C40.5742 85.835 38.2349 84.9663 36.2275 83.5527C35.7026 83.1577 35.2109 82.7192 34.7578 82.2432C34.5078 81.9531 34.2676 81.6528 34.0278 81.353C33.7876 81.0527 33.6279 80.6929 33.438 80.353C32.7153 78.9419 32.4834 77.3306 32.7778 75.7729C33.0098 74.4629 33.5137 73.2158 34.2578 72.1128C34.7373 71.4009 35.3086 70.7549 35.9575 70.1929C36.374 69.8281 36.856 69.5464 37.3779 69.3628C38.2261 69.1001 39.1484 69.252 39.8677 69.7729C40.2822 69.9902 40.6797 70.2373 41.0576 70.5127C42.2578 71.5127 41.8477 73.2827 40.7778 74.9829C40.4419 75.5288 40.1577 76.1045 39.9277 76.7031C39.8428 76.9307 39.8765 77.1855 40.0176 77.3828C40.0928 77.5024 40.2056 77.5938 40.3379 77.6431L40.418 77.6431C40.4688 77.6558 40.5166 77.6797 40.5576 77.7129C40.7207 77.8501 40.8945 77.9741 41.0776 78.083C41.9619 78.5767 42.9395 78.8799 43.9478 78.9731C45.3398 79.1172 46.7441 79.0835 48.1279 78.873C48.6777 78.793 49.2275 78.7031 49.7778 78.583L50.4775 78.4131L51.1177 78.2329C52.0039 77.9238 52.8472 77.5039 53.6279 76.9829C54.335 76.5117 54.96 75.9272 55.4775 75.2529C55.8872 74.7603 56.144 74.1592 56.2178 73.5229L56.3979 73.5527Z" fill-rule="evenodd" fill="currentColor"/>
	<defs/>
</svg>
