<svg width="24" height="24" viewBox="0 0 110 110" fill="none" xmlns="http://www.w3.org/2000/svg" xmlns:xlink="http://www.w3.org/1999/xlink">
	<path d="M24.6406 45.7529C27.1807 46.343 29.9604 46.7529 32.8306 47.2529C33.3506 47.343 33.8804 47.3831 34.4106 47.4331C34.9404 47.4832 35.4907 47.573 36.0205 47.6931C37.9321 48.1296 39.8076 48.7114 41.6304 49.4331C43.6504 50.3323 45.4033 51.7375 46.7207 53.5129C47.8379 54.9153 48.7534 56.4668 49.4404 58.123C49.8691 59.1628 50.1841 60.2456 50.3804 61.353C50.5757 62.4512 50.5757 63.575 50.3804 64.6731C50.2505 65.363 49.6206 65.2332 48.8906 64.7332C48.0327 64.165 47.3232 63.4006 46.8203 62.5029C46.1025 60.927 45.1924 59.4456 44.1104 58.093C43.1797 56.8743 42.0547 55.8169 40.7808 54.9631C40.6006 54.843 40.4004 54.7729 40.2207 54.6631C40.0405 54.553 39.6904 54.4731 39.4307 54.3831C38.8789 54.1921 38.314 54.0417 37.7407 53.9331L35.9707 53.6431C35.3604 53.583 34.7607 53.5029 34.1504 53.4131C31.4805 53.0229 28.6807 52.7529 25.7905 52.353C24.9106 52.2432 24.0107 52.093 23.1104 51.9231C22.2104 51.7529 21.3105 51.563 20.4106 51.363C17.6216 50.6516 14.9507 49.54 12.4805 48.063C11.5308 47.4631 10.4805 46.9631 9.60059 46.283C9.14062 45.9631 8.60059 45.6531 8.19043 45.283C7.78076 44.9131 7.33057 44.543 6.91064 44.1531C6.51221 43.8489 6.1377 43.5144 5.79053 43.1531C4.68066 41.6731 4.7207 40.9231 6.03076 39.7231C6.31641 39.4407 6.6167 39.1736 6.93066 38.9231C7.87744 38.1494 9.21533 38.0767 10.2407 38.7429C12.5928 40.6055 15.1216 42.2332 17.7905 43.603C20.0049 44.5259 22.3164 45.1968 24.6807 45.603L24.6406 45.7529Z" fill-rule="evenodd" fill="currentColor"/>
	<path d="M78.6401 52.2629C75.8105 52.373 73.2002 52.323 70.6401 52.553C69.7104 52.613 68.8706 52.9331 67.9702 53.033C67.0703 53.1331 66.4204 53.303 65.6304 53.4331C64.8403 53.563 64.1104 53.823 63.3403 54.0129L62.8403 54.1431L62.4004 54.2729C62.0991 54.3884 61.8081 54.5291 61.5303 54.6931C60.9111 55.052 60.3457 55.4963 59.8506 56.0129C58.9434 57.0498 58.2261 58.238 57.7305 59.5229C57.3936 60.3567 57.1128 61.2119 56.8901 62.083C56.6401 62.9631 56.4004 63.833 56.1602 64.7231C55.9902 65.2729 55.3706 65.2629 54.6602 64.7231C53.73 63.9988 53.1665 62.9011 53.1206 61.7231C53.1069 59.3975 53.6235 57.0994 54.6304 55.0029C55.1924 53.9204 55.8877 52.9126 56.7002 52.0029C57.6045 51.022 58.6782 50.2122 59.8706 49.613C60.2402 49.4631 60.6704 49.2332 60.9902 49.1331C61.3105 49.033 61.6304 48.9431 61.9404 48.833C62.5806 48.623 63.2002 48.333 63.8403 48.1431L65.7505 47.5129C66.3853 47.3267 67.0298 47.1731 67.6802 47.053C70.4302 46.5847 73.2051 46.2742 75.9902 46.123C76.8003 46.053 77.6304 46.0129 78.4102 45.9131L79.6006 45.783L80.7402 45.583C82.9961 45.3145 85.1577 44.5198 87.0503 43.2629C87.7417 42.7314 88.3369 42.0854 88.8105 41.353C89.0503 40.9932 89.3003 40.6631 89.5103 40.293L90.0903 39.1531L90.5605 38.1531C91.1904 36.8931 91.8003 36.7529 93.5005 37.313C93.8901 37.4431 94.2905 37.543 94.6704 37.6931C95.917 38.0818 96.6177 39.4028 96.2402 40.6531C96.1216 41.1465 95.978 41.6338 95.8105 42.113C95.6006 42.583 95.3706 43.053 95.1206 43.5129C94.8774 43.9915 94.6069 44.4556 94.3105 44.9031C93.9805 45.333 93.6304 45.7629 93.3105 46.1931C91.7861 47.9097 89.9287 49.2981 87.8506 50.2729C84.9619 51.5457 81.8633 52.2747 78.7104 52.4231L78.6401 52.2629Z" fill-rule="evenodd" fill="currentColor"/>
	<defs/>
</svg>
