<svg width="24" height="24" viewBox="0 0 110 110" fill="none" xmlns="http://www.w3.org/2000/svg" xmlns:xlink="http://www.w3.org/1999/xlink">
	<path d="M23.8818 79.0225C23.8818 79.0225 19.2422 75.3523 23.2422 71.4524C24.3047 70.3025 25.8281 69.6917 27.3906 69.7886C28.9531 69.8855 30.3896 70.6802 31.3018 71.9524C32.082 73.1323 32.8818 75.8025 31.0718 77.4524C29.0308 79.0251 26.3931 79.6013 23.8818 79.0225Z" fill-rule="evenodd" fill="currentColor"/>
	<path d="M25.2422 57.3726C22.832 55.6826 21.1021 49.5425 29.4321 48.2124C29.4321 48.2124 31.8623 47.8025 32.5322 51.8125C33.2021 55.8225 31.2422 55.9824 29.2422 57.0125C27.2422 58.0425 26.022 57.9524 25.2422 57.3726Z" fill-rule="evenodd" fill="currentColor"/>
	<path d="M21.312 35.5725C20.5869 35.0581 20.0801 34.2913 19.8921 33.4224C19.6963 30.6455 21.5078 28.1235 24.2017 27.4224C29.3818 26.0825 31.792 28.7124 32.5117 30.9824C33.2319 33.2524 32.2417 35.4424 29.2417 36.4724C26.6118 37.3623 23.8018 37.6025 21.312 35.5725Z" fill-rule="evenodd" fill="currentColor"/>
	<path d="M68.6719 33.4624C66.5518 33.2825 64.4087 33.1589 62.2422 33.0923C61.4619 33.0923 60.6821 33.2424 59.8921 33.1724C57.1118 32.9624 54.292 32.7224 51.4819 32.6323C50.2354 32.614 48.9893 32.6807 47.752 32.8323C46.1436 33.1426 44.4834 33.0461 42.9219 32.5525C42.4121 32.3623 42.4922 31.4124 42.9219 30.3823C43.3521 29.3523 44.022 28.1824 44.9219 27.9124L46.082 27.5923C46.4648 27.5137 46.8521 27.4602 47.2422 27.4324C48.0322 27.3623 48.8218 27.3125 49.6221 27.2825C51.2446 27.22 52.8696 27.2869 54.4819 27.4824C56.4819 27.7324 58.4819 27.2625 60.4819 27.1924C62.6821 27.1924 64.9019 27.1924 67.1221 27.2925L71.2222 27.4624C73.3018 27.5425 75.3818 27.7424 77.4722 27.8025C79.1362 27.6875 80.8057 27.6675 82.4722 27.7424C82.8604 27.7588 83.2476 27.7954 83.6318 27.8523C84.2056 27.926 84.7212 28.2383 85.0518 28.7124C85.2827 29.2415 85.3042 29.8381 85.1118 30.3823C85.042 30.7224 84.9722 31.0625 84.8721 31.3823C84.5718 32.3357 83.8252 33.0823 82.8721 33.3823C81.6211 33.6687 80.3511 33.8625 79.0718 33.9624C78.4521 33.9624 77.752 33.9624 77.0718 33.9624C76.3921 33.9624 75.7319 33.8923 75.0718 33.8823L71.9521 33.7224C70.9521 33.6523 69.8418 33.6123 68.7822 33.5923L68.6719 33.4624Z" fill-rule="evenodd" fill="currentColor"/>
	<path d="M66.582 53.9224C64.5122 53.7524 62.4019 53.6223 60.292 53.5525C59.5322 53.5525 58.772 53.7024 57.9922 53.6323C55.2622 53.4224 52.502 53.1824 49.752 53.0923C48.5293 53.0754 47.3066 53.1389 46.0918 53.2825C44.5142 53.5977 42.8818 53.5012 41.3521 53.0024C40.8521 52.8125 40.9321 51.8623 41.3521 50.8323C41.772 49.8025 42.4321 48.6323 43.2822 48.3623L44.3818 48.0923C44.7617 48.0205 45.146 47.9739 45.5322 47.9524C46.3018 47.8723 47.0718 47.8323 47.8618 47.8025C49.4517 47.7351 51.0439 47.802 52.6221 48.0024C54.5518 48.2524 56.5122 47.7825 58.4722 47.7024C60.6318 47.7024 62.812 47.7024 64.9819 47.8025L68.9819 47.9724C70.9819 48.0525 73.062 48.2524 75.1221 48.3225C76.7642 48.2268 78.4102 48.2268 80.0518 48.3225C80.4336 48.3394 80.814 48.376 81.1919 48.4324C82.6221 48.8225 82.9722 49.4324 82.6221 50.9524C82.542 51.2925 82.4819 51.6323 82.3721 51.9524C82.0732 52.9065 81.3262 53.6538 80.3721 53.9524C79.1475 54.2363 77.9043 54.4336 76.6519 54.5425C76.042 54.5425 75.3721 54.5425 74.7222 54.5425C74.0718 54.5425 73.4121 54.4724 72.7222 54.4624L69.7222 54.3025C68.7222 54.2324 67.6621 54.1924 66.6118 54.1724L66.582 53.9224Z" fill-rule="evenodd" fill="currentColor"/>
	<path d="M68.3525 76.4026C66.0625 76.2327 63.7324 76.0925 61.3525 76.0225C60.5024 76.0225 59.6621 76.1726 58.8125 76.1025C55.8125 75.8826 52.8125 75.6526 49.7324 75.5525C48.396 75.5396 47.0605 75.6064 45.7324 75.7524L44.4521 75.9126C44.0122 75.9126 43.5825 75.9126 43.1421 75.9126C42.249 75.9006 41.3628 75.7556 40.5122 75.4827C39.9722 75.2925 40.0522 74.3425 40.5122 73.3125C40.8706 72.2358 41.6396 71.3445 42.6523 70.8325L43.9023 70.5125C44.3457 70.4382 44.793 70.3916 45.2422 70.3726C46.1025 70.2925 46.9521 70.2524 47.8223 70.2227C49.5747 70.1516 51.3296 70.2153 53.0723 70.4126C55.2021 70.6626 57.3623 70.1926 59.5225 70.1226C61.9023 70.1226 64.2925 70.1226 66.6821 70.2327L71.1025 70.3926C73.3423 70.4727 75.5825 70.6726 77.8325 70.7126C79.5825 70.7126 81.3525 70.4326 83.2124 70.6326C83.6226 70.6326 84.0425 70.6326 84.4521 70.7427L84.9722 70.8726C85.1279 70.9338 85.2783 71.0073 85.4224 71.0925C85.6543 71.217 85.853 71.3955 86.0024 71.6125C86.2705 72.1355 86.3174 72.7446 86.1323 73.3025C86.0762 73.6404 85.9995 73.9741 85.9023 74.3025C85.5942 75.2832 84.8057 76.0381 83.8125 76.3025C83.5225 76.3025 83.1523 76.4326 82.8125 76.4927C82.4722 76.5525 82.1323 76.6125 81.8125 76.6526C81.1128 76.7878 80.4043 76.8682 79.6924 76.8926C79.0122 76.8926 78.2422 76.8926 77.5225 76.8926L75.2422 76.8325L71.8525 76.6726C70.7124 76.6125 69.5522 76.5725 68.3921 76.5525L68.3525 76.4026Z" fill-rule="evenodd" fill="currentColor"/>
	<path d="M26.062 39.1924C23.0977 39.1687 20.272 37.9329 18.2422 35.7725C17.4312 34.9734 16.7974 34.0125 16.3823 32.9524C15.811 31.1306 15.8818 29.1685 16.582 27.3923C17.7788 24.3401 20.3486 22.0337 23.5122 21.1724C24.5156 20.9426 25.5586 20.9426 26.562 21.1724C27.5225 21.3987 28.3804 21.9365 29.002 22.7024C29.3823 23.1724 28.582 23.9624 27.6421 24.7024C26.9653 25.3081 26.2124 25.8225 25.4019 26.2324C25.1157 26.2214 24.8296 26.269 24.562 26.3723C24.2695 26.4377 23.9819 26.5247 23.7021 26.6323C22.8911 27.0107 22.1714 27.5601 21.5923 28.2424C21.2153 28.6997 21.0229 29.2808 21.0522 29.8723C21.0757 30.3865 21.2236 30.8875 21.4819 31.3325C21.7798 31.8909 22.2129 32.3655 22.7422 32.7124C23.3413 33.1294 24.0234 33.4124 24.7422 33.5425C25.7002 33.7339 26.6909 33.6787 27.6221 33.3823C29.0493 33.0557 30.2261 32.0508 30.772 30.6924C31.1123 29.6924 30.5122 29.0725 29.8423 28.5125C29.6807 28.3962 29.5303 28.2656 29.3921 28.1223C29.1494 27.8804 29.0254 27.5442 29.0522 27.2024C29.1704 26.6809 29.3555 26.1768 29.6021 25.7024C29.7319 25.4224 29.8423 25.1323 29.9722 24.8823C30.1821 24.4573 30.5366 24.1206 30.9722 23.9324C31.4976 23.6604 32.1162 23.6348 32.6621 23.8625C33.1089 24.053 33.5371 24.2839 33.9419 24.5525C34.1421 24.7024 34.3521 24.8525 34.562 25.0225C34.7573 25.2046 34.938 25.4019 35.1021 25.6125C36.2896 27.1184 36.8164 29.0415 36.562 30.9424C36.4863 31.5747 36.3252 32.1938 36.082 32.7825C35.6802 33.8455 35.0908 34.8276 34.3423 35.6824C32.2109 37.9849 29.2197 39.2993 26.082 39.3125L26.062 39.1924Z" fill-rule="evenodd" fill="currentColor"/>
	<path d="M27.582 60.3823C24.8477 60.6067 22.1289 59.7888 19.9722 58.0923C19.5723 57.8022 19.2021 57.4922 18.8223 57.1724C18.4385 56.8284 18.1021 56.4348 17.8223 56.0022C16.8481 54.4575 16.4316 52.6262 16.6421 50.8123C16.7456 49.9546 16.9995 49.1218 17.3921 48.3523C17.7812 47.6296 18.2847 46.9746 18.8823 46.4124C19.853 45.4807 20.9937 44.7441 22.2422 44.2422C23.7061 43.4988 25.4004 43.3484 26.9722 43.8223C27.4624 44.0122 27.2422 44.8223 26.8423 45.5823C26.4424 46.3423 25.9424 47.2922 25.4224 47.5222C24.5601 47.8513 23.772 48.3474 23.1021 48.9822C22.8569 49.2271 22.6357 49.4949 22.4424 49.7822C22.2622 50.0522 22.082 50.3123 21.8521 50.6123C21.6021 50.9893 21.5605 51.4678 21.7422 51.8823C21.9297 52.3301 22.1978 52.7402 22.5322 53.0923C23.3525 54.1062 24.5371 54.7593 25.832 54.9124C26.6948 55.02 27.5708 54.9136 28.3823 54.6023C28.979 54.3777 29.5264 54.0378 29.9922 53.6023C30.374 53.2354 30.5781 52.7212 30.5522 52.1921C30.5107 51.7219 30.3335 51.2739 30.042 50.9023C29.7319 50.4846 29.3765 50.1023 28.9824 49.7622C28.8223 49.6023 28.5923 49.4922 28.4424 49.3323C27.8521 48.7222 27.9722 48.2622 28.7222 47.0623C28.9023 46.7922 29.0522 46.5022 29.2324 46.2422C29.75 45.3235 30.8921 44.9648 31.8423 45.4224C32.5718 45.7964 33.2285 46.2976 33.7822 46.9023C34.3848 47.5481 34.8779 48.2878 35.2422 49.0923C35.689 50.0686 35.9238 51.1287 35.9321 52.2021C35.9541 53.4548 35.6509 54.6917 35.0522 55.7922C34.835 56.196 34.5845 56.5808 34.3022 56.9421C34.0225 57.2822 33.7222 57.5723 33.4224 57.8723C32.8682 58.3657 32.2646 58.8013 31.6221 59.1724C30.3667 59.8716 28.9883 60.323 27.562 60.5022L27.582 60.3823Z" fill-rule="evenodd" fill="currentColor"/>
	<path d="M30.7119 79.9624C29.395 80.5984 27.9702 80.9817 26.5117 81.0923C25.0796 81.2263 23.6348 81.1113 22.2422 80.7524C21.124 80.5066 20.0688 80.0334 19.1421 79.3623C18.2905 78.6831 17.6064 77.8176 17.1421 76.8323C16.6924 75.896 16.4565 74.8711 16.4521 73.8323C16.436 72.8904 16.5708 71.9517 16.8521 71.0522C17.1191 70.1426 17.5718 69.2983 18.1821 68.5723C19.1787 67.3359 20.4395 66.3381 21.8721 65.6523C22.7158 65.2366 23.6099 64.9307 24.5317 64.7424C25.4502 64.6528 26.3765 64.7727 27.2422 65.0923C27.7817 65.3022 27.6719 66.0125 27.2422 66.8923C26.8633 67.8218 26.3252 68.678 25.6519 69.4224C25.0918 69.7024 24.542 69.8723 24.1118 70.1523C23.7266 70.3792 23.3647 70.6438 23.0317 70.9424C22.7695 71.1868 22.5381 71.4622 22.3418 71.7625C22.2817 71.8323 22.252 71.9224 22.1919 72.0024C22.1084 72.0796 22.0342 72.167 21.9722 72.2625C21.8198 72.4702 21.686 72.6912 21.5718 72.9224C21.3193 73.4023 21.29 73.969 21.4922 74.4724C21.7319 74.9353 22.0952 75.323 22.542 75.5923C23.1895 76.0115 23.9253 76.2749 24.6919 76.3623C25.5464 76.4658 26.4126 76.4014 27.2422 76.1724C28.2593 75.9167 29.1821 75.3755 29.9019 74.6123C30.4243 74.0693 30.8052 73.4067 31.0117 72.6824C31.1851 71.9001 31.1006 71.083 30.772 70.3523C30.2534 69.2842 29.2451 68.5374 28.0718 68.3523C27.8618 68.3523 27.6719 68.3523 27.5117 68.3523C27.2471 68.4321 26.9624 68.3206 26.8218 68.0823C26.5581 67.7654 26.311 67.4351 26.082 67.0923L25.6519 66.5125C25.4312 66.1875 25.3936 65.7717 25.5518 65.4124C25.6543 65.1482 25.792 64.8992 25.9619 64.6724C26.2017 64.4077 26.5044 64.2083 26.8418 64.0923C27.9575 63.8213 29.1289 63.8945 30.2021 64.3022C31.2231 64.687 32.1431 65.2991 32.8921 66.0923C33.6206 66.8474 34.2007 67.7329 34.6021 68.7024C34.8018 69.1824 35.0117 69.7024 35.1919 70.1824C35.3599 70.7192 35.4702 71.2722 35.522 71.8323C35.5723 72.2676 35.5723 72.707 35.522 73.1423C35.5054 73.6023 35.4346 74.0588 35.312 74.5024C35.1089 75.3411 34.771 76.1414 34.312 76.8723C33.4102 78.2163 32.1953 79.3213 30.772 80.0923L30.7119 79.9624Z" fill-rule="evenodd" fill="currentColor"/>
	<defs/>
</svg>
