<svg width="24" height="24" viewBox="0 0 110 110" fill="none" xmlns="http://www.w3.org/2000/svg" xmlns:xlink="http://www.w3.org/1999/xlink">
	<path d="M84.2412 16.4287C85.7207 17.8506 86.9067 19.5493 87.7314 21.4287C88.0293 22.1152 88.2734 22.8237 88.4614 23.5483C88.9956 26.0161 89.0361 28.5649 88.5815 31.0483C88.4141 32.1318 88.1665 33.2017 87.8413 34.2485C87.4478 35.5811 86.8213 36.834 85.9912 37.9487C85.7314 38.2983 85.6016 38.1387 85.5913 37.7188C85.583 37.106 85.6675 36.4956 85.8413 35.9087C86.5952 33.4268 86.9531 30.8418 86.9014 28.2485C86.8638 26.6621 86.5244 25.0977 85.9014 23.6387C85.2554 22.0654 84.3306 20.6226 83.1714 19.3784C82.437 18.5845 81.6265 17.8643 80.7515 17.2285C79.4185 16.2451 77.9497 15.46 76.3916 14.8984C75.1807 14.5449 73.9316 14.3369 72.6714 14.2783C72.4014 14.2783 72.1313 14.2783 71.8516 14.2188C70.8516 14.0283 70.5312 13.8286 70.3013 13.2188C70.2441 13.0879 70.1943 12.9546 70.1514 12.8184C70.0513 12.3784 70.5015 11.9985 71.3613 11.7583C72.0161 11.5933 72.6865 11.4995 73.3613 11.4785C74.0322 11.4824 74.7017 11.5459 75.3613 11.6685C76.6978 11.9146 78 12.3169 79.2412 12.8687C81.0796 13.7686 82.7666 14.9492 84.2412 16.3687L84.2412 16.4287Z" fill-rule="evenodd" fill="currentColor"/>
	<path d="M40.1313 71.7886C32.9814 68.7285 29.3613 63.6582 29.1313 57.1382C28.9014 50.6182 34.1313 45.5781 34.4312 45.5483L39.2812 45.5483L42.9414 71.7886L40.1313 71.7886Z" fill-rule="evenodd" fill="currentColor"/>
	<path d="M72.4214 45.3081C60.5015 47.1279 56.5112 33.708 56.4214 33.3081C56.4214 33.3081 59.3613 32.1382 63.0513 34.4282C66.7412 36.7183 70.0513 39.3379 71.4414 41.6182C72.8315 43.8979 72.4214 45.3081 72.4214 45.3081Z" fill-rule="evenodd" fill="currentColor"/>
	<path d="M63.8413 66.3887L63.8413 72.5186C63.8413 72.5186 70.6514 67.9985 72.5015 64.9287C74.3511 61.8584 63.8413 66.3887 63.8413 66.3887Z" fill-rule="evenodd" fill="currentColor"/>
	<path d="M91.9019 75.6782C92.0317 76.6782 92.1519 77.6782 92.252 78.7383C92.3662 79.8242 92.4033 80.917 92.3618 82.0083C92.3608 82.7437 92.1455 83.4634 91.7417 84.0781L91.2119 84.5483L90.6318 84.8984C89.3662 85.4253 88.0581 85.8438 86.7217 86.1484L82.9316 87.0781C81.8218 87.3384 80.7319 87.708 79.6416 88.0083C78.2319 88.3984 76.8315 88.7881 75.3916 89.0781C74.9419 89.1582 74.9316 88.9482 75.2017 88.5781C75.6455 88.0161 76.2046 87.5557 76.8418 87.228C79.5361 85.9004 82.3892 84.9224 85.3315 84.3184C86.188 84.1138 87.0273 83.8433 87.8418 83.5083C88.2617 83.3384 88.6519 83.1582 89.022 82.978C89.1899 82.8936 89.3535 82.8003 89.5117 82.6982C89.5781 82.6689 89.6392 82.6284 89.6919 82.5781C89.7495 82.5176 89.7881 82.4409 89.8018 82.3584C89.8208 82.1787 89.8208 81.9976 89.8018 81.8184C89.8022 81.354 89.7788 80.8901 89.7319 80.4282C89.6416 79.4282 89.502 78.4282 89.3516 77.498C89.1519 76.2783 88.9517 75.0581 88.7217 73.8384C88.3716 71.9883 88.0615 70.1084 87.7217 68.2583C87.4019 66.8281 87.0518 65.4185 86.8315 63.9282C86.7661 63.5991 86.7358 63.2637 86.7417 62.9282C86.792 61.6484 87.1016 61.188 87.7417 61.0283C87.8853 60.9819 88.0322 60.9482 88.1816 60.9282C88.6519 60.9282 88.9517 61.4082 89.1816 62.1685C90.0034 64.6113 90.6123 67.1206 91.002 69.6685L92.002 75.6685L91.9019 75.6782Z" fill-rule="evenodd" fill="currentColor"/>
	<path d="M12.9814 59.8081C12.9814 61.0781 13.0415 62.3584 13.1416 63.6582C13.1416 64.1279 13.3516 64.5781 13.3716 65.0581C13.4316 65.8979 13.4517 66.748 13.4316 67.6182C13.4116 68.4883 13.4316 69.3481 13.4316 70.1982C13.4609 70.9492 13.541 71.6978 13.6714 72.438C13.9185 73.3774 13.9761 74.3564 13.8413 75.3184C13.7715 75.6182 13.1816 75.6479 12.5312 75.478C11.8813 75.3081 11.1514 74.9482 10.9814 74.478C10.3257 72.7124 9.91504 70.8652 9.76123 68.9883C9.72168 68.4058 9.60742 67.8311 9.42139 67.2783C9.27148 66.708 9.09131 66.1382 8.98145 65.5581C8.74121 64.2783 8.5415 62.978 8.35156 61.6582L8.0415 59.208C7.84131 57.978 7.92139 56.6982 7.73145 55.478C7.65479 54.9805 7.5415 54.4888 7.3916 54.0083C7.28125 53.5381 7.16162 53.0684 7.07129 52.5981C7.00537 52.4092 6.98438 52.207 7.01123 52.0083C7.18164 51.2183 7.53125 50.958 8.42139 50.7783C8.62158 50.7783 8.82129 50.688 9.02148 50.668C9.68213 50.6147 10.3262 50.8916 10.7412 51.4082C12.1016 52.958 12.3213 54.5283 12.7412 56.1382C12.9785 57.3511 13.1094 58.5825 13.1313 59.8184L12.9814 59.8081Z" fill-rule="evenodd" fill="currentColor"/>
	<path d="M72.0015 59.0083C73.0493 54.7773 72.666 50.3184 70.9116 46.3281C70.2456 44.8672 69.4131 43.4883 68.4316 42.2183C63.4312 35.2256 54.481 32.2734 46.3013 34.918C44.7944 35.457 43.3833 36.2334 42.1216 37.2183C41.8013 37.458 41.4814 37.688 41.1816 37.958C40.8813 38.228 40.4614 38.3579 40.1016 38.5879C39.3916 39.0381 38.5913 39.4482 37.8613 39.9683C36.8613 40.5479 36.7217 40.2979 36.7417 39.0879C36.7568 38.2363 36.8374 37.3872 36.9814 36.5479C37.0962 36.0205 37.2603 35.5049 37.4717 35.0083C37.5815 34.728 37.7417 34.498 37.8613 34.1982C38.0601 33.9766 38.2739 33.7695 38.5015 33.5781C40.1904 32.1943 42.1006 31.106 44.1514 30.3579C46.1489 29.647 48.2427 29.2422 50.3613 29.1582C54.4971 28.8945 58.6309 29.7041 62.3613 31.5083C66.895 33.6143 70.7554 36.9375 73.5117 41.1079C76.3867 45.7246 77.7241 51.1338 77.3315 56.5581C77.0806 59.8662 76.1406 63.085 74.5713 66.0083C72.0596 70.3271 68.3267 73.8066 63.8413 76.0083L63.2217 76.3579L62.5415 76.688C62.0815 76.8882 61.6216 77.0781 61.1714 77.248C60.2617 77.5879 59.3516 77.8682 58.4414 78.1279C56.6167 78.645 54.7368 78.9404 52.8413 79.0083C51.9927 79.0684 51.1406 79.0684 50.2915 79.0083C49.1006 78.9722 47.9395 78.6274 46.9214 78.0083C46.6274 77.7661 46.3862 77.4663 46.2114 77.1279C46.0728 76.7905 45.9917 76.4321 45.9717 76.0679C45.9238 75.7769 45.8975 75.4829 45.8916 75.188C45.9414 74.7583 46.3213 74.5181 46.8916 74.188C47.5894 73.8188 48.373 73.6426 49.1616 73.6782C50.5674 73.6294 51.9673 73.479 53.3516 73.228C54.0615 73.0981 54.7715 72.958 55.4717 72.7881C56.1714 72.6182 56.8813 72.5283 57.5615 72.3481C58.2417 72.168 58.9214 71.998 59.5615 71.8081C59.8613 71.6982 60.1714 71.5981 60.4414 71.4883L60.8413 71.4082L61.3115 71.168C61.9512 70.8662 62.5752 70.5327 63.1816 70.168L64.0913 69.6182C64.3916 69.4282 64.6616 69.208 64.9517 69.0083C68.3687 66.6045 70.813 63.0571 71.8413 59.0083L72.0015 59.0083Z" fill-rule="evenodd" fill="currentColor"/>
	<path d="M76.8413 15.7686C72.8569 14.3477 68.459 14.667 64.7217 16.6484C63.4082 17.4351 62.2271 18.4238 61.2217 19.5781C57.5415 23.5283 55.8413 29.7686 57.9917 35.1685C58.4717 36.353 59.1475 37.4482 59.9917 38.4082C60.8159 39.3604 61.7764 40.186 62.8413 40.8584C65.6113 42.6284 68.9614 43.4683 72.4014 44.2183C73.4717 44.4683 73.3218 45.1084 72.3018 45.7583C71.6387 46.167 70.9121 46.4609 70.1514 46.6284C69.6675 46.7368 69.1763 46.8105 68.6816 46.8481C68.1333 46.8672 67.5845 46.8369 67.0415 46.7583C64.9541 46.4395 62.9292 45.7949 61.0415 44.8481C59.1118 43.7783 57.4126 42.3374 56.0415 40.6084C53.3311 37.1177 52.0801 32.7124 52.5518 28.3184C52.7759 25.7495 53.4531 23.2407 54.5518 20.9082C55.6426 18.5498 57.2007 16.437 59.1313 14.6982C63.4795 10.978 69.2388 9.34814 74.8916 10.2383C78.2754 10.7163 81.4673 12.0981 84.1313 14.2383C86.1353 15.8687 87.7598 17.9165 88.8916 20.2383C89.1987 20.8052 89.4561 21.3975 89.6616 22.0083C89.8716 22.6084 90.1216 23.1982 90.2817 23.7983C90.6104 25.0166 90.854 26.2563 91.0117 27.5083C91.2358 29.4731 91.1782 31.46 90.8413 33.4082C90.4609 35.4214 89.7119 37.3472 88.6313 39.0884C88.3896 39.4829 88.126 39.8633 87.8413 40.2285C87.5923 40.6108 87.3081 40.9692 86.9917 41.2983C86.7358 41.5918 86.4619 41.8691 86.1714 42.1284C85.8916 42.3384 85.6216 42.5283 85.3813 42.6885C84.9697 42.9561 84.5171 43.1553 84.0415 43.2783C83.3223 43.4365 82.5693 43.272 81.9814 42.8281C81.687 42.6621 81.4092 42.4678 81.1514 42.2485C80.4316 41.5186 80.9814 40.1084 82.1514 38.6182C83.8662 36.6836 85.0664 34.3486 85.6416 31.8281C85.8872 30.5708 85.9546 29.2847 85.8413 28.0083C85.8018 27.3335 85.6978 26.6636 85.5317 26.0083L85.3315 25.0083L85.0215 24.0083C83.7754 20.1338 80.7251 17.106 76.8413 15.8882L76.8413 15.7686Z" fill-rule="evenodd" fill="currentColor"/>
	<path d="M31.3813 58.1284C31.5 59.626 31.8369 61.0986 32.3813 62.4985C32.6025 63.0024 32.8701 63.4849 33.1812 63.9385C34.1157 65.7061 35.4473 67.2324 37.0713 68.3984C37.4419 68.6631 37.8408 68.8843 38.2612 69.0586C38.6631 69.271 39.0898 69.4321 39.5312 69.5386C40.1016 69.6787 40.6714 69.8286 41.2412 69.9385C41.8354 70.0049 42.418 70.1528 42.9712 70.3784C43.3315 70.5288 43.2715 71.1787 42.8916 71.8086C42.4814 72.5273 41.728 72.9814 40.9014 73.0088C37.9189 72.8628 35.1079 71.5732 33.0513 69.4087C32.7612 69.0684 32.4512 68.7485 32.1313 68.4087C31.8115 68.0684 31.5713 67.7285 31.2715 67.4087C30.6709 66.7476 30.1445 66.0234 29.7012 65.2485C29.459 64.8525 29.248 64.438 29.0713 64.0088C28.8667 63.5688 28.686 63.1182 28.5312 62.6587C28.2358 61.7451 28.0186 60.8086 27.8813 59.8584C27.7437 58.7041 27.7002 57.54 27.7515 56.3784C27.8516 55.5088 27.9414 54.6284 28.1016 53.7886L28.4111 52.5288C28.4927 52.1069 28.6064 51.6924 28.7515 51.2886C28.9712 50.6587 29.0913 50.0088 29.3013 49.3784C29.5112 48.7485 29.7812 48.1484 30.0415 47.5288C30.1553 47.2588 30.2959 47.0005 30.4614 46.7588C31.0713 45.8486 31.4614 45.6787 32.1416 45.9287C32.3037 45.9688 32.4609 46.0254 32.6113 46.0986C33.1226 46.4438 33.3052 47.1108 33.0415 47.6685C32.4077 49.6304 31.9165 51.6357 31.5713 53.6685C31.3384 55.1475 31.3047 56.6509 31.4712 58.1387L31.3813 58.1284Z" fill-rule="evenodd" fill="currentColor"/>
	<path d="M42.8413 48.3281C43.0815 52.6084 43.2915 56.8481 43.6714 61.0581C43.8013 62.5884 44.0913 64.0581 44.2612 65.6084L44.5312 67.728L44.6914 68.728L44.8413 69.5381C44.9014 69.8481 44.9614 70.1484 45.0415 70.4482C45.1426 70.8296 45.1831 71.2241 45.1616 71.6182C45.1499 71.7832 45.1265 71.9468 45.0913 72.1084C45.0723 72.2764 45.0063 72.4355 44.9014 72.5684C44.418 73.1611 43.7817 73.6104 43.0615 73.8682C42.6816 74.0381 42.2915 74.1782 41.9014 74.3184L41.3213 74.5283L40.9214 74.6484L39.4214 75.0884C37.4214 75.6284 35.4214 76.0884 33.4214 76.4883C30.9814 76.9683 28.5312 77.4883 26.0815 77.8081C22.9146 78.4214 19.6572 78.3945 16.5015 77.728C15.5015 77.478 15.7612 76.8184 16.6313 76.168C17.8105 75.2974 19.1831 74.7241 20.6313 74.498C21.3716 74.418 22.1216 74.2681 22.8613 74.1982C23.6016 74.1284 24.3613 74.0283 25.1113 73.918C26.6113 73.708 28.1113 73.458 29.6216 73.168C32.6216 72.5981 35.6216 71.9082 38.6216 71.168C39.0312 71.0581 39.4712 70.9282 39.8516 70.8081L40.2612 70.7183C40.4062 70.6792 40.5444 70.6182 40.6714 70.5381C40.6636 70.3945 40.6333 70.2524 40.5815 70.1182C40.5864 70.0381 40.5864 69.958 40.5815 69.8784L40.4316 69.208L40.1216 67.6382C39.9316 66.6382 39.7715 65.5483 39.6416 64.5083C39.1016 60.1782 38.7812 55.8682 38.4614 51.5684L38.3213 49.5684L38.2515 48.6284L38.2515 48.1284C38.2515 47.7983 38.2515 47.458 38.1816 47.1284C38.1816 47.0083 38.0815 47.0381 38.0112 47.0483L37.7612 47.0483L37.2612 47.0483L31.8413 47.5381C29.8413 47.708 27.8413 47.8882 25.8413 48.1284C22.8413 48.5181 19.8413 49.1084 16.8413 49.5483C16.1714 49.6484 15.5215 49.7881 14.8413 49.8584C12.3413 50.1582 11.5015 49.8584 10.8413 48.7583C10.6724 48.52 10.522 48.2695 10.3916 48.0083C10.0713 47.1782 11.0215 46.3281 12.8213 45.7783C15.4912 45.0381 18.2612 44.438 21.0815 43.9282C23.9014 43.418 26.7812 43.208 29.6616 42.9282C31.8213 42.728 33.9214 42.5581 36.1416 42.3984C37.1416 42.3184 38.2715 42.168 39.2612 42.1582L40.4414 42.5283L41.0312 42.708L41.3213 42.8081L41.3916 42.8081L41.4414 42.8081L41.1416 43.188L41.2515 43.2583C41.5947 43.4409 41.9287 43.6411 42.2515 43.8584C42.4648 44.2939 42.5967 44.7651 42.6416 45.248C42.7114 45.7583 42.7612 46.248 42.8115 46.8081L42.9414 48.2681L42.8413 48.3281Z" fill-rule="evenodd" fill="currentColor"/>
	<path d="M88.1514 73.1987L87.0415 68.1987L86.4717 65.6387L86.1914 64.3384L86.1216 64.0083L86.1216 63.8384L86.1216 63.4688C86.1216 63.4688 86.1216 63.3784 86.1216 63.3384C86.1216 63.2983 86.0513 63.3384 86.0117 63.2886C85.8486 63.2734 85.6846 63.2734 85.5215 63.2886L85.3413 63.2886L85.0215 63.3486L84.3716 63.4688L83.0713 63.7285C82.2017 63.9087 81.3213 64.0986 80.4414 64.2485L70.9814 65.9385C69.4014 66.2085 67.8115 66.4785 66.2114 66.7085L65.6113 66.7983L65.1914 66.7983L64.6616 66.8584L64.5215 66.8584C64.5215 66.8584 64.5215 66.9385 64.5215 66.9785L64.4614 67.2383C64.4614 67.4185 64.4614 67.5986 64.3916 67.7783C64.3213 67.9585 64.3916 68.0684 64.3916 68.2085L64.3916 68.7188C64.3916 69.0483 64.3916 69.3887 64.3916 69.7188C64.3916 70.3984 64.4717 71.0884 64.5317 71.7783C64.6816 73.1587 64.8613 74.5483 65.0513 75.9287C65.5415 79.4883 66.3716 83.0186 66.2017 86.8286C66.0815 88.0884 65.4614 87.8286 64.8013 86.8887C63.8306 85.5542 63.1494 84.0317 62.8013 82.4185L61.5913 77.0083C61.207 75.1499 60.9365 73.27 60.7817 71.3784C60.7817 70.9087 60.7114 70.3784 60.6914 69.9185C60.6714 69.4585 60.6914 68.9185 60.6914 68.4087L60.6914 67.5586L60.8516 66.2583C60.9316 65.3887 61.1313 64.5483 61.2817 63.7188C61.2817 63.6484 61.3413 63.6587 61.3916 63.6484L61.5513 63.6484L61.8716 63.5986L62.5215 63.4985L63.8013 63.3086L65.5513 63.0083L68.2715 62.6084C72.6313 61.9585 77.0615 60.6084 81.5615 59.6084C82.2114 59.4785 82.8613 59.3384 83.5615 59.2188L84.5615 59.0483L85.2417 59.0083L86.0317 58.8984C86.9912 58.7139 87.9834 58.8076 88.8916 59.1685C89.0947 59.2549 89.2632 59.4062 89.3716 59.5986C89.4517 59.7383 89.5513 59.9385 89.6514 60.1284C89.7515 60.3184 89.8115 60.5884 89.8916 60.8086C89.9717 61.0283 89.9614 61.3584 90.0015 61.6284L90.2617 62.9785L90.4414 63.8286L90.8413 65.4985L91.6514 69.0083C92.3516 72.0083 93.0415 75.0083 93.5913 78.1484C93.8013 79.3184 93.9814 80.5083 94.0913 81.7285C94.1538 82.3701 94.1841 83.0142 94.1816 83.6587C94.2031 84.4717 94.0879 85.2832 93.8413 86.0586C93.7617 86.2383 93.6616 86.4087 93.5713 86.5884C93.4814 86.7686 93.3115 86.8784 93.1313 86.9785C92.7915 87.1899 92.4253 87.3545 92.0415 87.4688C91.6416 87.5884 91.2417 87.6987 90.8413 87.7783L89.8413 88.0083C88.6616 88.2188 87.5117 88.3984 86.3613 88.5884C82.7915 89.1987 79.3613 89.8384 75.8516 90.4785C75.0913 90.6187 74.3516 90.7983 73.5815 90.9287C70.7314 91.3784 69.7617 91.1187 68.9717 90.4385C68.7817 90.2969 68.6045 90.1396 68.4414 89.9688C68.2314 89.6987 68.3916 89.3784 68.8613 88.9688C69.5439 88.4292 70.311 88.0068 71.1313 87.7188C74.2681 86.6606 77.4678 85.7993 80.7114 85.1387C82.3315 84.7485 83.9814 84.5083 85.6113 84.2485L88.0317 83.8584L89.2017 83.6484L89.7114 83.5386L89.7114 83.3086C89.7114 83.1885 89.7114 83.0586 89.7114 82.9185C89.7114 82.7783 89.7114 82.3887 89.6514 82.1084C89.6514 81.5586 89.5215 80.9883 89.4414 80.4087C89.1016 78.0786 88.5815 75.6587 88.0317 73.2583L88.1514 73.1987Z" fill-rule="evenodd" fill="currentColor"/>
	<defs/>
</svg>
