<svg width="24" height="24" viewBox="0 0 110 110" fill="none" xmlns="http://www.w3.org/2000/svg" xmlns:xlink="http://www.w3.org/1999/xlink">
	<path d="M19.105 45.2275C19.2407 45.3857 19.3125 45.5894 19.3052 45.7979C19.3018 46.0288 19.2817 46.2593 19.2451 46.4878C19.2451 46.6577 18.9751 46.9277 18.835 46.8579C18.54 46.7173 18.2593 46.5498 17.9951 46.3579C17.0991 45.4585 16.2578 44.5068 15.4751 43.5078C14.9624 42.8198 14.5073 42.0908 14.1152 41.3276L12.915 39.0278C12.5151 38.2676 12.2051 37.4678 11.915 36.668C11.7646 36.3145 11.6538 35.9453 11.585 35.5679C11.3218 34.2847 10.9194 33.0337 10.3853 31.8379C10.3291 31.6182 10.2153 31.418 10.0552 31.2578C9.67871 30.6323 9.38623 29.9595 9.18506 29.2578C8.91309 28.5542 8.73486 27.8179 8.65479 27.0679C8.65479 25.8677 8.5249 24.6978 8.49512 23.4976C8.49512 23.3276 8.41504 23.1577 8.49512 22.9775C8.66455 22.627 8.71729 22.231 8.64502 21.8477C8.61328 21.3369 8.6333 20.8242 8.70508 20.3179C8.771 20.0488 8.87158 19.79 9.00488 19.5479C9.10498 19.3276 9.46484 19.4575 9.50488 19.5479C9.54492 19.6377 9.79492 19.5479 9.94482 19.5479C9.99805 19.5425 10.0518 19.5425 10.105 19.5479C10.165 19.5479 10.375 20.1875 10.7349 20.8276C11.0952 21.4678 11.5049 22.1079 11.5649 22.2578C11.625 22.4077 11.8652 23.2578 12.2852 24.1875C12.7051 25.1177 13.1548 26.1875 13.2852 26.3579C13.3843 26.5742 13.4355 26.8096 13.4351 27.0479C13.4351 27.168 14.6748 30.0479 14.7251 30.2075C14.9897 30.8213 15.1357 31.4795 15.1548 32.1479C15.1538 32.2842 15.188 32.4189 15.2549 32.5376C15.6748 33.5376 15.9648 34.6875 16.2549 35.7778C16.4248 36.3379 16.7051 36.8477 16.875 37.4077C16.8804 37.5176 16.8804 37.6279 16.875 37.7378C16.8789 37.8735 16.9023 38.0083 16.9448 38.1377C17.3696 39.4595 17.8638 40.7578 18.4248 42.0278C18.585 42.2876 18.7852 43.8579 18.9551 44.168C19.125 44.4775 18.9648 45.1079 19.105 45.2275Z" fill-rule="evenodd" fill="currentColor"/>
	<path d="M1.55518 38.7778C1.37598 38.8892 1.16064 38.9248 0.955078 38.8779C0.733398 38.8291 0.516113 38.7622 0.305176 38.6777C0.14502 38.6777 -0.074707 38.3379 0.0249023 38.208C0.208496 37.9487 0.416016 37.7075 0.64502 37.4878C0.705078 37.4277 1.30518 37.0181 1.95508 36.5879C2.60498 36.1577 3.33496 35.6577 3.7251 35.4678C4.44775 35.0767 5.2002 34.7422 5.9751 34.4678L8.29492 33.5381C9.06494 33.2178 9.86523 32.9878 10.645 32.728C10.9873 32.5962 11.3428 32.502 11.7051 32.4478C12.9565 32.2739 14.1802 31.9375 15.3452 31.4478C15.5571 31.3989 15.7515 31.2915 15.9053 31.1377C17.1382 30.4971 18.459 30.042 19.8252 29.7881C20.9312 29.7261 22.0327 29.6025 23.125 29.418C23.2749 29.418 23.415 29.2979 23.5952 29.418C23.9307 29.5596 24.3096 29.5596 24.645 29.418C25.0952 29.3081 25.5552 29.2178 26.0054 29.1177C26.2544 29.0928 26.5059 29.0928 26.7554 29.1177C26.9854 29.1177 27.0649 29.4878 27.0151 29.5581C26.9653 29.6279 27.1152 29.8281 27.2051 29.9478C27.2393 29.9897 27.2661 30.0371 27.2852 30.0879C26.5308 30.9116 25.7148 31.6772 24.8452 32.3779L20.7354 34.4878C20.5151 34.5898 20.2773 34.6475 20.0352 34.6577C19.915 34.6577 16.9453 35.9077 16.8252 35.9277C16.1899 36.1836 15.5093 36.3062 14.8252 36.2881C14.6914 36.2759 14.5566 36.2998 14.4351 36.3579C13.3525 36.6938 12.2505 36.9639 11.1353 37.168C10.5649 37.2778 10.0352 37.5181 9.46533 37.6279C9.36523 37.6279 9.24512 37.6279 9.14502 37.6279C9.0127 37.6074 8.87744 37.6074 8.74512 37.6279C7.42529 37.9678 6.05518 38.1377 4.74512 38.6279C4.46533 38.7578 2.88525 38.728 2.55518 38.8481C2.2251 38.9678 1.70508 38.668 1.55518 38.7778Z" fill-rule="evenodd" fill="currentColor"/>
	<path d="M9.20508 45.4277C9.16309 45.6123 9.04248 45.7695 8.875 45.8579C8.68701 45.959 8.49316 46.0488 8.29492 46.1279C8.14502 46.188 7.78516 46.1279 7.75488 45.998C7.70117 45.7041 7.67139 45.4062 7.66504 45.1079C7.66504 45.0376 7.78516 44.3677 7.9248 43.6777C8.06494 42.9878 8.20508 42.188 8.3252 41.8076C8.53271 41.0879 8.79688 40.3857 9.11523 39.708L10.0352 37.6479C10.335 36.958 10.7148 36.3179 11.0352 35.6479C11.1948 35.3579 11.3862 35.0864 11.605 34.8379C12.3325 33.9697 12.9292 32.999 13.375 31.958C13.4844 31.7954 13.54 31.6035 13.5352 31.4077C13.8984 30.2192 14.46 29.1001 15.1948 28.0977C15.8813 27.3843 16.5195 26.626 17.105 25.8276C17.1851 25.7178 17.2051 25.5679 17.3853 25.5078C17.8149 25.3779 17.9053 25.0977 18.0449 24.8477C18.1851 24.5977 18.4951 24.1377 18.6851 23.8477C18.8271 23.6709 18.9878 23.5098 19.165 23.3677C19.3276 23.2632 19.543 23.2979 19.665 23.4478C19.7349 23.6577 19.9448 23.5376 20.0952 23.5479C20.1445 23.5361 20.1958 23.5361 20.2451 23.5479C20.3916 24.5811 20.4282 25.627 20.355 26.668L20.1748 27.2778C20.0752 27.6377 19.9351 28.1079 19.7852 28.5776C19.4849 29.5776 19.165 30.5078 19.1152 30.708C19.0396 30.9175 18.9204 31.1084 18.7651 31.2681C18.7051 31.3579 17.5649 34.0376 17.4951 34.1279C17.165 34.6279 16.9849 35.2178 16.415 35.5776C16.3228 35.6562 16.2505 35.7559 16.2051 35.8677C15.7129 36.7656 15.1582 37.6279 14.5449 38.4478C14.2349 38.8779 14.0449 39.3579 13.7349 39.7876C13.6724 39.8618 13.6021 39.9287 13.5249 39.9878C13.4316 40.0645 13.3477 40.1514 13.2749 40.248C12.6152 41.248 11.8149 42.248 11.2749 43.3179C11.1748 43.5879 10.0952 44.5176 9.95508 44.7876C9.81494 45.0576 9.2251 45.2681 9.20508 45.4277Z" fill-rule="evenodd" fill="currentColor"/>
	<path d="M25.3853 39.668C25.5806 39.7524 25.7354 39.9106 25.8149 40.1079C25.9106 40.335 25.9487 40.5825 25.9248 40.8281C25.8467 41.0132 25.6821 41.1479 25.4849 41.188C25.2349 41.188 25.0649 41.188 24.7949 41.1182C24.7148 41.1182 24.1851 40.918 23.4951 40.7578C22.8052 40.5981 22.0449 40.4478 21.6851 40.3179C20.9673 40.1172 20.2651 39.8633 19.585 39.5581L17.4849 38.6978C16.7749 38.418 16.1152 38.0679 15.4248 37.6978C15.1201 37.5488 14.8315 37.3682 14.5649 37.1582C13.6494 36.4536 12.6396 35.8813 11.5649 35.458C11.3936 35.3555 11.1948 35.3066 10.9951 35.3179C9.75146 34.9609 8.5752 34.3999 7.51514 33.6582C6.75488 32.918 5.93506 32.2778 5.13525 31.6582C5.0249 31.5679 4.86523 31.5278 4.81494 31.3379C4.68506 30.9082 4.40527 30.7881 4.14502 30.5981C3.79443 30.3394 3.46045 30.0586 3.14502 29.7578C2.98047 29.5801 2.83936 29.3818 2.7251 29.168C2.60498 28.978 2.86523 28.7178 2.93506 28.708C3.16504 28.708 3.10498 28.4678 3.15527 28.3281C3.17041 28.2778 3.19385 28.2305 3.2251 28.188C3.68994 28.1978 4.1543 28.2344 4.61523 28.2979C5.31494 28.3682 6.06494 28.418 6.19482 28.458L8.03516 29.0981C8.96484 29.4082 9.94482 29.7178 10.1553 29.7681C10.3618 29.8384 10.5498 29.9546 10.7051 30.1079C10.7852 30.1782 13.5151 31.2378 13.6152 31.3081C14.188 31.5215 14.7046 31.8638 15.125 32.3081C15.2085 32.4014 15.3154 32.4707 15.4351 32.5078C16.3657 32.98 17.2676 33.5078 18.1353 34.0879C18.585 34.3779 19.1353 34.5679 19.5352 34.8579C19.6152 34.918 19.6851 35.0078 19.7549 35.0679C19.8384 35.1621 19.9321 35.2456 20.0352 35.3179C21.1353 35.9478 22.1353 36.748 23.2749 37.3179C23.5552 37.4282 24.5249 38.5479 24.8052 38.748C25.085 38.9478 25.2251 39.5981 25.3853 39.668Z" fill-rule="evenodd" fill="currentColor"/>
	<path d="M63.0952 20.1079C63.2075 20.229 63.2559 20.396 63.2251 20.5581C63.2251 20.708 63.145 20.9077 63.0854 21.1479C63.0254 21.3877 62.8052 21.5781 62.6851 21.5278C62.4282 21.4302 62.1807 21.3096 61.9453 21.168C61.8853 21.168 61.4253 20.708 60.9453 20.2578C60.5312 19.8716 60.1406 19.4604 59.7754 19.0278C59.3442 18.5029 58.9658 17.937 58.645 17.3379L57.7051 15.5278C57.3853 14.9277 57.1353 14.2979 56.8652 13.6777C56.7534 13.3984 56.6763 13.106 56.6353 12.8081C56.4751 11.7686 56.165 10.7583 55.7153 9.80811C55.645 9.65771 55.6152 9.47803 55.4351 9.36816C55.1147 8.9126 54.8687 8.41016 54.7051 7.87793C54.4795 7.32715 54.3477 6.74219 54.3154 6.14795C54.3154 5.14795 54.3154 4.24805 54.3154 3.28809C54.3154 3.14795 54.2554 3.01807 54.3154 2.86816C54.4932 2.6001 54.561 2.27441 54.5054 1.95801C54.5229 1.53467 54.5903 1.11523 54.7051 0.708008C54.7803 0.491211 54.8848 0.286133 55.0151 0.0981445C55.1152 -0.0820312 55.4751 0.027832 55.5151 0.0981445C55.5552 0.167969 55.8052 0.0981445 55.9551 0.0981445L56.1152 0.0981445C56.1753 0.0981445 56.3853 0.578125 56.7251 1.09814C57.0654 1.61816 57.4351 2.09814 57.4854 2.17773C57.5352 2.25781 57.7451 2.90771 58.1055 3.65771C58.4653 4.40771 58.8452 5.16797 58.9351 5.31787C59.0186 5.48486 59.0527 5.67188 59.0352 5.85791C59.0352 5.94775 60.0352 8.20801 60.0352 8.29785C60.2593 8.77539 60.3589 9.30176 60.3252 9.82812C60.3184 9.93262 60.3428 10.0371 60.395 10.1279C60.6973 10.9604 60.9541 11.8081 61.165 12.668C61.2852 13.1079 61.5151 13.5078 61.6353 13.9478C61.6455 14.0308 61.6455 14.1147 61.6353 14.1978C61.6191 14.3042 61.6191 14.4116 61.6353 14.5181C61.9268 15.5386 62.2808 16.5405 62.6953 17.5181C62.8252 17.7178 62.875 18.9878 63.0054 19.228C63.1353 19.4678 62.9854 20.0278 63.0952 20.1079Z" fill-rule="evenodd" fill="currentColor"/>
	<path d="M49.2954 15.2881C49.1445 15.3647 48.9658 15.3647 48.8149 15.2881C48.6753 15.2881 48.4951 15.1382 48.2754 15.0278C48.0552 14.918 47.9053 14.6782 47.9854 14.5581C48.1265 14.3306 48.2837 14.1133 48.4551 13.9082C48.4551 13.8579 48.9653 13.498 49.4551 13.1279C49.9453 12.7578 50.5054 12.3081 50.8052 12.1279C51.3584 11.7729 51.9448 11.4717 52.5552 11.228L54.355 10.458C54.9551 10.1978 55.5752 10.0181 56.1851 9.80811C56.4595 9.71387 56.7456 9.66016 57.0352 9.64795C58.0195 9.59961 58.9888 9.39014 59.9053 9.02783C60.0552 8.95801 60.2153 8.92822 60.3252 8.75781C61.2671 8.2085 62.3062 7.84521 63.3853 7.68799C64.2568 7.70068 65.1289 7.65723 65.9951 7.55811C66.1152 7.55811 66.2251 7.46777 66.375 7.55811C66.6284 7.71436 66.9424 7.73633 67.2153 7.61816C67.5752 7.53809 67.9453 7.48779 68.2954 7.43799C68.5039 7.43896 68.7114 7.4624 68.915 7.50781C69.105 7.50781 69.2051 7.87793 69.165 7.94775C69.125 8.01807 69.2754 8.21777 69.3652 8.33789C69.3955 8.38232 69.4224 8.4292 69.4453 8.47803C68.8833 9.18994 68.2681 9.8584 67.605 10.478L64.415 12.2681C64.2417 12.3545 64.0488 12.396 63.855 12.3882C63.7651 12.3882 61.4551 13.3882 61.355 13.3882C60.8682 13.6006 60.333 13.6802 59.8052 13.6182C59.7041 13.5864 59.5962 13.5864 59.4951 13.6182C58.6445 13.8828 57.7754 14.0835 56.895 14.2178C56.4453 14.2979 56.0352 14.498 55.585 14.5679C55.499 14.5776 55.4116 14.5776 55.3252 14.5679C55.2222 14.5532 55.1182 14.5532 55.0151 14.5679C54.0151 14.8179 52.895 14.9082 51.895 15.2578C51.6753 15.3682 50.415 15.2578 50.165 15.3281C49.915 15.3979 49.395 15.188 49.2954 15.2881Z" fill-rule="evenodd" fill="currentColor"/>
	<path d="M55.3652 20.4082C55.335 20.5566 55.2285 20.6782 55.0854 20.728L54.5352 20.8882C54.3853 20.8882 54.0254 20.8882 53.9854 20.7681C53.9258 20.5205 53.8789 20.2705 53.8452 20.0181C53.8452 19.958 53.9053 19.418 53.9854 18.8481C54.0283 18.3374 54.1016 17.8301 54.2051 17.3281C54.334 16.7485 54.5181 16.1826 54.7554 15.6382L55.4351 14.0278C55.6553 13.478 55.9551 12.978 56.2153 12.458C56.3354 12.229 56.4907 12.0195 56.6753 11.8379C57.2788 11.188 57.7568 10.4321 58.0854 9.60791C58.1753 9.47656 58.2109 9.31543 58.1851 9.1582C58.4224 8.21631 58.8589 7.33643 59.4653 6.57812C60.0513 6.06104 60.5962 5.49951 61.0952 4.89795C61.165 4.81787 61.1753 4.69824 61.3452 4.66797C61.7451 4.58789 61.8052 4.36816 61.9253 4.17822C62.0454 3.98828 62.3052 3.64795 62.4854 3.4082C62.6177 3.27441 62.7656 3.15723 62.9253 3.05811C63.0654 2.94824 63.395 3.05811 63.4253 3.13818C63.4551 3.21826 63.6953 3.22803 63.8452 3.23828C63.8984 3.23145 63.9521 3.23145 64.0054 3.23828C64.1914 4.0791 64.292 4.93701 64.3052 5.79785C64.3052 5.79785 63.5254 8.69824 63.4351 9.04785C63.3867 9.21875 63.2852 9.36963 63.145 9.47803C63.145 9.54785 62.2554 11.688 62.145 11.748C61.875 12.1382 61.7651 12.6182 61.2554 12.8682C61.1738 12.9189 61.1138 12.9966 61.0854 13.0879C60.6934 13.79 60.2451 14.459 59.7451 15.0879C59.4951 15.418 59.355 15.8081 59.105 16.0879C59.0522 16.1455 58.9917 16.1963 58.9253 16.2383C58.8457 16.2939 58.7749 16.3613 58.7153 16.438C58.1343 17.1997 57.5938 17.9907 57.0952 18.8081C57.0254 19.0181 56.0952 19.688 55.9751 19.8979C55.855 20.1079 55.3652 20.2778 55.3652 20.4082Z" fill-rule="evenodd" fill="currentColor"/>
	<path d="M67.9648 15.708C68.1284 15.7705 68.2515 15.9087 68.2949 16.0781C68.3555 16.2905 68.3555 16.5156 68.2949 16.728C68.2046 16.8999 68.0503 17.0293 67.8652 17.0879C67.6553 17.0879 67.5151 17.0879 67.2852 17.0879C67.2148 17.0879 66.7949 16.9683 66.2852 16.8779C65.7749 16.7881 65.105 16.728 64.8252 16.6479C64.251 16.52 63.689 16.3423 63.145 16.1182L61.4849 15.498C60.9253 15.2881 60.4053 15.0078 59.8652 14.7681C59.624 14.6558 59.4014 14.5073 59.2051 14.3281C58.499 13.7563 57.6963 13.3164 56.835 13.0278C56.6973 12.9443 56.5332 12.916 56.375 12.9482C55.4009 12.7046 54.4902 12.2544 53.7051 11.6279C53.1353 10.9878 52.5151 10.4482 51.915 9.88818C51.8252 9.80811 51.7051 9.78809 51.6753 9.61816C51.6152 9.20801 51.3853 9.11816 51.1851 8.95801C50.9053 8.74414 50.6411 8.51025 50.395 8.25781C50.2769 8.09033 50.1792 7.90918 50.105 7.71826C50.0249 7.55811 50.2549 7.27783 50.3252 7.26807C50.395 7.25781 50.4849 7.01807 50.5352 6.88818L50.605 6.73779C50.9849 6.71826 51.3652 6.71826 51.7451 6.73779C52.1748 6.7124 52.6055 6.7124 53.0352 6.73779L54.5049 7.17822C55.2451 7.39795 56.0249 7.60791 56.1851 7.63818C56.3535 7.68604 56.5029 7.78369 56.6152 7.91797C56.6753 7.96826 58.8452 8.75781 58.915 8.80811C59.3149 9.06787 59.8052 9.16797 60.0752 9.6582C60.1338 9.73975 60.2183 9.7998 60.3149 9.82812C61.0474 10.1958 61.7495 10.6201 62.415 11.0981C62.7549 11.3379 63.165 11.4683 63.5049 11.708C63.5649 11.708 63.6152 11.8379 63.665 11.8882C63.7222 11.9697 63.793 12.041 63.875 12.0981C64.7349 12.6079 65.4951 13.2778 66.395 13.728C66.6152 13.8081 67.3252 14.7881 67.5552 14.9482C67.7852 15.1079 67.8252 15.6582 67.9648 15.708Z" fill-rule="evenodd" fill="currentColor"/>
	<path d="M55.3755 71.0278C55.4751 71.1353 55.5161 71.2847 55.4854 71.4277C55.4854 71.5581 55.3955 71.7378 55.3452 71.958C55.2954 72.1777 55.0752 72.3481 54.9653 72.3081C54.7358 72.2222 54.5122 72.1216 54.2954 72.0078C54.2954 72.0078 53.8354 71.6079 53.4355 71.208C53.0508 70.877 52.6929 70.5156 52.3652 70.1279C51.9805 69.6748 51.6455 69.1821 51.3652 68.6577L50.4854 67.0981C50.1953 66.5781 49.9854 66.0278 49.7451 65.4878C49.6436 65.2417 49.5762 64.9824 49.5454 64.7178C49.3965 63.8145 49.1133 62.938 48.7051 62.1177C48.6655 61.9624 48.5737 61.8247 48.4453 61.728C47.8999 60.8623 47.5581 59.8848 47.4453 58.8677C47.5054 58.0181 47.4453 57.1978 47.5054 56.3579C47.5054 56.2378 47.5054 56.1177 47.5054 55.9878C47.6807 55.7607 47.7495 55.4697 47.6953 55.188C47.6924 54.8179 47.7324 54.4487 47.8154 54.0879C47.8799 53.8926 47.978 53.7095 48.1055 53.5479C48.1953 53.3979 48.5254 53.4878 48.5654 53.5479C48.6055 53.6079 48.8354 53.5479 48.9751 53.5479C49.0254 53.543 49.0752 53.543 49.1255 53.5479C49.1255 53.5479 49.3755 53.9678 49.6855 54.3877C49.9951 54.8081 50.3354 55.2178 50.3755 55.3081C50.4155 55.3979 50.6152 55.9478 50.9355 56.5981C51.2554 57.248 51.5952 57.9077 51.6753 58.0381C51.7495 58.1826 51.7808 58.3457 51.7651 58.5078C51.7651 58.5879 52.6655 60.5078 52.6953 60.6377C52.939 61.0591 53.0571 61.5415 53.0352 62.0278C53.0303 62.1216 53.0508 62.2153 53.0952 62.2979C53.3652 63.0229 53.5889 63.7646 53.7651 64.5181C53.8555 64.9077 54.0654 65.248 54.1655 65.6279C54.1753 65.7041 54.1753 65.7817 54.1655 65.8579C54.1548 65.9512 54.1548 66.0449 54.1655 66.1377C54.4116 67.04 54.7153 67.9248 55.0752 68.7881C55.1953 68.958 55.2153 70.0781 55.3252 70.2881C55.4355 70.498 55.2754 70.938 55.3755 71.0278Z" fill-rule="evenodd" fill="currentColor"/>
	<path d="M43.2949 66.8579C43.1641 66.9292 43.0059 66.9292 42.875 66.8579C42.7549 66.8579 42.5952 66.7178 42.395 66.6182C42.1953 66.5181 42.0649 66.2881 42.125 66.1777C42.2466 65.9712 42.3833 65.7739 42.5352 65.5879C42.5352 65.5879 42.9849 65.2178 43.415 64.8877C43.7871 64.5654 44.1777 64.2646 44.585 63.9878C45.0645 63.6729 45.5737 63.4048 46.105 63.188L47.7051 62.5278C48.2251 62.2979 48.7651 62.1479 49.2949 61.958C49.5386 61.8809 49.79 61.8335 50.0449 61.8179C50.9053 61.7598 51.748 61.5498 52.5352 61.1978C52.6846 61.1689 52.8174 61.0825 52.9053 60.958C53.7153 60.4697 54.6172 60.1533 55.5552 60.0278C56.3193 60.0518 57.0845 60.0249 57.8452 59.9478C57.9551 59.9478 58.0449 59.8682 58.1851 59.9478C58.4033 60.0967 58.6826 60.123 58.9253 60.0181C59.2349 59.958 59.5552 59.9077 59.8652 59.8779C60.0508 59.8818 60.2358 59.9087 60.415 59.958C60.585 59.958 60.6753 60.3081 60.645 60.3579C60.6152 60.4077 60.7549 60.6079 60.835 60.728C60.8623 60.769 60.8857 60.8125 60.9053 60.8579C60.4243 61.5029 59.896 62.1113 59.3252 62.6777L58.0049 63.418C57.355 63.7881 56.665 64.1777 56.5352 64.2681C56.3828 64.3423 56.2144 64.3765 56.0449 64.3682C55.9648 64.3682 53.9453 65.2778 53.8652 65.2979C53.415 65.3877 53.0151 65.6377 52.5049 65.478C52.4121 65.4624 52.3164 65.48 52.2349 65.5278C51.4897 65.7578 50.7275 65.9287 49.9551 66.0381C49.5649 66.0981 49.2051 66.2778 48.8149 66.3379C48.7388 66.3477 48.6616 66.3477 48.585 66.3379C48.4922 66.3281 48.3979 66.3281 48.3052 66.3379C47.4053 66.5581 46.4551 66.6279 45.585 66.9277C45.395 67.0278 44.2852 66.9277 44.0649 66.9277C43.8452 66.9277 43.3853 66.7681 43.2949 66.8579Z" fill-rule="evenodd" fill="currentColor"/>
	<path d="M48.625 71.3081C48.5952 71.438 48.501 71.5435 48.375 71.5879L47.8652 71.7178C47.7349 71.7178 47.395 71.7178 47.3652 71.5977C47.2959 71.3833 47.2485 71.1621 47.2251 70.938C47.2251 70.938 47.2251 70.3979 47.3252 69.938C47.3511 69.4844 47.4077 69.0337 47.4951 68.5879C47.5928 68.0776 47.7505 67.5811 47.9653 67.1079L48.5449 65.668C48.7251 65.188 48.9951 64.748 49.2153 64.2979C49.3223 64.0972 49.4604 63.915 49.625 63.7578C50.1646 63.1782 50.5854 62.4985 50.8652 61.7578C50.9448 61.6445 50.9736 61.5034 50.9453 61.3677C51.1353 60.542 51.5156 59.7715 52.0552 59.1177C52.5806 58.6753 53.0688 58.1904 53.5151 57.668C53.5752 57.5977 53.585 57.498 53.7349 57.4678C53.9756 57.4443 54.1816 57.2852 54.2651 57.0581C54.415 56.8379 54.605 56.5977 54.7651 56.3877C54.8877 56.2773 55.022 56.1797 55.165 56.0977C55.2949 55.998 55.605 56.0977 55.6353 56.168C55.665 56.2378 55.8853 56.248 56.0249 56.2681L56.1753 56.2681C56.3545 57.0122 56.458 57.7729 56.4849 58.5381L55.7549 61.3979C55.7065 61.5439 55.6162 61.6724 55.4951 61.7681C55.4951 61.8276 54.7251 63.708 54.6753 63.7681C54.4453 64.1079 54.3452 64.5278 53.8853 64.7681C53.8115 64.8081 53.7573 64.877 53.7349 64.958C53.394 65.5747 52.9995 66.1606 52.5552 66.708C52.335 66.9878 52.2153 67.3276 51.9951 67.6079C51.9951 67.668 51.8853 67.6978 51.835 67.7378C51.7632 67.7837 51.6987 67.8413 51.645 67.9077C51.1274 68.5859 50.6499 69.2939 50.2153 70.0278C50.1553 70.208 49.3149 70.7778 49.2153 70.958C49.1152 71.1377 48.625 71.1978 48.625 71.3081Z" fill-rule="evenodd" fill="currentColor"/>
	<path d="M59.5552 67.1182C59.708 67.1743 59.8232 67.3013 59.8652 67.458C59.9204 67.6577 59.9204 67.8687 59.8652 68.0679C59.7822 68.2295 59.6382 68.3521 59.4653 68.4082C59.2754 68.4082 59.1455 68.4082 58.9253 68.4082C58.7056 68.4082 58.4556 68.2983 57.9253 68.208C57.3955 68.1182 56.8052 68.0581 56.5352 67.978C55.9912 67.8564 55.459 67.686 54.9453 67.4683L53.3652 66.8682C52.8354 66.6782 52.3652 66.4082 51.8252 66.1782C51.5991 66.064 51.3877 65.9229 51.1953 65.7583C50.5327 65.2017 49.7783 64.7651 48.9653 64.4683C48.8384 64.3857 48.6851 64.3535 48.5352 64.3779C47.5933 64.1597 46.71 63.7397 45.9453 63.1479C45.4053 62.5483 44.8154 62.0381 44.2451 61.5083C44.1553 61.438 44.0454 61.418 44.0151 61.248C43.9453 60.8779 43.7354 60.7881 43.5454 60.6382C43.2812 60.4312 43.0308 60.2075 42.7954 59.9683C42.6787 59.8159 42.584 59.6475 42.5151 59.4683C42.4355 59.3179 42.6553 59.0581 42.7153 59.0483C42.7754 59.0381 42.8652 58.8179 42.9155 58.6982C42.9307 58.6479 42.9541 58.6006 42.9854 58.5581C42.9854 58.5581 43.5151 58.5581 44.0552 58.5581C44.5952 58.5581 45.1855 58.5581 45.2754 58.5581L46.7056 59.0283C47.4155 59.2383 48.1553 59.4482 48.3154 59.4683C48.4712 59.5195 48.6094 59.6128 48.7153 59.7383C48.7754 59.7383 50.8252 60.5483 50.9053 60.5981C51.2852 60.8379 51.7354 60.938 52.0054 61.4082C52.0576 61.4839 52.1357 61.5371 52.2256 61.5581C52.9233 61.9067 53.5923 62.3115 54.2256 62.7681C54.5552 62.998 54.9453 63.1182 55.2256 63.3481C55.2852 63.3481 55.3252 63.4683 55.3853 63.5181C55.4424 63.5938 55.5098 63.6611 55.5854 63.7183C56.3955 64.1982 57.1255 64.8281 57.9756 65.2583C58.1855 65.3379 58.8652 66.2583 59.0854 66.3979C59.3052 66.5381 59.4253 67.0283 59.5552 67.1182Z" fill-rule="evenodd" fill="currentColor"/>
	<defs/>
</svg>
