<svg width="24" height="24" viewBox="0 0 110 110" fill="none" xmlns="http://www.w3.org/2000/svg" xmlns:xlink="http://www.w3.org/1999/xlink">
	<path d="M42.667 85.061C40.9067 85.061 39.1372 84.9812 37.3569 84.9011L31.9868 84.6711C30.667 84.6011 29.3271 84.6711 27.9868 84.4812C26.7661 84.2683 25.5605 83.9778 24.377 83.6111C23.0337 83.2019 21.7642 82.5808 20.6172 81.7712C20.2866 81.5295 19.9785 81.2585 19.6968 80.9612L19.2671 80.4712C19.1616 80.3406 19.0649 80.2036 18.9771 80.061C18.6055 79.5281 18.2715 78.9702 17.9771 78.3911C17.394 77.252 16.9507 76.0466 16.6567 74.801C16.1826 72.7085 15.9575 70.5669 15.9868 68.4211C15.9009 65.7781 16.2832 63.1406 17.1172 60.6311C17.4067 59.8611 18.167 60.1311 18.877 60.9312C19.29 61.3843 19.6274 61.9009 19.877 62.4612C20.1875 63.0813 20.3418 63.7678 20.3271 64.4612C20.2842 66.8059 20.4614 69.1497 20.8569 71.4612C21.0435 72.5012 21.2905 73.5298 21.5972 74.541C21.9146 75.5222 22.3477 76.4622 22.8872 77.3411C23.0669 77.8511 24.2368 78.4912 25.5771 78.7512C26.917 79.0112 28.437 79.1311 29.937 79.3711C31.437 79.6111 33.2969 79.7612 35.0171 79.8411C36.7368 79.9211 38.4771 79.9211 40.2271 79.9312C42.377 79.9312 44.5371 79.9312 46.6968 79.9312C49.9668 79.8511 53.2769 79.8611 56.5469 79.7212C59.1069 79.6111 61.6172 79.2312 64.2368 79.1511C64.8164 79.1111 65.3975 79.1111 65.9771 79.1511C68.1567 79.3511 68.8369 79.9312 68.9771 81.4111C69.0332 81.7415 69.0601 82.0762 69.0571 82.4111C68.9771 83.5212 68.0571 84.2012 66.627 84.4111C62.437 84.9512 57.9067 85.041 53.2368 85.1711C49.7769 85.2612 46.2368 85.2712 42.707 85.321L42.667 85.061Z" fill-rule="evenodd" fill="currentColor"/>
	<path d="M19.877 70.5713C19.7969 72.6912 19.7671 74.8213 19.877 76.8613C19.877 77.8613 19.9868 78.8613 20.1069 79.7812C20.1069 80.0112 20.167 80.2312 20.207 80.4412C20.2471 80.6511 20.207 80.6611 20.207 80.7212L20.207 80.7913C20.2183 80.8828 20.2388 80.9734 20.2671 81.0613C20.3169 81.2812 20.5269 81.3113 20.7168 81.3713L20.7671 81.4211L21.1069 81.4211L21.8271 81.4912C22.3169 81.4912 22.7769 81.6213 23.3071 81.6313C25.3569 81.7212 27.4868 81.7012 29.6567 81.6313C32.8169 81.4912 35.9971 81.0513 39.2168 80.7913C44.877 80.3413 50.5869 79.7913 56.3569 79.4612L60.7671 79.2212L65.1372 79.1013C66.6069 79.1013 68.0571 79.1013 69.5469 79.1611L71.7769 79.2812C72.147 79.2812 72.5269 79.3813 72.897 79.4312L73.167 79.4312L73.2969 79.4312L73.5571 79.4912C73.8369 79.4912 74.1968 79.6912 74.4268 79.4912C74.6372 79.2673 74.7915 78.9966 74.877 78.7012C74.877 78.5613 74.9668 78.4111 75.0068 78.2612L75.1567 77.6511C75.2769 77.0913 75.3872 76.5012 75.4668 75.9111C75.7866 73.478 75.9307 71.0251 75.897 68.5713C75.8242 62.2422 75.1104 55.9365 73.7671 49.7512C73.5068 48.8313 73.4468 48.3911 73.6567 48.3013C73.8672 48.2112 74.3472 48.5012 75.0269 49.1711C75.9341 50.106 76.7388 51.1353 77.4268 52.2412C78.3071 53.8013 78.9409 55.4878 79.3071 57.2412C80.2573 61.6799 80.8096 66.1943 80.957 70.7312C81.0488 73.0879 80.9585 75.4482 80.687 77.7913C80.687 78.0913 80.5972 78.4111 80.5469 78.7312C80.5073 78.9089 80.4805 79.0896 80.4668 79.2712L80.2769 80.0513C80.207 80.3113 80.1567 80.5813 80.0869 80.8313L79.8169 81.5813C79.6465 82.0684 79.4219 82.5344 79.147 82.9712C78.1592 84.7515 76.1523 85.7104 74.147 85.3613L72.5869 85.3613L71.8369 85.3013L70.2769 85.2212L68.6968 85.1213L67.0771 85.1213C65.9971 85.1213 64.9067 85.1213 63.7969 85.1213C62.687 85.1213 61.5972 85.1213 60.4771 85.1213C52.6172 85.2913 44.4771 86.7712 36.2471 87.5513C31.6465 88.0698 27.0146 88.2637 22.3872 88.1313L20.5571 87.9912L20.0972 87.9912L19.457 87.8413L18.1768 87.4211L16.897 87.1113C16.4966 86.9573 16.1323 86.7224 15.8271 86.4211C15.2119 85.8069 14.7256 85.0759 14.397 84.2712C14.2261 83.8657 14.0762 83.4519 13.9468 83.0312C13.8872 82.8113 13.8271 82.6013 13.7769 82.3911L13.667 81.8911C13.5269 81.2512 13.4268 80.6411 13.3472 80.0312C13.187 78.8113 13.0869 77.6313 13.0371 76.4512C12.8916 70.7944 13.1758 65.135 13.8872 59.5212C14.3564 55.2568 15.105 51.0278 16.127 46.8613C16.4067 45.8613 16.7168 44.7512 17.127 43.6611C17.667 42.2812 18.2671 40.7913 19.6968 40.2212C20.3618 39.9216 21.0552 39.6904 21.7671 39.5312C22.3672 39.3911 22.8872 39.2913 23.437 39.1912C24.5269 39.0112 25.5972 38.8613 26.6567 38.7512C33.1353 37.9346 39.6577 37.5205 46.187 37.5112C47.627 37.5112 49.0571 37.5112 50.5269 37.6511C51.207 37.7112 51.8271 37.7812 52.4067 37.8713C52.9868 37.9612 53.4771 38.1313 53.9468 38.2712C54.7305 38.4897 55.4878 38.7915 56.207 39.1711C57.1753 39.6196 57.9316 40.4263 58.3169 41.4211C58.5146 41.7876 58.666 42.1772 58.7671 42.5813C58.8369 43.1812 58.2769 43.5813 57.2969 43.7312C55.8838 43.9814 54.4521 44.1086 53.0171 44.1113C51.647 44.2012 50.2871 44.1113 48.897 44.1113C47.5068 44.1113 46.1172 44.1113 44.707 44.1113C41.897 44.1113 39.0371 44.2312 36.1768 44.3813C34.7471 44.4612 33.3071 44.5413 31.877 44.6611L29.7471 44.8513L27.6372 45.1711C26.3203 45.3711 25.0146 45.6416 23.7271 45.9812L23.5269 46.0413L23.5269 46.1213L23.4771 46.2712L23.2769 46.9111C23.1372 47.3613 23.0068 47.8213 22.8872 48.3113C22.6372 49.3113 22.417 50.3113 22.207 51.3113C21.8071 53.3813 21.4668 55.5112 21.207 57.6511C20.6431 61.9639 20.3096 66.3032 20.207 70.6511L19.877 70.5713Z" fill-rule="evenodd" fill="currentColor"/>
	<path d="M52.8667 44.9409C53.207 44.5608 53.5669 44.1909 53.8667 43.8008C53.8667 43.741 53.9268 43.731 53.937 43.731L53.9971 43.731L54.127 43.6509C54.2671 43.5808 54.4668 43.481 54.5068 43.3108C54.5356 43.1453 54.5034 42.9749 54.417 42.8308C54.3555 42.73 54.2646 42.6497 54.1567 42.6008L54.0767 42.4209L53.8369 42.231C53.6699 42.0991 53.5098 41.959 53.3569 41.8108C50.9302 39.5657 48.2798 37.5752 45.4468 35.8708C44.8022 35.4749 44.1343 35.1174 43.4468 34.8008L42.4468 34.3408L41.4468 33.8108C39.688 33.0171 38.0127 32.0488 36.4468 30.9209C35.957 30.531 36.2568 29.9209 37.0171 29.4009C37.9341 28.7114 39.0605 28.3584 40.207 28.4009C41.207 28.5608 42.2568 28.731 43.2671 28.9409C43.7759 29.0349 44.2803 29.155 44.7769 29.3008C45.2471 29.501 45.707 29.7009 46.167 29.9209C48.0415 30.7817 49.8237 31.8303 51.4868 33.0508C53.4868 34.5708 55.917 35.4709 58.1167 37.1909L58.5767 37.5808L59.0469 38.041C59.373 38.3315 59.6768 38.6458 59.957 38.981C60.5039 39.6096 60.9521 40.3176 61.2871 41.0808L61.4971 41.6409L61.6167 42.231C61.6167 42.4309 61.6167 42.6309 61.6768 42.8408C61.7368 43.0508 61.6768 43.241 61.6069 43.4309C61.564 43.6204 61.5107 43.8074 61.4468 43.991L61.1768 44.531C61.0142 44.895 60.8237 45.2461 60.6069 45.5808C60.0767 46.251 59.5469 46.9409 59.0171 47.5808C57.8569 48.8909 56.627 50.1108 55.397 51.3108C53.5068 53.1208 51.457 54.731 49.4971 56.3809C47.957 57.6509 46.627 59.1709 45.0269 60.3809C44.667 60.6409 44.3369 60.9309 43.957 61.1609C43.7769 61.261 43.6167 61.3608 43.457 61.4309C43.3013 61.4844 43.1401 61.5212 42.9771 61.541C42.1445 61.7366 41.2754 61.4182 40.7671 60.731C40.5669 60.511 40.3467 60.3208 40.1768 60.1008C39.6367 59.3809 39.7969 58.3408 40.4268 57.251C41.4062 55.8604 42.5474 54.5916 43.8267 53.4709L47.4971 50.1108C49.356 48.4595 51.1157 46.6997 52.7671 44.8408L52.8667 44.9409Z" fill-rule="evenodd" fill="currentColor"/>
	<path d="M65.437 25.7112C65.5269 26.021 65.0269 25.9612 64.207 25.7112C63.8462 25.5486 63.5093 25.3367 63.207 25.0811C63.0425 24.8735 62.8955 24.6526 62.7671 24.4211C62.7671 24.311 62.8569 23.041 62.8369 22.5811C62.8516 22.1794 62.9468 21.7852 63.1172 21.4211C63.397 20.6711 63.6372 19.8911 63.9272 19.1111C63.9927 18.9355 64.103 18.7805 64.2471 18.6611C64.7227 18.2151 65.0684 17.6482 65.2471 17.021C65.2471 16.9211 65.3672 16.8411 65.2471 16.6711C65.127 16.501 65.9873 14.8311 66.2471 14.6711C66.8472 14.3511 67.3169 13.9612 67.9473 13.6711C68.0269 13.6711 68.0371 13.531 68.2471 13.5811C68.7373 13.7112 68.7871 13.5811 68.9272 13.4211C69.1372 13.251 69.3735 13.1157 69.627 13.021C69.833 12.9929 70.0415 12.9929 70.2471 13.021C70.5083 13.1343 70.7383 13.3093 70.917 13.531C71.0073 13.7312 71.2871 13.8311 71.4873 13.9812C71.5605 14.0295 71.6309 14.083 71.6973 14.1411C71.8052 14.4648 71.8726 14.8008 71.897 15.1411C71.9717 15.47 72.0186 15.8044 72.0371 16.1411C72.0371 16.1411 71.937 16.6411 71.7969 17.1411C71.6665 17.4912 71.5566 17.8484 71.4673 18.2112C71.4673 18.321 71.3071 18.3611 71.1973 18.4211C71.0869 18.4812 70.7671 19.9211 70.7671 19.9712C70.5972 20.2212 70.5771 20.551 70.0371 20.6211C69.9272 20.6211 69.917 20.6912 69.8872 20.751C69.6123 21.2234 69.2759 21.657 68.8872 22.041C68.7163 22.2673 68.5654 22.5083 68.437 22.761C68.437 22.761 68.3369 22.821 68.2871 22.8511C68.2373 22.8811 68.1372 22.9211 68.1069 22.981C67.6992 23.5281 67.3413 24.1104 67.0371 24.7212C66.9771 24.8711 66.207 25.311 66.1572 25.491C66.1069 25.6711 65.397 25.5911 65.437 25.7112Z" fill-rule="evenodd" fill="currentColor"/>
	<path d="M75.0869 38.9312C74.9067 39.2212 74.5669 38.8311 74.147 38.0811C73.9673 37.7178 73.8555 37.3247 73.8169 36.9211C73.876 36.6724 73.9526 36.4285 74.0469 36.1912C74.1069 36.071 75.3169 35.1111 75.707 34.7212C76.0801 34.3821 76.5098 34.1113 76.9771 33.9211L78.3369 33.301C78.7969 33.1211 79.2769 32.981 79.7568 32.8411C79.9834 32.7859 80.2202 32.7859 80.4468 32.8411C81.2305 32.9495 82.0288 32.8564 82.7671 32.571C82.897 32.571 83.0269 32.571 83.127 32.3311C83.2271 32.0911 85.437 31.6511 85.7368 31.791L86.8071 32.1511L87.8071 32.5911C87.897 32.5911 88.0068 32.5911 88.0967 32.791C88.2969 33.291 88.5068 33.2212 88.707 33.271C89.0098 33.3503 89.2944 33.4861 89.5469 33.6711C89.7075 33.8457 89.8389 34.0449 89.937 34.261C90.0142 34.5562 90.0142 34.866 89.937 35.1611C89.8071 35.3611 89.937 35.6711 89.937 35.9412C89.9424 36.0344 89.9424 36.1279 89.937 36.2212C89.4351 36.7908 88.875 37.3066 88.2671 37.761L87.917 37.8711C87.7168 37.9312 87.4468 38.011 87.187 38.1111C86.647 38.261 86.0869 38.4011 85.9771 38.4612C85.8667 38.521 85.7368 38.4011 85.6069 38.3411C85.4771 38.281 83.9771 38.8911 83.9067 38.9011C83.5669 38.9011 83.2568 39.1211 82.8369 38.761C82.7568 38.6912 82.687 38.761 82.627 38.761C82.0244 38.8806 81.4111 38.9341 80.7969 38.9211C80.4819 38.9626 80.1709 39.0295 79.8667 39.1211C79.8071 39.1211 79.7368 39.1211 79.6768 39.051C79.6167 38.981 79.5068 38.981 79.437 39.051C78.6675 39.1011 77.9043 39.2214 77.1567 39.4111C76.9971 39.4712 76.0371 39.2112 75.8467 39.311C75.6567 39.4111 75.167 38.811 75.0869 38.9312Z" fill-rule="evenodd" fill="currentColor"/>
	<defs/>
</svg>
