<svg width="24" height="24" viewBox="0 0 110 110" fill="none" xmlns="http://www.w3.org/2000/svg" xmlns:xlink="http://www.w3.org/1999/xlink">
	<path d="M26.2393 68.9028C30.0693 68.6133 34.1592 66.9932 38.4292 65.293C39.9893 64.6831 41.5391 63.9131 43.2192 63.3931C43.9692 63.1631 44.709 62.9331 45.4893 62.7529C46.2588 62.5469 47.0405 62.3867 47.8291 62.2729C49.4824 62.0107 51.1602 61.9434 52.8291 62.0732C53.75 62.1475 54.6558 62.353 55.519 62.6831C56.4888 63.0488 57.3564 63.6421 58.0493 64.4131C58.3667 64.8184 58.6387 65.2578 58.8589 65.7231C59.0586 66.1572 59.2158 66.6089 59.3291 67.0732C59.4473 67.498 59.5244 67.9331 59.5591 68.373C59.6118 68.7876 59.6353 69.2051 59.6289 69.623C59.5415 72.3066 59.2612 74.98 58.7891 77.623C58.5552 79.3081 58.2212 80.9775 57.7891 82.623C57.3442 84.3501 56.5845 85.981 55.5493 87.4331C54.8091 88.3433 54.3193 87.6831 54.1089 86.583C53.7954 85.1367 53.7954 83.6396 54.1089 82.1929C54.4678 80.6387 54.7446 79.0664 54.939 77.4829C55.1489 75.873 55.3589 74.1831 55.5093 72.623C55.686 71.2397 55.6592 69.8384 55.4292 68.4629C55.3491 68.0552 55.1743 67.6714 54.9189 67.3433C54.7593 67.0732 54.3789 66.9331 53.9189 66.7129C52.251 66.4009 50.5317 66.5142 48.9189 67.043C47.0298 67.5444 45.1782 68.1792 43.3789 68.9429C39.269 70.563 35.0591 72.7031 30.2891 73.9429C27.2783 74.728 24.1445 74.9248 21.0591 74.5229C18.5103 74.2217 16.1279 73.1025 14.269 71.333C13.3516 70.3896 12.6279 69.2749 12.1392 68.0532C11.6821 66.9043 11.376 65.7007 11.229 64.4731C10.8086 60.9478 10.9678 57.3774 11.6992 53.9028C11.8491 53.1528 11.959 52.4131 12.1689 51.6831C12.9893 48.9829 13.749 48.3232 15.479 48.3828C15.8696 48.3745 16.2607 48.3911 16.6489 48.4331C17.9189 48.6729 18.4692 50.063 18.209 51.9531C17.8389 54.7632 17.4189 57.5532 17.3091 60.1431C17.1992 62.7329 17.3091 65.1431 18.0293 66.373C18.2705 66.833 18.6123 67.2329 19.0293 67.543C19.5835 67.9346 20.1982 68.2319 20.8491 68.4229C22.5962 68.8643 24.4102 68.98 26.1992 68.7632L26.2393 68.9028Z" fill-rule="evenodd" fill="currentColor"/>
	<path d="M52.8291 39.793C55.689 38.9028 58.729 37.793 61.8291 36.873C64.9771 35.8491 68.1826 35.0107 71.4292 34.3628C73.9761 33.7847 76.5918 33.5693 79.1992 33.7231C80.5034 33.853 81.7847 34.1558 83.0088 34.623C83.6733 34.8936 84.3096 35.2285 84.9092 35.623C85.209 35.8433 85.5288 36.0532 85.7988 36.2832L86.5488 36.9932C88.3389 38.874 89.5112 41.2573 89.9092 43.8232C90.2476 46.0552 90.2778 48.3228 89.999 50.563C89.751 52.6802 89.3599 54.7783 88.8291 56.8433C87.9385 60.4097 86.8638 63.9277 85.6089 67.3828C84.1284 71.7876 82.2441 76.0459 79.979 80.103C79.249 81.3433 78.6089 80.8433 78.3291 79.4028C78.0044 77.2759 78.1929 75.1025 78.8789 73.063C80.3589 68.6831 81.6992 64.293 82.7891 59.9229C84.0376 55.7544 84.7437 51.4424 84.8892 47.0933C84.8892 44.6631 84.1089 42.4028 82.6592 41.1929C82.335 40.8911 81.959 40.6504 81.5488 40.4829C81.3394 40.3882 81.1216 40.3115 80.8989 40.2529C80.6489 40.2529 80.4189 40.123 80.1489 40.0933C78.9785 39.9346 77.7935 39.918 76.6191 40.043C73.6753 40.3662 70.7666 40.9556 67.9292 41.8032C64.9292 42.6528 62.0088 43.6729 59.0088 44.7329C57.1489 45.373 55.3091 46.043 53.2891 46.623L50.4292 47.4229C49.4292 47.6929 48.4292 47.9531 47.4292 48.1528C45.6445 48.5542 43.7935 48.5542 42.0088 48.1528C40.9604 47.875 39.9937 47.3501 39.189 46.623C38.8169 46.2534 38.4819 45.8481 38.189 45.4131C37.896 44.9795 37.6416 44.521 37.4292 44.043C36.7549 42.3555 36.4912 40.5322 36.6592 38.7231C36.7915 37.1099 37.0757 35.5127 37.5088 33.9531C38.7524 29.4121 40.3408 24.9727 42.2588 20.6729C42.6689 19.7432 43.0288 18.813 43.499 17.9131C45.2393 14.5732 46.189 13.853 48.2192 14.0229C48.6777 14.04 49.1353 14.0835 49.5889 14.1528C51.0688 14.4629 51.3892 16.4829 50.439 19.083C49.0488 22.9331 47.439 26.623 45.9692 30.293C45.2598 32.0693 44.646 33.8818 44.1289 35.7231C43.6636 37.2109 43.4409 38.7642 43.4692 40.3232C43.48 40.6636 43.5405 41.0005 43.6489 41.3232C43.6489 41.3232 43.6489 41.4429 43.6489 41.4629C43.978 41.5293 44.3135 41.5562 44.6489 41.543C45.9033 41.4395 47.1436 41.2051 48.3491 40.8433L50.6992 40.1929C51.3691 40.0132 52.0088 39.8232 52.6992 39.583L52.8291 39.793Z" fill-rule="evenodd" fill="currentColor"/>
	<defs/>
</svg>
