<svg width="24" height="24" viewBox="0 0 110 110" fill="none" xmlns="http://www.w3.org/2000/svg" xmlns:xlink="http://www.w3.org/1999/xlink">
	<path d="M22.2051 56.2144L21.5752 55.394C21.3193 55.0771 21.0854 54.7432 20.875 54.394C20.4727 53.7188 20.1377 53.0054 19.875 52.2642C19.585 50.7192 19.9468 49.123 20.875 47.854C21.3452 47.1943 21.8706 46.5757 22.4448 46.0044C22.7148 45.7344 22.855 45.6143 23.0552 45.4243L23.625 44.9341C24.3853 44.2939 25.1353 43.7241 25.895 43.1743C28.895 41.0142 31.895 39.1743 34.895 37.2939C37.0649 35.9341 39.125 34.4541 41.2148 33.0942C43.0649 31.8843 44.8853 30.6543 46.5249 29.354C46.9351 29.0342 47.3252 28.7041 47.6948 28.354L48.2349 27.854L48.5952 27.5044C48.9009 27.2485 49.1094 26.8955 49.1851 26.5044C49.1851 26.0542 48.7852 25.8042 48.415 25.6143L48.2651 25.5342L48.0552 25.4341L47.355 25.124C46.9048 24.9141 46.355 24.7144 45.895 24.5142C43.895 23.7241 41.7852 23.0244 39.6548 22.4141C35.8755 21.3477 32.0161 20.585 28.1152 20.1343C25.6353 19.834 23.1152 19.5439 20.6548 19.3643L16.9048 19.104C16.2778 19.0815 15.6528 19.0146 15.0352 18.9043C14.4048 18.8242 13.7749 18.7744 13.145 18.7041C11.5649 18.5142 11.7148 18.1143 13.0151 17.3242C13.9062 16.7847 14.8315 16.3037 15.7852 15.8843C17.0967 15.3838 18.4819 15.103 19.8853 15.0542C22.5894 14.9463 25.2974 14.9995 27.9951 15.2144C30.6812 15.4941 33.3516 15.9111 35.9951 16.4644C38.6348 16.9941 41.2451 17.6616 43.8149 18.4644C45.105 18.874 46.395 19.314 47.6748 19.8242L48.6748 20.2041L49.6748 20.644C50.5879 21.0586 51.479 21.519 52.3452 22.0244C53.4375 22.6665 54.2451 23.6992 54.605 24.9141C54.8979 26.1553 54.7271 27.4604 54.125 28.584C53.7998 29.1616 53.4214 29.707 52.9951 30.2144C52.7949 30.4741 52.5649 30.7441 52.355 30.9844L51.8652 31.5044C51.2251 32.1641 50.5752 32.7544 49.9248 33.314C47.4038 35.4399 44.7559 37.4106 41.9951 39.2144L33.0952 45.0044C31.645 46.0044 30.2148 46.9443 28.8853 48.0044C28.2148 48.5142 27.5752 49.0044 26.9951 49.564L26.5952 49.9243L26.3853 50.124C26.2476 50.2686 26.1206 50.4219 26.0049 50.584C25.8457 50.7812 25.7671 51.0312 25.7852 51.2842C25.8682 51.5186 25.9824 51.7407 26.125 51.9443L26.335 52.2344L26.5049 52.4644L26.7349 52.7344C27.0752 53.084 27.375 53.4541 27.7349 53.7939C29.2153 55.1929 30.8296 56.4424 32.5552 57.5244C38.0342 60.895 43.8867 63.6167 49.9951 65.6343C54.7344 67.1528 59.564 68.375 64.4551 69.2939C65.5249 69.5142 66.5952 69.6641 67.665 69.9043C69.0786 70.2832 70.4272 70.873 71.665 71.6543C72.3579 72.2002 72.8701 72.9424 73.1353 73.7842C73.2739 74.1265 73.3911 74.4771 73.4849 74.834C73.5552 75.3843 73.145 75.7544 72.2852 76.0742C71.1011 76.501 69.8398 76.6714 68.585 76.5742L66.835 76.4941L65.9648 76.4941L65.105 76.3542C63.9648 76.1541 62.8252 75.9341 61.6748 75.6841C59.395 75.1943 57.105 74.604 54.8149 73.9341C50.1602 72.5591 45.5977 70.8892 41.1548 68.9341C37.752 67.4629 34.4517 65.7656 31.2749 63.854C29.6299 62.8569 28.0435 61.7651 26.5249 60.584C24.8975 59.3384 23.4028 57.9272 22.0649 56.374L22.2051 56.2144Z" fill-rule="evenodd" fill="currentColor"/>
	<path d="M79.9951 78.5144C80.8149 78.2278 81.625 77.8943 82.4248 77.5144L82.7349 77.3845L82.8853 77.3145L82.9448 77.3145L83.085 77.3145C83.1973 77.3035 83.3081 77.28 83.415 77.2444C83.5322 77.22 83.646 77.1831 83.7549 77.1345C83.8115 77.1223 83.8633 77.0945 83.9053 77.0544C83.9053 77.0544 83.9053 76.9543 83.9053 76.9143C83.8408 76.8406 83.79 76.7559 83.7549 76.6643C83.7046 76.4885 83.6377 76.3179 83.5552 76.1543C83.5552 76.1543 83.5049 76.0444 83.4751 75.9946L83.355 75.8345L83.1851 75.6143L82.5049 74.7646L79.6948 71.3145C78.855 70.3145 77.9053 69.3843 76.9648 68.4546C76.3125 67.8979 75.7314 67.2632 75.2349 66.5645C74.7305 65.8174 74.2861 65.0317 73.9053 64.2144C73.6948 63.6543 74.145 63.4946 74.9053 63.4844C75.3267 63.4834 75.748 63.5132 76.165 63.5742C76.6631 63.6128 77.1519 63.7271 77.6152 63.9146C78.0117 64.0742 78.3906 64.2754 78.7451 64.5146L79.7451 65.2944C80.3853 65.8145 81.0352 66.3545 81.665 66.9146C82.9727 68.0273 84.1748 69.2593 85.2549 70.5942C85.5669 71.0181 85.9009 71.4253 86.2549 71.8145L86.8149 72.3843L87.7148 73.2544C88.3398 73.8696 88.9243 74.5244 89.4648 75.2144C89.9375 75.8022 90.2783 76.4839 90.4648 77.2144C90.5059 77.5129 90.5059 77.8157 90.4648 78.1145C90.4185 78.4236 90.271 78.7085 90.0449 78.9243L89.5049 79.6345C89.2651 79.8545 88.9551 80.0645 88.6851 80.2844C87.7451 80.8745 86.6851 81.3943 85.7852 81.9143L85.2051 82.1843L84.7148 82.4143C84.395 82.5645 84.0552 82.7043 83.7148 82.8445C82.3452 83.4443 80.9351 83.9343 79.5352 84.4243C77.3926 85.1162 75.208 85.6709 72.9951 86.0845C71.2349 86.5315 69.4478 86.8655 67.645 87.0845C67.2285 87.1094 66.8115 87.1094 66.395 87.0845C65.8096 87.1147 65.2373 86.9011 64.8149 86.4944C64.5068 86.0371 64.3916 85.4763 64.4951 84.9343C64.5044 84.5996 64.5342 84.2656 64.585 83.9343C64.7197 82.9624 65.4326 82.1704 66.3853 81.9343C67.6753 81.6345 68.875 81.4744 70.145 81.1943C71.415 80.9143 72.7051 80.6943 74.0249 80.3445C76.0498 79.8433 78.0352 79.1948 79.9648 78.4043L79.9951 78.5144Z" fill-rule="evenodd" fill="currentColor"/>
	<defs/>
</svg>
