<svg width="24" height="24" viewBox="0 0 110 110" fill="none" xmlns="http://www.w3.org/2000/svg" xmlns:xlink="http://www.w3.org/1999/xlink">
	<path d="M33.585 88.2263L33.4448 88.1462C33.4448 88.1462 33.4448 88.0862 33.335 88.1462L33.2749 88.0762C33.231 87.9871 33.1978 87.8931 33.1748 87.7964L33.0049 87.1963C32.9448 86.9963 32.8848 86.7463 32.8247 86.5063C32.7646 86.2664 32.8247 86.2163 32.8247 86.0564L32.9048 85.5664C33.0547 84.8862 33.2246 84.2063 33.355 83.5664L33.5049 82.8262L33.5947 82.3262C33.8433 80.9788 33.9971 79.6155 34.0547 78.2463C34.105 77.2463 33.9946 76.2463 33.9746 75.2463C33.8677 71.6387 33.2998 68.0598 32.2847 64.5962C31.8364 63.0315 31.2681 61.5037 30.585 60.0264C29.6406 58.1794 28.7959 56.2834 28.0547 54.3462C27.8447 53.7263 28.3848 53.5063 29.1948 53.6963C30.2617 53.9558 31.1948 54.6003 31.8149 55.5063C32.1147 55.9663 32.4146 56.4363 32.6846 56.9263L33.1147 57.6462C33.2349 57.8962 33.3447 58.1462 33.4546 58.4062C33.9146 59.4062 34.3149 60.4062 34.6948 61.5063C35.4326 63.625 35.9717 65.8076 36.3047 68.0264C36.7817 70.7268 37.1157 73.4504 37.3047 76.1863C37.3462 77.7014 37.293 79.2178 37.145 80.7263C37.0747 81.4763 36.9648 82.2363 36.8447 82.9763L36.7549 83.5364L36.6948 83.7764L36.5649 84.2664L36.395 84.9062C36.3853 84.9592 36.3853 85.0134 36.395 85.0664C36.395 85.0664 36.4849 85.0664 36.5249 85.0664C36.5649 85.0664 36.7246 85.0664 36.8247 85.0664L38.2549 84.8262C41.0059 84.3643 43.7969 84.1833 46.585 84.2864C48.7437 84.3037 50.8989 84.4707 53.0347 84.7864C53.5049 84.8662 53.9746 84.9163 54.4448 85.0364C56.1846 85.4863 56.625 85.9663 56.6348 86.9663C56.6499 87.196 56.6499 87.4265 56.6348 87.6562C56.5146 88.3862 55.6348 88.6562 54.4746 88.5264C50.9355 87.9116 47.3472 87.6238 43.7549 87.6663C42.3965 87.7056 41.041 87.8191 39.6948 88.0063L38.6948 88.1663C38.0747 88.2764 37.355 88.4263 36.6948 88.5962C36.3672 88.696 36.0332 88.7729 35.6948 88.8262L35.2046 88.8862C35.0547 88.8862 34.9346 88.8862 34.7949 88.8862C34.6724 88.8792 34.5547 88.8376 34.4546 88.7664L34.1646 88.6162L33.585 88.2864L33.585 88.2263Z" fill-rule="evenodd" fill="currentColor"/>
	<path d="M33.7349 57.6262C35.6069 62.897 36.6196 68.4343 36.7349 74.0264C36.7949 76.0264 36.9248 78.0264 36.855 79.9263C36.7949 81.6262 36.6948 83.3262 36.6851 84.8562L36.6851 85.4463C36.6753 85.5894 36.6753 85.7332 36.6851 85.8762C36.6792 86.1812 36.8745 86.4536 37.165 86.5464C37.4707 86.5764 37.7788 86.5764 38.085 86.5464L40.585 86.2864C42.2749 86.0762 43.9849 85.8862 45.7046 85.7463C48.7905 85.4299 51.8936 85.3098 54.9946 85.3862C57.0708 85.4419 59.1294 85.7783 61.1147 86.3862C62.1328 86.752 63.103 87.2388 64.0049 87.8362C64.9102 88.4731 65.6816 89.2817 66.2749 90.2163C67.0049 91.3962 66.2749 91.6162 64.9746 91.6562C64.1465 91.6868 63.3213 91.7737 62.5049 91.9163C62.0757 91.9509 61.644 91.9509 61.2148 91.9163C60.7847 91.9058 60.356 91.8555 59.9351 91.7664C59.5649 91.6663 59.1748 91.6162 58.7847 91.5364C58.395 91.4563 58.0049 91.3662 57.6147 91.2764C56.791 91.1272 55.96 91.0203 55.125 90.9563C53.3647 90.8203 51.5981 90.7903 49.835 90.8662C48.0146 90.9363 46.1748 91.0762 44.2949 91.2563L38.145 91.8362C37.1772 91.9871 36.1924 91.9871 35.2246 91.8362C35.0078 91.7869 34.7939 91.7234 34.585 91.6462L34.4248 91.5762L34.3447 91.5762L34.0347 91.4263C33.8223 91.3235 33.6265 91.1885 33.4546 91.0264C33.2749 90.8762 33.1138 90.7051 32.9746 90.5164C32.3716 89.7786 31.9717 88.896 31.8149 87.9563C31.6997 87.4734 31.626 86.9817 31.5947 86.4863C31.5571 86.2412 31.5337 85.9941 31.5249 85.7463L31.5249 85.2063C31.4448 82.6162 31.5249 80.2764 31.5249 77.9263C31.6455 72.8647 31.0327 67.8123 29.7046 62.9263C28.8501 59.9507 27.6523 57.0847 26.1348 54.3862C25.9048 53.9863 25.6851 53.5762 25.4248 53.1863L25.0547 52.5862C24.855 52.2764 24.665 51.9763 24.4546 51.6863C23.4946 50.4463 22.585 49.2363 21.6851 48.0962L20.4351 45.8262L19.8047 44.2964C19.8047 44.1562 19.625 44.0762 19.7349 43.8662C19.8569 43.719 20.0063 43.5967 20.1748 43.5063C20.4927 43.3323 20.8281 43.1914 21.1748 43.0862C21.9175 42.8528 22.687 42.7151 23.4648 42.6763C24.6611 42.6194 25.8594 42.7068 27.0347 42.9363C28.3369 43.1572 29.6255 43.4509 30.895 43.8162L31.895 44.1362L32.145 44.2263L32.3247 44.2864L32.6851 44.4263C33.1748 44.5962 33.6851 44.8064 34.125 45.0164C35.0737 45.4595 35.9897 45.9707 36.8647 46.5464C37.6572 47.0493 38.4033 47.6216 39.0947 48.2563C39.6436 48.7583 40.1367 49.3181 40.5649 49.9263C40.8428 50.3606 41.0391 50.8418 41.145 51.3462C41.23 51.7214 41.23 52.1111 41.145 52.4863C41.0146 52.8403 40.8398 53.1763 40.625 53.4863C40.4717 53.7546 40.3047 54.0151 40.125 54.2664C39.6548 54.8262 37.8447 54.4062 36.375 53.1763C35.334 52.2039 34.1943 51.3425 32.9746 50.6062C32.3711 50.2317 31.7427 49.8977 31.0947 49.6062C30.7749 49.4463 30.4448 49.3064 30.0947 49.1663L29.9648 49.1162L29.8447 49.1162C29.665 49.2263 29.8447 49.3262 29.8447 49.3162C29.8447 49.3162 29.8447 49.2563 29.9048 49.4263L30.3447 50.1262C30.645 50.5762 30.895 51.0762 31.165 51.5464C32.2427 53.4758 33.1782 55.481 33.9648 57.5464L33.7349 57.6262Z" fill-rule="evenodd" fill="currentColor"/>
	<path d="M58.585 51.9963C58.4551 51.4863 58.335 50.9963 58.2349 50.4563L58.0752 49.6863L57.9648 49.0564L57.7148 47.3362C57.5649 46.1963 57.4448 45.0564 57.335 43.9163C57.2251 42.7764 57.1548 41.6462 57.085 40.5264L57.0249 39.6763C57.0249 39.4963 57.0249 39.4963 57.0249 39.4663L57.0249 39.3662L57.0249 38.9663C57.0249 38.5063 56.9248 38.2664 56.9448 37.7563C56.9448 37.4863 56.9448 37.1863 56.9448 36.8562C56.9546 36.6897 56.9546 36.5227 56.9448 36.3562C56.9448 36.2764 56.875 36.1763 56.835 36.2063C56.7949 36.2363 56.7749 36.2063 56.7451 36.2664C56.4712 36.5388 56.2329 36.8445 56.0352 37.1763C55.8252 37.4763 55.5952 37.8462 55.3452 38.2764L54.9551 38.9663L54.1152 40.5862L50.585 47.4463C49.8452 48.9441 49.0171 50.3967 48.105 51.7964C47.6196 52.4973 47.0889 53.1655 46.5151 53.7964C45.9019 54.4622 45.2065 55.0469 44.4448 55.5364C43.4448 56.1763 42.9951 55.0862 42.875 53.7063C42.8569 53.3733 42.8569 53.0393 42.875 52.7063C42.8716 52.3281 42.8984 51.9502 42.9551 51.5762C43.0635 50.8118 43.3477 50.0828 43.7852 49.4463C45.4673 46.835 47.0127 44.1382 48.415 41.3662C49.1948 39.8931 49.9517 38.4329 50.6851 36.9863C51.375 35.5862 52.0249 34.2063 52.6851 32.9163C53.3452 31.6262 54.0049 30.3462 54.6851 29.3164L55.165 28.5063L55.4248 28.1562C55.5015 28.0686 55.5889 27.9915 55.6851 27.9263L56.1748 27.4863L56.665 27.0264C56.8052 26.9263 56.9448 26.8662 57.0752 26.7664C57.3291 26.5947 57.5928 26.438 57.8652 26.2964L58.2349 26.1062C58.4009 25.9983 58.6055 25.969 58.7949 26.0264C59.1064 26.1729 59.3726 26.4009 59.5649 26.6863C59.769 26.9497 59.959 27.2234 60.1353 27.5063C60.665 28.3936 61.0054 29.3811 61.1353 30.4062C61.3853 32.0464 61.4751 33.9863 61.625 35.7964L61.9951 40.3662C62.1748 42.5464 62.415 44.7063 62.7549 46.8362L63.1152 49.0063C63.2051 49.5164 63.3252 50.0063 63.4648 50.5962C63.5552 50.9263 63.6548 51.2664 63.7749 51.5962C63.895 51.9263 63.9751 52.1462 64.085 52.4263C64.0874 52.4604 64.1094 52.4902 64.1411 52.5029C64.1733 52.5159 64.2095 52.5093 64.2349 52.4863L64.355 52.3462C64.4248 52.2363 64.4951 52.1362 64.5552 52.0264L65.355 50.6362C65.625 50.1562 65.9248 49.6362 66.2349 49.1562L66.9751 47.9763L67.875 46.6362C69.6948 43.7517 71.9595 41.1731 74.585 38.9963C75.187 38.5022 75.8257 38.0544 76.4951 37.6562C77.3901 37.0654 78.4248 36.7207 79.4951 36.6562C80.1846 36.696 80.8115 37.0693 81.1748 37.6562C81.397 37.9165 81.5977 38.1941 81.7749 38.4863C82.2549 39.4863 81.4849 40.5364 80.1152 41.4863C78.0601 42.9104 76.1948 44.5906 74.5649 46.4863C73.709 47.4785 72.9077 48.5168 72.165 49.5962C71.7852 50.1462 71.415 50.7163 71.0552 51.2864L70.7451 51.7864L70.1748 52.7864C69.7949 53.4363 69.4351 54.1062 69.0752 54.7864C68.3784 56.2488 67.5449 57.6416 66.585 58.9463C66.2515 59.3335 65.8433 59.6497 65.3853 59.8762C65.0732 60.043 64.7349 60.1548 64.3853 60.2063C64.0527 60.241 63.7173 60.241 63.3853 60.2063C63.1963 60.1846 63.0093 60.1511 62.8252 60.1062C62.6597 60.0625 62.4985 60.0022 62.3452 59.9263C61.4463 59.541 60.7305 58.825 60.3452 57.9263C59.5195 56.0308 58.8506 54.0708 58.3452 52.0664L58.585 51.9963Z" fill-rule="evenodd" fill="currentColor"/>
	<path d="M70.2549 69.2263C70.6948 67.9963 71.1748 66.7864 71.6445 65.5862C72.1147 64.3862 72.6445 63.1863 73.0845 61.9863C73.4248 61.1162 73.6348 60.2063 74.0249 59.3462C75.3247 56.3462 76.7549 53.3462 78.0845 50.3462C78.6846 49.0264 79.1846 47.6562 79.6646 46.3462C80.2061 44.5583 81.0332 42.8696 82.1147 41.3462C82.4746 40.8762 82.9946 41.1562 83.4448 41.8562C84.0098 42.7124 84.2705 43.7339 84.1846 44.7563L83.9248 46.1663C83.8071 46.6001 83.667 47.0273 83.5049 47.4463C83.2046 48.3262 82.8745 49.1963 82.5049 50.0664C81.8345 51.8064 81.1147 53.5264 80.2749 55.2263C79.8071 56.2688 79.4194 57.3452 79.1147 58.4463C78.7949 59.5464 78.4946 60.6663 78.1147 61.7563L76.9546 65.3462L75.8447 68.9463C75.4346 70.4363 74.9849 71.9463 74.5947 73.4062C73.9546 75.6411 73.4834 77.9209 73.1846 80.2263C73.1299 81.1121 73.1299 82.0005 73.1846 82.8862C73.2446 83.7664 73.3247 84.6162 73.3647 85.4763C73.3647 85.8562 73.4346 86.2263 73.4648 86.5862C73.5747 87.9463 73.0845 88.4062 71.8545 88.8362C71.5645 88.9263 71.2847 89.0564 70.9946 89.1262C70.0547 89.3662 69.1846 88.8262 68.6846 87.6562C68.5347 87.2163 68.3848 86.7764 68.2549 86.3262C68.1245 85.8762 68.0645 85.4463 67.9746 84.9963C67.8848 84.5464 67.8247 84.0962 67.7646 83.6362C67.687 83.1838 67.6533 82.7251 67.6646 82.2664C67.6992 80.4646 67.8799 78.6687 68.2046 76.8962C68.4185 75.5862 68.6987 74.2878 69.0449 73.0063C69.3447 71.7163 69.7046 70.4563 70.1245 69.2063L70.2549 69.2263Z" fill-rule="evenodd" fill="currentColor"/>
	<path d="M23.2549 27.6064C23.3931 28.104 23.4468 28.6211 23.415 29.1365C23.4185 29.6538 23.3198 30.167 23.125 30.6465C22.9438 31.1162 22.7197 31.5681 22.4546 31.9963C22.1597 32.4082 21.8247 32.79 21.4546 33.1365C21.2046 33.3965 20.915 33.6265 20.6548 33.8865C20.3584 34.1125 20.0474 34.3196 19.7246 34.5063C17.1162 35.7163 14.0308 35.187 11.9746 33.1763L11.3247 32.4463C11.1211 32.1953 10.9341 31.9314 10.7646 31.6562C10.4692 31.0957 10.2798 30.4856 10.2046 29.8564C10.145 29.4453 10.145 29.0276 10.2046 28.6165C10.2896 28.2073 10.4346 27.813 10.6348 27.4463C10.8413 27.1296 11.0791 26.835 11.3447 26.5664C11.6196 26.3477 11.9224 26.166 12.2446 26.0264C12.6548 25.8564 13.0347 26.5764 13.355 27.3865C13.5249 27.7964 13.6851 28.2063 13.8047 28.5464C13.9248 28.8865 14.1147 29.1265 14.0649 29.2163C14.0146 29.3064 14.125 29.3464 14.0649 29.3865C14.0049 29.4263 14.1348 29.3865 14.1548 29.3865C14.1748 29.3865 14.1548 29.3865 14.2046 29.3865C14.2139 29.4053 14.2139 29.4275 14.2046 29.4463C14.145 29.5364 14.0947 29.7964 14.3848 30.2463C14.5293 30.4761 14.7837 30.6128 15.0547 30.6064C15.2803 30.5745 15.502 30.5173 15.7148 30.4363C16.3936 30.3125 16.9604 29.8477 17.2148 29.2063C17.3179 28.7859 17.2012 28.342 16.9048 28.0264C16.4204 27.4355 15.6606 27.1431 14.9048 27.2563C14.314 27.4243 13.8408 27.8677 13.6348 28.4463C13.606 28.5457 13.5688 28.6426 13.5249 28.7363C13.4595 28.8247 13.3687 28.8909 13.2646 28.9263C13.1255 28.9468 12.9839 28.9468 12.8447 28.9263C12.4512 28.877 12.0669 28.769 11.7046 28.6064C11.4746 28.5164 11.2549 28.4563 11.0449 28.3665C10.7075 28.2327 10.4282 27.9849 10.2549 27.6663C10.0474 27.2954 9.96338 26.8682 10.0146 26.4463L10.165 25.9363C10.2446 25.7563 10.3647 25.5664 10.4648 25.3765C10.6797 24.979 10.9644 24.6233 11.3047 24.3264C11.645 24.0071 12.0132 23.7192 12.4048 23.4663C12.813 23.2332 13.2373 23.0293 13.6748 22.8564C14.5522 22.5403 15.4834 22.4009 16.415 22.4463C17.2783 22.4968 18.1289 22.6824 18.9351 22.9963C19.4932 23.2056 20.021 23.488 20.5049 23.8364C20.7124 24.0239 20.9292 24.2007 21.1548 24.3665C21.3911 24.5171 21.6035 24.7026 21.7847 24.9163C22.5112 25.6914 23.0513 26.6216 23.3647 27.6365L23.2549 27.6064Z" fill-rule="evenodd" fill="currentColor"/>
	<path d="M61.2046 16.8762C61.1328 17.3777 60.9985 17.8682 60.8047 18.3362C60.5747 18.7808 60.2891 19.1943 59.9546 19.5662C59.2959 20.2942 58.5137 20.9001 57.6445 21.3562C57.0039 21.6938 56.2979 21.8884 55.5747 21.9263C52.8848 22.0461 50.7646 19.0264 50.7246 17.1062C50.6797 16.6172 50.6797 16.1252 50.7246 15.6362C50.7583 15.1162 50.9087 14.6104 51.1646 14.1562C51.437 13.522 51.9072 12.9924 52.5044 12.6462C53.04 12.3484 53.6597 12.2393 54.2646 12.3362C54.6245 12.3962 54.6045 13.0063 54.5044 13.6863C54.4048 14.3662 54.3047 15.1562 54.2646 15.3362C54.2339 15.3884 54.2271 15.4514 54.2466 15.509C54.2656 15.5664 54.3086 15.6128 54.3647 15.6362C54.4478 15.6711 54.5151 15.7351 54.5547 15.8162C54.6226 15.9631 54.6826 16.1133 54.7344 16.2664C54.7344 16.3662 54.7344 16.4863 54.7344 16.5962C54.7344 16.7063 54.6743 16.7563 54.6646 16.8662C54.6216 17.0654 54.7207 17.2683 54.9048 17.3562C55.0752 17.4321 55.2583 17.4763 55.4443 17.4863C55.9604 17.5142 56.4546 17.2764 56.7544 16.8562C56.9624 16.5435 56.9888 16.144 56.8247 15.8062C56.5742 15.155 55.9702 14.7068 55.2744 14.6562C54.9946 14.6562 54.7246 14.7764 54.6943 14.9463C54.6943 14.9463 54.6943 14.9463 54.6943 15.0063C54.668 14.9648 54.6445 14.9214 54.6245 14.8762C54.6245 14.8762 54.6245 14.8762 54.7744 14.9863C54.9243 15.0962 54.9443 15.0962 55.0444 15.1262L55.1743 15.1763C55.0176 15.2522 54.8535 15.3125 54.6846 15.3562C54.2847 15.4463 53.8647 15.5264 53.3647 15.6062L52.7344 15.7363C52.3945 15.7837 52.0483 15.7354 51.7344 15.5962C51.5073 15.5083 51.2896 15.3979 51.0845 15.2664C50.8145 15.1162 50.7847 14.9062 50.6743 14.6763C50.5332 14.2964 50.4751 13.8906 50.5044 13.4863C50.5669 12.9817 50.7227 12.4934 50.9644 12.0461C51.561 11.0459 52.5527 10.345 53.6943 10.1162C54.5596 9.93262 55.4565 9.96704 56.3047 10.2163C56.6484 10.3169 56.9834 10.4475 57.3047 10.6062C57.6377 10.7639 57.9502 10.9619 58.2344 11.1963C60.2344 12.5762 61.5347 14.7563 61.2344 16.8562L61.2046 16.8762Z" fill-rule="evenodd" fill="currentColor"/>
	<path d="M89.2949 27.7163C88.5317 28.394 87.5923 28.8416 86.585 29.0061L86.1748 29.0562C86.0752 29.0662 85.9746 29.0662 85.875 29.0562C85.6948 29.0562 85.5347 29.0562 85.3149 29.0562C84.8472 29.01 84.3867 28.906 83.9448 28.7461C83.7651 28.6763 83.5649 28.5962 83.3447 28.4861C83.1211 28.3796 82.9102 28.2488 82.7148 28.0962C81.7046 27.3491 81.2563 26.0588 81.585 24.8462C81.689 24.4133 81.8574 23.9988 82.085 23.6162C82.4409 23.0249 82.853 22.469 83.3149 21.9563C83.6851 21.5361 83.9751 21.0962 84.3149 20.6562C84.6646 19.9612 85.2935 19.4482 86.0449 19.2461C86.375 19.1763 86.6147 19.8662 86.915 20.5461C87.2148 21.2261 87.6348 21.8962 87.5649 22.1162C87.2759 22.9976 86.8213 23.8157 86.2251 24.5261C86.0347 24.7063 86.0049 24.9363 86.0547 24.9861L85.7451 24.9861C85.5747 25 85.4072 25.0337 85.2451 25.0862C85.126 25.1077 85.0132 25.1555 84.915 25.2261C85.0527 25.0476 85.1455 24.8384 85.1851 24.6162C85.2188 24.4714 85.2422 24.3245 85.2549 24.1763L85.335 24.1763L85.4849 24.1763C85.4351 23.8062 85.5547 24.6863 85.5449 24.5962L85.5449 24.6462C85.5449 24.6462 85.5449 24.5962 85.5449 24.5662C85.5112 24.5046 85.4814 24.4412 85.4551 24.3762C85.6846 24.3108 85.8833 24.1653 86.0151 23.9663C86.313 23.6069 86.4473 23.1389 86.3848 22.6763C86.3848 22.5962 86.3047 22.5862 86.2549 22.5662C86.2051 22.5461 86.2051 22.5662 86.1748 22.5662C86.2173 22.5474 86.2573 22.5239 86.2949 22.4961C86.5049 22.3562 86.4448 22.3162 86.375 22.4961L86.375 22.6262C86.3452 22.7104 86.3252 22.7976 86.3149 22.8862C86.3149 23.6562 86.2148 22.5261 85.9648 21.4663L85.7749 20.7163C85.668 20.325 85.6509 19.9148 85.7251 19.5161C85.7622 19.2883 85.8291 19.0664 85.9248 18.8562C86.0034 18.6646 86.1494 18.5081 86.335 18.4163C86.6294 18.2705 86.9478 18.1792 87.2749 18.1462C87.4531 18.1147 87.6338 18.0979 87.8149 18.0962C88.0298 18.1121 88.2437 18.1421 88.4551 18.1863C88.9009 18.272 89.3193 18.4641 89.6748 18.7461C90.0615 19.0017 90.3999 19.3232 90.6748 19.6963C91.4951 20.853 91.8223 22.2881 91.585 23.6863C91.3423 25.2571 90.5903 26.7046 89.4448 27.8062L89.2949 27.7163Z" fill-rule="evenodd" fill="currentColor"/>
	<defs/>
</svg>
