<svg width="24" height="24" viewBox="0 0 110 110" fill="none" xmlns="http://www.w3.org/2000/svg" xmlns:xlink="http://www.w3.org/1999/xlink">
	<path d="M65.1543 62.6938C67.2764 63.2031 69.3428 63.9199 71.3247 64.834C72.2646 65.2539 73.2046 65.7039 73.9946 65.9939C74.4043 66.1538 74.8447 66.2639 75.2744 66.4138C75.7046 66.564 76.1343 66.6338 76.5747 66.6938C77.8262 66.8992 79.103 66.8992 80.3545 66.6938C82.5859 66.3691 84.6465 65.314 86.2144 63.6938C87.0391 62.8801 87.7158 61.9294 88.2144 60.8838C88.6978 59.8647 88.9502 58.7517 88.9546 57.6238C88.9492 55.5789 88.0146 53.647 86.4146 52.3738C85.9019 51.929 85.3457 51.5371 84.7544 51.2039C84.1475 50.8962 83.519 50.6321 82.8745 50.4138C81.5645 49.917 80.2295 49.4897 78.8745 49.1338C78.0044 48.8838 78.1245 48.5239 78.9546 48.1338C80.2935 47.4666 81.811 47.2458 83.2847 47.5039L84.5044 47.844L85.7046 48.344C86.1118 48.5042 86.5034 48.7017 86.8745 48.9338C87.2686 49.1455 87.6465 49.3862 88.0044 49.6538C89.5454 50.7302 90.7407 52.231 91.4443 53.9739C92.1479 55.7275 92.3457 57.6436 92.0146 59.5039C91.6821 61.2783 90.9502 62.9541 89.8745 64.4038C88.6318 66.114 87.0698 67.5674 85.2744 68.6838C83.4253 69.7883 81.3354 70.4265 79.1846 70.5439C76.9092 70.6416 74.6377 70.281 72.5044 69.4839C70.4146 68.6838 68.7144 67.854 66.8345 67.2839C64.5337 66.5735 62.1572 66.1372 59.7544 65.9839C56.0337 65.7532 52.2988 66.0085 48.6445 66.7439C45.8369 67.3557 43.0762 68.1677 40.3843 69.1738C39.7847 69.3738 39.2144 69.6138 38.6143 69.834C36.3745 70.594 35.6143 70.554 34.7446 69.6738C34.5425 69.4854 34.355 69.2815 34.1846 69.064C33.7046 68.334 34.4243 67.3838 36.0547 66.6138C41.1147 64.2749 46.5161 62.759 52.0547 62.1238C53.1143 61.9939 54.1846 61.8838 55.2744 61.854L56.9043 61.7839L58.5444 61.7839C60.7651 61.8208 62.9766 62.082 65.1445 62.564L65.1543 62.6938Z" fill-rule="evenodd" fill="currentColor"/>
	<path d="M27.5146 67.5039C29.9668 67.3835 32.3965 66.9775 34.7544 66.2937C37.3047 65.5239 39.9946 64.6638 42.7544 63.9238C45.5986 63.0923 48.5093 62.51 51.4546 62.1838C54.5361 61.8591 57.6489 62.011 60.6846 62.6338C61.2446 62.7339 61.7944 62.8638 62.3345 63.0139C62.8745 63.1638 63.4546 63.2937 63.9346 63.4438L66.8643 64.3237L72.4243 65.9839C73.918 66.4543 75.4507 66.7891 77.0044 66.9839C78.4062 67.1836 79.832 67.1294 81.2144 66.8237C82.5737 66.532 83.8599 65.9673 84.9946 65.1638C86.2109 64.3364 87.2905 63.3242 88.1943 62.1638C89.0835 61.0728 89.7368 59.8096 90.1143 58.4539C90.4546 57.2334 90.3916 55.9355 89.9346 54.7539C89.4019 53.5459 88.4746 52.5552 87.3047 51.9438C86.666 51.5959 85.9961 51.3079 85.3047 51.0837C84.5264 50.896 83.7388 50.7524 82.9443 50.6538C81.4546 50.4539 79.8643 50.3438 78.2246 50.1038C76.4492 49.906 74.7207 49.4055 73.1143 48.6238C72.6816 48.3926 72.2671 48.1284 71.8745 47.8337C71.4653 47.5203 71.0898 47.165 70.7544 46.7739L70.2847 46.1538C70.1445 45.9238 70.0146 45.6638 69.8945 45.4138L69.7544 45.0337L69.6445 44.6238C69.5654 44.3516 69.5054 44.0742 69.4644 43.7937C69.396 42.7793 69.5215 41.7612 69.8345 40.7937C70.0947 39.9539 70.4043 39.1738 70.6543 38.5039C70.979 37.8086 71.1724 37.0593 71.2246 36.2937C71.2139 35.7512 70.9561 35.2429 70.5244 34.9138C70.2383 34.6724 69.938 34.4485 69.6245 34.2439L69.1646 34.0139L68.6343 33.8237C68.2441 33.7249 67.8457 33.658 67.4443 33.6238C67.0244 33.5537 66.5947 33.4939 66.1543 33.4639C64.3218 33.3665 62.4854 33.5623 60.7144 34.0437C58.8643 34.4768 57.0957 35.2026 55.4746 36.1938C53.5244 37.5537 53.5747 37.3337 54.8145 35.4739C55.749 34.1914 56.8564 33.0437 58.1045 32.0637C59.9893 30.6445 62.1758 29.6797 64.4946 29.2439C65.7109 29.0212 66.9507 28.9507 68.1846 29.0337C69.6152 29.1738 71.001 29.6096 72.2544 30.3137C73.7075 31.126 74.8794 32.3606 75.6143 33.8538C75.79 34.3179 75.9365 34.792 76.0547 35.2739C76.1138 35.7217 76.1504 36.1724 76.1646 36.6238C76.1646 37.0437 76.0845 37.4639 76.0347 37.8738L75.7544 38.9438C75.4468 39.9712 75.0625 40.9741 74.6045 41.9438C74.3882 42.3989 74.2432 42.8845 74.1743 43.3838C74.1743 43.3838 74.1743 43.4539 74.1743 43.4839C74.1865 43.5298 74.1865 43.5779 74.1743 43.6238C74.3037 43.7932 74.4551 43.9443 74.6245 44.0737C75.1191 44.4243 75.6758 44.6787 76.2646 44.8237C78.0396 45.2153 79.8477 45.4397 81.6646 45.4939C82.6646 45.5737 83.7646 45.6338 84.9443 45.8137C85.2344 45.8137 85.5444 45.9038 85.8545 45.9639C86.1646 46.0239 86.4746 46.0737 86.8545 46.1838C87.499 46.3538 88.1279 46.5779 88.7344 46.8538C89.9922 47.3691 91.1602 48.0815 92.1943 48.9639C92.7363 49.446 93.2349 49.9746 93.6846 50.5437C94.1343 51.1311 94.5195 51.7646 94.8345 52.4338C95.4546 53.7566 95.7954 55.1934 95.8345 56.6538C95.8647 58.0078 95.6792 59.3582 95.2847 60.6538C94.835 62.124 94.1816 63.5244 93.3447 64.8137C92.9365 65.4485 92.4922 66.0596 92.0146 66.6438C91.5347 67.2051 91.02 67.7361 90.4746 68.2339C88.3247 70.3752 85.6694 71.9402 82.7544 72.7837C79.8643 73.5022 76.8545 73.5977 73.9243 73.0637C71.2964 72.5974 68.7134 71.9048 66.2046 70.9939L62.2544 69.6238C61.0659 69.2168 59.854 68.8828 58.6245 68.6238C56.1675 68.1709 53.6572 68.0833 51.1743 68.3638C48.563 68.679 45.9839 69.2178 43.4644 69.9739C42.1646 70.3538 40.8643 70.7539 39.5444 71.1738C38.2246 71.5938 36.9546 72.0239 35.4844 72.4238C31.9478 73.4353 28.2676 73.8511 24.5947 73.6538C22.5801 73.5442 20.6108 73.0127 18.8145 72.0938C16.7905 71.0391 15.2793 69.2102 14.6245 67.0239C14.2061 65.5149 14.0874 63.9385 14.2744 62.3838C14.3413 61.6006 14.5024 60.8284 14.7544 60.0837C15.0005 59.4019 15.2842 58.7341 15.6045 58.0837C15.8843 57.4839 16.1743 56.9138 16.4043 56.3838C16.5347 56.1138 16.6143 55.8738 16.7144 55.6238C16.7388 55.5286 16.7686 55.4351 16.8047 55.3438L16.8643 55.0938C17.0635 54.373 16.8433 53.6016 16.2944 53.0938C15.958 52.7837 15.585 52.5151 15.1846 52.2937C14.7144 52.0239 14.1846 51.7639 13.6245 51.5039C12.3027 50.9746 11.042 50.304 9.86426 49.5039C9.16309 48.9924 8.56299 48.3547 8.09473 47.6238C7.87402 47.2529 7.67725 46.8689 7.50439 46.4739C7.35107 46.0667 7.22754 45.6489 7.13428 45.2239C6.80127 43.5127 7.09229 41.7388 7.95459 40.2239C8.5498 39.1592 9.33643 38.2134 10.2744 37.4338C11.1426 36.7102 12.1006 36.1018 13.1245 35.6238C15.0894 34.6318 17.1987 33.9568 19.3745 33.6238C23.5786 33.0583 27.8525 33.3232 31.9546 34.4038C33.7363 34.8271 35.4868 35.3718 37.1943 36.0337C38.5376 36.5408 39.8301 37.1736 41.0547 37.9238C41.8955 38.4155 42.689 38.9846 43.4243 39.6238C43.9424 40.0564 44.3906 40.5654 44.7544 41.1338C45.0029 41.604 45.188 42.105 45.3047 42.6238C45.437 43.0225 45.5405 43.4302 45.6143 43.8438C45.6143 44.3838 44.9746 44.4539 43.7046 44.3037C41.9595 43.958 40.2539 43.4353 38.6143 42.7439C37.0347 42.1738 35.4644 41.5938 33.8843 41.0837C32.3076 40.5969 30.7051 40.1965 29.0845 39.8838C25.979 39.231 22.7812 39.1428 19.6445 39.6238C18.2461 39.8569 16.895 40.3162 15.6445 40.9839C15.1108 41.2529 14.6133 41.5891 14.1646 41.9839C13.8076 42.2869 13.5093 42.6531 13.2847 43.0637C13.1572 43.2869 13.0854 43.5371 13.0747 43.7937C13.0903 43.9609 13.1528 44.1204 13.2544 44.2539C13.2544 44.3237 13.2544 44.3137 13.2544 44.3237C13.2544 44.3337 13.2544 44.3237 13.3047 44.3237L13.4346 44.4238L13.6646 44.5737C14.2661 44.9138 14.8911 45.2112 15.5347 45.4639C16.1445 45.7239 16.8643 46.0239 17.6646 46.4639C18.6118 46.9099 19.4907 47.4893 20.2744 48.1838C21.2842 49.116 22.0908 50.2461 22.6445 51.5039C23.0996 52.7852 23.2305 54.1597 23.0244 55.5039C22.9546 55.8438 22.9243 56.1938 22.8247 56.5039L22.5244 57.5039C22.3447 57.9438 22.1743 58.4038 22.0146 58.7739C21.6743 59.5637 21.3545 60.2039 21.1045 60.7739C20.8818 61.2136 20.6978 61.6721 20.5547 62.1438C20.5117 62.2705 20.4814 62.4011 20.4644 62.5337L20.3843 63.2639C20.3057 63.9851 20.3979 64.7148 20.6543 65.3938C20.8535 65.8508 21.2075 66.2229 21.6543 66.4438C23.4873 67.2046 25.4814 67.4934 27.4546 67.2837L27.5146 67.5039Z" fill-rule="evenodd" fill="currentColor"/>
	<defs/>
</svg>
