<svg width="24" height="24" viewBox="0 0 110 110" fill="none" xmlns="http://www.w3.org/2000/svg" xmlns:xlink="http://www.w3.org/1999/xlink">
	<path d="M72.9526 64.7114C74.4424 61.5215 75.8823 58.2617 77.2427 54.9814C77.7324 53.7817 78.0825 52.5317 78.5723 51.3315C80.3325 47.1016 82.0923 42.8716 83.6523 38.5615C84.3726 36.6616 84.8423 34.6719 85.4326 32.7617C85.7627 31.5215 86.1025 30.2715 86.4326 29.0317C86.6025 28.4116 86.7925 27.8018 86.9927 27.1914C87.2402 26.5884 87.5308 26.0034 87.8623 25.4414C88.2725 24.7314 88.8623 24.9116 89.5527 25.7515C89.9878 26.2842 90.3667 26.8604 90.6826 27.4717C90.981 28.1709 91.0781 28.9399 90.9624 29.6914C90.7524 31.0415 90.5024 32.3716 90.2227 33.6914C90.0825 34.3618 89.9424 35.0117 89.7725 35.6914L89.1426 37.6118C88.2798 40.1709 87.2783 42.6812 86.1426 45.1318C84.7925 48.0718 83.9624 51.3218 82.8027 54.4116C81.5327 57.8018 80.1724 61.1616 78.8027 64.5015C77.9326 66.5615 77.0225 68.6118 76.0923 70.6616C75.5625 71.8418 75.0024 73.0117 74.3823 74.1914C74.0825 74.7715 73.749 75.3618 73.3823 75.9614C73.1924 76.2617 73.0327 76.5518 72.7827 76.8818C72.521 77.2476 72.2192 77.583 71.8823 77.8818C71.186 78.4453 70.4507 78.96 69.6826 79.4219C67.2744 81.2285 64.521 82.522 61.5923 83.2217C61.2637 83.3018 60.9297 83.3589 60.5923 83.3916C60.2617 83.4443 59.9272 83.4644 59.5923 83.4517C58.6558 83.5249 57.7251 83.2471 56.9824 82.6719C56.4756 82.0518 56.2734 81.2368 56.4326 80.4517C56.4453 79.9824 56.4888 79.5151 56.5625 79.0518C56.8027 77.6851 57.8677 76.6123 59.2324 76.3618C60.0825 76.2617 60.8726 76.0015 61.6323 75.9219C62.3926 75.8418 63.1626 75.7715 63.9326 75.6318C64.7349 75.4893 65.5269 75.2925 66.3027 75.0415C66.707 74.9155 67.0859 74.7192 67.4224 74.4614L67.9526 74.1016L68.2026 73.9019L68.3325 73.8018C68.3325 73.8018 68.3325 73.8018 68.3926 73.8018C68.4526 73.8018 68.3423 73.8618 68.4526 73.6914C68.8525 73.0835 69.2163 72.4521 69.5425 71.8018C69.9326 71.0815 70.3125 70.3115 70.6924 69.5317C71.4424 67.9717 72.1826 66.3618 72.8823 64.7314L72.9526 64.7114Z" fill-rule="evenodd" fill="currentColor"/>
	<path d="M19.8726 52.6719C21.3828 49.272 22.9429 45.9019 24.6025 42.5718C25.1929 41.3521 25.7026 40.082 26.3428 38.8818C27.4429 36.752 28.6426 34.6519 29.9229 32.5718C30.2529 32.062 30.6025 31.5718 30.9229 31.0317L31.4429 30.2617L32.0327 29.502C32.4243 28.9639 32.8555 28.4556 33.3228 27.9819L34.0728 27.2222C34.3828 26.9819 34.7227 26.7422 35.0728 26.522C37.2734 25.4238 39.7153 24.8975 42.1729 24.9922C45.1558 24.7993 48.1016 25.7388 50.4229 27.6221C51.2129 28.4019 50.5425 28.7319 49.6128 29.1021C48.4365 29.6694 47.1885 30.0732 45.9028 30.3018L44.9927 30.3721C44.6987 30.4263 44.397 30.4263 44.1025 30.3721C43.5229 30.312 42.9429 30.252 42.3726 30.2422C41.313 30.1831 40.25 30.2402 39.2026 30.4121C38.9858 30.4399 38.7715 30.4868 38.5625 30.5518C38.3628 30.6118 38.1626 30.6421 38.0229 30.7021L37.7827 30.772L37.6128 30.8418C37.5127 30.8418 37.3228 31.0317 37.1426 31.1719C36.9629 31.312 36.7729 31.4521 36.5728 31.6421L35.9629 32.3018C35.5078 32.7593 35.0801 33.2437 34.6826 33.752C34.1636 34.3521 33.6953 34.9941 33.2827 35.6719C32.8525 36.3618 32.4229 37.0518 32.0527 37.792C31.2925 39.2222 30.5625 40.7319 29.8428 42.2222C28.2529 45.4922 26.6729 48.8018 25.2329 52.2222C24.3228 54.2222 23.4526 56.332 22.6826 58.4419C21.4526 61.6318 20.1929 64.8418 19.2529 68.1021C18.5923 70.6318 18.0684 73.1958 17.6826 75.7817C17.5825 76.3418 17.5229 76.9019 17.4028 77.4619C17.3242 77.9028 17.2139 78.3369 17.0728 78.7617C16.937 79.0615 16.751 79.3354 16.5229 79.5718C16.1157 79.9697 15.5806 80.2109 15.0127 80.252C14.729 80.3096 14.4414 80.3496 14.1528 80.3721C13.2529 80.3721 12.6626 79.3721 12.5327 77.6421C12.9824 72.6841 14.0786 67.8062 15.7925 63.1318C16.9927 59.5918 18.3828 56.1318 19.7925 52.6318L19.8726 52.6719Z" fill-rule="evenodd" fill="currentColor"/>
	<path d="M15.7427 61.3921C17.7427 56.0322 19.8926 50.7422 21.8525 45.3921C22.5625 43.4521 23.0522 41.4521 23.7524 39.5122C24.5522 37.3022 25.3325 35.082 26.0522 32.8721C26.4126 31.772 26.7524 30.6621 27.0024 29.5522L27.3726 27.9121L27.3726 27.7021C27.3726 27.6421 27.3726 27.5723 27.4224 27.4219C27.4409 27.1802 27.4746 26.9399 27.5225 26.7021C27.5679 26.4609 27.5977 26.2173 27.6123 25.9722L27.6123 25.2222C27.6963 24.2646 27.9502 23.3301 28.3623 22.4619C28.5151 22.1128 28.6992 21.7783 28.9126 21.4619C29.1943 21.1172 29.5693 20.8604 29.9927 20.7222C30.8262 20.4443 31.707 20.3389 32.5825 20.4121C33.0327 20.4121 33.5327 20.5122 34.0127 20.562C34.4927 20.6123 35.0127 20.8921 35.4927 21.0923C36.7124 21.6323 37.9624 21.9619 38.6025 22.2021L40.9224 22.9521C42.4624 23.4219 43.9927 23.8423 45.5024 24.2021C47.4526 24.6821 49.4126 24.8721 51.3022 25.2021C53.1445 25.5176 55.0156 25.6313 56.8823 25.542C57.9727 25.4419 58.3325 26.272 57.5522 27.6719C57.0103 28.5381 56.2783 29.2695 55.4126 29.812C54.3213 30.5654 53.0669 31.0488 51.7524 31.2222C50.6069 31.3428 49.4536 31.3799 48.3022 31.332C47.1826 31.2319 46.0723 31.1021 45.0024 30.9321C42.8325 30.6021 40.7524 30.1323 38.7427 29.6221L37.2524 29.2222L36.5127 29.0322L36.1523 28.9321L35.8726 28.8521L35.7524 28.772L35.6826 28.7021C35.6362 28.645 35.5825 28.5942 35.5225 28.5522C35.3745 28.4087 35.186 28.3145 34.9824 28.2822C34.8452 28.3687 34.729 28.4849 34.6426 28.6221C34.5757 28.6758 34.5186 28.7397 34.4727 28.812L34.4727 28.8623C34.4727 28.8623 34.4727 28.8623 34.4224 28.9722L34.2524 29.4722L33.9224 30.4722C33.7124 31.1123 33.4927 31.7622 33.2725 32.4121C32.9126 33.7021 32.5425 34.9922 32.1724 36.292C31.4526 38.8721 30.7227 41.4419 29.8623 43.9321C27.9727 49.4219 25.9126 54.812 23.8623 60.1919C22.6226 63.5122 21.3726 66.812 20.2227 70.1323C19.3623 72.6421 18.4927 75.1323 17.7827 77.6621L17.5723 78.4219L17.4224 78.9722C17.335 79.3447 17.2681 79.7222 17.2227 80.1021C17.1924 80.291 17.1924 80.4834 17.2227 80.6719C17.2549 80.8657 17.4165 81.0107 17.6123 81.022C17.9878 81.0972 18.3696 81.1372 18.7524 81.1421L19.6826 81.1421L20.6826 81.1421L23.7925 81.0322C25.9321 80.9229 28.0767 80.9531 30.2124 81.1221C31.2231 81.1841 32.2266 81.3315 33.2124 81.562C34.0674 81.7827 34.8887 82.1191 35.6523 82.562C35.9697 82.7471 36.2593 82.9761 36.5127 83.2422C36.7461 83.4585 36.9512 83.7041 37.1226 83.9722C37.7207 84.7314 37.8071 85.7744 37.3423 86.6221C37.1704 86.96 36.9438 87.2676 36.6724 87.5322C36.1816 87.8008 35.6152 87.8994 35.0625 87.812C34.3945 87.8262 33.7266 87.7964 33.0625 87.7222C31.583 87.4004 30.0762 87.2197 28.5625 87.1821C26.8823 87.1123 25.1123 87.1021 23.2725 87.1021L20.4424 87.1021L19.2427 87.1021L17.8525 87.1021C17.3462 87.0801 16.8389 87.1201 16.3423 87.2222C15.8628 87.3013 15.3721 87.2773 14.9023 87.1523C14.4424 87.0923 14.0327 86.9819 13.5923 86.9023C13.1523 86.8223 12.9126 86.5322 12.5923 86.3823C12.2231 86.2017 11.9087 85.9253 11.6826 85.582C11.5713 85.4692 11.4678 85.3486 11.3726 85.2222L11.2925 85.1123C11.3726 85.042 11.2925 85.1123 11.2925 85.0522L11.2925 84.9922L11.0825 84.7622C10.8477 84.4438 10.6743 84.0845 10.5723 83.7021C10.5024 83.5122 10.4126 83.3423 10.3623 83.1523L10.2827 82.542C10.123 82.1187 10.0283 81.6738 10.0024 81.2222C10.0024 80.7822 10.0024 80.332 10.0024 79.8823C9.98975 79.5454 10.0269 79.208 10.1123 78.8823C10.1724 78.5356 10.2427 78.2021 10.3223 77.8823C10.4624 77.2222 10.6826 76.3521 10.7427 76.1123C10.9424 75.3623 11.1523 74.6221 11.3623 73.9023C11.7925 72.4619 12.2524 71.0522 12.7227 69.6621C13.6626 66.8721 14.6426 64.1421 15.6025 61.4121L15.7427 61.3921Z" fill-rule="evenodd" fill="currentColor"/>
	<path d="M73.8125 63.3818C75.9727 57.7617 78.0527 52.1021 79.9624 46.3818C80.6626 44.3018 81.1025 42.1519 81.8228 40.082C83.0527 36.4316 84.2627 32.7617 85.2324 29.082C85.4824 28.1719 85.7124 27.2617 85.9023 26.3618C86.0024 25.9116 86.0928 25.4717 86.1724 25.0317L86.3027 24.332C86.4199 23.9116 86.3657 23.4624 86.1523 23.082C85.8315 22.7783 85.4136 22.5981 84.9727 22.5718C84.7705 22.541 84.5669 22.521 84.3628 22.5117L83.2124 22.5117C82.3823 22.5117 81.5225 22.5117 80.6523 22.582C78.9023 22.6421 77.1128 22.7217 75.2827 22.6719C72.8389 22.6914 70.4072 22.3335 68.0728 21.6118C66.8677 21.1782 65.7271 20.583 64.6826 19.8418C63.6309 19.0771 62.7119 18.1445 61.9624 17.082C61.0728 15.7017 62.3428 15.2119 64.0425 15.082C64.8926 15.0317 65.8823 15.002 66.8228 15.0117C67.7568 14.9658 68.6929 15.0537 69.6025 15.272C71.3589 15.7451 73.1646 16.0137 74.9824 16.0718C76.9824 16.1519 79.0425 16.0718 81.3228 15.9917L83.0825 15.9917C83.7227 15.9917 84.0825 15.9917 85.4126 16.042C87.4761 16.0005 89.4844 16.7114 91.0625 18.042C94.1724 20.6118 92.6323 26.4619 92.2827 27.9419C91.5928 30.752 90.9526 33.502 90.2827 36.272C89.6128 39.042 89.0225 41.8018 88.2827 44.502C86.4824 50.3721 84.5127 56.2217 82.4824 62.0117C81.2324 65.582 79.9224 69.1421 78.6226 72.6919C77.8428 74.8418 77.0225 76.9819 76.1626 79.1318L75.4126 81.0117C75.1025 81.772 74.7827 82.5117 74.4126 83.2417C74.0981 83.9248 73.7056 84.5693 73.2427 85.1616L72.5327 85.8618C72.3091 86.1313 71.9824 86.2944 71.6323 86.312C70.9326 86.2417 70.2324 86.1318 69.5024 86.042C68.7725 85.9517 67.9624 85.562 67.1826 85.292C66.8027 85.1719 66.4424 85.042 66.0425 84.9316L65.2524 84.7319C64.7524 84.6118 64.2524 84.5117 63.7524 84.4116C62.7603 84.2534 61.7573 84.1665 60.7524 84.1519C58.7026 84.1519 56.7026 84.1519 54.6826 84.3618C53.7925 84.3618 52.9224 84.6318 52.0327 84.6719C50.8472 84.8916 49.626 84.8228 48.4727 84.4717C47.603 84.001 46.9351 83.2295 46.5928 82.3018C46.333 81.8247 46.0991 81.334 45.8926 80.832C45.606 80.0054 45.7856 79.0889 46.3628 78.4316C47.126 77.501 48.1841 76.8589 49.3628 76.6118C51.2334 76.1138 53.144 75.7793 55.0728 75.6118C56.0728 75.542 57.0728 75.4619 58.0728 75.4819L59.5928 75.4819L61.1025 75.6616C63.1025 75.9517 65.1025 76.4419 67.1724 76.9316C67.4224 76.9917 67.6724 77.0718 67.9224 77.1421C68.0757 77.1978 68.2324 77.2412 68.3926 77.272C68.3926 77.272 68.3926 77.3418 68.4624 77.1021L68.8726 76.1021L70.5024 71.9219C71.5728 69.1021 72.6323 66.2617 73.6426 63.4019L73.8125 63.3818Z" fill-rule="evenodd" fill="currentColor"/>
	<defs/>
</svg>
