<svg width="24" height="24" viewBox="0 0 110 110" fill="none" xmlns="http://www.w3.org/2000/svg" xmlns:xlink="http://www.w3.org/1999/xlink">
	<path d="M25.3794 65.7808C21.3442 70.4409 17.6895 75.4165 14.4492 80.6606C12.4492 83.9905 17.6592 87.0105 19.6294 83.6606C22.5908 78.8494 25.9346 74.2847 29.6294 70.0107C32.0791 67.0605 27.8594 62.7905 25.3892 65.7607L25.3794 65.7808Z" fill-rule="evenodd" fill="currentColor"/>
	<path d="M45.8096 45.9702C41.6797 49.3403 37.6895 52.8706 33.8794 56.5903C31.1196 59.3003 35.3594 63.5903 38.1294 60.8403C41.9297 57.1104 45.9194 53.5806 50.0493 50.1807C53.0493 47.7402 48.7695 43.5103 45.8096 45.9404L45.8096 45.9702Z" fill-rule="evenodd" fill="currentColor"/>
	<path d="M64.6191 31.9404C61.6191 33.8301 58.6191 35.8501 55.7788 37.9404C54.2744 38.8818 53.7656 40.834 54.6191 42.3901C55.439 43.7803 57.6191 44.5903 59.0688 43.5503C61.939 41.4502 64.8789 39.4302 67.8989 37.5503C71.439 35.3403 68.1792 29.71 64.6191 31.9404Z" fill-rule="evenodd" fill="currentColor"/>
	<path d="M53.9194 28.1802C59.5552 25.4375 65.6665 23.8047 71.9194 23.3701C74.1611 23.188 76.4106 23.1245 78.6592 23.1802C80.1694 23.1802 82.229 23.8403 83.6592 23.5703L84.1494 23.6704C85.3193 24.0303 84.8892 23.4302 82.8794 21.8701C82.7104 22.6895 82.5903 23.5176 82.519 24.3506C82.0342 26.5503 81.4336 28.7236 80.7192 30.8604C79.3491 35.2402 77.6094 39.5703 76.6592 44.0703C75.8491 47.8306 81.6592 49.4404 82.4395 45.6602C83.749 39.5103 86.4395 33.6602 87.9194 27.5903C88.7393 24.3203 90.2593 19.4204 86.1392 17.9805C82.019 16.5405 76.6792 17.0303 72.5693 17.3203C65.0347 17.7588 57.6616 19.6895 50.8794 23.0005C47.4292 24.7305 50.459 29.9004 53.8794 28.1802L53.9194 28.1802Z" fill-rule="evenodd" fill="currentColor"/>
	<defs/>
</svg>
