<svg width="24" height="24" viewBox="0 0 110 110" fill="none" xmlns="http://www.w3.org/2000/svg" xmlns:xlink="http://www.w3.org/1999/xlink">
	<path d="M49.7329 48.3601C46.9629 51.4802 44.293 54.7402 41.7329 58.1101C40.7329 59.3203 39.9829 60.6501 39.0127 61.8601C35.6328 66.1602 32.333 70.5703 29.2627 75.1301C27.853 77.1301 26.5928 79.2402 25.353 81.3203C24.5527 82.6501 23.833 84.0403 22.9526 85.3203C22.0728 86.6001 21.0728 87.8501 20.043 89.0603C19.3828 89.8103 19.0928 89.4802 19.043 88.4802C18.9189 86.9666 19.0645 85.4429 19.4727 83.9802C19.603 83.6001 19.7129 83.2002 19.8628 82.8303L20.3228 81.7603L21.3228 79.5803C22.0029 78.1301 22.6929 76.6902 23.4229 75.2603C24.8657 72.3838 26.5381 69.6284 28.4229 67.0203C30.6826 63.8701 32.4229 60.2402 34.623 56.9001C35.793 55.0503 37.063 53.2703 38.3828 51.5203C39.7026 49.7703 41.0327 48.0303 42.3828 46.3203C44.0762 44.2136 45.8193 42.1401 47.6128 40.1001C50.3027 37.0002 53.2227 34.1001 56.1328 31.1802C58.3545 28.8403 60.7119 26.6333 63.1929 24.5703C63.7344 24.0852 64.3359 23.6719 64.9829 23.3403C67.4927 22.1902 68.5928 22.4102 69.6729 23.4902C69.9297 23.72 70.1675 23.9709 70.3828 24.2402C71.0127 25.1301 70.4727 26.4202 69.3027 27.7803C68.873 28.3103 68.4526 28.7803 68.043 29.3403C67.6265 29.8445 67.1753 30.3191 66.6929 30.7603C65.7827 31.7002 64.8628 32.6001 63.9526 33.5703C63.043 34.5403 62.1729 35.5703 61.1729 36.4402L59.7227 37.8403L58.2729 39.3003C55.4126 42.1902 52.5527 45.2402 49.8828 48.4802L49.7329 48.3601Z" fill-rule="evenodd" fill="currentColor"/>
	<path d="M76.9229 25.2502C77.0356 23.1458 76.6943 21.0415 75.9229 19.0803C75.647 18.4495 75.1914 17.9141 74.6128 17.5403C74.4531 17.5403 74.3428 17.4004 74.1431 17.3303L73.4131 17.1504C72.8784 17.0461 72.3369 16.9792 71.793 16.9502C70.0454 16.9297 68.2998 17.084 66.583 17.4102C63.334 17.9465 60.1357 18.7559 57.0229 19.8303C53.8398 20.9055 50.7158 22.1472 47.6631 23.5503C44.9531 24.8203 42.2729 26.2002 39.6631 27.6304C37.9932 28.5603 36.3428 29.5303 34.6631 30.5203C32.9829 31.5103 31.373 32.5203 29.853 33.5903C28.9429 34.2803 28.853 34.0303 29.353 33.0603C30.2964 31.5439 31.4819 30.1926 32.8628 29.0603C35.9751 26.5469 39.2378 24.2258 42.6328 22.1104C46.1528 20.1228 49.8164 18.4014 53.5928 16.9602C55.853 16.1003 58.1431 15.1802 60.5132 14.3503C62.9082 13.4644 65.3779 12.7949 67.8931 12.3503C69.3403 12.1106 70.8057 11.9934 72.2729 12.0002C73.9414 11.9963 75.5923 12.3367 77.123 13.0002C77.5327 13.2402 77.9531 13.4602 78.3228 13.7302C78.6929 14.0002 79.0229 14.3303 79.3228 14.6404C79.623 14.9502 79.8828 15.3203 80.1528 15.6404C80.3931 15.9841 80.6133 16.3413 80.813 16.7102C81.5444 18.0842 82.0635 19.561 82.353 21.0903C82.9634 24.5259 83.0845 28.0308 82.7129 31.5002C82.1938 36.5557 81.3184 41.5681 80.0928 46.5002C79.333 50.3418 78.3579 54.1377 77.1729 57.8704C76.8931 58.7002 76.6431 59.5303 76.2729 60.3604C75.8491 61.5024 75.1641 62.5298 74.2729 63.3604C73.6172 63.8606 72.7588 64.0098 71.9731 63.7603C71.5786 63.6829 71.1934 63.5657 70.8228 63.4102C70.2524 63.1018 69.8765 62.5264 69.8228 61.8804C69.7461 61.0442 69.8521 60.2014 70.1328 59.4102C71.043 56.4102 71.833 53.2002 72.6128 49.9402C73.3931 46.6802 74.333 43.3704 75.0132 40.0303C76.1719 35.1921 76.7622 30.2354 76.7729 25.2603L76.9229 25.2502Z" fill-rule="evenodd" fill="currentColor"/>
	<defs/>
</svg>
