<svg width="24" height="24" viewBox="0 0 110 110" fill="none" xmlns="http://www.w3.org/2000/svg" xmlns:xlink="http://www.w3.org/1999/xlink">
	<path d="M51.6719 65.4543C51.252 65.0864 50.873 64.6741 50.542 64.2244C50.2505 63.7878 49.9868 63.3337 49.752 62.8643C49.582 62.3943 49.3921 61.9543 49.2617 61.4644C49.1392 60.9785 49.0552 60.4836 49.0117 59.9844C48.9067 59.2649 48.9067 58.5339 49.0117 57.8142C49.1592 57.2095 49.4092 56.6343 49.752 56.1143C49.894 55.8542 50.0581 55.6067 50.2417 55.3743C50.4116 55.1436 50.5952 54.9231 50.792 54.7144C51.5098 53.917 52.3149 53.2026 53.1919 52.5842C53.9331 52.0583 54.7153 51.5935 55.5317 51.1943C56.563 50.5991 57.7622 50.3635 58.9419 50.5244C59.312 50.5942 59.2319 51.1042 58.9419 51.6443C58.8198 51.9194 58.6689 52.1809 58.4917 52.4243C58.3506 52.6521 58.1455 52.8328 57.9019 52.9443C56.29 53.624 54.8462 54.6479 53.6719 55.9443C53.3604 56.3486 53.1514 56.822 53.062 57.3242C53.0376 57.5637 53.0376 57.8049 53.062 58.0444C53.0522 58.1592 53.0322 58.2732 53.002 58.3843C53.0117 58.4941 53.0117 58.6045 53.002 58.7144C52.958 59.2075 52.9985 59.7048 53.1221 60.1843L53.4019 60.9443C53.5142 61.1711 53.6445 61.3887 53.792 61.5942C54.1597 62.114 54.6807 62.5056 55.2817 62.7144C56.3745 63.1208 57.5576 63.2178 58.7017 62.9944C59.6553 62.7227 60.5771 62.3506 61.4517 61.8843C61.6621 61.7944 61.8418 61.6743 62.062 61.6042C62.8521 61.3643 63.2017 61.6042 63.6719 62.6042C63.7817 62.8442 63.9019 63.0842 63.9917 63.3242C64.3159 64.022 64.1636 64.8481 63.6118 65.3843C61.8833 66.7876 59.6953 67.5002 57.4717 67.3843C56.4888 67.3867 55.5098 67.2554 54.562 66.9944C53.4697 66.6895 52.4497 66.1692 51.562 65.4644L51.6719 65.4543Z" fill-rule="evenodd" fill="currentColor"/>
	<path d="M28.2617 34.1143C28.6099 32.8979 28.6304 31.6113 28.3218 30.3843C28.2598 30.1523 28.1655 29.9302 28.042 29.7244C27.9316 29.5044 27.8218 29.2944 27.7319 29.0745C27.1792 27.4121 26.061 25.9966 24.5718 25.0745C23.8809 24.7129 23.0962 24.5701 22.3218 24.6643C21.2847 24.8027 20.2378 24.8596 19.1919 24.8345C18.812 24.8345 18.4819 24.0745 18.4517 23.1443C18.4219 22.2144 18.7017 20.9343 19.5718 20.5044C19.9448 20.2947 20.3364 20.1206 20.7417 19.9844L21.3721 19.7744C21.5869 19.739 21.8042 19.719 22.022 19.7144C22.4619 19.7144 22.9116 19.7144 23.3521 19.7144C23.792 19.7144 24.2319 19.8442 24.6616 19.9243C26.3442 20.3342 27.8677 21.2317 29.042 22.5044C30.4336 23.811 31.6538 25.2896 32.6719 26.9043C33.6318 28.7261 34.1782 30.7373 34.272 32.7944C34.3564 34.094 34.1904 35.3977 33.7817 36.6343C33.1597 38.6062 31.896 40.3132 30.1919 41.4844C29.5522 41.946 28.8843 42.3669 28.1919 42.7444C28.0117 42.8345 27.8418 42.9343 27.6616 43.0144L27.1318 43.1843C26.7764 43.3088 26.4121 43.4058 26.042 43.4744C25.7119 43.543 25.3779 43.5898 25.042 43.6143C24.5625 43.6304 24.1045 43.4143 23.812 43.0344C23.5518 42.6726 23.3931 42.248 23.3521 41.8044C23.3047 41.5801 23.271 41.3528 23.252 41.1243C23.2417 40.7527 23.335 40.3857 23.522 40.0645C23.7305 39.6995 23.9863 39.3633 24.2817 39.0645C24.5117 38.9143 24.7217 38.6643 24.9116 38.5244L25.4819 38.0845C25.8018 37.7744 26.0918 37.4343 26.312 37.2544C26.6924 36.9717 27.0293 36.6348 27.312 36.2544C27.4849 35.9871 27.6353 35.7063 27.7617 35.4143C27.9102 34.9822 28.0176 34.5369 28.082 34.0845L28.2617 34.1143Z" fill-rule="evenodd" fill="currentColor"/>
	<path d="M36.562 27.1145C37.0415 29.3296 36.959 31.6294 36.3218 33.8044C35.7432 35.8418 34.7568 37.74 33.4219 39.3845C32.9575 39.9631 32.4639 40.5171 31.9419 41.0444C31.6719 41.3044 31.4121 41.5745 31.1318 41.8044C30.8521 42.0344 30.5317 42.2544 30.2319 42.4543C28.0522 43.8899 25.5112 44.6802 22.9019 44.7344C20.3232 44.8259 17.7852 44.0747 15.6719 42.5945C14.75 41.8757 13.9556 41.0068 13.3218 40.0244C13.0063 39.5449 12.7383 39.0359 12.522 38.5044C12.3389 37.9697 12.1982 37.4214 12.1021 36.8645C11.8984 35.4692 12.0005 34.0461 12.4019 32.6943C12.6382 32.0515 12.9468 31.4375 13.3218 30.8645C13.502 30.5845 13.6821 30.3044 13.8721 30.0444L14.5317 29.3145C15.1021 28.7344 15.5317 29.2144 15.752 30.1045C16.0405 31.1475 16.1982 32.2224 16.2217 33.3044C16.1382 34.1472 16.2583 34.9978 16.5718 35.7844C16.6196 35.9629 16.6978 36.1318 16.8018 36.2844C16.8765 36.4409 16.9634 36.5916 17.062 36.7344C17.1421 36.8745 17.1919 37.0344 17.2817 37.1743C17.3833 37.3032 17.4736 37.4404 17.5518 37.5845C17.9878 38.1111 18.5205 38.5491 19.1221 38.8745C19.8584 39.2483 20.6475 39.5081 21.4619 39.6445C22.5801 39.7749 23.7134 39.6021 24.7417 39.1445C25.7783 38.635 26.7241 37.9595 27.542 37.1445C29.4497 35.4553 30.5601 33.0422 30.6021 30.4944C30.5767 28.9294 30.0474 27.4143 29.0918 26.1743C27.6118 24.0044 25.562 22.5745 23.4019 22.9944C22.5303 23.1831 21.709 23.5547 20.9917 24.0845C20.2344 24.6848 19.5352 25.3542 18.9019 26.0845C18.6021 26.3845 18.3921 26.7944 18.062 27.0845C17.6523 27.5647 17.1094 27.9128 16.502 28.0845C15.8643 28.1172 15.228 27.99 14.6519 27.7144C14.3218 27.5845 13.9819 27.4844 13.6519 27.3445C13.147 27.0999 12.7798 26.6406 12.6519 26.0945C12.4302 25.3894 12.4766 24.6274 12.7817 23.9543C13.2427 22.7593 13.9019 21.6504 14.7319 20.6743C15.6328 19.5845 16.687 18.6311 17.8618 17.8445C18.5259 17.4185 19.2251 17.0505 19.9521 16.7444C20.3418 16.5945 20.7217 16.4343 21.1318 16.3145C21.542 16.1943 21.9917 16.1545 22.4219 16.0845C22.8687 16.0171 23.3203 15.9902 23.772 16.0044C24.229 15.9912 24.687 16.0078 25.1421 16.0544C26.0615 16.1619 26.9648 16.3801 27.832 16.7043C30.1279 17.6045 32.1362 19.1116 33.6421 21.0645C33.9717 21.4944 34.252 21.9343 34.5518 22.3645L34.9917 23.0144L35.4121 23.7944C35.9717 24.8357 36.4048 25.9402 36.7021 27.0845L36.562 27.1145Z" fill-rule="evenodd" fill="currentColor"/>
	<path d="M55.7021 69.2642C53.7246 69.1672 51.7959 68.6201 50.062 67.6643C48.2402 66.6746 46.7593 65.1587 45.812 63.3142C45.6313 62.9941 45.4775 62.6597 45.3521 62.3142C45.2222 61.9644 45.082 61.6143 44.9722 61.3142C44.8623 61.0142 44.8022 60.6143 44.7319 60.3142C44.6621 60.0142 44.6519 59.5942 44.6421 59.2341C44.5059 56.697 45.3228 54.2004 46.9321 52.2341C48.3955 50.4492 50.3076 49.0857 52.4722 48.2842C54.3936 47.5935 56.4331 47.291 58.4722 47.3943C59.8345 47.4712 61.1572 47.8835 62.3223 48.5942C62.6196 48.7793 62.8975 48.9937 63.1519 49.2341C63.4351 49.4434 63.6675 49.7134 63.832 50.0242C64.0142 50.3213 64.165 50.6362 64.2822 50.9644C64.4141 51.2864 64.5112 51.6216 64.5723 51.9644C64.7319 52.8042 64.002 53.0142 62.8521 53.1843C62.1758 53.2749 61.5073 53.4153 60.8521 53.6042C60.522 53.6943 60.1621 53.8643 59.9121 53.9343C59.7241 53.9753 59.5298 53.9753 59.3423 53.9343C58.8345 53.8643 58.3198 53.8643 57.812 53.9343C57.248 53.8594 56.6763 53.8594 56.1123 53.9343C54.6719 54.0981 53.2617 54.4617 51.9219 55.0142C51.1055 55.4177 50.4624 56.1033 50.1123 56.9443C49.7549 57.749 49.6772 58.6504 49.8921 59.5042C50.0908 60.4514 50.5928 61.3081 51.3223 61.9443C52.1182 62.6653 53.0913 63.1621 54.1421 63.3843C55.5229 63.7141 56.9692 63.6448 58.312 63.1843C59.291 62.8716 60.1655 62.2976 60.8423 61.5242C61.4097 60.6865 61.7095 59.696 61.7021 58.6843C61.7446 57.0918 61.1001 55.5579 59.9321 54.4744L59.6318 54.3142C59.5469 54.3079 59.4644 54.2803 59.3921 54.2341C59.1123 54.1743 59.022 53.9543 58.9219 53.5742C58.9219 53.3943 58.792 53.2043 58.7319 52.9343C58.6719 52.6643 58.5923 52.3242 58.502 51.9343C58.4121 51.5442 58.3022 51.3142 58.2319 51.0442C58.0962 50.5325 58.2363 49.9871 58.6021 49.6042C58.8306 49.2959 59.1431 49.0598 59.502 48.9243C59.9775 48.8113 60.4634 48.7476 60.9521 48.7341C61.7632 48.8718 62.5386 49.1711 63.2319 49.6143L63.7622 49.9644L64.2021 50.3643C64.501 50.6213 64.7788 50.9023 65.0322 51.2043C65.9526 52.3015 66.6338 53.5786 67.0322 54.9543C67.4082 56.2527 67.5737 57.6033 67.522 58.9543C67.4897 60.4167 67.1777 61.8594 66.6021 63.2043C66.334 63.8101 65.9985 64.3838 65.6021 64.9143C65.2393 65.3745 64.8521 65.8152 64.4419 66.2341C64.0322 66.6243 63.5723 66.9543 63.1318 67.3042C62.6919 67.6543 62.1919 67.8743 61.7119 68.1443C59.8501 69.0676 57.7896 69.5176 55.7119 69.4543L55.7021 69.2642Z" fill-rule="evenodd" fill="currentColor"/>
	<path d="M84.8921 84.5044C83.7515 85.0059 82.5181 85.2615 81.272 85.2544C79.959 85.2537 78.6636 84.9563 77.4819 84.3845C76.5991 83.9998 75.8237 83.406 75.2217 82.6545C74.9614 82.3184 74.7617 81.9392 74.6318 81.5344C74.4868 81.1636 74.3828 80.7781 74.3218 80.3845C74.3218 79.9744 74.1816 79.5344 74.1719 79.1746L74.1719 78.1746C74.2485 76.8633 74.5889 75.5813 75.1719 74.4045L75.6221 73.6045C75.7905 73.3374 75.9741 73.0803 76.1719 72.8345C76.6104 72.3374 77.1357 71.9241 77.7217 71.6145C78.478 71.1965 79.3408 71.0122 80.2017 71.0845C80.5952 71.1196 80.9785 71.228 81.332 71.4045C81.6719 71.5554 81.9775 71.7732 82.2319 72.0444C82.562 72.3745 82.0518 73.0444 81.4419 73.7444C81.1318 74.1045 80.8018 74.4443 80.5518 74.7444C80.3018 75.0444 80.1118 75.3145 80.042 75.4246C79.979 75.4685 79.9385 75.5381 79.9316 75.6145L79.9316 75.6846C79.9644 75.7429 80.0049 75.7969 80.0518 75.8445C80.1221 75.9346 80.1118 75.9045 80.1221 75.9744C79.7915 76.3376 79.543 76.7673 79.3921 77.2344C79.2769 77.6067 79.2524 78.001 79.3218 78.3845C79.4814 78.8757 79.8462 79.2734 80.3218 79.4744C80.7363 79.6001 81.1738 79.6309 81.6021 79.5645C82.1045 79.5105 82.5791 79.3047 82.9619 78.9744C83.1602 78.78 83.269 78.512 83.2617 78.2344C83.25 77.8997 83.0884 77.5876 82.8218 77.3845C82.2891 77.042 81.5996 77.0659 81.0918 77.4443C81.002 77.5144 80.9219 77.6245 80.8721 77.6646L80.812 77.6646C80.7856 77.6316 80.7651 77.5942 80.752 77.5544L80.582 77.1846C80.4316 76.8545 80.2119 76.3645 79.832 75.6145C79.6621 75.2644 79.4619 74.9443 79.2817 74.6145C78.9756 74.1169 78.8291 73.5376 78.8618 72.9543C78.9258 72.3384 79.2637 71.7839 79.7817 71.4443C81.5044 70.502 83.5942 70.5286 85.292 71.5144C87.2002 72.5107 88.5801 74.2886 89.0718 76.3845C89.2471 77.2332 89.2778 78.1055 89.1621 78.9644C89.0479 79.8572 88.7627 80.7197 88.3218 81.5044C87.5659 82.8628 86.4106 83.9558 85.0117 84.6345L84.8921 84.5044Z" fill-rule="evenodd" fill="currentColor"/>
	<defs/>
</svg>
