<svg width="24" height="24" viewBox="0 0 110 110" fill="none" xmlns="http://www.w3.org/2000/svg" xmlns:xlink="http://www.w3.org/1999/xlink">
	<path d="M16.0825 43.2607C16.6128 46.6309 18.4126 50.0908 20.4126 50.7109C21.4795 51.0234 22.5981 51.1187 23.7026 50.9907C26.1299 50.8103 28.5215 50.3022 30.8125 49.4807C33.2803 48.6313 35.7002 47.6499 38.0625 46.5408C40.1929 45.5408 42.2529 44.4009 44.3325 43.2708C45.6729 42.5408 47.0029 41.7708 48.4629 41.1309C49.2168 40.7908 50 40.5198 50.8027 40.3208C51.2402 40.2102 51.6914 40.1631 52.1426 40.1809C52.71 40.1824 53.271 40.2981 53.7925 40.5208C54.5327 40.8508 54.5229 41.2908 54.3428 41.5208C54.1626 41.7507 53.6929 41.9609 53.3428 42.3308C52.9658 42.8005 52.6313 43.3025 52.3428 43.8308C51.9307 44.4189 51.3672 44.8853 50.7129 45.1809C48.2329 46.3809 45.5825 47.9807 42.8628 49.4109C40.0884 50.9253 37.2075 52.2354 34.2427 53.3308C32.4229 53.9707 30.5825 54.7109 28.6426 55.3308C26.6104 56.0679 24.4736 56.4766 22.3125 56.5408C20.9873 56.5535 19.6689 56.344 18.4126 55.9209C17.7432 55.6877 17.1025 55.3792 16.5029 55.0007C15.9165 54.6099 15.3765 54.1536 14.8926 53.6409C13.2603 51.812 12.0693 49.6328 11.4126 47.2708C10.6118 44.5679 10.3003 41.7434 10.4927 38.9309C10.7637 34.6667 12.3936 30.6016 15.1426 27.3308C16.1924 26.0894 17.3613 24.9539 18.6328 23.9409C19.9087 22.9536 21.2905 22.1118 22.7529 21.4309C23.3843 21.1226 24.0317 20.8489 24.6929 20.6108C27.2026 19.8208 28.1226 20.1008 28.8325 21.0908C29.0151 21.3044 29.1758 21.5356 29.3125 21.7808C29.6826 22.6008 28.8325 23.4707 27.3125 24.1909C25.1113 25.1614 23.0493 26.4226 21.1826 27.9409C20.3281 28.6797 19.5479 29.5002 18.8525 30.3909C18.1899 31.2744 17.6294 32.2305 17.1826 33.2407C15.8423 36.3955 15.4937 39.8833 16.1826 43.2407L16.0825 43.2607Z" fill-rule="evenodd" fill="currentColor"/>
	<path d="M74.9331 54.4006C76.2222 54.7117 77.5488 54.8364 78.873 54.7708C79.5171 54.7424 80.1567 54.6521 80.7832 54.5007C81.4395 54.3291 82.0786 54.0981 82.6929 53.8108C83.5581 53.375 84.3618 52.8269 85.083 52.1807C87.7329 49.9607 88.9233 46.0308 88.4531 42.1807C88.2344 40.4717 87.6948 38.8193 86.8633 37.3108C85.8721 35.3171 84.2993 33.6714 82.353 32.5908C81.7329 32.2808 81.8232 32.2007 82.4731 32.2307C83.5864 32.313 84.6587 32.6853 85.583 33.3108C87.7104 34.7903 89.3359 36.8833 90.2432 39.3108C91.2178 41.7571 91.5044 44.4231 91.0732 47.0208C90.793 48.6255 90.2915 50.1838 89.583 51.6506C88.8379 53.1531 87.7969 54.4897 86.5229 55.5808C85.1294 56.7361 83.5317 57.6213 81.813 58.1907C80.0898 58.7405 78.2764 58.9509 76.4731 58.8108C74.3296 58.6467 72.231 58.1086 70.2729 57.2207C67.3979 55.9014 64.7856 54.0718 62.563 51.8208C60.8281 50.1853 59.2202 48.4202 57.7529 46.5408C57.4336 46.1257 57.1396 45.6917 56.873 45.2407C56.5083 44.6284 56.2734 43.9478 56.1831 43.2407C56.1934 42.7783 56.355 42.3323 56.6431 41.9707C56.7441 41.8 56.8613 41.6392 56.9932 41.4907C57.2129 41.2808 57.5132 41.2908 57.9932 41.4407C58.5493 41.6191 59.0493 41.9397 59.4429 42.3706C59.793 42.7307 60.1133 43.1106 60.4932 43.4507C60.853 43.7815 61.1875 44.1392 61.4932 44.5208C62.103 45.2808 62.813 45.9607 63.4932 46.6907C64.1733 47.4207 64.8833 48.0408 65.543 48.7507C66.2031 49.4607 66.8931 50.1807 67.6733 50.6807C69.7773 52.4492 72.2729 53.6902 74.9531 54.3008L74.9331 54.4006Z" fill-rule="evenodd" fill="currentColor"/>
	<path d="M24.4131 19.6707C26.6982 19.0911 29.062 18.885 31.4131 19.0608C33.709 19.2705 35.959 19.8337 38.083 20.7307C40.1558 21.5842 42.1089 22.7036 43.8931 24.0608C45.6387 25.3762 47.2231 26.8936 48.6128 28.5808C49.3428 29.4106 49.9731 30.3208 50.6128 31.2007L52.2427 33.5708C53.3027 35.1707 54.4629 36.6807 55.583 38.2307C57.8652 41.2524 60.3193 44.1404 62.9331 46.8806C64.814 48.8191 66.8584 50.5923 69.043 52.1807C71.0688 53.6895 73.3291 54.855 75.7329 55.6306C76.2251 55.7783 76.7261 55.8953 77.2329 55.9807L77.9829 56.1008L78.7129 56.1008C79.1924 56.1357 79.6733 56.1357 80.1528 56.1008C80.6157 56.0271 81.0732 55.9236 81.5229 55.7908C82.4507 55.5132 83.3188 55.0657 84.083 54.4707C84.9141 53.8679 85.6465 53.1392 86.2529 52.3108C87.5684 50.5833 88.4927 48.5906 88.9629 46.4707C89.0786 45.9607 89.1553 45.4424 89.1929 44.9207C89.1929 44.3706 89.2529 43.8108 89.1929 43.2708C89.1572 42.2034 88.9858 41.1448 88.6831 40.1206C88.0913 38.1096 86.8501 36.3513 85.1528 35.1206C83.3267 33.8484 81.2266 33.0229 79.0229 32.7107C78.4531 32.6206 77.873 32.5808 77.3027 32.5107L75.5527 32.4507L73.793 32.5308C73.2427 32.6206 72.7031 32.6406 72.1528 32.7808C69.8604 33.3462 67.6562 34.2246 65.603 35.3906C63.6953 36.427 61.8608 37.5933 60.1128 38.8806C58.333 40.1506 56.6328 41.5408 54.9629 42.9707C51.6689 45.8386 48.5625 48.9148 45.6631 52.1807C41.9331 56.3765 38.5361 60.8567 35.5029 65.5808C33.9771 67.9131 32.585 70.3303 31.333 72.8208C30.7129 74.0608 30.1431 75.3208 29.6431 76.6108C29.4229 77.2607 29.083 77.8706 28.853 78.5208L28.4731 79.5208L28.1631 80.5208C27.6631 82.1606 27.5029 82.9106 27.3228 82.8508C27.0317 82.0547 26.9126 81.2061 26.9731 80.3608C26.8579 78.1829 27.0806 76.0005 27.6328 73.8906C28.4214 70.9175 29.5806 68.0549 31.083 65.3706C32.5161 62.7498 34.123 60.2275 35.8931 57.8208C37.6465 55.4006 39.4863 53.0674 41.4131 50.8208C45.2744 46.2527 49.5195 42.0239 54.103 38.1807C56.4219 36.2419 58.8638 34.4548 61.4131 32.8308C64.0703 31.1257 66.9419 29.7808 69.9531 28.8308C71.5801 28.3655 73.2607 28.1133 74.9531 28.0808C75.7427 28.0208 76.563 28.0808 77.3628 28.0808C78.1631 28.0808 78.9927 28.2107 79.8027 28.3408C83.1943 28.8086 86.3789 30.2461 88.9731 32.4807C90.5459 33.9128 91.7876 35.6702 92.6128 37.6306C93.3789 39.5569 93.7822 41.6079 93.8027 43.6807L93.8027 45.1807C93.7793 45.7034 93.7261 46.2241 93.6431 46.7407C93.4858 47.7578 93.2485 48.761 92.9331 49.7407C92.3013 51.6846 91.3735 53.5193 90.1831 55.1807C88.9487 56.9316 87.3696 58.4121 85.543 59.5308C83.6309 60.6663 81.4653 61.3054 79.2427 61.3906C77.1318 61.447 75.0293 61.1079 73.043 60.3906C71.1748 59.7219 69.3867 58.8464 67.7129 57.7808C64.2617 55.4917 61.0903 52.8066 58.2627 49.7808C55.48 46.855 52.8813 43.759 50.4829 40.5107L48.6929 38.1008L46.9829 35.6406L46.123 34.4207L45.3228 33.3208C45.0728 32.9507 44.7627 32.6206 44.4731 32.2708C44.1919 31.9209 43.8911 31.5872 43.5728 31.2708C42.333 29.9487 40.936 28.7832 39.4131 27.8008C37.9365 26.8088 36.3271 26.031 34.6328 25.4907C32.5874 24.8157 30.4336 24.5308 28.2827 24.6506C26.1265 24.7903 24.021 25.3652 22.0928 26.3408C18.147 28.3408 15.1523 31.8206 13.7627 36.0208C13.2632 37.6111 12.9902 39.2642 12.9531 40.9307C12.9673 42.6003 13.23 44.2585 13.7329 45.8508C14.2471 47.4539 15.0171 48.9634 16.0127 50.3208C16.8662 51.6777 18.082 52.7688 19.5229 53.4707C22.3628 54.8008 25.9731 54.2708 29.2129 53.0508C32.5405 51.741 35.7319 50.1101 38.7427 48.1807C41.123 46.7007 43.4429 45.1108 45.8228 43.5608C47.0229 42.7808 48.2329 42.0107 49.5527 41.3108L50.063 41.0508C50.2427 40.9707 50.3931 40.8806 50.6631 40.7808C51.1367 40.5679 51.6289 40.3972 52.1328 40.2708C53.1069 39.9734 54.1602 40.0928 55.043 40.6008C55.8901 41.219 56.5757 42.0317 57.043 42.9707C57.1631 43.1702 57.27 43.3774 57.3628 43.5908L57.6128 44.1206L58.043 45.1206C58.5728 46.5107 59.043 47.8706 59.4229 49.2307C60.2529 51.9307 61.0029 54.6008 61.8428 57.2307C62.5728 59.5508 63.3828 61.7607 64.2827 63.9707C65.4072 66.8018 66.7896 69.5232 68.4131 72.1008C69.3228 73.8308 69.9531 74.8308 70.4131 75.8008C70.623 76.2507 71.043 76.7107 71.1729 77.0408C71.3027 77.3706 71.1729 77.4407 70.7529 77.4207C70.0908 77.3567 69.4468 77.1702 68.853 76.8706C67.7788 76.3586 66.7715 75.7173 65.853 74.9607C65.583 74.7207 65.2827 74.4907 65.0127 74.2207L64.2329 73.3208C63.6885 72.6375 63.1841 71.9229 62.7231 71.1807C60.0879 66.7441 58.0215 61.9934 56.5728 57.0408L54.3228 49.8706C53.9429 48.7107 53.5527 47.5608 53.1328 46.5408C53.0229 46.2808 52.9229 46.0208 52.813 45.8108L52.6528 45.4807C52.6313 45.4482 52.5996 45.4236 52.563 45.4106C52.563 45.4106 52.4829 45.4106 52.4531 45.4106C52.4229 45.4106 52.603 45.4106 51.9131 45.6807C50.9131 46.1606 49.8027 46.8108 48.6929 47.4807C46.4731 48.8308 44.1831 50.3108 41.8228 51.7307C39.4165 53.2024 36.9292 54.5378 34.373 55.7307C31.6445 57.0315 28.751 57.9534 25.7729 58.4707C23.312 58.9163 20.7778 58.7234 18.4131 57.9106C17.1636 57.4546 15.998 56.7957 14.9629 55.9607C13.9961 55.1785 13.1387 54.2705 12.4131 53.2607C9.48096 49.5383 7.92334 44.9185 8.00293 40.1807C8.02881 37.8232 8.46533 35.4883 9.29297 33.2808C10.0825 31.0679 11.2427 29.0051 12.7231 27.1807C15.6885 23.4802 19.749 20.813 24.3228 19.5608L24.4131 19.6707Z" fill-rule="evenodd" fill="currentColor"/>
	<defs/>
</svg>
