<svg width="24" height="24" viewBox="0 0 110 110" fill="none" xmlns="http://www.w3.org/2000/svg" xmlns:xlink="http://www.w3.org/1999/xlink">
	<path d="M65.9307 52.3818C66.7808 50.3218 67.6606 48.272 68.5508 46.2217L69.8906 43.2217L70.3208 42.2217C70.3809 42.1021 70.3208 42.002 70.251 41.8418C69.9551 41.2646 69.5742 40.7354 69.1206 40.272C68.6509 39.7417 68.1206 39.272 67.5708 38.6919C65.5405 36.7925 63.4077 35.0063 61.1807 33.3418C58.9307 31.6221 56.6406 29.9321 54.3506 28.2319L48.2109 23.7417C45.541 21.8921 43.0264 19.8286 40.6909 17.5718C39.981 16.8521 40.4307 16.5718 41.4409 16.6318C42.9053 16.8389 44.3022 17.3833 45.521 18.2217C48.1909 20.1021 50.9106 21.8721 53.6006 23.7417C56.291 25.6118 58.9409 27.5518 61.6006 29.5918C63.1709 30.8218 64.8408 31.9917 66.5107 33.2119C68.2559 34.4282 69.895 35.7896 71.4106 37.2817C71.8477 37.7451 72.2583 38.2329 72.6406 38.7417C72.8408 38.9917 73.021 39.272 73.2109 39.542L73.4609 39.9917C73.5771 40.1748 73.6743 40.3691 73.751 40.5718L74.0107 41.2017L74.2007 41.8521C74.2007 41.9619 74.3008 42.0718 74.2607 42.1821L74.1606 42.502L73.981 43.1421C73.9106 43.3418 73.8306 43.582 73.771 43.7417L73.6108 44.1421L73.291 44.9321C72.4507 47.002 71.6309 49.0518 70.8408 51.1221C69.8408 53.6719 68.9009 56.2417 68.001 58.8218C66.6108 62.7217 65.2607 66.6621 64.1206 70.6221C63.2407 73.7017 62.6606 76.812 61.9507 79.9019C61.8008 80.582 61.7007 81.272 61.521 81.9019C60.8608 84.4219 60.291 85.1118 58.7808 85.2319C58.4497 85.2827 58.1152 85.3062 57.7808 85.3018C56.6606 85.2217 56.1108 83.9517 56.3809 82.0317C56.811 79.1406 57.4185 76.2783 58.2007 73.4619C59.021 70.6118 60.021 67.7817 61.0508 64.9419C62.6206 60.752 64.2109 56.542 65.8608 52.3418L65.9307 52.3818Z" fill-rule="evenodd" fill="currentColor"/>
	<path d="M65.7207 29.1021C67.5405 30.562 69.3506 32.0522 71.1509 33.5723L73.8408 35.8921L75.1709 37.0918L75.5107 37.3921L76.0308 37.8818L77.1108 38.8818L77.981 40.1318C78.1963 40.5986 78.3057 41.1079 78.3008 41.6221C78.2676 42.6782 78.103 43.7266 77.8105 44.7422C77.4907 46.0122 77.1206 47.1919 76.751 48.3721C76.001 50.7119 75.2109 53.0122 74.3906 55.292C73.2007 58.5522 72.1206 61.8418 70.8506 65.062C69.3643 68.7822 67.8374 72.4785 66.2705 76.1519L63.8906 81.6621L60.8906 88.4922C60.7427 88.8125 60.5469 89.1094 60.3105 89.3721L60.001 89.7622L59.8506 89.9619L59.7007 90.082L59.1006 90.5723C58.9863 90.6758 58.835 90.73 58.6807 90.7222C58.5312 90.7378 58.3804 90.7378 58.231 90.7222C57.6187 90.5718 57.0391 90.3105 56.5205 89.9521C55.9028 89.5093 55.3301 89.0068 54.8105 88.4521C54.2505 87.8721 53.6909 87.252 53.1807 86.6621L52.5205 85.9321L52.0107 85.332C51.3306 84.522 50.6606 83.7319 50.0107 82.9121C46.6206 78.7119 43.1606 74.5918 39.6108 70.6519C37.2905 68.1519 35.0605 65.582 32.731 63.1318C31.5708 61.9019 30.3706 60.7119 29.1509 59.5723C28.002 58.4087 26.688 57.4214 25.2505 56.6421C24.3706 56.2222 23.981 56.1919 24.0005 56.0122C24.0205 55.832 24.5205 55.6318 25.5205 55.7422C26.8643 55.9067 28.1733 56.2812 29.4009 56.8521C31.1338 57.5845 32.7642 58.5391 34.2505 59.6919C35.584 60.752 36.9175 61.8389 38.2505 62.9521L40.1807 64.6421C40.8208 65.2021 41.3906 65.832 41.981 66.4321C44.3408 68.8618 46.6206 71.3521 48.8506 73.8618C51.0806 76.3721 53.3008 78.8618 55.4209 81.4219L56.2109 82.4219L56.6108 82.8818C56.6401 82.9233 56.667 82.9668 56.6909 83.0122C56.751 83.1221 56.8105 83.2319 56.9009 83.3721C56.9907 83.5122 57.0908 83.6919 57.251 83.7622C57.4106 83.832 57.4106 83.582 57.5205 83.4619L57.7607 83.1221C57.9487 82.7983 58.1187 82.4644 58.2705 82.1221L58.9106 80.6719L60.1606 77.7319C60.981 75.7319 61.7705 73.7319 62.5308 71.7319C64.0708 67.7319 65.5308 63.6221 66.9907 59.5918C68.1709 56.292 69.3105 53.0088 70.4106 49.7422C70.9507 48.1221 71.481 46.4922 71.9507 44.8921L72.2808 43.7422L72.4707 43.0322C72.5127 42.8579 72.5396 42.6807 72.5508 42.502C72.5625 42.4131 72.5186 42.3262 72.4409 42.2822L72.251 42.0918C71.9907 41.8022 70.7905 40.7422 69.9009 39.9521C69.0107 39.1621 67.981 38.3022 66.9907 37.4922C62.5205 33.792 57.9106 30.2222 53.2705 26.7422L47.5908 22.4219L44.7607 20.252L42.8506 18.7422L42.1709 18.1919L41.8306 17.9019C41.731 17.8418 41.6006 17.6221 41.481 17.772C41.1958 18.2773 40.9805 18.8188 40.8408 19.3818L40.6006 20.2222L40.3208 21.2222L39.5205 24.1421C37.8608 30.7422 36.5205 37.3818 34.3608 43.9922C33.8706 45.4419 33.3608 46.8921 32.7505 48.3418C31.9653 50.4062 30.7046 52.2559 29.0708 53.7422C28.1133 54.5825 26.7905 54.8696 25.5708 54.502C25.1606 54.3945 24.7832 54.1885 24.4707 53.9019C24.1509 53.4619 24.4707 52.9722 24.7505 52.2222C25.1685 51.0347 25.6763 49.8813 26.2705 48.772C27.4482 46.1812 28.4341 43.5073 29.2207 40.772C30.0806 37.9219 30.8706 34.9819 31.6509 31.9922C32.4307 29.002 33.1909 25.9321 33.9707 22.8818L34.5708 20.5522L34.8706 19.3818L35.5205 17.2319C35.8828 15.769 36.4131 14.353 37.1006 13.0122C37.3896 12.5244 37.7661 12.0938 38.2109 11.7422C38.6128 11.418 39.0752 11.1768 39.5708 11.0322C40.1504 10.9976 40.7314 10.9976 41.3105 11.0322C41.8008 10.8521 42.6509 11.4722 43.4009 11.8618L45.9209 13.8618L47.9209 15.4321L50.5205 17.292L55.6108 21.1519C59.0176 23.7319 62.4238 26.3418 65.8306 28.9819L65.7207 29.1021Z" fill-rule="evenodd" fill="currentColor"/>
	<defs/>
</svg>
