<svg width="24" height="24" viewBox="0 0 110 110" fill="none" xmlns="http://www.w3.org/2000/svg" xmlns:xlink="http://www.w3.org/1999/xlink">
	<path d="M49.6177 81.313C50.1978 82.0732 49.7378 82.9629 48.6875 83.9229C48.166 84.2759 47.5303 84.4185 46.9077 84.3232C46.4521 83.9771 46.0239 83.5957 45.6274 83.1831C45.4175 82.9229 43.4277 78.623 42.6274 77.2432C41.8984 75.8823 41.2568 74.4761 40.7075 73.0332C39.5278 70.1328 38.2378 67.2832 36.8774 64.4731C36.5894 63.8433 36.3516 63.1909 36.1675 62.5229C35.5249 60.2202 34.5693 58.0161 33.3276 55.9731C33.1714 55.5952 32.9155 55.2671 32.5879 55.0229C31.7617 54.0034 31.0381 52.9048 30.4277 51.7432C29.7231 50.6011 29.0854 49.4189 28.5176 48.2031C27.8379 46.2031 26.9678 44.313 26.1875 42.3433C26.0776 42.063 25.8379 41.8433 25.9175 41.4629C26.0171 40.769 25.813 40.0659 25.3574 39.5332C24.9067 38.7476 24.5024 37.936 24.1475 37.103C24.0273 36.6025 23.98 36.0869 24.0078 35.5732C24.0078 35.0933 24.8677 34.7129 25.0078 34.7632C25.4878 34.9229 25.6475 34.3931 25.9478 34.1328C26.0464 34.0371 26.1533 33.9497 26.2676 33.873C27.147 34.3462 27.9746 34.9092 28.7378 35.5532C29.6548 36.2168 30.5205 36.9487 31.3276 37.7432L32.1377 38.7432C32.5977 39.3633 33.2476 40.1631 33.8574 41.0229L36.5679 44.9229C36.8169 45.3267 36.9961 45.7695 37.0977 46.2329C37.2075 46.4229 40.6074 51.7432 40.6875 51.9932C41.3882 53.1382 41.8472 54.4141 42.0376 55.7432C42.0688 56.0059 42.165 56.2568 42.3179 56.4731C43.2808 58.4995 44.0894 60.5952 44.7378 62.7432C45.1074 63.8232 45.5776 64.8633 45.9878 65.9229C46.0405 66.1265 46.0771 66.334 46.0977 66.543C46.1338 66.8037 46.1909 67.061 46.2676 67.313C47.2676 69.813 47.8877 72.4531 48.9175 74.9429C49.1675 75.5229 49.4478 78.5332 49.7178 79.1929C49.8677 79.5229 49.3975 81.0132 49.6177 81.313Z" fill-rule="evenodd" fill="currentColor"/>
	<path d="M71.2178 71.6431C71.668 72.5029 71.1079 73.3232 69.958 74.1631C69.5879 74.4229 68.3979 74.5532 68.1978 74.313C67.8052 73.8594 67.4507 73.3745 67.1377 72.8628C66.8208 71.877 66.5537 70.876 66.3379 69.8628C66.0181 68.3433 65.6177 66.6328 65.458 65.7632C65.1157 64.0806 64.9316 62.3696 64.9077 60.6528C64.7612 57.1597 64.7612 53.6631 64.9077 50.1631C64.9565 49.3848 65.0703 48.6123 65.248 47.853C65.5381 46.543 65.8179 45.2432 65.998 43.9229C66.1777 42.603 66.3877 41.293 66.5181 39.9229C66.6128 39.4814 66.6128 39.0244 66.5181 38.583C66.5361 37.123 66.7241 35.6699 67.0776 34.2529C67.3442 32.7637 67.7217 31.2959 68.208 29.8628C69.208 27.7231 70.0679 25.5732 71.0879 23.4829C71.228 23.1831 71.2578 22.8232 71.5977 22.623C72.2041 22.1826 72.6274 21.5352 72.7881 20.8032C73.1558 19.8887 73.6045 19.0083 74.1279 18.1729C74.4609 17.7559 74.8555 17.3921 75.2979 17.0933C75.6777 16.7832 76.438 17.333 76.4678 17.5029C76.5776 18.0132 77.0977 17.8433 77.4678 17.9429C77.5972 17.9663 77.7222 18.0103 77.8379 18.0732C77.9028 19.0747 77.8623 20.0801 77.7178 21.0732C77.6646 22.1787 77.5474 23.2808 77.3677 24.373C77.3677 24.373 77.1978 24.9028 77.0078 25.6528C76.8179 26.4028 76.5576 27.3931 76.2979 28.4028C76.0381 29.4131 75.8379 30.4731 75.6479 31.313C75.458 32.1528 75.3677 32.8032 75.3379 33.0229C75.2349 33.4829 75.0625 33.9243 74.8276 34.333C74.7681 34.4331 74.5278 36.043 74.2778 37.6431C74.0278 39.2432 73.8877 40.853 73.8477 40.9731C73.7578 42.2676 73.4644 43.54 72.978 44.7432C72.8755 44.9834 72.8208 45.2417 72.8179 45.5029C72.6177 47.7129 72.2178 49.9131 71.958 52.1328C71.8477 53.2729 71.8179 54.4131 71.8076 55.5532C71.7832 55.7593 71.7432 55.9629 71.688 56.1631C71.6235 56.4185 71.5835 56.6797 71.5679 56.9429C71.4429 59.6704 71.4995 62.4033 71.7378 65.123C71.7378 65.7432 71.498 68.7729 71.6177 69.4932C71.7378 69.8931 71.0479 71.3032 71.2178 71.6431Z" fill-rule="evenodd" fill="currentColor"/>
	<defs/>
</svg>
