<svg width="24" height="24" viewBox="0 0 110 110" fill="none" xmlns="http://www.w3.org/2000/svg" xmlns:xlink="http://www.w3.org/1999/xlink">
	<path d="M71.166 54.644C71.2344 54.6074 71.2769 54.5366 71.2769 54.4595C71.2769 54.3818 71.2344 54.311 71.166 54.2744C71.104 54.1968 71.0332 54.1265 70.9561 54.0645L70.8862 54.0645L70.8462 53.9341L70.4062 53.6841L69.4858 53.2041C68.8662 52.894 68.2358 52.5942 67.5762 52.2944L65.4561 51.3843L61.4561 49.3843C59.5361 48.3843 57.5562 47.5142 55.6562 46.4741C52.3062 44.644 48.9961 42.7344 45.7661 40.604C44.9658 40.0645 44.166 39.5142 43.376 38.9341C42.9761 38.644 42.5859 38.3442 42.1958 38.0444L41.6162 37.5742L40.8462 36.8442C39.8086 36.0005 38.9893 34.9204 38.4561 33.6943C38.2383 33.166 38.1758 32.5869 38.2759 32.0244C38.4092 31.4321 38.7681 30.9155 39.2759 30.5845C40.2085 30.0557 41.2778 29.8188 42.3462 29.9043C42.9458 29.9043 43.5962 29.9941 44.2061 30.0645C44.4858 30.0645 44.856 30.144 45.0762 30.1943L45.7061 30.3145C47.396 30.644 49.0361 31.0142 50.7061 31.3843C52.7959 31.854 54.876 32.2944 56.9458 32.7241C58.9678 33.23 61.0229 33.5908 63.0962 33.8042C64.3159 33.8042 64.3062 34.1943 63.1763 34.8042C61.2827 35.605 59.2271 35.9478 57.1763 35.8042C54.936 35.604 52.7461 35.2744 50.5859 34.9541L47.3662 34.4644L45.7759 34.2441L44.356 34.0645C44.2061 34.0645 44.2158 33.9941 44.0762 33.9541C43.936 33.9141 43.7661 33.9541 43.7759 34.0845C43.7817 34.2227 43.8306 34.3555 43.916 34.4644L43.916 34.5244L44.0562 34.6543L44.646 35.144C45.0459 35.4741 45.4561 35.7944 45.876 36.144C49.936 39.2241 54.876 41.5942 59.6362 44.0342C62.2261 45.3643 64.936 46.7144 67.5059 47.9341C68.8262 48.5244 70.2461 49.1343 71.6162 49.8345L74.0962 51.1543C75.0645 51.688 75.9229 52.4009 76.626 53.2544C76.9844 53.7002 77.2495 54.2139 77.4062 54.7642C77.5806 55.3276 77.5806 55.9307 77.4062 56.4941C77.0151 57.6416 76.1475 58.564 75.0259 59.0244C73.832 59.4814 72.5454 59.6426 71.2759 59.4941L70.2759 59.3843L69.5562 59.2944L68.396 59.144C67.6572 59.0503 66.9077 59.1831 66.2461 59.5244C65.8833 59.6777 65.667 60.0537 65.7158 60.4443C65.7925 60.8174 65.9688 61.1631 66.2261 61.4443C66.4702 61.7417 66.7417 62.0161 67.0361 62.2642C67.3862 62.5742 67.9761 63.0342 68.4858 63.4141C69.5562 64.1943 70.686 64.9341 71.8359 65.6343C75.4263 67.7944 79.2461 69.4644 83.0459 71.2642C83.8862 71.6641 84.7358 72.0142 85.5659 72.4443C86.396 72.874 86.9761 73.1943 87.4961 73.5244C87.9238 73.8105 88.3164 74.146 88.666 74.5244C89.168 75.0396 89.457 75.7251 89.4761 76.4443C89.5059 76.7471 89.5059 77.0518 89.4761 77.354C89.2861 78.2144 87.7661 78.1343 85.3359 77.354C81.876 75.9443 78.3359 74.354 74.7559 72.5845C72.9858 71.6841 71.2061 70.7241 69.436 69.6641C68.5562 69.144 67.6763 68.5845 66.7959 67.9941C66.3462 67.7041 65.9062 67.394 65.4658 67.0742L64.8462 66.624L64.1162 66.0444L63.7959 65.7642L63.356 65.3843C63.0659 65.144 62.8159 64.8843 62.5562 64.624C62.0615 64.126 61.6128 63.5835 61.2158 63.0044C60.5034 61.9932 60.1318 60.7808 60.1562 59.5444C60.2334 58.3481 60.7495 57.2227 61.606 56.3843C62.5635 55.5117 63.7261 54.896 64.9858 54.5942C65.3159 54.4941 65.666 54.4341 65.9858 54.354C66.3062 54.2744 66.686 54.2744 67.0361 54.2241C67.3862 54.1743 67.7661 54.2241 68.126 54.2241C68.4858 54.2241 68.7358 54.2744 69.0459 54.2944C69.356 54.3145 69.5459 54.354 69.7358 54.3843L70.3062 54.4741L70.7358 54.5444C70.8086 54.5801 70.8936 54.5801 70.9658 54.5444L71.166 54.644Z" fill-rule="evenodd" fill="currentColor"/>
	<path d="M47.5859 53.1045C47.6958 53.1045 47.856 53.1045 47.876 52.9443C47.876 52.8149 47.8218 52.6914 47.7261 52.6045L47.6562 52.5244L47.146 52.124C46.7461 51.8145 46.3359 51.5142 45.896 51.2144C45.0361 50.6143 44.126 50.0244 43.1958 49.4541C39.4761 47.1743 35.5361 45.0444 31.6162 42.8442C28.7461 41.2441 25.8159 39.7241 22.9961 37.9341C20.4189 36.3643 17.9922 34.5596 15.7461 32.5444C14.4331 31.4277 13.3472 30.0698 12.5459 28.5444C12.043 27.5186 11.8818 26.3584 12.0859 25.2344C12.3096 24.1055 12.8794 23.0742 13.7158 22.2842C15.0361 21.0884 16.6348 20.2427 18.3662 19.8242C19.8828 19.417 21.438 19.1689 23.0059 19.0845C25.9771 18.9214 28.9565 18.9946 31.916 19.3042C34.5059 19.5845 37.0762 19.9341 39.626 20.3042C42.1758 20.6743 44.7158 21.1143 47.2158 21.6143C50.4258 22.2344 53.6362 22.874 56.8159 23.6143C58.4062 23.9541 59.9961 24.2842 61.5762 24.6143C63.1562 24.9443 64.7358 25.3643 66.2861 25.6143C67.2861 25.7441 67.6362 25.7842 67.646 25.9541C67.6562 26.124 67.186 26.3843 66.2861 26.5942C65.0703 26.8545 63.8369 27.0215 62.5962 27.0942C61.8262 27.0942 60.9961 27.1943 60.126 27.1841C59.2559 27.1743 58.3462 27.0942 57.4062 26.9941L47.4961 25.8042L42.5762 25.2344C40.9458 24.9941 39.3262 24.7842 37.6958 24.5845C34.4561 24.1743 31.2261 23.9243 28.0361 23.6743C25.0254 23.3906 21.9893 23.5762 19.0361 24.2241C18.666 24.3335 18.3052 24.4702 17.9561 24.6343L17.4658 24.874L17.0762 25.1543C16.8496 25.2949 16.6523 25.4785 16.4961 25.6943C16.4058 25.8105 16.3472 25.9482 16.3262 26.0942C16.3096 26.6406 16.4868 27.1758 16.8262 27.6045C17.3018 28.3462 17.877 29.019 18.5361 29.6045C21.6143 32.1162 24.9219 34.3325 28.416 36.2241C32.2759 38.4644 36.2461 40.5845 40.2158 42.7842C42.2158 43.8843 44.2158 45.0142 46.1362 46.2241C47.1362 46.8345 48.1362 47.4644 49.0562 48.1543L49.7861 48.6841L50.1362 48.9541C50.2559 49.0542 50.3662 49.124 50.5459 49.2842C51.2148 49.8252 51.8306 50.4277 52.3862 51.0845C52.9932 51.811 53.3818 52.6953 53.5059 53.6343C53.5361 53.8667 53.5361 54.1021 53.5059 54.3345C53.4341 55.0337 53.123 55.687 52.626 56.1841C51.9092 56.8271 51.0186 57.2446 50.0659 57.3843L49.3262 57.5142L48.5459 57.5142C48.2861 57.5293 48.0259 57.5293 47.7661 57.5142L47.0659 57.5142C44.126 57.3345 41.376 56.9043 38.6562 56.6143C37.8462 56.5142 37.0459 56.4443 36.2559 56.3843L35.146 56.3843C34.936 56.3843 34.7158 56.3843 34.4961 56.3843C34.0459 56.3823 33.5977 56.4463 33.166 56.5742C32.6958 56.6909 32.3511 57.0923 32.3062 57.5742C32.2812 57.9395 32.4038 58.2998 32.646 58.5742C32.8564 58.8599 33.0981 59.1216 33.3662 59.3545L33.7759 59.7041L33.9858 59.874L34.3462 60.1343C34.8262 60.4941 35.3462 60.8345 35.8462 61.1343C37.9458 62.4443 40.1562 63.644 42.3862 64.7842C45.2661 66.2441 48.186 67.5645 51.1162 68.874C54.0459 70.1841 57.0059 71.4644 59.9062 72.9341C61.186 73.5742 62.4658 74.1641 63.7358 74.874C65.4624 75.751 67.0444 76.8877 68.4258 78.2441C69.1772 78.96 69.6094 79.9468 69.626 80.9844C69.6763 81.4028 69.6763 81.8257 69.626 82.2441C69.2861 83.4644 67.126 82.9043 63.7358 81.3145C58.7358 78.8442 53.4062 76.5044 48.1162 73.7544C45.4658 72.4043 42.7759 71.0142 40.1162 69.5342C37.333 68.0278 34.6294 66.3789 32.0161 64.5942L31.2861 64.0845L30.8462 63.644L30.2358 63.144C29.8462 62.7944 29.3862 62.4844 29.0459 62.144L28.0459 61.0342L27.2559 59.8545C27.0361 59.4541 26.916 59.0444 26.7358 58.644C26.5967 58.2358 26.5029 57.8135 26.4561 57.3843L26.4561 56.0942L26.5259 55.8345C26.5723 55.7578 26.6025 55.6729 26.6162 55.5845L26.7861 55.0845C26.9146 54.7573 27.0718 54.4429 27.2559 54.144C27.4321 53.8501 27.6475 53.5811 27.896 53.3442C28.124 53.0928 28.3828 52.8711 28.666 52.6841C29.9805 51.8608 31.4951 51.4111 33.0459 51.3843C33.4761 51.3843 33.9062 51.3843 34.3262 51.3843L35.5361 51.4341L36.9561 51.5742C37.8862 51.6841 38.7661 51.8242 39.646 51.9541L44.7261 52.7944C45.5459 52.8843 46.3462 52.9644 47.106 53.0044L47.3862 53.0044L47.4858 53.0044L47.5859 53.1045Z" fill-rule="evenodd" fill="currentColor"/>
	<defs/>
</svg>
