<svg width="24" height="24" viewBox="0 0 110 110" fill="none" xmlns="http://www.w3.org/2000/svg" xmlns:xlink="http://www.w3.org/1999/xlink">
	<path d="M12.9775 49.2305C13.1577 49.5005 19.7676 56.9004 19.7676 56.9004L23.3477 56.9004L13.9575 46.9004L12.9775 49.2305Z" fill-rule="evenodd" fill="currentColor"/>
	<path d="M16.2173 46.6003C16.937 47.1289 17.6221 47.7036 18.2676 48.3203L18.4976 48.5403L18.6274 48.6704L18.8877 48.9404L19.4077 49.4604L21.4775 51.6604C22.353 52.4648 23.1841 53.3162 23.9673 54.2104C24.439 54.783 24.8384 55.4109 25.1577 56.0803C25.2529 56.3337 25.3101 56.6001 25.3276 56.8704L25.4277 57.5703C25.4277 57.6404 25.4277 57.7104 25.4277 57.8003C25.4277 57.8904 25.3276 58.0002 25.2676 58.0803C25.1743 58.2271 25.0562 58.3557 24.9175 58.4604C24.6582 58.6272 24.3794 58.7617 24.0874 58.8604C23.2646 59.1426 22.3975 59.2747 21.5273 59.2502L20.1475 59.1604C19.6978 59.1604 19.2275 59.0503 18.8076 59.0603L18.1777 59.0603L17.6675 59.0603C17.4277 59.0603 17.1777 59.0603 16.9478 59.1304C15.8354 59.2661 14.7573 59.6052 13.7676 60.1304C13.4873 60.2903 13.0176 60.0403 12.7676 59.3503C12.6377 58.9336 12.6377 58.4871 12.7676 58.0703C12.9243 57.5537 13.2524 57.106 13.6978 56.8003C14.4521 56.2954 15.2925 55.9326 16.1777 55.7305C16.5874 55.6404 16.9873 55.5803 17.3877 55.5303L17.5376 55.5303C17.9126 55.7715 18.3359 55.9282 18.7773 55.9902C18.8931 56.0142 19.0122 56.0142 19.1274 55.9902C19.2373 55.9902 19.2876 55.9204 19.2573 55.8804C19.2573 55.6204 18.7476 55.3003 18.5376 54.9902L18.3374 54.6003L17.3374 53.6003L15.5073 51.7502C15.1221 51.301 14.6704 50.9131 14.1675 50.6003C14.0176 50.5203 14.0073 50.6904 13.9775 50.7703L13.8877 51.0603C13.8345 51.2549 13.7676 51.4453 13.6875 51.6304C13.7373 51.8503 13.6875 51.9004 13.6875 52.0503L13.6177 52.4304C13.5811 52.5645 13.5576 52.7017 13.5474 52.8403L13.4077 53.5203C13.1274 54.8804 12.9375 56.2502 12.5776 57.6604C12.5039 57.9705 12.4067 58.2747 12.2876 58.5703C12.1504 58.9819 11.9136 59.353 11.5977 59.6504C11.3555 59.8091 11.0625 59.8699 10.7773 59.8203C10.6499 59.8069 10.5229 59.7869 10.3975 59.7603C10.0376 59.6404 9.90771 59.0303 10.0674 58.3103C10.3433 57.2065 10.5044 56.0771 10.5474 54.9404C10.5474 54.3203 10.5474 53.7104 10.5474 53.0903L10.5474 52.6003C10.5278 52.384 10.5278 52.1665 10.5474 51.9504L10.5474 49.8704L10.5474 48.8103L10.5474 47.7603L10.6475 47.8704L11.0273 46.8704C11.0547 46.7847 11.0884 46.7012 11.1274 46.6204L11.2676 46.5002L11.5977 46.2104L11.8774 45.9805L12.1377 45.8604L12.3975 45.7402C12.5015 45.6731 12.6167 45.6255 12.7373 45.6003C13.2842 45.4507 13.8608 45.4507 14.4077 45.6003C14.7178 45.6792 15.0166 45.7969 15.2974 45.9504C15.6201 46.0798 15.9341 46.23 16.2373 46.4004L16.2173 46.6003Z" fill-rule="evenodd" fill="currentColor"/>
	<path d="M80.6479 58.7205C80.7778 58.8604 80.958 59.0803 81.0176 59.1604L81.2378 59.4504L81.668 60.0403L82.7578 61.6003C83.6592 62.8115 84.4458 64.1038 85.1079 65.4604C85.5151 66.1946 85.7671 67.0046 85.8477 67.8403C85.8804 68.4282 85.73 69.0115 85.418 69.5105C85.2324 69.7034 84.9912 69.8328 84.7275 69.8804C84.4922 69.9387 84.2505 69.969 84.0078 69.9705C83.3389 70.0205 82.666 69.98 82.0078 69.8503C81.0347 69.5979 80.0845 69.2632 79.168 68.8503C78.4126 68.5139 77.6382 68.2234 76.8477 67.9805C76.3906 67.865 75.9263 67.7815 75.458 67.7305C74.4404 67.5833 73.4043 67.6377 72.4077 67.8904C72.1479 67.9705 71.6777 67.6904 71.5479 66.9805C71.4941 66.5388 71.5889 66.092 71.8179 65.7104C72.0913 65.2495 72.5151 64.8965 73.0176 64.7104C73.4517 64.5652 73.8965 64.4548 74.3477 64.3804C74.7622 64.2954 75.186 64.2683 75.6079 64.3003C76.0024 64.3093 76.3965 64.3394 76.7876 64.3904L77.3477 64.4705L77.6279 64.4705C77.6978 64.4705 77.6279 64.4705 77.688 64.4705C77.9351 64.7764 78.2368 65.0339 78.5776 65.2305C78.9775 65.4805 79.3477 65.7004 79.5776 65.6204C79.5776 65.3704 79.3877 65.1104 79.3477 64.9104C79.2563 64.6477 79.1494 64.3906 79.0278 64.1404C78.9541 63.9788 78.8706 63.8218 78.7778 63.6704L78.7876 63.6003L78.5977 63.3303L78.1978 62.8003L77.708 62.1704L77.4478 61.8003C77.272 61.562 77.082 61.335 76.8779 61.1204C76.7568 60.9844 76.6226 60.8606 76.4775 60.7505C76.4121 60.6902 76.3335 60.6458 76.2476 60.6204C76.1479 60.6204 76.1377 60.7205 76.1079 60.7805C75.9551 61.0981 75.8442 61.4343 75.7778 61.7805C75.7036 62.0022 75.6465 62.2297 75.6079 62.4604C75.5938 62.5549 75.5737 62.6484 75.5479 62.7405C75.5479 62.7405 75.5479 62.8203 75.5479 62.8904L75.4775 63.1404C75.3877 63.4705 75.2876 63.8003 75.168 64.1404C74.9438 64.8372 74.6455 65.5076 74.2778 66.1404C74.1279 66.4209 73.9507 66.6855 73.7476 66.9304C73.4883 67.2756 73.1436 67.5479 72.7476 67.7205C72.4746 67.7881 72.186 67.7524 71.938 67.6204C71.8174 67.5718 71.7002 67.5149 71.5879 67.4504C71.4233 67.3103 71.3472 67.0925 71.3877 66.8804C71.4072 66.5671 71.5073 66.2639 71.6777 66.0005C72.1807 65.2158 72.543 64.3496 72.7476 63.4404C72.7476 63.2104 72.7476 62.9604 72.7476 62.7205C72.7832 62.3428 72.8467 61.9685 72.938 61.6003C73.0078 61.0105 73.0278 60.3804 73.1079 59.7205L73.2178 58.7205L73.3276 57.6003C73.4624 57.3452 73.627 57.1069 73.8179 56.8904C73.915 56.7502 74.0259 56.6196 74.1479 56.5005L74.4775 56.2805C74.6597 56.1396 74.8721 56.0437 75.0977 56.0005C75.1997 55.9678 75.3032 55.9412 75.4077 55.9204C75.5479 55.9204 75.7578 55.9204 75.9077 55.8604C76.2241 55.843 76.5405 55.8906 76.8379 56.0005C77.187 56.085 77.5234 56.2161 77.8379 56.3904C78.1577 56.6003 78.4775 56.8003 78.8379 57.0005C79.5972 57.4189 80.2744 57.9712 80.8379 58.6304L80.6479 58.7205Z" fill-rule="evenodd" fill="currentColor"/>
	<path d="M60.2773 35.1301C60.2773 35.1301 58.5972 40.7603 59.4873 43.3303C60.3774 45.9001 55.0474 44.8103 55.0474 44.8103L55.0474 31.7202L60.2773 35.1301Z" fill-rule="evenodd" fill="currentColor"/>
	<path d="M58.2974 36.1104L58.2275 36.1702C58.2275 36.2302 58.2275 36.1104 58.1475 36.4702L57.9473 38.0403C57.8276 39.0903 57.7275 40.1501 57.6572 41.2102L57.6572 41.6003C57.6772 41.6992 57.6772 41.8013 57.6572 41.9001C57.5688 42.1746 57.5283 42.4622 57.5376 42.7502C57.7573 42.9102 58.0273 42.8103 58.3677 42.7502C58.9531 42.573 59.5244 42.3525 60.0776 42.0903C61.2476 41.5903 62.3872 41.0002 63.5776 40.4702C64.3457 40.0828 65.1582 39.7905 65.9976 39.6003C66.9033 39.3708 67.8516 39.3708 68.7573 39.6003C69.3677 39.8103 69.0874 40.3704 68.6572 40.9802C68.272 41.6758 67.7515 42.2876 67.1274 42.7803C66.8374 42.9302 66.5376 43.1003 66.2373 43.2803C66.0977 43.3704 65.9375 43.4602 65.7876 43.5703L65.3174 43.8103L63.3174 44.8804C62.6572 45.2502 61.9673 45.6304 61.2573 46.0002L60.3477 46.4902C60.0273 46.7144 59.6934 46.9182 59.3477 47.1003C58.7119 47.437 58.0415 47.7019 57.3477 47.8904C56.7681 48.0496 56.167 48.1138 55.5674 48.0803L55.1772 48.0803L54.8276 47.9902C54.5586 47.9297 54.2944 47.8494 54.0376 47.7502C53.8271 47.5129 53.6362 47.2588 53.4673 46.9902C53.2642 46.7178 53.1147 46.4089 53.0273 46.0803C52.8481 45.2666 52.7773 44.4326 52.8174 43.6003L52.8174 41.5403L52.8174 41.0603L52.9175 39.3804C52.9976 38.2603 53.0977 37.1404 53.2275 36.0203C53.2749 35.0068 53.4292 34.0012 53.6875 33.0203C53.8657 32.2043 54.2056 31.4324 54.6875 30.7502C54.772 30.627 54.877 30.5188 54.9976 30.4302C55.1475 30.3103 55.2573 30.3704 55.3677 30.3804C55.4775 30.3904 55.8076 30.4402 56.0776 30.5203C56.3569 30.5728 56.6313 30.6499 56.8975 30.7502C57.2075 30.9001 57.5176 31.0002 57.8374 31.1902L58.8374 31.9902L59.7676 32.7102L60.2075 33.0703L60.6074 33.3604L61.2173 33.8003C62.4541 34.6865 63.7983 35.4121 65.2173 35.9602L66.1177 36.2703C66.5244 36.3877 66.9072 36.5774 67.2476 36.8303C67.4536 37.0461 67.5923 37.3169 67.6475 37.6104C67.6475 37.7603 67.7275 37.9102 67.7476 38.0503C67.7676 38.1902 67.6372 38.4502 67.3477 38.6003C66.96 38.7903 66.5215 38.8499 66.0977 38.7703C64.5708 38.5 63.083 38.0432 61.6675 37.4102C60.9375 37.1501 60.2173 36.8704 59.5176 36.5703L58.9873 36.3503C58.8574 36.2903 58.5474 36.1702 58.6372 36.1702C58.6372 36.1702 58.5273 35.9602 58.4473 36.0903L58.2974 36.1104Z" fill-rule="evenodd" fill="currentColor"/>
	<path d="M77.2275 18.3604C77.1074 18.4402 78.8774 26.4802 76.5674 28.3604C76.0376 28.7903 79.0273 31.3604 79.6475 29.5103C80.2676 27.6604 79.7476 17.0603 79.7476 17.0603L77.2275 18.3604Z" fill-rule="evenodd" fill="currentColor"/>
	<path d="M82.7476 21.4304L82.7476 22.0706C82.7593 22.2468 82.7593 22.4241 82.7476 22.6003L82.7476 23.3005L82.5977 24.7104L82.5376 25.4004L82.4775 26.6003C82.4775 27.4004 82.3677 28.1704 82.2876 28.9204C82.1875 30.0005 82.1274 31.1904 81.5776 31.6704C81.2979 32.0305 81.0879 32.3306 80.7979 32.6704C80.5259 32.7737 80.2383 32.8276 79.9478 32.8306C79.6992 32.8496 79.4497 32.8293 79.2075 32.7705C78.5938 32.6423 78.0059 32.4124 77.4678 32.0903C76.748 31.6653 76.0771 31.1621 75.4678 30.5903C75.1577 30.3206 74.8379 30.0706 74.5479 29.7905C74.4087 29.6553 74.2617 29.5286 74.1074 29.4104L73.8179 29.1804C73.0713 28.6111 72.2324 28.1748 71.3379 27.8904C70.2178 27.5405 69.1577 27.3206 67.9775 26.9905C67.6074 26.8804 67.5479 26.2905 67.8574 25.6003C68.2139 24.7676 68.9658 24.1699 69.8574 24.0105C70.2705 23.9854 70.6846 23.9854 71.0977 24.0105C71.5068 24.0107 71.9141 24.0681 72.3076 24.1804C73.0801 24.3662 73.8335 24.624 74.5576 24.9504C74.9077 25.1104 75.2476 25.2905 75.5576 25.4705L76.0479 25.7605C76.1675 25.8306 76.0479 25.8306 76.1177 25.8403C76.1777 26.0559 76.2686 26.2612 76.3877 26.4504C76.4985 26.6426 76.6401 26.8149 76.8076 26.9604C76.9575 27.0806 77.1177 27.2305 77.2676 27.1504C77.4175 27.0706 77.2676 26.7305 77.3677 26.5605C77.4678 26.3904 77.5078 26.0305 77.5776 25.6904C77.6499 25.3306 77.6997 24.9666 77.7275 24.6003L77.7979 23.2705L77.7979 22.6003L77.7979 22.1904C77.813 21.8906 77.813 21.5903 77.7979 21.2905C77.7983 21.0454 77.7749 20.801 77.7275 20.5605C77.7212 20.5012 77.6968 20.4453 77.6577 20.4004C77.6577 20.3503 77.5576 20.4004 77.5176 20.4004C77.4204 20.439 77.3267 20.4858 77.2378 20.5405C76.8296 20.7659 76.4443 21.0303 76.0879 21.3306C75.9409 21.4492 75.8008 21.5762 75.6675 21.7104C75.6074 21.7805 75.5376 21.8105 75.4775 21.9104L75.0776 22.2104C74.5352 22.6392 73.9712 23.0396 73.3877 23.4104C73.1177 23.5781 72.8369 23.7285 72.5479 23.8604C72.1611 24.0554 71.7295 24.1418 71.2979 24.1104C71.0083 24.0171 70.7632 23.8215 70.6074 23.5605C70.5273 23.4451 70.4536 23.3247 70.3877 23.2004C70.3096 22.9788 70.3433 22.7332 70.4775 22.5405C70.6328 22.2712 70.8486 22.0417 71.1074 21.8704C71.5371 21.594 71.9478 21.29 72.3379 20.9604C72.7949 20.6389 73.2173 20.27 73.5977 19.8604C73.6978 19.7405 73.7476 19.6604 73.9077 19.4905C74.0679 19.3206 74.3179 19.0505 74.5576 18.8105L75.2476 18.0605L76.0278 17.0605C77.0278 15.8904 78.3877 15.2305 79.0278 15.3804C79.2788 15.3767 79.5288 15.4138 79.7676 15.4905C79.9644 15.5356 80.1509 15.6172 80.3179 15.7305C80.5645 15.8547 80.7905 16.0168 80.9878 16.2104C81.2046 16.4268 81.3989 16.6646 81.5679 16.9204C81.877 17.5706 82.1475 18.2383 82.3774 18.9204C82.5078 19.2705 82.6177 19.6804 82.7378 20.0706C82.8574 20.4604 82.8076 20.9404 82.8379 21.3804L82.7476 21.4304Z" fill-rule="evenodd" fill="currentColor"/>
	<path d="M86.6777 80.2603L86.2578 81.2603C86.1992 81.3049 86.146 81.355 86.0977 81.4104C85.9512 81.5735 85.8271 81.7549 85.7275 81.9502C85.6377 82.1204 85.7275 82.1604 85.6177 82.3604C85.564 82.459 85.5205 82.563 85.4878 82.6704C85.4849 82.7285 85.5161 82.7832 85.5679 82.8103C85.646 82.832 85.729 82.832 85.8076 82.8103C86.0078 82.8103 86.3276 82.6802 86.7476 82.5703L87.6577 82.2803C88.1211 82.1379 88.5918 82.021 89.0679 81.9302C90.3286 81.6167 91.6621 81.8142 92.7778 82.4802C93.1177 82.7102 92.8677 83.1902 92.4375 83.6802C92.0493 84.1895 91.5586 84.6116 90.9976 84.9204C90.1777 85.1902 89.4575 85.4004 88.6377 85.7302L88.4878 85.8003L88.4077 85.8003L88.2178 85.8904L87.4775 86.3604L85.9277 87.3604C85.1904 87.95 84.2598 88.2424 83.3179 88.1802L82.4375 88.0203C82.1885 87.9966 81.9414 87.9565 81.6978 87.9004C81.5469 87.8596 81.3994 87.8062 81.2578 87.7402C81.1777 87.6902 81.0376 87.6404 80.9976 87.5603C80.9487 87.4915 80.9146 87.4131 80.8975 87.3303C80.8076 87.0103 80.7275 86.6902 80.6577 86.3303C80.5449 85.896 80.5244 85.4429 80.5977 85.0002C80.6973 84.4138 80.8276 83.8333 80.9878 83.2603C81.3179 82.1003 81.6978 80.8604 82.0576 79.8604C82.2476 79.3704 82.3574 79.0703 82.6675 78.3203C82.8125 78.0171 82.9761 77.7231 83.1577 77.4402C83.2734 77.1453 83.4209 76.8635 83.5977 76.6003C83.833 76.2429 84.1006 75.9082 84.3975 75.6003C84.4697 75.5261 84.5542 75.4651 84.6475 75.4204C84.7275 75.3481 84.8301 75.3059 84.9375 75.3003C85.0884 75.3381 85.2354 75.3884 85.3774 75.4502C86.2578 75.7241 87.0327 76.2617 87.5977 76.9902C87.8877 77.3403 88.1777 77.6504 88.4575 77.9902L88.6675 78.2202C88.7207 78.2991 88.7847 78.3696 88.8574 78.4302L89.1475 78.6902C89.5371 78.9978 89.9521 79.2722 90.3877 79.5103L90.9575 79.7903C91.2295 79.9045 91.4673 80.0872 91.6475 80.3203C91.7612 80.542 91.8032 80.7937 91.7676 81.0403C91.7676 81.1802 91.7676 81.3103 91.7676 81.4302C91.729 81.6379 91.5791 81.8071 91.3774 81.8704C91.0938 81.9932 90.7769 82.0178 90.4775 81.9402C89.3911 81.636 88.3584 81.1636 87.4175 80.5403L87.0576 80.3303C87.0576 80.3303 86.9878 80.2102 86.9077 80.2703L86.6777 80.2603Z" fill-rule="evenodd" fill="currentColor"/>
	<path d="M45.5972 56.7903C45.5972 56.7903 45.4971 61.2803 45.5972 63.0703C45.6973 64.8604 42.2373 65.0703 42.2373 65.0703L42.2974 54.0703L45.5972 56.7903Z" fill-rule="evenodd" fill="currentColor"/>
	<path d="M44.6475 57.3604C44.5674 57.3604 44.4873 57.4404 44.4077 57.6006C44.2974 58.4805 44.2075 59.4304 44.1377 60.3506L44.1377 60.6704C44.1313 60.7236 44.1313 60.7773 44.1377 60.8306C44.1519 60.9165 44.1519 61.0044 44.1377 61.0906C44.0479 61.4175 43.9912 61.7524 43.9673 62.0906C44.0376 62.2405 44.1675 62.1804 44.2573 62.1704L44.5776 62.0505L45.4375 61.6304C46.4365 61.0542 47.4683 60.5366 48.5273 60.0806C49.9478 59.4224 51.5522 59.2773 53.0674 59.6704C53.5376 59.8206 53.3877 60.3206 52.9976 60.8506C52.6094 61.4482 52.085 61.9451 51.4673 62.3005C50.397 62.7754 49.355 63.313 48.3477 63.9104L47.5576 64.4104C47.3232 64.5549 47.0996 64.7153 46.8877 64.8904C46.6255 65.1243 46.3521 65.3447 46.0674 65.5505C45.7876 65.7505 45.5073 65.9705 45.2275 66.1904C44.9634 66.3831 44.686 66.5566 44.3975 66.7104C43.9644 66.9336 43.4844 67.0503 42.9976 67.0505C42.7051 67.0818 42.4102 67.0818 42.1177 67.0505C41.7852 67.0032 41.4639 66.8984 41.1675 66.7405L40.7173 65.9404C40.5298 65.6553 40.3818 65.3457 40.2773 65.0205C40.1855 64.5986 40.1221 64.1709 40.0874 63.7405C40.0332 63.2793 40.0098 62.8149 40.0176 62.3506L40.0176 60.6006L40.0176 60.2305L40.1177 58.7605L40.2476 57.1804C40.3174 56.4304 40.3774 55.6804 40.4873 54.9805C40.584 54.218 40.8179 53.4795 41.1777 52.8005C41.3438 52.5286 41.5493 52.2825 41.7876 52.0706C41.9673 51.9404 42.0977 52.0706 42.2275 52.0706L42.6274 52.1404L43.2974 52.3206L44.0674 52.7205C44.1362 52.7534 44.2031 52.79 44.2676 52.8306L44.4673 53.0205L44.8774 53.3904C45.1475 53.6404 45.4077 53.8804 45.6475 54.1204L47.0176 55.4304C47.3374 55.7405 47.6675 56.0505 48.0176 56.3406C48.998 57.2224 50.083 57.9814 51.2476 58.6006L51.9873 58.9604C52.8975 59.3704 53.0776 59.6104 53.1978 60.1804C53.1978 60.3105 53.2676 60.4404 53.2876 60.5605C53.3076 60.6804 53.1978 60.9004 52.9375 61.0105C52.7744 61.0774 52.6025 61.1213 52.4277 61.1404C52.2158 61.1584 52.0024 61.1382 51.7974 61.0806C50.4824 60.7014 49.2241 60.1465 48.0576 59.4304C47.4507 59.1172 46.8608 58.7837 46.2876 58.4304L45.4375 57.9304C45.1675 57.7705 44.7676 57.5405 44.9175 57.5706C44.9023 57.5376 44.8818 57.5071 44.8574 57.4805L44.7974 57.4805L44.6475 57.3604Z" fill-rule="evenodd" fill="currentColor"/>
	<path d="M43.1074 47.2705C38.3271 45.1704 33.3774 36.6604 33.2871 36.7305C29.8271 39.7305 27.7173 51.9004 27.9072 51.8403C29.0371 51.4004 32.2173 50.2205 35.2871 49.3003C39.3071 48.1003 43.5972 47.4905 43.1074 47.2705Z" fill-rule="evenodd" fill="currentColor"/>
	<path d="M89.4175 42.8604C85.7876 41.2703 82.0479 34.8604 81.9775 34.8604C79.3477 37.1204 77.7578 46.3503 77.8975 46.3003C79.7808 45.4336 81.7065 44.6626 83.6675 43.9902C86.7075 43.1003 89.7876 43.0303 89.4175 42.8604Z" fill-rule="evenodd" fill="currentColor"/>
	<path d="M41.9375 22.7903C45.9375 20.6404 49.5776 12.9404 49.6675 13.0002C52.8677 15.3303 55.5376 25.6904 55.3774 25.6504C54.3774 25.3503 51.5474 24.5603 48.8276 23.9805C45.2778 23.2305 41.5273 23.0103 41.9375 22.7903Z" fill-rule="evenodd" fill="currentColor"/>
	<path d="M70.1177 79.9302C66.8677 78.1802 63.8774 71.9302 63.8076 71.9302C61.1978 73.8301 59.0176 82.2803 59.1475 82.2502C59.9775 82.0103 62.2778 81.3601 64.4976 80.8901C67.3877 80.2903 70.4478 80.1101 70.1177 79.9302Z" fill-rule="evenodd" fill="currentColor"/>
	<path d="M27.5176 75.6902C31.1475 73.6902 34.5176 66.6902 34.5176 66.7703C37.4375 68.9001 39.8774 78.3403 39.7275 78.3003C38.8076 78.0303 36.2378 77.3003 33.7275 76.7803C30.5977 76.1001 27.1475 75.8901 27.5176 75.6902Z" fill-rule="evenodd" fill="currentColor"/>
	<defs/>
</svg>
