<svg width="24" height="24" viewBox="0 0 110 110" fill="none" xmlns="http://www.w3.org/2000/svg" xmlns:xlink="http://www.w3.org/1999/xlink">
	<path d="M56.8901 54.2639L48.0298 53.884C46.9502 53.884 45.8799 53.9639 44.7998 53.884C41 53.6907 37.1968 53.4639 33.3901 53.2039C31.7002 53.084 30.0098 53.124 28.3301 53.144C27.25 53.144 26.1699 53.2239 25.0801 53.144C24.5249 53.1416 23.9707 53.1047 23.4199 53.0339C23.1401 53.0339 22.8599 52.9539 22.5898 52.894L22.1499 52.804L21.6099 52.634C20.7002 52.314 21.3599 51.5039 22.0298 50.634L22.5 49.9939C22.7065 49.7791 22.9307 49.5815 23.1699 49.4041C23.6299 49.0332 24.1909 48.8101 24.7798 48.7639C29.1064 48.4163 33.4536 48.4163 37.7798 48.7639C40.4707 48.9241 43.1689 48.9241 45.8599 48.7639L54.77 48.874C56.6001 48.874 58.4302 48.9341 60.2598 48.9341C63.0298 48.9341 65.8101 49.0039 68.5601 48.844C70.6899 48.7239 72.7798 48.314 74.8999 48.0439C75.3599 47.9839 75.8198 47.874 76.29 47.844C78.0498 47.7539 78.6099 48.124 78.98 49.574C79.0825 49.9023 79.166 50.2361 79.23 50.574C79.375 51.7271 78.5859 52.7896 77.4399 52.9839C73.6455 53.9868 69.7349 54.4812 65.8101 54.4539C62.8101 54.4539 59.8701 54.4539 56.8901 54.384L56.8901 54.2639Z" fill-rule="evenodd" fill="currentColor"/>
	<path d="M13.7998 56.9238L13.3101 56.5139C13.3101 56.4639 13.0601 56.3237 12.9199 56.2139L12.4702 55.8538L10.8101 54.4539L8 51.7239L9.37988 50.1638C9.79004 49.7239 10.1899 49.2739 10.5698 48.8237C10.9502 48.3738 11.5698 47.9839 12.1001 47.5837C12.6299 47.1838 13 46.9939 13.4399 46.7039C13.6401 46.5737 13.9102 46.3838 14.0498 46.3137L14.4902 46.0637L16.27 45.0637L19.7998 43.1638C20.7998 42.6038 21.7998 41.9438 22.7998 41.304C23.9839 40.3757 25.3022 39.634 26.71 39.1038C27.1699 38.9539 27.52 39.6538 27.6099 40.5339C27.7651 41.4326 27.4873 42.3518 26.8599 43.0139C24.5015 44.8967 21.9624 46.5413 19.2798 47.9238C18.46 48.3538 17.686 48.8665 16.9702 49.4539L16.23 50.054C16.0918 50.1714 15.9443 50.2786 15.79 50.3738C15.4839 50.543 15.2017 50.7515 14.9502 50.9939C14.8901 50.9939 14.8999 51.0439 14.9502 51.0637L14.9502 51.1238C14.9746 51.1648 15.0049 51.2019 15.04 51.2339L15.25 51.4739C15.4102 51.6338 15.5801 51.804 15.7798 51.9839C16.1763 52.3096 16.5903 52.6133 17.02 52.8938C17.5298 53.2439 18.02 53.5837 18.5698 53.8938C20.1318 54.9443 21.7695 55.877 23.4702 56.6838C24.8047 57.2053 26.2041 57.5417 27.6299 57.6838C27.9302 57.6838 28.25 57.6838 28.52 57.7739C28.7456 57.7937 28.9595 57.8848 29.1299 58.0339C29.2778 58.1543 29.3828 58.3191 29.4302 58.5039C29.5273 59.0955 29.5439 59.6978 29.48 60.2939C29.48 60.6438 29.48 60.9839 29.4102 61.2939C29.3599 61.8191 29.1465 62.3157 28.7998 62.7139C28.4458 63.1917 27.9175 63.5112 27.3301 63.6038C26.5454 63.6621 25.7563 63.6013 24.9902 63.4238C24.2607 63.2683 23.5449 63.0542 22.8501 62.7839C21.5005 62.2319 20.2021 61.5627 18.9702 60.7839C17.1299 59.6538 15.4302 58.3438 13.71 57.0637L13.7998 56.9238Z" fill-rule="evenodd" fill="currentColor"/>
	<path d="M86.0903 51.354L86.6304 51.104C86.7603 51.0439 86.7305 51.104 86.75 51.104C86.8267 51.1135 86.9038 51.1135 86.9805 51.104C87.1787 51.0767 87.3696 51.0085 87.54 50.9041C87.5742 50.8452 87.5742 50.7727 87.54 50.7139C87.4702 50.574 87.2402 50.4939 87.1602 50.354L86.9102 50.0339C86.855 49.9631 86.7949 49.8962 86.7305 49.834L86.4102 49.4539C85.9502 49.0039 85.4702 48.554 84.9902 48.114C83.9902 47.2339 83.0503 46.364 81.9902 45.5439C81.0869 44.8132 80.1348 44.145 79.1401 43.5439C77.8237 42.8538 76.606 41.9893 75.52 40.9739C75.2002 40.624 75.6602 39.9739 76.4102 39.5339C77.1577 38.9966 78.1196 38.855 78.9902 39.1541C81.7578 40.5239 84.3218 42.2705 86.6104 44.344C87.3188 44.9756 88.0708 45.5571 88.8604 46.084L89.5 46.5339L90.3804 47.1741C90.9502 47.574 91.5703 48.1741 92.1504 48.624C92.4058 48.8418 92.6372 49.0867 92.8403 49.354L93.4502 50.084L94.6001 51.614C93.2358 52.7783 91.8032 53.8604 90.3101 54.854C89.3701 55.4739 88.9604 55.6741 88.3701 56.0239L86.6904 57.0239C84.9902 58.0239 83.2305 58.834 81.5503 59.844C80.25 60.624 79.1001 61.6841 77.75 62.584C77.4702 62.8157 77.1689 63.0198 76.8501 63.1941C76.5972 63.3406 76.3125 63.4229 76.02 63.4341C75.7783 63.4482 75.5376 63.3889 75.3301 63.2639C74.8579 62.866 74.4961 62.3528 74.2803 61.7739C74.1401 61.4539 73.9902 61.1541 73.8901 60.854C73.7324 60.3499 73.688 59.8171 73.7603 59.2939C73.7949 59.0115 73.8452 58.731 73.9102 58.4539C73.9595 58.2244 74.0664 58.0112 74.2202 57.834C75.0874 56.9509 76.0815 56.2026 77.1704 55.614C78.2603 54.9739 79.4404 54.4141 80.6304 53.834C82.4004 52.9839 84.25 52.1841 86.02 51.2639L86.0903 51.354Z" fill-rule="evenodd" fill="currentColor"/>
	<defs/>
</svg>
