<svg width="24" height="24" viewBox="0 0 110 110" fill="none" xmlns="http://www.w3.org/2000/svg" xmlns:xlink="http://www.w3.org/1999/xlink">
	<path d="M41.5967 73.353C43.6084 72.29 45.5371 71.0767 47.3662 69.7231C49.2666 68.353 51.0166 66.8428 52.7363 65.2632C53.3662 64.6729 53.9663 64.063 54.5664 63.4531C55.1665 62.8428 55.7363 62.2031 56.3364 61.5928C60.5791 57.2207 64.4399 52.4937 67.8765 47.4629C69.3892 45.2241 70.749 42.8853 71.9463 40.4629C72.7065 38.9229 73.4062 37.3428 74.0264 35.7529C74.6465 34.1631 75.3662 32.623 75.8862 31.0029C76.2363 30.0029 76.6162 30.1729 76.8862 31.1929C77.0801 31.8765 77.1846 32.5825 77.1963 33.293C77.2358 33.752 77.2358 34.2139 77.1963 34.6729L77.1162 35.4229C77.0571 35.6733 76.9834 35.9204 76.8965 36.1631C75.6938 39.6323 74.1675 42.9805 72.3364 46.1631C70.5425 49.3442 68.4922 52.374 66.2065 55.2231C63.4663 58.623 60.7363 62.2231 57.6562 65.5229C54.2705 69.1455 50.4946 72.3818 46.3965 75.1729C43.8184 76.9497 41.0044 78.3567 38.0366 79.353C35.6968 80.1455 33.2085 80.4019 30.7563 80.103C29.4624 79.9424 28.2104 79.5386 27.0664 78.9128C25.8296 78.228 24.8315 77.1814 24.2065 75.9131C23.3652 74.0317 23.1143 71.9399 23.4863 69.9131C23.7529 68.0444 24.3271 66.2334 25.1865 64.5527C25.5376 63.8218 25.9355 63.1138 26.3765 62.4331C28.1064 59.9429 29.0864 59.4932 30.1865 59.6528C30.437 59.6685 30.6855 59.7119 30.9263 59.7832C31.6162 60.063 31.2764 61.3027 30.4062 63.0527C29.7539 64.3369 29.2153 65.6753 28.7964 67.0527C28.3604 68.314 28.062 69.6182 27.9062 70.9429C27.7437 71.9404 27.8687 72.9639 28.2666 73.8931C28.6069 74.6133 29.2471 75.147 30.0166 75.353C31.7935 75.9326 33.6953 76.0154 35.5166 75.5928C37.6187 75.1162 39.6401 74.3345 41.5166 73.2729L41.5967 73.353Z" fill-rule="evenodd" fill="currentColor"/>
	<path d="M54.8867 81.1929C56.2666 80.6243 57.6035 79.9558 58.8867 79.1929C59.3667 78.9128 59.7666 78.533 60.2368 78.2529C61.9365 77.2634 63.5552 76.1399 65.0767 74.8931C65.7402 74.3291 66.3618 73.7173 66.9365 73.063C67.3267 72.6631 67.6367 72.1929 68.0464 71.813C68.4565 71.4331 68.8467 71.043 69.2666 70.6729C69.5166 70.4331 69.7266 70.623 69.8164 71.0527C69.9214 71.6519 69.8447 72.2681 69.5967 72.8228C69.5366 72.9629 69.4868 73.123 69.4165 73.2529L69.1465 73.623L68.5967 74.3228C68.2168 74.793 67.8267 75.2427 67.4165 75.6729C66.605 76.5461 65.7144 77.343 64.7568 78.053C63.5967 78.8928 62.5767 79.9829 61.3867 80.843C60.0415 81.7732 58.6348 82.6118 57.1768 83.3528C56.2866 83.803 55.3765 84.2229 54.4468 84.593C53.019 85.1594 51.5381 85.5815 50.0264 85.8528C48.835 86.1116 47.6152 86.219 46.3965 86.1729C46.1216 86.1711 45.8472 86.1443 45.5767 86.093C44.5767 85.7529 44.3667 85.3528 44.3867 84.783C44.3765 84.6497 44.3765 84.5161 44.3867 84.3828C44.4668 83.9829 44.9565 83.7529 45.5864 83.6729C46.0293 83.583 46.4766 83.5195 46.9268 83.4829C47.3564 83.4128 47.7866 83.3628 48.2168 83.2529C49.0767 83.083 49.9268 82.813 50.8267 82.6028C52.2026 82.2554 53.542 81.7766 54.8267 81.1729L54.8867 81.1929Z" fill-rule="evenodd" fill="currentColor"/>
	<path d="M36.9868 82.9031C35.6582 83.3767 34.2729 83.6726 32.8667 83.783C31.2949 83.8958 29.7188 83.6353 28.2666 83.0229C26.7866 82.3687 25.5063 81.3335 24.5566 80.0229L23.9268 79.093L23.4165 78.093C23.0605 77.3606 22.8052 76.5837 22.6567 75.7832C22.2891 73.0156 22.6333 70.2002 23.6567 67.603C24.5078 65.2627 25.5483 62.9951 26.7666 60.8232C29.146 56.5474 32.0522 52.5864 35.4165 49.0332C38.7485 45.4468 42.5024 42.2769 46.5967 39.5933C49.6162 37.5938 52.8623 35.959 56.2666 34.7231C59.7866 33.4458 63.5269 32.8848 67.2666 33.0732C70.6348 33.2764 73.9272 34.1572 76.9468 35.6631C78.5273 36.4209 79.9893 37.4043 81.2866 38.583C82.6582 39.8521 83.7363 41.4048 84.4468 43.1328C85.1309 44.8188 85.4707 46.624 85.4468 48.4429C85.418 50.1318 85.1831 51.811 84.7466 53.4429C83.8955 56.5723 82.6206 59.5698 80.9565 62.353C79.3696 65.0552 77.542 67.6089 75.4966 69.9829C73.4663 72.3198 71.2886 74.5244 68.9766 76.583C64.3726 80.7375 59.1372 84.1333 53.4668 86.6431C52.1899 87.2012 50.8848 87.6919 49.5566 88.113C48.8867 88.313 48.2065 88.5029 47.5566 88.6731C46.6577 88.8745 45.7368 88.9585 44.8164 88.9231C43.8755 88.8843 42.9497 88.6707 42.0864 88.293C41.2246 87.9446 40.5596 87.2354 40.2666 86.353C39.7866 84.583 40.9165 82.783 42.1865 81.353C42.3364 81.1831 42.5166 80.9731 42.6465 80.843L43.0166 80.4731C43.2666 80.2231 43.5166 79.9731 43.7666 79.7432C44.2666 79.2529 44.7666 78.803 45.3066 78.343C46.3066 77.4331 47.4165 76.583 48.5068 75.7529C50.6807 74.1035 52.9551 72.5908 55.3164 71.2231C58.3818 69.3979 61.6553 67.9478 65.0664 66.9028C66.8643 66.3682 68.7222 66.0625 70.5967 65.9932C72.6235 65.9077 74.6436 66.2803 76.5068 67.083C78.415 67.978 80.0181 69.4141 81.1167 71.2129L81.8564 72.5332C82.0859 73.0205 82.2764 73.5254 82.4268 74.043C82.7075 75.0195 82.8652 76.0273 82.8965 77.043C82.9614 78.9304 82.7148 80.8157 82.1665 82.623C81.6641 84.3945 80.938 86.0947 80.0068 87.6831C78.7666 89.6831 77.7466 90.1931 77.5664 89.9131C77.3867 89.6331 77.7368 88.5229 78.0664 86.7629C78.5176 84.4583 78.6289 82.1001 78.3965 79.7629C78.3086 78.4299 78.0293 77.1165 77.5664 75.8633C77.0415 74.7632 76.292 73.7856 75.3667 72.9932C74.4927 72.3091 73.4614 71.8555 72.3667 71.6729C71.0396 71.4731 69.6885 71.4897 68.3667 71.7231C65.2842 72.3032 62.3052 73.3379 59.5264 74.793C56.6016 76.2783 53.8057 78.0044 51.1665 79.9531C49.8267 80.9531 48.5264 81.9531 47.3267 83.0029C47.0264 83.2729 46.7168 83.543 46.4468 83.813L45.9067 84.333C45.7964 84.4331 45.8267 84.3931 45.7866 84.4431C45.7466 84.4932 45.7866 84.593 45.9067 84.603L46.0767 84.603L46.4966 84.5129L47.0566 84.373C47.8066 84.1731 48.5664 83.9331 49.3164 83.6631C52.3921 82.5027 55.3379 81.0249 58.1064 79.2529C63.7349 75.5903 68.7671 71.0845 73.0264 65.8931C75.5698 62.7959 77.6455 59.3423 79.1865 55.6431C80.6567 52.0229 81.3564 47.9829 80.0068 44.9531C79.3115 43.4033 78.165 42.1001 76.7168 41.2129C75.9326 40.7119 75.1138 40.2676 74.2666 39.8828C73.8164 39.7129 73.3765 39.5132 72.9268 39.3433L71.5566 38.9131C67.7852 37.9395 63.8281 37.9395 60.0566 38.9131C55.7202 40.0034 51.6084 41.8447 47.9067 44.353C44.1216 46.8872 40.6479 49.8574 37.5566 53.2031C34.4253 56.5303 31.7363 60.2476 29.5566 64.2632C28.5063 66.2368 27.665 68.3145 27.0464 70.4629C26.4766 72.5532 26.3267 74.6831 27.1064 76.2332C27.5869 77.2935 28.3477 78.2029 29.3066 78.863C29.7744 79.1453 30.2842 79.3511 30.8164 79.4731C31.3887 79.5911 31.9741 79.6282 32.5566 79.583C35.1997 79.2319 37.7256 78.2737 39.9365 76.783C44.6865 73.873 48.9365 69.9028 52.9868 65.8931C59.1997 59.8579 64.5806 53.021 68.9868 45.563C71.1177 41.8823 72.7681 37.9434 73.8965 33.8433L74.2666 32.353L74.5366 30.813C74.7358 29.8242 74.856 28.8208 74.8965 27.813C75.0298 25.9722 74.6011 24.1348 73.6665 22.543C72.9097 21.4399 71.8354 20.5928 70.5864 20.1133C69.2036 19.6069 67.7485 19.3232 66.2764 19.2729C63.1372 19.1743 60 19.5381 56.9668 20.353C53.8608 21.1426 50.8242 22.1826 47.8867 23.4629C44.9712 24.7925 42.166 26.3506 39.4966 28.123C37.1265 29.6929 34.9165 31.4229 32.6665 33.2432C30.5767 34.9331 28.8765 36.3931 27.4468 37.623C26.0166 38.853 24.8164 39.8032 23.8066 40.5732C22.4316 41.7471 20.8423 42.6436 19.1265 43.2129C18.5649 43.4248 17.9858 43.5889 17.3965 43.7031C16.6768 43.7031 16.9565 42.813 18.0767 41.0933C19.8418 38.52 21.8257 36.1045 24.0068 33.873C28.3389 29.2993 33.1577 25.2114 38.3765 21.6831C39.7266 20.793 41.1167 19.9429 42.5566 19.1528C44.0117 18.3379 45.5107 17.6035 47.0464 16.9531C50.1294 15.6675 53.3228 14.6631 56.5864 13.9531C60.0332 13.1567 63.5757 12.8569 67.1064 13.063C69.1211 13.208 71.0957 13.6948 72.9468 14.5029C75.0923 15.4312 76.9351 16.9414 78.2666 18.8633C79.5254 20.7437 80.2798 22.917 80.4565 25.1729C80.6211 27.0972 80.5269 29.0342 80.1768 30.9331C79.5903 34.3467 78.6138 37.6821 77.2666 40.873C75.2896 45.4614 72.8184 49.8203 69.8965 53.873C67.0396 57.8374 63.9087 61.5962 60.5264 65.123C57.1816 68.6245 53.6499 71.9429 49.9468 75.063C48.0386 76.6663 46.0347 78.1523 43.9468 79.5129C41.7905 80.9585 39.4668 82.1372 37.0264 83.0229L36.9868 82.9031Z" fill-rule="evenodd" fill="currentColor"/>
	<defs/>
</svg>
