<svg width="24" height="24" viewBox="0 0 110 110" fill="none" xmlns="http://www.w3.org/2000/svg" xmlns:xlink="http://www.w3.org/1999/xlink">
	<path d="M41.9292 32.1785C41.7495 40.5884 39.0493 39.2886 35.6494 41.6785C32.2495 44.0684 25.1196 41.4485 23.3794 37.4685C21.6396 33.4885 24.9595 30.0984 24.9595 30.0984C24.2896 34.7585 28.9097 36.2285 31.3594 36.4185C38.0796 36.9385 39.5996 30.8284 39.6196 25.1785L41.9292 32.1785Z" fill-rule="evenodd" fill="currentColor"/>
	<path d="M28.5894 38.5586C30.9126 40.2012 33.9668 40.3835 36.4692 39.0286C37.3213 38.4375 38.04 37.6743 38.5791 36.7886C40.7793 33.9585 39.6392 28.9785 37.5791 24.6985C36.6279 22.7615 35.542 20.8936 34.3291 19.1086L31.9292 15.6584C31.5293 15.0686 31.1494 14.4785 30.7793 13.8684C30.4214 13.2268 30.1138 12.5581 29.8594 11.8684C29.5391 11.0085 30.019 10.8684 30.9795 11.0986C31.5874 11.2556 32.1826 11.4597 32.7593 11.7085C33.4497 12.0461 34.0649 12.5188 34.5693 13.0986C36.5088 15.3208 38.312 17.6584 39.9692 20.0986C41.6729 22.7175 42.9238 25.6045 43.6694 28.6384C44.1934 30.6504 44.3789 32.7356 44.2192 34.8086C44.0972 35.9333 43.8042 37.0327 43.3491 38.0686C42.9038 39.0698 42.3179 40.0024 41.6094 40.8386C40.0347 42.6931 37.9014 43.9878 35.5293 44.5286C33.2441 45.0315 30.8652 44.9001 28.6494 44.1484C25.9058 43.2471 23.5986 41.3533 22.1792 38.8386C21.147 36.8962 20.7783 34.6699 21.1294 32.4985C21.5273 30.5366 22.2324 28.6501 23.2192 26.9084C24.5591 24.3286 25.8394 21.8086 26.7793 19.4385C26.9492 18.9285 27.1294 18.4385 27.249 17.9385C27.3091 17.7185 27.3892 17.5186 27.4492 17.3486C27.479 17.1982 27.5229 17.051 27.5791 16.9084C27.6646 16.698 27.7827 16.5022 27.9292 16.3286C28.3394 15.9705 28.8145 15.6956 29.3291 15.5186C29.6494 15.3784 29.9595 15.1685 30.269 15.0286C30.7939 14.7437 31.4478 14.8838 31.8091 15.3586C32.0952 15.6646 32.2954 16.0405 32.3892 16.4485C32.5356 16.9478 32.5869 17.4702 32.5391 17.9885C32.4019 19.512 32.0137 21.0022 31.3892 22.3984C30.8716 23.6458 30.2808 24.8611 29.6191 26.0386C28.4233 28.0183 27.3901 30.0918 26.5293 32.2385C25.6494 34.5396 26.5469 37.1404 28.6592 38.4084L28.5894 38.5586Z" fill-rule="evenodd" fill="currentColor"/>
	<path d="M74.6895 50.8884C74.2295 56.2285 71.1191 59.0183 66.3594 58.2483C64.459 57.9744 62.7671 56.8992 61.7119 55.2952C60.6567 53.6912 60.3389 51.7122 60.8394 49.8584C60.8394 49.8584 57.3594 60.8584 64.2793 64.1885C71.1992 67.5183 74.5093 64.0684 76.6294 58.9883C77.8618 56.158 77.0703 52.8533 74.6895 50.8884Z" fill-rule="evenodd" fill="currentColor"/>
	<path d="M75.3394 65.0383C73.5259 66.1238 71.4526 66.6975 69.3394 66.6985C68.3384 66.8127 67.3252 66.7656 66.3394 66.5583C65.3164 66.3672 64.3262 66.0305 63.3994 65.5583C62.0103 64.8708 60.791 63.8838 59.8291 62.6685C59.0137 61.6287 58.4429 60.4187 58.1592 59.1284C57.8638 57.9265 57.7031 56.6958 57.6792 55.4583C57.7168 53.127 58.1182 50.8157 58.8691 48.6084C59.5088 46.7388 60.2671 44.9116 61.1392 43.1384C62.1074 40.8298 63.5962 38.7764 65.4893 37.1384C66.0991 36.6284 66.709 37.3083 67.0493 38.3984C67.4756 39.5996 67.4326 40.9175 66.9292 42.0884C65.7803 43.9653 64.7773 45.9277 63.9292 47.9583C63.168 49.9219 62.6152 51.9597 62.2793 54.0383C62.1943 54.6521 62.1943 55.2747 62.2793 55.8884C62.2793 56.1985 62.3491 56.5083 62.3994 56.8083L62.6694 57.6584C62.7891 58.2683 63.209 58.6584 63.3594 59.2583C63.6211 59.7529 63.9292 60.2217 64.2793 60.6584C65.0488 61.6782 66.1304 62.4189 67.3594 62.7683C68.002 62.9966 68.6772 63.1216 69.3594 63.1384C70.0474 63.061 70.7207 62.886 71.3594 62.6184C72.8979 62.0059 74.1313 60.8083 74.7891 59.2883C75.0229 58.7256 75.1777 58.1333 75.249 57.5283C75.2842 56.9136 75.2544 56.2969 75.1592 55.6885C74.9517 54.4514 74.3438 53.3167 73.4292 52.4583C72.5781 51.6772 71.6797 50.9492 70.7393 50.2783C69.6626 49.4692 68.7153 48.5017 67.9292 47.4084C67.5405 46.9189 67.2051 46.3892 66.9292 45.8284C66.7349 45.3821 66.604 44.9109 66.5391 44.4285C66.5327 44.0845 66.6006 43.7432 66.7393 43.4285C66.9395 42.9338 67.2891 42.5144 67.7393 42.2283C67.9062 42.0872 68.0874 41.9634 68.2793 41.8584C68.8491 41.5684 69.6294 42.2983 70.7793 43.1384C71.3013 43.8037 71.8804 44.4229 72.5093 44.9883C73.0791 45.5583 73.8091 45.9883 74.5093 46.6484C75.4116 47.3804 76.2729 48.1616 77.0894 48.9883C78.1777 50.1042 79.0249 51.4316 79.5791 52.8884L79.8794 53.7583L80.0591 54.6284C80.1777 55.2041 80.2383 55.7905 80.2393 56.3784C80.2231 56.9683 80.1665 57.5564 80.0693 58.1384C79.9678 58.7244 79.814 59.3 79.6094 59.8584C78.8223 62.0344 77.3477 63.8948 75.4092 65.1584L75.3394 65.0383Z" fill-rule="evenodd" fill="currentColor"/>
	<path d="M44.2393 79.2285C41.5493 82.1284 39.7891 82.9885 37.9292 82.8984C31.3394 82.4685 31.4092 72.8984 33.3989 72.6985C33.3989 72.6985 29.3091 73.3284 28.1392 78.7886C26.9692 84.2485 31.5493 89.1584 35.019 89.0884C38.4893 89.0186 41.2891 89.0884 43.6792 83.5186L44.2393 79.2285Z" fill-rule="evenodd" fill="currentColor"/>
	<path d="M40.3491 90.9885C36.9087 92.0842 33.1562 91.5581 30.1494 89.5586C29.6479 89.2163 29.1792 88.8279 28.7495 88.3987C28.5396 88.1787 28.3091 87.9587 28.1294 87.7385L27.6294 87.0986C26.563 85.7886 25.8257 84.2419 25.4795 82.5886C25.2368 81.0862 25.353 79.5474 25.8193 78.0986C26.2427 76.8113 26.856 75.5945 27.6392 74.4885C29.0742 72.5391 30.7207 70.7549 32.5493 69.1687C34.0791 67.7886 35.5493 66.3887 36.9194 64.9885C37.8091 64.0886 38.6294 63.1487 39.4194 62.2585L39.9995 61.6086L40.6191 61.0286L41.7793 59.9387C42.1792 59.5586 43.2495 59.7986 43.9692 60.9885C44.7964 62.4543 44.7388 64.2588 43.8193 65.6687C41.9976 67.6487 40.0464 69.5061 37.9795 71.2288C36.0493 72.8887 34.1792 74.4587 32.5396 76.1086C31.6294 77.0298 30.9448 78.1489 30.5396 79.3787C30.2188 80.4304 30.2539 81.5588 30.6392 82.5886C30.7393 82.896 30.873 83.1914 31.0396 83.4688C31.1948 83.7751 31.3789 84.0667 31.5894 84.3386C31.77 84.603 31.9741 84.8508 32.1992 85.0786C32.418 85.2961 32.6558 85.4937 32.9092 85.6687C34.0649 86.3545 35.417 86.6328 36.7495 86.4587C37.6045 86.3816 38.4385 86.1477 39.2095 85.7686C39.979 85.4275 40.6621 84.9182 41.2095 84.2786C41.4092 84.0486 41.5293 83.7786 41.7095 83.5386C41.8892 83.2986 41.9292 82.9885 41.9292 82.6687C41.9292 82.3486 42.1294 82.0486 42.1694 81.7288C42.2095 81.4087 42.2793 81.0886 42.2793 80.7288C42.2944 79.3098 42.0645 77.8992 41.5991 76.5586C41.2393 75.4287 40.6895 74.2686 40.1694 73.0286C39.5898 71.7385 39.1733 70.3816 38.9292 68.9885C38.814 68.3286 38.7671 67.6584 38.7896 66.9885C38.749 66.0239 39.1113 65.0859 39.7896 64.3987C40.0396 64.1775 40.3369 64.0166 40.6592 63.9287C41.0195 63.8445 41.3896 63.8076 41.7593 63.8186C42.0923 63.7966 42.4263 63.7966 42.7593 63.8186C43.6392 63.9387 44.6494 65.1687 45.1094 66.3386C45.3369 67.1736 45.6382 67.9868 46.0093 68.7686C46.3091 69.5886 46.5894 70.4287 47.0093 71.4087C47.4292 72.3887 47.7695 73.4087 48.1494 74.7385C48.6094 76.1604 48.8813 77.6362 48.9595 79.1287C48.9604 80.4124 48.7891 81.6907 48.4492 82.9287C48.2573 83.5464 48.0337 84.1538 47.7793 84.7485C47.498 85.3855 47.1636 85.9978 46.7793 86.5786C46.3721 87.1309 45.9204 87.6492 45.4292 88.1287C44.9702 88.6042 44.4683 89.0361 43.9292 89.4187C42.916 90.1526 41.792 90.7197 40.5991 91.0986L40.3491 90.9885Z" fill-rule="evenodd" fill="currentColor"/>
	<defs/>
</svg>
