<svg width="24" height="24" viewBox="0 0 110 110" fill="none" xmlns="http://www.w3.org/2000/svg" xmlns:xlink="http://www.w3.org/1999/xlink">
	<path d="M31.2959 61.4775C30.2456 60.9917 29.272 60.355 28.4058 59.5874C27.4839 58.7749 26.7295 57.7896 26.1855 56.6875C25.6602 55.6304 25.3218 54.4902 25.1855 53.3174C25.0161 52.165 25.0361 50.9932 25.2456 49.8477C25.6738 47.5737 26.7783 45.4824 28.4155 43.8477C29.8413 42.418 31.4893 41.2295 33.2959 40.3276C36.6406 38.6821 40.231 37.5913 43.9258 37.0977C44.8354 36.9775 45.7656 36.8774 46.7158 36.8276C47.6655 36.7773 48.6157 36.8276 49.5557 36.8276C51.4053 36.9434 53.2437 37.1973 55.0557 37.5874C60.2593 38.7007 65.2104 40.7725 69.6558 43.6973C71.5967 45.0244 73.4175 46.5205 75.0957 48.1675C75.5059 48.5977 75.9355 48.9976 76.3257 49.4473L77.4956 50.8076L78.5957 52.3477C78.9458 52.8774 79.2158 53.4575 79.5259 54.0073C80.6553 56.2925 81.2402 58.8081 81.2358 61.3574C81.2222 63.8418 80.6943 66.2969 79.6855 68.5674C78.7148 70.7866 77.3608 72.8179 75.6855 74.5674C74.8364 75.457 73.9131 76.2734 72.9258 77.0073C72.4355 77.3574 71.9258 77.7075 71.4458 78.0073C70.9082 78.3325 70.3501 78.623 69.7759 78.8774C67.5205 79.9126 65.0557 80.4092 62.5757 80.3276C61.1763 80.2759 59.8159 79.8511 58.6357 79.0977C57.3857 78.2412 56.498 76.9512 56.1455 75.4775C55.8623 74.2456 55.9175 72.9604 56.3057 71.7573C56.6445 70.6802 57.1294 69.6538 57.7456 68.7075C58.915 66.8901 60.4019 65.2979 62.1357 64.0073C65.5522 61.3896 69.7749 60.0459 74.0757 60.2075C79.6299 60.3877 84.8154 63.0303 88.2256 67.4175C88.647 67.9531 89.0244 68.522 89.3555 69.1177C89.7075 69.7017 90.0249 70.3062 90.3057 70.9272C90.8691 72.1724 91.2466 73.4932 91.4258 74.8477C91.7251 77.4463 91.5562 80.0781 90.9258 82.6177C90.5854 84.1572 90.3057 84.7876 90.1655 84.7173C90.0259 84.6475 89.9658 83.8677 89.8257 82.5474C89.6416 80.7783 89.29 79.0303 88.7759 77.3276C88.4438 76.293 88.022 75.2891 87.5156 74.3276C86.999 73.291 86.3794 72.3096 85.6655 71.3975C85.3677 70.9663 85.0332 70.5615 84.6655 70.1875C84.5005 69.981 84.3164 69.79 84.1157 69.6177C84.0215 69.5234 83.9175 69.4395 83.8057 69.3677L83.5259 69.0874C83.1479 68.7241 82.7437 68.3901 82.3159 68.0874C81.9023 67.7617 81.4604 67.4741 80.9956 67.2275C79.1768 66.1982 77.1709 65.542 75.0957 65.2974C70.9399 64.6699 66.7231 65.9565 63.6255 68.7974C62.8765 69.5142 62.2061 70.3086 61.6255 71.1675C61.1206 71.873 60.751 72.6665 60.5356 73.5073C60.4033 74.0142 60.4751 74.5527 60.7358 75.0073C61.0903 75.4746 61.6221 75.7749 62.2056 75.8374C64.2163 76.0786 66.2544 75.7603 68.0957 74.9175C68.3457 74.8174 68.5659 74.6973 68.8057 74.5874C69.0293 74.4771 69.2466 74.3535 69.4556 74.2173C69.9058 73.8877 70.3955 73.6074 70.8257 73.2173C71.6978 72.5596 72.5049 71.8193 73.2358 71.0073C74.1143 69.9854 74.8604 68.8564 75.4556 67.6475C76.0303 66.4355 76.4341 65.1504 76.6558 63.8276C76.9771 61.8643 76.8296 59.853 76.2256 57.9575C76.1255 57.6475 75.9756 57.3574 75.8555 57.0474C75.7407 56.7378 75.5972 56.4399 75.4258 56.1572C73.9492 53.7441 72.0166 51.6416 69.7358 49.9673C67.3911 48.1758 64.8677 46.6309 62.2056 45.3574C56.3457 42.5376 49.8354 41.0073 43.5757 42.2075C40.4258 42.6841 37.3813 43.6987 34.5757 45.2075C33.2798 45.9194 32.1299 46.8696 31.1855 48.0073C30.3496 49.043 29.8818 50.3271 29.8555 51.6572C29.7827 53.2881 30.4126 54.8721 31.5854 56.0073C32.9692 57.1318 34.6519 57.8271 36.4258 58.0073C40.3774 58.501 44.3892 58.1016 48.1655 56.8374C51.0098 55.8042 53.6704 54.3223 56.0459 52.4473C58.4253 50.6831 60.3486 48.3755 61.6558 45.7173C62.8452 43.1689 62.896 40.2354 61.7959 37.6475C60.5801 34.9751 58.7383 32.6357 56.4258 30.8276C52.7642 27.9355 48.5098 25.8867 43.9658 24.8276C42.8452 24.5347 41.7104 24.3013 40.5659 24.1274C39.4258 23.9375 38.2656 23.8574 37.1157 23.7275C34.812 23.5972 32.5015 23.6475 30.2056 23.8774L28.6958 24.0073C28.2056 24.0073 27.6958 24.1875 27.2256 24.2773L25.7456 24.5576L24.2759 24.9375L22.9258 25.2676C22.5156 25.3877 22.1357 25.5273 21.7559 25.6475C21.0156 25.8877 20.3057 26.0273 19.6958 26.2676C18.4858 26.7275 17.4458 26.9873 16.6357 27.2676C15.4038 27.7295 14.0894 27.9307 12.7759 27.8574C12.2905 27.8506 11.8062 27.814 11.3257 27.7476C10.7158 27.5776 10.9756 26.8877 11.9956 25.6377C12.2803 25.2817 12.5913 24.9473 12.9258 24.6377C13.3159 24.3276 13.7559 23.9873 14.2456 23.6377C15.4014 22.8193 16.6338 22.1162 17.9258 21.5376C22.2588 19.5259 26.9355 18.3584 31.7056 18.0977C36.5947 17.7695 41.5034 18.27 46.2256 19.5776C51.145 20.8999 55.7285 23.248 59.6758 26.4673C61.7466 28.168 63.5503 30.1704 65.0259 32.4072C65.7969 33.6182 66.4341 34.9092 66.9258 36.2573C67.4268 37.689 67.7261 39.1836 67.8159 40.6973C67.915 42.9595 67.5049 45.2148 66.6157 47.2974C65.7778 49.2144 64.6519 50.9917 63.2759 52.5674C60.6846 55.4585 57.5698 57.834 54.0957 59.5674C53.2559 60.0073 52.3857 60.4072 51.5059 60.7773C50.5874 61.1689 49.6455 61.5029 48.6855 61.7773C46.8506 62.2725 44.9824 62.6367 43.0957 62.8677C41.1821 63.1069 39.2495 63.1602 37.3257 63.0273C35.2319 62.9048 33.1748 62.4209 31.2456 61.5977L31.2959 61.4775Z" fill-rule="evenodd" fill="currentColor"/>
	<defs/>
</svg>
