<svg width="24" height="24" viewBox="0 0 110 110" fill="none" xmlns="http://www.w3.org/2000/svg" xmlns:xlink="http://www.w3.org/1999/xlink">
	<path d="M36.96 38.73C39.2383 36.7761 41.7388 35.0979 44.4102 33.73C45.3501 33.2 46.2603 32.6599 47.2202 32.1799C48.9102 31.3799 50.6201 30.6399 52.3398 29.9299L57.52 27.9299C59.04 27.3401 60.52 26.6799 62.0103 26.03C63.9399 25.26 65.8799 24.52 67.8501 23.8201C68.46 23.6101 68.4302 23.74 68.0303 24.1599C67.3804 24.8606 66.667 25.5 65.8999 26.0701C65.0103 26.6899 64.1201 27.29 63.2202 27.8799C62.3198 28.47 61.3398 28.8799 60.3901 29.3601C58.4902 30.3101 56.5601 31.1899 54.6201 32.01C52.269 33.0557 49.9878 34.2515 47.79 35.5901C45.3594 36.95 43.0391 38.4978 40.8501 40.22C40.1797 40.7446 39.5391 41.3054 38.9302 41.8999L38.0303 42.78L37.21 43.73C36.7983 44.1824 36.4331 44.6748 36.1201 45.2C35.7886 45.7185 35.4946 46.2598 35.2402 46.8201C34.7217 47.9966 34.3135 49.2183 34.02 50.47C33.6162 52.4146 33.3589 54.387 33.25 56.3701C33.25 56.8101 33.25 57.23 33.2002 57.6599C32.9902 59.26 32.77 59.75 32.1099 60.1399C31.9688 60.2356 31.8218 60.3223 31.6699 60.3999C31.2002 60.6001 30.6699 59.9099 30.3901 58.6101C29.6636 54.5864 30.0327 50.4414 31.46 46.6101C31.9912 45.0264 32.7422 43.5251 33.6899 42.1499C34.2002 41.51 34.6899 40.9099 35.2202 40.3L36.8701 38.6201L36.96 38.73Z" fill-rule="evenodd" fill="currentColor"/>
	<path d="M47.73 56.76C45.1426 59.1328 42.6982 61.6575 40.4102 64.3201C39.5601 65.3201 38.8901 66.3899 38.0698 67.3799C35.124 70.8979 32.3667 74.5698 29.8101 78.3799C28.7061 80.0962 27.7046 81.876 26.8101 83.71C25.7812 86.1272 24.436 88.397 22.8101 90.46C22.2598 91.0999 21.4102 90.55 20.8101 89.46C20.0273 88.1855 19.7998 86.6465 20.1802 85.2L20.8999 83.28C21.1689 82.6536 21.4727 82.0425 21.8101 81.45C22.4434 80.2366 23.1099 79.0466 23.8101 77.8799C25.2246 75.5193 26.7983 73.2573 28.52 71.1099C30.6201 68.54 32.25 65.51 34.29 62.8201C36.5444 59.8538 38.9478 57.0034 41.4897 54.28L43.8901 51.8201L46.3501 49.4199C47.6299 48.24 48.8901 47.05 50.2397 45.95C50.9302 45.3899 51.52 44.8499 52.2397 44.27C52.96 43.6899 53.6802 43.1799 54.3701 42.6699C55.4175 41.9097 56.4194 41.0884 57.3701 40.21C57.8301 39.79 58.2598 39.3599 58.6602 38.9299C59.0601 38.5 59.5 38.1399 59.8701 37.74C60.2397 37.3398 60.4697 37.02 60.77 36.6899C61.4443 35.687 62.6333 35.1587 63.8301 35.3301C64.1499 35.3301 64.48 35.3301 64.8301 35.3301C65.353 35.3821 65.792 35.7458 65.9399 36.25C66.2046 37.0383 66.2046 37.8916 65.9399 38.6799C65.501 40.1155 64.8252 41.4675 63.9399 42.6799C63.1528 43.8167 62.1987 44.8281 61.1099 45.6799C59.1099 47.3699 57.1699 48.5999 55.7002 49.9399C53.1001 52.2 50.4102 54.4299 47.9399 56.9399L47.73 56.76Z" fill-rule="evenodd" fill="currentColor"/>
	<path d="M63.0098 24.95C64.9971 24.1475 66.9336 23.2258 68.8096 22.1899C69.8096 21.6499 70.6196 20.98 71.52 20.3799C71.7744 20.2429 72.0151 20.082 72.2397 19.8999L72.9697 19.21L74.4199 17.8401C74.8696 17.4299 75.4199 16.8401 76.0098 16.3L77.6699 14.6499C78.1997 14.1399 78.8296 13.48 79.4297 12.8701L81.2397 11L81.1196 11.6699C81.1196 11.8201 81.1196 11.8899 81.1196 11.99L81.1196 12.5801L81.1196 13.45C81.1279 13.5664 81.1279 13.6836 81.1196 13.8L80.6699 17.26L79.7397 24.26L78.8896 30.2C78.6899 31.54 78.4697 32.8701 78.1797 34.2C77.1875 38.9229 75.7959 43.5527 74.02 48.04C73.1411 50.3062 72.1396 52.5227 71.02 54.6799C69.9146 56.8711 68.6162 58.9595 67.1396 60.9199C64.5483 64.5059 61.293 67.561 57.5498 69.9199C55.1128 71.3899 52.4292 72.4065 49.6299 72.9199C46.8213 73.4578 43.9355 73.4512 41.1299 72.8999C39.4297 72.5901 39.8096 71.8401 41.2598 71.1101C43.3618 70.1511 45.5566 69.4104 47.8096 68.8999C52.5337 67.9312 56.793 65.3982 59.8999 61.71C61.498 59.8428 62.9238 57.8345 64.1597 55.71C65.5068 53.5156 66.7188 51.2415 67.79 48.8999C69.105 45.9756 70.1362 42.9316 70.8696 39.8101C71.6299 36.6399 72.3599 33.4199 72.9897 30.2L73.75 26.47L74.0098 25.1599L74.0698 24.8101L74.0698 24.6399L74.0698 24.5901L74.0698 24.6399L73.8496 24.8201C73.7534 24.9001 73.666 24.9907 73.5898 25.0901C73.2397 25.29 72.7397 25.6699 72.23 25.97C71.98 26.1299 71.6997 26.28 71.4199 26.4299L70.52 26.9299C70.1899 27.1201 69.8496 27.29 69.52 27.46C65.354 29.4929 61.042 31.2109 56.6196 32.6001C53.3599 33.6899 50.0796 34.6899 46.9199 35.8501C43.8179 36.8765 40.8911 38.3704 38.2397 40.28C37.3159 40.9971 36.5093 41.854 35.8496 42.8201C35.1782 43.8359 34.5991 44.9102 34.1196 46.03C33.1689 48.2273 32.6006 50.571 32.4399 52.96C32.375 53.9956 32.375 55.0344 32.4399 56.0701C32.5 57.0701 32.5796 57.8401 32.6396 58.52C32.6802 59.0925 32.6802 59.6675 32.6396 60.24C32.624 60.6599 32.543 61.075 32.3999 61.47C32.2231 61.8169 32.0229 62.1511 31.7998 62.47C31.6099 62.75 31.4897 63.0801 31.3599 63.26C31.23 63.4399 30.7798 63.3301 29.98 62.72C29.7998 62.5601 29.4897 62.3999 29.3799 62.1599C29.27 61.9199 29.0698 61.6599 28.9097 61.3601C28.5532 60.6755 28.2715 59.9548 28.0698 59.21C26.8066 53.9221 27.4146 48.3601 29.79 43.47C30.3936 42.2219 31.103 41.0276 31.9097 39.8999C32.7959 38.6516 33.8569 37.5369 35.0596 36.5901C37.2544 34.8721 39.6689 33.4561 42.2397 32.3799C45.8296 30.8301 49.3896 29.7 52.8696 28.53C56.3496 27.3601 59.75 26.23 62.98 24.8401L63.0098 24.95Z" fill-rule="evenodd" fill="currentColor"/>
	<defs/>
</svg>
