<svg width="143.960785" height="133.790649" viewBox="0 0 143.961 133.791" fill="none" xmlns="http://www.w3.org/2000/svg" xmlns:xlink="http://www.w3.org/1999/xlink">
	<path d="M71.9608 5.11116L26.8031 31.183C23.0903 33.3265 20.8031 37.2881 20.8031 41.5753L20.8031 93.7189C20.8031 98.006 23.0903 101.968 26.8031 104.111L71.9608 130.183C75.6736 132.327 80.248 132.327 83.9608 130.183L129.118 104.111C132.831 101.968 135.118 98.006 135.118 93.7188L135.118 41.5753C135.118 37.2881 132.831 33.3266 129.118 31.183L83.9608 5.11116C80.248 2.96757 75.6736 2.96757 71.9608 5.11116Z" fill-rule="evenodd" fill="#FFFFFF"/>
	<g filter="url(#filter_2_27_dd)">
		<path d="M71.9608 11.1112L31.9993 34.183C28.2864 36.3265 25.9993 40.2881 25.9993 44.5753L25.9993 90.7189C25.9993 95.006 28.2864 98.9676 31.9993 101.111L71.9608 124.183C75.6736 126.327 80.248 126.327 83.9608 124.183L123.922 101.111C127.635 98.9676 129.922 95.006 129.922 90.7188L129.922 44.5753C129.922 40.2881 127.635 36.3266 123.922 34.183L83.9608 11.1112C80.248 8.96757 75.6736 8.96757 71.9608 11.1112Z" fill-rule="evenodd" fill="url(#paint_linear_2_27_0)"/>
	</g>
	<g filter="url(#filter_2_34_dd)">
		<path d="M60.8275 20.7366L76.0695 16.366C80.3166 15.1482 84.7468 17.6039 85.9646 21.851L87.0672 25.6961L64.1352 32.2717C62.5425 32.7284 60.8812 31.8075 60.4245 30.2149L58.7706 24.4473C58.3139 22.8546 59.2348 21.1933 60.8275 20.7366Z" fill-rule="evenodd" fill="#FFFFFF"/>
		<path d="M83.889 16.6459L115.383 34.8291C119.21 37.0382 120.521 41.931 118.311 45.7573L116.311 49.2214L70.9608 23.0382L72.9608 19.5741C75.1699 15.7478 80.0626 14.4368 83.889 16.6459Z" fill-rule="evenodd" fill="#FFFFFF"/>
		<path d="M120.252 41.2596L124.662 56.6398C126.033 61.4178 123.27 66.4018 118.492 67.7719L115.608 68.5988L105.961 34.9546L107.883 34.4033C113.192 32.881 118.73 35.9507 120.252 41.2596Z" fill-rule="evenodd" fill="#FFFFFF"/>
		<path d="M122.853 65.1733L113.853 80.7618C111.92 84.1098 107.639 85.257 104.291 83.324L99.9607 80.824L117.961 49.647L118.827 50.147C124.088 53.1846 125.891 59.9121 122.853 65.1733Z" fill-rule="evenodd" fill="#FFFFFF"/>
		<path d="M71.4157 68.7689L114.095 74.0093L113.364 79.9646C112.96 83.2536 109.967 85.5925 106.677 85.1886L68.9607 80.5576L70.3013 69.6396C70.3686 69.0914 70.8676 68.7016 71.4157 68.7689Z" fill-rule="evenodd" fill="#FFFFFF"/>
		<path d="M80.6645 74.0989L70.8531 91.0929C70.0247 92.5277 68.1899 93.0194 66.755 92.191L61.5588 89.191C60.124 88.3625 59.6323 86.5278 60.4608 85.0929L69.2722 69.8309C69.8245 68.8743 71.0477 68.5466 72.0043 69.0989L80.6645 74.0989Z" fill-rule="evenodd" fill="#FFFFFF"/>
		<rect x="50.960754" y="94.936745" rx="3.000000" width="12.000000" height="12.000000" transform="rotate(-11 50.960754 94.936745)" fill="#FFFFFF"/>
	</g>
	<g filter="url(#filter_2_46_dd)">
		<path d="M58.9916 49.9735C58.8972 50.7323 58.7264 51.4795 58.4818 52.2039C58.2549 52.91 57.9873 53.5931 57.6967 54.261C57.4061 54.9288 57.0849 55.5814 56.7459 56.2237C56.4069 56.8661 56.0602 57.4982 55.6702 58.1227C55.3873 58.5739 55.0916 59.02 54.7704 59.4559C54.6939 59.5604 54.6022 59.6802 54.5155 59.8025L54.3116 60.0574C54.2402 60.1467 54.1663 60.2308 54.0898 60.3123C53.9369 60.4806 53.7839 60.6284 53.6284 60.7814C53.4815 60.9411 53.3267 61.0934 53.1645 61.2376C52.9286 61.4289 52.6657 61.5843 52.3845 61.699C52.1727 61.778 51.9478 61.8161 51.7218 61.8112C51.6154 61.803 51.5107 61.7798 51.4108 61.7423C51.2847 61.6956 51.1755 61.6121 51.0973 61.5027C50.9747 61.3161 50.9067 61.0989 50.901 60.8757C50.8704 60.4372 51.059 59.7974 51.37 59.1296C51.5204 58.7957 51.6937 58.4592 51.8798 58.1304L51.9894 57.9418L52.0837 57.7888L52.2698 57.488C52.7737 56.687 53.3442 55.9298 53.9751 55.2245C54.6051 54.5305 55.2813 53.8799 55.999 53.2771L56.9447 52.492L57.4163 52.1045L57.6533 51.9108L57.9082 51.712C58.5763 51.1999 59.2906 50.751 60.0418 50.3712C61.0007 49.8773 62.0182 49.5065 63.07 49.2674C63.3249 49.2165 63.6002 49.1578 63.8729 49.1298C64.1426 49.0869 64.4156 49.0681 64.6886 49.0737C64.9614 49.0737 65.2367 49.1069 65.5069 49.1247C65.7771 49.1425 66.0473 49.2012 66.3124 49.27C66.9751 49.4535 66.8222 49.6116 66.2588 49.7798C66.1212 49.818 65.9555 49.8818 65.772 49.9429C65.6802 49.9735 65.5833 50.0016 65.4839 50.0372L65.1755 50.1621C64.9614 50.2284 64.732 50.3431 64.4949 50.417C64.2578 50.491 64.0029 50.5547 63.7302 50.621C62.7847 50.857 61.8689 51.1991 61.0002 51.6406C60.119 52.0489 59.2905 52.5624 58.5327 53.17C57.712 53.8276 56.909 54.4827 56.1469 55.1455C55.3883 55.8075 54.6912 56.537 54.0643 57.3249C53.8757 57.5645 53.6947 57.8118 53.5214 58.0667C53.4347 58.1916 53.3531 58.3216 53.2665 58.4541L53.1441 58.6478L53.0829 58.7447C52.9764 58.922 52.8909 59.111 52.828 59.308C52.8115 59.3584 52.8012 59.4106 52.7975 59.4635C52.7975 59.512 52.8153 59.5782 52.8739 59.5782C52.9784 59.5625 53.0769 59.5194 53.1594 59.4533C53.2428 59.3916 53.3212 59.3234 53.3939 59.2494L53.5035 59.1347L53.5545 59.0761L53.6259 58.992C53.7176 58.8823 53.8273 58.7371 53.9318 58.6071C54.0363 58.4771 54.1382 58.3292 54.2376 58.189C54.439 57.9086 54.6327 57.618 54.8188 57.3223C55.191 56.7335 55.5376 56.1243 55.8563 55.4998C56.4854 54.2507 56.9974 52.946 57.3857 51.6023C57.4984 51.1962 57.5895 50.7844 57.6584 50.3686C57.7283 49.9759 57.7472 49.5758 57.7145 49.1782C57.7054 49.0174 57.6628 48.8603 57.5896 48.7169C57.5459 48.6228 57.4613 48.5541 57.3602 48.5308C57.0318 48.4882 56.6982 48.5413 56.3992 48.6837C56.129 48.7882 55.8537 48.9259 55.5784 49.061C55.3031 49.1961 55.038 49.3694 54.7755 49.5478C54.2411 49.9083 53.7302 50.3025 53.2461 50.728C52.278 51.5854 51.3946 52.5337 50.6078 53.56C49.4164 55.156 48.4171 56.8869 47.6306 58.7167C47.4471 59.1143 47.3094 59.5196 47.108 59.9096C46.8926 60.4551 46.6054 60.9694 46.2541 61.439C46.1376 61.5668 46.0096 61.6837 45.8718 61.7882C45.7692 61.8742 45.6551 61.9455 45.5327 61.9998C45.4365 62.0538 45.3369 62.1015 45.2345 62.1425C45.0943 62.1782 45.0382 62.0202 45.0178 61.6837C45.0178 61.518 45.0025 61.3039 45 61.049C45.0137 60.764 45.0573 60.4812 45.13 60.2053C45.26 59.7567 45.3849 59.3004 45.548 58.8492C45.7112 58.398 45.8973 57.9621 46.0884 57.5212C46.4904 56.6339 46.9423 55.7701 47.442 54.9339C48.4696 53.2098 49.704 51.6176 51.1176 50.1927C51.6537 49.6463 52.2325 49.1434 52.8484 48.6888C53.4862 48.2118 54.1692 47.7986 54.8876 47.4551C55.0823 47.3605 55.2833 47.2796 55.4892 47.2129C55.5955 47.1798 55.7036 47.1525 55.8129 47.1314C55.9226 47.1059 56.0271 47.0804 56.1469 47.0625C56.6848 46.9539 57.2418 46.9872 57.7629 47.1594C57.803 47.172 57.8422 47.1874 57.8802 47.2053C57.9228 47.2186 57.9638 47.2366 58.0025 47.2588C58.0923 47.3014 58.1777 47.3526 58.2575 47.4118C58.4092 47.5221 58.5411 47.6574 58.6475 47.812C58.8168 48.0591 58.9307 48.34 58.9814 48.6353C59.0689 49.0749 59.0887 49.5254 59.04 49.971L58.9916 49.9735Z" fill-rule="evenodd" fill="#FF4CED"/>
	</g>
	<path d="M78.3574 110.597C85.6247 108.473 92.6532 105.148 100.143 103.877C101.574 103.632 100.97 101.46 99.5428 101.704C92.0527 102.992 85.0146 106.3 77.7569 108.421C76.3589 108.827 76.9562 111.002 78.3574 110.597Z" fill-rule="evenodd" fill="#00FF66"/>
	<path d="M78.4575 94.4305C78.8809 95.2328 79.6105 95.8314 80.4817 96.0913C80.9334 96.2269 81.4233 96.117 81.7731 95.8016C82.1207 95.3896 82.2415 94.833 82.096 94.3147C81.9047 93.4986 81.4415 92.7713 80.782 92.2516C80.4627 91.9349 80.0373 91.7469 79.5874 91.7238C79.0165 91.7607 78.5569 92.2053 78.5027 92.773C78.4011 93.2 78.6477 93.6327 79.0677 93.7643C79.4454 93.8673 80.0007 93.6356 80.0588 93.2011C80.0774 93.1414 80.0893 93.0799 80.0943 93.0176C80.1137 92.9565 80.0943 92.9726 80.0717 93.0723L79.878 93.2622C79.7846 93.3139 79.6774 93.3353 79.5713 93.3234C79.5132 93.3234 79.5519 93.3716 79.4712 93.2976C79.5067 93.3266 79.7586 93.4939 79.6423 93.3974C79.7417 93.4814 79.8365 93.5706 79.9264 93.6645C80.0201 93.7611 80.1072 93.8609 80.1912 93.9638C80.3526 94.1602 80.1137 93.848 80.2525 94.0443L80.3365 94.1602C80.3913 94.2406 80.4333 94.3404 80.4914 94.4176C80.5495 94.4949 80.4527 94.2728 80.4753 94.3758C80.4979 94.4788 80.5269 94.556 80.5431 94.6462C80.5721 94.8167 80.5431 94.4917 80.5431 94.7459C80.5431 94.8135 80.5851 94.9004 80.5431 94.8457C80.5431 94.7942 80.5431 94.7878 80.5431 94.8296C80.5431 94.8715 80.5431 94.865 80.5721 94.7556C80.6244 94.6749 80.6982 94.6102 80.7852 94.5689C80.9014 94.511 80.6722 94.5689 80.9111 94.5399C80.7723 94.5399 81.0338 94.5754 80.937 94.5399L80.7949 94.5045C80.6496 94.4627 80.8595 94.5399 80.7723 94.5045C80.3719 94.3252 80.0458 94.0138 79.849 93.6227C79.3744 92.7022 77.9796 93.5165 78.4575 94.437L78.4575 94.4305Z" fill-rule="evenodd" fill="#00FF66"/>
	<path d="M89.9994 91.5081C90.0399 91.9613 89.9262 92.4148 89.6765 92.7955C89.7314 92.728 89.6023 92.8696 89.5958 92.8824C89.6442 92.7955 89.5958 92.8631 89.6475 92.8535C89.8283 92.8148 89.8928 92.8921 90.0543 92.9178L90.0801 92.9597C90.0533 92.9208 90.0296 92.8799 90.0091 92.8374C89.9869 92.7996 89.9685 92.7597 89.9542 92.7183C89.9251 92.6475 89.9187 92.5606 89.8831 92.493C89.8476 92.4254 89.8831 92.6539 89.8831 92.5638C89.9025 92.3804 89.8831 92.1905 89.8831 92.007L89.9187 91.8332C89.9413 91.7109 89.9639 91.5886 89.9961 91.4663C90.021 91.3647 90.0522 91.2647 90.0898 91.167C90.0898 91.1348 90.135 91.1058 90.1479 91.0737C90.1091 91.1927 90.1221 91.1251 90.0704 91.1606C89.9312 91.2568 89.7575 91.2896 89.5926 91.2507C89.4925 91.2507 89.415 91.1187 89.5603 91.2925C89.8785 91.6007 90.385 91.6007 90.7032 91.2925C91.009 90.9739 91.009 90.4718 90.7032 90.1532C90.42 89.7574 89.9262 89.5696 89.4505 89.6768C89.0233 89.8443 88.6995 90.2017 88.5756 90.6424C88.2838 91.3555 88.1934 92.1346 88.3141 92.8953C88.5175 93.8898 89.4441 94.9262 90.4966 94.2374C91.3101 93.7064 91.6943 92.4544 91.6136 91.5307C91.605 91.0899 91.2486 90.7346 90.8065 90.7261C90.3622 90.7296 90.0029 91.0878 89.9994 91.5307L89.9994 91.5081Z" fill-rule="evenodd" fill="#00FF66"/>
	<defs>
		<filter id="filter_2_27_dd" x="21.999260" y="9.503464" width="111.923042" height="124.287186" filterUnits="userSpaceOnUse" color-interpolation-filters="sRGB">
			<feFlood flood-opacity="0" result="BackgroundImageFix"/>
			<feColorMatrix in="SourceAlpha" type="matrix" values="0 0 0 0 0 0 0 0 0 0 0 0 0 0 0 0 0 0 127 0"/>
			<feOffset dx="0" dy="4"/>
			<feGaussianBlur stdDeviation="1.33333"/>
			<feColorMatrix type="matrix" values="0 0 0 0 0 0 0 0 0 0 0 0 0 0 0 0 0 0 0.25 0"/>
			<feBlend mode="normal" in2="BackgroundImageFix" result="effect_dropShadow_1"/>
			<feBlend mode="normal" in="SourceGraphic" in2="effect_dropShadow_1" result="shape"/>
		</filter>
		<filter id="filter_2_34_dd" x="47.573864" y="10.478022" width="85.217300" height="104.564247" filterUnits="userSpaceOnUse" color-interpolation-filters="sRGB">
			<feFlood flood-opacity="0" result="BackgroundImageFix"/>
			<feBlend mode="normal" in="SourceGraphic" in2="BackgroundImageFix" result="shape"/>
			<feColorMatrix in="SourceAlpha" type="matrix" values="0 0 0 0 0 0 0 0 0 0 0 0 0 0 0 0 0 0 127 0" result="hardAlpha"/>
			<feOffset dx="0" dy="4"/>
			<feGaussianBlur stdDeviation="1.33333"/>
			<feComposite in2="hardAlpha" operator="arithmetic" k2="-1" k3="1"/>
			<feColorMatrix type="matrix" values="0 0 0 0 0 0 0 0 0 0 0 0 0 0 0 0 0 0 0.25 0"/>
			<feBlend mode="normal" in2="shape" result="effect_innerShadow_1"/>
		</filter>
		<filter id="filter_2_46_dd" x="0.000000" y="0.000000" width="111.748596" height="105.147484" filterUnits="userSpaceOnUse" color-interpolation-filters="sRGB">
			<feFlood flood-opacity="0" result="BackgroundImageFix"/>
			<feColorMatrix in="SourceAlpha" type="matrix" values="0 0 0 0 0 0 0 0 0 0 0 0 0 0 0 0 0 0 127 0"/>
			<feOffset dx="0" dy="4"/>
			<feGaussianBlur stdDeviation="1.33333"/>
			<feColorMatrix type="matrix" values="0 0 0 0 0 0 0 0 0 0 0 0 0 0 0 0 0 0 0.25 0"/>
			<feBlend mode="normal" in2="BackgroundImageFix" result="effect_dropShadow_1"/>
			<feColorMatrix in="SourceAlpha" type="matrix" values="0 0 0 0 0 0 0 0 0 0 0 0 0 0 0 0 0 0 127 0"/>
			<feOffset dx="0" dy="-2"/>
			<feGaussianBlur stdDeviation="15"/>
			<feColorMatrix type="matrix" values="0 0 0 0 0.63529 0 0 0 0 0.46667 0 0 0 0 0.21176 0 0 0 1 0"/>
			<feBlend mode="normal" in2="effect_dropShadow_1" result="effect_dropShadow_2"/>
			<feBlend mode="normal" in="SourceGraphic" in2="effect_dropShadow_2" result="shape"/>
		</filter>
		<linearGradient id="paint_linear_2_27_0" x1="111.460709" y1="7.647072" x2="36.460781" y2="118.147049" gradientUnits="userSpaceOnUse">
			<stop offset="0.020833" stop-color="#1E012C"/>
			<stop offset="1.000000" stop-color="#19222A"/>
		</linearGradient>
	</defs>
</svg>
