<svg width="24" height="24" viewBox="0 0 110 110" fill="none" xmlns="http://www.w3.org/2000/svg" xmlns:xlink="http://www.w3.org/1999/xlink">
	<path d="M42.6895 47.3589C39.4419 50.0327 36.3501 52.8909 33.4297 55.9189C32.3398 57.019 31.4897 58.3091 30.4297 59.429L29.0396 60.929L27.7095 62.479L25.0596 65.5989L22.5498 68.8489L21.3096 70.489L20.1494 72.189C19.4697 73.189 18.8198 74.189 18.1494 75.269C17.8198 75.7891 17.5596 76.3289 17.2695 76.8689L16.4097 78.469C14.9097 81.179 13.7998 84.0789 11.9194 86.6289C11.3398 87.429 10.3994 86.8789 9.73975 85.6289C8.92969 84.1379 8.77734 82.377 9.31982 80.769C11.686 74.5693 15.0952 68.8198 19.3994 63.769C20.6294 62.209 21.8896 60.6389 23.0498 58.979C24.2095 57.3188 25.4497 55.699 26.7397 54.1389C29.5986 50.7368 32.6396 47.4922 35.8496 44.4189C36.8496 43.4189 37.8496 42.5688 38.8496 41.6489L40.3696 40.269L42.0195 39.0291C42.8096 38.3689 43.5996 37.689 44.3994 37.0291L46.8896 35.1489C48.5098 33.8589 50.2695 32.739 51.8896 31.469C53.1997 30.5391 54.4697 29.5789 55.7295 28.5588C56.9897 27.5391 58.3198 26.6189 59.7295 25.759C60.3594 25.3789 60.9395 24.949 61.5996 24.6089C61.8994 24.449 62.1797 24.3188 62.4395 24.199C62.6904 24.1187 62.9482 24.0618 63.2095 24.0291C63.626 23.95 64.0532 23.95 64.4697 24.0291C65.2305 24.2166 65.8813 24.7083 66.2695 25.3889C66.5327 25.7275 66.77 26.0852 66.9795 26.459C67.6094 27.719 66.9795 29.209 65.6694 30.3088C61.5298 33.4189 57.0098 36.3689 52.5498 39.699L50.0898 41.5989L48.8398 42.5291L47.6294 43.5291L45.1597 45.5291C44.3594 46.199 43.5698 46.8989 42.7798 47.5889L42.6895 47.3589Z" fill-rule="evenodd" fill="currentColor"/>
	<path d="M61.1299 26.1289L61.6299 27.3091C61.9399 27.969 62.1997 28.6489 62.48 29.3091C62.7666 29.8987 62.9849 30.5195 63.1299 31.1589C63.334 31.699 63.4814 32.2585 63.5698 32.8291C63.6299 33.3391 63.8198 33.8291 63.8599 34.3191C63.9287 34.749 63.9653 35.1836 63.9697 35.6191L63.9697 36.7891C63.8896 37.1289 63.7998 37.469 63.6899 37.7891L63.6099 38.0291C63.4897 38.209 63.4097 38.499 63.27 38.749C63.1299 38.999 62.98 39.2791 62.8096 39.5491C62.3599 39.9709 61.8384 40.3096 61.27 40.5491C60.3076 40.708 59.3203 40.5239 58.48 40.0291C57.9888 39.7456 57.5293 39.4104 57.1099 39.0291C56.8799 38.8491 56.6396 38.5991 56.3999 38.3889L55.6699 37.5791C54.6479 36.3589 53.7217 35.0618 52.8999 33.699C51.9497 32.1191 51.6196 31.459 51.1196 30.509C50.6196 29.5591 50.3398 28.8591 49.9297 28.0791C49.52 27.2991 49.0898 26.5791 48.6396 25.8989C48.3584 25.481 48.0474 25.0833 47.71 24.709C47.4692 24.4792 47.2422 24.2354 47.0298 23.979L47.0298 23.8591C47.0186 23.8164 47.0186 23.7717 47.0298 23.729C47.0454 23.6702 47.0454 23.6079 47.0298 23.5491L47.0298 23.489C47.1899 24.3889 47.0298 23.739 47.1099 23.939C47.1099 23.939 47.1099 23.939 47.1099 23.8889L47.1099 23.8091C47.1699 23.8691 47.1099 23.8091 47 23.9089C46.7456 24.2644 46.5806 24.6763 46.52 25.1091C46.3896 25.739 46.0098 25.759 45.4497 25.1589C45.0601 24.7327 44.7969 24.2065 44.6899 23.6389C44.5913 23.1348 44.6582 22.6123 44.8799 22.1489C45.269 21.3708 46.0176 20.8354 46.8799 20.719C47.126 20.699 47.3735 20.699 47.6196 20.719C47.8125 20.7393 48.0034 20.7761 48.1899 20.8291C48.3662 20.8767 48.5396 20.9333 48.71 20.999L49.0796 21.179C49.4976 21.3604 49.8804 21.6143 50.21 21.929C50.6963 22.4382 51.144 22.9832 51.5498 23.5591C52.2505 24.5808 52.8853 25.6462 53.4497 26.749L54.21 28.2891C54.2798 28.449 54.4199 28.699 54.5596 28.949L54.96 29.6689L55.21 30.0291L55.3096 30.209C55.3096 30.259 55.3096 30.209 55.3096 30.269L55.3096 30.439C55.3379 30.6125 55.3813 30.7832 55.4399 30.949C55.5928 31.4419 55.856 31.8933 56.21 32.269C56.3711 32.4373 56.5605 32.5759 56.77 32.679C56.9771 32.7988 57.2324 32.7988 57.4399 32.679C57.5977 32.5864 57.7183 32.4414 57.7798 32.269C57.7983 31.3918 57.6025 30.5234 57.21 29.739L57.0996 29.429C57.0996 29.3691 57.0996 29.3591 57.02 29.239L56.8696 28.9189L56.2598 27.5591C55.8315 26.5859 55.4741 25.5835 55.1899 24.5591C54.937 23.6658 54.8452 22.7344 54.9199 21.8091C54.9736 21.2632 55.1152 20.7295 55.3398 20.229C55.4644 19.948 55.6221 19.6829 55.8096 19.439C56.0659 19.0833 56.4106 18.8008 56.8096 18.6191C57.2891 18.3904 57.8306 18.3269 58.3496 18.439C58.5493 18.4856 58.7437 18.5527 58.9297 18.6389C59.0806 18.7112 59.2275 18.7913 59.3696 18.8789C59.7715 19.1714 60.1406 19.5068 60.4697 19.8789C61.04 20.509 61.4697 21.1289 61.9199 21.6689C63.3599 23.3789 64.9199 25.0391 66.3896 26.509C66.7104 26.8232 67.0107 27.1572 67.29 27.509C67.7109 27.9749 68.0493 28.509 68.29 29.0891C68.3853 29.5271 68.3853 29.981 68.29 30.4189C68.29 30.6191 68.23 30.8291 68.1699 30.989C68.1099 31.1489 67.8096 31.3691 67.3398 31.3989C66.6704 31.478 65.9932 31.3486 65.3999 31.0291C64.8999 30.7791 64.3999 30.509 63.9097 30.219L63.21 29.7791C62.9858 29.6157 62.772 29.4387 62.5698 29.249C61.7197 28.5291 60.9497 27.769 60.21 27.0291L58.1099 24.769C57.71 24.3191 57.3999 23.959 57.1099 23.6589C56.9697 23.519 56.8398 23.3889 56.7397 23.3091C56.7075 23.27 56.6665 23.239 56.6196 23.219C56.6196 23.219 56.6196 23.219 56.6196 23.1689L56.8599 22.8691C57.0796 22.5591 57.29 22.189 57.4199 22.009C57.4897 21.8909 57.5498 21.7671 57.5996 21.6389L57.6699 21.449C57.6934 21.4146 57.7139 21.3777 57.73 21.3391C57.7637 21.259 57.7876 21.175 57.7998 21.0891L57.7998 20.929C57.7998 20.8691 57.7998 20.739 57.7998 20.8291C57.8291 20.8882 57.8623 20.9448 57.8999 20.999C58 21.1289 58.0796 21.1389 58.3096 21.3691C58.5063 21.5403 58.729 21.6787 58.9697 21.7791C59.2847 21.9883 59.6196 22.1658 59.9697 22.3091L60.0298 22.3091L59.3999 22.0291L59.4697 22.0291C59.5601 22.0649 59.6543 22.0918 59.75 22.1091L60.1099 22.179C60.0923 22.3083 60.0923 22.4397 60.1099 22.5691C60.2969 23.772 60.668 24.939 61.21 26.0291L61.1299 26.1289Z" fill-rule="evenodd" fill="currentColor"/>
	<path d="M43.8999 20.8591L45.3999 20.2891L46.1099 20.0291L46.5098 19.8789L48.1396 19.3291C49.23 18.969 50.3198 18.6191 51.4297 18.3291C53.6299 17.6489 55.8501 17.0291 58.1099 16.479C59.75 16.0691 61.3696 15.5391 63.0498 15.249C63.7998 15.1389 64.54 14.999 65.2998 14.9189C66.0601 14.8391 66.8101 14.7791 67.5698 14.759C69.0898 14.6689 70.5698 14.6489 72.1597 14.759C72.98 14.7749 73.7983 14.8418 74.6099 14.959C74.8394 14.9905 75.0664 15.0371 75.29 15.0991C75.54 15.1589 75.75 15.199 76.0098 15.2791L76.8198 15.5591C77.0742 15.6697 77.3218 15.7966 77.5601 15.939C78.0293 16.2092 78.457 16.5461 78.8301 16.939C78.9883 17.1626 79.1318 17.3965 79.2598 17.6389C79.377 17.884 79.4741 18.1382 79.5498 18.3989C79.8081 19.4736 79.8081 20.5942 79.5498 21.6689C79.1099 23.0291 78.6499 24.2891 78.21 25.509C77.77 26.729 77.3101 27.8889 76.9199 29.0591C75.9985 31.9968 75.3296 35.0076 74.9199 38.0591C74.79 38.999 74.1196 38.999 73.29 38.1589C72.7686 37.6145 72.355 36.9768 72.0698 36.2791C71.667 35.3865 71.5117 34.4021 71.6196 33.429C72.0898 29.9775 72.9351 26.5874 74.1396 23.3191C74.3799 22.5691 74.6099 21.8391 74.77 21.189L74.8696 20.729C74.8696 20.6689 74.8696 20.729 74.8696 20.6589C74.9043 20.6138 74.9316 20.563 74.9497 20.509C74.9995 20.3743 74.9771 20.2234 74.8896 20.1091C74.8198 20.0391 74.8198 19.989 74.6597 19.929L74.3301 19.8291L73.8696 19.769C73.4521 19.7139 73.0312 19.6904 72.6099 19.699L71.21 19.7991C70.21 19.8889 69.2998 20.009 68.3398 20.189C66.4297 20.5791 64.5098 20.979 62.5801 21.4089C58.2861 22.3789 54.0552 23.6077 49.9097 25.0891L48.21 25.709L47.21 26.0291L46.21 26.3889C46.0327 26.4453 45.8589 26.512 45.6899 26.5891C45.6001 26.759 45.75 26.9189 45.8301 27.0591C46.1523 27.479 46.5137 27.8674 46.9097 28.219L47.54 28.7791L47.8696 29.0591L48.46 29.519C50.0669 30.781 51.7427 31.9526 53.48 33.0291C56.1816 34.6187 59.0239 35.9578 61.9697 37.0291C62.6099 37.2791 63.25 37.449 63.8696 37.689C66.1797 38.5391 66.6899 38.969 66.8696 40.5491C66.9355 40.9028 66.9824 41.26 67.0098 41.6191C67.0601 42.2407 66.687 42.8186 66.1001 43.0291C65.2676 43.3269 64.3643 43.3652 63.5098 43.1389C57.3198 41.759 52.02 38.429 46.8301 34.8691L45.4097 33.8691L44.6997 33.3291C44.4819 33.167 44.2515 33.0232 44.0098 32.8989C43.7598 32.749 43.5098 32.6091 43.2598 32.439C42.2383 31.8191 41.2715 31.1133 40.3696 30.3291L39.75 29.739C39.5898 29.5291 39.4199 29.3291 39.2798 29.1289C39.0088 28.7559 38.7808 28.3533 38.6001 27.929C38.2925 27.2349 38.1587 26.4763 38.21 25.719C38.2192 25.5342 38.2422 25.3503 38.2798 25.1689C38.3154 24.9658 38.3657 24.7651 38.4297 24.5691L39.0801 23.689L39.7397 22.8191L39.8999 22.5991C39.9697 22.5291 39.98 22.449 40.1299 22.3989L40.8696 22.0691C41.8696 21.6289 42.8101 21.1689 43.8101 20.739L43.8999 20.8591Z" fill-rule="evenodd" fill="currentColor"/>
	<path d="M71.8096 67.8091C71.4424 68.2844 71 68.6965 70.4995 69.0291C70.0703 69.3042 69.6104 69.5291 69.1299 69.699C68.7319 69.8284 68.3179 69.9023 67.8999 69.9189C67.5649 69.9126 67.231 69.8857 66.8999 69.8389C66.377 69.8413 65.8564 69.7776 65.3496 69.6489C64.3154 69.3049 63.416 68.6436 62.7798 67.759C62.209 66.9685 61.9395 66.0005 62.0195 65.0291C62.0825 64.3457 62.2334 63.6733 62.4697 63.0291C62.6636 62.2117 63.2827 61.5623 64.0898 61.3291C64.3599 61.2791 64.7598 61.8989 65.1699 62.5691C65.5796 63.239 66.0898 63.949 66.1699 64.0989C66.2031 64.2163 66.2612 64.3254 66.3398 64.4189C66.3398 64.4189 66.4199 64.479 66.4297 64.499C66.1909 64.4731 65.9497 64.522 65.7397 64.6389C65.7915 64.5676 65.8354 64.4905 65.8696 64.4089C65.9395 64.2991 65.9595 64.0691 65.9795 64.0889C65.9995 64.1089 65.9795 64.0889 66.0596 64.0889C66.1396 64.0889 66.3999 64.0889 66.4697 64.0889C66.5396 64.0889 66.6196 64.1589 66.5996 64.179C66.6343 64.2686 66.6812 64.3528 66.7397 64.429C66.7954 64.4946 66.8457 64.5647 66.8896 64.6389C66.8896 64.6389 67.0596 64.7991 67.0498 64.7991L67.1099 64.7991C67.0767 64.791 67.0425 64.791 67.0098 64.7991C67.0098 64.7991 66.8696 64.7991 66.8198 64.7991L66.9097 64.749C66.9565 64.6846 66.9932 64.614 67.0195 64.5391C67.0464 64.3477 66.9961 64.1533 66.8799 63.999C66.6797 63.729 66.2495 63.7791 65.9795 63.729C65.9097 63.729 65.8398 63.729 65.7798 63.729C65.5596 63.6389 65.5195 63.3489 65.4995 62.3589L65.4995 61.689C65.3745 61.0425 65.6558 60.385 66.2095 60.0291C68.1719 59.2925 70.3843 59.926 71.6597 61.5889C71.9673 61.9446 72.2231 62.3418 72.4199 62.769C72.6489 63.2539 72.8071 63.769 72.8896 64.2991C72.9448 64.5964 72.9448 64.9016 72.8896 65.199C72.8647 65.51 72.811 65.8179 72.7295 66.1189C72.5645 66.7625 72.2866 67.3718 71.9097 67.9189L71.8096 67.8091Z" fill-rule="evenodd" fill="currentColor"/>
	<path d="M19.2095 24.229C18.6187 24.187 18.04 24.0413 17.4995 23.7991C17.0371 23.6013 16.603 23.3423 16.2095 23.0291C15.8979 22.769 15.6255 22.4661 15.3999 22.1292C15.2197 21.8418 15.0625 21.5408 14.9297 21.229C14.6592 20.8013 14.4443 20.3408 14.2896 19.8591C14.0493 18.8315 14.1367 17.7544 14.5396 16.7791C14.9141 15.9001 15.5967 15.1887 16.4595 14.7791C17.0518 14.4788 17.6802 14.2568 18.3296 14.1191C19.0889 13.8574 19.9302 14.0342 20.5195 14.5791C20.6997 14.7791 20.3799 15.449 20.0396 16.1489C19.6997 16.8491 19.3896 17.6689 19.3296 17.8091C19.2607 17.8997 19.2158 18.0063 19.1997 18.1191C19.189 18.155 19.189 18.1931 19.1997 18.229C19.2144 18.1633 19.2178 18.0957 19.2095 18.0291C19.1138 17.825 18.9517 17.6594 18.7495 17.5591C18.6797 17.5591 18.7495 17.5591 18.9995 17.5591C19.1523 17.5293 19.3027 17.489 19.4497 17.439C19.5195 17.439 19.4497 17.439 19.5298 17.439C19.6099 17.439 19.6895 17.689 19.6895 17.739C19.6895 17.7891 19.6895 17.739 19.6895 17.7991L19.6895 17.8491L19.6196 17.929C19.5137 18.0989 19.4263 18.28 19.3599 18.469C19.3506 18.5354 19.3506 18.6028 19.3599 18.6689C19.3491 18.6912 19.3491 18.717 19.3599 18.739C19.3652 18.7092 19.3652 18.6787 19.3599 18.6489C19.3423 18.5901 19.3188 18.533 19.2896 18.479L19.2896 18.4189L19.2896 18.3691L19.3696 18.429C19.4395 18.4397 19.5103 18.4397 19.5796 18.429C19.7437 18.3684 19.8745 18.2412 19.9395 18.0791C20.0498 17.8091 19.7798 17.509 19.6895 17.2891C19.6895 17.2891 19.5898 17.199 19.5898 17.1392C19.5898 16.929 19.7896 16.739 20.5898 16.199L21.1396 15.8291C21.6284 15.4092 22.3193 15.3188 22.8999 15.5991C24.5449 16.7915 25.1948 18.9333 24.4897 20.8391C24.3604 21.2776 24.1685 21.6953 23.9194 22.0791C23.6465 22.5227 23.3096 22.9236 22.9194 23.269C22.71 23.4751 22.4619 23.6379 22.1895 23.749C21.917 23.8896 21.6323 24.0068 21.3398 24.0991C20.7158 24.2949 20.063 24.3831 19.4097 24.3591L19.2095 24.229Z" fill-rule="evenodd" fill="currentColor"/>
	<path d="M92.7095 48.3088C92.2031 49.1187 91.519 49.8025 90.7095 50.3088C90.3228 50.5581 89.9146 50.7722 89.4893 50.949C89.0498 51.1196 88.5942 51.2468 88.1294 51.3289C87.7993 51.3989 87.4795 51.4189 87.1294 51.469C86.7993 51.5342 86.4595 51.5342 86.1294 51.469C85.5967 51.3877 85.0801 51.2224 84.5996 50.979C84.1714 50.718 83.7695 50.4167 83.3994 50.0789C82.71 49.4504 82.1318 48.71 81.6895 47.8889C81.2534 47.134 80.9966 46.2888 80.9395 45.4189C80.9526 45.1104 80.9858 44.803 81.0396 44.499C81.1392 44.2026 81.2695 43.9177 81.4297 43.6489C81.6191 43.4287 81.8301 43.2278 82.0596 43.0488C82.2905 42.9285 82.5356 42.8379 82.7896 42.7788C83.1196 42.709 83.2896 43.189 83.4795 43.7788C83.5796 44.0688 83.6992 44.3889 83.8096 44.6489C83.8896 44.8464 84.0166 45.0215 84.1797 45.1589C84.1196 45.1589 84.1797 45.1589 84.1094 45.1589L84.1895 45.1589L84.3496 45.1589L84.4297 45.1589L84.5894 45.1589C84.6855 45.1475 84.7793 45.124 84.8696 45.0889C84.8696 45.0889 85.0093 45.0889 85.0396 45.0889C85.0693 45.0889 85.3296 45.449 85.5493 45.8289C85.7178 46.0085 85.9697 46.085 86.2095 46.0288C86.3965 46.0559 86.5806 46.0994 86.7593 46.1589C86.9307 46.2297 87.1143 46.2671 87.2993 46.269C87.5601 46.241 87.8101 46.1519 88.0293 46.009C88.3193 45.8389 88.4492 45.749 88.5093 45.6189C88.5693 45.489 88.5093 44.8589 87.9492 44.6189C87.4961 44.5068 87.0166 44.6184 86.6597 44.9189C86.5796 44.9189 86.5093 45.0789 86.4395 45.0989C86.1797 45.199 85.9995 44.929 85.4395 43.8088L85.0293 43.0588C84.5259 42.3979 84.5469 41.4766 85.0796 40.8389C85.9985 40.1011 87.165 39.7434 88.3394 39.8389C89.6782 39.9487 90.937 40.5217 91.8994 41.459C92.7954 42.292 93.3867 43.4009 93.5796 44.6089C93.7847 45.8806 93.5444 47.1841 92.8994 48.2988L92.7095 48.3088Z" fill-rule="evenodd" fill="currentColor"/>
	<defs/>
</svg>
