<svg width="24" height="24" viewBox="0 0 110 110" fill="none" xmlns="http://www.w3.org/2000/svg" xmlns:xlink="http://www.w3.org/1999/xlink">
	<path d="M50.8662 26.7754C48.8213 28.3621 47.2881 30.5144 46.4561 32.9653C46.2368 33.8306 46.146 34.7236 46.186 35.6152C46.1685 37.2378 46.5645 38.8381 47.3359 40.2654C48.1143 41.8521 49.2676 43.2249 50.6958 44.2654C52.0415 45.2168 53.5601 45.8962 55.166 46.2654C55.6758 46.3853 56.166 46.5354 56.7158 46.6953C57.2661 46.8552 57.7759 46.9653 58.3262 47.0654C58.8721 47.1521 59.4233 47.1987 59.9761 47.2053C60.5356 47.2402 61.0967 47.2402 61.6558 47.2053C62.356 47.2053 62.2759 47.2053 61.6558 47.4653C60.6943 47.9043 59.689 48.2397 58.6558 48.4653C57.4307 48.8379 56.165 49.0627 54.8862 49.1353C53.6133 49.009 52.3589 48.7407 51.146 48.3352C48.5942 47.4722 46.3496 45.884 44.686 43.7654C43.6543 42.4502 42.8467 40.9736 42.2959 39.3953C41.707 37.7971 41.4453 36.0967 41.5259 34.3953C41.8486 30.8103 43.3584 27.4353 45.8159 24.8054L46.9058 23.6653C47.2861 23.3054 47.6758 22.9753 48.0562 22.6653C48.436 22.3552 48.856 22.0154 49.2461 21.6653C49.6362 21.3154 50.0762 21.0354 50.5361 20.7253C53.3037 19.0305 56.5015 18.1694 59.7461 18.2454C62.1914 18.1506 64.6367 18.4341 66.9961 19.0852C67.5234 19.2256 68.041 19.3992 68.5459 19.6052C70.396 20.5054 70.6958 21.3054 70.3462 22.4954C70.2793 22.7703 70.1958 23.0408 70.0962 23.3054C69.686 24.1453 68.666 24.3054 67.4761 24.1052C65.7808 23.678 64.0557 23.3772 62.3159 23.2053C60.646 23.054 58.9629 23.1379 57.3159 23.4553C56.1816 23.7019 55.0854 24.0986 54.0562 24.6353C53.7944 24.7534 53.5435 24.894 53.3062 25.0554L52.9458 25.2754L52.5361 25.5852L51.7158 26.2053L50.9561 26.8652L50.8662 26.7754Z" fill-rule="evenodd" fill="currentColor"/>
	<path d="M73.166 47.5554C73.4819 45.6646 73.6558 43.7524 73.6855 41.8354C73.728 39.9641 73.5977 38.0928 73.2959 36.2454C72.8325 32.7454 71.3311 29.4644 68.9858 26.8254C67.1841 25.0552 64.9712 23.7598 62.5459 23.0554C61.5117 22.6804 60.4321 22.4448 59.3359 22.3555C58.2529 22.2727 57.1641 22.3298 56.0957 22.5254C53.8608 22.9617 51.7505 23.8872 49.916 25.2354C48.0356 26.6108 46.4761 28.3782 45.3457 30.4155C44.1968 32.3855 43.6152 34.6353 43.666 36.9155C43.7451 38.9028 44.4448 40.8154 45.666 42.3855C46.9629 43.9673 48.6528 45.1812 50.5659 45.9055C53.1157 46.8699 55.8511 47.2427 58.5659 46.9954C59.2456 46.9155 59.916 46.8154 60.5659 46.7053C61.2158 46.5955 61.916 46.4255 62.5659 46.2053C63.2446 46.0078 63.9121 45.7742 64.5659 45.5054C64.8896 45.3687 65.2241 45.2583 65.5659 45.1755C65.9072 45.0718 66.2417 44.9446 66.5659 44.7954C68.2856 44.1655 68.5659 44.6755 67.7656 46.5054C67.5464 47.0662 67.2754 47.605 66.9556 48.1155C66.8501 48.2644 66.7563 48.4216 66.6758 48.5854L66.3159 49.0154C66.0688 49.323 65.7944 49.6074 65.4956 49.8655C64.0801 51.1531 62.3589 52.0583 60.4956 52.4954C56.7798 53.4136 52.8838 53.303 49.2256 52.1755C45.3062 50.9355 41.9287 48.3911 39.6558 44.9653C38.5635 43.1626 37.8174 41.1719 37.4556 39.0955C37.105 37.0676 37.1357 34.9922 37.5459 32.9753C38.3364 29.1599 40.2642 25.6733 43.0757 22.9753C46.2725 19.7349 50.3223 17.4673 54.7559 16.4355C57.0562 15.9324 59.4307 15.8645 61.7559 16.2354C62.8643 16.4404 63.9595 16.7109 65.0356 17.0454C65.5723 17.1965 66.0972 17.3872 66.606 17.6155C67.126 17.8354 67.606 18.0154 68.1558 18.2754C70.3936 19.3999 72.4224 20.8979 74.1558 22.7053C75.8062 24.5308 77.1562 26.6067 78.1558 28.8555C79.0879 31.032 79.7593 33.311 80.1558 35.6455C80.5303 37.9128 80.7178 40.2073 80.7158 42.5054C80.687 45.2751 80.4292 48.0381 79.9458 50.7654C79.7358 52.1118 79.459 53.4468 79.1157 54.7654C78.8218 56.1196 78.4478 57.4553 77.9956 58.7654C76.6997 62.7783 74.79 66.5664 72.3359 69.9954C72.0259 70.4255 71.7559 70.8755 71.416 71.2854L70.416 72.4954C69.7651 73.3274 69.0566 74.1125 68.2959 74.8455C67.5259 75.5754 66.7759 76.3254 65.9956 77.0254L63.4556 78.9854C62.8154 79.4731 62.1475 79.9238 61.4556 80.3354C60.7559 80.7654 60.0859 81.2153 59.376 81.6255L57.1958 82.7053C56.4863 83.0957 55.7471 83.4299 54.9858 83.7053L52.6958 84.5554C52.3159 84.6953 51.9458 84.8655 51.5557 84.9753L50.356 85.3354C48.7998 85.7881 47.2119 86.1223 45.606 86.3354C44.2041 86.6116 42.7832 86.7788 41.356 86.8354C40.0259 86.8354 38.916 86.8354 37.9956 86.8354C37.2285 86.7146 36.4819 86.4893 35.7759 86.1655C34.791 85.7734 33.9985 85.0129 33.5659 84.0454C33.3442 83.6621 33.1631 83.2566 33.0259 82.8354C32.7358 81.5654 34.916 80.5854 38.3457 80.1953C43.3657 79.9478 48.311 78.8804 52.9858 77.0354C57.502 75.1406 61.4751 72.1506 64.5459 68.3354C66.9048 65.4592 68.7637 62.2073 70.0459 58.7153C71.4697 55.127 72.457 51.3799 72.9858 47.5554L73.166 47.5554Z" fill-rule="evenodd" fill="currentColor"/>
	<defs/>
</svg>
