<svg width="24" height="24" viewBox="0 0 110 110" fill="none" xmlns="http://www.w3.org/2000/svg" xmlns:xlink="http://www.w3.org/1999/xlink">
	<path d="M80.3838 44.2556C77.1938 57.8357 44.0537 75.3057 35.3638 77.6057C35.0996 77.6943 34.8091 77.6497 34.5835 77.4856L31.0537 74.5857C31.0537 74.5857 57.9438 61.4656 62.6636 56.9255C67.3838 52.3855 80.1035 43.2356 80.1035 43.2356L80.3838 44.2556Z" fill-rule="evenodd" fill="currentColor"/>
	<path d="M30.0537 78.2957C27.79 76.8147 25.6973 75.0876 23.814 73.1455C21.9565 71.1575 20.3574 68.9434 19.0537 66.5557C16.4653 61.7383 15.2349 56.3081 15.4937 50.8455C15.5645 48.8789 15.8022 46.9219 16.2036 44.9956C16.5854 43.072 17.1616 41.1924 17.9238 39.3855C20.6025 33.0337 25.0488 27.5845 30.7339 23.6855C33.563 21.7671 36.6646 20.2839 39.9341 19.2856C40.7637 19.0854 41.5737 18.8157 42.4141 18.6755L44.9438 18.2256L47.4839 18.0356C48.334 17.9556 49.1841 18.0356 50.0239 18.0356L51.1538 18.0356L52.2739 18.1555C53.0137 18.2456 53.7637 18.2856 54.5039 18.4055C55.9756 18.6533 57.4312 18.9873 58.8638 19.4055C60.2871 19.812 61.686 20.2996 63.0537 20.8655C63.7437 21.1455 64.394 21.4956 65.0537 21.8057C65.7412 22.0957 66.4092 22.4297 67.0537 22.8057C70.4243 24.6533 73.4224 27.1118 75.894 30.0557C78.3618 33.0554 80.0151 36.6406 80.6938 40.4656C80.6938 41.6855 80.5938 42.2156 80.334 42.2356C80.0737 42.2556 79.6338 41.7656 78.874 41.0156L72.874 34.1055C68.5376 29.0315 62.6572 25.5188 56.1338 24.1055C52.8979 23.3318 49.5635 23.052 46.2437 23.2756C44.5933 23.4148 42.9575 23.6924 41.354 24.1055C39.728 24.5667 38.1401 25.1516 36.604 25.8555C32.8735 27.6848 29.6074 30.3384 27.0537 33.6155C24.4272 36.9644 22.4932 40.8022 21.3638 44.9055C20.0576 49.3701 19.9302 54.0969 20.9937 58.6255C22.1118 63.1755 24.4648 67.3284 27.7939 70.6255C29.8672 72.6951 32.2241 74.4595 34.7939 75.8655C37.3623 77.2976 40.1343 78.3293 43.0137 78.9255C47.3242 79.8782 51.8027 79.7544 56.0537 78.5657C60.3237 77.2302 64.3057 75.1069 67.7939 72.3057C70.3813 70.0874 72.5786 67.4507 74.2939 64.5056C75.9424 61.5759 77.1582 58.4233 77.9038 55.1455L78.1538 54.0754C78.2236 53.7156 78.2637 53.3555 78.3237 52.9956C78.4141 52.2756 78.584 51.5557 78.6338 50.8254C79.0039 48.0955 78.9038 46.3354 79.124 45.0754C79.2153 44.5293 79.3491 43.991 79.5239 43.4656C79.7339 43.0056 79.9141 42.6455 80.0938 42.2856C80.2739 41.9255 80.3838 41.5356 80.5137 41.2856C80.7539 40.9155 81.1338 41.2356 81.9238 42.2856C82.6313 43.334 83.0864 44.532 83.2539 45.7856C83.354 46.3406 83.4141 46.9019 83.4341 47.4656C83.623 50.9397 83.2856 54.4224 82.4341 57.7957C81.5137 61.2556 80.0884 64.5613 78.2036 67.6055C77.208 69.1316 76.1055 70.5854 74.9038 71.9556C74.3135 72.6555 73.686 73.3232 73.0239 73.9556L70.9536 75.7756L70.4438 76.2356L69.8838 76.6355L68.7539 77.4656C67.9937 77.9756 67.2739 78.5657 66.4736 78.9956L64.0537 80.2656C63.6538 80.4756 63.2539 80.7056 62.8438 80.8955L61.5737 81.4055L59.7036 82.1655C59.0737 82.437 58.4253 82.6641 57.7637 82.8455C57.084 83.0356 56.4038 83.2456 55.7637 83.4055L53.6938 83.7756C50.9434 84.1685 48.1533 84.2021 45.394 83.8755C39.9487 83.1616 34.7188 81.2932 30.0537 78.3955L30.0537 78.2957Z" fill-rule="evenodd" fill="currentColor"/>
	<path d="M71.5537 53.5757C65.9478 57.9487 59.9409 61.7822 53.6138 65.0256C51.3237 66.1958 49.0537 67.4658 46.7637 68.4658C42.6841 70.3657 38.5405 72.1392 34.334 73.7856C30.0928 75.4231 25.7505 76.7859 21.334 77.8657C19.3589 78.3813 17.3555 78.782 15.334 79.0657C14.2832 79.2034 13.2227 79.2502 12.1641 79.2058C11.0151 79.1863 9.88281 78.9346 8.83398 78.4658C8.06299 78.0989 7.40088 77.5371 6.91406 76.8357C6.4458 76.124 6.15088 75.3123 6.05371 74.4658C5.95703 73.6755 5.99072 72.875 6.15381 72.0957C6.32422 71.3716 6.5791 70.6699 6.91406 70.0056C8.18115 67.4785 10.2534 65.4448 12.8037 64.2258C13.624 63.8557 14.1138 63.9658 14.1841 64.2258C14.2539 64.4858 14.0239 65.0356 13.6938 65.7058C13.3638 66.3757 12.9038 67.1858 12.394 68.1458C12.1338 68.6057 11.894 69.1458 11.604 69.6157L10.6538 71.1558C10.147 71.8806 9.82471 72.7183 9.71387 73.5957C9.69043 73.9329 9.72754 74.2717 9.82373 74.5957C9.88232 74.8071 10.0088 74.9934 10.1841 75.1257C10.8843 75.5686 11.6953 75.8044 12.5239 75.8057C13.6636 75.856 14.8052 75.7991 15.9341 75.6357C17.124 75.4858 18.334 75.2556 19.5439 74.9858C20.7539 74.7158 21.9541 74.2957 23.1538 73.9158C25.5537 73.1357 27.9541 72.2756 30.354 71.3757C36.2471 69.1506 41.9976 66.5659 47.5737 63.6357C50.6938 62.0857 53.7539 60.5256 56.7041 58.7556C59.6538 56.9858 62.5439 55.0857 65.3237 53.0457C68.7563 50.5322 72.0449 47.8281 75.1738 44.9458C77.5337 42.7258 79.834 40.4658 82.0537 38.0857C83.144 36.9058 84.2041 35.6758 85.314 34.4558C86.4238 33.2358 87.4639 32.0557 88.4038 30.8157C89.1304 29.8838 89.7573 28.8784 90.2739 27.8157C90.394 27.5557 90.5239 27.3057 90.6138 27.0457L90.7637 26.6658C90.7988 26.574 90.8286 26.4805 90.854 26.3857C90.9453 26.0872 90.9956 25.7778 91.0039 25.4658C90.999 25.1663 90.8452 24.8887 90.5938 24.7258C90.3423 24.5796 90.0547 24.5068 89.7637 24.5156C89.4277 24.5325 89.0933 24.5759 88.7637 24.6458C88.2378 24.739 87.7241 24.8933 87.2339 25.1057C86.3276 25.4868 85.4712 25.9771 84.6841 26.5657C83.5146 27.2039 82.3013 27.7585 81.0537 28.2258C80.6479 28.3213 80.231 28.3616 79.814 28.3457C79.4238 28.2773 79.0396 28.1804 78.6641 28.0557C78.334 27.9458 77.9639 27.9058 77.7339 27.7957C77.334 27.6157 77.374 27.1558 77.644 26.2258C78.1084 25.001 78.9438 23.9519 80.0337 23.2258C82.0845 21.6646 84.4893 20.634 87.0337 20.2258C87.7739 20.0312 88.5308 19.9072 89.2939 19.8557C90.3555 19.7722 91.4229 19.9014 92.4341 20.2358C93.4048 20.5657 94.2568 21.1743 94.8838 21.9858C95.4961 22.8174 95.8252 23.8232 95.8237 24.8557C95.7637 25.9404 95.5381 27.0095 95.1538 28.0256C95.0903 28.2336 95.0137 28.4375 94.9238 28.6357L94.7139 29.1257C94.564 29.4558 94.4038 29.7556 94.2441 30.0757C93.6172 31.2693 92.8843 32.4038 92.0537 33.4658C90.4941 35.4658 88.7939 37.2458 87.3037 38.9158C82.5146 44.2678 77.2715 49.196 71.6338 53.6458L71.5537 53.5757Z" fill-rule="evenodd" fill="currentColor"/>
	<path d="M39.3638 45.3955C38.9458 45.6541 38.5034 45.8716 38.0439 46.0457C37.5981 46.1724 37.1436 46.2659 36.6841 46.3257C35.8413 46.3997 34.9922 46.3286 34.1738 46.1155L33.3037 45.8955C33.0078 45.792 32.7202 45.6648 32.4438 45.5156C31.4512 44.9458 30.6797 44.0579 30.2539 42.9956C30.0542 42.4822 29.9492 41.9365 29.9438 41.3855C29.9438 41.1155 29.9438 40.8555 30.0337 40.6055L30.2339 39.8655C30.5171 39.0513 30.9629 38.3027 31.5439 37.6655C32.2192 36.8391 33.1929 36.3113 34.2539 36.1956C34.5737 36.1956 34.584 36.4456 34.4536 36.8257C34.3101 37.2522 34.0786 37.644 33.7739 37.9756C33.4873 38.2095 33.2466 38.4941 33.064 38.8157C32.8901 39.1104 32.7651 39.4312 32.6938 39.7656C32.6221 40.0635 32.5884 40.3691 32.5938 40.6755C32.6138 40.9619 32.6138 41.2493 32.5938 41.5356C32.5938 42.2656 33.2939 42.7456 34.064 43.0356C34.9521 43.4141 35.9487 43.4534 36.8638 43.1455C37.3638 42.9241 37.7808 42.5493 38.0537 42.0757C38.5181 41.2866 38.6235 40.3372 38.3438 39.4656C38.0991 38.8015 37.6729 38.2195 37.1138 37.7856C36.9795 37.7104 36.8525 37.6235 36.7339 37.5256C36.3521 37.1853 36.2139 36.6479 36.3838 36.1655C36.3838 36.0256 36.4341 35.8755 36.4639 35.7356C36.584 35.2856 37.0337 35.0557 37.7837 35.1155C38.9512 35.3159 40.0122 35.9172 40.7837 36.8157C41.2036 37.2935 41.5415 37.8374 41.7837 38.4255C41.8638 38.7356 41.9341 39.0557 41.9839 39.3755C42.0337 39.6956 41.9839 40.0356 42.0337 40.3755C42.0088 42.3896 41.0386 44.2749 39.4141 45.4656L39.3638 45.3955Z" fill-rule="evenodd" fill="currentColor"/>
	<defs/>
</svg>
