<svg width="24" height="24" viewBox="0 0 110 110" fill="none" xmlns="http://www.w3.org/2000/svg" xmlns:xlink="http://www.w3.org/1999/xlink">
	<path d="M61.3354 84.5781C58.0068 85.7896 54.54 86.5825 51.0156 86.938C47.5244 87.3032 44.002 87.2432 40.5259 86.7583C37.0132 86.2871 33.5898 85.2998 30.3657 83.8281C27.0503 82.3125 24.0845 80.127 21.6558 77.4082C18.0854 73.3789 16.0806 68.2012 16.0059 62.8184C15.9609 60.5571 16.1792 58.2988 16.6558 56.0884C17.0635 53.8857 17.7349 51.7402 18.6558 49.6982C20.4961 45.6113 23.1816 41.9609 26.5356 38.9883C28.2544 37.4878 30.1982 36.2661 32.2959 35.3682C34.5029 34.4292 36.9053 34.041 39.2959 34.2383C43.9619 34.5762 48.292 36.7915 51.2959 40.3779C52.5664 41.9526 53.5542 43.7358 54.2158 45.6479C54.9312 47.5103 55.3662 49.4683 55.5059 51.458C55.5718 52.4878 55.5181 53.521 55.3457 54.5381C55.1602 55.5815 54.8232 56.5923 54.3457 57.5381C53.3726 59.4351 51.877 61.0137 50.0356 62.0884C47.7222 63.4707 45.0288 64.0801 42.3457 63.8281C40.96 63.6807 39.6172 63.2593 38.3955 62.5884C37.0884 61.8818 36.0073 60.8213 35.2759 59.5283C34.5698 58.2114 34.2705 56.7148 34.4155 55.228C34.5347 53.8208 34.958 52.4561 35.6558 51.228C35.9883 50.6211 36.3984 50.0596 36.8755 49.5581C37.3735 49.0625 37.9272 48.6265 38.5259 48.2583C39.7412 47.5054 41.1743 47.1816 42.5957 47.3384C43.2178 47.3984 43.8154 47.6113 44.3354 47.958C44.6558 48.188 44.7559 48.3384 44.6855 48.4282C44.6157 48.5181 43.7456 48.4282 42.5957 48.7383C41.1899 49.1646 40.0742 50.2393 39.5957 51.6279C39.2402 52.4146 38.978 53.2402 38.8154 54.0884C38.6704 54.9082 38.6978 55.7495 38.8955 56.5581C39.0347 57.1611 39.3516 57.708 39.8057 58.1279C40.3813 58.6421 41.0649 59.0215 41.8057 59.2383C43.5088 59.7085 45.3218 59.585 46.9458 58.8882C48.561 58.2695 49.8853 57.0669 50.6558 55.5181C51.3076 53.8086 51.4087 51.938 50.9458 50.168C50.7188 49.166 50.4146 48.1831 50.0356 47.228C49.8257 46.7383 49.6157 46.228 49.3857 45.7681C49.1558 45.3081 48.9458 44.938 48.6855 44.5381C47.5981 42.9429 46.1484 41.627 44.4556 40.6982C42.7329 39.7388 40.8359 39.1333 38.8755 38.918C37.9126 38.8179 36.9404 38.8481 35.9858 39.0083C35.0156 39.1763 34.0708 39.4688 33.1758 39.8779C32.0244 40.4277 30.9351 41.0981 29.9258 41.8779C28.8848 42.6953 27.9209 43.6055 27.0459 44.5981C25.2324 46.6309 23.7905 48.9663 22.7856 51.498C22.2949 52.7451 21.9165 54.0337 21.6558 55.3481C21.5059 55.9883 21.4155 56.6782 21.3154 57.3481C21.2109 58.0103 21.144 58.6782 21.1157 59.3481C20.8828 62 21.144 64.6719 21.8857 67.228C22.2988 68.5869 22.8691 69.8921 23.5854 71.1182C24.3359 72.3193 25.2178 73.4331 26.2158 74.438C28.3218 76.4624 30.8149 78.0405 33.5459 79.0781C39.2549 81.1841 45.4185 81.7495 51.4155 80.7183C53.2593 80.457 55.0786 80.0454 56.8555 79.4883C58.626 78.9375 60.3403 78.2212 61.9756 77.3481C63.6211 76.499 65.1816 75.4941 66.6357 74.3481C68.085 73.1982 69.4238 71.916 70.6357 70.5181C74.3936 66.2363 76.9531 61.0376 78.0557 55.4482C78.5908 52.6621 78.749 49.8164 78.5259 46.9883C78.3052 44.1753 77.6753 41.4092 76.6558 38.7783C75.8384 36.7637 74.7842 34.8535 73.5156 33.0884C72.2456 31.3613 70.8047 29.7666 69.2158 28.3281C67.6338 26.9487 65.9072 25.7451 64.0654 24.7383C62.2241 23.7905 60.2866 23.043 58.2856 22.5083C56.522 22.1025 54.7241 21.8618 52.9155 21.7881C49.5259 21.5981 47.2759 21.8979 45.6357 21.7881C44.9248 21.8008 44.2163 21.7031 43.5356 21.498C42.9595 21.3433 42.4146 21.0898 41.9258 20.748C41.437 20.4829 40.9751 20.1714 40.5459 19.8184C39.9756 19.228 40.3555 18.4482 41.6255 17.5581C43.604 16.3389 45.8267 15.5708 48.1357 15.3081C50.4248 14.9932 52.7412 14.9194 55.0459 15.0884C57.4224 15.2739 59.7705 15.7271 62.0459 16.438C64.3721 17.1665 66.6016 18.1738 68.6855 19.438C69.7227 20.0693 70.7241 20.7573 71.6855 21.498C72.1758 21.8682 72.6255 22.2783 73.0957 22.6782C73.5732 23.0645 74.0303 23.4751 74.4658 23.9082L75.7559 25.208C76.1958 25.6479 76.5654 26.1279 76.9658 26.5884C77.7642 27.5239 78.5122 28.502 79.2056 29.5181C80.6191 31.5771 81.8125 33.7793 82.7656 36.0884C84.624 40.7275 85.4956 45.7031 85.3257 50.6982C85.0557 58.0811 82.6714 65.231 78.4556 71.2983C74.2812 77.3926 68.3525 82.0728 61.4556 84.7183L61.3354 84.5781Z" fill-rule="evenodd" fill="currentColor"/>
	<defs/>
</svg>
