<svg width="24" height="24" viewBox="0 0 110 110" fill="none" xmlns="http://www.w3.org/2000/svg" xmlns:xlink="http://www.w3.org/1999/xlink">
	<path d="M67.9736 37.0193C58.4136 38.5693 52.6836 27.7192 52.6836 27.7192L55.3638 24.1992C56.6064 27.4346 58.8667 30.179 61.8037 32.0193C66.4136 34.6392 68.5835 33.8792 68.5835 33.8792L67.9736 37.0193Z" fill-rule="evenodd" fill="currentColor"/>
	<path d="M29.8032 71.5693C29.9736 70.7793 31.3633 69.8093 31.9834 69.4294C34.2344 68.3293 36.9204 68.646 38.8535 70.2393C45.0234 75.7593 32.6436 77.1094 35.4336 82.2393C36.1235 83.5193 30.3833 88.6394 30.3833 88.6394C30.3833 88.6394 28.1133 77.9993 29.0835 74.1892C30.0532 70.3794 29.8032 71.5593 29.8032 71.5693Z" fill-rule="evenodd" fill="currentColor"/>
	<path d="M69.6934 26.7593C70.3208 25.3057 70.8516 23.8125 71.2837 22.2893C71.6802 20.918 71.8789 19.4968 71.8735 18.0693C71.8735 17.7393 71.8037 17.4893 71.7935 17.1992C71.7397 16.9646 71.6694 16.7341 71.5835 16.5093C71.519 16.325 71.4243 16.1526 71.3037 15.9993C71.1777 15.8123 71.0264 15.6438 70.8535 15.4993C70.1235 14.8738 69.1318 14.6494 68.2036 14.8992C66.4937 15.2393 64.5938 16.6094 62.8237 18.0393C59.584 20.7937 56.6743 23.9146 54.1533 27.3394C51.6582 30.8313 49.5747 34.5994 47.9434 38.5693C46.4365 42.1506 45.1606 45.8247 44.1235 49.5693C43.4233 51.9492 42.9233 54.3892 42.2734 56.7993L40.2734 63.9893C39.8838 65.4592 39.2734 65.2292 38.7534 63.7893C38.0049 61.5366 37.749 59.1494 38.0034 56.7893C39.7036 46.4993 42.7036 36.2493 48.7734 27.1294C50.6836 24.3992 52.6235 21.8694 54.8037 19.3992C56.9238 16.7461 59.3926 14.3914 62.1436 12.3992C63.8374 11.2188 65.7695 10.4233 67.8037 10.0693C69.0063 9.91138 70.2295 10.0242 71.3838 10.3992C72.5122 10.7683 73.5391 11.3948 74.3838 12.2292C74.8203 12.6667 75.209 13.1494 75.5435 13.6692C75.8462 14.1804 76.0913 14.7239 76.2734 15.2893L76.5137 16.1094L76.6338 16.9092C76.7056 17.4294 76.7393 17.9541 76.7334 18.4792C76.6968 20.4009 76.397 22.3086 75.8438 24.1492C74.5513 28.4036 72.7158 32.4739 70.3838 36.2593C66.9634 41.9692 62.7236 47.0293 58.5835 52.0093C55.3335 55.8694 52.1733 59.6692 48.7734 63.3193C48.0337 64.1194 47.3237 64.9292 46.5337 65.7092C45.4917 66.7202 44.3491 67.6216 43.1235 68.3992C42.4917 68.76 41.7886 68.9783 41.0635 69.0393C40.814 69.062 40.563 69.062 40.3135 69.0393C40.0034 69.0393 40.0737 68.6094 40.4136 67.8992C40.9009 66.8293 41.5151 65.8223 42.2437 64.8992C42.9434 64.0293 43.5537 63.0894 44.2935 62.2593L46.4536 59.6892L50.8037 54.5593C53.6934 51.0393 56.5737 47.4592 59.2734 43.7693C61.2734 41.0493 63.1533 38.2192 64.9536 35.4092C66.7651 32.6636 68.3149 29.7542 69.5835 26.7192L69.6934 26.7593Z" fill-rule="evenodd" fill="currentColor"/>
	<path d="M26.4336 82.3992C26.4336 82.2493 26.4336 82.0393 26.3237 81.9492L26.3237 81.6792L26.2534 81.1392L26.1436 80.0393C26.0835 79.3093 26.0337 78.5693 26.0137 77.8293C25.9644 76.2849 26.0483 74.7393 26.2637 73.2092C26.3682 71.9717 26.6514 70.7559 27.1035 69.5994C27.6309 68.4712 28.3672 67.4531 29.2734 66.5994C29.7339 66.1396 30.2476 65.7368 30.8037 65.3992C31.3081 65.1333 31.8296 64.8994 32.3638 64.6992C34.5293 63.8289 36.9478 63.8289 39.1138 64.6992C40.9521 65.4402 42.5288 66.7104 43.6436 68.3494C44.3394 69.3408 44.7822 70.4873 44.9336 71.6892C44.9336 71.9792 44.9336 72.2793 44.9336 72.5693C44.9116 72.8542 44.875 73.1379 44.8237 73.4192C44.7456 73.9756 44.5977 74.52 44.3838 75.0393C44.1338 75.6892 43.7637 75.5093 43.2134 74.9492C42.9336 74.6692 42.6338 74.2993 42.2637 73.9492C41.8921 73.5896 41.5415 73.209 41.2134 72.8093C40.8408 72.2336 40.4229 71.6887 39.9634 71.1792C39.5405 70.814 39.0654 70.5139 38.5537 70.2893C38.062 70.1309 37.5562 70.0203 37.0435 69.9592C36.9141 69.9741 36.7832 69.9741 36.6538 69.9592C36.5186 69.9062 36.3774 69.8694 36.2334 69.8494C35.9282 69.7795 35.6167 69.7427 35.3037 69.7393C35.1016 69.7251 34.8989 69.7454 34.7036 69.7993C34.4946 69.824 34.2915 69.8848 34.1035 69.9792C33.9336 70.0693 33.6538 70.1692 33.5635 70.2393C33.4355 70.3176 33.3179 70.4116 33.2134 70.5193C32.6992 71.1384 32.3022 71.8469 32.0435 72.6091C31.2349 74.9546 30.8721 77.4304 30.9736 79.9092L30.9736 81.1292L30.9736 81.8792C30.9736 82.3093 31.0435 82.7593 31.1138 83.2192L31.2637 84.1392L31.3535 84.6292L31.3535 84.6892L31.4238 84.6191L31.5537 84.4692L33.1934 82.6892L33.9336 81.8494L34.9834 80.7192C35.751 79.8633 36.6016 79.0862 37.5234 78.3992C37.9253 78.0947 38.354 77.8269 38.8037 77.5994C39.5312 77.1948 40.3853 77.0806 41.1934 77.2793C41.7476 77.4519 42.1221 77.9688 42.1138 78.5493C42.1538 78.8176 42.1538 79.0908 42.1138 79.3591C41.979 79.7256 41.7793 80.0645 41.5234 80.3591C41.3721 80.6245 41.168 80.856 40.9238 81.0393C39.7563 81.834 38.6621 82.731 37.6538 83.7192L36.7534 84.5793L36.5234 84.7993C36.4434 84.8691 36.4038 84.9292 36.1836 85.1191L35.1836 86.1191C34.5537 86.7893 33.9238 87.4192 33.3037 88.1191L31.4736 90.3992L29.2734 92.9792C28.8638 91.2693 28.4434 89.5493 28.0234 87.8394C27.1465 86.1372 26.5679 84.2971 26.3135 82.3992L26.4336 82.3992Z" fill-rule="evenodd" fill="currentColor"/>
	<path d="M61.8037 33.7993C60.7388 33.1707 59.7344 32.4441 58.8037 31.6294C58.4839 31.3193 58.104 31.0994 57.8037 30.7793C56.7847 29.6121 55.9424 28.3013 55.3037 26.8892C55.1641 26.5793 55.0439 26.2693 54.894 25.9692C54.7222 25.6843 54.5874 25.3784 54.4937 25.0593C54.3608 24.6526 54.2505 24.2385 54.1641 23.8193C54.1191 23.3887 54.1392 22.9539 54.2236 22.5293C54.2837 22.2593 54.7739 22.2493 55.3438 22.3694C55.8892 22.4285 56.4028 22.6558 56.814 23.0193C57.5835 24.0984 58.1841 25.2888 58.5938 26.5493C59.0049 27.2988 59.5962 27.9346 60.314 28.3992C61.0337 29.0283 61.814 29.5845 62.644 30.0593C63.1621 30.3567 63.7041 30.6108 64.2637 30.8193C65.1113 31.1382 66.0005 31.3335 66.9038 31.3992C67.5898 31.3953 68.269 31.2593 68.9038 30.9993C69.0381 30.9495 69.1812 30.929 69.3237 30.9392C69.834 30.9392 70.064 31.1892 70.394 31.9392C70.4639 32.1094 70.5537 32.2793 70.6138 32.4492C70.8452 32.9985 70.7002 33.6343 70.2539 34.0293C69.6147 34.678 68.7695 35.0845 67.8638 35.1792C67.0039 35.3291 66.124 35.3291 65.2637 35.1792C64.0332 34.8855 62.8467 34.4316 61.7339 33.8293L61.8037 33.7993Z" fill-rule="evenodd" fill="currentColor"/>
	<defs/>
</svg>
