<svg width="24" height="24" viewBox="0 0 110 110" fill="none" xmlns="http://www.w3.org/2000/svg" xmlns:xlink="http://www.w3.org/1999/xlink">
	<path d="M62.3374 40.5938L62.3877 38.4539L62.3877 37.3838L62.3877 36.7239C62.4609 36.4846 62.5181 36.2407 62.5576 35.9939C62.6821 35.2024 62.7588 34.4043 62.7876 33.6038C62.8032 33.3411 62.7764 33.0776 62.7075 32.8237C62.7109 32.8005 62.7109 32.7771 62.7075 32.7539C62.7075 32.7539 62.6577 32.8037 62.6475 32.8237L62.5776 33.0039C62.5498 33.0894 62.5098 33.1704 62.4575 33.2439C62.2275 33.5938 61.8174 34.1538 61.0176 35.2439L58.5776 38.3738C58.0073 39.1538 57.3276 39.8438 56.6875 40.5737L55.6875 41.6538L54.6875 42.6538C52.2637 45.1238 49.5815 47.3264 46.6875 49.2239C44.7749 50.3752 42.7388 51.3076 40.6177 52.0039C39.5537 52.354 38.4585 52.6018 37.3477 52.7439C36.2295 52.834 35.1055 52.834 33.9873 52.7439C32.5977 52.6038 32.8076 51.9238 33.7974 50.9438C34.0474 50.6938 34.3374 50.4238 34.6675 50.1438C34.9976 49.8638 35.3477 49.5139 35.7275 49.1938C36.1074 48.8738 36.5073 48.5337 36.9277 48.1938C37.3652 47.908 37.8271 47.6604 38.3076 47.4539C40.0244 46.6733 41.6621 45.729 43.1978 44.6338C43.9575 44.0837 44.7476 43.5637 45.5273 43.0337C46.3076 42.5039 47.0474 41.8838 47.7676 41.2439C49.2578 39.9412 50.667 38.5486 51.9873 37.0737C52.6274 36.3237 53.3477 35.6338 53.9873 34.8337L54.9375 33.6838L55.4175 33.1038L55.5474 32.9438L55.7275 32.6438L56.0977 32.0237C56.6675 31.0737 57.2373 30.1038 57.8076 29.1438L58.6274 27.7139C58.9077 27.2439 59.1875 26.5737 59.4673 26.0237L61.1177 22.5139L61.9375 20.7439L62.0376 20.5237L62.0376 20.4138L62.1875 20.2737L62.4873 20.0139L64.7275 18.0139L65.9375 17.0139C65.979 16.9954 66.0264 16.9954 66.0674 17.0139C66.1494 17.0293 66.2256 17.0674 66.2876 17.1238C66.3779 17.196 66.4614 17.2764 66.5376 17.3638C66.6821 17.533 66.8125 17.7136 66.9277 17.9038C67.1675 18.3037 67.3975 18.7339 67.6377 19.2039C68.2827 20.5811 68.666 22.0664 68.7676 23.5837C68.9673 25.5837 69.0474 27.9138 69.1274 30.1538L69.2275 33.5337L69.2275 35.2339L69.2275 36.8438C69.1675 40.4138 69.1177 43.9839 69.0576 47.5437C68.9976 52.9438 68.7876 58.3638 68.8477 63.7239C68.8477 67.8838 69.3174 71.9739 69.5073 76.1138C69.5073 77.0237 69.6577 77.9238 69.6577 78.8438C69.6577 82.2639 69.0977 83.3638 67.2173 83.9739C66.7974 84.1375 66.3662 84.2712 65.9277 84.3738C64.4775 84.5837 63.4077 83.1738 63.0874 80.7239C62.2363 73.1851 61.8691 65.5996 61.9873 58.0139C61.9873 52.2639 62.0576 46.4939 62.0874 40.7339L62.3374 40.5938Z" fill-rule="evenodd" fill="currentColor"/>
	<defs/>
</svg>
