<svg width="24" height="24" viewBox="0 0 110 110" fill="none" xmlns="http://www.w3.org/2000/svg" xmlns:xlink="http://www.w3.org/1999/xlink">
	<path d="M38.1812 54.1934C37.5469 55.6321 37.0317 57.1204 36.6411 58.6436C36.4727 59.2991 36.3623 59.9683 36.311 60.6436L36.311 61.1733C36.3081 61.2791 36.3252 61.3843 36.3613 61.4834C36.3945 61.575 36.458 61.6526 36.541 61.7034C36.6333 61.759 36.7349 61.7964 36.8413 61.8135L37.001 61.8135C37.084 61.824 37.168 61.824 37.251 61.8135C39.2671 61.991 41.2979 61.9036 43.291 61.5535C45.479 61.1755 47.6455 60.6816 49.7812 60.0735C51.6841 59.4915 53.5454 58.7798 55.3511 57.9434C57.6094 56.8071 59.9741 55.896 62.4111 55.2234C63.0811 55.0635 63.6011 55.8535 63.4712 57.0935C63.3208 58.5688 62.5498 59.9104 61.3511 60.7834C60.7612 61.1436 60.1812 61.4934 59.5811 61.8335C58.981 62.1733 58.3511 62.4033 57.7412 62.6833C56.4912 63.2034 55.231 63.6833 53.9512 64.1335C51.3481 65.0337 48.6714 65.7031 45.9512 66.1335C44.3013 66.3936 42.6509 66.7634 40.9512 67.0735C40.0479 67.2358 39.1367 67.3494 38.2212 67.4133C37.7412 67.4133 37.271 67.4133 36.7012 67.4133C36.0234 67.366 35.353 67.2454 34.7012 67.0535C34.0854 66.8379 33.498 66.5493 32.9512 66.1934C31.9502 65.3806 31.2466 64.2588 30.9512 63.0034C30.8604 62.676 30.7969 62.3416 30.7612 62.0034L30.7012 61.5334C30.6919 61.4036 30.6919 61.2732 30.7012 61.1436C30.6704 60.6538 30.6704 60.1628 30.7012 59.6733C30.8618 57.9153 31.2207 56.1809 31.771 54.5034C32.4814 52.3516 33.3433 50.2529 34.3511 48.2234C35.8213 45.1235 37.5713 42.2234 39.2412 39.2234C40.541 36.9534 41.6411 34.5935 43.041 32.3535C43.3335 31.8589 43.668 31.3906 44.041 30.9534C45.5112 29.3635 46.3511 29.1235 47.501 29.5535C47.7764 29.6375 48.0439 29.7446 48.3013 29.8735C49.1011 30.3235 49.1211 31.4634 48.561 32.8735L47.9312 34.5535L47.6211 35.3535C47.5112 35.6135 47.3711 35.8535 47.2412 36.1035L45.6611 39.1035C44.5913 41.1035 43.4912 43.1035 42.4512 45.1035C40.8818 48.0518 39.5122 51.1018 38.3511 54.2334L38.1812 54.1934Z" fill-rule="evenodd" fill="currentColor"/>
	<path d="M37.3511 51.4834C35.9844 53.8438 34.7622 56.2849 33.6909 58.7935C33.168 59.9771 32.7207 61.1929 32.3511 62.4333C32.1909 62.9934 32.0713 63.7334 32.061 63.6934C32.0259 63.8616 32.0259 64.0352 32.061 64.2034C32.0674 64.3298 32.1343 64.4453 32.2412 64.5134C32.3491 64.5723 32.4688 64.6064 32.5913 64.6133C32.731 64.6133 32.8511 64.6133 32.981 64.6133C33.0107 64.6084 33.0415 64.6084 33.0713 64.6133L33.3511 64.6133L34.041 64.6133C37.5024 64.2803 40.9121 63.542 44.2012 62.4133C47.6411 61.3235 51.0513 59.9834 54.4409 58.5833C57.4409 57.3235 60.3813 55.8433 63.2412 54.3135C65.0913 53.3135 66.8613 52.2334 68.771 51.3633C70.6812 50.4934 72.5713 49.6133 74.5713 48.8733C75.8511 48.4133 76.0312 49.2034 75.4912 50.5034C74.667 52.3699 73.3755 53.9919 71.7412 55.2134C70.8413 55.8235 69.9912 56.5034 69.0513 57.0435L66.231 58.6433C64.3413 59.6433 62.4214 60.7034 60.4712 61.6433C56.5688 63.6013 52.5161 65.2432 48.3511 66.5535C45.8213 67.3533 43.271 68.2634 40.6011 69.0535C39.2397 69.4592 37.8579 69.793 36.4609 70.0535C35.7339 70.1978 34.9995 70.3047 34.2612 70.3733L33.6909 70.3733L33.0112 70.3733C32.4614 70.4529 31.9053 70.4763 31.3511 70.4434C30.8882 70.4087 30.4277 70.3486 29.9712 70.2634C29.4604 70.116 28.9624 69.9287 28.481 69.7034C28.0112 69.4558 27.5962 69.1157 27.2612 68.7034C26.5957 67.8337 26.1899 66.7937 26.0913 65.7034C26.0093 65.1541 25.9824 64.5979 26.0112 64.0435C26.0112 63.7634 26.0112 63.4934 26.061 63.2034L26.1113 62.7834L26.1113 62.4834C26.2305 61.7122 26.3906 60.9478 26.5913 60.1934C27.3613 57.3879 28.3652 54.6516 29.5913 52.0134C31.1211 48.6633 32.8711 45.4534 34.6909 42.3035C37.5112 37.5535 40.6611 33.0234 43.8413 28.5535C46.3613 25.1133 48.6714 21.5535 51.541 18.3135C52.1714 17.5933 52.7612 16.8433 53.4712 16.1733C54.3511 15.1953 55.4663 14.4585 56.7109 14.0334C57.6118 13.9082 58.5264 14.1377 59.2612 14.6733C59.6362 14.8933 59.9971 15.1372 60.3413 15.4033C60.8325 15.916 61.0151 16.6504 60.8213 17.3333C60.6699 18.3291 60.2397 19.2615 59.5811 20.0234C57.3511 22.7134 55.2212 25.5535 53.0513 28.4634L46.4912 37.4634C43.1963 41.9788 40.1899 46.6982 37.4912 51.5933L37.3511 51.4834Z" fill-rule="evenodd" fill="currentColor"/>
	<path d="M59.041 66.7334C59.1812 63.9434 59.3008 61.1433 59.3408 58.3335C59.3408 57.3335 59.1611 56.3335 59.231 55.2734C59.4512 51.6433 59.6909 47.9934 59.731 44.3633C59.731 42.7434 59.731 41.1233 59.6011 39.5334C59.3184 37.45 59.3555 35.3357 59.7109 33.2634C59.8809 32.5835 60.771 32.7034 61.7109 33.2134C62.2354 33.4834 62.7227 33.8193 63.1611 34.2134C63.6289 34.6091 63.9756 35.1292 64.1611 35.7134C64.6509 37.7134 65.1611 39.7834 65.4609 41.8433C65.6328 42.8809 65.71 43.9319 65.6909 44.9834C65.6909 46.0334 65.6909 47.0933 65.5908 48.1633C65.3911 50.7134 66.001 53.3035 66.1709 55.8933C66.291 58.7434 66.2812 61.6033 66.2812 64.4734L66.2812 69.7634C66.2812 72.4333 66.1509 75.1233 66.2812 77.7634C66.2812 78.7634 66.3711 79.8433 66.4912 80.8833L66.6509 82.4434C66.6509 82.9734 66.7109 83.5034 66.7212 84.0334C66.7461 84.5029 66.7461 84.9736 66.7212 85.4434C66.3208 87.2334 65.7212 87.7234 64.0908 87.8035C63.7378 87.823 63.3843 87.823 63.0312 87.8035C61.8486 87.665 60.854 86.8538 60.481 85.7234C60.1255 84.8867 59.8574 84.0154 59.6812 83.1233C59.501 82.2634 59.311 81.3733 59.1509 80.4734C58.9912 79.5735 58.8711 78.6934 58.771 77.7734C58.6709 76.8533 58.771 75.9434 58.771 75.0234C58.771 73.6433 58.771 72.2634 58.8208 70.8733L58.8208 66.6733L59.041 66.7334Z" fill-rule="evenodd" fill="currentColor"/>
	<defs/>
</svg>
