<svg width="24" height="24" viewBox="0 0 110 110" fill="none" xmlns="http://www.w3.org/2000/svg" xmlns:xlink="http://www.w3.org/1999/xlink">
	<path d="M52.3896 57.5911C42.5098 57.5911 13.8198 38.051 13.8198 38.051C13.8198 38.051 14.9097 32.9211 15.2598 33.8311C15.5 34.4612 51.5796 51.7312 51.5796 51.7312L52.3896 57.5911Z" fill-rule="evenodd" fill="currentColor"/>
	<path d="M79.3901 73.6609C83.2402 65.8711 83.2402 43.491 79.3901 37.1909L87.1401 33.021L86.96 67.021L79.3901 73.6609Z" fill-rule="evenodd" fill="currentColor"/>
	<path d="M17.29 62.8411L17.2402 65.7312L17.2402 67.1912C17.2144 67.2798 17.1943 67.3699 17.1802 67.4612C17.1201 67.6611 17.3101 67.771 17.4302 67.9211C18.1201 68.4011 18.96 68.9211 19.77 69.4312C20.9702 70.1711 22.27 70.7412 23.4902 71.4312L30 75.4312L33.2598 77.4312L36.5 79.4312C38.4199 80.6311 40.4199 81.7112 42.3901 82.781C43.6602 83.4812 44.9502 84.1311 46.1899 84.8811C47.4126 85.6875 48.5635 86.5974 49.6299 87.6011C50.2998 88.2412 49.8501 88.7312 48.79 89.031C47.3623 89.4153 45.8579 89.4153 44.4302 89.031C41.77 87.8611 39.1499 86.6311 36.54 85.3611C33.8906 84.1094 31.3315 82.676 28.8799 81.071C25.9302 79.071 22.5 77.751 19.29 76.071L16.6401 74.6111L15.3198 73.8411L13.7998 72.9011C13.1333 72.4944 12.5215 72.0037 11.98 71.4412C11.6899 71.1812 11.6201 70.771 11.3799 70.4912C11.2998 70.1211 11.1699 69.761 11.1201 69.3811L11 68.1912L11 67.6211L11 67.1912L11 65.6611C11 63.1711 11 60.6611 11 58.2312C11 54.501 11.25 50.751 11.29 47.041C11.29 44.1511 11.0098 41.281 11.02 38.321C11.0034 37.6531 11.0337 36.9849 11.1099 36.321C11.1885 35.8022 11.3086 35.2905 11.4702 34.791C11.6216 34.4124 11.8535 34.071 12.1499 33.791C12.6865 33.376 13.3521 33.1636 14.0298 33.1912C14.3896 33.1667 14.7505 33.1667 15.1099 33.1912C16.2402 33.301 17.0298 34.4512 17.48 36.0811L17.6899 37.8911C17.7891 38.4995 17.8394 39.1147 17.8398 39.7312C17.8999 40.9712 17.8901 42.2112 17.8999 43.4912C17.8999 46.011 17.8301 48.6211 17.7402 51.2212C17.6299 55.0911 17.4502 59.021 17.4502 62.9111L17.29 62.8411Z" fill-rule="evenodd" fill="currentColor"/>
	<path d="M54.98 65.551C54.79 67.2212 54.6499 68.9111 54.5898 70.6211C54.5898 71.2412 54.7197 71.8511 54.6699 72.4812C54.4297 74.7012 54.2397 76.9412 54.2397 79.1912C54.21 79.6873 54.21 80.1848 54.2397 80.6812L54.2397 82.1711C54.3989 83.4805 54.3247 84.8079 54.02 86.0911C53.8896 86.5112 53.3301 86.4412 52.6797 86.0911C51.9429 85.8044 51.3257 85.2754 50.9297 84.5911C50.71 84.0012 50.4697 83.3711 50.2598 82.7612C50.0205 82.1511 49.8462 81.5176 49.7397 80.8711C49.6099 79.5645 49.6099 78.2478 49.7397 76.9412C49.8999 75.3411 49.4297 73.7312 49.3799 72.1111C49.3799 70.321 49.4497 68.5212 49.54 66.7312L49.7798 63.4111C49.8799 61.7412 50.1997 60.071 50.3599 58.4111C50.4297 57.7468 50.4531 57.0786 50.4297 56.4111C50.4297 55.7612 50.4297 55.0811 50.5601 54.4111C50.584 54.1172 50.6475 53.8279 50.75 53.551C51.1499 52.5012 51.5898 52.2712 52.6201 52.3811C52.855 52.3918 53.0889 52.4185 53.3198 52.4612C54.0649 52.6494 54.6367 53.248 54.79 54.0012C54.9097 54.561 55.0298 55.1011 55.1899 55.6711C55.3501 56.2412 55.2798 56.7412 55.2998 57.2712C55.3896 58.3711 55.3501 59.4312 55.3799 60.5312C55.4297 62.1511 55.1201 63.811 55.0898 65.5312L54.98 65.551Z" fill-rule="evenodd" fill="currentColor"/>
	<path d="M91.1299 58.6211L90.6899 62.781L90.4302 64.9011L90.2402 66.021C90.2402 66.1812 90.1802 66.4412 90.1201 66.7612C90.0601 67.0811 89.9902 67.3511 89.9199 67.6511L89.8101 67.9812L89.75 68.1511C89.6401 68.1511 89.6802 68.2512 89.6299 68.301C89.5327 68.5161 89.4189 68.7234 89.29 68.9211C89.1743 69.1299 89.0215 69.3162 88.8403 69.4712C88.6802 69.6509 88.5098 69.8213 88.3301 69.9812L87.7803 70.4412L87.5103 70.6611L87.3203 70.791C87.0801 70.9612 86.8301 71.1511 86.5903 71.311C85.3599 72.1411 84.25 73.0112 83.0303 73.7412C78.7603 76.2612 74.4502 78.5911 70.2402 81.0911C69.3003 81.6411 68.3901 82.2212 67.48 82.821L64.7603 84.561L61.3301 86.8611L57.9302 89.051C57.3101 89.4812 56.9302 89.051 57.0103 88.051C57.2505 86.6677 57.9351 85.4006 58.96 84.4412C61.0669 82.4929 63.2803 80.6633 65.5903 78.9612C67.9502 77.3711 70.3701 75.8711 72.8599 74.4912C75.8169 72.7017 78.6709 70.7485 81.4102 68.6411C82.1802 68.0911 82.9399 67.531 83.6499 66.9812L84.1602 66.5811L84.3901 66.4211C84.5303 66.301 84.7002 66.1812 84.73 65.9912C84.7568 65.8994 84.7769 65.8057 84.79 65.7112L84.8599 65.1011C84.8599 64.6812 84.9399 64.2212 84.96 63.7612C85.0303 62.8611 85.0703 61.9211 85.1099 60.9912C85.2002 58.6611 85.2803 56.321 85.3003 53.9912C85.3999 50.4312 85.6099 46.8411 85.52 43.301C85.4399 40.541 85.0503 37.8411 84.8599 35.1211C84.8101 34.521 84.7202 33.9312 84.71 33.321C84.606 32.5044 84.7378 31.675 85.0903 30.9312C85.3906 30.4104 85.8818 30.0269 86.46 29.8611C86.7476 29.7385 87.041 29.6316 87.3403 29.541C88.3403 29.3311 89.1699 30.2412 89.6802 31.8611C90.2402 34.3201 90.6709 36.8069 90.9702 39.311C91.25 41.8411 91.3799 44.4211 91.4902 47.0012C91.5601 48.9211 91.6001 50.8511 91.6099 52.781C91.6201 54.7112 91.3901 56.6611 91.2803 58.6011L91.1299 58.6211Z" fill-rule="evenodd" fill="currentColor"/>
	<path d="M63.8301 17.4512C65.29 18.2412 66.8301 19.031 68.3101 19.781C68.8696 20.051 69.48 20.1912 70.04 20.4712C72.04 21.4712 73.9497 22.561 75.8999 23.6611C76.7627 24.145 77.6543 24.5759 78.5698 24.9512C79.1499 25.2112 79.75 25.4412 80.3301 25.7312C80.9116 26.03 81.4307 26.4375 81.8599 26.9312C82.1299 27.2612 81.5601 28.0811 80.77 28.781C79.98 29.4812 78.9897 30.0911 78.3896 29.8411C76.0884 29.0576 73.9072 27.957 71.9097 26.571C70.5728 25.8042 69.1582 25.1809 67.6899 24.7112C66.1299 24.031 64.5698 23.301 63 22.561L60.1196 21.1912C58.6499 20.5012 57.2197 19.6812 55.73 19.021C54.5898 18.4912 53.2998 18.2312 52.0898 17.7112C51.8101 17.6262 51.5391 17.5159 51.2798 17.3811C50.3496 16.821 50.2798 16.3311 50.9199 15.1011C51.0698 14.821 51.21 14.531 51.3696 14.271C51.7852 13.4673 52.6255 12.9734 53.5298 13.0012C54.5742 13.1685 55.5972 13.4502 56.5801 13.8411C57.0713 14.0244 57.5518 14.2349 58.02 14.4712C58.5098 14.6912 59.02 14.9211 59.4697 15.1611C60.9199 15.8611 62.3599 16.6511 63.8799 17.3511L63.8301 17.4512Z" fill-rule="evenodd" fill="currentColor"/>
	<path d="M23.04 34.3611C28.54 37.4211 34.1602 40.3611 39.7998 43.2412C41.8599 44.291 43.9897 45.2412 46.0498 46.2412L53.2397 49.8611C53.438 49.9753 53.6821 49.9753 53.8799 49.8611L54.04 49.801C54.1699 49.7559 54.2969 49.7026 54.4199 49.6411L55.25 49.2412C56.3799 48.6812 57.52 48.051 58.6499 47.3911C60.9199 46.071 63.1899 44.7112 65.4399 43.301C68.4399 41.3811 71.4399 39.301 74.3198 37.1411C77.9897 34.3911 81.6201 31.4312 85.3198 28.9812C85.8901 28.5911 86.2002 28.7012 86.5298 28.9812C86.9385 29.4773 87.0835 30.1396 86.9199 30.7612C86.501 33.0117 85.2739 35.0317 83.4702 36.4412C79.73 39.4412 75.9102 42.2312 71.9702 44.9211C68.0244 47.678 63.9019 50.1733 59.6299 52.3911C58.6299 52.8711 57.71 53.3911 56.6299 53.8411L55.7202 54.2512C55.3145 54.4275 54.8965 54.5745 54.4702 54.6912C54.0552 54.8167 53.623 54.874 53.1899 54.8611C52.9736 54.8584 52.7598 54.8145 52.5601 54.7312L51.9399 54.531L46.4702 52.0112C44.7798 51.2312 43.0801 50.4312 41.4102 49.6111C35.6631 46.7644 29.9531 43.8279 24.2798 40.801C22.5298 39.8611 20.79 38.9211 19.0601 37.9612L17.7598 37.2312L16.8501 36.7312L15.9199 36.1812L14.1401 35.1912C13.8818 35.0544 13.6592 34.8594 13.4897 34.6211L12.9502 34.041L12.54 33.6011C12.4102 33.4412 12.2397 33.3511 12.23 33.1111C12.2549 32.6934 12.4048 32.2927 12.6602 31.9612C13.1973 31.199 13.8765 30.5471 14.6602 30.041C15.5562 29.4324 16.4844 28.8716 17.4399 28.3611L19.52 27.1912L27.52 23.1211C31.6201 21.0112 35.52 18.7512 39.52 16.521C40.3799 16.031 41.21 15.521 42.0801 15.031C45.3398 13.271 46.4102 12.9211 47.6602 13.3911C47.9512 13.4714 48.2354 13.575 48.5098 13.7012C49.29 14.1411 48.3599 15.7012 46.0801 17.3511C39.2397 22.1912 31.5898 26.1912 24.1401 30.291L22.1401 31.4412L20.2397 32.5112C20.2397 32.5112 20.2397 32.5112 20.1299 32.5112C20.02 32.5112 20.1299 32.561 20.1299 32.6011L20.2002 32.6011L20.46 32.7412L20.98 33.031L23.0698 34.1611L23.04 34.3611Z" fill-rule="evenodd" fill="currentColor"/>
	<defs/>
</svg>
