<svg width="24" height="24" viewBox="0 0 110 110" fill="none" xmlns="http://www.w3.org/2000/svg" xmlns:xlink="http://www.w3.org/1999/xlink">
	<path d="M44.3247 79.4758C42.498 78.2207 40.8413 76.7351 39.3945 75.0559C37.8438 73.3113 36.6631 71.27 35.9248 69.0559C35.8047 68.6357 35.6548 68.2258 35.5449 67.7959L35.2847 66.5059C35.1479 65.6428 35.1143 64.7666 35.1846 63.8958C35.416 60.988 36.3755 58.1853 37.9746 55.7458C39.5249 53.4136 41.5317 51.4199 43.8745 49.8857C45.8857 48.554 48.0391 47.4504 50.2949 46.5959C51.0049 46.3259 51.7349 46.1157 52.4648 45.8657C53.1948 45.6157 53.9448 45.5159 54.6748 45.3958C55.0474 45.3174 55.4248 45.2639 55.8047 45.2358L56.9746 45.2358C57.7471 45.2485 58.5142 45.3665 59.2549 45.5859C60.1948 45.856 60.0347 46.5859 59.3149 47.5859C58.9111 48.1802 58.4375 48.7241 57.9048 49.2058C57.624 49.4683 57.3271 49.7122 57.0146 49.9358L56.5347 50.2358C56.3623 50.2944 56.1851 50.3379 56.0049 50.3657C50.9844 51.1753 46.3325 53.5029 42.6748 57.0359C41.6123 58.1438 40.8335 59.4919 40.4048 60.9658L40.2246 61.5159C40.2246 61.6958 40.1548 61.8958 40.1245 62.0759C40.0386 62.4521 39.9722 62.8328 39.9248 63.2158C39.8428 63.9595 39.8193 64.7085 39.8545 65.4558C40.0049 68.5759 42.1348 71.6958 44.9546 73.9858C46.7051 75.4421 48.6592 76.6348 50.7549 77.5259C53.9868 78.8809 57.4502 79.6008 60.9546 79.6458C63.626 79.5847 66.2686 79.0813 68.7749 78.1558L70.3848 77.5559C72.3848 76.8958 73.1348 76.9258 74.1348 78.0159C74.3711 78.2537 74.5947 78.5042 74.8047 78.7659C75.4448 79.6257 74.9146 80.8757 73.2949 81.7659C68.4849 84.6157 62.2949 85.1858 56.5249 84.2859C54.3579 83.9368 52.231 83.374 50.1748 82.606C48.0918 81.8025 46.103 80.7729 44.2446 79.5359L44.3247 79.4758Z" fill-rule="evenodd" fill="currentColor"/>
	<path d="M34.2749 52.4956C35.4565 51.072 36.8613 49.8494 38.4346 48.8757C39.1582 48.4219 39.9058 48.0078 40.6748 47.6357C41.4106 47.3025 42.165 47.012 42.9346 46.7656C45.7866 45.8835 48.7114 45.2578 51.6748 44.8958C54.4849 44.5156 57.2749 44.2856 59.8345 43.9756L63.8345 43.4558C65.1646 43.2856 66.4448 43.0957 67.7046 42.8857C71.3145 42.2556 74.7749 40.9658 76.4546 39.1958C76.6045 38.9956 76.7749 38.7957 76.9546 38.5957C77.0679 38.3713 77.1948 38.1543 77.3345 37.9458C77.4248 37.6958 77.4946 37.4458 77.5947 37.2058C77.6948 36.9658 77.7349 36.5356 77.8145 36.2058C78.0596 34.8398 78.0596 33.4414 77.8145 32.0757C77.2119 29.2195 75.6572 26.6526 73.4048 24.7957C71.0532 22.7808 68.1978 21.4431 65.1445 20.9258C62.1572 20.3259 59.0552 20.7339 56.3247 22.0857C56.0308 22.2295 55.7466 22.3933 55.4746 22.5757C55.2202 22.7327 54.9761 22.9065 54.7446 23.0957C54.3091 23.4797 53.9224 23.9163 53.5947 24.3958C52.8662 25.51 52.3159 26.7314 51.9648 28.0156C51.2168 30.5381 51.3506 33.2397 52.3447 35.6758C52.9287 37.207 53.8677 38.5779 55.0845 39.6758C56.3926 40.8315 57.8447 41.813 59.4048 42.5957C61.0757 43.406 62.812 44.075 64.5947 44.5957C66.4434 45.134 68.3237 45.5581 70.2246 45.8657C72.6045 46.2856 72.2949 46.9856 70.1147 47.7158C69.4629 47.9412 68.7939 48.115 68.1147 48.2356C67.2534 48.4128 66.3818 48.533 65.5049 48.5957C63.2354 48.8389 60.9404 48.6833 58.7246 48.1357C57.5957 47.8435 56.4868 47.4795 55.4048 47.0457L53.7847 46.3958C53.2349 46.1057 52.7246 45.7456 52.1948 45.3958C50.0166 43.9026 48.2075 41.9326 46.9048 39.6357C46.564 39.0447 46.2666 38.4297 46.0146 37.7957C45.7998 37.1389 45.6196 36.4714 45.4746 35.7957C45.1909 34.4817 45.0566 33.1399 45.0747 31.7957C45.1216 29.2485 45.665 26.7349 46.6748 24.3958C47.1924 23.2026 47.8325 22.0664 48.5845 21.0056C49.0098 20.437 49.4741 19.8989 49.9746 19.3958C50.2417 19.1184 50.5254 18.8577 50.8247 18.6157C51.1138 18.3662 51.4214 18.1389 51.7446 17.9358C53.8887 16.5386 56.3057 15.6147 58.8345 15.2256C63.6025 14.5374 68.4648 15.4333 72.6748 17.7756C75.186 19.1128 77.4463 20.8755 79.3545 22.9856C81.3315 25.2046 82.7534 27.8606 83.5049 30.7356C83.8716 32.2002 84.0464 33.7061 84.0249 35.2158C84.0137 35.9619 83.957 36.7065 83.8545 37.4458C83.7471 38.2571 83.5664 39.0569 83.3145 39.8357C82.7778 41.4534 81.874 42.925 80.6748 44.1357C79.5596 45.2346 78.2769 46.1494 76.8745 46.8457C74.1333 48.1343 71.2251 49.033 68.2349 49.5156C66.8145 49.7856 65.4248 49.9956 64.0645 50.2058L59.9648 50.8257C57.1846 51.1958 54.5146 51.4956 51.9048 51.9458C49.3882 52.3237 46.918 52.9639 44.5347 53.8557C43.188 54.3052 41.917 54.9561 40.7646 55.7856L40.3545 56.0857L39.9746 56.3958C39.7144 56.6116 39.4795 56.8564 39.2749 57.1257L38.6045 57.9756L38.2749 58.3958L38.0146 58.8557C36.5005 61.2639 36.0347 64.1858 36.7246 66.9458C37 68.0198 37.4028 69.0571 37.9248 70.0356C38.2349 70.5056 38.5146 71.0356 38.8345 71.4756L39.9146 72.8157C41.4995 74.5522 43.3574 76.0183 45.4146 77.1558C46.4668 77.739 47.5557 78.2534 48.6748 78.6958C49.8032 79.0889 50.9512 79.4226 52.1147 79.6958C54.4482 80.2366 56.8394 80.4883 59.2349 80.4458C62.8086 80.4258 66.3027 79.385 69.3047 77.4458C72.0498 75.6702 73.9805 72.8804 74.6748 69.6858C74.9106 68.3628 74.9106 67.0085 74.6748 65.6858C74.3086 63.9099 73.8071 62.1648 73.1748 60.4658C73.0205 59.9119 72.9365 59.3406 72.9248 58.7656C72.9609 58.2085 73.0649 57.6577 73.2349 57.1257C73.3506 56.5955 73.5044 56.0742 73.6948 55.5657C74.0645 54.8257 74.8945 54.7456 76.1748 55.3857C77.9736 56.5413 79.3706 58.2249 80.1748 60.2058C81.0859 62.199 81.6118 64.3469 81.7246 66.5356C81.8457 68.8135 81.5059 71.0925 80.7246 73.2356C79.9199 75.3875 78.7383 77.3787 77.2349 79.1157C75.7612 80.8159 74.0181 82.262 72.0747 83.3958C68.2539 85.5461 63.9487 86.6887 59.5645 86.7158C57.4614 86.7595 55.3589 86.6055 53.2847 86.2556C51.2168 85.9219 49.1821 85.4065 47.2046 84.7158C44.1768 83.6462 41.3403 82.0964 38.8047 80.1257C36.1665 78.082 33.9834 75.5107 32.3945 72.5757C29.5791 67.8191 29.2256 61.998 31.4448 56.9358C31.8125 56.1245 32.2231 55.3333 32.6748 54.5657L34.1245 52.3958L34.2749 52.4956Z" fill-rule="evenodd" fill="currentColor"/>
	<defs/>
</svg>
