<svg width="24" height="24" viewBox="0 0 110 110" fill="none" xmlns="http://www.w3.org/2000/svg" xmlns:xlink="http://www.w3.org/1999/xlink">
	<path d="M44.125 88.394C38.4131 87.7498 32.9468 85.7134 28.2051 82.4641C25.8892 80.8047 23.7983 78.8518 21.9849 76.6541C20.1465 74.4966 18.5781 72.1223 17.3149 69.5842C15.5249 65.9556 14.2749 62.0845 13.605 58.0942C12.3569 51.0422 13.0479 43.7837 15.605 37.094C18.2085 30.4387 22.7339 24.7087 28.605 20.634C33.7739 17.0264 39.7822 14.8054 46.0552 14.1841C50.0522 13.7483 54.0962 14.0879 57.9648 15.1841C58.9302 15.4426 59.8813 15.7495 60.8149 16.104L62.165 16.7441C62.6152 16.9641 63.0352 17.2241 63.4751 17.4641L64.7549 18.2041C65.1753 18.4641 65.5752 18.7542 65.9751 19.0242L67.1851 19.854C67.5752 20.144 67.9551 20.4541 68.335 20.7542C70.2051 22.3042 69.585 22.5642 67.4351 22.354C66.4351 22.2141 64.875 22.114 63.1851 21.9541C62.3252 21.9541 61.4053 21.884 60.4751 21.8042C59.9951 21.8042 59.5352 21.7441 59.0352 21.8042C58.5352 21.864 58.1152 21.5742 57.6353 21.4941C55.9902 21.1196 54.3184 20.8755 52.6353 20.7642L51.3853 20.6941C50.9648 20.6941 50.5449 20.6941 50.125 20.6941C49.2925 20.6492 48.458 20.6492 47.625 20.6941C44.2847 20.7986 40.9868 21.4749 37.875 22.6941C36.3047 23.3035 34.7866 24.0391 33.335 24.894C31.8833 25.7815 30.5054 26.7847 29.2148 27.894C26.5674 30.1255 24.3213 32.7939 22.5752 35.7842C20.4155 39.5208 19.1177 43.6921 18.7749 47.9941C18.478 52.3975 18.8862 56.8198 19.9849 61.0942C20.5723 63.4324 21.4141 65.6992 22.4951 67.854C23.5513 70.0044 24.897 71.9995 26.4951 73.7842C29.752 77.3171 33.8955 79.9138 38.4951 81.3042C44.3042 82.9685 50.4438 83.113 56.3252 81.7241C60.8462 80.6782 65.1802 78.9448 69.1753 76.5842C71.1348 75.4482 72.9683 74.1072 74.645 72.5842C75.4575 71.8359 76.2002 71.0159 76.8652 70.134L77.8652 68.8242C78.1553 68.364 78.4053 67.8242 78.6851 67.394C80.2988 64.4319 81.1802 61.1265 81.2549 57.7542C81.3193 54.4167 80.8013 51.0938 79.7251 47.9341C79.2251 46.5542 78.7251 45.2241 78.085 43.9341C76.9951 41.4341 76.085 39.9341 75.7651 38.604C75.6211 38.032 75.5474 37.4443 75.5449 36.854C75.5732 36.2891 75.6914 35.7319 75.895 35.2041C76.0498 34.675 76.2402 34.1572 76.4648 33.6541C76.8853 32.9141 77.7148 32.8242 78.915 33.394C80.6147 34.2952 82.0513 35.6216 83.085 37.2441C85.2495 40.3357 86.8755 43.7708 87.895 47.4041C88.9053 51.2271 89.21 55.2019 88.7949 59.134C88.0972 65.3501 85.4307 71.1804 81.1851 75.7742L78.9849 77.9041C78.6138 78.2708 78.2124 78.6052 77.7852 78.9041L76.5552 79.8042C75.3848 80.6592 74.1626 81.4407 72.895 82.144C71.645 82.8042 70.415 83.5042 69.125 84.144C66.5474 85.3667 63.8711 86.3701 61.125 87.144C55.606 88.7239 49.8354 89.2332 44.125 88.644L44.125 88.394Z" fill-rule="evenodd" fill="currentColor"/>
	<path d="M39.6851 34.5842C39.6763 34.6033 39.6763 34.6252 39.6851 34.6443C39.7354 34.7451 39.7354 34.8635 39.6851 34.9641C39.519 35.3091 39.3721 35.6631 39.2451 36.0242L39.0952 37.0242C39.0601 37.6904 39.0601 38.3579 39.0952 39.0242C39.1367 40.3628 39.25 41.698 39.4351 43.0242C39.7451 45.6543 40.0454 48.2842 40.4351 50.9043L41.8149 58.7341L42.5151 62.6443L43.625 66.5842C43.6646 66.6768 43.6646 66.7815 43.625 66.8743C43.6206 66.894 43.6206 66.9146 43.625 66.9343C43.6953 67.1443 44.5254 67.2141 45.4751 67.1042C46.4253 66.9941 47.2153 66.7341 47.2354 66.5142C47.1694 66.428 47.1343 66.3225 47.1353 66.2141L47.2051 64.9143C47.3521 62.3718 47.3188 59.822 47.105 57.2842L46.6851 49.5842L45.9854 42.0542L45.8149 40.1743C45.7354 39.5542 45.6353 38.9343 45.5454 38.3042L45.4053 37.3743C45.3828 37.0596 45.3154 36.7498 45.2051 36.4541L44.9053 35.5442C44.7251 35.2542 44.5151 34.9541 44.3252 34.6743C44.2822 34.5894 44.2822 34.4893 44.3252 34.4043C44.3359 34.3857 44.3359 34.3628 44.3252 34.3442C43.5762 34.0754 42.7729 33.9929 41.9854 34.1042C41.1885 34.0444 40.3911 34.2107 39.6851 34.5842Z" fill-rule="evenodd" fill="#242021"/>
	<path d="M55.6855 35.2241C55.7358 35.3071 55.7358 35.4111 55.6855 35.4941C55.5029 35.7817 55.3364 36.0789 55.1855 36.384L54.9551 37.2942C54.8667 37.9038 54.8135 38.5183 54.7954 39.134C54.6934 40.3679 54.6567 41.6064 54.6855 42.844C54.6855 45.334 54.6353 47.844 54.6855 50.344C54.7354 52.844 54.9453 55.344 55.1152 57.884L55.3955 61.6741C55.6455 62.9541 55.9053 64.2141 56.2354 65.5242C56.2749 65.6167 56.2749 65.7214 56.2354 65.8142C56.2354 65.8142 56.2354 65.8142 56.2354 65.884C56.2954 66.094 57.1255 66.1641 58.0752 66.0542C59.0254 65.9441 59.8154 65.6941 59.8452 65.5142C59.7866 65.4407 59.7578 65.3479 59.7651 65.2542C59.7651 64.874 59.8452 64.4841 59.9053 64.084C60.2427 61.7434 60.4595 59.387 60.5552 57.0242L60.9854 49.884L61.2251 42.7041L61.2754 40.894C61.2754 40.2942 61.2754 39.6841 61.2153 39.084L61.2153 38.1741C61.2231 37.8638 61.186 37.554 61.1055 37.2542L60.8755 36.3242C60.7251 36.0242 60.5352 35.7141 60.3452 35.394C60.3003 35.2991 60.3003 35.189 60.3452 35.094C60.3501 35.0745 60.3501 35.0537 60.3452 35.0342C59.5962 34.7368 58.7822 34.6436 57.9854 34.7642C57.1938 34.7417 56.4072 34.8989 55.6855 35.2241Z" fill-rule="evenodd" fill="#242021"/>
	<defs/>
</svg>
