<svg width="24" height="24" viewBox="0 0 110 110" fill="none" xmlns="http://www.w3.org/2000/svg" xmlns:xlink="http://www.w3.org/1999/xlink">
	<path d="M22.9702 71.6868C23.1519 71.4214 23.3032 71.1362 23.4204 70.8369C23.46 70.8298 23.5005 70.8298 23.5405 70.8369C23.6606 70.7998 23.7778 70.7529 23.8901 70.6968C24.0801 70.5369 23.7803 70.8069 23.7305 70.9768C23.7305 70.9768 23.6201 70.9167 23.4404 70.8967L23.3301 70.8967C23.3301 70.8967 23.3301 70.8967 23.2202 70.8967C22.8979 70.9661 22.583 71.0664 22.2803 71.1968C20.999 71.7632 19.687 72.2573 18.3501 72.6768C17.3413 72.968 16.2759 73.0024 15.2505 72.7769C14.9507 72.6865 14.6621 72.5623 14.3901 72.4067C13.9971 72.168 13.6812 71.8208 13.4805 71.4067C13.1304 70.4336 13.1514 69.3652 13.5405 68.4067C13.7173 68.0076 13.9424 67.6316 14.2104 67.2869C14.5103 66.9568 14.8203 66.637 15.2104 66.2869C16.2305 65.3892 17.3755 64.6445 18.6104 64.0769C18.915 63.9324 19.2119 63.772 19.5005 63.5969C19.7305 63.4568 20.0405 63.2869 20.0303 63.2368C20.1025 63.1711 20.1572 63.0886 20.1904 62.9968C20.2075 62.9568 20.2314 62.9194 20.2603 62.887L20.3105 62.6968L20.3701 62.4368L20.5503 62.4368C20.6328 62.4133 20.7129 62.3833 20.7905 62.3469C20.7188 62.4465 20.6582 62.554 20.6104 62.6667C20.6104 62.7168 20.5503 62.6667 20.4404 62.6667C19.5845 62.6938 18.7378 62.8523 17.9302 63.137C17.0005 63.4067 16.0503 63.6968 15.0503 63.9468C14.4204 64.0969 14.2705 63.5869 14.5103 62.8169C14.8521 61.7739 15.5635 60.8918 16.5103 60.3369C17.0303 60.0593 17.5645 59.8088 18.1104 59.5869C18.7495 59.3196 19.4224 59.1411 20.1104 59.0569C20.6353 58.9917 21.168 59.0256 21.6802 59.1567C22.0742 59.2605 22.4468 59.4333 22.7803 59.6667C23.1934 59.9438 23.5356 60.3137 23.7803 60.7468C24.1421 61.4038 24.3149 62.1477 24.2803 62.8967C24.2676 63.1421 24.2373 63.386 24.1904 63.627C24.147 63.8555 24.0835 64.0796 24.0005 64.2969C23.9102 64.5469 23.8105 64.7969 23.7002 65.0369C23.5786 65.2573 23.4453 65.4709 23.3003 65.6768L23.0801 65.9768C23.0303 65.8469 23.0303 65.8469 23.0303 65.8469L22.8804 65.9668L22.6201 65.9668C22.2397 66.0376 21.8652 66.1379 21.5005 66.2668C20.8403 66.4768 20.5005 66.9868 20.5903 67.4067C20.6704 67.6169 20.9502 67.5969 21.1401 67.5569L21.6904 67.3967C22.1138 67.2412 22.5532 67.134 23.0005 67.0769C23.0801 67.0769 23.0903 67.0769 23.4502 67.0769C23.8105 67.0769 23.9502 67.137 24.2002 67.1768C24.4634 67.2261 24.7212 67.2998 24.9702 67.3967C25.2534 67.4858 25.5225 67.6138 25.7705 67.7769C26.0415 67.9482 26.2905 68.1531 26.5103 68.387C27.0918 69.0793 27.395 69.9634 27.3604 70.8669C27.3237 72.0022 27.0005 73.1101 26.4204 74.0869C26.1436 74.5762 25.8076 75.0295 25.4204 75.4368C25.3003 75.5469 25.2305 75.6467 25.0801 75.7668C24.9302 75.887 24.7803 76.0068 24.6602 76.0869C24.4341 76.2295 24.2007 76.3596 23.9604 76.4768C23.2305 76.7969 22.5903 76.9868 21.8501 77.3169C21.5 77.4631 21.165 77.644 20.8501 77.8569C20.5503 78.0469 20.2002 78.377 20.3804 78.7468C20.5605 79.1169 20.9502 79.0369 21.2803 79.0168C21.6104 78.9968 21.9805 78.9368 22.2803 78.8967C22.8125 78.8098 23.354 78.793 23.8901 78.8469L24.0903 78.8469L24.3003 78.9368C24.5928 79.0518 24.8711 79.1995 25.1304 79.377C25.8521 79.8052 26.374 80.5032 26.5801 81.3169C26.5938 81.8408 26.3604 82.3406 25.9502 82.6667C25.7754 82.8499 25.5845 83.0171 25.3804 83.1667C25.0327 83.3589 24.624 83.4089 24.2402 83.3069C23.8271 83.2419 23.4341 83.0847 23.0903 82.8469C22.9058 82.6951 22.6958 82.5767 22.4702 82.4968L22.3003 82.4268L22.2104 82.4268L21.9102 82.3369C21.6899 82.2429 21.4482 82.2083 21.2104 82.2368C20.9302 82.2368 20.6802 82.2368 20.3301 82.2969C19.6665 82.3818 18.999 82.4319 18.3301 82.4468C18.0527 82.4441 17.7754 82.4238 17.5005 82.387C17.2803 82.387 17.0205 82.3069 16.8501 82.2568C16.5425 82.1753 16.2441 82.0613 15.9604 81.9167C15.7671 81.8364 15.5825 81.7358 15.4102 81.6169C15.1763 81.4707 14.9644 81.2925 14.7803 81.0869C14.5181 80.782 14.333 80.4185 14.2402 80.0269C14.146 79.7024 14.1055 79.3645 14.1201 79.0269L14.2202 78.2568C14.251 77.7847 14.4136 77.3308 14.6904 76.9468C14.7866 76.7646 14.9111 76.5991 15.0605 76.4568C15.2202 76.2969 15.3501 76.137 15.5303 75.9768L16.0801 75.4668C16.3105 75.3069 16.5801 75.1567 16.8203 74.9968C17.0605 74.8369 17.3501 74.6768 17.6201 74.5168C17.9004 74.3455 18.1909 74.1919 18.4902 74.0569L20.3604 73.1667L21.3003 72.7068L21.9102 72.387C21.9854 72.3579 22.062 72.3345 22.1401 72.3169L22.3901 72.6768C22.563 72.9082 22.75 73.1287 22.9502 73.3369L23.1001 73.4968L22.0103 72.3169C22.3052 72.1094 22.5513 71.8398 22.7305 71.5269L22.9702 71.6868Z" fill-rule="evenodd" fill="currentColor"/>
	<path d="M27.4502 68.5168L27.7803 70.7869C27.8506 71.5569 27.9404 72.3169 27.9902 73.0769C27.9902 73.6367 28.1704 74.1667 28.1802 74.7268C28.1753 76.6914 27.9775 78.6506 27.5903 80.5769C27.4604 81.4368 27.3306 82.2869 27.2104 83.1367C27.0825 84.2649 26.6772 85.3438 26.0303 86.2769C25.8003 86.5669 25.2803 86.2769 24.7803 85.8069C24.2539 85.3955 23.8975 84.8044 23.7803 84.1467C23.8569 82.1865 24.0776 80.2346 24.4404 78.3069C24.5381 77.0657 24.4912 75.8171 24.3003 74.5867C24.2402 73.8967 24.1904 73.2068 24.0903 72.5269C23.9902 71.8467 23.9102 71.1467 23.7803 70.4568C23.6504 69.6067 23.4302 68.7769 23.2305 67.9368C22.9404 66.6704 22.5391 65.4324 22.0303 64.2368C21.5146 63.3682 20.9258 62.5452 20.2705 61.7769C20.1401 61.5967 19.9805 61.4468 19.8604 61.2568C19.4404 60.5569 19.5605 60.1968 20.3701 59.5068C20.5605 59.3567 20.7305 59.1868 20.9302 59.0469C21.478 58.5681 22.2852 58.5349 22.8701 58.9668C23.2788 59.2739 23.6665 59.6079 24.0303 59.9668C24.3677 60.3516 24.6689 60.7666 24.9302 61.2068C25.4673 62.0901 25.9224 63.0208 26.2905 63.9868C26.8247 65.4421 27.2593 66.9321 27.5903 68.4468L27.4502 68.5168Z" fill-rule="evenodd" fill="currentColor"/>
	<path d="M50.6504 43.3071C47.1123 48.1956 42.6221 52.3181 37.4502 55.427C36.52 55.9871 35.5801 56.5371 34.6401 57.0771C33.6958 57.6069 32.7246 58.0874 31.7305 58.5171C29.1553 59.6211 26.501 60.5303 23.79 61.2371C22.4404 61.5671 21.1001 61.927 19.7305 62.167C19.0503 62.2971 18.3804 62.437 17.7305 62.5571L16.7305 62.697L16.3003 62.697C16.0913 62.7156 15.8843 62.749 15.6802 62.7971C15.5498 62.9563 15.4951 63.1643 15.5303 63.3669C15.5356 63.575 15.5557 63.782 15.5903 63.9871L15.5903 64.157L15.6602 64.467L15.8203 65.147C16.1802 66.687 16.6602 68.2571 17.1001 69.8569C17.54 71.457 17.7803 73.1169 18.02 74.7771C18.3735 76.9624 18.4404 79.1843 18.2202 81.387C17.9541 83.697 17.0737 85.8933 15.6704 87.7471C14.6704 88.877 14.1201 88.0371 13.8301 86.647C13.6704 85.947 13.52 85.0969 13.4004 84.2271C13.2397 83.3096 13.186 82.3767 13.2402 81.447C13.3223 79.8433 13.2856 78.2354 13.1304 76.637C12.9312 74.9333 12.644 73.241 12.27 71.5671C12.0303 69.8469 11.8403 68.0371 11.5 66.147L11.2104 64.3071C11.1211 63.885 11.061 63.4573 11.0303 63.0271C10.9897 62.6213 10.9897 62.2126 11.0303 61.8071C11.1221 61.063 11.4399 60.3652 11.9404 59.8071C12.5415 59.3105 13.2617 58.9797 14.0303 58.8469L15.3701 58.637L16.0303 58.5471L16.3901 58.4971C16.8804 58.4971 17.3901 58.387 17.8301 58.3071C22.7651 57.491 27.5342 55.8765 31.9502 53.5271C36.853 51.0862 41.2163 47.6855 44.7803 43.5271C46.9766 40.9297 48.8809 38.0996 50.4604 35.0872C51.2603 33.7571 52.0103 32.377 52.8003 30.9771C53.2002 30.2671 53.6201 29.5771 54.0801 28.8171C54.5767 27.8147 55.5337 27.1196 56.6401 26.957L57.25 26.957C57.4067 26.9473 57.5635 26.9473 57.7202 26.957C58.0566 26.9771 58.3911 27.0239 58.7202 27.0969C59.3833 27.2329 60.0171 27.4871 60.5903 27.8469C61.7012 28.605 62.5254 29.7144 62.9302 30.9971C63.5547 33.1868 63.6475 35.4941 63.2002 37.7271C63.019 38.7998 62.7651 39.8589 62.4404 40.897C62.0938 41.9277 61.6689 42.9307 61.1704 43.897C60.75 44.7583 60.2725 45.5901 59.7402 46.387C59.0234 47.4844 58.1035 48.4346 57.0303 49.187C56.4722 49.5874 55.7681 49.7258 55.1001 49.5671C54.8286 49.5342 54.5625 49.4634 54.3101 49.3569C53.6001 48.957 54.2402 47.687 55.4404 45.8171C57.1523 42.9666 58.3662 39.8452 59.0303 36.5872C59.3745 35.1738 59.4019 33.7019 59.1104 32.2771C59.0181 31.853 58.8066 31.4644 58.5 31.157C58.1816 30.8816 57.7808 30.7197 57.3604 30.697C57.2773 30.6865 57.1934 30.6865 57.1104 30.697C57.1104 30.697 57.1104 30.697 57.1602 30.697C57.0884 30.7844 57.0249 30.8782 56.9702 30.9771L56.75 31.3071C56.6201 31.5969 56.52 31.8569 56.4004 32.157L55.0303 35.907C54.7798 36.5706 54.4893 37.2185 54.1602 37.8469C53.8203 38.4771 53.4604 39.0969 53.1001 39.717C52.3604 40.947 51.5903 42.167 50.75 43.3469L50.6504 43.3071Z" fill-rule="evenodd" fill="currentColor"/>
	<path d="M58.8804 91.3567C56.3203 91.1667 53.8804 90.7966 51.3501 90.4768C50.4404 90.3367 49.5303 90.3267 48.6304 90.1768C45.4604 89.6167 42.3105 88.9568 39.1802 88.2468C37.7905 87.9167 36.3901 87.6667 34.9902 87.3967C34.1001 87.2268 33.1904 87.0566 32.2905 86.8367L31.6104 86.6367L31.0303 86.2666C30.606 86.0107 30.2017 85.7234 29.8203 85.4067C29.3403 85.0068 29.6001 84.7068 30.2505 84.4067C30.5703 84.2268 31.0005 84.0068 31.4404 83.7866C31.6802 83.6768 31.9404 83.5566 32.2002 83.4568L32.5903 83.3167C32.7065 83.3025 32.8242 83.3025 32.9404 83.3167C36.3203 83.9768 39.9404 84.3667 43.4404 85.4067C45.6216 85.8669 47.8345 86.1611 50.0605 86.2866C52.5005 86.5735 54.937 86.8101 57.3701 86.9968L59.6201 87.1167L61.8501 87.1167C62.915 87.092 63.9771 87.0017 65.0303 86.8467C65.2686 86.8167 65.5029 86.7629 65.7305 86.6868C65.9487 86.6299 66.1631 86.5564 66.3701 86.4668C66.5908 86.3677 66.8047 86.2542 67.0103 86.1267C67.1777 86.0278 67.3379 85.9175 67.4902 85.7966C67.8633 85.5242 68.1118 85.1135 68.1802 84.6567C68.2109 84.2217 67.9561 83.8171 67.5503 83.6567C67.3979 83.6016 67.2407 83.5613 67.0806 83.5366C66.979 83.5049 66.8867 83.4502 66.8105 83.3767C66.7305 83.2498 66.6699 83.1116 66.6304 82.9668C66.4863 82.4736 66.439 81.9578 66.4902 81.4468C66.4902 81.1667 66.4902 80.8967 66.4902 80.6467C66.5376 80.2061 66.7749 79.8079 67.1401 79.5566C67.3818 79.3767 67.6396 79.2192 67.9102 79.0867C68.0703 79.0266 68.2104 78.8867 68.4102 78.9067L69.0605 79.0266C70.4634 79.3032 71.7124 80.0952 72.5605 81.2468C72.9619 81.8325 73.2627 82.4817 73.4502 83.1667C73.5386 83.8811 73.5015 84.6052 73.3403 85.3066C73.1401 86.7568 71.8501 87.9468 70.6602 88.9968C70.1187 89.4438 69.5361 89.8389 68.9204 90.1768L68.1904 90.5366C67.9009 90.6594 67.6035 90.7632 67.3003 90.8467C66.5195 91.106 65.7104 91.2705 64.8901 91.3367C64.5366 91.3945 64.1787 91.4246 63.8203 91.4268L62.8203 91.4268C62.1304 91.4268 61.4902 91.4268 60.8203 91.4268C60.1504 91.4268 59.5005 91.4268 58.8203 91.3667L58.8804 91.3567Z" fill-rule="evenodd" fill="currentColor"/>
	<path d="M77.52 71.217C77.6699 71.417 77.79 71.627 77.9302 71.8369L78.1201 72.147C78.1602 72.2769 78.1841 72.4111 78.1899 72.5471C78.1899 73.0969 78.3198 73.637 78.3198 74.177L78.3198 74.967C78.355 75.2258 78.355 75.4883 78.3198 75.7471L78.1699 76.5071C78.1064 76.7273 78.0156 76.939 77.8999 77.137C77.7603 77.437 77.6401 77.7271 77.5103 77.967C77.3965 78.2268 77.2524 78.4719 77.0801 78.697C76.5137 79.4309 75.8022 80.0403 74.9902 80.4871C74.2529 80.918 73.4536 81.2319 72.6201 81.417C71.9126 81.6104 71.1836 81.7144 70.4502 81.7271C69.4834 81.8367 68.5142 81.5437 67.77 80.917C67.54 80.717 67.8398 80.3469 68.25 79.9971C68.5806 79.6619 68.9897 79.4143 69.4399 79.2771C70.0229 79.2671 70.6021 79.1763 71.1602 79.0071C71.7578 78.8557 72.3428 78.6584 72.9102 78.417C73.5771 78.0801 74.0762 77.4832 74.29 76.7671C74.4302 76.417 74.46 76.137 74.54 75.947C74.5996 75.6948 74.627 75.436 74.6201 75.177C74.647 74.8096 74.4497 74.4622 74.1201 74.2971C73.9902 74.2432 73.8564 74.1997 73.7202 74.167C73.6167 74.1584 73.5132 74.1584 73.4102 74.167L73.0303 74.167C72.4702 74.167 71.8799 74.0671 71.25 73.9871C70.2158 73.9458 69.1875 73.8052 68.1802 73.5671C67.9463 73.5176 67.7158 73.4543 67.4902 73.377C67.3418 73.2734 67.2158 73.1406 67.1201 72.9871C67.0796 72.7991 67.0796 72.605 67.1201 72.417C67.2329 71.9644 67.4292 71.5369 67.7002 71.157C67.8398 70.937 67.9702 70.717 68.1201 70.5171C68.3608 70.1995 68.6514 69.9226 68.98 69.697C69.3125 69.4326 69.6636 69.1919 70.0303 68.9771C70.3345 68.8962 70.646 68.8428 70.96 68.8171C71.1797 68.804 71.4004 68.804 71.6201 68.8171C72.0356 68.7798 72.4541 68.7798 72.8701 68.8171C73.29 68.8171 73.79 69.177 75.0303 69.397L76.52 69.9771L77.1099 70.5071L77.6001 71.1169L77.52 71.217Z" fill-rule="evenodd" fill="currentColor"/>
	<path d="M69.5303 57.3569C71.2603 58.0471 73.0801 58.717 74.9702 59.6069C75.7236 59.8855 76.4419 60.2515 77.1104 60.697C78.498 61.6465 79.5483 63.0122 80.1104 64.5969C80.2944 65.333 80.3916 66.0884 80.4004 66.8469C80.4058 67.2527 80.3726 67.658 80.3003 68.0571C80.2134 68.4832 80.0718 68.8965 79.8804 69.2871C79.5308 69.9731 79.0151 70.561 78.3804 70.9971C77.814 71.3606 77.1924 71.6306 76.54 71.7971C75.063 72.3074 73.4448 72.2214 72.0303 71.5571C71.6001 71.3369 71.8003 70.8569 72.25 70.3469C72.7153 69.7537 73.3296 69.2947 74.0303 69.0171C74.9106 68.9868 75.7612 68.6904 76.4702 68.167C76.5889 68.053 76.6719 67.9072 76.7104 67.7471C76.772 67.3528 76.772 66.9512 76.7104 66.5571C76.6958 66.405 76.6689 66.2546 76.6304 66.1069C76.603 66.0054 76.563 65.908 76.5103 65.8171C76.3896 65.5996 76.2227 65.4116 76.02 65.2671C75.4971 64.875 74.9341 64.5398 74.3403 64.2671C72.7573 63.4514 71.1118 62.7627 69.4204 62.207L66.0303 61.0471C64.3125 60.4048 62.6416 59.6428 61.0303 58.7671C59.5947 58.1387 58.2495 57.3215 57.0303 56.3369C56.7515 56.1069 56.4941 55.8525 56.2603 55.5771C55.4604 54.457 55.6904 53.8171 56.5303 53.167C56.7212 53.0083 56.9214 52.8613 57.1304 52.7271C57.8003 52.3625 58.6099 52.3625 59.2803 52.7271C60.1704 53.2371 60.9102 53.7271 61.7803 54.1169C62.6504 54.5071 63.5601 54.967 64.5903 55.3669C66.1104 55.957 67.7402 56.657 69.52 57.2271L69.5303 57.3569Z" fill-rule="evenodd" fill="currentColor"/>
	<path d="M69.8901 25.5769C70.0303 25.8469 69.6401 25.9868 68.9502 26.0569C68.6328 26.0481 68.3203 25.9768 68.0303 25.8469C67.876 25.7007 67.7324 25.5435 67.6001 25.377C67.54 25.2869 67.3501 23.9468 67.2202 23.4968C67.1235 23.0808 67.0898 22.6528 67.1201 22.2268C67.1201 21.377 67.1201 20.5369 67.0601 19.7168C67.0527 19.5334 67.0796 19.3501 67.1401 19.1768C67.3662 18.5806 67.4219 17.9329 67.3003 17.3069C67.3003 17.1968 67.3003 17.0969 67.1704 16.9968C66.9316 16.3584 66.8262 15.6777 66.8604 14.9968C67.0503 14.4268 67.0903 13.8669 67.3003 13.2668C67.3003 13.1868 67.3003 13.1069 67.4204 13.0068C67.6284 12.8994 67.7388 12.666 67.6904 12.4368C67.6904 12.3169 67.6904 12.1868 67.6904 12.0569C67.7261 11.9185 67.7759 11.7844 67.8403 11.657C67.9424 11.502 68.0562 11.355 68.1802 11.2168C68.334 11.1082 68.5249 11.0649 68.7104 11.0969C68.8604 11.1768 69.0303 11.0469 69.1802 11.0068C69.2363 10.9978 69.2939 10.9978 69.3501 11.0068C69.6392 11.1963 69.9165 11.4033 70.1802 11.627C70.4419 11.8601 70.6763 12.1218 70.8804 12.407L71.0303 12.7568C71.1523 13.0044 71.2529 13.262 71.3301 13.5269C71.4902 14.1069 71.6401 14.7268 71.6904 14.8469C71.7402 14.9668 71.6904 15.1169 71.6201 15.2568C71.5503 15.397 72.02 17.1069 71.9902 17.1868C71.9902 17.5569 72.1001 17.9368 71.7803 18.3069C71.7476 18.3799 71.7476 18.4636 71.7803 18.5369C71.7827 19.1814 71.6846 19.8223 71.4902 20.4368C71.4204 20.7468 71.4204 21.0769 71.3701 21.387C71.3701 21.4468 71.3101 21.5068 71.29 21.5569C71.2451 21.6206 71.2109 21.6917 71.1904 21.7668C71.1201 22.5168 70.8403 23.2468 70.8301 23.9868C70.8301 24.1667 70.3604 24.9167 70.3701 25.1169C70.3804 25.3169 69.8301 25.4668 69.8901 25.5769Z" fill-rule="evenodd" fill="currentColor"/>
	<path d="M78.5103 39.937C78.4102 40.157 78.1104 40.0569 77.7002 39.8169C77.5288 39.6895 77.397 39.5161 77.3203 39.3169C77.335 39.1453 77.3618 38.9749 77.4004 38.8069C77.4004 38.7168 78.2104 37.657 78.4805 37.2668C78.7324 36.8933 79.0352 36.5569 79.3804 36.2668C80.0376 35.6636 80.7583 35.1338 81.5303 34.687C81.7061 34.585 81.8994 34.5171 82.1001 34.4868C82.7744 34.3806 83.4263 34.1643 84.0303 33.8469C84.1304 33.8469 84.2505 33.7769 84.3203 33.627C84.9673 33.187 85.7124 32.9124 86.4902 32.8269C86.8203 32.887 87.1304 32.877 87.4902 32.9568L88.4302 33.177C88.5205 33.177 88.6104 33.177 88.7002 33.2969C88.9102 33.6169 89.0801 33.5569 89.2603 33.5869C89.522 33.6052 89.7773 33.6768 90.0103 33.7969C90.1519 33.8972 90.2739 34.0227 90.3701 34.167C90.4805 34.2869 90.3701 34.7068 90.3701 34.7568C90.3701 34.8069 90.3701 35.0869 90.3701 35.2668L90.3701 35.447C89.9565 35.8608 89.5083 36.2388 89.0303 36.5769L88.7505 36.687L88.1504 36.947C87.7202 37.147 87.2603 37.2368 87.1504 37.3169C87.0405 37.397 86.9404 37.3169 86.8301 37.3169C86.7202 37.3169 85.5103 37.887 85.4604 37.897C85.1704 37.897 84.9404 38.147 84.5703 37.9668C84.5146 37.9348 84.4458 37.9348 84.3901 37.9668C83.9146 38.1497 83.4268 38.3 82.9302 38.417C82.6802 38.4968 82.4502 38.627 82.2002 38.7068C82.2002 38.7068 82.0903 38.7068 82.0405 38.7068C81.9746 38.6917 81.9062 38.6917 81.8403 38.7068C81.2373 38.9121 80.6572 39.1802 80.1104 39.5068C79.9902 39.5869 79.2305 39.7368 79.1104 39.8569C78.9902 39.9768 78.5503 39.8469 78.5103 39.937Z" fill-rule="evenodd" fill="currentColor"/>
	<defs/>
</svg>
