<svg width="24" height="24" viewBox="0 0 110 110" fill="none" xmlns="http://www.w3.org/2000/svg" xmlns:xlink="http://www.w3.org/1999/xlink">
	<path d="M28.0566 31.4727C27.9302 31.479 27.8032 31.479 27.6768 31.4727L27.5767 31.4727C27.5068 31.4727 27.3867 31.4727 27.3569 31.5322C27.3267 31.5923 27.3569 31.5322 27.2866 31.5322C27.2173 31.6104 27.166 31.7021 27.1367 31.8022C26.9258 32.2124 26.7871 32.6553 26.7266 33.1123C26.7163 33.3545 26.6865 33.5952 26.6367 33.8325C26.3711 35.6938 26.3174 37.5791 26.4766 39.4526C26.5381 40.311 26.665 41.1636 26.8569 42.0024C27.1445 43.0566 27.3779 44.1245 27.5566 45.2026C27.5566 45.5425 27.2466 45.6626 26.7568 45.5322C26.1436 45.3604 25.625 44.9497 25.3169 44.3926C24.7847 43.3198 24.3398 42.2065 23.9868 41.0625C23.8115 40.4917 23.6714 39.9106 23.5669 39.3223C23.498 38.7148 23.4751 38.1035 23.4966 37.4922C23.4966 36.0322 23.2769 34.4922 23.4966 32.9326C23.562 32.3853 23.6689 31.8433 23.8169 31.3125L24.0869 30.4824L24.2969 30.0625C24.3765 29.8823 24.4868 29.7124 24.5566 29.5225C24.8159 29.1362 25.1577 28.8115 25.5566 28.5723C25.9526 28.3789 26.3789 28.2534 26.8169 28.2026C27.4336 28.145 28.0557 28.1685 28.6665 28.2725C29.1865 28.3623 29.6665 28.4727 30.1865 28.5825C31.6768 28.9126 33.0566 29.4224 34.4668 29.7925C35.5469 30.0923 36.6768 30.1826 37.7568 30.3823C37.9966 30.4424 38.2266 30.4727 38.4565 30.5522C38.6377 30.6147 38.812 30.6953 38.9766 30.7925C39.0962 30.9019 39.1914 31.0347 39.2568 31.1826C39.3848 31.4678 39.4399 31.7803 39.4165 32.0923C39.4268 32.249 39.4268 32.4058 39.4165 32.5625C39.4165 33.0122 38.8765 33.4023 38.0767 33.6724C37.5469 33.6724 37.0068 33.6724 36.4766 33.6724C35.9688 33.6016 35.4648 33.5049 34.9668 33.3823C33.9668 33.1426 32.9668 32.8423 32.0469 32.5425C31.3369 32.3223 30.6465 32.1025 29.9668 31.9126C29.6265 31.8125 29.2969 31.7324 28.9668 31.6523C28.6367 31.5723 28.3369 31.5825 28.0566 31.5723L28.0566 31.4727Z" fill-rule="evenodd" fill="currentColor"/>
	<path d="M72.5566 72.4526C73.1875 72.3198 73.7012 71.8633 73.9067 71.2524C73.9697 70.9971 74.0068 70.7358 74.0166 70.4727C74.0444 69.9019 74.0244 69.3301 73.9565 68.7627C73.8442 68.1089 73.6733 67.4663 73.4468 66.8428C73.3457 66.5518 73.2251 66.2676 73.0869 65.9927L72.7466 65.1128C72.3599 64.3384 72.1807 63.4771 72.2266 62.6128C72.2266 62.3228 72.4565 62.3828 72.7266 62.5527C73.0879 62.7476 73.4238 62.9858 73.7266 63.2627C74.2622 63.8452 74.7661 64.4565 75.2368 65.0928C75.6699 65.8472 76.0059 66.6538 76.2368 67.4927C76.3569 68.0225 76.5469 68.5625 76.6768 69.1426C76.7417 69.4424 76.7852 69.7466 76.8066 70.0527C76.8413 70.3652 76.8413 70.6802 76.8066 70.9927C76.7212 71.6978 76.4932 72.3784 76.1367 72.9927C75.7617 73.6304 75.2324 74.1636 74.5967 74.5425C73.8999 74.9404 73.1382 75.2114 72.3467 75.3428C71.2534 75.4951 70.1504 75.5654 69.0469 75.5527C68.2168 75.6455 67.3813 75.6792 66.5469 75.6528C66.3667 75.6528 66.1865 75.6528 66.0068 75.6528C65.3467 75.4927 65.1865 75.2324 65.2065 74.5024C65.2065 74.3325 65.2065 74.1729 65.2065 74.0024C65.2622 73.4932 65.6226 73.0688 66.1167 72.9326C66.4766 72.8428 66.8267 72.7427 67.1768 72.6729L67.6865 72.5527C67.853 72.5376 68.0205 72.5376 68.1865 72.5527L70.1069 72.6929C70.9463 72.8027 71.8003 72.7104 72.5967 72.4229L72.5566 72.4526Z" fill-rule="evenodd" fill="currentColor"/>
	<path d="M19.3169 34.4229L19.3169 33.4229L19.3169 32.0225C19.3042 30.9688 19.374 29.9155 19.5269 28.8726C19.668 27.9443 19.9692 27.0479 20.4165 26.2227C20.8247 25.4536 21.4243 24.8027 22.1567 24.3325C22.8267 23.9805 23.562 23.7695 24.3169 23.7129C24.8179 23.6753 25.3223 23.7021 25.8169 23.7925C26.4565 23.9824 27.0669 24.1226 27.6865 24.3628C28.3066 24.6025 28.9165 24.8828 29.5068 25.1528L30.3867 25.5625L30.9165 25.8525L31.9165 26.4126C33.2466 27.1729 34.5967 27.8428 35.9165 28.5928C37.0781 29.2031 38.2935 29.7051 39.5469 30.0928C41.147 30.4604 42.7026 31 44.1865 31.7026C44.6367 31.9727 44.4365 32.9727 43.7969 33.9229C43.2104 34.9536 42.1411 35.6167 40.9565 35.6826C39.1162 35.4541 37.3018 35.0522 35.5366 34.4824C34.6782 34.1978 33.8369 33.8638 33.0166 33.4824C32.2114 33.0977 31.4272 32.6704 30.6665 32.2026C30.2188 31.9194 29.7505 31.6689 29.2666 31.4526L28.5469 31.1426L28.3667 31.0728L28.3066 31.0728L28.1865 31.0728C27.8457 30.9678 27.5112 30.8408 27.1865 30.6929C26.9966 30.6929 26.7368 30.5225 26.5269 30.6226C26.3521 30.7261 26.2202 30.8896 26.1567 31.0825C25.9897 31.5254 25.8887 31.9907 25.8569 32.4629C25.8569 32.5425 25.8569 33.0225 25.8569 33.3228L25.8569 34.3228C25.8569 35.0127 25.9468 35.7129 26.0366 36.4028C26.231 38.5376 26.6226 40.6499 27.2065 42.7129C27.4736 43.4971 27.8081 44.2563 28.2065 44.9824L29.2065 47.2026C29.3467 47.5225 29.5366 47.8228 29.6567 48.2026C30.0869 49.4326 29.8569 49.9629 28.6567 50.7925C28.377 50.9927 28.1069 51.2026 27.8267 51.3628C26.8916 51.9399 25.6758 51.7534 24.9565 50.9229C23.7935 49.6836 22.7856 48.3066 21.9565 46.8228C21.2686 45.2539 20.7197 43.6274 20.3169 41.9629C19.7476 39.4912 19.3599 36.981 19.1567 34.4526L19.3169 34.4229Z" fill-rule="evenodd" fill="currentColor"/>
	<path d="M71.5967 71.8926C72.1064 71.8926 72.5967 71.8926 73.0767 71.8926L73.2563 71.8926C73.2563 71.8926 73.3066 71.8926 73.3267 71.8926L73.5063 71.8926C73.7998 71.98 74.1162 71.9282 74.3667 71.7529C74.4668 71.563 74.2363 71.333 74.2666 71.1426L74.2666 70.8428C74.2754 70.7832 74.2754 70.7227 74.2666 70.6626L74.1367 70.2026C73.9165 69.4927 73.6768 68.7529 73.4268 68.0229C72.9365 66.543 72.3467 65.0928 71.8667 63.5728C71.4165 62.2329 70.8667 60.9429 70.2666 59.6426C69.5464 57.9727 68.6665 56.2427 68.8765 54.1226C68.9565 53.4429 69.9863 53.4927 71.0967 53.7529C72.2065 54.0127 73.4468 54.3926 73.8564 55.1626L76.2266 59.5728C76.6265 60.3462 77.0063 61.1362 77.3667 61.9429C77.6865 62.7729 77.9565 63.6426 78.2168 64.543C78.542 65.623 78.9741 66.668 79.5063 67.6626C79.6465 67.9526 79.7065 68.1025 79.9668 68.583C80.1846 68.9976 80.3784 69.4253 80.5464 69.8628C80.7266 70.3027 80.8765 70.7329 81.0264 71.1729C81.1611 71.6001 81.2583 72.0386 81.3164 72.4829C81.4438 73.3711 81.312 74.2773 80.9365 75.0928C80.4805 75.8823 79.8208 76.5347 79.0264 76.9829C78.2026 77.4482 77.3125 77.7856 76.3867 77.9829C75.9268 78.1128 75.3867 78.1626 74.9766 78.2529L74.2764 78.333C74.1035 78.3423 73.9297 78.3423 73.7563 78.333C72.1025 78.4316 70.4429 78.3882 68.7964 78.2026C66.3706 77.8931 63.9756 77.3774 61.6367 76.6626C60.7266 76.4028 59.8066 76.1929 58.8667 75.9429C57.9424 75.6548 57.043 75.2939 56.1768 74.8628C55.7822 74.687 55.4014 74.4834 55.0366 74.2529C53.7168 73.2529 53.6064 72.583 54.3066 71.2529C54.4551 70.9526 54.6221 70.6621 54.8066 70.3828C55.394 69.5366 56.4253 69.1172 57.4365 69.313C58.8867 69.5928 60.2764 69.7729 61.6265 69.9727C62.9766 70.1729 64.1968 70.6729 65.5366 70.9727C67.5039 71.4351 69.5156 71.6802 71.5366 71.7026L71.5967 71.8926Z" fill-rule="evenodd" fill="currentColor"/>
	<path d="M60.3867 45.6826C56.7969 49.1323 53.2168 52.5928 49.6865 56.1128C48.4067 57.4023 47.2866 58.8325 45.9868 60.1128L42.5566 63.4727L39.0469 66.7627C36.7065 68.9727 34.3965 71.1924 32.1367 73.4624C30.1367 75.4624 28.2466 77.6226 26.4365 79.7725C25.3164 81.2026 24.1665 82.5928 22.9868 83.9624C21.7275 85.2676 20.3921 86.4966 18.9868 87.6426C18.1167 88.3428 17.4165 87.7026 17.1367 86.2725C16.7979 84.3579 17.0928 82.3848 17.9766 80.6523C22.3916 74.6133 27.3418 68.9839 32.7666 63.8325C34.4058 62.251 35.958 60.582 37.4165 58.8325C38.9468 57.1226 40.4165 55.3726 42.0269 53.7124C45.4966 50.0728 49.0269 46.4927 52.5767 42.9023L59.1064 36.2925C62.3765 32.9326 65.7666 29.6523 68.8867 26.1924C71.3364 23.5225 73.3867 20.5625 75.6768 17.7524C76.1768 17.1323 76.6768 16.5024 77.2065 15.9224C79.3267 13.8228 80.3965 13.5527 82.2065 14.5825C82.6387 14.7915 83.0562 15.0288 83.4565 15.2925C84.7168 16.2227 84.7466 17.9927 83.6167 19.8525L82.3066 21.8525C81.8755 22.5435 81.4082 23.2109 80.9067 23.8525C79.9067 25.1323 78.9067 26.3926 77.8066 27.6626C75.6567 30.1523 73.3667 32.5928 71.0366 35.0225C67.5864 38.6226 64.0366 42.1323 60.4966 45.7227L60.3867 45.6826Z" fill-rule="evenodd" fill="currentColor"/>
	<defs/>
</svg>
