<svg width="24" height="24" viewBox="0 0 110 110" fill="none" xmlns="http://www.w3.org/2000/svg" xmlns:xlink="http://www.w3.org/1999/xlink">
	<path d="M39.9199 72.2473C39.8394 72.4402 39.769 72.637 39.71 72.8374C39.71 73.0374 39.6099 73.2273 39.5498 73.4272C39.4443 73.8391 39.3906 74.2622 39.3896 74.6873C39.3682 74.9753 39.3887 75.2649 39.4497 75.5474C39.5244 75.8223 39.6729 76.0713 39.8799 76.2673C40.3965 76.667 40.9785 76.9749 41.5996 77.1772C43.0527 77.7371 44.5566 78.1555 46.0898 78.4272C47.769 78.7349 49.4653 78.9387 51.1699 79.0374C52.71 79.1372 54.2695 79.0374 55.8198 79.0374L57.3296 78.9773C57.8296 78.9773 58.3296 78.9773 58.8496 79.0474C59.9038 79.1333 60.9424 79.3552 61.9399 79.7073C62.5898 79.9673 62.3496 80.4573 61.7598 80.9873C61.0342 81.696 60.1494 82.2207 59.1797 82.5173L57.7397 82.8274C57.2598 82.9272 56.7397 82.9473 56.2695 83.0173C55.2695 83.1172 54.2695 83.2273 53.2695 83.2974C51.1855 83.4685 49.0898 83.4451 47.0098 83.2273C44.46 82.9172 41.6899 83.0374 38.7695 81.7874C37.9243 81.4189 37.1362 80.9304 36.4297 80.3374C35.6572 79.6628 35.0278 78.8398 34.5796 77.9172C34.1948 77.0378 33.9712 76.0959 33.9199 75.1372C33.8564 74.2759 33.8931 73.4102 34.0298 72.5574C34.4453 70.5698 35.3374 68.7134 36.6299 67.1472C38.4375 65.0981 40.4897 63.2778 42.7397 61.7273C44.3696 60.5073 45.8496 59.1372 47.3896 57.9673C47.75 57.7273 48.0596 57.4673 48.3896 57.2473C49.71 56.4673 50.1797 56.5173 51.1699 57.1572C51.3896 57.3074 51.6396 57.4272 51.8496 57.5774C52.5796 58.0474 52.4897 59.1873 51.6499 60.2473C51.0396 61.0273 50.4199 61.7473 49.7798 62.4272C49.1396 63.1072 48.4097 63.5972 47.73 64.1472C46.3599 65.2473 45 66.2773 43.73 67.3472C41.96 68.9573 40.46 70.6772 39.96 72.2874L39.9199 72.2473Z" fill-rule="evenodd" fill="currentColor"/>
	<path d="M64.5601 49.7974C59.1602 55.7974 52.98 60.0374 46.9902 64.2073C44.8101 65.7173 42.7402 67.3472 40.6499 68.8472C38.8833 70.0845 37.2061 71.4446 35.6299 72.9172C35.4399 73.0972 35.27 73.2673 35.1099 73.4373L34.8501 73.7073C34.7202 73.8501 34.603 74.0039 34.5 74.1672C34.2588 74.5168 34.21 74.9641 34.3701 75.3572C34.6758 75.6528 35.0562 75.8601 35.4702 75.9573L35.98 76.1072L36.7803 76.2974C37.3198 76.4272 37.8701 76.5474 38.4199 76.6572C40.6401 77.1072 42.9102 77.4473 45.2002 77.7473C47.2002 77.9773 49.27 78.2273 51.3101 78.4172C53.3501 78.6072 55.4102 78.7373 57.4502 78.8472C60.0601 78.9973 62.6802 79.0474 65.2998 79.0574C67.9199 79.0674 70.54 79.1172 73.0601 78.9473C74.5303 78.7974 74.6299 79.4072 73.3398 80.3872C71.2324 81.73 68.8301 82.5398 66.3398 82.7473C60.8599 83.2073 55.4102 83.6272 49.9102 83.6072C47.1401 83.616 44.3735 83.429 41.6299 83.0474C40.25 82.8772 38.8701 82.6672 37.4702 82.4072C36.7603 82.2773 36.0698 82.1472 35.3501 81.9773L34.21 81.6973C33.6235 81.5632 33.0454 81.3928 32.48 81.1873C31.2212 80.8469 30.0864 80.1528 29.21 79.1873C28.9858 78.959 28.791 78.7036 28.6299 78.4272C28.4946 78.135 28.3774 77.8345 28.2803 77.5273C28.0923 76.9116 27.9976 76.271 28 75.6272C28.0537 74.2927 28.4497 72.9946 29.1499 71.8572L29.71 70.9873L30.3398 70.1472C30.5601 69.8572 30.7002 69.7173 30.8599 69.5173C31.02 69.3174 31.1802 69.1672 31.3398 68.9873C33.8013 66.4988 36.4785 64.2332 39.3398 62.2173C45.3398 57.8972 51.3398 53.9272 56.3999 49.0674C59.46 46.0674 62.1602 42.7173 63.2998 38.9973C64.1636 36.2266 63.9858 33.2361 62.7998 30.5874C61.8804 28.0867 59.4634 26.4553 56.7998 26.5374C54.5518 26.6296 52.3574 27.2571 50.3999 28.3672C48.3569 29.5127 46.4429 30.8738 44.6899 32.4272C43.8901 33.0874 43.1802 33.8174 42.4199 34.5273C39.6299 37.1873 38.7402 37.9473 36.7803 37.7573C36.3628 37.762 35.9458 37.7454 35.5303 37.7073C34.8999 37.5774 34.6001 37.0374 34.5801 36.0073C34.6689 34.6169 35.1318 33.2761 35.9199 32.1272C37.3052 29.8591 38.9644 27.7703 40.8599 25.9072C42.9326 24.0405 45.251 22.4661 47.75 21.2273C49.0981 20.5581 50.5078 20.0222 51.96 19.6272C52.7363 19.4131 53.5244 19.2427 54.3198 19.1172C55.1729 19.0198 56.0317 18.9829 56.8901 19.0073C58.7847 19.0503 60.6523 19.4614 62.3901 20.2173C64.228 21.0234 65.8491 22.2537 67.1201 23.8074C68.7651 25.825 69.9092 28.2029 70.46 30.7473C71.021 33.1582 71.0991 35.656 70.6899 38.0972C70.272 40.3999 69.4819 42.6189 68.3501 44.6672C67.3135 46.5349 66.0869 48.291 64.6899 49.9072L64.5601 49.7974Z" fill-rule="evenodd" fill="currentColor"/>
	<defs/>
</svg>
