<svg width="24" height="24" viewBox="0 0 110 110" fill="none" xmlns="http://www.w3.org/2000/svg" xmlns:xlink="http://www.w3.org/1999/xlink">
	<path d="M34.6079 81.7231C32.6636 81.0991 30.7739 80.3164 28.958 79.3833C27.1733 78.4326 25.4707 77.3357 23.8677 76.1033C22.2524 74.9092 20.7495 73.5703 19.3779 72.103C17.9966 70.6484 16.7451 69.0757 15.6377 67.4033C14.8384 66.1743 14.1074 64.9023 13.4478 63.5933C12.7559 62.3101 12.1704 60.9722 11.6978 59.5933C10.0547 54.6831 9.5957 49.4546 10.3579 44.333C11.1094 39.2393 13.1465 34.4209 16.2778 30.333C16.6279 29.8931 16.938 29.4233 17.2778 28.9932L18.4478 27.7729C19.1816 26.916 19.9844 26.1201 20.8477 25.3931C22.5381 23.9326 24.3589 22.6304 26.2881 21.5034C28.7847 19.9761 31.5239 18.8872 34.3877 18.2832C35.1304 18.1406 35.8823 18.0537 36.6377 18.0229C37.4082 17.9766 38.1816 18 38.9478 18.0933C39.7217 18.1733 40.4814 18.355 41.208 18.6333L42.2778 19.1133C42.6284 19.2666 42.9634 19.4546 43.2778 19.6733C44.8979 20.7729 44.0381 21.3633 42.3779 21.8633C41.978 21.9634 41.498 22.1431 41.0078 22.3232L40.2578 22.583L39.4478 22.9331C38.3838 23.3286 37.2861 23.6265 36.168 23.8232C31.8979 24.5933 27.438 27.2729 23.9678 30.4731C23.5078 30.8433 23.1177 31.293 22.688 31.7031C22.2578 32.1133 21.8179 32.5332 21.4478 32.9932C20.6777 33.8936 19.9663 34.8418 19.3179 35.833C17.9546 37.8652 16.8872 40.0806 16.1479 42.4131C15.9185 43.1265 15.7246 43.8506 15.5679 44.583C15.4478 45.3232 15.3379 46.083 15.2178 46.833C15.0977 47.583 15.2178 48.3633 15.1479 49.1333C15.0776 49.9033 15.2378 50.6733 15.2778 51.4434C15.6309 54.5483 16.4502 57.5825 17.708 60.4434C20.4907 66.8379 25.5117 71.9971 31.8276 74.9531C35.71 76.7903 39.9634 77.7075 44.2578 77.6333C50.8325 77.5359 57.1685 75.1528 62.1777 70.8931C64.0981 69.2622 65.7964 67.3862 67.228 65.313C67.9678 64.313 68.5977 63.2134 69.228 62.1533C69.8579 61.0933 70.4478 59.9634 70.9878 58.833C71.2378 58.3433 71.478 57.833 71.708 57.353C71.938 56.873 72.1377 56.353 72.3779 55.8433C72.8379 54.9233 73.1777 54.1333 73.5181 53.5034C73.8037 52.9634 74.1382 52.4512 74.5181 51.9731C74.8276 51.6284 75.1924 51.3379 75.5977 51.1133C76.0024 50.9351 76.4248 50.8008 76.8579 50.7134C77.2378 50.623 77.6079 50.4531 77.8579 50.4131C78.3276 50.4131 78.5679 50.793 78.8579 51.7729C79.0566 52.334 79.1382 52.9297 79.0977 53.5229C79.0742 54.2754 78.9395 55.0205 78.6978 55.7334C78.5278 56.333 78.3579 56.9331 78.168 57.5332C77.978 58.1333 77.7378 58.7231 77.5278 59.3232C77.1177 60.5332 76.5278 61.6934 76.0278 62.8833C74.8164 65.2363 73.3794 67.4668 71.7378 69.543C68.3315 73.9111 63.9883 77.4583 59.0278 79.9231C55.2471 81.7678 51.1519 82.8806 46.958 83.2031C42.7822 83.5083 38.5859 83.0439 34.5776 81.8333L34.6079 81.7231Z" fill-rule="evenodd" fill="currentColor"/>
	<path d="M83.1982 43.0732C82.8726 42.4204 82.4282 41.8335 81.8882 41.3433C81.1304 40.7329 80.124 40.5278 79.188 40.793C78.8579 40.9033 78.5278 40.9531 78.188 41.0532C76.8145 41.3687 75.4746 41.8174 74.188 42.3931C72.8105 42.9678 71.4741 43.6362 70.188 44.3931C69.0312 45.1045 67.9194 45.8857 66.8579 46.7334C65.4844 47.8569 63.9839 48.8164 62.3882 49.5933C61.8579 49.8232 61.5381 49.2729 61.4683 48.4331C61.3545 47.4351 61.6064 46.4297 62.1782 45.603C64.5142 42.6729 67.5039 40.3301 70.9082 38.7632L74.0981 37.1831C75.228 36.5962 76.4229 36.1436 77.6582 35.833C79.229 35.4292 80.877 35.4292 82.4482 35.833C83.9946 36.2905 85.3809 37.1743 86.4482 38.3833C87.6001 39.6963 88.5112 41.2026 89.1382 42.833C89.981 45.0991 90.5942 47.4443 90.9683 49.833C91.3379 51.603 91.9683 53.3032 92.2681 55.063C92.2681 55.4531 92.3979 55.833 92.4082 56.2231C92.4082 57.6934 92.0879 58.1733 90.958 58.5532C90.7095 58.6533 90.4561 58.7402 90.1982 58.813C89.2637 58.9263 88.3765 58.3726 88.0679 57.4834C87.7183 56.7529 87.3481 56.0229 87.0181 55.293C86.688 54.563 86.5381 53.8232 86.3281 53.0933C85.8979 51.623 85.5181 50.1533 85.0879 48.7632C84.7383 47.7632 84.5278 46.7031 84.1982 45.7632C83.9258 44.877 83.5532 44.0249 83.0879 43.2231L83.1982 43.0732Z" fill-rule="evenodd" fill="currentColor"/>
	<defs/>
</svg>
