<svg width="24" height="24" viewBox="0 0 110 110" fill="none" xmlns="http://www.w3.org/2000/svg" xmlns:xlink="http://www.w3.org/1999/xlink">
	<path d="M65.0762 68.0889C66.1948 66.3447 66.7788 64.311 66.7559 62.239C66.7573 61.5625 66.6631 60.8892 66.4761 60.239C66.1646 58.9893 65.5181 57.8484 64.606 56.939C63.5444 55.8472 62.3359 54.9082 61.0161 54.1489C59.7515 53.4724 58.4077 52.9551 57.0161 52.6089C56.126 52.3689 55.2061 52.239 54.3062 51.969C53.4062 51.699 52.5259 51.2791 51.6162 50.8989C51.0562 50.6389 51.1562 50.3289 51.7261 49.8989C52.0962 49.6245 52.4839 49.374 52.8862 49.1489C53.3994 48.8501 53.9614 48.6436 54.5459 48.5391C54.8159 48.5391 55.0859 48.449 55.3462 48.439C55.6069 48.4475 55.8677 48.4707 56.126 48.509L57.6763 48.699C58.7261 48.8691 59.7646 49.103 60.7861 49.3989C62.9453 49.9619 64.9595 50.9778 66.6958 52.3789C67.7764 53.3169 68.7798 54.3403 69.6958 55.439C70.7056 56.6355 71.4331 58.0435 71.8262 59.5591C71.9204 59.9712 71.9902 60.3887 72.0361 60.8091L72.1162 61.929C72.1162 62.3091 72.1763 62.679 72.186 63.0491L72.126 64.189C72.126 64.5688 72.126 64.949 72.0562 65.3289L71.856 66.469C71.7759 66.8489 71.7358 67.229 71.626 67.5989L71.2661 68.709L71.0459 69.3889L70.7461 70.0391C70.5361 70.469 70.3359 70.9089 70.106 71.3289C69.6206 72.1519 69.0649 72.9312 68.4458 73.6589C66.521 75.7195 64.1411 77.3018 61.4961 78.2791C60.4961 78.6489 59.5459 79.1089 58.4961 79.4189C57.4893 79.7217 56.459 79.9392 55.416 80.0688C54.9561 80.0688 54.5059 80.189 54.0459 80.179C53.4038 80.2334 52.7642 80.0522 52.2461 79.6689C51.896 79.2573 51.6704 78.7544 51.5962 78.219C51.5962 77.959 51.4761 77.699 51.4561 77.469C51.4858 77.051 51.6758 76.6606 51.9858 76.3789C52.2871 75.9185 52.729 75.5676 53.2461 75.3789C54.687 74.8323 56.0928 74.1978 57.4561 73.479C58.7202 73.0439 59.9341 72.4741 61.0762 71.7791C61.8501 71.2966 62.5708 70.7334 63.2261 70.0989C63.4761 69.739 63.8862 69.499 64.146 69.0989C64.4458 68.76 64.7109 68.3916 64.936 67.999L65.0762 68.0889Z" fill-rule="evenodd" fill="currentColor"/>
	<path d="M66.7559 54.8691C63.8457 53.0991 59.7559 52.3491 55.666 52.199L54.106 52.199L52.916 52.199L51.396 52.269C49.293 52.3665 47.1987 52.6003 45.126 52.969C44.0059 53.1592 42.6958 53.489 41.5757 53.6592L40.7559 53.7791L40.0557 53.7791C39.8359 53.7791 39.5557 53.7791 39.396 53.7791L38.876 53.719L38.6157 53.719L38.416 53.719L38.0356 53.6091C37.7856 53.5391 37.5259 53.489 37.3057 53.4192C36.9551 53.311 36.6191 53.1599 36.3057 52.969C35.9995 52.7622 35.6826 52.572 35.356 52.3992C35.1914 52.3357 35.0312 52.2622 34.876 52.179L34.666 52.0391C34.5576 51.9697 34.4741 51.8682 34.4258 51.749C34.3975 51.6375 34.3975 51.5205 34.4258 51.4092L34.4258 51.179C34.4258 51.019 34.4858 50.8792 34.5356 50.709L34.7461 50.1191C34.8647 49.8694 35.002 49.6289 35.1558 49.3992L36.0557 47.959C36.1689 47.792 36.3071 47.6436 36.4658 47.519L36.9761 47.0391L37.4761 46.5691L37.7358 46.3291L38.0659 46.0691L40.9258 44.0691L42.3359 43.0691L43.8057 42.1191C44.8057 41.479 45.7158 40.8591 46.646 40.229L49.1758 38.499C51.166 37.1318 53.0664 35.6389 54.8657 34.0291C55.7075 33.2705 56.4932 32.4517 57.2158 31.5791C57.8364 30.8608 58.3237 30.0381 58.6558 29.1492C58.8745 28.6001 58.7871 27.9766 58.4258 27.509C58.356 27.3591 58.166 27.229 58.0459 27.0791C57.9258 26.929 57.6958 26.7991 57.5161 26.6492C57.0698 26.3589 56.6094 26.0918 56.1357 25.8491C54.0449 24.8862 51.7856 24.3428 49.4858 24.249C47.0986 24.1165 44.7041 24.3252 42.376 24.8691C39.3506 25.5735 36.4248 26.6519 33.666 28.0791C32.2559 28.759 30.916 29.5791 29.5459 30.3691L27.5459 31.6692C26.856 32.0691 26.2856 32.6191 25.5459 33.019C23.7759 34.019 23.6958 33.5691 24.4561 31.8091C24.98 30.6384 25.6816 29.5559 26.5356 28.5991C27.0669 27.938 27.6562 27.3257 28.2959 26.769C28.9932 26.124 29.7461 25.5417 30.5459 25.0291C33.5322 23.0674 36.7769 21.5293 40.186 20.459C43.7344 19.3147 47.4639 18.8367 51.186 19.0491C53.1411 19.1562 55.0708 19.5437 56.916 20.199C57.8828 20.5559 58.8193 20.9907 59.7158 21.499C60.7964 22.0715 61.7681 22.8298 62.5859 23.739C63.6304 24.9114 64.2627 26.3936 64.3857 27.959C64.4697 29.3328 64.2158 30.7063 63.646 31.959C62.7754 33.8271 61.5723 35.5215 60.0957 36.959C58.0176 39.0193 55.8208 40.9561 53.5161 42.759L52.6758 43.429L52.4058 43.6292L51.856 44.019C51.4961 44.2891 51.106 44.5491 50.7959 44.7991C50.0356 45.2991 49.416 45.749 48.5356 46.2791L48.2661 46.449C48.2661 46.449 48.1558 46.5491 48.2661 46.5691C48.376 46.5891 48.3457 46.5691 48.376 46.5691C48.5356 46.5789 48.6958 46.5789 48.856 46.5691L49.856 46.459C50.5459 46.3792 51.3057 46.3091 52.1357 46.2791C52.5425 46.2791 52.9727 46.2791 53.4258 46.2791L54.8457 46.2791L56.6157 46.2791C59.0225 46.3484 61.417 46.6497 63.7661 47.179C66.8218 47.8323 69.6904 49.1692 72.1558 51.0891C74.6753 53.1438 76.4785 55.9448 77.3057 59.0891C77.6084 60.2754 77.7593 61.4949 77.7559 62.719C77.7363 63.959 77.5483 65.1902 77.1958 66.3792C76.5117 68.6877 75.3076 70.8086 73.6758 72.5791C70.5459 75.8582 66.6738 78.3379 62.3857 79.8091C56.0449 82.0781 49.3608 83.2385 42.626 83.239C41.1611 83.2871 39.6948 83.2402 38.2358 83.0991C32.7559 82.3792 31.2158 81.3792 30.4458 79.489C30.2427 79.0754 30.0786 78.6436 29.9561 78.199C29.856 77.519 30.3857 77.019 31.4058 76.699C32.0171 76.5303 32.6436 76.4231 33.2759 76.3792C34.0996 76.2947 34.9277 76.2578 35.7559 76.269C37.1357 76.269 38.5259 76.269 39.9058 76.199L44.0356 76.199C46.7666 76.1235 49.4907 75.8965 52.1958 75.519C54.8433 75.1506 57.4512 74.5381 59.9858 73.689C62.4038 72.8743 64.686 71.7012 66.7559 70.209C68.1074 69.2205 69.2637 67.9897 70.166 66.5791C70.939 65.3511 71.3516 63.9302 71.356 62.479C71.3418 61.7666 71.2275 61.0596 71.0161 60.3792C70.7876 59.644 70.4717 58.939 70.0757 58.2791C69.2671 56.9231 68.124 55.7971 66.7559 55.009L66.7559 54.8691Z" fill-rule="evenodd" fill="currentColor"/>
	<defs/>
</svg>
