<svg width="24" height="24" viewBox="0 0 110 110" fill="none" xmlns="http://www.w3.org/2000/svg" xmlns:xlink="http://www.w3.org/1999/xlink">
	<path d="M38.6973 78.5918C46.394 81.4873 54.7646 82.0918 62.7974 80.3315C64.7915 79.8892 66.7451 79.2803 68.6372 78.5117C70.5132 77.7681 72.3203 76.8613 74.0376 75.8018C77.4175 73.7217 80.1572 70.8818 81.2075 67.4517C81.6162 66.1865 81.8052 64.8608 81.7676 63.5317C81.6899 59.3203 80.0669 55.2842 77.2075 52.1919C73.6191 48.4976 68.9126 46.0898 63.8174 45.3418C58.6079 44.4595 53.2593 44.9204 48.2773 46.6816C45.9268 47.5303 43.7974 48.8975 42.0474 50.6816C41.2368 51.5688 40.5596 52.5693 40.0376 53.6519C39.4844 54.7427 39.0806 55.9028 38.8374 57.1016C38.3325 59.3584 38.7969 61.7231 40.1172 63.6216C40.8325 64.5957 41.6846 65.4614 42.6475 66.1919C43.6797 66.9385 44.7856 67.5786 45.9473 68.1016C50.2617 69.9531 55.0171 70.5254 59.6475 69.7515C61.8896 69.3745 64.0347 68.5552 65.9575 67.3418C67.7275 66.2583 69.0508 64.5767 69.6875 62.6016C69.9863 61.4893 69.8242 60.3032 69.2373 59.3115C68.5386 58.2329 67.5742 57.3516 66.4375 56.7515C63.9629 55.3735 61.1445 54.7349 58.3174 54.9116C56.9917 54.9951 55.7007 55.3706 54.5376 56.0117C53.4546 56.6333 52.562 57.5391 51.9575 58.6318C51.8091 58.896 51.6787 59.1699 51.5674 59.4517C51.4873 59.7119 51.4272 59.9814 51.3472 60.2119C51.1826 60.6812 51.1826 61.1924 51.3472 61.6616C51.5679 62.2373 51.9087 62.7588 52.3472 63.1919C52.8662 63.6768 53.4326 64.1089 54.0376 64.4814C55.6475 65.4814 56.4375 65.8916 56.3076 66.0718C56.1772 66.2515 55.1973 66.2017 53.4575 65.8418C52.3477 65.6089 51.2793 65.2109 50.2876 64.6616C49.9673 64.5117 49.6973 64.2417 49.2876 64.0317C48.9697 63.7178 48.6724 63.3838 48.3975 63.0317C47.7427 62.2056 47.3242 61.2168 47.1875 60.1719L47.1875 59.7515C47.0771 59.6016 47.1875 59.4619 47.1875 59.3218C47.1875 59.1816 47.2476 58.7817 47.2876 58.5015C47.373 57.9663 47.5107 57.4404 47.6973 56.9316C47.8813 56.4458 48.0952 55.9717 48.3374 55.5117C48.6172 55.0518 48.9072 54.5718 49.2275 54.1118C50.7065 52.2549 52.7432 50.9224 55.0376 50.3115C56.9863 49.7588 59.02 49.5693 61.0376 49.7515C62.9819 49.9302 64.8911 50.3848 66.7075 51.1016C68.6372 51.853 70.4053 52.9663 71.9175 54.3818C72.7778 55.2188 73.4941 56.1914 74.0376 57.2617C74.6074 58.3901 74.9473 59.6206 75.0376 60.8818C75.1362 63.2661 74.4321 65.6147 73.0376 67.5518C71.7852 69.2427 70.2119 70.6699 68.4072 71.7515C66.7432 72.8008 64.9341 73.5991 63.0376 74.1216C61.2397 74.6323 59.3926 74.9512 57.5273 75.0718C53.8511 75.3193 50.1602 74.8921 46.6372 73.8115C42.9004 72.7324 39.5273 70.6587 36.8774 67.8115C35.4546 66.2236 34.4268 64.3218 33.8774 62.2617C33.3604 60.2134 33.3364 58.0713 33.8076 56.0117C34.0205 55.043 34.311 54.0933 34.6772 53.1719C35.0645 52.2827 35.4985 51.4146 35.9775 50.5718C36.9888 48.9058 38.2656 47.416 39.7573 46.1616C41.5044 44.7397 43.4565 43.5898 45.5474 42.7515C47.5659 41.9458 49.6597 41.3428 51.7974 40.9517C56.0366 40.1406 60.3848 40.0728 64.6475 40.7515C69.0063 41.3916 73.1733 42.9751 76.8574 45.3916C78.7202 46.6655 80.4023 48.186 81.8574 49.9116C83.3115 51.6528 84.4609 53.6274 85.2573 55.7515C86.1567 58.0576 86.6602 60.4985 86.7476 62.9717C86.8687 65.5229 86.4282 68.0693 85.4575 70.4316C84.4717 72.7544 83.0298 74.856 81.2173 76.6118C79.4854 78.2856 77.5464 79.7305 75.4473 80.9116C71.377 83.2271 66.9551 84.8618 62.3574 85.7515C57.7983 86.6265 53.1362 86.8354 48.5176 86.3716C42.8164 85.8438 37.2695 84.228 32.1772 81.6118C26.9785 78.9814 22.5664 75.0249 19.3872 70.1416C17.0181 66.4038 15.5684 62.1577 15.1572 57.7515C14.7437 53.4087 15.1475 49.0264 16.3472 44.8315C17.5459 40.6567 19.4722 36.7266 22.0376 33.2217C24.5825 29.7783 27.6372 26.7437 31.0972 24.2217C36.4155 20.3223 42.4771 17.5552 48.9072 16.0918C52.1152 15.3379 55.4023 14.9717 58.6973 15.0015C62.0371 14.9927 65.3623 15.4468 68.5771 16.3516C69.2939 16.5229 69.9985 16.7397 70.6875 17.0015C71.3872 17.2515 72.0874 17.4619 72.7676 17.7617C74.1509 18.3228 75.4883 18.9912 76.7676 19.7617C77.3672 20.1318 77.9673 20.4316 78.4775 20.8218L79.9473 21.9219C80.8013 22.5649 81.6069 23.2705 82.3574 24.0317C83.0049 24.6362 83.5884 25.3066 84.0972 26.0317C84.54 26.5835 84.9541 27.1572 85.3374 27.7515C85.875 28.6479 86.3369 29.5879 86.7173 30.5615C86.9297 31.2725 87.0371 32.0103 87.0376 32.7515C87.0923 33.3169 87.0923 33.8862 87.0376 34.4517C86.8774 35.1016 86.0376 34.6118 84.7974 33.2817C82.9424 31.2974 80.9727 29.4243 78.8975 27.6719L77.3975 26.4316L75.7974 25.3315C75.2612 24.9653 74.7036 24.6318 74.1274 24.3315C73.5576 24.0415 73.0176 23.6719 72.4175 23.4219C70.0625 22.3096 67.5859 21.4775 65.0376 20.9419C62.4297 20.459 59.7783 20.2515 57.1274 20.3218C54.4331 20.4404 51.7554 20.8057 49.1274 21.4116C38.6973 23.9419 28.9375 30.8218 24.0376 40.3018C22.2007 43.7944 21.0659 47.6128 20.6973 51.5415L20.5674 54.5415C20.5718 55.5112 20.6318 56.4795 20.7476 57.4419C20.853 58.396 21.0098 59.3442 21.2173 60.2817C21.4775 61.1919 21.7075 62.1216 22.0576 63.0015C23.4058 66.6191 25.6162 69.8525 28.4976 72.4219C31.5034 75.0693 34.9761 77.1343 38.7373 78.5117L38.6973 78.5918Z" fill-rule="evenodd" fill="currentColor"/>
	<defs/>
</svg>
