<svg width="24" height="24" viewBox="0 0 110 110" fill="none" xmlns="http://www.w3.org/2000/svg" xmlns:xlink="http://www.w3.org/1999/xlink">
	<path d="M41.1323 40.4233C39.2324 43.5137 37.3525 46.6235 35.5327 49.7837C34.8623 50.9336 34.3228 52.1436 33.6523 53.2837L30.1123 59.2837C28.9927 61.2837 27.9126 63.3438 26.8423 65.4336C25.9023 67.2935 25.0728 69.2236 24.1626 71.1138C23.6206 72.3579 22.9888 73.561 22.2725 74.7134C21.5332 75.8623 20.6929 76.9434 19.7627 77.9434C19.1724 78.5537 18.8325 78.1733 18.7627 77.2637C18.6489 75.9951 18.8057 74.7168 19.2227 73.5137C19.4727 72.9136 19.6523 72.2734 19.9326 71.6836L20.7324 69.8936L22.3027 66.2437C23.3311 63.7036 24.5269 61.2349 25.8823 58.8535C26.7227 57.3936 27.5425 55.8535 28.2827 54.4136C29.0225 52.9736 29.7725 51.4136 30.5625 49.9233C32.3027 46.6836 34.0923 43.4736 35.9126 40.2637L39.3125 34.3638C41.0625 31.3638 42.9023 28.4834 44.5923 25.5234C45.2524 24.3735 45.8525 23.2036 46.4424 22.0234C47.0327 20.8438 47.6123 19.6733 48.3027 18.5537C48.6025 18.0635 48.8525 17.5537 49.1724 17.0635C49.5625 16.3882 50.0786 15.7944 50.6924 15.3135C51.1196 15.041 51.6343 14.9409 52.1323 15.0337C52.3677 15.0469 52.6016 15.0771 52.8325 15.1235C53.1826 15.2236 53.3623 15.5435 53.4126 16.0435C53.4595 16.6958 53.353 17.3496 53.1025 17.9536C52.3032 20.2173 51.3477 22.4224 50.2427 24.5537C49.0923 26.7334 47.8823 28.8535 46.6924 30.9937C44.9023 34.1538 43.1025 37.3335 41.2324 40.4736L41.1323 40.4233Z" fill-rule="evenodd" fill="currentColor"/>
	<path d="M52.0425 49.1235L46.7324 57.9136C46.0928 58.9834 45.5625 60.1138 44.9126 61.1836C42.6426 65.0435 40.2524 68.7837 37.9126 72.5435C36.9126 74.2036 35.9727 75.9634 35.0024 77.6436C33.8755 79.8765 32.5679 82.0137 31.0928 84.0337C30.6025 84.6533 29.9824 84.2036 29.6128 83.2437C29.146 82.0288 29.1709 80.6802 29.6826 79.4834C30.2124 78.3237 30.7627 77.1733 31.3228 76.0234C31.6128 75.4536 31.8926 74.8735 32.1924 74.3135L33.1924 72.6636C34.4927 70.4771 35.8657 68.3203 37.3125 66.1934C38.1694 64.9067 38.9512 63.5713 39.6528 62.1934L40.6528 60.1035C41.0127 59.4033 41.3828 58.7036 41.7725 58.0137C43.4727 55.0137 45.1826 52.0137 46.9326 49.0137L50.1426 43.4736C51.7427 40.6636 53.3325 37.8438 54.8726 35.0234C55.4624 33.9233 55.9927 32.8037 56.5327 31.6733C57.0498 30.5356 57.624 29.4243 58.2524 28.3438C58.5327 27.8735 58.7725 27.3936 59.0728 26.9336C60.2026 25.2334 60.8325 24.8735 61.9526 25.1035C62.21 25.1348 62.4644 25.188 62.7124 25.2637C63.4927 25.5435 63.6128 26.6138 63.0825 28.0234C62.3184 30.1226 61.4263 32.1729 60.4126 34.1636C59.4126 36.1636 58.2725 38.1636 57.1729 40.1636C55.5527 43.1636 53.8125 46.1636 52.1729 49.1636L52.0425 49.1235Z" fill-rule="evenodd" fill="currentColor"/>
	<path d="M67.4224 51.8535L62.7227 60.2036C62.1426 61.2036 61.7227 62.3037 61.0825 63.3037C58.9824 66.8838 56.5825 70.1836 54.4526 73.6738C53.4526 75.2139 52.6626 76.8237 51.8628 78.4136C50.8721 80.501 49.7183 82.5073 48.4126 84.4136C47.9824 85.0039 47.4126 84.6538 47.0928 83.8037C46.6294 82.6924 46.5693 81.4546 46.9224 80.3037C47.3228 79.1738 47.7124 78.0439 48.1724 76.9438C48.6328 75.8438 49.1724 74.7939 49.7427 73.7437C50.8281 71.6274 52.0264 69.5713 53.3325 67.5835C54.8926 65.1738 56.1128 62.5039 57.4824 59.9736C59.0024 57.1938 60.5059 54.3906 61.9927 51.5635L64.7324 46.3237L68.9028 38.3237C69.9624 36.2637 70.7925 34.1138 71.8125 32.0439C72.0425 31.5835 72.2627 31.1436 72.5225 30.7036C73.5225 29.1138 74.1826 28.7837 75.3525 29.0439C75.6162 29.0874 75.8765 29.1475 76.1328 29.2236C76.9526 29.5239 77.1328 30.5635 76.7925 31.9038C76.2432 33.9072 75.5342 35.8633 74.6724 37.7539C73.8428 39.6738 72.9927 41.5938 71.9824 43.4536L67.5425 51.8535L67.4224 51.8535Z" fill-rule="evenodd" fill="currentColor"/>
	<path d="M70.3022 66.6836L66.8823 71.6235C66.4624 72.2236 66.1523 72.8838 65.7324 73.4736C64.2627 75.5938 62.7324 77.7036 61.4326 79.8936C60.8452 80.8657 60.3081 81.8672 59.8223 82.8936C59.293 84.2471 58.6226 85.5405 57.8223 86.7534C57.5425 87.1138 56.9824 86.7534 56.5625 86.1538C56.0728 85.4941 55.9146 84.6455 56.1323 83.8535C57.2759 81.0449 58.7104 78.3638 60.4126 75.8535C61.4126 74.3638 62.2124 72.6235 63.1323 71.0234C64.1323 69.2637 65.2524 67.5635 66.3623 65.8638L68.3623 62.7236C69.3623 61.1338 70.4526 59.5737 71.3623 57.9336C72.0723 56.6636 72.5825 55.3037 73.1924 54.0034C73.3325 53.7139 73.4326 53.4038 73.5825 53.1235C74.1523 52.1235 74.5825 51.9038 75.5825 52.2334C75.8174 52.2954 76.0479 52.3721 76.2725 52.4639C77.0142 52.793 77.3696 53.6445 77.0825 54.4038C76.7119 55.688 76.2266 56.936 75.6323 58.1338C75.0225 59.3237 74.3223 60.4834 73.6323 61.6338C72.5723 63.3535 71.4326 65.0137 70.3423 66.7139L70.3022 66.6836Z" fill-rule="evenodd" fill="currentColor"/>
	<path d="M50.0527 32.2036L60.1426 37.374C61.3628 37.9937 62.6426 38.5039 63.8525 39.144L70.2725 42.564C71.2725 43.1338 72.4429 43.7236 73.4927 44.334L76.6426 46.2236C78.4893 47.3569 80.356 48.3872 82.2427 49.314C83.4429 49.9136 84.6929 50.394 85.8828 51.0039L89.5127 52.854C90.2627 53.2437 90.0225 53.6836 89.1528 54.0239C87.8701 54.4858 86.4829 54.5723 85.1528 54.2739C84.4414 54.1084 83.7402 53.9014 83.0527 53.6538C82.3726 53.394 81.7129 53.104 81.0527 52.814C79.7329 52.2339 78.4526 51.5938 77.2026 50.9438C74.7129 49.624 72.3125 48.334 69.9429 46.9438C67.0527 45.2437 63.7627 43.9438 60.6729 42.4736L50.4126 37.4839C48.3125 36.4839 46.2061 35.5039 44.0928 34.5439C40.8926 33.0737 37.6929 31.5439 34.4229 30.3438C33.1528 29.854 31.8828 29.4639 30.5825 29.0737L28.6528 28.5239L26.7529 27.9038C26.1929 27.7139 25.6328 27.564 25.0728 27.3438C24.3174 27.1108 23.6099 26.7451 22.9829 26.2637C22.6172 25.9043 22.3936 25.4248 22.3525 24.9136C22.3047 24.6797 22.2749 24.4424 22.2627 24.2036C22.2627 23.834 22.5425 23.5938 23.0225 23.4336C23.6699 23.2344 24.356 23.1929 25.0225 23.314C27.5205 23.6064 29.9868 24.1216 32.3926 24.854C34.8027 25.6138 37.2129 26.5039 39.6025 27.4536C43.1426 28.874 46.6626 30.394 50.0928 32.064L50.0527 32.2036Z" fill-rule="evenodd" fill="currentColor"/>
	<path d="M40.3926 41.3438L50.6626 46.4136C51.9126 47.0337 53.2124 47.5337 54.4624 48.1533L67.5522 54.7837C69.4824 55.7837 71.4922 56.6035 73.4326 57.5137C76.0024 58.5605 78.4922 59.7935 80.8823 61.2036C81.6123 61.6836 81.2227 62.2935 80.2622 62.6733C78.9707 63.1436 77.5542 63.1436 76.2622 62.6733L72.2622 61.1333C71.6025 60.8735 70.9424 60.6133 70.2622 60.3237L68.3423 59.4136C65.7822 58.1934 63.2524 56.8735 60.7622 55.4937C57.7622 53.8633 54.4624 52.6235 51.3125 51.1836C47.8525 49.5835 44.3926 47.9736 40.9424 46.3237L37.8022 44.8535C36.7422 44.3833 35.6724 43.9233 34.5923 43.4834C31.3125 42.1436 27.9922 40.8037 24.6426 39.7036C23.3423 39.2837 22.0225 38.9336 20.7124 38.6133C19.4023 38.2935 18.0825 38.0034 16.7822 37.6133C16.2124 37.4634 15.6426 37.3438 15.0723 37.1836C12.9727 36.5537 12.3926 36.1235 12.1523 35.0337C12.0845 34.791 12.0342 34.5435 12.0024 34.2935C11.9424 33.5137 13.0024 33.0537 14.7227 33.2036C19.8125 33.5337 24.7227 35.2036 29.6226 36.9136C33.2524 38.2334 36.8623 39.6636 40.4326 41.2734L40.3926 41.3438Z" fill-rule="evenodd" fill="currentColor"/>
	<path d="M38.8823 58.6333C41.792 60.2134 44.6821 61.7935 47.6021 63.3135C48.6724 63.8735 49.792 64.3135 50.8521 64.8535L56.4521 67.7432C58.332 68.6836 60.2524 69.5835 62.1924 70.4634C63.9121 71.2334 65.6924 71.9136 67.4424 72.6133C69.7393 73.4312 71.9312 74.519 73.9722 75.8535C74.6021 76.3032 74.2524 76.7534 73.4121 77.0234C72.2798 77.3589 71.0747 77.3589 69.9424 77.0234L66.4824 76.0034L63.062 74.7334C60.7822 73.8633 58.5024 72.9336 56.2524 71.8335C54.9023 71.1636 53.4824 70.6133 52.062 69.9834C50.6421 69.3535 49.2422 68.7734 47.8823 68.1133C44.8823 66.6533 41.8823 65.1133 38.9521 63.5933C37.1221 62.6636 35.312 61.7134 33.4824 60.8135C30.7021 59.4434 27.8823 58.0532 25.0923 56.8535C22.9023 55.9336 20.6421 55.3032 18.4121 54.5933C17.9121 54.4434 17.4121 54.2935 16.9521 54.1035C15.1621 53.3735 14.6924 52.8833 14.6421 51.7935C14.6226 51.5469 14.6226 51.2998 14.6421 51.0532C14.7124 50.2832 15.6421 49.9434 17.1523 50.1235C18.2515 50.25 19.3433 50.437 20.4224 50.6836C21.4922 50.9536 22.5723 51.2534 23.6323 51.5933C25.7915 52.2627 27.9033 53.0781 29.9521 54.0332C33.0122 55.4233 35.9521 56.9834 38.9521 58.4932L38.8823 58.6333Z" fill-rule="evenodd" fill="currentColor"/>
	<path d="M42.292 71.2832C44.1724 72.1934 46.0723 73.0732 47.9424 74.0332C48.6221 74.3735 49.3423 74.6235 50.022 74.9834L57.1421 78.8535C58.2021 79.4131 59.2822 79.9131 60.3721 80.3833C61.7837 80.9185 63.1265 81.6201 64.3721 82.4731C64.7524 82.7734 64.3721 83.3232 63.7622 83.7334C63.0654 84.2202 62.1812 84.3535 61.3721 84.0933C58.5171 82.9375 55.7378 81.6016 53.0522 80.0933C51.3774 79.2393 49.6509 78.4912 47.8823 77.8535C45.9624 77.0532 44.0723 76.1733 42.1621 75.3232C40.9824 74.8032 39.812 74.3232 38.6221 73.7832C36.8223 73.0332 35.0322 72.2334 33.2021 71.6133C31.7822 71.1235 30.3022 70.8535 28.8823 70.4932C28.562 70.4131 28.2422 70.3633 27.8823 70.2632C26.7124 69.8936 26.4424 69.5034 26.562 68.4434C26.5732 68.2017 26.6001 67.9614 26.6421 67.7231C26.8359 66.918 27.6284 66.4067 28.4424 66.5635C29.8179 66.7056 31.1797 66.9634 32.5122 67.3335C33.8521 67.7334 35.1724 68.2134 36.5122 68.7231C38.5122 69.4932 40.3921 70.3535 42.332 71.1934L42.292 71.2832Z" fill-rule="evenodd" fill="currentColor"/>
	<path d="M22.7827 46.6338C23.9829 44.7139 25.1729 42.7935 26.3228 40.8535C26.7427 40.1436 27.0728 39.3838 27.4927 38.6836C28.9629 36.1836 30.4927 33.6836 31.8926 31.1738C32.4971 30.0415 33.0381 28.876 33.5127 27.6836C34.0347 26.1299 34.7041 24.6294 35.5127 23.2036C36.0825 22.3237 38.1025 24.5137 37.4629 26.3535C36.293 29.5698 34.7808 32.6509 32.9526 35.5435C31.8628 37.2837 30.9526 39.2236 29.9526 41.0537C28.8228 43.0537 27.6426 45.0537 26.4629 46.9736L24.2925 50.5938C23.2129 52.4336 22.0825 54.2437 21.1025 56.1138C20.3428 57.5635 19.7725 59.1138 19.1025 60.5835C18.9629 60.9136 18.8525 61.2437 18.6929 61.5835C18.1128 62.7837 17.6929 63.0435 16.7627 62.8638C16.5469 62.8286 16.3335 62.7817 16.1226 62.7236C15.4326 62.5034 15.1729 61.7236 15.4526 60.7837C16.4053 57.9028 17.666 55.1338 19.2129 52.5234C20.3228 50.5234 21.5127 48.5737 22.6626 46.6035L22.7827 46.6338Z" fill-rule="evenodd" fill="currentColor"/>
	<defs/>
</svg>
