<svg width="24" height="24" viewBox="0 0 110 110" fill="none" xmlns="http://www.w3.org/2000/svg" xmlns:xlink="http://www.w3.org/1999/xlink">
	<path d="M58.2085 77.3806C58.2085 77.3806 60.5186 90.0906 61.5884 90.3806C63.7485 90.8606 69.8784 88.5505 70.7485 87.4707C71.8481 86.0405 68.6582 74.1106 68.9282 74.0405C71.2383 73.0405 76.9282 69.2207 77.9282 66.9607C79.1685 64.1807 56.9282 36.4607 51.3882 35.9607C47.8081 35.6506 44.2485 74.3105 45.4482 77.8606C46.1484 79.8806 58.4185 77.1606 58.2085 77.3806Z" fill-rule="evenodd" fill="currentColor"/>
	<path d="M24.2783 27.5007C23.9683 27.5906 23.9482 27.1206 24.0684 26.3506C24.1494 25.9922 24.2988 25.6526 24.5083 25.3506C24.7085 25.2202 24.9189 25.1064 25.1382 25.0107C25.2583 24.9607 26.7983 25.1406 27.3584 25.1807C27.8696 25.2275 28.3701 25.3594 28.8384 25.5706C29.8052 25.9348 30.7417 26.3762 31.6382 26.8906C31.8359 27.0181 32.0093 27.1807 32.1479 27.3706C32.6274 28.0081 33.2334 28.5393 33.9282 28.9307C34.0483 28.9907 34.1279 29.1006 34.3281 29.0605C34.5283 29.0208 36.3281 30.4106 36.4282 30.7107C36.7183 31.4807 36.9683 32.1306 37.228 32.8306C37.228 32.9307 37.3682 32.9807 37.2881 33.1606C37.1084 33.5806 37.2881 33.7007 37.3882 33.8906C37.5181 34.1731 37.6055 34.4729 37.6479 34.7808C37.6382 34.9856 37.5977 35.1877 37.5283 35.3806C37.5283 35.5605 37.0581 35.7808 36.9883 35.7808C36.918 35.7808 36.6582 35.9807 36.498 36.1006C36.4463 36.1499 36.3892 36.1936 36.3281 36.2307C35.6504 36.1174 34.9819 35.9536 34.3281 35.7407L34.0381 35.5408L33.3882 35.1206C32.8882 34.8506 32.3882 34.5505 32.2881 34.4907C32.188 34.4307 32.1582 34.2808 32.1084 34.1506C32.0581 34.0208 30.6382 33.2607 30.5884 33.2207C30.3481 32.9807 29.9883 32.8906 29.938 32.3906C29.938 32.2908 29.8584 32.2607 29.7983 32.2307C29.2974 31.8799 28.832 31.4814 28.4082 31.0408C28.168 30.8506 27.9082 30.6907 27.6582 30.5107C27.6157 30.4636 27.582 30.4094 27.5581 30.3506C27.5259 30.2778 27.478 30.2131 27.418 30.1606C26.832 29.7288 26.2056 29.3535 25.5483 29.0408C25.3882 28.9907 24.8384 28.2407 24.6279 28.1907C24.418 28.1406 24.4082 27.4707 24.2783 27.5007Z" fill-rule="evenodd" fill="currentColor"/>
	<path d="M45.3481 12.7605C45.0679 12.6506 45.4082 12.3206 46.0479 11.8206C46.3506 11.6033 46.689 11.4407 47.0479 11.3406C47.2959 11.3635 47.541 11.4138 47.7778 11.4905C47.9082 11.5405 48.9277 12.6506 49.3179 13.0205C49.6533 13.3528 49.9038 13.761 50.0479 14.2107C50.3682 15.0806 50.7178 15.9207 50.998 16.7905C51.0649 16.9866 51.082 17.1963 51.0479 17.4006C50.9707 18.1035 51.0811 18.8142 51.3682 19.4607C51.3682 19.5706 51.3682 19.6907 51.5981 19.7605C52.041 20.439 52.2808 21.2302 52.2881 22.0405C52.0679 22.7107 51.7881 23.3706 51.5581 24.0405C51.5581 24.1406 51.5581 24.2205 51.3979 24.3206C50.9678 24.5505 51.0479 24.7305 50.998 24.9307C50.8716 25.2148 50.7173 25.4863 50.5381 25.7405C50.3838 25.855 50.2197 25.9553 50.0479 26.0405C49.8481 26.1157 49.6279 26.1157 49.4277 26.0405C49.2881 25.9307 49.0679 26.0405 48.8882 26.0405C48.8247 26.0457 48.7612 26.0457 48.6978 26.0405C48.6382 26.0405 48.3081 25.7007 47.8779 25.3806C47.5527 25.1992 47.2671 24.9543 47.0381 24.6606C46.998 24.5544 46.9512 24.4507 46.8979 24.3506L46.5879 23.6907C46.46 23.47 46.3428 23.2432 46.2378 23.0105C46.1997 22.8699 46.1494 22.7327 46.0879 22.6006C46.0278 22.4905 46.0879 22.3606 46.1777 22.2405C46.2681 22.1206 45.6279 20.7007 45.6182 20.6406C45.6182 20.3105 45.418 20.0205 45.7378 19.6406C45.7783 19.5801 45.7783 19.5012 45.7378 19.4407C45.6201 18.8787 45.5732 18.3042 45.5981 17.7305C45.5547 17.4463 45.4912 17.1658 45.4082 16.8906C45.4082 16.8906 45.4082 16.7705 45.4082 16.7107C45.4268 16.6418 45.4268 16.5693 45.4082 16.5005C45.3032 15.821 45.1392 15.1516 44.918 14.5005C44.918 14.3606 45.0781 13.5005 44.978 13.3606C44.8779 13.2205 45.458 12.8105 45.3481 12.7605Z" fill-rule="evenodd" fill="currentColor"/>
	<path d="M61.6284 27.2605C61.7783 27.5906 61.2383 27.6406 60.3184 27.5906C59.895 27.5398 59.4849 27.4109 59.1084 27.2104C58.9224 27.0012 58.7583 26.7732 58.6182 26.5305C58.5386 26.3806 58.6182 24.6306 58.5386 24.0205C58.5229 23.4602 58.6079 22.9014 58.7886 22.3706C59.0771 21.3101 59.4487 20.2734 59.8984 19.2705C59.999 19.0459 60.1455 18.845 60.3286 18.6807C60.9385 18.0874 61.3979 17.3572 61.6685 16.5505C61.7183 16.4207 61.8086 16.3105 61.6685 16.1106C61.8584 15.1729 62.2778 14.2969 62.8882 13.5605C63.5684 13.0906 64.1382 12.5605 64.7886 12.1006C64.8784 12.0305 64.8784 11.9006 65.1182 11.9407C65.4141 12.0464 65.7422 11.9185 65.8882 11.6406C66.1348 11.3838 66.4307 11.1797 66.7583 11.0405C67.0088 10.9866 67.2681 10.9866 67.5186 11.0405C67.7686 11.0405 68.2886 11.6306 68.3184 11.7205C68.4185 11.9805 68.7583 12.1306 68.9985 12.3306L69.2583 12.5405C69.3394 12.915 69.3765 13.2976 69.3682 13.6807C69.4199 14.0554 69.4199 14.4355 69.3682 14.8105L69.1982 15.1606L68.8481 15.9106C68.6084 16.4905 68.3584 17.0906 68.3286 17.2305C68.2983 17.3706 68.1284 17.4407 67.9985 17.5205C67.8682 17.6006 67.3286 19.3806 67.2886 19.4507C67.0586 19.7705 67.0186 20.1907 66.4585 20.3506C66.3481 20.3506 66.3384 20.4604 66.3086 20.5305C66.0054 21.1538 65.6328 21.7407 65.1982 22.2805C65.0244 22.5818 64.874 22.896 64.7485 23.2205C64.7485 23.2805 64.6382 23.3105 64.5786 23.3606C64.5186 23.4106 64.4282 23.4705 64.3984 23.5405C63.9409 24.2327 63.5557 24.97 63.2485 25.7405C63.1885 25.9207 62.3882 26.5806 62.3584 26.8005C62.3286 27.0205 61.5684 27.1306 61.6284 27.2605Z" fill-rule="evenodd" fill="currentColor"/>
	<defs/>
</svg>
