<svg width="24" height="24" viewBox="0 0 110 110" fill="none" xmlns="http://www.w3.org/2000/svg" xmlns:xlink="http://www.w3.org/1999/xlink">
	<path d="M34.4404 63.9702C33.9805 61.6001 33.3906 59.25 32.7202 56.9102C32.4502 56.0601 32.0303 55.27 31.7803 54.4102C31.2803 52.9199 30.9204 51.4102 30.4302 49.8501C29.9404 48.29 29.4302 46.8501 28.9102 45.3101C28.3809 43.9995 27.7627 42.7266 27.0605 41.5L26.3804 40.3301C26.1704 39.9302 25.9805 39.52 25.7905 39.1001C25.4102 38.2612 25.125 37.3823 24.9404 36.48C24.8306 35.8901 25.5806 35.5601 26.6006 35.54C27.7373 35.4761 28.8535 35.8604 29.7104 36.6099C30.0303 36.98 30.3306 37.3403 30.6304 37.7202C30.9048 38.1079 31.1553 38.5117 31.3804 38.9302C31.8506 39.7402 32.3003 40.5801 32.7104 41.4302C33.5503 43.145 34.2427 44.9282 34.7803 46.7603C35.4004 48.98 36.6802 51.02 37.4102 53.2603C38.2705 55.6899 38.9502 58.2002 39.5903 60.7002C39.9604 62.25 40.3306 63.8003 40.6406 65.3501C41.1704 67.7002 41.4702 70.1001 41.9805 72.4199C42.3203 74.2402 43.0806 75.9702 43.3506 77.8C43.457 78.1904 43.5337 78.5881 43.5806 78.99C43.6201 79.3223 43.6201 79.658 43.5806 79.99C43.5308 80.2375 43.4248 80.4702 43.2705 80.6702C42.9175 81.0693 42.4492 81.3489 41.9302 81.4702C41.6553 81.5752 41.375 81.6653 41.0903 81.74C40.0542 81.8577 39.0537 81.3196 38.5806 80.3901C38.2202 79.6401 37.8906 78.8801 37.5806 78.1301C37.4204 77.75 37.2603 77.3701 37.1206 76.99C36.9805 76.6101 36.9102 76.2202 36.7905 75.8301C36.5903 75.0503 36.4302 74.27 36.2803 73.48C36.1304 72.6899 35.9502 71.9102 35.8105 71.1099C35.3203 68.77 34.9302 66.3799 34.3203 64.04L34.4404 63.9702Z" fill-rule="evenodd" fill="currentColor"/>
	<path d="M64.5811 61.3901C65.271 58.9399 66.1108 56.52 66.9312 54.1099C67.2607 53.2397 67.4209 52.3198 67.7607 51.46C68.3975 49.9438 69.1118 48.4619 69.9009 47.02C70.6411 45.5601 71.4609 44.1401 72.2109 42.71C72.9409 41.4697 73.4712 40.1299 74.0908 38.8599C74.7505 37.127 75.7734 35.5552 77.0908 34.25C77.521 33.8398 78.1909 34.3101 78.7607 35.1602C79.4341 36.0488 79.7417 37.1616 79.6211 38.27C79.126 39.9844 78.4556 41.6431 77.6211 43.2197C76.8511 44.8198 76.061 46.3999 75.1411 47.9497C74.0508 49.8301 73.6309 52.04 72.8911 54.1001C72.0708 56.3599 71.3511 58.6699 70.6611 61C70.2808 62.4497 69.8711 63.8901 69.561 65.3701C69.0244 67.5913 68.6172 69.8418 68.3408 72.1099C68.1611 73.8701 68.4409 75.6602 68.3408 77.4099C68.3408 77.79 68.3408 78.1799 68.3408 78.5698C68.3066 78.873 68.2397 79.1714 68.1411 79.46C68.04 79.6841 67.8896 79.8826 67.7012 80.04C67.271 80.3494 66.7603 80.5266 66.231 80.5498C65.9312 80.5498 65.6411 80.6499 65.3511 80.6599C64.3149 80.5977 63.4336 79.8816 63.1611 78.8799C62.9512 78.0598 62.771 77.23 62.6411 76.3999C62.5742 75.98 62.5142 75.5601 62.4609 75.1401C62.4312 74.7236 62.4312 74.3062 62.4609 73.8901C62.5229 72.2148 62.6865 70.5449 62.9512 68.8901C63.3311 66.3901 63.8911 63.8901 64.4907 61.3901L64.5811 61.3901Z" fill-rule="evenodd" fill="currentColor"/>
	<path d="M76.4609 20.8101C77.8682 20.3882 79.3164 20.1167 80.7808 20C81.1807 20 81.5806 20 82.0107 20C82.4688 20.0029 82.9263 20.0332 83.3809 20.0898C84.4312 20.2461 85.4468 20.5845 86.3809 21.0898C87.7251 21.8584 88.7266 23.1099 89.1807 24.5898C89.3496 25.0981 89.4736 25.6201 89.5508 26.1499C89.6108 26.6001 89.6606 27.0298 89.7109 27.4702C89.7808 28.3398 89.8208 29.1802 89.8306 30.02C89.8306 31.6802 89.8306 33.2998 89.7207 34.8999C89.6606 36.3198 89.7207 37.7402 89.6606 39.1401C89.6606 40.04 89.6606 40.9399 89.6006 41.8501C89.4961 42.771 89.2637 43.6729 88.9106 44.5298C88.6807 45.0801 88.021 44.8799 87.3306 44.3301C86.5171 43.7412 85.9253 42.896 85.6509 41.9302C85.4307 38.5 85.1509 35.0601 85.1509 31.6499C85.1401 30.6333 84.9854 29.623 84.6909 28.6499C84.5547 28.1938 84.3911 27.7461 84.2007 27.3101C84.1006 27.0498 84.1006 27.0098 84.0605 26.9199C84.021 26.8301 84.0605 26.75 83.9707 26.6602C83.8984 26.4556 83.7617 26.2798 83.5806 26.1602C83.3882 26.0234 83.165 25.9375 82.9307 25.9102C81.981 25.8691 81.0312 25.9873 80.1206 26.2598C78.7759 26.604 77.459 27.0483 76.1807 27.5898C74.1543 28.4146 72.2202 29.4502 70.4106 30.6802C69.0933 31.7256 67.8472 32.8579 66.6807 34.0698C66.4209 34.3198 66.2007 34.6099 65.9307 34.8501C64.9307 35.71 64.3906 35.6802 63.1807 34.8501C62.9009 34.6699 62.6108 34.5 62.3506 34.2998C61.4624 33.6328 61.2437 32.3906 61.8506 31.46C63.5864 28.4062 66.1064 25.8721 69.1509 24.1201C71.4453 22.7236 73.874 21.561 76.4009 20.6499L76.4609 20.8101Z" fill-rule="evenodd" fill="currentColor"/>
	<path d="M26.0107 27.52C25.311 27.1362 24.5693 26.834 23.8008 26.6201C23.5869 26.5649 23.3701 26.5249 23.1509 26.5C23.0107 26.5 22.9209 26.4399 22.8008 26.5C22.6807 26.5601 22.7207 26.5801 22.6606 26.6104C22.6006 26.6401 22.5107 26.8901 22.4307 27.02C22.2681 27.3628 22.0879 27.6963 21.8906 28.02C20.3022 30.6274 19.0366 33.418 18.1206 36.3301C17.7119 37.6353 17.4175 38.9736 17.2407 40.3301C17.1206 41.2002 17.0605 42.0703 16.9707 42.9302C16.8438 43.7793 16.6699 44.6201 16.4507 45.4502C16.3105 45.9702 15.6309 45.9902 14.8506 45.5303C13.9009 44.9751 13.2344 44.0396 13.0205 42.96C12.8755 39.0972 13.4941 35.2437 14.8408 31.6201C15.7207 29.4702 16.0205 27.0801 17.1509 24.71L17.7104 23.71C17.9961 23.2695 18.3315 22.8638 18.7104 22.5C19.4438 21.7573 20.3516 21.2109 21.3506 20.9102C22.9917 20.4683 24.7231 20.4927 26.3506 20.98C28.0264 21.478 29.6226 22.2119 31.0908 23.1602C33.1616 24.5112 35.1216 26.0264 36.9507 27.6899C38.4497 28.8618 39.8726 30.1274 41.2104 31.48C41.5205 31.7754 41.8076 32.0928 42.0708 32.4302C42.9907 33.73 42.8906 34.4302 41.8208 35.4302C41.5923 35.666 41.3481 35.8862 41.0908 36.0903C40.2549 36.7056 39.1162 36.7056 38.2808 36.0903L34.5806 33.54C33.3306 32.75 32.3105 31.73 31.1406 30.8701C29.564 29.5723 27.8262 28.4834 25.9707 27.6304L26.0107 27.52Z" fill-rule="evenodd" fill="currentColor"/>
	<defs/>
</svg>
