<svg width="24" height="24" viewBox="0 0 110 110" fill="none" xmlns="http://www.w3.org/2000/svg" xmlns:xlink="http://www.w3.org/1999/xlink">
	<path d="M57.3564 65.4053C55.1362 67.9653 52.9263 70.5352 50.6362 73.0654L48.936 74.9653L48.0562 75.9053L46.7661 77.3252C44.7661 79.5952 42.7661 81.415 40.7661 83.3252C40.3262 83.6255 39.8364 84.0151 39.436 84.2354L38.436 84.4453C37.8862 84.5654 37.3364 84.7051 36.7861 84.8452C36.6421 84.8823 36.4907 84.8823 36.3462 84.8452C36.1626 84.7788 35.9907 84.6846 35.8364 84.5654C35.6167 84.3818 35.4189 84.1738 35.2461 83.9453C34.4121 82.7803 33.9736 81.3779 33.9961 79.9453C33.9985 77.9375 34.1421 75.9326 34.4263 73.9453L34.8462 70.8354L34.8965 70.4551L34.8965 70.2251L34.9761 69.7651L35.1265 68.8555C35.5264 66.4351 35.9263 64.0254 36.3662 61.6353C36.8062 59.2451 37.2563 56.8555 37.6465 54.4751C37.8364 53.2954 38.0161 52.1055 38.1763 50.9351L38.3364 49.6055C38.3564 49.3188 38.3564 49.0317 38.3364 48.7451C38.3364 48.4951 38.3364 48.165 38.0361 48.0854C37.7959 47.9995 37.5415 47.9585 37.2861 47.9653C37.0229 47.9502 36.7593 47.9502 36.4961 47.9653L35.1562 48.0552C33.0161 48.2354 30.8062 48.4351 28.5864 48.5054C25.686 48.6548 22.7778 48.4805 19.916 47.9854C17.0049 47.417 14.2388 46.2637 11.7861 44.5952C10.2861 43.4951 11.1064 42.8252 12.7861 42.5952C15.1709 42.3101 17.5815 42.3101 19.9663 42.5952C22.4893 42.9912 25.0449 43.1353 27.5962 43.0254C30.2363 42.9453 32.8462 42.6255 35.7964 42.3652C36.6064 42.1953 37.2964 42.1953 37.9863 42.1953C38.6558 42.1929 39.3247 42.2432 39.9863 42.3452C40.584 42.4268 41.1631 42.6128 41.6963 42.8955C42.1987 43.1846 42.6572 43.5449 43.0562 43.9653C43.8066 44.9087 44.2124 46.0801 44.2061 47.2852C44.2427 47.9517 44.2427 48.6191 44.2061 49.2852L44.1265 50.2852C44.1265 50.5752 44.1265 50.6851 44.1265 50.8955C43.7764 53.8955 43.2461 56.665 42.686 59.4751C42.0264 62.8354 41.416 66.2451 40.9062 69.665L40.6465 71.5352L40.5464 72.3755C40.4863 72.9351 40.416 73.4854 40.3765 74.1255C40.3462 74.3608 40.3462 74.5996 40.3765 74.8354C40.3765 74.9751 40.5161 75.0654 40.5962 74.9751C40.6738 74.9209 40.7476 74.8608 40.8164 74.7954L41.7461 74.0254C42.0562 73.7051 42.4062 73.3853 42.7461 73.0254C42.9062 72.8354 43.0864 72.6851 43.2661 72.5054L44.4463 71.165C46.0464 69.2354 47.6763 67.3252 49.2563 65.3555C52.2095 61.7354 55.123 58.0684 57.9961 54.3555L71.0962 37.4854C74.4263 33.0952 77.4463 28.5752 80.8662 24.1953C81.5894 23.2085 82.3638 22.2607 83.186 21.3555C84.0264 20.5352 84.7563 19.8853 85.3965 19.3555C85.8887 18.8647 86.4688 18.4712 87.1064 18.1953C88.0898 17.916 89.1348 17.9365 90.1064 18.2554C90.4761 18.3433 90.8374 18.4639 91.186 18.6152C91.666 18.8853 91.6763 19.4854 91.4663 20.4453C91.3271 21.0381 91.1538 21.6226 90.9463 22.1953C90.8965 22.356 90.8364 22.5127 90.7661 22.665L90.5063 23.0952C90.3262 23.4053 90.1162 23.7251 89.8965 24.0952C89.2363 25.0952 88.5464 25.9751 87.8965 27.0151C87.2461 28.0552 86.4863 28.9453 85.7563 29.9053C84.3364 31.9053 82.8262 33.8052 81.3364 35.8154C78.3364 39.7554 75.2563 43.8154 72.0464 47.8154C67.2964 53.6553 62.3965 59.5752 57.4863 65.4951L57.3564 65.4053Z" fill-rule="evenodd" fill="currentColor"/>
	<defs/>
</svg>
