<svg width="24" height="24" viewBox="0 0 110 110" fill="none" xmlns="http://www.w3.org/2000/svg" xmlns:xlink="http://www.w3.org/1999/xlink">
	<path d="M77.8682 74.8105C73.9131 79.2676 68.9673 82.7344 63.4282 84.9307C60.7334 86.0645 57.9233 86.9028 55.0479 87.4307C52.1714 87.9429 49.2461 88.127 46.3281 87.9805C42.0508 87.8589 37.8315 86.957 33.8779 85.3208C26.8882 82.2988 21.251 76.8149 18.0381 69.9106C13.561 60.0059 14.0547 48.563 19.3682 39.0806C20.9917 36.1846 23.1421 33.6172 25.708 31.5107C26.5215 30.8232 27.3726 30.1821 28.2583 29.5908C29.1582 29.0107 30.0581 28.5005 30.978 28.0107C32.8252 27.0332 34.7563 26.2231 36.748 25.5908C37.7661 25.2729 38.8013 25.0127 39.8481 24.8105C40.9365 24.646 42.0371 24.5728 43.1382 24.5908C44.293 24.6084 45.4404 24.7832 46.5479 25.1108C47.7002 25.5059 48.7466 26.1592 49.6079 27.0205C50.0176 27.3892 50.3306 27.8525 50.5181 28.3706C50.6279 28.7007 50.5981 28.9004 50.458 28.9907C50.3179 29.0806 49.458 28.8706 48.3882 28.7607C46.0781 28.5708 43.3882 29.8105 39.668 30.8906C37.9526 31.354 36.2798 31.9629 34.668 32.7104C33.0586 33.4175 31.5298 34.2959 30.1079 35.3306C27.3379 37.3862 25.0566 40.0298 23.4282 43.0708C20.0361 49.5718 19.1636 57.0962 20.978 64.2007C21.5171 66.3691 22.3696 68.4478 23.5083 70.3706C24.71 72.2886 26.1592 74.0405 27.8179 75.5806C31.228 78.6685 35.3516 80.8608 39.8179 81.9604C49.5981 84.6206 60.5879 81.8306 68.6582 75.6304C73.6836 71.8301 77.332 66.4932 79.0479 60.4307C81.623 51.082 79.9121 41.0728 74.3779 33.1108C70.1328 27.2197 63.9048 23.0586 56.8379 21.3906L54.6079 20.9707C53.8481 20.8208 53.0679 20.8008 52.2979 20.6904C46.5181 20.0405 44.6079 19.8506 43.0781 18.3906C42.7212 18.1035 42.3867 17.7891 42.0781 17.4507C41.688 16.9106 42.0781 16.2808 43.228 15.6304C44.9683 14.7563 46.8652 14.2363 48.8081 14.1006C56.7573 13.4907 64.6709 15.6689 71.188 20.2607C77.8691 25.2217 82.7217 32.2534 84.9883 40.2607C85.8584 43.188 86.3721 46.21 86.5181 49.2607C86.5684 50.0264 86.5684 50.7949 86.5181 51.5605C86.5181 52.3208 86.5181 53.0908 86.4482 53.8506C86.3345 55.3848 86.1309 56.9106 85.8379 58.4204C85.5479 59.9321 85.167 61.4248 84.6982 62.8906C84.2036 64.3506 83.6226 65.7798 82.958 67.1704C81.6411 69.9453 79.96 72.5312 77.958 74.8608L77.8682 74.8105Z" fill-rule="evenodd" fill="currentColor"/>
	<defs/>
</svg>
