<svg width="24" height="24" viewBox="0 0 110 110" fill="none" xmlns="http://www.w3.org/2000/svg" xmlns:xlink="http://www.w3.org/1999/xlink">
	<path d="M74.3271 66.0991C72.6021 66.9536 70.9321 67.9155 69.3271 68.979C68.7573 69.3887 68.2373 69.8389 67.6875 70.2588C65.7124 71.6831 63.9658 73.3994 62.5073 75.3491C61.915 76.2295 61.4346 77.1797 61.0771 78.1787C60.8071 78.8091 60.7075 79.479 60.4375 80.1089C60.3271 80.439 60.2075 80.7588 60.0874 81.1089C59.9673 81.459 59.8774 81.7788 59.7471 82.1089C59.6172 82.439 59.2974 82.4487 58.9673 82.0288C58.5054 81.4082 58.2593 80.6528 58.2671 79.8789C58.2915 79.0752 58.4609 78.2822 58.7671 77.5391L59.2075 76.4287L59.7471 75.3589C60.5137 73.9805 61.481 72.7231 62.6172 71.6289C63.9473 70.3291 65.2271 68.9287 66.6875 67.7588C68.2871 66.5088 69.9565 65.3501 71.6875 64.2891C72.6875 63.6289 73.8071 63.019 74.8774 62.3989C76.4771 61.3989 78.1572 60.6489 79.7075 59.6787C80.856 58.9126 81.9546 58.0742 82.9971 57.1689L83.6172 56.5889C84.4072 55.9189 84.6172 55.8789 85.4375 56.189C85.6172 56.2588 85.8071 56.3091 85.9771 56.3887C86.2632 56.5049 86.4521 56.7803 86.4575 57.0889C86.4624 57.5195 86.3218 57.939 86.0571 58.2788C85.208 59.4189 84.1978 60.4297 83.0571 61.2788C81.9482 62.0542 80.8003 62.772 79.6172 63.4287C77.9072 64.4287 76.1274 65.269 74.4175 66.209L74.3271 66.0991Z" fill-rule="evenodd" fill="currentColor"/>
	<path d="M83.2275 31.5688C83.0474 31.3188 82.8774 31.0688 82.6875 30.8291L82.0771 30.1592L80.8071 28.8491L79.3975 27.6289L78.6973 27.0088L77.9375 26.459L76.3975 25.3589C75.8672 25.019 75.3071 24.7192 74.7573 24.3589C73.6558 23.709 72.5137 23.1313 71.3374 22.6289C66.5029 20.6377 61.3682 19.4746 56.1475 19.189C52.3188 19.022 48.4839 19.2935 44.7173 19.999C38.019 21.1729 31.6274 23.6899 25.9272 27.3989C23.1387 29.2266 20.6665 31.4966 18.6074 34.1191C16.5996 36.6963 15.229 39.7114 14.6074 42.9189C14.0879 45.7007 14.4014 48.5742 15.5073 51.1792C16.6279 53.9009 18.2646 56.3794 20.3271 58.479C24.3774 62.6323 29.3882 65.7236 34.9175 67.479C35.8374 67.749 36.7676 68.0391 37.7075 68.2988C38.6562 68.5522 39.6177 68.7559 40.5874 68.9092C43.0073 69.249 42.7573 69.519 40.5874 70.0889C39.0571 70.4473 37.4971 70.665 35.9272 70.7388C33.6626 70.7554 31.4121 70.3765 29.2773 69.6191C27.1694 68.8857 25.1338 67.9585 23.1973 66.8491C22.1973 66.2988 21.2773 65.689 20.3574 65.0488C19.4448 64.3633 18.5703 63.6289 17.7373 62.8491C14.2017 59.7451 11.5171 55.7905 9.9375 51.3589C9.1377 48.9795 8.84473 46.4585 9.07715 43.959C9.22021 42.7466 9.4541 41.5464 9.77734 40.3691L9.9873 39.5088L10.2974 38.6689L10.9272 37.0088C12.8013 32.7676 15.6812 29.0464 19.3174 26.1689C23.4824 22.8174 28.1191 20.0981 33.0771 18.0991C35.5493 17.0972 38.0811 16.249 40.6572 15.5591L42.6572 15.0889L44.6572 14.729C45.9673 14.459 47.3071 14.3589 48.6572 14.1992C54.4849 13.7046 60.3535 14.1333 66.0474 15.4692C68.8965 16.1548 71.6753 17.1055 74.3472 18.3091C77.0542 19.4966 79.6201 20.9824 81.9976 22.7388C84.9194 24.9634 87.4419 27.6689 89.4575 30.7388C91.5308 33.8369 92.8965 37.3535 93.4575 41.0391C93.9233 43.8706 93.7974 46.7686 93.0874 49.5488C92.3066 52.3481 90.9399 54.9487 89.0771 57.1792C85.4575 61.5688 80.7373 64.3691 76.4272 67.1089C73.2749 68.9927 70.3833 71.2822 67.8271 73.9189C66.668 75.1636 65.7036 76.5762 64.9673 78.1089C64.8174 78.4888 64.6172 78.8491 64.4976 79.2393L64.3774 79.6191C64.3174 79.7891 64.2573 79.9492 64.2075 80.1392C64.0825 80.5244 64.0088 80.9243 63.9873 81.3291L63.8975 82.6392L63.8975 83.3091L63.8975 84.1089C63.8975 85.209 63.8975 86.2891 64.0376 87.4189L63.2173 87.5791C63.1484 87.5771 63.0825 87.6069 63.0376 87.6592L62.9272 87.7588L62.7075 87.9492L62.5972 88.0391C62.5972 88.0391 62.5273 88.0391 62.4473 88.0391L62.2476 87.979C61.9673 87.8989 61.7676 87.7988 61.5273 87.7192C60.5967 87.3735 59.7075 86.9238 58.8774 86.3789C58.4312 86.0542 58.0068 85.7002 57.6074 85.3188C57.1875 84.9492 56.7974 84.5088 56.4175 84.1392C55.6772 83.3291 54.9976 82.5591 54.4175 81.8188L54.0176 81.3091L53.7773 80.9893L53.3472 80.3691C53.0771 79.979 52.8574 79.6089 52.6675 79.269C52.3452 78.7041 52.1094 78.0938 51.9673 77.459C51.8721 76.9399 51.8721 76.4082 51.9673 75.8892C52.0054 75.4365 52.0825 74.9883 52.1973 74.5488C52.4272 73.939 53.1973 74.0488 54.2676 74.709C54.9219 75.1133 55.5288 75.5898 56.0771 76.1289C56.4175 76.439 56.7573 76.7891 57.0771 77.1289L57.6274 77.7192L57.9175 78.0288L58.0176 78.1191C58.335 78.4106 58.6919 78.6562 59.0771 78.8491C59.1973 78.8491 59.3271 78.9492 59.4272 78.8491C59.5273 78.749 59.3472 78.3892 59.3271 78.189C59.3071 77.9888 59.3271 77.9292 59.3271 77.8291L59.3271 77.6792C59.3271 77.5889 59.3271 77.6792 59.3271 77.439C59.8726 75.8149 60.6328 74.2715 61.5874 72.8491C63.3838 70.2354 65.5728 67.9146 68.0771 65.9692C70.4673 64.0288 72.9375 62.4189 75.2676 60.8389C77.5972 59.2588 79.8374 57.7891 81.7275 56.1689C83.5083 54.7427 84.9985 52.9878 86.1172 50.999C86.6338 50.0474 87.043 49.041 87.3374 47.999C87.624 46.9419 87.7783 45.854 87.7974 44.7588C87.8447 42.4287 87.4619 40.1099 86.6675 37.9189C86.2729 36.793 85.7563 35.7129 85.1274 34.6992C84.8071 34.1792 84.5273 33.6392 84.1973 33.1289L83.0874 31.6689L83.2275 31.5688Z" fill-rule="evenodd" fill="currentColor"/>
	<path d="M57.7773 45.189C57.9131 46.0005 57.8125 46.8335 57.4873 47.5894C57.3638 47.9199 57.2026 48.2354 57.0073 48.5293C56.8975 48.6792 56.8271 48.8193 56.6973 48.9692C56.5674 49.1191 56.4072 49.2891 56.2573 49.4292C56.0327 49.6621 55.7812 49.8667 55.5073 50.0391C55.2349 50.2427 54.9146 50.3735 54.5771 50.4189C53.6323 50.582 52.6616 50.355 51.8872 49.7891C51.3159 49.3813 50.8271 48.8691 50.4473 48.2793C50.0801 47.79 49.7837 47.2515 49.5674 46.6792C49.499 46.4727 49.4419 46.2622 49.3975 46.0493C49.3975 45.8193 49.3975 45.5791 49.3975 45.3394C49.4277 45.1191 49.4741 44.9019 49.5371 44.689C49.6514 44.4863 49.8169 44.3174 50.0176 44.1992C50.2676 44.019 50.8271 44.5093 51.4272 44.979C51.8105 45.3101 52.2559 45.562 52.7373 45.7192C52.8374 45.5894 52.9873 45.5293 53.0176 45.7192C53.0474 45.9092 53.1675 46.189 53.2676 46.499C53.2979 46.6279 53.3984 46.7285 53.5273 46.7593C53.5176 46.8389 53.5176 46.9194 53.5273 46.999C53.519 47.0317 53.519 47.0664 53.5273 47.0991C53.5229 47.1191 53.5229 47.1392 53.5273 47.1592L53.4775 47.0991C53.4775 47.0991 53.3774 46.8491 53.3872 46.8491C53.3823 46.8228 53.3823 46.7954 53.3872 46.769L53.4673 46.689L53.5176 46.5693C53.5176 46.4893 53.6172 46.3989 53.6074 46.3691C53.5972 46.3394 53.7075 46.249 53.6772 46.1294C53.4663 45.855 53.1143 45.7295 52.7773 45.8091C52.7119 45.8442 52.6514 45.8882 52.5972 45.939C52.5693 45.9902 52.5459 46.0439 52.5273 46.0991C52.5142 46.061 52.4976 46.0244 52.4775 45.9893C52.4224 45.897 52.3555 45.813 52.2773 45.7393C52.2529 45.6841 52.2153 45.6357 52.1675 45.5991C52.1675 45.5991 52.0073 45.5093 52.0474 45.519L52.1274 45.519C52.2119 45.5454 52.3027 45.5454 52.3872 45.519C52.5244 45.5024 52.6587 45.4688 52.7871 45.4189L52.7173 45.4189L52.4873 45.5293C52.3174 45.6191 52.1172 45.729 51.8774 45.8794C51.6372 46.0293 51.4375 46.1592 51.2275 46.2993C50.5273 46.7993 49.7373 46.9492 49.1572 46.2993C48.9624 45.9312 48.834 45.5317 48.7773 45.1191C48.7798 44.6187 48.8784 44.123 49.0674 43.6592C49.272 43.2534 49.5381 42.8823 49.8574 42.5591C50.1191 42.2974 50.415 42.0718 50.7373 41.8892C51.7544 41.3208 52.9546 41.1772 54.0771 41.4893C54.9092 41.6665 55.6851 42.0439 56.3374 42.5894C57.1221 43.2524 57.667 44.1558 57.8872 45.1592L57.7773 45.189Z" fill-rule="evenodd" fill="currentColor"/>
	<path d="M40.0776 47.3789C40.3711 48.3667 40.3184 49.4253 39.9277 50.3789C39.5396 51.2788 38.9263 52.064 38.1475 52.6587C37.6514 53.1104 37.0654 53.4512 36.4277 53.6587C36.1528 53.7251 35.8701 53.752 35.5874 53.7388C35.2915 53.7432 34.9971 53.6958 34.7178 53.5991C34.0986 53.4346 33.5439 53.0854 33.1274 52.5991C32.4878 51.8774 32.0562 50.9961 31.8774 50.0488C31.7354 49.311 31.7017 48.5566 31.7778 47.8091C31.793 46.7827 32.3477 45.8403 33.2378 45.3291C33.5278 45.189 33.8174 45.6387 34.1274 46.1787C34.2876 46.439 34.4575 46.7188 34.6177 46.939C34.7461 47.1001 34.8633 47.271 34.9678 47.4487C35.0884 47.8013 35.2529 48.1372 35.4575 48.4487C35.4575 48.5288 35.5576 48.5991 35.5474 48.689C35.5425 48.7754 35.5425 48.8623 35.5474 48.9487C35.5425 49.0356 35.5425 49.1221 35.5474 49.209L35.5474 49.459C35.5356 49.5215 35.5356 49.5859 35.5474 49.6489C35.5176 49.6831 35.4971 49.7246 35.4878 49.769C35.4663 49.8174 35.4497 49.8677 35.4375 49.9189C35.5874 49.4287 35.4375 49.7891 35.5078 49.6787C35.5078 49.6787 35.5874 49.6787 35.6675 49.6787L35.8774 49.6089C36.2617 49.4805 36.5479 49.1562 36.6274 48.7588C36.6426 48.4492 36.5137 48.1499 36.2778 47.9487C35.9009 47.5645 35.356 47.3955 34.8276 47.499C34.6382 47.5601 34.499 47.7222 34.4678 47.9189L34.4678 48.019L34.3975 48.019L34.5376 48.0791C34.6274 48.0791 34.6377 48.0791 34.6675 48.1787C34.6978 48.2788 34.7676 48.2788 34.7676 48.3291C34.7866 48.3906 34.7866 48.457 34.7676 48.519C34.6943 48.5991 34.6138 48.6729 34.5278 48.7388C34.2324 48.9404 33.9175 49.1113 33.5874 49.249L32.9976 49.5288C32.3628 49.8428 31.6011 49.7354 31.0776 49.2588C30.7114 48.7593 30.4932 48.1665 30.4478 47.5488C30.4146 47.1411 30.4722 46.7314 30.6177 46.3491C30.7427 45.9722 30.9214 45.6152 31.1475 45.2891C31.9985 44.1753 33.3374 43.5449 34.7378 43.5991C35.9023 43.6221 37.0381 43.9683 38.0176 44.5991C38.9907 45.2285 39.7319 46.1592 40.1274 47.249L40.0776 47.3789Z" fill-rule="evenodd" fill="currentColor"/>
	<path d="M33.4072 50.0493C33.4834 49.7993 33.5469 49.5454 33.5972 49.2891C33.5972 49.1992 33.5273 49.1592 33.5972 49.0693C33.7051 48.7407 33.7954 48.4072 33.8672 48.0693C33.8711 47.9453 33.8105 47.8281 33.7075 47.7593C33.5771 47.6592 33.3071 47.6489 33.5771 47.3394C33.8472 47.0293 36.6772 45.6392 36.8574 45.8491C37.168 46.2002 37.1929 46.7197 36.9175 47.0991C36.7373 47.4189 36.9873 47.5591 37.0176 47.7891C37.0322 48.0391 37.0322 48.2896 37.0176 48.5391C37.0073 48.689 37.0073 48.8394 37.0176 48.9893C37.0176 49.209 37.0176 49.4492 37.1172 49.6191C37.2173 49.7891 37.5073 49.8091 37.7173 49.8892C37.7676 49.8892 37.8472 49.8892 37.8774 49.8892C37.9072 49.8892 37.8774 49.9893 37.6772 50.1094L37.3071 50.2891L36.7075 50.5591L36.1875 50.7891C35.6543 51.0332 35.0938 51.2109 34.5176 51.3193C33.7373 51.3193 33.5176 51.0391 33.3574 50.7593C33.2905 50.5322 33.2734 50.2935 33.3071 50.0591L33.4072 50.0493Z" fill-rule="evenodd" fill="currentColor"/>
	<path d="M73.8672 43.8491C73.6523 44.5845 73.2847 45.2661 72.7876 45.8491C72.5029 46.1855 72.165 46.4727 71.7876 46.6987C71.5874 46.8188 71.3975 46.9287 71.1973 47.0288C70.9956 47.1074 70.7886 47.1709 70.5776 47.2188C70.0273 47.4023 69.4438 47.4634 68.8672 47.3989C68.5845 47.3389 68.3066 47.2549 68.0376 47.1489C67.8013 47.0317 67.5742 46.8984 67.3574 46.749C67.0078 46.4634 66.7046 46.1265 66.4575 45.749C66.0664 45.1377 65.7915 44.46 65.6475 43.749C65.4546 43.1387 65.3999 42.4932 65.4873 41.8589C65.5024 41.6426 65.5024 41.4253 65.4873 41.209C65.5444 41.0049 65.6357 40.812 65.7573 40.6387C66.0474 40.3188 66.2676 39.9688 66.8276 39.999C67.0811 40.0532 67.3071 40.1948 67.4673 40.3989L67.8672 40.8291L68.2173 41.229C68.5483 41.6182 68.936 41.9551 69.3672 42.229C69.272 42.4521 69.1948 42.6831 69.1372 42.9189C69.0674 43.1387 69.1372 43.1787 69.1372 43.229C69.0581 43.3564 68.9976 43.4946 68.9575 43.6387C68.9575 43.6387 68.9575 43.689 68.9575 43.7188C68.9575 43.4688 68.8975 44.2988 68.9575 43.1489C68.96 43.189 68.96 43.229 68.9575 43.269C68.9497 43.3018 68.9497 43.3359 68.9575 43.3691C68.9575 43.3691 69.0273 43.2988 69.0972 43.2588C69.2407 43.0601 69.3242 42.8237 69.3374 42.5791C69.3374 42.1787 69.3374 41.689 69.0776 41.5791C68.8174 41.4688 68.8276 41.8589 68.8076 42.0889C68.8076 42.0889 68.8076 42.229 68.8076 42.189C68.8076 42.1489 68.6274 42.1191 68.4673 41.8989C68.3076 41.6787 68.1074 41.3887 67.8174 40.959L67.4272 40.3887C66.9761 39.8237 66.8652 39.0591 67.1372 38.3887C67.249 38.1631 67.4019 37.9595 67.5874 37.7891C67.8062 37.6255 68.0488 37.4971 68.3076 37.4087C68.4375 37.4087 68.5576 37.3091 68.6973 37.2788C68.8604 37.2686 69.0244 37.2686 69.1875 37.2788C69.5195 37.2383 69.8555 37.2383 70.1875 37.2788C71.4717 37.5781 72.5654 38.416 73.1875 39.5791C73.9839 40.8501 74.2666 42.377 73.9775 43.8491L73.8672 43.8491Z" fill-rule="evenodd" fill="currentColor"/>
	<defs/>
</svg>
