<svg width="24" height="24" viewBox="0 0 110 110" fill="none" xmlns="http://www.w3.org/2000/svg" xmlns:xlink="http://www.w3.org/1999/xlink">
	<path d="M49.1436 52.3176C48.7231 51.8318 48.3516 51.3059 48.0337 50.7478C47.6904 50.1997 47.415 49.6121 47.2134 48.9978C46.8198 47.8486 46.6206 46.6421 46.6235 45.4277C46.5381 44.6499 46.5381 43.8655 46.6235 43.0876C47.2021 40.7534 48.2202 38.5508 49.6235 36.5977C50.1836 35.7776 50.6235 34.9077 51.0835 34.0476C51.5488 32.803 52.5352 31.824 53.7837 31.3677C54.2334 31.2478 55.1035 32.3076 55.9033 33.4978C56.7036 34.6877 57.5337 35.9978 57.3833 36.4978L57.1636 37.1277L57.0537 37.4478L56.8833 37.7178C56.6436 38.0776 56.4033 38.4377 56.1333 38.7976C55.582 39.5476 54.9844 40.2625 54.3433 40.9377C53.5137 41.8176 53.6436 43.0078 53.5537 43.9377C53.4302 44.8184 53.5444 45.7158 53.8833 46.5376C54.1519 47.1135 54.561 47.6123 55.0737 47.9878C56.0078 48.748 57.1187 49.2607 58.3037 49.4778C58.8164 49.5471 59.3374 49.5269 59.8433 49.4177C60.3535 49.4177 60.8433 49.3176 61.3833 49.3076C61.6118 49.2712 61.8423 49.2544 62.0737 49.2578C62.1689 49.2659 62.2632 49.2861 62.3535 49.3176C62.439 49.3699 62.5161 49.4338 62.5835 49.5078C62.7241 49.6501 62.833 49.8206 62.9033 50.0078C63.0845 50.5557 63.1689 51.1309 63.1533 51.7078C63.1533 52.0576 63.1533 52.3977 63.1533 52.7078C63.1445 53.7578 62.6943 54.7559 61.9136 55.4578C61.6597 55.6724 61.3726 55.8445 61.0635 55.9678C60.7832 56.1021 60.4961 56.2224 60.2036 56.3276C59.6201 56.5405 59.0171 56.6946 58.4033 56.7876C57.1445 56.7468 55.8999 56.5105 54.7134 56.0876C52.5347 55.3657 50.5669 54.1191 48.9834 52.4578L49.1436 52.3176Z" fill-rule="evenodd" fill="currentColor"/>
	<path d="M88.1333 54.9275C87.02 62.3232 83.6821 69.2048 78.5635 74.6575C76.0669 77.3313 73.2017 79.6345 70.0537 81.4976C66.8965 83.3315 63.4814 84.6799 59.9233 85.4976C54.8467 86.6321 49.6094 86.8591 44.4536 86.1675C39.9292 85.5193 35.5396 84.145 31.4536 82.0977C29.4346 81.0479 27.5137 79.8196 25.7134 78.4275C23.8325 77.1077 22.105 75.5815 20.5635 73.8777C17.3892 70.4639 15.1167 66.3118 13.9536 61.7976C13.6675 60.6804 13.4404 59.5488 13.2734 58.4075C13.1533 57.2576 13.0137 56.1177 13.0034 54.9675C12.9937 53.8176 13.0034 52.6875 13.0537 51.5476C13.1035 50.4075 13.2534 49.2776 13.4434 48.1775C14.0693 44.2402 15.1675 40.3923 16.7134 36.7175C18.2749 33.0515 20.3306 29.6162 22.8232 26.5076C25.9932 22.3647 30.1353 19.0674 34.8833 16.9075C37.3052 15.9006 39.8696 15.2798 42.4834 15.0676C43.7754 14.9775 45.0718 14.9775 46.3633 15.0676C47.6396 15.1433 48.9019 15.3716 50.1235 15.7476C51.6035 16.4375 52.1836 16.8176 52.1235 16.9475C51.417 17.1611 50.6992 17.3347 49.9736 17.4675C48.6733 17.9075 46.9033 18.2676 44.9736 19.0376L43.4937 19.6575C42.9937 19.8877 42.4937 20.1377 41.9736 20.3577C40.9736 20.8276 39.8833 21.2876 38.8232 21.8376C37.874 22.311 36.9526 22.8386 36.0635 23.4175C35.1201 23.9421 34.2119 24.5266 33.3433 25.1675C31.6289 26.468 30.0571 27.9463 28.6533 29.5776C25.8086 32.9758 23.5327 36.8123 21.9136 40.9375C20.2021 45.072 19.2114 49.4688 18.9834 53.9375C18.9087 56.1104 19.1069 58.2842 19.5732 60.4075C19.6797 60.9417 19.8164 61.4692 19.9834 61.9875C20.123 62.5137 20.2935 63.0312 20.4937 63.5376C20.6538 64.0615 20.8442 64.5757 21.0635 65.0776C21.2637 65.5876 21.5034 66.0776 21.7534 66.5776C24.314 71.5374 28.5112 75.459 33.6333 77.6775C38.8687 80.0356 44.563 81.2004 50.3037 81.0876C56.5332 81.1753 62.6484 79.4106 67.8735 76.0176C73.0649 72.5676 77.1323 67.6729 79.5732 61.9375C81.0781 58.4685 81.8247 54.7183 81.7637 50.9375C81.7285 47.2786 80.519 43.7275 78.3135 40.8076C77.4561 39.7014 76.3936 38.771 75.1836 38.0676C73.9487 37.3877 72.5869 36.969 71.1836 36.8376C69.7344 36.6968 68.2725 36.7915 66.8535 37.1177L65.7935 37.4175C65.4336 37.5176 65.0933 37.6675 64.7437 37.7876C64.249 37.991 63.771 38.2317 63.3135 38.5076L62.5034 38.9475C62.2334 39.1277 61.9634 39.3477 61.6934 39.5476L60.6035 40.2275C60.4497 40.3293 60.2808 40.407 60.1035 40.4575L59.6436 40.6177L58.7236 40.9375L58.0137 41.1377L57.3335 41.3376C57.0234 41.2175 56.8735 40.9475 56.6733 40.7375C56.3032 40.2466 55.9819 39.7209 55.7134 39.1675C55.1265 37.7668 54.6387 36.3267 54.2534 34.8577L53.6636 32.7175C53.5137 32.1775 53.3633 31.6475 53.2334 31.0876L53.0933 30.4875L55.0234 30.5576C55.1689 30.573 55.3154 30.5339 55.4336 30.4475C55.4082 30.6228 55.4399 30.8015 55.5234 30.9575C55.5234 31.0876 55.6533 31.2275 55.7437 31.4175C55.8335 31.6077 55.9434 31.7476 56.0635 31.9575L56.2637 32.2476L56.3633 32.3877L56.3633 32.4675C56.2275 32.5842 56.0972 32.7078 55.9736 32.8376C55.6206 33.2068 55.2866 33.594 54.9736 33.9976C53.5913 35.7852 52.3672 37.6887 51.3135 39.6875C50.7935 40.6875 50.3135 41.6875 49.8936 42.6875C49.6836 43.1975 49.4937 43.6875 49.3335 44.1975C49.2466 44.4509 49.167 44.7009 49.0933 44.9475L49.0034 45.2976L49.0034 45.5076C48.8789 46.054 48.8789 46.6213 49.0034 47.1675C49.2217 47.6611 49.6519 48.0288 50.1733 48.1675C50.4165 48.2573 50.668 48.3245 50.9233 48.3677L51.1035 48.3677L51.1836 48.3677L51.3535 48.3677L52.0835 48.4775C53.0835 48.5977 54.0835 48.6475 55.2236 48.7175L55.7134 48.7175L55.9434 48.7175L56.3535 48.6675C56.6113 48.6201 56.8721 48.5867 57.1333 48.5676C57.2954 48.5156 57.4634 48.4854 57.6333 48.4775L58.0835 48.4775C58.2236 48.4775 58.3936 48.4775 58.4536 48.3076C58.4907 48.0803 58.4482 47.8472 58.3335 47.6475C58.1978 47.3596 58.0938 47.0579 58.0234 46.7476C57.9517 46.061 57.9751 45.3677 58.0933 44.6875C58.0933 44.2676 57.9834 43.6077 58.0933 43.2476C58.2036 42.8877 58.3535 42.7876 58.7437 42.7976C58.9854 42.8179 59.2241 42.8682 59.4536 42.9475C59.8901 43.1213 60.3174 43.3184 60.7334 43.5376C62.1577 44.4104 63.4971 45.4148 64.7334 46.5376C66.0156 47.8188 66.8979 49.4446 67.2734 51.2175C67.3887 51.7986 67.3887 52.3965 67.2734 52.9775C67.2061 53.3306 67.0771 53.6689 66.8936 53.9775C66.7124 54.2563 66.4897 54.5059 66.2334 54.7175C65.7695 55.1265 65.2471 55.4636 64.6836 55.7175C63.9531 56.0884 63.1519 56.2998 62.3335 56.3376C61.1934 56.5576 59.9336 56.6475 58.6533 56.7976C58.0234 56.8477 57.3633 56.9275 56.6533 56.9575L54.9033 57.0176C53.1313 57.1023 51.3555 56.9746 49.6133 56.6377L49.2534 56.5676L48.7134 56.4475C48.3633 56.3577 48.0337 56.2476 47.7134 56.1475C47.373 56.052 47.0391 55.9351 46.7134 55.7976C46.3691 55.6858 46.0347 55.5454 45.7134 55.3777C44.4546 54.7917 43.3335 53.9468 42.4233 52.8975C41.5176 51.8535 40.897 50.5925 40.6235 49.2375C40.3638 47.8374 40.3843 46.3997 40.6836 45.0076C40.8198 44.2783 40.9971 43.5571 41.2134 42.8477C41.3936 42.2676 41.5137 41.8477 41.6836 41.4275C42.0034 40.5476 42.3433 39.7075 42.6836 38.8975C43.4058 37.3181 44.2139 35.7791 45.1035 34.2876C45.9834 32.8176 46.9136 31.3975 47.9634 29.9775C48.5034 29.2576 49.0537 28.5576 49.7236 27.7876C50.1196 27.3381 50.54 26.9106 50.9834 26.5076C51.416 26.1243 51.8887 25.7891 52.3936 25.5076L52.7637 25.3176C52.9517 25.2229 53.1455 25.1394 53.3433 25.0676L53.7036 24.9375L54.2534 24.7976L54.8335 24.7075C55.1665 24.6826 55.5005 24.6826 55.8335 24.7075L56.3335 24.7576L56.5835 24.8076L56.9336 24.8877C57.4121 25.0193 57.8726 25.2107 58.3037 25.4575C58.7275 25.6978 59.1177 25.9937 59.4634 26.3376C59.6338 26.5081 59.7939 26.6885 59.9434 26.8777C60.0811 27.0461 60.208 27.2231 60.3232 27.4075C60.4868 27.6804 60.6304 27.9646 60.7534 28.2576C60.8569 28.5117 60.9438 28.7722 61.0137 29.0376C61.0928 29.3667 61.1499 29.7007 61.1836 30.0376L60.9937 29.1675C61.0835 29.5176 61.1733 29.9075 61.2534 30.2876L61.4336 31.0476L61.6533 30.9675C62.5757 30.6287 63.5176 30.3447 64.4736 30.1177C66.4121 29.6421 68.4106 29.4568 70.4033 29.5676C72.4614 29.6736 74.4883 30.1162 76.4033 30.8777C78.3701 31.6655 80.1709 32.8154 81.7134 34.2676C87.5732 40.0576 89.0732 48.0276 88.2134 54.9575L88.1333 54.9275Z" fill-rule="evenodd" fill="currentColor"/>
	<defs/>
</svg>
