<svg width="24" height="24" viewBox="0 0 110 110" fill="none" xmlns="http://www.w3.org/2000/svg" xmlns:xlink="http://www.w3.org/1999/xlink">
	<path d="M70.0869 61.3096L72.877 60.5894L74.2471 60.2197C74.3389 60.1792 74.437 60.1553 74.5371 60.1494L74.647 60.1494C74.8335 60.1372 75.0181 60.1035 75.1968 60.0493C75.2456 60.0327 75.29 60.0054 75.3271 59.9697C75.3271 59.9697 75.3271 59.8994 75.3271 59.8696L75.2368 59.6294L74.9268 59.1694L74.7471 58.9097L74.5869 58.7495L74.2969 58.4297C73.707 57.7593 73.1069 57.0996 72.4668 56.4297C71.8271 55.7593 71.167 55.1597 70.5469 54.4995C66.0371 49.8994 61.1567 45.4995 56.1567 41.2295C53.937 39.3394 51.6069 37.5493 49.2969 35.7793C46.437 33.3794 43.397 31.0996 41.1069 27.9697C40.377 26.9697 40.9468 26.6797 42.1968 26.7896C42.9775 26.8691 43.75 27.0132 44.5068 27.2197C44.9731 27.3428 45.4307 27.4961 45.877 27.6797C46.3433 27.8926 46.7915 28.1436 47.2168 28.4297L51.9067 31.6094C53.4468 32.7095 54.9067 33.9595 56.3569 35.1597C59.2871 37.5894 62.1968 40.0996 64.9868 42.7993C68.3472 46.0596 72.187 48.9897 75.5869 52.3794C76.4668 53.2197 77.2671 54.1694 78.1069 55.0693C78.2168 55.1895 78.2969 55.2695 78.4268 55.4297L78.8472 55.9595L79.667 57.0093C80.2168 57.7397 80.7769 58.3496 81.2871 59.1597C81.5171 59.9795 81.8169 60.7896 81.9971 61.5996C81.8643 62.0127 81.6226 62.3823 81.2969 62.6694C80.9702 62.9858 80.604 63.2578 80.207 63.4795C79.2725 63.978 78.291 64.3833 77.2769 64.6895L76.4868 64.9395L75.8271 65.1396L74.8271 65.4297C71.7168 66.2793 68.6172 67.0195 65.5371 67.7993C60.8672 68.9795 56.1567 70.0596 51.5972 71.4194C48.1187 72.5098 44.6978 73.7749 41.3472 75.2095L39.207 76.1597C36.4868 77.1597 35.8071 77.2397 34.5972 76.4697C34.3169 76.2896 33.9971 76.1797 33.7168 76.0293C33.4917 75.9131 33.333 75.6987 33.2871 75.4497C33.2393 75.1021 33.3135 74.7485 33.4971 74.4497C34.0137 73.6118 34.7324 72.9175 35.5869 72.4297C37.0757 71.5039 38.6377 70.7012 40.2568 70.0293C41.8472 69.3394 43.4668 68.7295 45.0972 68.1494C48.377 67.0093 51.7271 66.0396 55.0972 65.1494C60.0972 63.7593 65.0972 62.5596 70.0972 61.2197L70.0869 61.3096Z" fill-rule="evenodd" fill="currentColor"/>
	<path d="M69.377 64.1895L74.8569 63.2896L77.5869 62.8394L78.2568 62.7197L78.5972 62.6694L78.707 62.6694L79.0171 62.6694C79.4146 62.6621 79.8101 62.6118 80.1973 62.5195C80.3472 62.5195 80.1973 62.3794 80.1973 62.3193L80.0771 62.0894C79.9819 61.9219 79.875 61.7617 79.7568 61.6094C79.6689 61.4741 79.5684 61.3467 79.457 61.2295L78.2568 60.0093L75.4868 57.1294C69.0371 50.3794 62.2271 43.6895 55.2568 37.2593C52.1572 34.4097 48.9072 31.6895 45.687 29.0195C41.5869 25.5894 37.187 22.4297 33.4971 18.3794C32.8271 17.6396 32.8071 17.0293 33.2671 16.6797C33.9526 16.2803 34.7246 16.0537 35.5171 16.0195C38.1709 15.8599 40.7905 16.6821 42.877 18.3296C47.1772 21.7593 51.4473 25.2295 55.5771 28.8994C59.707 32.5693 63.6973 36.3794 67.5869 40.4297C72.207 45.2593 77.5869 49.6895 82.3369 54.6797L84.3369 56.8394C85.3369 57.9595 86.2568 59.1494 87.2168 60.2793L88.6172 61.9897C88.7769 62.4897 88.897 62.9897 89.0371 63.4795L89.457 64.9497C89.457 65.0693 89.5571 65.1895 89.5371 65.3193C89.4961 65.4531 89.4321 65.5786 89.3472 65.6895C89.2026 65.8887 89.0381 66.0728 88.8569 66.2397C87.9937 67.0195 86.9697 67.5996 85.8569 67.9395C84.5171 68.3594 83.0869 68.7095 81.6572 69.0396L79.7769 69.4497L78.397 69.7295L75.647 70.2793C71.147 71.1797 66.647 72.0195 62.187 73.0195L57.187 74.3096L52.0771 75.3794C48.7168 76.1494 45.377 76.9897 42.0771 77.9697C37.0908 79.561 32.2192 81.4922 27.4971 83.7495C26.4971 84.2197 25.4971 84.7495 24.4971 85.2295C23.4971 85.7095 22.7368 85.9995 22.0469 86.2295C21.4331 86.3862 20.8003 86.4536 20.167 86.4297C19.147 86.4116 18.1646 86.0405 17.3872 85.3794C16.9814 85.1021 16.5967 84.7944 16.2368 84.4595C15.7114 83.8125 15.6748 82.8965 16.147 82.2095C16.8101 80.98 17.7393 79.9141 18.8672 79.0894C27.377 73.7495 37.2471 70.6797 47.0869 68.0894C48.9272 67.6294 50.7568 67.1797 52.5972 66.7593C53.5269 66.5693 54.437 66.3193 55.377 66.1797L58.1973 65.8496C59.1372 65.7295 60.0869 65.6396 61.0171 65.5093L63.7969 64.9995L69.3271 63.9995L69.377 64.1895Z" fill-rule="evenodd" fill="currentColor"/>
	<path d="M19.3467 57.0498C20.5669 54.6196 21.7769 52.1899 22.937 49.7397C23.3569 48.8398 23.627 47.8896 24.0571 46.9995C25.5669 43.8496 27.1367 40.7197 28.4868 37.5298C29.0718 36.1104 29.5723 34.6577 29.9868 33.1797C30.335 31.3203 30.8711 29.501 31.5869 27.7495C31.8467 27.2495 33.0171 27.3896 34.0869 28.0796C34.6626 28.4521 35.145 28.9517 35.4971 29.5396C35.8481 30.0732 35.9902 30.7178 35.897 31.3496C35.4922 33.416 34.9307 35.4487 34.2168 37.4297C33.4648 39.3657 32.5654 41.2412 31.5269 43.0396C30.4189 45.2969 29.437 47.6138 28.5869 49.98C27.4971 52.5098 26.3369 54.98 25.1768 57.5098L23.0269 62.1196C21.9668 64.4497 20.7671 66.7397 19.8169 69.1196C19.0669 70.9497 18.6367 72.8799 17.9868 74.73C17.8267 75.1299 17.7168 75.5498 17.5269 75.9399C16.8071 77.3896 16.2568 77.6997 15.0371 77.5298C14.7612 77.5024 14.4873 77.4595 14.2168 77.3999C13.3369 77.1699 12.9067 76.2495 13.0171 75.0298C13.1167 74.1196 13.2168 73.21 13.3569 72.2998C13.4971 71.3896 13.8071 70.5596 14.0767 69.6899C14.6167 67.96 15.2471 66.2397 15.917 64.5298C16.417 63.2563 16.937 61.9966 17.4771 60.7495L19.1968 57.0195L19.3467 57.0498Z" fill-rule="evenodd" fill="currentColor"/>
	<defs/>
</svg>
