<svg width="24" height="24" viewBox="0 0 110 110" fill="none" xmlns="http://www.w3.org/2000/svg" xmlns:xlink="http://www.w3.org/1999/xlink">
	<path d="M18.3257 83.0923C40.8359 76.4924 62.606 66.1624 85.8057 62.2124C90.2358 61.4524 88.3657 54.7024 83.9458 55.4624C60.7456 59.4624 38.9458 69.7424 16.4658 76.3323C12.1357 77.5923 13.9858 84.3523 18.3257 83.0923Z" fill-rule="evenodd" fill="currentColor"/>
	<path d="M18.6357 32.8625C19.9478 35.3555 22.2075 37.2151 24.9058 38.0227C26.3047 38.4441 27.8223 38.1025 28.9058 37.1226C29.9824 35.8425 30.3564 34.1133 29.9058 32.5027C29.3135 29.967 27.8784 27.7075 25.8359 26.0925C24.8467 25.1086 23.5293 24.5247 22.1357 24.4526C20.3677 24.5674 18.9438 25.9485 18.7759 27.7126C18.4614 29.0393 19.2251 30.3835 20.5259 30.7927C21.6958 31.1125 23.416 30.3926 23.5957 29.0427C23.6538 28.8572 23.6904 28.666 23.7061 28.4727C23.7661 28.2827 23.7061 28.3325 23.6357 28.6426L23.0361 29.2327C22.7466 29.3933 22.4146 29.4597 22.0859 29.4226C21.9058 29.4226 22.0259 29.5728 21.7759 29.3425C21.8857 29.4326 22.666 29.9526 22.3062 29.6526C22.6138 29.9136 22.9072 30.1907 23.186 30.4827C23.4761 30.7827 23.7461 31.0925 24.0059 31.4126C24.5059 32.0227 23.7661 31.0527 24.1958 31.6626L24.4561 32.0227C24.626 32.2727 24.7559 32.5825 24.936 32.8228C25.1157 33.0627 24.8159 32.3726 24.8857 32.6926C24.9561 33.0127 25.0459 33.2527 25.0957 33.5327C25.186 34.0627 25.0957 33.0527 25.0957 33.8425C25.0957 34.0527 25.2261 34.3228 25.0957 34.1526C25.0957 33.9927 25.0957 33.9727 25.0957 34.1025C25.0957 34.2327 25.0957 34.2126 25.186 33.8726C25.3481 33.6218 25.5767 33.4211 25.8457 33.2927C26.2061 33.1125 25.4961 33.2927 26.2358 33.2026C25.8062 33.2026 26.6157 33.3127 26.3159 33.2026L25.876 33.0925C25.4258 32.9626 26.0762 33.2026 25.8062 33.0925C24.5659 32.5354 23.5557 31.5676 22.9458 30.3525C21.4761 27.4927 17.1558 30.0227 18.6357 32.8826L18.6357 32.8625Z" fill-rule="evenodd" fill="currentColor"/>
	<path d="M54.3857 23.7825C54.5112 25.1904 54.1592 26.5994 53.3857 27.7825C53.5562 27.5725 53.1558 28.0125 53.1357 28.0525C53.2861 27.7825 53.1357 27.9924 53.2959 27.9624C53.856 27.8425 54.0562 28.0825 54.5562 28.1626L54.6357 28.2925C54.5532 28.1716 54.4795 28.0447 54.416 27.9126C54.3472 27.7949 54.2905 27.6711 54.2461 27.5425C54.1558 27.3225 54.1357 27.0525 54.0259 26.8425C53.916 26.6326 54.0259 27.3425 54.0259 27.0625C54.0859 26.4924 54.0259 25.9026 54.0259 25.3325L54.1357 24.7925C54.2061 24.4126 54.2759 24.0325 54.376 23.6526C54.4526 23.3367 54.5498 23.0261 54.666 22.7224C54.666 22.6226 54.8062 22.5325 54.8457 22.4326C54.7261 22.8025 54.7661 22.5925 54.606 22.7026C54.1748 23.0015 53.6367 23.1033 53.126 22.9824C52.8159 22.9824 52.5757 22.5725 53.0259 23.1125C54.0117 24.0703 55.5801 24.0703 56.5659 23.1125C57.5132 22.1226 57.5132 20.5625 56.5659 19.5725C55.6885 18.3428 54.1592 17.7593 52.686 18.0925C51.3628 18.613 50.3594 19.7234 49.9761 21.0925C49.0723 23.3081 48.792 25.729 49.166 28.0925C49.7959 31.1826 52.666 34.4026 55.9258 32.2625C58.4458 30.6125 59.6357 26.7224 59.3857 23.8525C59.3594 22.4829 58.2554 21.3792 56.8857 21.3525C55.5098 21.3633 54.397 22.4763 54.3857 23.8525L54.3857 23.7825Z" fill-rule="evenodd" fill="currentColor"/>
	<defs/>
</svg>
