<svg width="24" height="24" viewBox="0 0 110 110" fill="none" xmlns="http://www.w3.org/2000/svg" xmlns:xlink="http://www.w3.org/1999/xlink">
	<path d="M43.48 93.7402C42.873 93.7554 42.2671 93.6846 41.6802 93.5303L40.8701 93.3101C40.6201 93.2104 40.3999 93.0903 40.1699 92.9805L39.5098 92.6304C39.3101 92.5 39.1299 92.3501 38.9502 92.2104C38.5493 91.9238 38.1865 91.5874 37.8701 91.2104C37.6099 90.9102 37.3101 90.6504 37.04 90.3604C36.8052 90.0391 36.5879 89.7051 36.3901 89.3604C36.1318 88.7251 35.9995 88.0459 36 87.3604C36.019 87.019 36.0864 86.6826 36.2002 86.3604C36.3242 86.0532 36.4717 85.7554 36.6401 85.4702C37.4204 84.3862 38.5811 83.6367 39.8901 83.3701C40.3579 83.2505 40.832 83.1572 41.3101 83.0903C41.7515 83.0386 42.1953 83.0117 42.6401 83.0103C43.8408 82.8994 45.0278 83.3369 45.8701 84.2002C46.1401 84.4902 45.6299 85.0601 45.0298 85.6001C44.4302 86.1401 43.8599 86.7202 43.54 86.7305C42.9492 86.7139 42.3584 86.7676 41.7798 86.8901L41.5698 86.8901C41.5 86.8901 41.3999 86.8901 41.4102 86.8901C41.3716 86.8589 41.3271 86.8354 41.2798 86.8203C41.1289 86.7544 40.9644 86.7271 40.7998 86.7402C40.5752 86.7344 40.3857 86.9062 40.3701 87.1304C40.3916 87.3208 40.46 87.5029 40.5698 87.6602C40.6357 87.769 40.709 87.8726 40.79 87.9702C40.79 87.9702 40.8999 88.0801 41 88.1504L41.27 88.3501C41.4336 88.4824 41.6157 88.5898 41.8101 88.6704C41.9678 88.7622 42.1406 88.8267 42.3198 88.8604C42.6616 88.9399 43.0205 88.8823 43.3198 88.7002C43.5278 88.5698 43.6724 88.3589 43.7178 88.1177C43.7632 87.8765 43.7061 87.6274 43.5601 87.4302C43.1328 87.083 42.5894 86.9116 42.04 86.9502C41.9038 86.9658 41.7661 86.9658 41.6299 86.9502C41.1499 86.7202 41.1499 86.2402 41.4199 84.8403L41.6001 83.8403C41.6973 82.8955 42.3579 82.1045 43.27 81.8403C43.5942 81.7461 43.9341 81.7153 44.27 81.75C44.6069 81.8008 44.9409 81.8711 45.27 81.9604C45.9907 82.1719 46.668 82.5107 47.27 82.9604C47.5923 83.2476 47.8931 83.5586 48.1699 83.8901C48.4883 84.2339 48.7334 84.6387 48.8901 85.0801C48.9902 85.3101 49.0801 85.5303 49.1602 85.7603C49.2402 85.9902 49.27 86.2603 49.3198 86.52C49.417 87.0308 49.4438 87.5522 49.3999 88.0703C49.2769 89.667 48.5293 91.1504 47.3198 92.2002C46.2744 93.1763 44.9268 93.7656 43.5 93.8701L43.48 93.7402Z" fill-rule="evenodd" fill="currentColor"/>
	<path d="M63.2397 21.8198C63.625 23.7959 63.7993 25.8071 63.7598 27.8198C63.7485 29.7563 63.585 31.689 63.27 33.5996C63.0298 34.98 62.8896 36.3599 62.5601 37.71C61.3706 42.4009 59.8154 46.9917 57.9097 51.4399C57.0601 53.3896 56.25 55.3696 55.3799 57.29C54.27 59.75 53.2197 62.29 51.3799 64.3696C50.8198 65.02 50.3799 64.6099 50.1099 63.6499C49.9668 63.0669 49.8896 62.4697 49.8799 61.8696C49.8452 61.5176 49.8452 61.1621 49.8799 60.8101C49.9521 60.4663 50.0596 60.1313 50.1997 59.8101C52.3101 54.9399 53.9697 49.9399 56.0698 44.9897C57.1733 41.9102 57.9478 38.7227 58.3799 35.48C59.0723 32.0098 59.4072 28.478 59.3799 24.9399C59.3359 23.8882 59.2085 22.8418 59 21.8101C58.7949 20.8354 58.4585 19.8936 58 19.0098C57.335 17.7676 56.1768 16.8633 54.8101 16.52C54.147 16.3799 53.4595 16.4077 52.8101 16.5996C52.1279 16.8169 51.4912 17.1558 50.9297 17.5996C49.1001 19.0996 47.9297 21.3999 46.9297 23.6899C46.7197 24.21 46.5298 24.6899 46.3301 25.2397C46.0903 25.9653 45.7017 26.6328 45.1899 27.1997C45.0166 27.3721 44.8135 27.5107 44.5898 27.6099C44.3525 27.6855 44.1079 27.7358 43.8599 27.7598C43.6201 27.7598 43.3896 27.8398 43.21 27.8398C42.6499 27.8398 42.1499 26.7197 42.4697 25.0698C43.1182 22.5596 44.165 20.1689 45.5698 17.9897C46.377 16.7622 47.3574 15.6577 48.48 14.71C49.8159 13.5732 51.458 12.8564 53.1997 12.6499C55.9404 12.4478 58.6133 13.562 60.3999 15.6499C61.8789 17.4404 62.8892 19.5713 63.3398 21.8496L63.2397 21.8198Z" fill-rule="evenodd" fill="currentColor"/>
	<path d="M43.04 17.2002C43.8184 15.269 44.8652 13.458 46.1499 11.8198C46.9609 10.8145 47.9385 9.95508 49.04 9.27979C50.335 8.47217 51.8242 8.03027 53.3501 8C54.7822 8.0083 56.1934 8.35059 57.4702 9C58.5654 9.56104 59.5752 10.2749 60.4702 11.1201C60.9199 11.5005 61.3257 11.9297 61.6802 12.3999C62.0503 12.8501 62.3843 13.3281 62.6802 13.8301L63.4399 15.3301C63.6699 15.8301 63.8198 16.3301 64 16.8301C64.9116 19.5742 65.3677 22.4487 65.3501 25.3398C65.1973 30.0259 64.4956 34.6777 63.2603 39.2002C62.1128 43.5742 60.7036 47.875 59.04 52.0801C57.5498 55.7998 56.04 59.5098 54.3198 63.0801C53.2476 65.4204 52.0425 67.6973 50.71 69.8999C49.374 72.2188 47.6016 74.2563 45.4902 75.8999C43.98 76.8999 43.7803 75.9502 44.0498 74.4102C44.1602 73.6099 44.3398 72.6299 44.5898 71.5C44.7085 70.9155 44.8589 70.3379 45.04 69.77C45.2676 69.1631 45.542 68.5747 45.8599 68.0098C48.1597 63.6733 50.1641 59.1865 51.8599 54.5801C53.5698 49.9302 55.3398 45.2798 56.8599 40.52C58.6504 34.8364 59.2964 28.8545 58.7603 22.9199C58.4399 19.8599 57.46 17.0801 55.7603 15.48C55.5396 15.2866 55.3057 15.1099 55.0601 14.9502C54.8398 14.7734 54.5977 14.6255 54.3398 14.5098C53.9873 14.3159 53.5928 14.2095 53.1899 14.2002C52.7407 14.2358 52.3105 14.3989 51.9502 14.6699C51.4307 15.0479 50.9692 15.499 50.5801 16.0098C49.4458 17.564 48.5308 19.2666 47.8599 21.0698C47.1294 23.0029 46.5215 24.9805 46.04 26.9902C44.5142 33.1777 43.6099 39.5024 43.3398 45.8701C43.1968 50.7495 43.3706 55.6328 43.8599 60.4902C43.98 61.5498 44.0898 62.5801 44.21 63.6499C44.3301 64.7202 44.3599 65.4502 44.3799 66.1401C44.3794 66.7173 44.3223 67.2935 44.21 67.8599C44.1318 68.271 43.9868 68.666 43.7803 69.0298C43.561 69.3545 43.3027 69.6499 43.0103 69.9102C42.75 70.1401 42.52 70.4399 42.2998 70.6001C41.6499 71.1201 40.1001 69.6001 39.3599 66.6001C37.5801 57.6001 37.6001 48.1099 38.5 38.6001C38.8599 35.0601 39.3701 31.52 39.9902 27.9399C40.6167 24.252 41.6045 20.6343 42.9399 17.1401L43.04 17.2002Z" fill-rule="evenodd" fill="currentColor"/>
	<defs/>
</svg>
