<svg width="24" height="24" viewBox="0 0 110 110" fill="none" xmlns="http://www.w3.org/2000/svg" xmlns:xlink="http://www.w3.org/1999/xlink">
	<path d="M42.4702 50.5676C42.2397 52.7014 42.2397 54.8538 42.4702 56.9875C42.6719 59.1899 43.1045 61.3652 43.7603 63.4775C44.2832 64.9814 44.915 66.4453 45.6499 67.8577C46.8623 70.3738 48.5186 72.6504 50.54 74.5776C52.5205 76.4829 55.1006 77.6423 57.8403 77.8577C60.3682 77.9746 62.8804 77.4045 65.1104 76.2075C68.0259 74.6753 70.4932 72.4111 72.27 69.6375C72.8301 68.7676 73.27 69.0476 73.4502 70.1775C73.5845 71.9722 73.0503 73.7532 71.9502 75.1775C69.4438 78.5022 65.853 80.8442 61.8003 81.7976C59.7124 82.2871 57.5498 82.3721 55.4302 82.0476C53.2852 81.7073 51.2388 80.9092 49.4302 79.7075C45.313 76.9514 42.0308 73.1191 39.9399 68.6274C38.8306 66.2551 37.9888 63.7664 37.4302 61.2075C36.8452 58.6631 36.5635 56.0583 36.5903 53.4475C36.6001 51.8379 36.7471 50.2322 37.0303 48.6475C37.2803 47.0876 37.6299 45.5576 38.0303 44.0376C39.2393 39.4397 41.1479 35.0549 43.6899 31.0376C45.5942 27.762 48.167 24.9236 51.2402 22.7075C51.98 22.2776 52.6602 21.7576 53.4502 21.3875C54.4761 20.8469 55.6206 20.5718 56.7803 20.5876C57.4907 20.6433 58.1294 21.0427 58.4902 21.6575C58.7056 21.9314 58.8936 22.2263 59.0503 22.5376C59.2456 23.0779 59.1265 23.6821 58.7402 24.1077C58.2231 24.6719 57.6016 25.1304 56.9102 25.4575C54.5391 26.7368 52.4346 28.4578 50.71 30.5276C48.8862 32.7241 47.3726 35.1599 46.21 37.7676C44.3599 41.8184 43.1553 46.134 42.6401 50.5576L42.4702 50.5676Z" fill-rule="evenodd" fill="currentColor"/>
	<path d="M41.3501 45.3975C40.6465 48.7961 40.4277 52.2773 40.7002 55.7375C40.9272 59.2405 41.6929 62.6877 42.9702 65.9575C43.9448 68.2373 45.2412 70.3657 46.8203 72.2776C48.1021 73.9194 49.6704 75.3154 51.4502 76.3975C53.2407 77.4468 55.2231 78.1267 57.2803 78.3975C61.2002 78.9976 65.4604 76.9275 68.7104 73.5974C70.1831 72.1003 71.457 70.4199 72.5005 68.5974C73.541 66.7693 74.4082 64.8477 75.0903 62.8574C76.8218 57.6226 77.7324 52.1511 77.7905 46.6375C77.7905 44.9175 78.5303 45.0076 79.5103 46.4475C80.9121 48.821 81.6157 51.542 81.5405 54.2976C81.3203 60.5076 80.1304 66.7776 76.7202 72.4976C75.0522 75.3745 72.9048 77.9448 70.3701 80.0974C69.7119 80.6506 69.0239 81.168 68.3101 81.6475C67.5688 82.127 66.8008 82.5642 66.0103 82.9575C64.3755 83.7671 62.6245 84.3171 60.8203 84.5874C60.2705 84.5874 59.7305 84.7476 59.1704 84.7576L57.5005 84.7576L55.9204 84.6475C55.4004 84.6475 54.8701 84.5076 54.3501 84.4375C52.2363 84.0867 50.189 83.4121 48.2803 82.4375C44.5576 80.5007 41.3989 77.6348 39.1104 74.1174C36.7461 70.4453 35.0532 66.3821 34.1104 62.1174C33.1396 57.9688 32.8027 53.697 33.1104 49.4475C33.5508 44.2717 34.8418 39.2036 36.9302 34.4475C38.4614 30.8018 40.5684 27.4253 43.1704 24.4475C44.5425 22.9089 46.1167 21.5632 47.8501 20.4475C49.6807 19.3062 51.7207 18.5413 53.8501 18.1975C55.5063 17.9341 57.1938 17.9341 58.8501 18.1975C60.437 18.4436 61.9902 18.8696 63.4805 19.4675C64.9541 20.0527 66.3647 20.7866 67.6904 21.6575C68.3701 22.0576 68.9805 22.5676 69.6304 23.0376C70.2803 23.5076 70.8604 24.0376 71.4102 24.6375C71.9604 25.2375 72.4102 25.6375 72.8604 26.1675L73.5601 26.9775L74.1802 27.8474C75.3237 29.3699 76.0571 31.1604 76.3101 33.0476C76.4463 34.1155 76.0278 35.179 75.2002 35.8674C74.8672 36.2217 74.4946 36.5371 74.0903 36.8076C73.3594 37.1313 72.5034 36.9543 71.9604 36.3674C71.5723 36.0146 71.2144 35.6299 70.8901 35.2175C70.7104 34.9875 70.5303 34.7375 70.3403 34.4675C70.1504 34.1975 69.9404 33.9275 69.7402 33.6274C68.5767 31.8699 67.1421 30.3071 65.4902 28.9976C63.8931 27.7134 62.0957 26.7 60.1704 25.9976C56.1704 24.5974 53.5503 25.0476 50.5303 27.5576C48.165 29.7688 46.2554 32.4221 44.9102 35.3674C43.3682 38.541 42.249 41.9031 41.5801 45.3674L41.3501 45.3975Z" fill-rule="evenodd" fill="currentColor"/>
	<defs/>
</svg>
