<svg width="24" height="24" viewBox="0 0 110 110" fill="none" xmlns="http://www.w3.org/2000/svg" xmlns:xlink="http://www.w3.org/1999/xlink">
	<path d="M64.5 15.7925C67.2808 17.8921 69.3535 20.792 70.4399 24.1025C71.4209 27.1699 71.6504 30.4277 71.1099 33.6025C70.8003 35.7739 70.1978 37.8931 69.3198 39.9028C67.707 43.1919 65.5576 46.1895 62.96 48.7725C60.5273 51.1748 57.9707 53.4478 55.2998 55.5825C53.0522 57.4219 50.9463 59.4272 49 61.5825C47.7598 62.9126 46.7598 64.3926 45.6602 65.8428C44.5601 67.2925 43.54 68.7627 42.4702 70.2925C41.8198 71.2124 41.0601 70.7324 40.6499 69.3926C40.1641 67.4951 40.4253 65.4829 41.3799 63.7725C43.5005 60.2822 46.1182 57.1191 49.1499 54.3828C52.0298 51.6924 54.96 49.3027 57.6699 46.8125C59.2852 45.3525 60.6826 43.6689 61.8198 41.8125C62.8691 39.979 63.6821 38.02 64.2402 35.9824C64.8501 33.8726 65.0098 31.6582 64.71 29.4824C64.5669 28.4482 64.2808 27.4385 63.8599 26.4824C63.46 25.5415 62.9165 24.668 62.25 23.8926C61.4248 22.8765 60.4424 21.9985 59.3398 21.2925C58.1924 20.6138 56.9434 20.124 55.6401 19.8428C51.4355 18.9653 47.0552 19.8862 43.5601 22.3828C40.9976 24.4312 39.1382 27.2275 38.2402 30.3828C37.9902 31.0425 37.9302 31.7524 37.71 32.3828C36.98 34.9028 36.5 35.6729 34.71 36.1328C34.3096 36.2646 33.9023 36.3745 33.4902 36.4624C32.8115 36.5913 32.124 36.2891 31.7598 35.7026C31.5132 35.3154 31.3247 34.8945 31.2002 34.4526C31.0791 33.8833 31.0122 33.3042 31 32.7227C31.0771 28.6367 32.3877 24.6699 34.7598 21.3428C37.314 17.7119 40.9141 14.9458 45.0801 13.4126C51.5596 10.9268 58.8442 11.7554 64.6001 15.6328L64.5 15.7925Z" fill-rule="evenodd" fill="currentColor"/>
	<path d="M43.2402 81.5327C43.4243 82.0347 43.4995 82.5698 43.46 83.103L43.3999 83.9229C43.3999 84.1929 43.2803 84.4727 43.2202 84.7427L43.02 85.5327C42.8936 85.79 42.7534 86.0405 42.6001 86.2827C42.3345 86.7764 41.9976 87.228 41.6001 87.6226C41.3301 87.9028 41.0898 88.2227 40.8301 88.4927C40.5703 88.7627 40.2202 88.9028 39.9102 89.0728C38.8228 89.4902 37.6006 89.3564 36.6299 88.7129C36.4199 88.543 36.2202 88.3428 36.02 88.1626C35.8203 87.9829 35.7002 87.7227 35.54 87.5127C35.3286 87.105 35.1611 86.6758 35.04 86.2329C34.8276 85.5327 34.6899 84.812 34.6299 84.083C34.438 83.1196 34.7124 82.1221 35.3701 81.3926C35.5898 81.1729 36.1401 81.5928 36.6699 82.063C37.2002 82.5327 37.79 82.9829 37.8301 83.2026C37.8696 83.6338 37.9536 84.0591 38.0801 84.4727C38.1899 84.8926 38.3701 85.2329 38.2603 85.4727C38.2544 85.5522 38.2827 85.6304 38.3379 85.6875C38.3936 85.7446 38.4707 85.7759 38.5503 85.7729C38.6992 85.7437 38.8374 85.6743 38.9502 85.5728C39.2896 85.332 39.5312 84.9771 39.6299 84.5728C39.7754 83.9497 39.4189 83.3193 38.8101 83.1226C38.6279 83.0469 38.418 83.105 38.3003 83.2627C38.0703 83.4829 38.0703 83.9727 38.1201 84.4629C38.1333 84.5659 38.1333 84.6699 38.1201 84.7729C37.9702 85.1426 37.5503 85.1528 36.2803 84.9829L35.4199 84.8726C34.584 84.8447 33.8359 84.3447 33.4902 83.583C33.3892 83.3315 33.335 83.0635 33.3301 82.793C33.3442 82.5142 33.3774 82.2368 33.4302 81.9629C33.5635 81.3584 33.8037 80.7827 34.1401 80.2627C34.3608 79.9731 34.6011 79.6992 34.8599 79.4429C35.145 79.1499 35.4849 78.915 35.8599 78.7529C36.2505 78.5356 36.6724 78.3804 37.1099 78.293C37.5264 78.1909 37.9517 78.1304 38.3799 78.1128C40.8003 78.1128 42.3799 79.7329 43.3799 81.4526L43.2402 81.5327Z" fill-rule="evenodd" fill="currentColor"/>
	<defs/>
</svg>
