<svg width="24" height="24" viewBox="0 0 110 110" fill="none" xmlns="http://www.w3.org/2000/svg" xmlns:xlink="http://www.w3.org/1999/xlink">
	<path d="M40.7505 63.105C40.2124 64.3657 39.9927 65.7393 40.1104 67.105C40.2925 68.5632 40.8018 69.9614 41.6006 71.1948C42.272 72.1597 43.043 73.0513 43.9004 73.855C47.04 77.0547 50.7773 79.6062 54.9004 81.365C56.7617 82.1819 58.6841 82.8508 60.6504 83.365C61.9004 83.7048 63.1904 83.895 64.4404 84.1851C65.6904 84.4749 66.9604 84.865 68.2407 85.1851C69.0405 85.365 68.9604 85.6851 68.2407 86.1851C67.7578 86.49 67.2451 86.7446 66.7104 86.9448C65.9971 87.2424 65.2412 87.4248 64.4707 87.4849C64.1104 87.4849 63.7407 87.4849 63.3804 87.4849L62.3105 87.365C61.6006 87.2949 60.9004 87.155 60.1904 87.0449C58.7866 86.7874 57.3979 86.4534 56.0308 86.0449C53.3125 85.1284 50.7139 83.8896 48.2905 82.355C45.4204 80.4749 42.2407 78.6948 39.7607 75.915C38.3604 74.3765 37.2432 72.6025 36.4604 70.675C35.666 68.6548 35.4243 66.4595 35.7607 64.3149L35.9307 63.3149L36.2207 62.385C36.397 61.7542 36.6245 61.1389 36.9004 60.5449C37.4868 59.3284 38.3135 58.2434 39.3306 57.355C40.8184 56.0767 42.5913 55.1748 44.5005 54.7249C46.3301 54.2659 48.228 54.1472 50.1006 54.375C52.9487 54.6282 55.7168 55.4512 58.2407 56.7949C58.8066 57.061 59.3486 57.3755 59.8604 57.7349C61.7505 59.115 61.8604 60.095 61.5708 61.085C61.5156 61.3127 61.4453 61.5366 61.3604 61.7549C61.1904 62.0649 60.8506 62.1851 60.3604 62.175C59.7202 62.1702 59.0908 62.0051 58.5308 61.6948C58.0405 61.4448 57.4805 61.2949 57.0205 61.0249C56.5518 60.7681 56.0679 60.541 55.5708 60.345C55.0962 60.1191 54.6084 59.9221 54.1104 59.7549C53.6104 59.605 53.1104 59.375 52.6406 59.2749C50.7373 58.7124 48.7344 58.5691 46.7705 58.855C45.4395 59.0476 44.168 59.5364 43.0508 60.2849C42.9204 60.385 42.7705 60.4648 42.6606 60.5649L42.3208 60.875C42.1006 61.0693 41.9028 61.2874 41.7305 61.5249C41.5591 61.7456 41.4053 61.9797 41.2705 62.2249C41.1304 62.4949 41.0107 62.865 40.8706 63.175L40.7505 63.105Z" fill-rule="evenodd" fill="currentColor"/>
	<path d="M39.2007 54.1152C40.3267 53.3481 41.5796 52.7861 42.9009 52.4551C44.1665 52.1475 45.4712 52.0327 46.771 52.1152C49.0796 52.2861 51.3423 52.8511 53.4609 53.7852C55.4058 54.6318 57.2788 55.635 59.061 56.7852L60.291 57.5852L60.5708 57.7952L61.1406 58.2551C61.2769 58.3713 61.4204 58.4783 61.5708 58.5752C61.7109 58.655 61.8608 58.8252 61.9907 58.7651C61.9907 58.3953 61.8906 58.0752 61.8608 57.7651C61.8311 57.4551 61.771 57.1951 61.7207 56.8552C61.7207 56.8552 61.521 56.0051 61.4106 55.3953C61.3008 54.7852 61.1406 54.0752 61.0508 53.3953C60.9609 52.7151 60.9009 51.9351 60.9009 51.2251C60.9009 50.8452 60.9009 50.4651 60.9009 50.0852C60.897 49.6965 60.9272 49.3086 60.9907 48.925C61.1665 47.2615 61.7729 45.6724 62.751 44.3152C63.0107 43.9851 63.271 43.6353 63.5508 43.3152L64.4707 42.4951C64.7793 42.2256 65.1147 41.9878 65.4707 41.7852C65.8208 41.5852 66.1509 41.3652 66.4707 41.175C68.0254 40.4319 69.7603 40.1475 71.4707 40.3552C73.0562 40.592 74.5635 41.1982 75.8711 42.1252C77.0708 42.9548 78.1338 43.967 79.021 45.1252C80.5869 47.063 81.7959 49.2639 82.5908 51.6252C83.3042 53.925 83.7109 56.3088 83.8008 58.7151C83.6924 64.6272 82.3931 70.4565 79.981 75.8552C79.291 77.5051 78.6909 77.0652 78.3511 75.405C77.9434 72.8618 77.8794 70.2754 78.1606 67.7151C78.5039 65.0625 78.5674 62.3811 78.3511 59.7151C78.2808 59.0752 78.2207 58.4451 78.1807 57.8152C78.1406 57.1851 78.0508 56.5652 77.9409 55.9551L77.771 55.0452L77.541 54.155C77.4795 53.8767 77.3994 53.6028 77.3008 53.3352C77.2266 53.0674 77.1294 52.8064 77.0107 52.5552C76.145 50.4446 74.8032 48.5623 73.0908 47.0552C72.4395 46.4409 71.6455 45.9978 70.7808 45.7651C69.9927 45.6021 69.1724 45.7188 68.4609 46.0952C67.4287 46.5461 66.6289 47.4038 66.251 48.4651C65.8662 49.8159 65.8149 51.24 66.1011 52.6152C66.2109 53.405 66.4009 54.2251 66.6011 55.0552L67.6011 59.1252C67.7407 59.8152 67.9409 60.5552 68.041 61.2151C68.1406 61.8752 68.251 62.5251 68.2808 63.1052C68.2871 63.6257 68.2671 64.1465 68.2207 64.665C68.1387 65.0386 68.0317 65.406 67.9009 65.7651L67.6108 66.2651C67.5508 66.3552 67.5508 66.4351 67.4409 66.5251C67.3403 66.5859 67.2275 66.6235 67.1108 66.6353C66.7524 66.6797 66.3896 66.6797 66.0308 66.6353C64.9038 66.4885 63.8296 66.0698 62.9009 65.415C61.561 64.5151 60.2109 63.4751 58.9009 62.6052L57.9009 61.9651L57.2109 61.5251L56.0107 60.7852C54.418 59.8315 52.7446 59.0186 51.0107 58.3552C49.4214 57.7126 47.7251 57.3735 46.0107 57.3552C45.0669 57.3623 44.1343 57.563 43.271 57.9451C42.8423 58.1316 42.436 58.3665 42.061 58.6453L40.8208 59.6453C39.2495 60.9912 38.1753 62.8259 37.771 64.8552C37.1909 67.7751 38.291 71.0752 40.3408 73.7351C42.457 76.459 45.1343 78.6963 48.1909 80.2952C52.9507 82.8552 58.3008 83.8552 63.6606 84.4351C64.8408 84.5552 66.0107 84.5852 67.2109 84.675C71.6606 84.9851 73.0908 85.3652 74.061 86.675C74.3037 86.959 74.521 87.2634 74.7109 87.5852C75.1509 88.5852 73.2607 89.4751 69.771 89.7351C64.3838 90.0579 58.9805 89.5039 53.771 88.0952C48.0913 86.6411 42.8574 83.811 38.5308 79.8552C36.8281 78.2483 35.3721 76.3982 34.2109 74.3652C32.9458 72.1484 32.2036 69.6721 32.041 67.1252C31.9292 64.417 32.6255 61.7368 34.041 59.425C34.6943 58.3352 35.4766 57.3279 36.3711 56.425L37.0107 55.7651L37.7007 55.1851C38.1909 54.8052 38.561 54.4451 39.1406 54.0452L39.2007 54.1152Z" fill-rule="evenodd" fill="currentColor"/>
	<path d="M44.231 32.615C44.5806 32.615 44.4507 33.0649 44.1406 33.925C43.9731 34.3022 43.7314 34.6423 43.4307 34.925C43.166 35.0234 42.8911 35.0906 42.6108 35.125C41.77 34.8535 40.9512 34.5193 40.1606 34.125C39.6484 33.8865 39.1792 33.5654 38.7705 33.175C37.9507 32.4451 37.1406 31.7749 36.3608 31.175C36.1899 31.03 36.0532 30.8491 35.9609 30.645C35.6167 29.9788 35.0654 29.4419 34.3906 29.115C34.2822 29.0237 34.1318 29.0007 34.0005 29.0549C33.2705 28.8677 32.5889 28.5269 32.0005 28.0549C31.6909 27.4451 31.2007 27.1951 30.8408 26.5349C30.7808 26.4551 30.6807 26.4851 30.6909 26.2351C30.6909 25.675 30.5005 25.665 30.3408 25.5449C30.0908 25.3848 29.8623 25.1931 29.6606 24.9751C29.5493 24.7656 29.4619 24.5442 29.4009 24.3149C29.375 23.9976 29.437 23.6792 29.5806 23.395C29.7607 23.2251 29.731 22.885 29.7705 22.605C29.7705 22.5151 29.7705 22.395 29.8306 22.325C30.1943 22.0813 30.5918 21.8926 31.0107 21.7651C31.4565 21.5732 31.9282 21.4487 32.4106 21.395L32.9409 21.4451C33.1187 21.4556 33.2959 21.479 33.4707 21.5151C33.665 21.5647 33.8555 21.6282 34.0405 21.7051C34.8408 21.9551 35.5908 22.345 35.7705 22.395C35.9507 22.4451 36.0405 22.645 36.1406 22.8149C36.2407 22.9851 36.7207 23.145 37.2705 23.4451C37.6421 23.6536 38.0024 23.8804 38.3506 24.125C38.6807 24.4851 39.1406 24.6951 39.2007 25.335C39.2007 25.4551 39.2905 25.5051 39.3608 25.5649C39.9297 26.1145 40.4243 26.7363 40.8306 27.415C41.0649 27.7212 41.3188 28.0117 41.5908 28.2849C41.5908 28.335 41.5908 28.425 41.6606 28.4951C41.6802 28.5833 41.7139 28.6677 41.7607 28.7451C42.2725 29.4348 42.8408 30.0806 43.4609 30.675C43.6108 30.7849 43.9307 31.7451 44.1206 31.825C44.3105 31.905 44.0908 32.635 44.231 32.615Z" fill-rule="evenodd" fill="currentColor"/>
	<path d="M36.4707 46.0449C36.8511 46.0449 36.8008 46.585 36.4707 47.355C36.291 47.6929 36.0381 47.9866 35.731 48.2148C35.4775 48.2803 35.2202 48.3306 34.9609 48.365C34.8311 48.365 33.231 47.7749 32.6709 47.6848C32.1553 47.5708 31.6553 47.3962 31.1807 47.1648C30.2437 46.76 29.2778 46.4258 28.291 46.1648C28.0674 46.1125 27.8589 46.01 27.6807 45.865C27.0361 45.4036 26.2637 45.1553 25.4707 45.1548C25.3408 45.1548 25.2109 45.1548 25.0508 45.2649C24.626 45.3901 24.1797 45.4243 23.7407 45.365C23.2925 45.363 22.8481 45.2783 22.4307 45.115C21.7954 44.7227 21.126 44.3879 20.4307 44.115C20.3311 44.115 20.2207 44.115 20.1406 43.9148C19.9409 43.4148 19.7109 43.4849 19.481 43.4448C19.1533 43.3904 18.8364 43.2856 18.541 43.1348C18.3809 43.0549 18.231 42.7749 18.0708 42.5549C17.9766 42.2283 17.9766 41.8816 18.0708 41.5549C18.2109 41.325 18.0708 40.9849 18.0708 40.6848C18.0708 40.585 18.0708 40.4548 18.0708 40.3748C18.7246 39.7737 19.4795 39.293 20.3008 38.9548L20.8008 38.9548C21.0908 38.9548 21.481 38.8948 21.8809 38.865C22.6807 38.7849 23.5308 38.7649 23.7109 38.7349C23.8906 38.7048 24.061 38.835 24.231 38.9248L25.541 39.0349C26.1807 39.105 26.8208 39.1948 26.8706 39.2048C27.3408 39.4048 27.8706 39.4148 28.2607 39.9648C28.3311 40.085 28.4307 40.095 28.5308 40.1248C29.3682 40.4092 30.1597 40.8135 30.8809 41.325C31.2607 41.575 31.6909 41.7048 32.0708 41.9348C32.1406 41.9348 32.1807 42.0649 32.2407 42.1248C32.3071 42.2083 32.3848 42.2822 32.4707 42.345C33.4009 42.825 34.1709 43.5549 35.0708 44.0349C35.291 44.1548 35.9507 45.1548 36.1709 45.2849C36.3906 45.4148 36.311 46.0349 36.4707 46.0449Z" fill-rule="evenodd" fill="currentColor"/>
	<path d="M64.311 31.9651C64.6011 32.1951 64.311 32.585 63.7412 33.105C63.4712 33.3201 63.1445 33.4521 62.8013 33.4851C62.5405 33.3833 62.2925 33.2524 62.061 33.095C61.4097 32.2488 60.8594 31.3291 60.4214 30.355C60.0859 29.6726 59.8662 28.9395 59.771 28.1851C59.562 26.6948 59.4917 25.1882 59.561 23.6851C59.5601 23.3384 59.6387 22.9963 59.791 22.6851C60.2217 21.675 60.5562 20.6272 60.791 19.5549C60.8721 19.3735 60.8721 19.1665 60.791 18.9851C60.5513 18.585 61.6411 15.845 61.9409 15.575C62.6313 14.865 63.3413 14.1951 64.041 13.575C64.1411 13.4851 64.1514 13.325 64.4014 13.335C64.7612 13.3438 65.1045 13.1848 65.3311 12.905C65.6426 12.6389 65.9771 12.4014 66.3311 12.1951C66.5674 12.0964 66.8164 12.0325 67.0713 12.0049C67.3013 11.9551 67.6714 12.2949 67.7012 12.375C67.751 12.605 68.041 12.625 68.2212 12.7251C68.2925 12.7571 68.3594 12.7974 68.4209 12.845C68.4712 12.845 68.501 13.5149 68.6113 14.2151C68.7212 14.915 68.9609 15.665 68.8511 15.7351C68.7412 15.8049 68.0112 18.595 67.9609 18.895C67.9111 19.1951 67.7612 19.175 67.6211 19.2949C67.481 19.415 67.1113 21.575 67.0913 21.645C66.8711 22.0549 66.9409 22.5349 66.3813 22.835C66.2964 22.8904 66.2441 22.9839 66.2412 23.085C66.1904 23.4683 66.0757 23.8401 65.9014 24.1851C65.7212 24.5349 65.5713 24.895 65.4014 25.2549C65.2749 25.6262 65.1812 26.0076 65.1211 26.395C65.1211 26.4651 65.0312 26.5349 64.9912 26.605C64.9424 26.6802 64.9116 26.7659 64.9014 26.855C64.6895 27.7554 64.6255 28.6841 64.7109 29.605C64.6992 29.8579 64.6621 30.1091 64.6011 30.355C64.562 30.6135 64.562 30.8765 64.6011 31.135C64.5737 31.2866 64.5195 31.4324 64.4409 31.5649C64.311 31.7451 64.251 31.915 64.311 31.9651Z" fill-rule="evenodd" fill="currentColor"/>
	<defs/>
</svg>
