<svg width="24" height="24" viewBox="0 0 110 110" fill="none" xmlns="http://www.w3.org/2000/svg" xmlns:xlink="http://www.w3.org/1999/xlink">
	<path d="M69.874 84.8218C70.0742 85.2217 69.6143 85.542 68.874 85.9121C68.5239 86.0303 68.1445 86.0303 67.7944 85.9121C67.5679 85.6685 67.3604 85.4077 67.1743 85.1318C66.9653 84.6079 66.8403 84.0547 66.8042 83.4917C66.8042 83.0718 66.7241 82.6221 66.7041 82.2217C66.6841 81.8218 66.7041 81.4521 66.7041 81.2217C66.7295 80.2729 66.9087 79.334 67.2344 78.4419C67.9214 76.6445 68.8716 74.9595 70.0542 73.4419C70.3369 73.0981 70.6748 72.8042 71.0542 72.5718L74.6743 70.042C74.9033 69.9253 75.0967 69.749 75.2344 69.5317C75.8691 68.9927 76.6025 68.5815 77.394 68.3218C77.9341 68.1318 78.4941 67.9619 78.9443 67.832C79.2734 67.7632 79.6079 67.7227 79.9443 67.7119C80.6133 67.7319 81.2812 67.7891 81.9443 67.8818C82.5874 67.9502 83.2256 68.0605 83.854 68.2119C84.0244 68.2617 84.2241 68.2119 84.3643 68.4321C84.7041 68.9717 85.0742 68.9121 85.4443 68.9819C85.9536 69.1123 86.4395 69.3218 86.8843 69.6021C87.1187 69.812 87.3091 70.0674 87.4443 70.3521C87.604 70.6021 87.2842 71.3018 87.2041 71.3521C86.9341 71.542 87.0142 71.9219 86.9443 72.2319C86.9248 72.3403 86.8979 72.4473 86.8643 72.5518C86.4248 72.8037 85.9585 73.0049 85.4741 73.1519C85.0166 73.3457 84.5493 73.5161 84.0742 73.6621L83.5444 73.6621C83.1719 73.6895 82.8018 73.7363 82.4341 73.8018L81.834 73.9019L81.3042 74.062L80.6641 74.2617C80.4839 74.3071 80.2949 74.3071 80.1143 74.2617C79.7051 74.3979 79.313 74.5791 78.9443 74.8018C78.5688 75.0088 78.2051 75.2358 77.854 75.4819C77.4312 75.7754 76.9375 75.9517 76.4243 75.9917C76.3169 75.9917 76.2158 76.0439 76.1543 76.1318L75.084 76.9121L74.5244 77.292L74.0044 77.7417C73.8267 77.8911 73.666 78.0586 73.5244 78.2417L73.124 78.812C73.0542 78.8701 72.981 78.9233 72.9043 78.9717C72.8052 79.0249 72.7168 79.0962 72.644 79.1821C71.9961 80.0869 71.5215 81.104 71.2441 82.1821C71.1299 82.4644 70.9893 82.7358 70.8242 82.9917C70.6938 83.2798 70.5967 83.582 70.5342 83.8921C70.5342 83.9819 70.374 84.1421 70.2041 84.3218C70.0342 84.502 69.8442 84.7417 69.874 84.8218Z" fill-rule="evenodd" fill="currentColor"/>
	<path d="M48.394 78.8916C48.52 79.8071 48.1963 80.7271 47.5239 81.3618C47.314 81.6118 46.6143 81.6816 46.5239 81.3618C46.2539 80.8418 45.9644 80.3618 45.7241 79.7515C45.6035 79.3979 45.52 79.0327 45.4741 78.6616C45.2974 77.9302 45.1641 77.189 45.0742 76.4414C44.9917 75.584 44.958 74.7227 44.9741 73.8618L44.9741 72.7314L45.0342 71.8315C45.1484 69.9165 45.522 68.0264 46.144 66.2114C47.4087 62.5073 49.248 59.0249 51.5942 55.8916C52.1035 55.1909 52.6943 54.5532 53.354 53.9917C55.6743 52.1216 57.8843 50.2417 60.2339 48.4614C60.6553 48.1899 61.0303 47.8521 61.3442 47.4614C61.7485 47.0693 62.1982 46.7271 62.6841 46.4414C63.5649 45.875 64.4761 45.3574 65.4141 44.8916C66.374 44.4126 67.3584 43.9854 68.3643 43.6118C68.9658 43.3916 69.5806 43.208 70.2041 43.0615C72.8447 42.6035 75.5303 42.4624 78.2041 42.6416C78.6021 42.6221 78.9971 42.7158 79.3442 42.9116C80.0488 43.3882 80.874 43.6548 81.7241 43.6816C82.2783 43.8018 82.8232 43.9624 83.354 44.1616C83.874 44.3916 84.354 44.6714 84.8843 44.9414C85.354 45.293 85.7773 45.7031 86.144 46.1616C86.4941 46.5317 85.9839 47.0718 85.814 47.0918C85.3042 47.1514 85.5239 47.6016 85.4443 47.8818C85.4243 47.9839 85.3867 48.082 85.334 48.1714C84.3623 48.2397 83.3945 48.3564 82.4341 48.5215C81.0239 48.8018 79.6943 49.1318 79.4341 49.1714C78.1719 49.2969 76.917 49.4873 75.6743 49.7417C74.2378 50.0781 72.8379 50.5537 71.4941 51.1616C71.0747 51.3154 70.6382 51.416 70.1943 51.4614C69.2134 51.8926 68.27 52.4043 67.374 52.9917C66.0439 53.8018 64.8042 54.7617 64.7041 54.8218C64.1729 55.1484 63.6592 55.502 63.1641 55.8818C62.6411 56.25 62.0688 56.543 61.4644 56.7515C61.2271 56.8501 61.0151 57.0005 60.8442 57.1914C60.0542 57.9414 59.2539 58.6616 58.4541 59.4014C57.6226 60.1099 56.8281 60.8608 56.0742 61.6514C55.6855 62.0552 55.3311 62.4897 55.0142 62.9517C54.6841 63.3916 54.3643 63.8516 54.0142 64.3218C53.8818 64.479 53.7417 64.6289 53.5942 64.7715C53.4009 64.9453 53.2358 65.1475 53.104 65.3716C51.6611 67.6099 50.6128 70.0791 50.0039 72.6714C49.5332 74.0249 49.1982 75.4219 49.0039 76.8418C48.7324 77.5029 48.5278 78.1895 48.394 78.8916Z" fill-rule="evenodd" fill="currentColor"/>
	<path d="M17.5938 71.3418C17.6343 71.7139 17.6343 72.0894 17.5938 72.4614C17.561 72.8008 17.4941 73.1357 17.394 73.4614C17.1582 74.1479 16.8208 74.7949 16.394 75.3818C16.1138 75.7715 15.2339 75.7817 15.0737 75.3115C14.7842 74.4116 14.4839 73.4814 14.2441 72.5215C14.1606 71.9082 14.1172 71.2905 14.1138 70.6719C14.1138 70.1719 14.1138 69.5815 14.0342 68.9517C13.9541 68.3218 14.0342 67.6318 14.084 66.9517C14.1694 64.4048 14.4434 61.8677 14.9038 59.3618C15.4512 56.2451 16.4199 53.2173 17.7842 50.3618C20.5967 44.6562 24.2397 39.3989 28.5938 34.7617C29.561 33.7378 30.604 32.7886 31.7139 31.9219C35.5439 28.9917 39.3438 26.1216 43.354 23.4517C44.0728 23.0767 44.73 22.5942 45.3037 22.0215C46.0083 21.4141 46.7759 20.8843 47.5938 20.4414C48.2339 20.1016 48.9238 19.6616 49.7139 19.2915L52.1841 18.1719C54.7593 17.0659 57.4395 16.2217 60.1841 15.6519C64.4834 14.9824 68.8477 14.8281 73.1841 15.1914C73.8091 15.1567 74.4336 15.2734 75.0039 15.5317C76.187 16.1929 77.4946 16.6016 78.8438 16.7314C79.7339 16.9717 80.6138 17.2017 81.4839 17.4814C82.354 17.7617 83.1841 18.1719 84.0142 18.5415C84.7915 19.0312 85.5151 19.6011 86.1738 20.2417C86.7939 20.7715 86.0239 21.4414 85.7441 21.4517C84.9238 21.4517 85.334 22.0718 85.2441 22.4517C85.2246 22.5884 85.1733 22.7188 85.0938 22.8315C84.5776 22.8413 84.0615 22.7979 83.5537 22.7017L82.8438 22.6016L82.0239 22.6016L80.2642 22.5317L78.4741 22.6216C77.9351 22.6348 77.397 22.6816 76.8638 22.7617C76.2246 22.8623 75.5806 22.9292 74.9341 22.9614C74.874 22.9614 74.0342 23.0615 72.7939 23.0615C71.2544 23.1436 69.7217 23.3208 68.2041 23.5918C65.6431 24.0288 63.1309 24.7153 60.7041 25.6416C59.9648 25.8862 59.2051 26.0635 58.4341 26.1719C58.3438 26.1719 57.6738 26.4814 56.7241 26.8916C55.7739 27.3018 54.564 27.9517 53.3438 28.5518C50.9141 29.8018 48.604 31.2617 48.4141 31.3516C47.4141 31.8516 46.5439 32.4717 45.5938 33.0117C44.6543 33.606 43.647 34.0859 42.5938 34.4414C42.1899 34.6294 41.8159 34.875 41.4839 35.1719C38.4473 37.459 35.5391 39.9126 32.7739 42.5215C32.104 43.2217 31.4541 43.9517 30.7739 44.6816L28.9741 46.9614C28.7441 47.2314 28.4839 47.4717 28.2441 47.7314C27.939 48.0488 27.6519 48.3823 27.3838 48.7314C26.0508 50.6318 24.8374 52.5815 23.7441 54.5815C23.1641 55.5815 22.6641 56.5815 22.1338 57.6318C21.604 58.6816 21.2441 59.7515 20.8838 60.8315C20.7378 61.2817 20.564 61.7227 20.3638 62.1519C20.1138 62.7515 19.7842 63.4614 19.5537 64.2017C19.3237 64.9414 19.0342 65.6816 18.8438 66.3218C18.6538 66.9614 18.5938 67.5317 18.5938 67.8418C18.4268 68.439 18.2261 69.0264 17.9941 69.6016C17.7822 70.1606 17.6475 70.7461 17.5938 71.3418Z" fill-rule="evenodd" fill="currentColor"/>
	<defs/>
</svg>
