<svg width="24" height="24" viewBox="0 0 110 110" fill="none" xmlns="http://www.w3.org/2000/svg" xmlns:xlink="http://www.w3.org/1999/xlink">
	<path d="M65.1997 69.0515C65.9985 67.8 66.6021 66.4346 66.9897 65.0015C67.4331 63.5205 67.626 61.9758 67.5596 60.4314C67.48 59.2805 67.2959 58.1392 67.0098 57.0215C66.0889 52.8518 63.7314 49.1384 60.3496 46.5315C58.8208 45.406 57.0732 44.6123 55.2197 44.2014C54.6333 44.0601 54.0386 43.9531 53.4399 43.8813C52.8398 43.8813 52.2295 43.7815 51.6196 43.7915C51.3076 43.7988 50.9961 43.772 50.6899 43.7114C50.3745 43.6711 50.0571 43.6511 49.7397 43.6514C49.4199 43.6514 49.0898 43.6514 48.7397 43.6514C48.4233 43.6887 48.1094 43.7454 47.7998 43.8215C46.9995 43.9614 47.0396 43.8215 47.6299 43.3713C47.9297 43.1514 48.3599 42.8713 48.8896 42.4414C49.5 41.9329 50.1724 41.5027 50.8896 41.1614C52.3696 40.791 53.9019 40.6794 55.4199 40.8315C56.1875 40.8838 56.9463 41.0281 57.6797 41.2615C58.4146 41.4807 59.1328 41.7515 59.8296 42.0715C62.5708 43.3542 64.9487 45.2993 66.7495 47.7314C67.8164 49.1702 68.7886 50.6768 69.6597 52.2415C70.5366 53.8408 71.2085 55.5442 71.6597 57.3115C73.2778 63.7388 71.4761 70.5464 66.8896 75.3315C64.313 77.9983 61.0825 79.9429 57.5195 80.9714C54.7886 81.8799 51.9155 82.2864 49.0396 82.1714C48.3916 82.1726 47.7461 82.0886 47.1196 81.9214C44.7896 81.1914 44.2695 80.3516 44.4097 78.9814C44.4233 78.6719 44.4634 78.364 44.5298 78.0615C44.8198 77.0615 45.9199 76.7314 47.2896 76.7214C47.8198 76.7214 48.2896 76.7214 48.8296 76.6414C49.3696 76.5615 49.8296 76.6414 50.2896 76.6414C51.2896 76.6414 52.2197 76.5215 53.1699 76.3914C55.0796 76.1106 56.9346 75.5371 58.6699 74.6914C59.3174 74.3889 59.9395 74.0344 60.5298 73.6313C60.8296 73.4214 61.1499 73.2415 61.4297 73.0115L62.2798 72.3215C63.3755 71.3662 64.3193 70.2502 65.0796 69.0115L65.1997 69.0515Z" fill-rule="evenodd" fill="currentColor"/>
	<path d="M69.1196 59.0515L69.0093 57.6516L68.7896 56.3716C68.7104 55.9333 68.5967 55.502 68.4497 55.0815C68.3467 54.6443 68.1992 54.2188 68.0093 53.8115C67.3442 52.1077 66.3901 50.5312 65.1895 49.1516C62.7061 46.2861 59.2295 44.4675 55.4595 44.0615L53.3496 43.8916L51.1694 44.0415C50.4351 44.0852 49.7056 44.1921 48.9893 44.3616C48.2593 44.5115 47.5293 44.6116 46.7993 44.7715C45.5068 45.1074 44.2344 45.5181 42.9893 46.0015L41.1396 46.8315L39.8394 47.4216C39.2793 47.6616 38.6997 48.0916 38.1895 48.3215L33.1895 49.8015L32.5693 49.9915C32.4761 50.0283 32.3789 50.0552 32.2793 50.0715C32.2021 50.0581 32.1274 50.0312 32.0596 49.9915C31.7163 49.7439 31.4609 49.3938 31.3296 48.9915C31.0327 48.2224 30.8506 47.4138 30.7896 46.5916C30.7896 46.3616 30.7896 46.1016 30.7896 45.8616C30.7896 45.6216 30.7295 45.3916 30.7095 45.1516C30.6895 44.9116 30.7095 44.6316 30.7593 44.3616L30.8896 43.5215C31.0894 42.4016 31.3394 41.2815 31.6196 40.1616C31.9795 38.7415 32.3794 37.3416 32.7993 35.9417C33.6494 33.1616 34.5693 30.4216 35.6094 27.6917C36.3096 25.8516 37.0396 24.0015 37.8794 22.1516C38.2886 21.2146 38.7598 20.3059 39.2896 19.4316C39.9458 18.2605 40.8755 17.2654 41.9995 16.5315C42.8296 16.1621 43.731 15.981 44.6396 16.0015C45.0913 15.9993 45.543 16.0327 45.9893 16.1016C46.3696 16.1516 46.6797 16.2017 46.9893 16.2715C48.6416 16.6333 50.2739 17.0806 51.8794 17.6116L56.4697 19.0916L58.7197 19.8015C59.4595 20.0715 60.1997 20.3115 60.9395 20.5515C62.4189 21.0317 63.9248 21.4258 65.4497 21.7317C67.2993 22.0615 67.1597 22.7317 65.3594 23.6016C64.1357 24.1125 62.8467 24.4492 61.5293 24.6016C60.6738 24.7151 59.8125 24.7751 58.9497 24.7815L57.5493 24.7815C57.0894 24.7017 56.6196 24.6316 56.1396 24.5315C53.6997 24.0115 51.3296 23.3816 49.0796 22.8616C48.0376 22.6018 46.9829 22.3982 45.9194 22.2515L45.2793 22.1917L45.2197 22.1917C45.2197 22.0916 45.1294 22.3215 45.0493 22.4517L44.7793 22.9517C44.3896 23.6616 43.9297 24.4717 43.5195 25.3315C42.6797 27.0515 41.8896 28.8916 41.1396 30.7615C40.3896 32.6316 39.6494 34.5115 38.9697 36.4316L37.9697 39.3215L37.4995 40.7715L37.2695 41.5015C37.2432 41.5667 37.2134 41.6301 37.1797 41.6917C36.9072 42.2346 36.7441 42.8257 36.6997 43.4316C36.6997 43.5115 36.6997 43.6216 36.7993 43.6316C36.8994 43.6416 36.9194 43.5815 36.9893 43.5515L37.3496 43.4316L38.1895 42.9814C38.3364 42.9429 38.4751 42.8784 38.5996 42.7915L40.0693 42.1816L41.5396 41.5715L43.0894 41.0916C44.0894 40.7715 45.0894 40.3516 46.1694 40.0916L49.3594 39.4016C50.5493 39.2415 51.7695 39.1816 52.9795 39.0715C54.1895 38.9617 55.4297 39.1716 56.6494 39.2314L58.4697 39.5815C59.084 39.6741 59.6895 39.8179 60.2793 40.0115C61.4834 40.3567 62.6523 40.8154 63.7695 41.3816C66.0259 42.488 68.0596 43.9998 69.7695 45.8416C71.4531 47.6855 72.834 49.7849 73.8594 52.0615C74.1294 52.7815 74.4097 53.5015 74.6694 54.2217C74.9297 54.9417 75.0693 55.7314 75.2393 56.4814C75.4097 57.2314 75.4893 57.9517 75.5796 58.7017C75.6694 59.4517 75.7197 60.2017 75.7295 60.9517C75.8105 64.0173 75.312 67.0708 74.2593 69.9517C73.4307 72.124 72.2593 74.1497 70.7896 75.9517C69.3081 77.7314 67.5767 79.2876 65.6494 80.5715C61.8389 83.1145 57.4375 84.6333 52.8696 84.9814C45.7671 85.5813 38.6821 83.647 32.8696 79.5215L31.0093 78.0715C30.4097 77.5715 29.8594 77.0015 29.2993 76.4316C28.437 75.5261 27.688 74.5186 27.0693 73.4316C26.6699 72.6726 26.3579 71.8708 26.1396 71.0415C25.9766 70.4514 25.9561 69.8311 26.0796 69.2314C26.2515 68.6904 26.4971 68.1755 26.8096 67.7017C27.0254 67.3015 27.2695 66.9172 27.5396 66.5515C27.9697 66.0916 28.6396 66.2615 29.7393 66.7017C30.0352 66.7913 30.3149 66.9263 30.5693 67.1016C30.8296 67.2815 31.0396 67.5015 31.3296 67.7017C31.9375 68.1711 32.5122 68.6824 33.0493 69.2314C33.5396 69.6416 34.0493 70.0315 34.4497 70.4617C34.8496 70.8916 35.4497 71.2314 35.8594 71.6216C36.333 72.0066 36.8306 72.3606 37.3496 72.6816C37.8257 73.0447 38.3232 73.3787 38.8394 73.6816C40.8516 74.9626 43.0464 75.9302 45.3496 76.5515C49.8359 77.8589 54.6406 77.5327 58.9097 75.6316C60.4775 74.9241 61.936 73.9944 63.2393 72.8716C63.5649 72.6091 63.8721 72.3252 64.1597 72.0215C64.4614 71.7295 64.7485 71.4226 65.0195 71.1016C65.3125 70.79 65.5801 70.4558 65.8193 70.1016C66.0854 69.7854 66.3296 69.4512 66.5493 69.1016C68.4189 66.1003 69.2681 62.575 68.9697 59.0515L69.1196 59.0515Z" fill-rule="evenodd" fill="currentColor"/>
	<defs/>
</svg>
