<svg width="24" height="24" viewBox="0 0 110 110" fill="none" xmlns="http://www.w3.org/2000/svg" xmlns:xlink="http://www.w3.org/1999/xlink">
	<path d="M20.0498 52.7412C20.5366 55.1147 21.0034 57.498 21.4497 59.8914C21.6201 60.7612 21.8301 61.6213 21.96 62.5012C22.3999 65.6113 22.7197 68.7412 22.8901 71.8914C23.0098 73.2812 23 74.6914 23.04 76.0713C23.04 76.9614 23.04 77.8713 22.9497 78.7612C22.873 79.6602 22.7153 80.5505 22.48 81.4214C22.3398 81.9614 22.02 81.8213 21.71 81.3113C21.2979 80.5986 21.0713 79.7942 21.0498 78.9712L20.8799 76.3813C20.77 75.5112 20.6699 74.6514 20.5898 73.7913C20.5098 72.9314 20.4199 72.0513 20.3599 71.1814C20.2998 70.3113 20.21 69.4214 20.1401 68.5413C19.8809 66.3767 19.4766 64.2317 18.9297 62.1213C18.4297 59.7712 17.9297 57.4014 17.4297 55.0413C17.1001 53.5913 16.7798 52.1313 16.4297 50.6814C15.8901 48.4912 15.4297 46.2612 14.79 44.0913C14.3398 42.4014 13.79 40.7712 13.29 39.0913C13.1899 38.7212 13.0601 38.3613 12.9897 37.9812C12.9199 37.6013 12.9097 37.3213 12.8999 37.0613C12.9053 36.8406 12.9424 36.6216 13.0098 36.4114C13.104 36.0906 13.3052 35.8115 13.5801 35.6213C13.6924 35.5249 13.813 35.438 13.9399 35.3613C14.3301 35.1614 14.8599 35.6614 15.4097 36.5913C16.0601 38.0012 16.5498 39.4812 17.0898 40.9912C17.3301 41.7512 17.5801 42.5112 17.8301 43.2712L18.4399 45.6213C19.04 47.9712 19.5801 50.3413 20.1299 52.7212L20.0498 52.7412Z" fill-rule="evenodd" fill="currentColor"/>
	<path d="M32.2598 28.5913C26.4932 30.4875 20.8911 32.8521 15.5098 35.6614L14.8198 36.0513C14.73 36.0986 14.6431 36.1521 14.5601 36.2114C14.5 36.2812 14.3501 36.3213 14.3901 36.4214L14.5 36.7014C14.5801 36.8914 14.5 36.7612 14.77 37.5513C15.9502 41.5513 16.8301 45.4514 17.6802 49.4114C18.5298 53.3713 19.2798 57.3213 19.9702 61.2913C20.5698 64.8213 21.1802 68.3613 21.7798 71.8613C22.5 76.3613 23.2798 80.9314 22.9502 85.5913C22.8501 87.0513 21.9502 86.8213 21.0698 85.6614C19.8511 83.96 19.0557 81.9919 18.75 79.9214C17.4102 70.9214 15.3398 62.0312 13.8301 52.9214C13.3398 50.3113 12.7202 47.7114 12 45.1213C11.6201 43.8413 11.25 42.5312 10.8301 41.2712C10.6299 40.6414 10.4399 39.9912 10.21 39.3813L9.85986 38.3813C9.68018 37.8213 9.43994 37.3013 9.25 36.7712L9.1001 35.5513L9 34.7214L9.2002 34.7812L9.2002 34.6914L9.2002 34.5913L9.25 34.4014C9.27441 34.269 9.32568 34.1433 9.3999 34.0312C9.77637 33.5562 10.229 33.1472 10.7402 32.8213C11.2798 32.4714 11.8301 32.1213 12.3799 31.8213L13.4702 31.1213C14.8799 30.3313 16.3101 29.6013 17.75 28.9014C20.6201 27.5012 23.5498 26.2312 26.5098 25.0513C30.1499 23.6113 33.8599 22.3313 37.6099 21.1914C43.2905 19.4963 49.0674 18.1438 54.9102 17.1414C57.1699 16.7412 59.4102 16.3213 61.6602 15.9514C63.9102 15.5593 66.1802 15.2922 68.46 15.1514C69.46 15.0913 70.46 15.0012 71.46 15.0012C72.2603 14.9902 73.0601 15.0503 73.8501 15.1814C74.397 15.2683 74.9331 15.4124 75.4502 15.6113C76.1895 15.8906 76.7842 16.4568 77.1001 17.1814C77.2803 17.4827 77.4312 17.8008 77.5498 18.1313C77.7998 19.1814 76.25 19.9114 73.6299 20.3213C65.8999 21.4014 57.9399 22.1414 49.9302 23.8213C43.9624 25.0496 38.0854 26.6833 32.3398 28.7114L32.2598 28.5913Z" fill-rule="evenodd" fill="currentColor"/>
	<path d="M67.1699 74.2415C63.6899 74.7515 60.1699 75.4014 56.75 76.2415C55.4902 76.5513 54.27 76.9915 53.02 77.3213C50.8003 77.8613 48.5801 78.4714 46.3701 79.0913C44.1602 79.7114 41.9302 80.3213 39.75 81.0913C37.8003 81.7214 35.8999 82.5015 34.04 83.3013C31.6401 84.364 29.1714 85.2627 26.6499 85.9915C25.8501 86.2114 25.7803 85.8013 26.1802 85.0513C26.7861 83.8987 27.644 82.8972 28.6899 82.1213L30.3999 80.9814L31.25 80.4114L32.1602 79.9514C33.3599 79.3313 34.5898 78.7615 35.8198 78.2014C38.3008 77.0781 40.853 76.1194 43.46 75.3313C46.6201 74.4814 49.75 73.1313 52.9502 72.1614C56.4702 71.1113 60.0503 70.2214 63.6499 69.4514C65.8701 68.9714 68.1099 68.5813 70.3501 68.2014C73.75 67.6414 77.1899 67.2913 80.6401 67.0413L84.6401 66.6714C85.3198 66.6013 86.0103 66.5913 86.7002 66.5413C87.3901 66.4915 88.0801 66.5413 88.79 66.6814C89.4189 66.7312 90.0439 66.825 90.6602 66.9614C91.5503 67.114 92.3794 67.5161 93.0503 68.1213C93.4644 68.5911 93.6343 69.2275 93.5103 69.8413C93.4888 70.156 93.4351 70.4675 93.3501 70.7715C93.1743 71.2319 92.8105 71.5957 92.3501 71.7715C91.8101 72.0034 91.228 72.1226 90.6401 72.1213C89.6401 72.1213 88.6401 72.2214 87.5601 72.3213C86.4956 72.4617 85.4238 72.5417 84.3501 72.5613C82.1699 72.6714 79.8999 72.8313 77.6001 73.0713C74.1802 73.3613 70.6802 73.7715 67.2002 74.3813L67.1699 74.2415Z" fill-rule="evenodd" fill="currentColor"/>
	<path d="M70.52 47.0012C67.8647 50.0344 65.3716 53.2056 63.0503 56.5012C62.2002 57.7112 61.5103 59.0112 60.7202 60.2312L60.4399 60.6711L60.0801 61.2412C59.7603 61.7712 59.48 62.3413 59.1602 62.8413C58.4116 63.2239 57.687 63.6514 56.9902 64.1211C56.9272 64.1702 56.8604 64.2139 56.79 64.2512L56.52 64.2512L55.9702 64.2512C55.5903 64.2512 55.0703 64.2512 54.6304 64.2512L54.21 64.1011C54.0698 63.9963 53.9365 63.8828 53.8101 63.7612L53.0303 63.0813L52.2603 62.4011C52.0493 62.1685 51.8223 61.9514 51.5801 61.7512L49.8203 60.2212L46.3403 56.9211C44.6304 55.2913 42.8501 53.7212 41.1104 52.1511C40 51.1511 38.8501 50.1511 37.75 49.1511C36.6499 48.1511 35.6001 47.1211 34.5303 46.0212C33.8804 45.3611 34.1602 45.1711 35.04 45.3213C36.4302 45.5906 37.7607 46.1055 38.9702 46.8413C41.5703 48.5413 44.0801 50.3213 46.5303 52.1711C48.98 54.0212 51.3101 56.0112 53.6001 57.9912L54.1899 58.4812C54.3203 58.6211 54.3101 58.6311 54.3804 58.7012L54.5503 58.8811L54.6401 58.9712C54.6401 58.9712 54.71 59.1311 54.7402 59.2012C54.8433 59.2188 54.9443 59.249 55.04 59.2913L55.1899 59.4011L55.27 59.4011C55.27 59.4011 55.27 59.4011 55.27 59.3213C55.3501 59.1311 55.46 58.9412 55.5503 58.7412C55.5503 58.7412 56.46 57.0913 57.1201 56.0813C59.4067 52.5107 61.8838 49.0657 64.54 45.7612C66.1602 43.7612 67.8604 41.7612 69.6001 39.8113C72.2676 36.887 75.0957 34.1125 78.0703 31.5012C79.23 30.5012 80.3501 29.4512 81.52 28.4512C82.7041 27.4219 83.9829 26.5078 85.3403 25.7212C85.9214 25.3552 86.5225 25.0212 87.1401 24.7212C87.9722 24.2622 88.9004 24.0054 89.8501 23.9712C90.4614 24.0164 91.0264 24.3135 91.4102 24.7913C91.6133 24.9963 91.8008 25.217 91.9702 25.4512C92.4302 26.2412 91.75 27.2913 90.4102 28.2712C88.4102 29.6912 86.5801 31.4412 84.5903 33.0212C82.6001 34.6011 80.71 36.4312 78.8203 38.3113C77.4399 39.7212 76.0303 41.1311 74.6602 42.5913C73.29 44.0513 71.9502 45.5913 70.6602 47.1211L70.52 47.0012Z" fill-rule="evenodd" fill="currentColor"/>
	<defs/>
</svg>
