<svg width="24" height="24" viewBox="0 0 110 110" fill="none" xmlns="http://www.w3.org/2000/svg" xmlns:xlink="http://www.w3.org/1999/xlink">
	<path d="M33.082 57.3403C33.082 57.3403 36.082 66.6504 30.9419 68.8706C25.8022 71.0903 35.062 75.6704 38.9419 71.6406C42.8223 67.6104 41.6221 58.2803 38.9419 57.3403C37.0244 56.8135 35 56.8135 33.082 57.3403Z" fill-rule="evenodd" fill="currentColor"/>
	<path d="M30.3022 68.9004C31.1841 69.3647 32.1372 69.6787 33.1221 69.8306C33.8149 69.9683 34.5317 69.9233 35.2021 69.7007C35.5142 69.5649 35.8042 69.3828 36.062 69.1606C36.4326 68.8296 36.7681 68.4609 37.062 68.0605C37.7124 67.1133 38.2275 66.0801 38.5923 64.9907C39.1416 63.2031 39.4771 61.3569 39.5923 59.4907C39.9019 56.0024 39.6929 52.4878 38.9722 49.0605C38.2266 45.5352 37.0718 42.1084 35.5322 38.8506C34.1221 35.9302 32.3408 33.2046 30.2319 30.7407C29.582 29.9307 28.8623 29.1904 28.1523 28.4307L26.0322 26.1406C25.3022 25.4004 24.6021 24.6206 23.8521 23.8809C23.1021 23.1406 22.3623 22.3506 21.6123 21.5908C20.7119 20.5908 21.3022 20.0508 22.7822 20.0005C24.96 19.9766 27.0903 20.6377 28.8721 21.8906C29.8721 22.5605 30.7319 23.3008 31.6421 24.0405C32.0952 24.4155 32.5225 24.8193 32.9224 25.2505C33.332 25.6704 33.752 26.0806 34.1421 26.5205C35.7339 28.2593 37.1978 30.1108 38.522 32.0605C39.8462 34.0342 41.0103 36.1108 42.002 38.2705C42.9385 40.4663 43.6748 42.7422 44.2021 45.0708C45.4321 50.6006 46.6421 56.4805 45.8022 62.4805C45.3936 65.9238 44.166 69.2192 42.2222 72.0908C41.6606 72.874 41.0171 73.5947 40.3022 74.2407C39.5127 74.9263 38.6177 75.48 37.6523 75.8809C36.6968 76.2754 35.6836 76.5117 34.6523 76.5806C33.6899 76.668 32.7202 76.6177 31.772 76.4307C29.6626 76.0073 27.6558 75.1787 25.8623 73.9907C24.145 72.8647 22.582 71.52 21.2119 69.9907C20.1587 68.8364 19.252 67.5566 18.5122 66.1807C17.7056 64.7168 17.2051 63.104 17.042 61.4404C16.9033 59.7866 17.1079 58.1221 17.6421 56.5508C18.2524 54.8677 19.3931 53.4292 20.8921 52.4507C22.0063 51.7461 23.2402 51.2515 24.5322 50.9907C25.748 50.7329 26.9902 50.6221 28.2319 50.6606C30.7056 50.752 33.1333 51.355 35.3623 52.4307C36.3877 52.8828 37.3545 53.4565 38.2422 54.1406C38.6343 54.4487 39.0049 54.7827 39.3521 55.1406C39.623 55.46 39.877 55.7939 40.1123 56.1406C40.4756 56.7002 40.7144 57.3311 40.812 57.9907C40.9116 58.9087 40.6001 59.8232 39.9619 60.4907C39.7373 60.7681 39.4824 61.0195 39.2021 61.2407C38.7622 61.5308 38.2021 61.3706 37.5723 61.0708L36.4419 60.5708C36.2349 60.5024 36.042 60.3975 35.8721 60.2607C35.6821 60.1406 35.502 60.0107 35.3223 59.8706C34.7319 59.4907 34.1919 59.0605 33.582 58.6904C32.9546 58.3154 32.3032 57.9814 31.6323 57.6904C30.2759 57.1392 28.8423 56.8018 27.3823 56.6904C26.7344 56.6445 26.084 56.6714 25.4419 56.7705C24.958 56.8716 24.499 57.0688 24.0923 57.3506C23.8228 57.5542 23.6099 57.8223 23.4722 58.1309C23.2979 58.5264 23.1934 58.9492 23.1621 59.3809C23.1621 59.5708 23.1621 59.8105 23.1621 60.0205C23.1621 60.2305 23.1621 60.5107 23.1621 60.7505C23.1724 60.9268 23.2026 61.1011 23.252 61.2705C23.2935 61.4585 23.3501 61.6426 23.4224 61.8208C23.8022 62.7729 24.3286 63.6606 24.9819 64.4507C26.4287 66.2705 28.2681 67.7407 30.3623 68.7505L30.3022 68.9004Z" fill-rule="evenodd" fill="currentColor"/>
	<path d="M74.7319 62.1006C77.4517 73.2407 68.1318 74.9907 68.1318 74.9907C68.1318 74.9907 73.7617 79.9907 77.1318 76.4106C80.502 72.8306 80.9219 67.5708 79.6616 65.0405C78.4019 62.5107 74.7319 62.1006 74.7319 62.1006Z" fill-rule="evenodd" fill="currentColor"/>
	<path d="M69.1421 74.9307C70.022 75.3911 70.9712 75.7056 71.9521 75.8608C72.6484 75.998 73.3682 75.9531 74.042 75.731C74.3501 75.5923 74.6362 75.4106 74.8921 75.1909C75.2603 74.8569 75.5947 74.4888 75.8921 74.0908C76.543 73.1333 77.0581 72.0898 77.4224 70.9907C77.9707 69.2031 78.3062 67.3569 78.4224 65.4907C78.7319 62.0029 78.5229 58.4878 77.8022 55.061C77.0498 51.5405 75.8955 48.1182 74.3623 44.8608C72.9473 41.9434 71.1665 39.2178 69.062 36.751C68.4121 35.9507 67.6924 35.2007 66.9824 34.4507L64.8623 32.1611C64.1323 31.4209 63.4321 30.6309 62.6924 29.9009C61.9521 29.1709 61.2324 28.3809 60.4824 27.6211C59.582 26.6211 60.1821 26.0811 61.6523 26.0308C63.8301 26.0068 65.9604 26.668 67.7422 27.9209C68.7422 28.5908 69.6021 29.3311 70.522 30.0708C70.9717 30.4458 71.396 30.8496 71.792 31.2808C72.2021 31.7007 72.6323 32.1108 73.0122 32.5508C74.5957 34.2886 76.0493 36.1406 77.3623 38.0908C78.6826 40.0669 79.8462 42.1431 80.8423 44.3008C81.7725 46.498 82.5054 48.7739 83.0322 51.1011C84.272 56.6309 85.4824 62.5107 84.6421 68.5107C84.2231 71.9531 82.9927 75.2471 81.0522 78.1211C80.4995 78.9053 79.8589 79.623 79.1421 80.2607C77.5742 81.6406 75.5957 82.4663 73.5122 82.6108C72.5498 82.6982 71.5801 82.6479 70.6323 82.4609C68.5117 82.0278 66.4946 81.189 64.6924 79.9907C62.9761 78.8677 61.416 77.5225 60.0522 75.9907C58.9985 74.854 58.0947 73.5869 57.3623 72.2207C55.6978 69.2866 55.377 65.7783 56.4824 62.5908C57.0957 60.9102 58.2358 59.4722 59.7324 58.4907C60.8447 57.7949 62.0747 57.3066 63.3623 57.0508C64.5811 56.793 65.8267 56.6821 67.0723 56.7207C69.5317 56.8081 71.9478 57.397 74.1724 58.4507C75.1978 58.9126 76.1675 59.4897 77.062 60.1709C77.4512 60.479 77.8184 60.813 78.1621 61.1709C78.4624 61.521 78.7021 61.8809 78.9224 62.1709C79.2856 62.7212 79.5308 63.3408 79.6421 63.9907C79.7432 64.9121 79.4321 65.8306 78.792 66.501C78.5698 66.7803 78.3149 67.0322 78.0322 67.251C77.5923 67.541 77.0322 67.3711 76.4023 67.0811L75.272 66.5811C75.0659 66.5103 74.8735 66.4053 74.7021 66.271C74.5122 66.1509 74.3423 66.021 74.1523 65.8809C73.562 65.4907 73.022 65.0708 72.4121 64.7007C71.7705 64.3198 71.1021 63.9854 70.4121 63.7007C69.0562 63.1494 67.6221 62.812 66.1621 62.7007C65.5181 62.6553 64.8706 62.6821 64.2324 62.7808C63.7441 62.8804 63.2817 63.0776 62.8721 63.3608C62.6099 63.5713 62.3979 63.8379 62.252 64.1411C62.0762 64.5356 61.9746 64.9595 61.9521 65.3911C61.9521 65.5811 61.9521 65.8208 61.9521 66.0308C61.9521 66.2407 61.9521 66.521 61.9521 66.7607C61.9624 66.937 61.9927 67.1113 62.042 67.2808C62.0894 67.4668 62.146 67.6504 62.2124 67.8311C62.5962 68.7817 63.1221 69.6685 63.772 70.4609C65.2202 72.2715 67.0508 73.7397 69.1323 74.7607L69.1421 74.9307Z" fill-rule="evenodd" fill="currentColor"/>
	<defs/>
</svg>
