<svg width="24" height="24" viewBox="0 0 110 110" fill="none" xmlns="http://www.w3.org/2000/svg" xmlns:xlink="http://www.w3.org/1999/xlink">
	<path d="M57.6143 54.9634C54.0542 60.1733 50.7842 65.6831 47.6143 71.2832C47.0474 72.3032 46.5078 73.3433 45.9941 74.4033L45.1943 75.9829L44.2642 77.7529C43.6841 78.8232 43.0542 79.9233 42.4443 80.9531C42.1343 81.4932 41.8042 81.9531 41.4443 82.4434C41.1421 82.874 40.8076 83.2822 40.4443 83.6631C39.8945 84.2827 39.2104 84.7681 38.4443 85.083C38.0659 85.2007 37.6704 85.2549 37.2744 85.2432L37.2241 85.2432C37.2241 85.293 37.2241 85.1333 37.2241 85.353L37.124 85.353L36.9741 85.353L36.7544 85.1733C36.5928 85.103 36.4355 85.0229 36.2842 84.9331C35.6665 84.4243 35.0757 83.8833 34.5142 83.313C34.2241 82.9033 33.9341 82.5132 33.6641 82.0732L32.8643 80.6733L31.354 77.7529L30.354 75.7529C29.2344 73.2832 28.1143 70.833 26.9644 68.4131C25.4141 65.103 23.5542 61.9331 21.7744 58.813C20.624 56.813 19.3345 54.9131 18.124 53.0132C17.5342 52.0132 16.9341 51.0933 16.3242 50.1934C15.77 49.3076 15.1411 48.4712 14.4443 47.6934C14.2866 47.5366 14.1519 47.3579 14.0444 47.1631C13.9854 47.0156 13.9854 46.8506 14.0444 46.7031C14.1343 46.4331 14.5845 46.1333 15.4141 46.1133C16.5146 46.1226 17.6025 46.3506 18.6143 46.7832C19.8984 47.3281 21.061 48.1235 22.0342 49.123C22.4941 49.5933 22.9243 50.0532 23.3442 50.543L24.4941 52.0332C25.2344 53.0332 25.9644 54.0332 26.6543 55.0332C27.3442 56.0332 28.0244 57.083 28.6543 58.123C29.2842 59.1631 29.854 60.2529 30.4341 61.3232C31.5845 63.4731 32.6641 65.6333 33.7041 67.8232C34.2241 68.9131 34.7041 70.0132 35.2241 71.1133L35.9541 72.7632L36.2944 73.603L36.4644 74.0229C36.5137 74.125 36.5503 74.2324 36.5742 74.3433C36.689 75.0078 36.9194 75.6475 37.2544 76.2329C37.2949 76.3037 37.3418 76.3706 37.394 76.4331C37.417 76.4624 37.4521 76.48 37.4893 76.48C37.5264 76.48 37.5615 76.4624 37.5845 76.4331C37.6938 76.335 37.791 76.2241 37.874 76.103C38.0342 75.853 38.1841 75.583 38.3242 75.313L39.9141 72.2329C42.9141 66.4629 45.854 60.623 49.1343 54.9434C51.1343 51.4331 53.2642 47.9932 55.5044 44.6133C58.9062 39.4956 62.6162 34.5898 66.6143 29.9233C69.7344 26.293 72.7842 22.5732 76.7041 19.4434C77.5532 18.7148 78.4521 18.0464 79.394 17.4434C80.1494 16.9805 80.9463 16.5884 81.7744 16.2729C82.373 16.0728 83.0029 15.9814 83.6343 16.0029C84.6074 16.0293 85.5225 16.4741 86.144 17.2231C86.4731 17.5293 86.7744 17.8638 87.0444 18.2231C87.7842 19.4434 86.7241 21.0332 84.874 22.7529C83.4341 23.9331 82.0444 25.1733 80.6143 26.4331C79.1841 27.6934 77.8042 29.0332 76.4341 30.4331C73.6011 33.3335 70.9302 36.3882 68.4341 39.583C64.5977 44.5464 61.0225 49.707 57.7241 55.043L57.6143 54.9634Z" fill-rule="evenodd" fill="currentColor"/>
	<defs/>
</svg>
