<svg width="24" height="24" viewBox="0 0 110 110" fill="none" xmlns="http://www.w3.org/2000/svg" xmlns:xlink="http://www.w3.org/1999/xlink">
	<path d="M59.7729 46.6855C63.7378 42.5212 67.3848 38.0654 70.6831 33.3555C71.1997 32.5635 71.6514 31.7307 72.0332 30.8655C72.2329 30.4756 72.4131 30.0657 72.543 29.7656L72.6831 29.3655C72.8022 29.1404 72.8022 28.8708 72.6831 28.6455L72.4131 28.3555C72.4131 28.3555 72.333 28.2256 72.2832 28.2256L72.2129 28.2256L72.103 28.1355C70.6743 27.168 69.1494 26.3503 67.5532 25.6956C64.1475 24.26 60.5923 23.2102 56.9531 22.5657C53.6494 22.0166 50.3018 21.7756 46.9531 21.8455C45.8931 21.8455 44.833 21.9456 43.7729 21.9956C42.7129 22.0457 41.6631 22.2156 40.5933 22.2356C38.4731 22.3755 36.333 22.5056 34.1831 22.7156C32.8433 22.8157 32.8931 22.3354 33.873 21.4756C34.5405 20.906 35.2529 20.3911 36.0029 19.9355C37.0488 19.3154 38.1631 18.8188 39.3232 18.4556C41.5591 17.8718 43.8403 17.4805 46.1431 17.2856C47.293 17.1555 48.4531 17.1155 49.6133 17.0356C50.7729 16.9556 51.9229 17.0356 53.0933 17.0356C57.791 17.0459 62.4614 17.7502 66.9531 19.1255C69.8149 19.9565 72.6045 21.02 75.293 22.3057L76.0132 22.7156C76.2729 22.8655 76.5532 23.0056 76.7832 23.1655C77.2603 23.4707 77.7056 23.8223 78.1133 24.2156L78.7432 24.7756C78.9639 24.9375 79.1509 25.1414 79.293 25.3755C79.6118 25.8311 79.8486 26.3386 79.9932 26.8755C80.2979 27.9519 80.3594 29.0825 80.1729 30.1855C80.082 30.7463 79.9551 31.3008 79.793 31.8455C79.7446 32.0837 79.6777 32.3176 79.5933 32.5457C79.5229 32.7456 79.4531 32.9355 79.373 33.1255C78.729 34.6829 77.9458 36.179 77.0332 37.5955C76.1831 38.9656 75.293 40.2656 74.3833 41.5256C72.5532 44.0557 70.6333 46.4556 68.7031 48.8057C66.313 51.6956 63.8433 54.5056 61.4131 57.3157C57.7129 61.5657 53.8633 65.7056 50.313 69.9856C48.9331 71.6455 47.6631 73.3755 46.4229 75.1255C45.1831 76.8755 44.043 78.6755 42.6929 80.3057C42.1133 81.0457 41.603 81.8057 40.9932 82.5156C38.7129 85.1355 37.603 85.5955 35.5532 84.9456C35.0825 84.8335 34.6216 84.6865 34.1729 84.5056C32.7632 83.8555 32.6133 81.8855 33.7832 79.4355C34.6533 77.6255 35.5933 75.8555 36.583 74.0955C37.0688 73.2197 37.6133 72.3777 38.2129 71.5754C38.7832 70.7656 39.373 69.9556 39.9829 69.1555C42.3931 65.9556 44.9829 62.8354 47.6533 59.8555C51.6533 55.3855 55.7432 51.0356 59.6533 46.5657L59.7729 46.6855Z" fill-rule="evenodd" fill="currentColor"/>
	<defs/>
</svg>
