<svg width="24" height="24" viewBox="0 0 110 110" fill="none" xmlns="http://www.w3.org/2000/svg" xmlns:xlink="http://www.w3.org/1999/xlink">
	<path d="M66.4072 84.1624L64.4072 84.8923L62.3369 85.4424L61.3369 85.7124L60.2271 85.9224C59.5273 86.0322 58.8271 86.1624 58.127 86.2524C55.3354 86.5574 52.519 86.5574 49.7271 86.2524C46.9756 85.9446 44.2637 85.3479 41.6372 84.4724C40.3169 84.0823 39.0669 83.4724 37.7974 83.0125C37.167 82.7424 36.5571 82.4224 35.9473 82.1323C35.3267 81.8313 34.7222 81.4976 34.1372 81.1323C30.6357 79.2397 27.4229 76.8555 24.5972 74.0522C22.1255 71.5608 20.0181 68.7329 18.3369 65.6523C17.9272 64.8723 17.5669 64.0723 17.187 63.2922C16.8071 62.5125 16.5474 61.6523 16.187 60.8423C15.8467 60.0342 15.5562 59.2061 15.3169 58.3623C15.042 57.5242 14.8218 56.6689 14.6572 55.8022C13.9062 52.345 13.7979 48.7791 14.3369 45.2822C14.938 41.8425 16.0254 38.5056 17.5669 35.3723C20.165 29.7744 24.0591 24.8757 28.9272 21.0823C32.0454 18.5859 35.6377 16.7488 39.4873 15.6824C43.3501 14.6973 47.4077 14.7803 51.2271 15.9224C52.3569 16.5024 52.7974 16.8022 52.7373 16.9224C52.6772 17.0422 52.0869 17.0923 51.0571 17.4624C50.5371 17.7224 49.957 17.7424 49.2871 18.0024L47.1172 18.7324C46.3369 19.0125 45.5371 19.4124 44.6973 19.6824C43.8569 19.9524 43.0073 20.3523 42.1069 20.6023C41.207 20.8523 40.5669 21.2524 39.7974 21.5222L37.5171 22.5222C36.7871 22.9324 36.0474 23.2922 35.3271 23.7124C34.6069 24.1323 33.9272 24.6123 33.2471 25.0923C30.5264 27.1265 28.1089 29.5374 26.0669 32.2524C23.9517 34.9988 22.2314 38.0283 20.957 41.2524L20.1069 43.6724L19.4873 46.1523C19.3369 46.9924 19.2373 47.8423 19.0972 48.6924C18.957 49.5422 18.957 50.4023 18.877 51.2725C18.7705 55.5833 19.9019 59.8345 22.1372 63.5225C24.4492 67.2812 27.4443 70.5745 30.9673 73.2324C38.5972 79.1523 48.6973 82.1323 58.147 80.4924C58.8672 80.3323 59.6069 80.2524 60.3071 80.0322L62.4272 79.4224L64.4771 78.6123C65.167 78.3523 65.7974 77.9724 66.4771 77.6123C69.0913 76.2302 71.479 74.4563 73.5571 72.3523C76.7485 69.1785 79.147 65.2966 80.5571 61.0225C81.2539 58.9207 81.6611 56.7339 81.7671 54.5225C81.8022 53.9763 81.8022 53.4285 81.7671 52.8823C81.7759 52.3403 81.7388 51.7983 81.6572 51.2625C81.5771 50.7224 81.5469 50.1824 81.457 49.6523L81.0669 48.1023C80.8672 47.2922 80.5273 46.5322 80.2671 45.7524C80.0073 44.9724 79.5571 44.2725 79.1172 43.5823L78.437 42.5823C78.2212 42.2275 77.9731 41.8928 77.6973 41.5823C77.2168 40.9868 76.6885 40.4316 76.1172 39.9224C75.0669 38.9724 73.8057 38.2869 72.437 37.9224C71.0698 37.6052 69.6553 37.5474 68.2671 37.7524C66.9961 37.9102 65.7539 38.2468 64.5771 38.7524C60.167 40.9023 58.3569 41.7524 56.5771 41.7524C56.1621 41.8 55.7446 41.8203 55.3271 41.8123C54.7671 41.7324 54.7271 41.1123 55.1172 39.8923C55.3594 39.1335 55.6953 38.408 56.1172 37.7324C56.3779 37.2756 56.6758 36.8408 57.0073 36.4324C57.3535 35.9314 57.7563 35.4719 58.207 35.0623C59.6743 33.7798 61.3091 32.7034 63.0669 31.8623C64.9946 30.938 67.0693 30.3591 69.1973 30.1523C73.9346 29.9004 78.5459 31.7261 81.8271 35.1523C82.209 35.5327 82.5664 35.9368 82.897 36.3623L83.897 37.5823C84.5273 38.4124 85.0571 39.3323 85.627 40.2224C86.1973 41.1123 86.5669 42.1123 87.0171 43.0723C87.4673 44.0322 87.7373 45.0723 88.0171 46.0723C89.0713 50.1184 89.1602 54.3555 88.2773 58.4424C86.7417 65.7131 82.9604 72.3176 77.4673 77.3223C76.9272 77.8022 76.397 78.3223 75.8472 78.7725L74.0669 80.0823L73.187 80.7324C72.8872 80.9424 72.5771 81.1223 72.2671 81.3123L70.397 82.4524C69.7573 82.7922 69.0972 83.1023 68.397 83.4524C67.752 83.7898 67.084 84.0806 66.397 84.3223L66.4072 84.1624Z" fill-rule="evenodd" fill="currentColor"/>
	<path d="M54.0674 26.3022C54.6372 26.0723 57.2871 38.2422 58.8374 39.9524C61.2373 42.5923 68.2173 49.5723 67.6274 49.9524C64.8472 51.6323 43.5176 51.3123 42.5371 48.9224C40.7476 44.5022 52.1675 27.0723 54.0674 26.3022Z" fill-rule="evenodd" fill="currentColor"/>
	<defs/>
</svg>
