<svg width="24" height="24" viewBox="0 0 110 110" fill="none" xmlns="http://www.w3.org/2000/svg" xmlns:xlink="http://www.w3.org/1999/xlink">
	<path d="M25.0962 57.6699C25.7061 62.3789 27.4189 66.8779 30.0962 70.7998C31.1025 72.2148 32.2373 73.5337 33.4863 74.7397C35.5625 77.0083 38.0107 78.9058 40.7261 80.3501C43.5176 81.8257 46.5303 82.8389 49.646 83.3501C52.4785 83.8066 55.3545 83.9341 58.2163 83.73C60.0464 83.6196 61.8862 83.3799 63.7261 83.1299C65.5664 82.8799 67.4561 82.7998 69.3462 82.6196C70.5161 82.54 70.4663 82.96 69.6162 83.7197C68.271 84.9248 66.7104 85.8647 65.0161 86.4897C61.1001 87.5317 57.0684 88.0796 53.0161 88.1196C50.9385 88.1235 48.8662 87.9023 46.8359 87.46C45.8218 87.2505 44.8203 86.9834 43.8359 86.6597L42.3359 86.1597C41.8462 85.9697 41.3359 85.7397 40.8862 85.5298C36.2861 83.5298 31.646 80.7598 28.3262 76.8301C24.6509 72.5693 22.0483 67.4912 20.7363 62.02L20.5664 61.4097L20.4663 60.7798L20.2563 59.4897C20.0864 58.6577 19.9663 57.8164 19.896 56.9697C19.7363 55.2881 19.686 53.5981 19.7461 51.9097C19.9341 46.8218 21.0562 41.812 23.0562 37.1299L23.6362 35.7998L24.2661 34.4897L24.916 33.1797L25.2363 32.4897L25.6162 31.8696C26.1362 31.04 26.6162 30.1899 27.1763 29.3799C27.7363 28.5698 28.436 27.8696 29.0762 27.1196C29.6323 26.4585 30.2446 25.8462 30.9062 25.29C31.4126 24.8306 31.9468 24.4028 32.5063 24.0098C32.9331 23.7969 33.3779 23.6226 33.8359 23.4897C34.4131 23.2749 35.0425 23.2466 35.6362 23.4097C35.8555 23.4468 36.0698 23.5068 36.2764 23.5898C36.5464 23.73 36.4863 24.0898 36.2061 24.5898C35.8081 25.3525 35.3286 26.0703 34.7764 26.73C30.7681 31.668 27.8081 37.3706 26.0762 43.4897C24.7964 48.083 24.5063 52.896 25.2261 57.6099L25.0962 57.6699Z" fill-rule="evenodd" fill="currentColor"/>
	<path d="M47.0962 41.02C46.8296 44.7393 47.687 48.4531 49.5562 51.6797C50.2876 52.8291 51.1504 53.8896 52.1265 54.8398C53.8188 56.6396 55.7949 58.1499 57.9766 59.3101C60.2476 60.5083 62.6948 61.3384 65.2266 61.77C67.5137 62.1348 69.8428 62.1548 72.1362 61.8301C75.1362 61.4697 77.9565 60.75 80.9263 60.1001C81.8662 59.9097 82.0464 60.6001 81.5664 61.6396C80.8486 63.0942 79.6206 64.2334 78.1162 64.8398C77.3164 65.1499 76.5063 65.4399 75.6763 65.6699C74.8545 65.9316 74.0156 66.1387 73.1665 66.29C72.3164 66.4297 71.4463 66.4897 70.5864 66.5698C69.7266 66.6499 68.8462 66.6499 67.9766 66.5698C64.4639 66.4961 61.002 65.7173 57.7964 64.2798C55.8467 63.4106 53.9585 62.4082 52.1465 61.2798C50.3101 60.0996 48.6616 58.6504 47.2563 56.98C44.2197 53.2935 42.4185 48.7456 42.1064 43.98C41.9253 41.144 42.1611 38.2974 42.8062 35.5298C43.2612 33.417 44.0229 31.3823 45.0664 29.4897C46.1309 27.6274 47.4097 25.8955 48.8765 24.3301C49.4062 23.6899 50.0161 23.1499 50.5864 22.54C51.1562 21.9297 51.7661 21.3999 52.4062 20.8999C53.6538 19.8203 54.9922 18.8501 56.4062 18C57.0425 17.6279 57.7119 17.3164 58.4062 17.0698C58.9443 16.8652 59.5 16.7114 60.0664 16.6099C60.4712 16.5527 60.8818 16.5527 61.2861 16.6099C61.8804 16.7114 62.4209 17.0151 62.8164 17.4697C63.0005 17.647 63.1709 17.8374 63.3262 18.04C63.7363 18.6899 62.8965 19.6099 61.5264 20.8301C60.9766 21.1597 60.4565 21.5801 59.9365 21.9497C59.6763 22.1396 59.4263 22.3501 59.1763 22.5498C58.9263 22.75 58.6362 22.8701 58.3862 23.0601C57.3364 23.75 56.3164 24.4697 55.3862 25.25C53.4414 26.7432 51.7524 28.5435 50.3862 30.5801C49.4136 32.0757 48.6748 33.7109 48.1963 35.4297C47.6982 37.2554 47.4033 39.1299 47.3164 41.02L47.0962 41.02Z" fill-rule="evenodd" fill="currentColor"/>
	<path d="M23.9263 48.9102C23.5986 50.6357 23.4048 52.3843 23.3462 54.1401C23.3022 55.8848 23.3994 57.6309 23.6362 59.3599C24.1958 62.8271 25.3784 66.1641 27.126 69.21C27.4082 69.7803 27.7427 70.3228 28.126 70.8301L29.2861 72.3799C30.1763 73.3101 30.9761 74.3799 31.9463 75.1899C33.6001 76.8037 35.4355 78.2197 37.416 79.4102C39.4531 80.5942 41.6079 81.563 43.8462 82.2998C48.4341 83.8013 53.2734 84.3828 58.0859 84.0098C59.166 83.9517 60.2412 83.8281 61.3062 83.6401C62.3721 83.4863 63.4277 83.2661 64.4663 82.98C66.5376 82.4272 68.5479 81.667 70.4663 80.71C75.396 78.2798 79.626 74.54 84.0562 70.9702C85.4463 69.8501 85.7964 70.5498 85.2563 72.1699C84.3032 74.6851 82.7559 76.9326 80.7461 78.7202C78.4492 80.8032 75.9424 82.6431 73.2661 84.21C70.5161 85.8022 67.5479 86.9849 64.4561 87.7202L63.2964 87.9902L62.1362 88.2002C61.3662 88.3198 60.5962 88.48 59.8164 88.5801C58.2593 88.7651 56.6938 88.8652 55.126 88.8799C53.5537 88.9067 51.9814 88.8433 50.416 88.6899C49.6362 88.6099 48.856 88.4702 48.0762 88.3599L46.916 88.1699L45.7661 87.8999C42.0132 87.0645 38.374 85.7817 34.9263 84.0801C31.4346 82.2974 28.2891 79.9062 25.6362 77.02C22.7217 73.8198 20.4565 70.084 18.9663 66.02C18.2393 63.9937 17.7168 61.8999 17.4062 59.77C17.082 57.6631 16.9512 55.5308 17.0161 53.3999C17.2002 48.2236 18.3252 43.1235 20.3359 38.3501C23.2236 31.0327 28.2222 24.7393 34.6963 20.27C37.2295 18.5874 39.9517 17.208 42.8062 16.1602C45.666 15.1836 48.6289 14.5396 51.6362 14.2402C52.9663 14.0801 54.2563 14.04 55.6362 14C60.5762 14.1699 62.0361 15 62.7563 16.8799C62.9487 17.2871 63.0996 17.7124 63.2061 18.1499C63.3062 18.8398 62.8359 19.3901 61.9463 19.77C61.4272 19.981 60.8823 20.1221 60.3262 20.1899C59.686 20.2798 58.9663 20.3198 58.1562 20.3901C53.4839 20.4697 48.8535 21.2866 44.436 22.8101C42.3394 23.6035 40.3291 24.6089 38.436 25.8101C36.5444 27.0474 34.812 28.5117 33.2764 30.1699C30.9014 32.7515 28.9258 35.6738 27.416 38.8398C26.6221 40.4526 25.9536 42.1245 25.416 43.8398C24.8525 45.5239 24.4214 47.249 24.126 49L23.9263 48.9102Z" fill-rule="evenodd" fill="currentColor"/>
	<defs/>
</svg>
