<svg width="24" height="24" viewBox="0 0 110 110" fill="none" xmlns="http://www.w3.org/2000/svg" xmlns:xlink="http://www.w3.org/1999/xlink">
	<path d="M70.9644 36.5493L56.6045 48.229C54.2246 50.229 51.8647 52.1294 49.5444 54.1094C48.3848 55.1094 47.2344 56.1094 46.1045 57.1094L45.5947 57.5493L45.1748 57.9194C44.9644 58.1069 44.7764 58.3184 44.6147 58.5493C44.5444 58.6592 44.4644 58.8091 44.5444 58.9194C44.6245 59.0293 44.8047 58.9795 44.9248 58.9893C45.4844 58.9893 45.9946 58.8994 46.5347 58.8994L54.1548 58.2793C56.8047 58.0791 59.4746 57.8594 62.1548 57.7593C63.4946 57.7593 64.8447 57.6992 66.1548 57.6895L68.1548 57.6895L69.1548 57.6895C69.6323 57.688 70.1094 57.7114 70.5845 57.7593L71.3745 57.8491C71.6245 57.8491 71.8447 57.979 72.0845 58.0391C72.5566 58.1572 73.0386 58.231 73.5244 58.2593C74.4268 58.3608 75.3218 58.5181 76.2046 58.729C76.9458 58.9082 77.6562 59.1948 78.3145 59.5791C78.9268 59.9243 79.437 60.4243 79.7944 61.0293C79.7944 61.1094 79.8647 61.2095 79.9048 61.2993C79.9448 61.3892 79.9048 61.499 79.9048 61.5894C79.9297 61.7651 79.9297 61.9434 79.9048 62.1191C79.8438 62.416 79.7393 62.7026 79.5947 62.9692C79.293 63.5532 78.9014 64.0864 78.4346 64.5493C77.0459 65.8262 75.4839 66.8999 73.7944 67.7393L72.4346 68.479L71.3647 69.0391L69.5947 69.9395L66.2446 71.769C63.1348 73.3691 60.0747 75.019 57.0747 76.8091C56.3345 77.2593 55.6045 77.7192 54.8945 78.1895L53.8945 78.9092L53.4248 79.2393L53.1445 79.4492C52.481 79.9082 51.9141 80.4927 51.4746 81.1694C51.4199 81.2769 51.3794 81.3911 51.3545 81.5093C51.3545 81.6494 51.4644 81.749 51.5845 81.7891C51.8359 81.856 52.0947 81.8926 52.3545 81.8994C52.8848 81.8994 53.3545 81.8994 53.8647 81.8994L54.9448 81.8994L56.6245 81.8994C57.7544 81.8994 58.8945 81.8994 60.0444 81.8994C62.3882 81.8877 64.7285 82.0615 67.0444 82.4194C69.5308 82.6992 71.8994 83.6265 73.9146 85.1094C75.2046 86.1992 75.3345 87.1094 75.0347 87.2192C74.7344 87.3291 73.9346 87.0293 72.7744 86.8394C70.4346 86.4194 66.5947 86.749 61.6245 86.749C59.5547 86.749 57.4546 86.8193 55.2944 86.8994L52.8745 86.9795C51.7944 86.9795 50.6948 86.9795 49.6748 86.9795C48.771 86.9531 47.8784 86.7739 47.0347 86.4492C46.4443 86.2095 45.9199 85.8325 45.5044 85.3491C45.3018 85.1157 45.1304 84.8569 44.9946 84.5791C44.8442 84.2612 44.7368 83.9253 44.6748 83.5791C44.561 82.9043 44.6411 82.2109 44.9048 81.5791C45.5557 79.8594 46.6489 78.3413 48.0747 77.1792C48.8545 76.499 49.7544 75.8394 50.5244 75.2891L51.2944 74.7593L52.0244 74.2891C53.0244 73.6792 53.9546 73.0991 54.9146 72.5391C58.7446 70.3691 62.6646 68.3691 66.5347 66.4595C67.5347 65.9795 68.4448 65.4595 69.3945 64.979C70.0547 64.6294 69.8545 64.749 69.9946 64.6895L70.2446 64.5991C70.4146 64.5293 70.6147 64.4492 70.8447 64.3291C70.9663 64.272 71.0835 64.2051 71.1948 64.1294C71.3047 64.0493 71.4346 63.9292 71.4048 63.8091C71.3164 63.6377 71.1606 63.5107 70.9746 63.4595C70.6533 63.3398 70.3164 63.2656 69.9746 63.2393L69.6846 63.2393L68.8848 63.2393L66.8848 63.3091C64.1548 63.4492 61.3745 63.7095 58.5747 63.8994C55.7744 64.0894 52.9546 64.3892 50.1245 64.6494L44.9946 65.0991C43.8623 65.2236 42.7222 65.2603 41.5845 65.2095C40.5801 65.2607 39.5732 65.1938 38.5845 65.0093C37.8384 64.8516 37.1289 64.5527 36.4946 64.1294C36.355 64.0347 36.2246 63.9277 36.1045 63.8091C36.0186 63.7417 35.9526 63.6519 35.9146 63.5493C35.9067 63.5264 35.9067 63.502 35.9146 63.479C35.9146 63.479 36.0547 63.3994 35.9844 63.479L35.8745 63.3394C35.7021 62.9609 35.6362 62.5425 35.6846 62.1294C35.7695 61.3408 36.0073 60.5767 36.3848 59.8794C36.9009 58.9277 37.5469 58.0527 38.3047 57.2793C39.1245 56.3794 40.0547 55.499 40.9644 54.6294L42.3247 53.3491L43.2046 52.5591C44.3911 51.4326 45.5781 50.3691 46.7646 49.3691C51.5244 45.3091 56.3447 41.3691 61.1348 37.4395C64.0845 35.019 67.0347 32.5894 69.9448 30.1392C71.3647 28.8994 72.8013 27.6426 74.2544 26.3691L75.4248 25.3691C75.7847 25.0391 76.1548 24.6992 76.5146 24.3691L77.2344 23.6494C77.4644 23.3794 77.7246 23.0991 77.9346 22.7993C78.0439 22.6436 78.1348 22.4761 78.2046 22.2993C78.2847 22.0894 78.0347 21.999 77.8848 21.9595C77.1816 21.8594 76.4678 21.8594 75.7646 21.9595C75.0444 22.0293 74.3145 22.1392 73.5845 22.2793L72.3848 22.5093L70.3848 22.9395C65.1377 24.1719 59.9688 25.7144 54.9048 27.5591C46.7393 30.5781 38.8945 34.3999 31.4844 38.9692C29.8647 39.9692 28.3345 41.0293 26.7246 42.0493L22.9746 44.4492C22.499 44.7446 22.0083 45.0151 21.5044 45.2593C21.0967 45.4839 20.6763 45.6841 20.2446 45.8594C19.0977 46.3643 17.8667 46.6528 16.6147 46.7095C16.1831 46.7563 15.7485 46.7764 15.3145 46.769C14.7744 46.6792 14.9546 46.0293 15.6646 44.769C16.7559 42.9292 18.1216 41.2666 19.7144 39.8394C21.2744 38.519 22.9048 37.249 24.5747 36.0391C26.2446 34.8291 27.9946 33.7095 29.7744 32.6191C33.3667 30.4526 37.0718 28.48 40.8745 26.7095C48.6118 23.1064 56.6406 20.1655 64.8745 17.9194C66.5747 17.4595 68.2847 17.0293 70.0244 16.6294L71.3545 16.3291C72.1948 16.1694 73.0347 15.979 73.8647 15.8291C75.5347 15.5093 77.1846 15.269 78.7646 15.1094C80.1416 14.9404 81.5352 14.9673 82.9048 15.1895C83.8203 15.3672 84.6768 15.7734 85.3945 16.3691C85.7026 16.6357 85.978 16.938 86.2148 17.269C86.3613 17.4927 86.4917 17.7266 86.6045 17.9692C87.0332 18.8774 87.1289 19.9077 86.8745 20.8794C86.6558 21.7812 86.2544 22.6289 85.6948 23.3691C84.9375 24.4019 84.0947 25.3687 83.1748 26.2593C82.1748 27.2593 81.1748 28.1992 80.0947 29.1494L78.4346 30.479C78.4346 30.479 78.3345 30.479 78.3247 30.479L78.2544 30.5391L78.1548 30.6294L77.9546 30.8091L77.5547 31.1592C75.4146 33.0391 73.2646 34.8594 71.1147 36.6694L70.9644 36.5493Z" fill-rule="evenodd" fill="currentColor"/>
	<defs/>
</svg>
