<svg width="24" height="24" viewBox="0 0 110 110" fill="none" xmlns="http://www.w3.org/2000/svg" xmlns:xlink="http://www.w3.org/1999/xlink">
	<path d="M66.041 68.6653C62.5942 72.5261 58.541 75.7991 54.041 78.3552C53.2109 78.7954 52.4009 79.2754 51.5908 79.7354C50.7661 80.1953 49.9146 80.606 49.041 80.9653C45.9873 82.113 42.8242 82.9441 39.6011 83.4453C36.4395 83.9705 33.2339 84.1782 30.0308 84.0654C27.2114 84.0088 24.3984 83.7651 21.6108 83.3354C19.8228 83.0833 18.0615 82.6648 16.3511 82.0854C14.6577 81.4463 13.0435 80.6143 11.541 79.6052C10.6108 78.9753 10.9512 78.6853 12.021 78.5354C12.707 78.4443 13.3984 78.3977 14.0908 78.3953C14.9883 78.2961 15.8936 78.2961 16.791 78.3953C17.2212 78.3953 17.6411 78.4553 18.0508 78.5154C18.4609 78.5754 18.8608 78.6853 19.2808 78.7354C20.1108 78.8254 20.9209 78.9553 21.751 79.0354C22.5811 79.1152 23.4009 79.1653 24.231 79.2053C25.061 79.2454 25.8911 79.2654 26.7212 79.2053C28.3809 79.2053 30.041 79.1353 31.7212 79.0154C33.4009 78.8953 35.0708 78.8853 36.7212 78.7253C38.7646 78.5193 40.7773 78.0796 42.7212 77.4153C44.6509 76.7349 46.5352 75.9297 48.3608 75.0054C52.396 72.9395 56.0542 70.2078 59.1812 66.9253C60.1543 65.9092 61.0752 64.8445 61.9409 63.7354C62.3711 63.1753 62.8311 62.6353 63.231 62.0554L64.4409 60.3354C66.79 56.7498 68.5557 52.8142 69.6709 48.6753C70.4019 45.5034 70.7012 42.2473 70.561 38.9954C70.6211 38.2954 70.4712 37.6052 70.4907 36.8953C70.5107 36.1853 70.5508 35.6953 70.5908 35.2454C70.6567 34.8354 70.792 34.4399 70.9907 34.0754C71.3125 33.4722 71.8022 32.9753 72.4009 32.6453C72.6655 32.4651 72.9395 32.2981 73.2212 32.1453C73.6709 31.9453 74.1108 32.1453 74.6011 32.5854C75.2593 33.2693 75.7847 34.0696 76.1509 34.9453C76.3711 35.7554 76.521 36.5754 76.7012 37.4153L76.9409 38.6853L77.0708 39.9653C77.1709 40.825 77.2109 41.6902 77.1909 42.5554C77.1909 43.4153 77.1011 44.2854 77.0308 45.1653C76.9609 46.0454 76.8008 46.8953 76.6812 47.7754C76.541 48.6375 76.3574 49.4919 76.1309 50.3354C75.9312 51.1953 75.6411 52.0354 75.3911 52.8853C75.1411 53.7354 74.751 54.5354 74.3911 55.3652C72.3735 60.2339 69.5996 64.7532 66.1709 68.7554L66.041 68.6653Z" fill-rule="evenodd" fill="currentColor"/>
	<path d="M76.1313 25.0554C75.4863 24.45 74.7188 23.9897 73.8813 23.7053C73.2158 23.5081 72.5005 23.5725 71.8813 23.8855C71.2656 24.2844 70.7129 24.7732 70.2412 25.3354C69.0913 26.4421 68.1016 27.7043 67.3013 29.0854C66.3613 30.5754 65.4814 32.1455 64.6611 33.7354C63.9639 35.1624 63.376 36.6399 62.9014 38.1555L61.9912 41.0154C61.7051 41.906 61.3711 42.7805 60.9912 43.6355C60.8013 43.9453 59.9014 44.2153 58.9912 43.5154C57.9697 42.6973 57.4136 41.4312 57.501 40.1255C57.668 39.0239 57.895 37.9321 58.1812 36.8555C58.501 35.8088 58.8613 34.7788 59.2612 33.7654C60.0552 31.7241 61.0396 29.7622 62.2012 27.9055C62.9014 26.7854 63.521 25.5854 64.2012 24.3354C64.5586 23.6462 64.9561 22.9785 65.3911 22.3354C65.6187 22.0139 65.8657 21.7065 66.1313 21.4155C66.3892 21.1077 66.6733 20.8232 66.9814 20.5654C68.3994 19.2446 70.1777 18.3745 72.0913 18.0654C74.0059 17.8333 75.9443 18.2224 77.6211 19.1753C79.3608 20.1694 80.9194 21.4509 82.2314 22.9653C84.0449 25.0894 85.6929 27.3494 87.1611 29.7253C88.3213 31.4954 89.6812 33.1155 90.8311 34.9155C91.0957 35.3049 91.3267 35.7166 91.521 36.1455C92.2012 37.7654 92.001 38.4854 90.811 39.3154C90.5522 39.5146 90.2817 39.6982 90.001 39.8655C89.0029 40.3342 87.813 40.0522 87.1313 39.1853C86.4868 38.5598 85.8857 37.8918 85.3311 37.1853C84.8013 36.4753 84.3311 35.7454 83.791 35.0154C82.791 33.5554 81.8413 32.0154 80.8413 30.6355C79.5273 28.6152 77.9312 26.7935 76.1011 25.2253L76.1313 25.0554Z" fill-rule="evenodd" fill="currentColor"/>
	<defs/>
</svg>
