<svg width="24" height="24" viewBox="0 0 110 110" fill="none" xmlns="http://www.w3.org/2000/svg" xmlns:xlink="http://www.w3.org/1999/xlink">
	<path d="M63.8345 19.4502C61.3716 18.2275 58.7441 17.3687 56.0347 16.8999C55.0347 16.7598 54.0347 16.7598 53.0347 16.71C49.3979 16.4336 45.7427 16.8721 42.2744 18C40.7266 18.5518 39.2441 19.2725 37.8545 20.1499C37.4243 20.4399 36.9746 20.71 36.5244 20.98L35.2144 21.8701C34.3145 22.4199 33.4443 23.0298 32.4644 23.5098C31.8545 23.7998 31.3945 23.1602 31.3247 22.1499C31.2168 20.9131 31.6592 19.6909 32.5347 18.8101C33.4233 18.0068 34.3652 17.2651 35.3545 16.5898C36.3804 15.9561 37.4424 15.3818 38.5347 14.8701C40.7642 13.8828 43.1201 13.2095 45.5347 12.8701C48.4336 12.3232 51.3745 12.0322 54.3247 12C57.5596 12.1475 60.7563 12.7642 63.8145 13.8301C65.6777 14.4917 67.4834 15.3047 69.2144 16.2598C71.7852 17.7354 74.1948 19.4751 76.4043 21.4502C78.2378 22.9414 79.9136 24.6167 81.4043 26.4502C81.7798 26.8604 82.1147 27.3057 82.4043 27.7798C82.5972 28.1753 82.7319 28.5962 82.8047 29.0298C82.8364 29.3682 82.7959 29.709 82.6846 30.0298C82.4863 30.5317 82.1279 30.9536 81.6646 31.23C81.4521 31.3848 81.2319 31.5283 81.0044 31.6602C80.2646 31.9902 79.3247 31.4902 78.1943 30.8301C77.9243 30.52 77.5044 30.27 77.2744 29.9502C77.0444 29.6299 76.7046 29.3398 76.4546 29.0298L75.5947 28.1201L74.7046 27.2202C73.4683 25.9756 72.1523 24.813 70.7646 23.7402C68.6333 22.083 66.3101 20.6895 63.8447 19.5898L63.8345 19.4502Z" fill-rule="evenodd" fill="currentColor"/>
	<path d="M88.6641 31.0298C88.4512 32.4468 87.8291 33.771 86.874 34.8398C86.3423 35.4038 85.7163 35.8706 85.0239 36.2197C84.3916 36.5283 83.7183 36.7437 83.0239 36.8599C82.1792 37.0322 81.3154 37.0962 80.4541 37.0498C79.1274 36.9009 77.8203 36.6128 76.5542 36.1899C75.3242 35.8096 74.1343 35.3799 72.9741 34.8999C71.814 34.4199 70.894 34.1196 69.874 33.6899C68.4932 33.252 67.2266 32.5146 66.1641 31.5298C65.834 31.1899 66.2739 30.7197 66.9243 30.3799C67.5718 29.9785 68.353 29.8525 69.0942 30.0298C71.4639 30.9697 73.9941 31.6597 76.4839 32.5195C77.9736 32.9321 79.5264 33.064 81.064 32.9097C81.6982 32.8989 82.3213 32.7412 82.8843 32.4497C83.1006 32.3281 83.2935 32.1689 83.4541 31.9795C83.6333 31.75 83.7876 31.502 83.9141 31.2397C84.2773 30.3525 84.4478 29.3979 84.4141 28.4399C84.3921 26.7705 84.1602 25.1108 83.7241 23.4995C83.4341 22.2095 82.8042 21.0396 82.4839 19.7495C82.4141 19.4595 82.3242 19.1797 82.2842 18.8896C82.1143 17.7798 82.2339 17.3599 82.644 16.9697C82.729 16.8779 82.8193 16.791 82.9141 16.7095C83.2241 16.4995 83.6943 16.8096 84.2842 17.4595L85.5942 18.9497C85.999 19.4736 86.3574 20.0327 86.6641 20.6196C87.4077 21.7593 87.9521 23.0176 88.2739 24.3398C88.8608 26.522 89.0239 28.7964 88.7539 31.0396L88.6641 31.0298Z" fill-rule="evenodd" fill="currentColor"/>
	<path d="M22.3442 53.98C22.3091 56.7031 22.7524 59.4106 23.6543 61.98C24.0474 62.8945 24.4912 63.7856 24.9844 64.6499C25.7808 66.2539 26.7646 67.7573 27.9146 69.1299C28.4966 69.8276 29.1143 70.4951 29.7642 71.1299C30.4541 71.7402 31.1245 72.3799 31.8745 72.9199C33.2021 73.9121 34.6465 74.7383 36.1743 75.3799C36.6646 75.5801 37.1743 75.8101 37.6245 76.02C38.0742 76.23 38.6245 76.4001 39.1143 76.6101C40.1147 77.0098 41.0933 77.4639 42.0444 77.97C42.6343 78.3201 42.3545 79.05 41.5542 79.6702C40.5825 80.45 39.3193 80.7676 38.0942 80.54C36.9272 80.2554 35.7812 79.8911 34.6646 79.4502C33.5488 78.9656 32.4663 78.4077 31.4243 77.78C29.3105 76.5088 27.3994 74.9277 25.7544 73.0898C23.6616 70.9214 21.8169 68.5269 20.2544 65.9502C18.729 63.0098 17.7305 59.8252 17.3042 56.54C17.0698 54.5488 17.0195 52.5405 17.1543 50.54C17.3896 47.5449 17.9634 44.5859 18.8643 41.7202C19.4438 39.4385 20.2163 37.2104 21.1743 35.0601C21.3892 34.5645 21.6362 34.083 21.9146 33.6201C22.1763 33.2778 22.4819 32.9717 22.8242 32.71C23.104 32.5322 23.417 32.4131 23.7441 32.3599C24.3071 32.2778 24.8809 32.3872 25.3745 32.6699C25.6167 32.772 25.8506 32.8921 26.0742 33.0303C26.7344 33.5 26.7744 34.5703 26.6743 35.9302L26.4844 36.5801C26.4463 36.7983 26.3789 37.0103 26.2842 37.21C26.1045 37.5898 25.9644 38 25.7944 38.3999C25.4741 39.2002 25.1743 40.0103 24.8745 40.8398C24.2593 42.5112 23.7451 44.2173 23.3345 45.9502C22.6919 48.5664 22.4058 51.2573 22.4844 53.9502L22.3442 53.98Z" fill-rule="evenodd" fill="currentColor"/>
	<path d="M22.8345 26.8101C24.2822 26.228 25.873 26.1025 27.394 26.4497C28.9404 26.8887 30.2847 27.8545 31.1943 29.1797C31.7349 29.9146 32.1943 30.7061 32.5645 31.54C33.0703 32.9062 33.439 34.3203 33.6641 35.7598C33.9043 37.1401 34.0845 38.5098 34.1841 39.8799C34.2842 41.0898 34.4243 42.2998 34.4844 43.5098C34.6973 45.125 34.4761 46.7681 33.8442 48.27C33.5942 48.75 33.0342 48.4199 32.5244 47.8701C31.9453 47.3467 31.564 46.6406 31.4443 45.8701C31.2783 43.0625 30.9443 40.2676 30.4443 37.5C30.1138 35.8242 29.4761 34.2241 28.5645 32.7798C28.2441 32.1353 27.7827 31.5713 27.2144 31.1299C26.7114 30.8037 26.1069 30.6719 25.5142 30.7598C24.4653 30.9062 23.4595 31.2744 22.5645 31.8398C20.9902 32.7886 19.5332 33.9194 18.2241 35.21C17.144 36.21 16.3545 37.4097 15.2744 38.4097C15.0342 38.6299 14.8145 38.8599 14.5542 39.0601C13.5542 39.8198 13.1045 39.9297 12.5542 39.75C12.4297 39.7202 12.3091 39.6768 12.1943 39.6201C11.8745 39.4399 11.9741 38.8701 12.3145 38L13.0942 36C13.3823 35.3501 13.7163 34.7217 14.0942 34.1201C14.8145 32.8394 15.7207 31.6733 16.7842 30.6597C18.522 28.9697 20.5557 27.6138 22.7842 26.6597L22.8345 26.8101Z" fill-rule="evenodd" fill="currentColor"/>
	<path d="M73.2344 72.8203C75.7588 71.4028 77.9941 69.5234 79.8242 67.2803C80.4517 66.415 81.0322 65.5171 81.564 64.5903C83.6455 61.2939 84.9736 57.5791 85.4541 53.7104C85.5591 52.8345 85.6094 51.9526 85.604 51.0703C85.604 50.1904 85.5142 49.3105 85.4341 48.4404C85.1743 46.1904 84.7241 43.9902 84.584 41.6602C84.584 40.9302 85.3442 40.8003 86.2939 41.2002C86.8442 41.4404 87.3462 41.7793 87.7739 42.2002C88.2891 42.6646 88.6631 43.2637 88.854 43.9302C89.0239 44.5503 89.2041 45.1602 89.354 45.7803C89.5039 46.4004 89.6143 47.0405 89.7041 47.6802C89.7939 48.3203 89.814 48.9604 89.854 49.6001C89.8892 50.2466 89.8892 50.894 89.854 51.5405C89.8613 54.147 89.4595 56.7383 88.6641 59.2202C87.8057 62.2871 86.6152 65.2515 85.1143 68.0605C83.2729 71.0576 80.9009 73.6943 78.1143 75.8403C76.4121 77.1455 74.5669 78.2527 72.6143 79.1404C71.1475 79.8196 69.6294 80.3813 68.0742 80.8203C66.5239 81.2417 64.9517 81.5757 63.3643 81.8203C60.9004 82.2708 58.3989 82.4851 55.894 82.4604C55.3325 82.4673 54.771 82.4338 54.2144 82.3604C53.7812 82.2542 53.3594 82.1067 52.9541 81.9204C52.1475 81.4263 51.6582 80.5461 51.6641 79.6003C51.6445 79.334 51.6445 79.0667 51.6641 78.8003C51.7524 78.3689 52.0322 78.001 52.4243 77.8003C52.9634 77.4624 53.5498 77.2063 54.1641 77.0403C55.1113 76.9075 56.0674 76.8474 57.0239 76.8604C57.9541 76.8604 58.8843 76.8003 59.8042 76.7202C61.6694 76.6025 63.522 76.335 65.3442 75.9204C66.7046 75.5928 68.0415 75.1714 69.3442 74.6602C70.6567 74.1221 71.9214 73.4731 73.124 72.7202L73.2344 72.8203Z" fill-rule="evenodd" fill="currentColor"/>
	<path d="M49.3242 86.9602C48.3701 86.3853 47.5098 85.6667 46.7739 84.8301C45.9019 83.8694 45.2803 82.7085 44.9639 81.4502C44.7178 80.4653 44.7178 79.4351 44.9639 78.4502C45.4062 77.0872 46.1675 75.8496 47.1841 74.8403C48.0244 73.9551 48.9155 73.1201 49.854 72.3403L52.2139 70.3403C53.1577 69.3882 54.2788 68.6304 55.5142 68.1104C55.9243 67.9702 56.2041 68.54 56.2739 69.2603C56.4067 70.0005 56.2139 70.7622 55.7441 71.3501C53.9341 73.04 52.2139 74.8003 50.4941 76.4702C49.9995 76.9536 49.6025 77.5271 49.3242 78.1602C49.1099 78.6362 48.9878 79.1487 48.9639 79.6702C48.9429 80.1553 49.0835 80.6338 49.3643 81.03C49.75 81.5637 50.208 82.0415 50.7241 82.4502C51.4937 83.0801 52.332 83.6204 53.2241 84.0601C54.6504 84.7742 56.1357 85.3633 57.6641 85.8201C58.854 86.2402 60.1143 86.3101 61.314 86.7302C61.584 86.8301 61.8442 86.9102 62.104 87.03C63.104 87.5002 63.3442 87.8501 63.4043 88.4001C63.4043 88.53 63.4043 88.6602 63.4043 88.77C63.4043 89.1401 62.8843 89.3401 62.084 89.4802L60.2539 89.78C59.6401 89.8533 59.0215 89.8767 58.4043 89.8501C57.1465 89.8848 55.8916 89.7229 54.6841 89.3701C52.7808 88.8137 50.9487 88.0386 49.2241 87.0601L49.3242 86.9602Z" fill-rule="evenodd" fill="currentColor"/>
	<defs/>
</svg>
