<svg width="24" height="24" viewBox="0 0 110 110" fill="none" xmlns="http://www.w3.org/2000/svg" xmlns:xlink="http://www.w3.org/1999/xlink">
	<path d="M47.2554 56.6343C48.3154 56.1841 49.3853 55.7341 50.4053 55.2141C50.7852 55.0342 51.0752 54.7241 51.4053 54.5442L53.4053 53.6042C54.0854 53.2942 54.7954 53.0242 55.4053 52.6741C55.9717 52.3633 56.4937 51.9763 56.9551 51.5242C57.4858 50.9216 58.1812 50.4871 58.9551 50.2742C59.2251 50.2742 59.8154 50.6541 60.2852 51.3442C60.7939 51.9949 61.0049 52.8301 60.8652 53.6443C60.7451 53.8943 60.625 54.1143 60.5054 54.3342L60.3252 54.6741L60.0752 54.9341C59.7607 55.2671 59.4272 55.5811 59.0752 55.8743C58.3623 56.4526 57.5625 56.915 56.7051 57.2441C55.7339 57.7117 54.8208 58.2925 53.9854 58.9741C52.9854 59.5842 51.8652 60.1343 50.7954 60.6841L48.7954 61.6841C47.7954 62.2141 46.7954 62.6841 45.8555 63.2842C45.1934 63.8643 44.5688 64.4856 43.9854 65.1443C43.8398 65.2783 43.6826 65.3987 43.5151 65.5042C43.3799 65.5776 43.229 65.6187 43.0752 65.6243C42.9053 65.5869 42.7471 65.5078 42.6152 65.3943C42.2627 65.115 41.9614 64.7766 41.7251 64.3943C41.5854 64.1741 41.4351 63.9641 41.3154 63.7642C41.1006 63.4031 40.9644 63.0012 40.915 62.5842C40.8452 62.1704 40.8452 61.7478 40.915 61.3342C41.0889 60.9314 41.2896 60.5405 41.5151 60.1641C41.7534 59.8677 42.0215 59.5962 42.3154 59.3542C42.8936 58.8755 43.5161 58.4534 44.1753 58.0942C45.1753 57.5242 46.1753 57.0942 47.1753 56.5142L47.2554 56.6343Z" fill-rule="evenodd" fill="currentColor"/>
	<path d="M55.2153 51.3743C54.4653 50.7542 53.6953 50.1343 52.9053 49.5542C52.6152 49.3442 52.2754 49.2341 51.9854 49.0042C50.9854 48.2144 49.9854 47.3843 48.9854 46.6042C48.5254 46.2742 48.0654 45.9243 47.585 45.6042C46.9053 45.2954 46.3188 44.8125 45.8853 44.2043C45.7554 43.9841 46.105 43.5342 46.605 43.1243C47.105 42.7144 47.7354 42.3142 48.1152 42.4243C48.7954 42.6001 49.4639 42.8206 50.1152 43.0842C50.7441 43.416 51.3091 43.8562 51.7852 44.3843C52.4912 44.9124 53.269 45.3367 54.0952 45.6443C54.9453 46.1042 55.7852 46.6443 56.6353 47.1243L58.2051 48.1243C58.9878 48.6282 59.7954 49.092 60.625 49.5142C61.2852 49.8342 62.125 49.8442 62.8452 50.1143C63.0151 50.1523 63.1821 50.2024 63.3452 50.2642C63.895 50.5842 63.8652 50.9841 63.165 52.1042C63.0054 52.3542 62.855 52.6143 62.6851 52.8542C62.3086 53.5044 61.7021 53.9897 60.9854 54.2144C59.729 54.3152 58.4834 53.9204 57.5151 53.1143C56.7451 52.6243 56.0054 52.0142 55.2051 51.4741L55.2153 51.3743Z" fill-rule="evenodd" fill="currentColor"/>
	<path d="M44.125 88.394C38.4131 87.7498 32.9468 85.7134 28.2051 82.4641C25.8892 80.8047 23.7983 78.8518 21.9849 76.6541C20.1465 74.4966 18.5781 72.1223 17.3149 69.5842C15.5249 65.9556 14.2749 62.0845 13.605 58.0942C12.3569 51.0422 13.0479 43.7837 15.605 37.094C18.2085 30.4387 22.7339 24.7087 28.605 20.634C33.7739 17.0264 39.7822 14.8054 46.0552 14.1841C50.0522 13.7483 54.0962 14.0879 57.9648 15.1841C58.9302 15.4426 59.8813 15.7495 60.8149 16.104L62.165 16.7441C62.6152 16.9641 63.0352 17.2241 63.4751 17.4641L64.7549 18.2041C65.1753 18.4641 65.5752 18.7542 65.9751 19.0242L67.1851 19.854C67.5752 20.144 67.9551 20.4541 68.335 20.7542C70.2051 22.3042 69.585 22.5642 67.4351 22.354C66.4351 22.2141 64.875 22.114 63.1851 21.9541C62.3252 21.9541 61.4053 21.884 60.4751 21.8042C59.9951 21.8042 59.5352 21.7441 59.0352 21.8042C58.5352 21.864 58.1152 21.5742 57.6353 21.4941C55.9902 21.1196 54.3184 20.8755 52.6353 20.7642L51.3853 20.6941C50.9648 20.6941 50.5449 20.6941 50.125 20.6941C49.2925 20.6492 48.458 20.6492 47.625 20.6941C44.2847 20.7986 40.9868 21.4749 37.875 22.6941C36.3047 23.3035 34.7866 24.0391 33.335 24.894C31.8833 25.7815 30.5054 26.7847 29.2148 27.894C26.5674 30.1255 24.3213 32.7939 22.5752 35.7842C20.4155 39.5208 19.1177 43.6921 18.7749 47.9941C18.478 52.3975 18.8862 56.8198 19.9849 61.0942C20.5723 63.4324 21.4141 65.6992 22.4951 67.854C23.5513 70.0044 24.897 71.9995 26.4951 73.7842C29.752 77.3171 33.8955 79.9138 38.4951 81.3042C44.3042 82.9685 50.4438 83.113 56.3252 81.7241C60.8462 80.6782 65.1802 78.9448 69.1753 76.5842C71.1348 75.4482 72.9683 74.1072 74.645 72.5842C75.4575 71.8359 76.2002 71.0159 76.8652 70.134L77.8652 68.8242C78.1553 68.364 78.4053 67.8242 78.6851 67.394C80.2988 64.4319 81.1802 61.1265 81.2549 57.7542C81.3193 54.4167 80.8013 51.0938 79.7251 47.9341C79.2251 46.5542 78.7251 45.2241 78.085 43.9341C76.9951 41.4341 76.085 39.9341 75.7651 38.604C75.6211 38.032 75.5474 37.4443 75.5449 36.854C75.5732 36.2891 75.6914 35.7319 75.895 35.2041C76.0498 34.675 76.2402 34.1572 76.4648 33.6541C76.8853 32.9141 77.7148 32.8242 78.915 33.394C80.6147 34.2952 82.0513 35.6216 83.085 37.2441C85.2495 40.3357 86.8755 43.7708 87.895 47.4041C88.9053 51.2271 89.21 55.2019 88.7949 59.134C88.0972 65.3501 85.4307 71.1804 81.1851 75.7742L78.9849 77.9041C78.6138 78.2708 78.2124 78.6052 77.7852 78.9041L76.5552 79.8042C75.3848 80.6592 74.1626 81.4407 72.895 82.144C71.645 82.8042 70.415 83.5042 69.125 84.144C66.5474 85.3667 63.8711 86.3701 61.125 87.144C55.606 88.7239 49.8354 89.2332 44.125 88.644L44.125 88.394Z" fill-rule="evenodd" fill="currentColor"/>
	<path d="M62.665 59.2839C61.7949 59.7839 60.9053 60.2839 60.0249 60.7041L59.5449 60.9541L59.1753 61.124L58.4453 61.4739L55.5249 62.814C53.585 63.6873 51.6284 64.5273 49.6553 65.334C48.9351 65.634 48.2251 65.9641 47.5151 66.334L46.2451 66.884C45.645 67.144 45.0049 67.384 44.395 67.594C43.3843 68.0022 42.3311 68.2974 41.2549 68.4739C40.4141 68.6157 39.5508 68.4373 38.835 67.9739C38.3652 67.804 38.2749 67.384 38.0552 66.9739L37.5352 65.7439C37.3184 64.7043 37.2041 63.646 37.1953 62.584C37.1353 60.144 37.1953 59.2339 37.1953 57.7839L37.3853 53.7339C37.4751 51.354 37.3853 48.9641 37.2852 46.624C37.2051 45.114 37.0552 43.624 36.9551 42.124C36.8901 41.3892 36.8701 40.6511 36.895 39.9141L37.0952 37.7339C37.1851 36.9541 37.8652 36.6641 39.0151 37.2839C39.7026 37.6858 40.3262 38.188 40.8652 38.7739C41.1919 39.105 41.4771 39.4744 41.7148 39.874C41.9155 40.2769 42.0503 40.7087 42.1152 41.1541C42.5654 44.2805 42.856 47.428 42.9849 50.584C43.1636 53.6934 43.1167 56.8115 42.8452 59.9141C42.7549 60.6941 42.6851 60.7439 42.6553 61.124C42.6133 61.4368 42.644 61.7549 42.7451 62.054C43.0537 62.0286 43.3555 61.9473 43.6353 61.814L44.7051 61.4041C48.4849 59.824 52.2949 58.084 55.9951 56.2239L56.8452 55.7839L57.2651 55.594L58.1353 55.1741C58.7935 54.8743 59.4146 54.4983 59.9849 54.054C60.0952 53.9739 60.2349 53.7839 60.0649 53.7041L59.7651 53.4341C59.5439 53.2673 59.3335 53.0869 59.1353 52.894L58.2051 52.2439L57.7251 51.9041L57.4648 51.7239L56.9849 51.4341C55.7949 50.6741 54.605 49.9241 53.395 49.2041C52.1851 48.4839 50.6953 47.7639 49.395 46.9641C48.0381 46.187 46.7231 45.3394 45.4551 44.4241C44.8853 44.0039 44.3052 43.594 43.7549 43.114C43.3184 42.7148 42.9355 42.2612 42.6152 41.7639C42.3833 41.387 42.2148 40.9751 42.1152 40.5439C42.0068 39.8357 42.1909 39.1138 42.625 38.5439C42.7954 38.2683 42.9932 38.0105 43.2148 37.7739C43.6353 37.4492 44.1719 37.3152 44.6953 37.4041C45.3853 37.4407 46.0635 37.6035 46.6953 37.884C48.875 38.884 51.2148 40.0239 53.6953 41.134C54.3037 41.4275 54.8916 41.7617 55.4551 42.134L57.2051 43.1941L60.7451 45.4241L62.0049 46.2239C62.605 46.614 63.165 47.0239 63.6953 47.4441L65.3149 48.6941L66.7148 49.9641C67.1528 50.2769 67.498 50.7017 67.7148 51.1941L68.0952 51.824C68.1655 52.0232 68.2222 52.2271 68.2651 52.4341L68.415 53.0239C68.4448 53.2632 68.4448 53.5049 68.415 53.7439C68.2852 54.1641 68.2949 54.5339 68.1553 54.9341C67.9722 55.3481 67.7544 55.7461 67.5049 56.124C67.1519 56.5615 66.7603 56.9663 66.335 57.334C66.0352 57.5139 65.7749 57.7041 65.4551 57.864C65.1387 58.0156 64.8315 58.1858 64.5352 58.374C63.9849 58.7439 63.415 59.094 62.8252 59.4341L62.665 59.2839Z" fill-rule="evenodd" fill="currentColor"/>
	<defs/>
</svg>
