<svg width="24" height="24" viewBox="0 0 110 110" fill="none" xmlns="http://www.w3.org/2000/svg" xmlns:xlink="http://www.w3.org/1999/xlink">
	<path d="M61.4966 75.5254L62.3267 75.0054C62.6064 74.8254 62.8467 74.5955 63.1064 74.3955C63.6392 73.9978 64.1343 73.5525 64.5864 73.0654C64.833 72.8408 65.0576 72.593 65.2563 72.3254C65.4668 72.0654 65.6968 71.8054 65.9165 71.5554C66.1069 71.3049 66.2837 71.0444 66.4468 70.7754C66.6309 70.5188 66.7949 70.248 66.9365 69.9653C67.1167 69.5354 67.2964 69.1055 67.4365 68.6655C67.5229 68.2002 67.6328 67.7395 67.7666 67.2854C68.0962 65.5791 68.0757 63.8237 67.7065 62.1255C67.3135 60.3713 66.5386 58.7256 65.4365 57.3054C64.9341 56.6711 64.3525 56.1033 63.7065 55.6155C63.043 55.1514 62.3242 54.7717 61.5664 54.4854L60.8364 54.2056C60.5835 54.1335 60.3262 54.0767 60.0664 54.0354C59.5552 53.906 59.0327 53.8225 58.5063 53.7854C57.9766 53.7854 57.4468 53.7153 56.9067 53.6755L55.2563 53.7454C54.5664 53.7454 54.5864 53.5354 55.1167 53.1355C55.9771 52.4297 57.0146 51.9731 58.1167 51.8154C60.7588 51.5396 63.4175 52.1479 65.6768 53.5454C67.9897 54.9661 69.7363 57.1477 70.6167 59.7153C71.7705 62.7454 72.0913 66.0293 71.5464 69.2253C71.4761 69.6743 71.355 70.1135 71.1865 70.5354L70.7363 71.8154L70.1064 73.0154C69.9072 73.4155 69.6733 73.7969 69.4067 74.1555C68.9253 74.8677 68.3833 75.5369 67.7866 76.1555L66.9067 77.0955L65.9067 77.9456C64.2983 79.3069 62.4863 80.407 60.5366 81.2056C59.8086 81.5159 59.0601 81.7766 58.2964 81.9854C57.5366 82.2153 56.7466 82.3254 55.9766 82.4954C55.2065 82.6655 54.4067 82.6855 53.6167 82.7056C52.8271 82.7454 52.0361 82.7454 51.2466 82.7056C48.7656 82.6301 46.3179 82.1155 44.0166 81.1855C43.4912 81.0027 42.9878 80.761 42.5166 80.4653C41.8667 80.1277 41.3413 79.5918 41.0166 78.9355C40.8276 78.4038 40.8901 77.8154 41.1865 77.3354C41.3008 77.0452 41.438 76.7642 41.5967 76.4954C42.2666 75.6599 43.4424 75.4314 44.3765 75.9556C45.9692 76.5662 47.5952 77.0869 49.2466 77.5154C50.8901 77.856 52.5723 77.9705 54.2466 77.8555C56.8267 77.6799 59.3193 76.8469 61.4863 75.4355L61.4966 75.5254Z" fill-rule="evenodd" fill="currentColor"/>
	<path d="M33.3062 61.7456C34.0493 65.3416 35.7056 68.6858 38.1162 71.4556C40.6333 74.2625 43.7988 76.4116 47.3364 77.7156C49.9097 78.5757 52.6362 78.8826 55.3364 78.6157C55.9023 78.5791 56.4644 78.4954 57.0161 78.3657L57.8862 78.2356C58.1665 78.1655 58.4463 78.0657 58.7261 77.9856C59.8936 77.6877 61.0264 77.2688 62.1064 76.7356C63.1997 76.1909 64.2495 75.5623 65.2461 74.8557C66.2324 74.1606 67.1592 73.3848 68.0161 72.5356C68.7974 71.6934 69.4692 70.7559 70.0161 69.7456C70.521 68.7544 70.8589 67.6868 71.0161 66.5857C71.3071 64.2898 70.8403 61.9617 69.6865 59.9556C68.5957 58.1304 67.0112 56.6501 65.1162 55.6855C63.145 54.6875 60.9658 54.1699 58.7563 54.1755C55.8457 54.168 52.9844 54.9231 50.4561 56.3657C49.1904 57.115 47.9868 57.9644 46.8564 58.9055C45.6572 59.8472 44.5581 60.9094 43.5762 62.0757C42.3462 63.5657 42.1362 63.2356 42.4561 61.4155C42.7222 60.1562 43.1143 58.9268 43.6265 57.7456C43.981 56.9287 44.4199 56.1511 44.9365 55.4255C45.2393 55.0354 45.5737 54.6709 45.9365 54.3357C46.2729 53.9873 46.6338 53.6631 47.0161 53.3657C50.0244 50.9902 53.6304 49.4917 57.4365 49.0356C61.4326 48.5366 65.4844 49.2988 69.0264 51.2156C70.8862 52.2017 72.521 53.564 73.8262 55.2156C75.1431 56.9009 76.1177 58.8269 76.6963 60.8855C76.9727 61.8972 77.1602 62.9312 77.2563 63.9756L77.3262 65.5657C77.3262 66.0957 77.2661 66.6355 77.2163 67.1655C76.9741 69.2744 76.3145 71.3142 75.2764 73.1655C72.8901 77.2202 69.3828 80.4985 65.1763 82.6057C63.1348 83.6953 60.9551 84.5027 58.6963 85.0056L57.0161 85.3657C56.4463 85.4656 55.8564 85.4756 55.2764 85.5256C54.6963 85.5757 54.1265 85.6255 53.5464 85.6057L51.8262 85.5156C46.8408 85.0835 42.0674 83.3032 38.0161 80.3657C33.9946 77.5593 30.7559 73.7732 28.6064 69.3657C28.2607 68.6943 27.9629 67.9993 27.7163 67.2856C27.4316 66.573 27.1978 65.8411 27.0161 65.0957L26.4561 62.9055C26.3364 62.1555 26.2163 61.4055 26.1162 60.6555C25.8403 57.6707 26.0566 54.6606 26.7563 51.7456C27.8208 47.4641 29.6284 43.4026 32.0962 39.7456C33.2925 37.9548 34.5879 36.2322 35.9761 34.5857C37.3765 32.9756 38.8164 31.3955 40.3564 29.9355C44.9927 25.2209 50.4048 21.3379 56.3564 18.4556C57.6875 17.8074 59.0605 17.2495 60.4663 16.7856C62.3672 16.104 64.3979 15.8613 66.4062 16.0757C66.9785 16.1497 67.5332 16.3223 68.0464 16.5857C68.4712 16.8411 68.8389 17.1814 69.1265 17.5857C69.4194 17.8867 69.6743 18.2227 69.8862 18.5857C70.3462 19.7957 68.3364 20.6956 65.1465 21.9756C60.2427 23.8882 55.644 26.5056 51.4961 29.7456C47.144 32.9419 43.251 36.7205 39.9263 40.9756C37.5244 44.0256 35.6304 47.4426 34.3164 51.0957C33.0645 54.4839 32.7705 58.1514 33.4663 61.6956L33.3062 61.7456Z" fill-rule="evenodd" fill="currentColor"/>
	<defs/>
</svg>
