<svg width="24" height="24" viewBox="0 0 110 110" fill="none" xmlns="http://www.w3.org/2000/svg" xmlns:xlink="http://www.w3.org/1999/xlink">
	<path d="M75.7407 49.2046C74.5952 43.2075 73.0483 37.2944 71.1108 31.5044C70.7603 30.5073 70.3496 29.5322 69.8809 28.5845L69.5605 28.0146L69.4507 27.8345C69.3867 27.7134 69.2798 27.6206 69.1509 27.5742L68.9707 27.5044L68.3105 27.2944C67.8809 27.1543 67.4106 27.0547 66.9507 26.9243C66.0405 26.6743 65.1006 26.4746 64.1606 26.2847C62.2705 25.8945 60.3408 25.5845 58.4009 25.3442C54.5605 24.8345 50.5605 24.6846 46.6206 24.5044C43.1084 24.4351 39.5957 24.6221 36.1108 25.0645C31.6606 25.6045 27.3105 26.5645 22.9209 27.2344C21.5508 27.4346 21.3706 26.3643 22.231 24.9844C23.519 23.0879 25.4766 21.7485 27.7109 21.2344C32.3896 20.1367 37.1533 19.4409 41.9507 19.1543C43.1509 19.0742 44.3408 19.0146 45.5405 19.0044C46.7407 18.9946 47.9409 19.0044 49.1406 19.0044C50.3408 19.0044 51.5405 19.1143 52.731 19.2344C53.9209 19.3545 55.1309 19.4546 56.3306 19.6245C59.1909 19.9946 62.1108 20.3242 65.0708 20.7744C66.5508 20.9844 68.0708 21.2944 69.5405 21.6143L70.7407 21.9346L71.6206 22.1743C71.9009 22.2646 72.1606 22.3945 72.4409 22.5044C73.4502 23.1323 74.2476 24.0483 74.731 25.1343C75.4985 26.6597 76.167 28.2329 76.731 29.8442C77.2905 31.3843 77.7905 32.9146 78.2705 34.4443C79.2705 37.5146 80.0508 40.6045 80.8208 43.7144C81.7607 47.5347 82.5308 51.3945 83.1309 55.3242C83.6479 58.3721 83.8491 61.4653 83.731 64.5547C83.6782 65.4565 83.5063 66.3472 83.2207 67.2046C83.1211 67.4688 83.0044 67.7256 82.8706 67.9746C82.8008 68.1045 82.7007 68.2446 82.6108 68.3843L82.5405 68.4844L82.5405 68.5547L82.5605 68.6846C82.5156 68.896 82.4517 69.1035 82.3706 69.3047C82.311 69.4146 82.2407 69.5186 82.1606 69.6143L81.8608 69.8545C81.4414 70.1406 80.9834 70.3662 80.5005 70.5244C80.0444 70.6914 79.5767 70.8252 79.1006 70.9243L78.4307 71.0942L77.8706 71.2046L76.7607 71.4243C72.2109 72.2144 67.8306 73.0645 63.3809 73.7446C62.3809 73.9043 61.4409 74.0244 60.4507 74.1143C56.7607 74.3843 55.5405 74.1143 54.6309 73.1143C54.4087 72.9082 54.2075 72.6807 54.0308 72.4346C53.5908 71.6543 55.0308 70.7544 57.6309 69.9844L60.5605 69.1343C61.5605 68.8442 62.5605 68.5742 63.5605 68.3745L69.5605 67.0547C71.5605 66.6343 73.5605 66.1943 75.5605 65.7544C76.0405 65.6343 76.501 65.5146 76.981 65.4243L77.1509 65.4243L77.2207 65.4243L77.3706 65.4243L77.5205 65.4243L77.5908 65.4243C77.5908 65.4243 77.6509 65.2744 77.6909 65.1943L77.6909 65.1143C81.1406 67.7144 78.6909 65.8242 79.4106 66.4043L79.2407 66.2744C79.1299 66.1982 79.0127 66.1313 78.8906 66.0742C78.731 65.9746 78.5806 65.8945 78.4209 65.8145L77.6108 65.4844L77.5005 65.4844C77.5005 65.4844 77.5005 65.3945 77.5005 65.3047C77.5425 65.0796 77.5693 64.8525 77.5806 64.6245C77.6162 64.0015 77.6162 63.3774 77.5806 62.7544C77.5205 61.3945 77.3608 59.9346 77.1509 58.4644C76.7407 55.5244 76.1509 52.4644 75.4409 49.5244L75.7407 49.2046Z" fill-rule="evenodd" fill="currentColor"/>
	<path d="M80.9307 47.4746C80.1304 43.3345 79.2104 39.1943 78.1304 35.1245C77.5806 33.1245 77.0005 31.0747 76.3408 29.1245C76.0107 28.1245 75.6504 27.2144 75.2808 26.3843L75.1206 26.0244L75.0405 25.8745C74.9995 25.7666 74.896 25.6953 74.7808 25.6943C74.7808 25.6943 74.7207 25.6943 74.7007 25.6943L74.5605 25.6846L73.8208 25.5244C73.3306 25.4043 72.8208 25.3545 72.2705 25.2646C71.2373 25.0913 70.187 24.9512 69.1206 24.8442C65.3208 24.4243 61.4307 24.3643 57.5605 24.2744C50.7217 24.084 43.8774 24.3345 37.0708 25.0244C35.3706 25.2144 33.6704 25.3843 32.0005 25.6743C31.1606 25.8145 30.3208 25.9243 29.4907 26.0845L27.0005 26.5942C26.1704 26.7446 25.3706 26.9746 24.5605 27.1943C23.7505 27.4146 22.9204 27.5845 22.1504 27.8843L19.7905 28.6846C19.2407 28.9043 18.8804 29.0942 18.4004 29.3145C18.3018 29.3491 18.2075 29.396 18.1206 29.4546C18.1006 29.5435 18.1006 29.6357 18.1206 29.7246C18.1343 29.9058 18.1572 30.0859 18.1904 30.2646L18.2905 30.8745L18.5205 31.9844C18.8306 33.4644 19.1904 34.9844 19.5205 36.4546L21.7905 45.3945C23.7905 53.0244 25.8804 60.6846 26.6807 68.6343C26.8906 71.1343 25.8706 70.8945 24.5908 69.0146C22.6987 66.0254 21.3135 62.7446 20.4907 59.3047C18.5605 51.5547 16.3706 43.8843 14.4004 36.0244L13.6904 33.0244L13.3208 31.2744C13.0986 30.3477 12.9912 29.3975 13.0005 28.4443C13.0239 28.0186 13.1187 27.5991 13.2808 27.2046C13.3359 27.0132 13.4316 26.8359 13.5605 26.6846L14.0903 26.3545L16.2007 25.0244C17.2612 24.3003 18.4287 23.7471 19.6606 23.3843C20.1704 23.1943 20.6606 23.0146 21.2007 22.8545L22.7505 22.4443C23.7505 22.1846 24.8105 21.8843 25.8408 21.7144C26.8706 21.5444 27.9004 21.3047 28.9307 21.1245L32.0605 20.6846C42.0356 19.3545 52.1006 18.8164 62.1606 19.0747C63.3408 19.0747 64.5107 19.1743 65.6904 19.2646C66.8706 19.3545 68.0508 19.4146 69.2407 19.5547C70.4307 19.6943 71.6006 19.7944 72.8008 19.9844C73.3906 20.0747 73.9805 20.1343 74.5908 20.2544L76.8008 20.6846C77.0806 20.7944 77.3706 20.8843 77.6606 20.9844C77.938 21.1191 78.1909 21.2983 78.4106 21.5146C78.8643 21.9487 79.252 22.4473 79.5605 22.9946C79.7104 23.2544 79.8804 23.5747 79.9805 23.7847L80.2607 24.3843C80.4404 24.7744 80.6006 25.1646 80.7607 25.5547C81.3706 27.0942 81.8804 28.6245 82.3604 30.1543C83.3008 33.2046 84.1104 36.2646 84.8604 39.3442C86.4844 45.9434 87.6768 52.6406 88.4307 59.3945C88.7378 62.019 88.8281 64.665 88.7007 67.3047C88.7007 67.6543 88.6406 67.9946 88.6006 68.3545C88.5605 68.7144 88.4604 69.2246 88.3706 69.6543C88.1934 70.5376 87.8174 71.3687 87.2705 72.0845C86.5908 72.6606 85.7485 73.0103 84.8604 73.0845C84.6406 73.0845 84.4106 73.1646 84.1807 73.1846L83.5605 73.2544L82.5605 73.3442C77.4106 73.7046 72.4004 73.9243 67.4106 74.4146C59.7783 75.126 52.2212 76.4878 44.8208 78.4844C43.2007 78.9346 41.6304 79.3745 40.0308 79.8643C37.0308 80.7344 35.1006 81.3745 33.6904 81.7246C32.6738 82.0327 31.6016 82.1108 30.5508 81.9546C30.1758 81.9131 29.8047 81.8428 29.4404 81.7446C29.0005 81.5347 29.2905 81.0146 30.2305 80.2246C31.6772 79.0952 33.2554 78.145 34.9307 77.3945L37.3804 76.2847L39.8804 75.2847C41.5664 74.6113 43.2852 74.0239 45.0308 73.5244C48.5205 72.5244 52.1006 71.6543 55.7104 70.9546C59.3208 70.2544 63.0005 69.7246 66.7104 69.2744C70.4204 68.8242 74.0908 68.5845 77.7104 68.2744L81.7104 67.9746L82.6606 67.8843L83.0708 67.8843L83.0708 67.6646C83.0708 67.4043 83.0908 67.1343 83.1304 66.8545C83.1997 65.6387 83.1997 64.4199 83.1304 63.2046C82.6919 57.9419 81.9072 52.7139 80.7808 47.5547L80.9307 47.4746Z" fill-rule="evenodd" fill="currentColor"/>
	<defs/>
</svg>
