<svg width="24" height="24" viewBox="0 0 110 110" fill="none" xmlns="http://www.w3.org/2000/svg" xmlns:xlink="http://www.w3.org/1999/xlink">
	<path d="M31.0151 72.2156C31.0151 71.9255 32.9253 81.2156 36.2153 75.0457C37.2153 73.1855 33.9253 83.0457 33.9253 83.0457C33.9253 83.0457 30.6851 77.9255 31.0151 72.2156Z" fill-rule="evenodd" fill="currentColor"/>
	<path d="M74.875 37.8655L69.8149 42.5457C69.2051 43.1155 68.6348 43.7256 68.0151 44.2856L61.4048 50.1755C60.4048 51.0356 59.4751 51.9556 58.5151 52.8357C57.917 53.4268 57.2896 53.9875 56.6348 54.5156C56.2949 54.7656 55.9448 54.9956 55.6348 55.2256C55.3247 55.4556 54.875 55.6455 54.5049 55.8555C54.1348 56.0657 54.0049 55.8555 54.2051 55.4355C54.522 54.7349 54.9033 54.0652 55.3447 53.4355C56.4448 52.1855 57.7349 51.0957 58.9351 49.9055C60.1348 48.7156 61.395 47.5857 62.6851 46.4656C64.2148 45.1155 65.625 43.5156 67.085 42.0256L71.915 37.1055C72.915 36.1055 73.915 35.1055 74.855 34.1055C76.3149 32.5457 77.855 31.0056 79.1748 29.3755C80.1895 28.0989 81.1279 26.7632 81.9849 25.3755C82.1748 25.0757 82.3447 24.7656 82.5449 24.4756C82.8848 23.9556 83.145 23.6355 83.4849 23.4756C83.8501 23.4824 84.2144 23.5159 84.5747 23.5757C84.7847 23.5757 85.0049 23.5757 85.1851 23.5757C85.3647 23.5757 85.6948 23.7756 85.835 24.1956C85.9043 24.4529 85.9243 24.7207 85.895 24.9856C85.8716 25.2427 85.7935 25.4917 85.665 25.7156C84.1162 28.4185 82.1904 30.8867 79.9448 33.0457C78.3247 34.7056 76.6348 36.3057 74.9448 37.9255L74.875 37.8655Z" fill-rule="evenodd" fill="currentColor"/>
	<path d="M58.0854 66.5857C59.3555 66.8557 60.5952 67.2058 61.8252 67.5857C62.2754 67.7158 62.7354 67.8157 63.1851 67.9758C64.7339 68.5593 66.2349 69.2612 67.6753 70.0757C68.3154 70.4458 68.9751 70.7656 69.6152 71.0757C70.0415 71.2942 70.4468 71.552 70.8252 71.8457C71.1733 72.1953 71.4697 72.5925 71.7051 73.0256C71.8555 73.2957 71.6152 73.4658 71.1851 73.5757C70.6812 73.7161 70.1533 73.75 69.6353 73.6758C69.4287 73.6309 69.2344 73.542 69.0654 73.4158L68.5454 73.0757L67.4351 72.4258L65.1553 71.1257C64.1714 70.6428 63.1343 70.2769 62.0654 70.0356C60.9053 69.6858 59.7251 69.3958 58.5352 69.1357C57.7954 68.9958 57.0552 68.8557 56.3052 68.7556L54.6055 68.5657C54.0352 68.5657 53.4653 68.4958 52.8955 68.4958C52.0171 68.5564 51.1445 68.6833 50.2852 68.8757C50.0952 68.8757 49.9053 68.9758 49.7153 69.0056C49.0054 69.0056 48.7153 68.8457 48.5654 68.1458C48.5654 67.9958 48.4653 67.8557 48.4351 67.7258C48.3496 67.207 48.6426 66.7 49.1353 66.5156C49.9268 66.1882 50.7695 66.002 51.6255 65.9658C52.4907 65.9006 53.3599 65.9006 54.2251 65.9658C55.5239 66.0605 56.8164 66.231 58.0952 66.4758L58.0854 66.5857Z" fill-rule="evenodd" fill="currentColor"/>
	<path d="M65.1748 49.1555L52.0151 59.4756C50.415 60.7356 48.895 62.0654 47.2852 63.3154C45.8267 64.335 44.4854 65.512 43.2852 66.8254C42.9736 67.1523 42.6396 67.4565 42.2852 67.7356C42.1748 67.8354 42.1548 67.8455 42.125 67.8555C42.0903 67.8843 42.0601 67.918 42.0352 67.9556C41.9351 68.0854 41.8149 68.2256 41.7148 68.3755C41.2852 68.9756 40.9551 69.7156 40.5352 70.3755C39.7109 71.8838 38.9922 73.4475 38.3853 75.0554L38.145 75.6655L37.8652 76.4456L37.1353 78.3555C36.6948 79.5854 36.2949 80.8154 35.8652 81.7456C35.5703 82.3879 35.1938 82.9895 34.7451 83.5356C34.5781 83.7734 34.3398 83.9519 34.0649 84.0454L33.9048 84.0454C33.9048 84.1755 33.9048 84.0454 33.9048 84.1155L33.8252 84.1155C33.7295 84.085 33.6357 84.0481 33.5449 84.0056C33.3633 83.9158 33.1953 83.8013 33.0449 83.6655C32.8853 83.5356 32.7549 83.4055 32.6152 83.2856C32.4839 83.1353 32.3604 82.9783 32.2451 82.8154C32.0103 82.4985 31.7998 82.1643 31.6152 81.8154C31.3896 81.4392 31.189 81.0483 31.0151 80.6455C30.8682 80.199 30.7085 79.7488 30.5352 79.2954C30.335 78.6855 30.2148 77.9556 30.0151 77.2954L29.7549 76.1956C29.6548 75.8555 29.585 75.3655 29.5352 75.1956L29.2451 73.6755C29.1216 73.177 29.0449 72.6682 29.0151 72.1555L28.7949 69.2356C28.7485 68.7771 28.7319 68.3162 28.7451 67.8555C28.7417 67.4636 28.7085 67.0723 28.645 66.6855C28.645 66.4756 28.645 66.3755 28.645 66.2456C28.6479 66.0989 28.7007 65.9578 28.7949 65.8455C29.1816 65.4648 29.7822 65.4065 30.2349 65.7056C31.1465 66.1965 31.9414 66.8789 32.5649 67.7056C33.29 68.6453 33.7866 69.7407 34.0151 70.9055C34.105 71.4255 34.2251 71.9055 34.2651 72.4656L34.2651 74.7756C34.2651 74.9556 34.2651 74.9055 34.2651 74.9055C34.2231 75.0046 34.2231 75.1165 34.2651 75.2156C34.3252 75.3455 34.3652 75.3455 34.4951 75.2156L34.605 75.0654C34.605 75.0654 34.605 75.0654 34.6548 74.9456L34.7148 74.7556L34.9551 73.9956C35.2949 72.9956 35.6548 71.9956 36.0752 70.9956C36.3252 70.3855 36.585 69.7756 36.8652 69.1655C37.0151 68.8555 37.1548 68.5454 37.3149 68.2356C37.4751 67.9255 37.6748 67.6355 37.8652 67.3354C38.2773 66.7 38.7354 66.095 39.2349 65.5256C39.4175 65.3467 39.6113 65.1797 39.8149 65.0256L40.1851 64.7356C40.4326 64.532 40.6929 64.345 40.9648 64.1755C41.5049 63.8254 42.0752 63.5056 42.585 63.1755L44.0151 61.7656L46.8652 59.2156L59.4048 48.1355L63.2749 44.7156C64.5752 43.5955 65.875 42.4756 67.165 41.3354C71.0752 37.8955 74.9951 34.4355 78.7051 30.8354C80.1353 29.4255 81.4951 27.9756 82.8252 26.5056C84.1548 25.0356 85.4351 23.5056 86.7349 22.0554C87.2949 21.3855 87.895 20.7856 88.5151 20.1755C89.3169 19.3408 90.2246 18.6145 91.2148 18.0156C91.5249 17.8379 91.8633 17.7161 92.2148 17.6555C92.5474 17.6226 92.8823 17.6226 93.2148 17.6555C93.4849 17.6555 93.7749 17.6555 93.9648 17.6555C94.4951 17.7056 94.4551 19.4456 93.1152 21.5454C92.6353 22.3455 92.1152 23.0854 91.5952 23.8555L90.8052 25.0056C90.5352 25.3855 90.2251 25.7256 89.9351 26.0854C88.6548 27.5188 87.375 28.9121 86.0952 30.2656C84.7949 31.6055 83.4551 32.9255 82.0952 34.2656L78.0151 38.1255C73.855 41.9055 69.6182 45.6089 65.3052 49.2356L65.1748 49.1555Z" fill-rule="evenodd" fill="currentColor"/>
	<path d="M70.4253 35.9158C67.0918 37.9158 63.7583 39.9158 60.4253 41.9158C59.2153 42.6558 58.0752 43.4956 56.8652 44.2256L44.0752 51.9558C42.165 53.0857 40.3149 54.3257 38.4951 55.5557C36.1592 57.1492 33.7246 58.592 31.2051 59.8757C30.415 60.2656 30.3052 59.9358 30.645 59.1357C31.1914 57.9043 31.957 56.7827 32.9053 55.8257L34.4951 54.3557L35.2949 53.6057L36.1553 52.9458C37.3018 52.0657 38.4619 51.2058 39.6353 50.3657C40.8149 49.5256 41.9854 48.6758 43.2251 47.9158C44.4653 47.1558 45.7153 46.3557 47.0151 45.6858C50.0649 43.9856 52.9551 41.7957 55.9351 39.8557C59.2153 37.7256 62.5352 35.6458 65.835 33.5557L71.9551 29.7058C75.0254 27.7058 78.1553 25.8457 81.1553 23.8057C83.4854 22.2256 85.6953 20.5457 87.9951 18.9558C88.5054 18.6057 88.9951 18.2356 89.5151 17.9558C91.5151 16.7456 92.5151 16.8357 93.3149 17.3958C93.5146 17.5115 93.7051 17.6418 93.8853 17.7856C94.145 18.0356 94.125 18.3958 93.8853 18.8657C93.6074 19.4871 93.2061 20.0449 92.7051 20.5056C91.8149 21.4158 90.8252 22.1558 89.855 22.9956C88.8853 23.8357 87.855 24.6057 86.855 25.4058C84.8013 27.0115 82.6543 28.4939 80.4253 29.8457C77.145 31.9458 73.7852 33.9658 70.4253 36.0457L70.4253 35.9158Z" fill-rule="evenodd" fill="currentColor"/>
	<path d="M63.5552 70.1655C62.2998 69.7227 61.0171 69.3621 59.7153 69.0857C59.2354 68.9656 58.7153 69.0156 58.2554 68.9155C57.4053 68.7256 56.5449 68.6558 55.665 68.5256C54.7856 68.418 53.9009 68.3613 53.0151 68.3557C52.2324 68.3606 51.4531 68.4614 50.6953 68.6558C49.7505 68.989 48.7568 69.1646 47.7554 69.1755C47.4253 69.1755 47.2554 68.3257 47.3252 67.4756C47.395 66.6257 47.7354 65.7456 48.3252 65.5857C50.5142 65.0381 52.7939 64.9597 55.0151 65.3557C56.3452 65.5857 57.7354 65.4756 59.085 65.6655C60.5664 65.8813 62.0278 66.2156 63.4551 66.6655C64.335 66.9556 65.2051 67.2356 66.0552 67.5657C67.355 68.0356 68.585 68.6755 69.8452 69.2256C70.8506 69.603 71.8291 70.0474 72.7749 70.5557C72.9653 70.6956 73.1753 70.8157 73.355 70.9756C74.0054 71.6057 74.0752 71.9756 73.7949 72.5757C73.7466 72.7058 73.6895 72.8325 73.625 72.9556C73.2861 73.3594 72.7344 73.5142 72.2354 73.3457C71.7852 73.2456 71.2949 73.1956 70.8452 73.1157C70.418 73.0266 70.0044 72.8821 69.6152 72.6855L67.2153 71.6855C66.0034 71.1614 64.7612 70.7104 63.4951 70.3357L63.5552 70.1655Z" fill-rule="evenodd" fill="currentColor"/>
	<path d="M85.9453 39.6458C85.4253 40.8159 84.9453 42.0059 84.4355 43.1958C83.9253 44.3857 83.4355 45.5659 82.9556 46.7759C82.6055 47.6458 82.3755 48.5659 82.0352 49.4458C80.8354 52.5459 79.6953 55.6858 78.7754 58.8757C78.3955 60.3557 78.0151 61.7358 77.7153 63.1658C77.5352 64.0759 77.3755 64.9958 77.2354 65.9058C77.0283 66.7834 76.8682 67.6714 76.7554 68.5659C76.7554 69.0059 76.5151 69.1758 76.0151 68.7058C75.375 67.9404 74.9688 67.0063 74.8452 66.0159C74.7983 64.01 74.9116 62.0034 75.1855 60.0159C75.5601 58.0728 76.0918 56.1631 76.7754 54.3059C77.5854 52.0659 78.0454 49.6558 78.7754 47.3059C79.5854 44.7759 80.4355 42.3059 81.4556 39.7959C82.0654 38.2859 82.7153 36.7959 83.3555 35.2759C84.3555 32.9958 85.4355 30.7559 86.4653 28.5159C86.8853 27.6458 87.2354 26.7559 87.6152 25.8657C87.9614 24.959 88.376 24.0796 88.8555 23.2358C89.0752 22.8657 89.2456 22.4758 89.5054 22.1157C90.4453 20.7859 91.0654 20.5559 92.0151 20.9258C92.2383 20.9961 92.4556 21.083 92.6655 21.1858C93.3252 21.5759 93.4155 22.4458 93.0254 23.4358C92.4355 24.9258 92.0254 26.5259 91.2354 27.9958L89.1152 32.5957C88.1152 34.9158 87.0054 37.2659 86.0552 39.6658L85.9453 39.6458Z" fill-rule="evenodd" fill="currentColor"/>
	<path d="M53.4653 39.5654L37.8652 45.9656C35.9653 46.7456 34.1353 47.6555 32.2354 48.4355L22.2354 52.5557L21.0151 53.0754L20.395 53.3555L19.9053 53.5754L18.8154 53.9956C18.0654 54.3057 17.2251 54.6555 16.3452 55.0654C16.145 55.1555 15.9551 55.2456 15.7754 55.3455C15.6797 55.3914 15.5918 55.4521 15.5151 55.5256C15.5752 55.5256 15.6851 55.5256 15.7754 55.5256L16.9253 55.6055C17.7251 55.6555 18.5454 55.7056 19.2852 55.7856C19.5254 55.7856 19.7651 55.8354 19.9951 55.8755C20.0654 55.8755 20.0752 55.8755 20.2051 55.8755L20.605 55.9656L21.395 56.1455C22.4624 56.3984 23.5088 56.7329 24.5254 57.1455C25.5942 57.5718 26.603 58.1367 27.5254 58.8254C28.4961 59.5854 29.2368 60.5996 29.665 61.7556C29.9351 62.4756 29.8154 62.8555 29.5952 62.9255C29.375 62.9956 28.9551 62.7957 28.355 62.5854C27.5977 62.353 26.8071 62.248 26.0151 62.2756C25.1235 62.1904 24.2422 62.0161 23.3853 61.7556C22.5269 61.4883 21.6514 61.2778 20.7651 61.1255C20.3052 61.0457 19.8452 60.9656 19.375 60.9055L19.0151 60.8455L18.2354 60.7356C17.6953 60.7356 17.125 60.6755 16.5654 60.6455L14.915 60.4456L13.2051 60.2756L11.4351 60.1355L10.5454 60.0754C10.2754 60.0659 10.0073 60.0291 9.74512 59.9656C9.0459 59.8271 8.38477 59.5405 7.80518 59.1255C7.4707 58.9294 7.22119 58.6157 7.10498 58.2456C7.03809 58.0083 7.00781 57.762 7.01514 57.5156C7.03125 57.376 7.03125 57.2351 7.01514 57.0955C6.99512 56.9597 6.99512 56.8215 7.01514 56.6855C7.11719 55.9263 7.46924 55.2227 8.01514 54.6855C8.55127 54.1135 9.18896 53.6458 9.89502 53.3057L10.2153 53.1355L10.7554 52.9956C11.0952 52.9055 11.4951 52.8154 11.7554 52.7256L13.2153 52.1055L16.0254 50.9456L17.3853 50.4456L18.0151 50.1855L18.3052 50.0754L18.4854 50.0056C23.1851 48.1455 27.8252 45.7056 32.4854 43.5854L48.0752 36.6555L57.605 32.3555C62.3853 30.1555 67.2754 28.1355 71.9653 25.8154C73.7852 24.9255 75.5552 23.9656 77.3052 22.9856L82.5952 20.2056C83.375 19.7957 84.1152 19.3655 84.9053 18.9656C85.6953 18.5654 86.2354 18.3057 86.7451 18.0754C87.187 17.9058 87.6416 17.772 88.105 17.6755C88.6841 17.541 89.2861 17.541 89.8652 17.6755C90.0903 17.717 90.3174 17.7471 90.5454 17.7656C90.8853 17.8154 90.8652 18.2656 90.4854 18.8955C89.9292 19.7461 89.2559 20.5137 88.4854 21.1755C85.4854 23.4255 82.4053 25.5056 79.1851 27.5056C75.8853 29.3354 72.4854 31.0457 69.0552 32.7256C66.5054 33.9556 64.0151 35.2056 61.355 36.3555L53.5254 39.6956L53.4653 39.5654Z" fill-rule="evenodd" fill="currentColor"/>
	<defs/>
</svg>
