<svg width="24" height="24" viewBox="0 0 110 110" fill="none" xmlns="http://www.w3.org/2000/svg" xmlns:xlink="http://www.w3.org/1999/xlink">
	<path d="M78.0601 74.1199C75.4854 76.6157 72.5195 78.6729 69.2803 80.21C66.1162 81.6887 62.7808 82.7668 59.3501 83.4199C56.9072 83.9387 54.4253 84.2498 51.9302 84.3499C43.1533 84.552 34.5122 82.1584 27.0898 77.47C23.8013 75.3833 20.8618 72.7915 18.3799 69.79C16.7695 67.8574 15.4243 65.7185 14.3799 63.4299C13.4634 61.0916 12.9951 58.6016 13 56.0898C13 54.54 14.0698 54.6899 15.3999 55.6799C17.0889 56.9844 18.543 58.5671 19.7002 60.3599C21.3979 64.0771 23.9097 67.365 27.0498 69.98C30.3335 72.7458 34.0498 74.9521 38.0498 76.51C42.98 78.51 48.73 78.75 54.1299 78.27C60.1045 77.8774 65.8521 75.8313 70.73 72.3599C73.689 70.1729 76.1841 67.4197 78.0698 64.26C80.9907 59.3347 82.7646 53.8147 83.2603 48.1099C83.5649 43.707 83.269 39.283 82.3799 34.96C82.2002 34.01 81.9502 33.0898 81.77 32.1399C81.3301 28.5798 81.4399 27.3999 82.9199 26.22C83.1909 25.9524 83.478 25.7019 83.7803 25.47C84.6201 24.8699 86.3901 26.04 87.4102 28.78C88.2251 30.8174 88.8057 32.9412 89.1401 35.1099C89.5229 37.3215 89.7534 39.5569 89.8301 41.8C89.9888 46.4338 89.5078 51.0676 88.3999 55.5698C86.7666 62.6079 83.2275 69.0603 78.1699 74.22L78.0601 74.1199Z" fill-rule="evenodd" fill="currentColor"/>
	<path d="M32.3398 28.5999C32.71 31.8398 34.7197 35.9299 37.8301 37.3599C39.1699 37.9797 41.1597 37.5898 41.5 35.8699C41.96 32.8381 41.3408 29.7412 39.75 27.1199C39.1118 25.864 38.1655 24.7905 37 23.9998C36.1475 23.5537 35.1357 23.53 34.2637 23.9358C33.3911 24.3416 32.7578 25.1304 32.5498 26.0698C31.6499 29.1599 36.4697 30.4797 37.3696 27.3899L37.48 26.9897L36.3301 28.4897L35.7397 28.6599L34 27.9299C35.6899 29.2798 37.1299 32.3398 36.6997 34.5398L40.3696 33.0398C38.7798 32.0581 37.6875 30.4414 37.3696 28.5999C37.3281 27.2368 36.2329 26.1414 34.8696 26.0999C33.4937 26.1106 32.3809 27.2236 32.3696 28.5999L32.3398 28.5999Z" fill-rule="evenodd" fill="currentColor"/>
	<path d="M47.48 21.9099C47.8599 25.22 49.9399 29.6399 53.1201 31.1299C54.46 31.75 56.46 31.3501 56.79 29.6299C57.2354 26.4717 56.5747 23.2566 54.9199 20.53C54.2803 19.2524 53.3232 18.1609 52.1401 17.3601C51.2974 16.9133 50.2959 16.8806 49.4258 17.2715C48.5557 17.6626 47.915 18.4333 47.6899 19.3601C46.79 22.46 51.6201 23.78 52.5098 20.6899L52.6299 20.29L51.48 21.79L50.8799 21.96L49.1099 21.23C50.8701 22.6399 52.4102 26.01 51.9697 28.29L55.6401 26.8C54.1201 26.0901 52.6401 23.54 52.48 21.8999C52.1201 18.74 47.1099 18.7 47.48 21.8999L47.48 21.9099Z" fill-rule="evenodd" fill="currentColor"/>
	<defs/>
</svg>
