<svg width="24" height="24" viewBox="0 0 110 110" fill="none" xmlns="http://www.w3.org/2000/svg" xmlns:xlink="http://www.w3.org/1999/xlink">
	<path d="M66.6963 84.2715C66.5596 84.5186 66.3877 84.7441 66.186 84.9414C65.9771 85.146 65.729 85.3057 65.4561 85.4111C65.2129 85.5044 64.9565 85.5586 64.6963 85.5713C64.416 85.5713 64.1362 85.5713 63.8662 85.5713C63.436 85.4414 63.0161 85.3213 62.5864 85.1714L61.2861 84.5415C60.8662 84.3613 60.4062 84.0513 60.0762 83.8716C59.7461 83.6914 59.5962 83.5815 59.3662 83.4214C58.7563 83.0312 58.1162 82.7114 57.5464 82.2715C56.9761 81.8315 56.5464 81.5015 56.0762 81.0815L54.7261 79.7612C54.2964 79.2915 53.8564 78.8413 53.4463 78.3716C53.0361 77.9014 52.6064 77.4414 52.2163 76.9512C51.4961 76.1113 50.7861 75.2612 50.146 74.3516C49.2549 73.188 48.6919 71.8066 48.5161 70.3516C48.4561 69.9111 48.7661 69.9111 49.2163 70.1416C49.7827 70.4629 50.2847 70.8867 50.6963 71.3916C52.0869 73.5938 53.7988 75.5757 55.7764 77.2715C56.3911 77.8193 57.0615 78.3022 57.7764 78.7114C58.1362 78.9214 58.4761 79.1514 58.8262 79.3716L59.8262 80.0215C60.416 80.3813 61.0962 80.7915 61.6064 81.0815C61.8657 81.2583 62.1367 81.4185 62.416 81.5615C62.5845 81.6675 62.771 81.7422 62.9663 81.7812C63.104 81.8232 63.251 81.7539 63.3062 81.6216C63.3516 81.5024 63.3818 81.3779 63.396 81.2515C63.4053 80.9731 63.3853 80.6953 63.3364 80.4214C63.3364 80.1514 63.0562 79.1216 62.8364 78.3115C62.6162 77.5015 62.3462 76.6313 62.0664 75.8013C61.5308 74.5205 61.0635 73.2119 60.666 71.8813C60.5674 71.5771 60.4902 71.2666 60.436 70.9512C60.3418 70.4961 60.4092 70.0225 60.626 69.6113C60.8037 69.3091 61.1021 69.0981 61.4463 69.0312C61.6128 68.9751 61.7832 68.9316 61.9561 68.9014C62.5264 68.9014 62.9561 69.2715 63.376 69.9014C63.9062 70.9014 64.376 71.9014 64.9561 72.9912C65.5361 74.0815 65.7563 75.2915 66.1362 76.5112L66.5161 77.9014L66.6963 78.6216L66.916 79.6216C67.3364 81.4512 67.4062 83.2114 66.7661 84.3115L66.6963 84.2715Z" fill-rule="evenodd" fill="currentColor"/>
	<path d="M24.2461 40.3511C25.583 42.0703 27.0151 43.7129 28.5361 45.271L30.876 47.6411L31.7158 48.481C32.0645 48.8154 32.3701 49.1914 32.626 49.6011C32.8623 49.9346 32.9492 50.3511 32.8662 50.751L32.3159 51.8511L31.4458 52.731L30.896 53.3213C30.5859 53.6411 30.2861 53.9712 29.9858 54.3213C28.7158 55.751 27.5859 57.3213 26.4561 58.8613C24.4521 61.5947 22.6982 64.5034 21.2158 67.5513C20.8462 68.311 20.5059 69.0811 20.2158 69.8613C19.9258 70.6411 19.7559 71.041 19.646 71.4111C19.502 71.7798 19.457 72.1797 19.5161 72.5713C19.606 72.8013 19.856 72.7012 19.9961 72.5713L20.4658 72.2412L23.4658 70.1211C24.7559 69.2412 26.0659 68.3911 27.396 67.5913C29.1187 66.5513 30.9131 65.6357 32.7661 64.8511L34.1958 64.311C34.6758 64.1411 35.1958 64.0112 35.6558 63.8711C36.1499 63.7207 36.6602 63.6299 37.1758 63.6011C37.6865 63.5356 38.2012 63.5059 38.7158 63.5112C39.9961 63.5112 39.8062 63.771 38.8662 64.3613C38.6362 64.521 38.356 64.6812 38.0459 64.8911L37.0459 65.6211C36.2139 66.1489 35.3447 66.6172 34.4458 67.021C32.6973 67.8242 31.001 68.7363 29.3662 69.751C27.686 70.7646 26.0361 71.8213 24.416 72.9214C23.5161 73.5312 23.1162 73.8213 21.2158 75.231C20.8262 75.5112 20.4458 75.7212 20.0659 75.9712L19.7759 76.1611C19.7041 76.2217 19.6182 76.2627 19.5259 76.2812L19.0659 76.3911C18.8091 76.4487 18.543 76.4487 18.2861 76.3911C18.0122 76.3657 17.7466 76.2842 17.5059 76.1514C16.9844 75.8203 16.6221 75.2881 16.5059 74.6812C16.4316 74.3535 16.4014 74.0171 16.416 73.6812C16.416 73.481 16.416 73.311 16.416 73.1011L16.5161 72.481C16.6714 71.6411 16.8955 70.8149 17.186 70.0112C17.3262 69.5713 17.4058 69.4214 17.5059 69.1514C17.606 68.8813 17.7158 68.6611 17.8159 68.4214C19.8672 63.7764 22.4478 59.3843 25.5059 55.3311C26.186 54.4712 26.876 53.6211 27.5962 52.8013C27.9561 52.3911 28.3159 51.9712 28.686 51.5811L29.2261 51.001L29.436 50.8013L29.6162 50.6313L29.6958 50.5513C29.6958 50.5513 29.6958 50.481 29.6958 50.4512C29.6958 50.4214 29.4858 50.2114 29.376 50.0913L27.8159 48.541C26.6362 47.3711 25.4658 46.1611 24.3462 44.9111C22.0127 42.3867 19.998 39.5859 18.3462 36.5713C17.7144 35.4028 17.1855 34.1816 16.7661 32.9214C16.6558 32.6011 16.5762 32.271 16.4858 31.9214C16.3799 31.4927 16.2964 31.0586 16.2358 30.6211C16.1763 30.1836 16.1465 29.7427 16.146 29.3013C16.1558 28.8911 16.2026 28.4829 16.2861 28.0811C16.3564 27.3521 16.7168 26.6821 17.2861 26.2212C17.9995 26.2334 18.6943 26.4521 19.2861 26.8511C20.0059 27.2812 20.7461 27.8511 21.4761 28.3711L23.0059 29.4712C26.0889 31.6743 29.4263 33.4976 32.9458 34.9014C33.7061 35.1914 34.4561 35.4214 35.2261 35.6611C36.646 36.1011 37.5859 36.2812 38.2261 36.5312C38.7446 36.7158 39.2158 37.0127 39.606 37.4014C39.7705 37.5317 39.9243 37.6758 40.0659 37.8311C40.2358 38.061 40.0059 38.3013 39.3862 38.5513C38.4624 38.8892 37.4717 39.0024 36.4961 38.8813C34.6187 38.6909 32.7715 38.271 30.9961 37.6313C29.2046 37.0034 27.4741 36.2134 25.8262 35.271C24.2061 34.3311 22.6362 33.271 21.1162 32.271L19.9858 31.4712L19.4761 31.1011L19.4761 31.231C19.5459 31.5112 19.6162 31.791 19.7061 32.0811C19.8867 32.6616 20.0972 33.2324 20.3359 33.791C21.3862 36.1353 22.7305 38.3364 24.3359 40.3413L24.2461 40.3511Z" fill-rule="evenodd" fill="currentColor"/>
	<path d="M64.5659 19.9312C64.604 19.8647 64.6343 19.7944 64.6562 19.7212C64.688 19.6621 64.7085 19.5977 64.7163 19.5312C64.7466 19.4785 64.7466 19.4136 64.7163 19.3613C64.6348 19.313 64.5391 19.2954 64.4463 19.311C64.3208 19.3228 64.1968 19.3462 64.0762 19.3813L63.9761 19.3813L63.5459 19.5913L62.626 20.0713C61.626 20.6211 60.626 21.3311 59.626 21.9512C56.0464 24.1538 52.6963 26.71 49.626 29.5811C48.2788 30.8672 47.0474 32.269 45.9463 33.771C44.4961 35.6411 43.2759 37.6411 41.9463 39.561C41.5259 40.1611 40.9463 39.8213 40.5762 38.9214C40.125 37.7046 40.1938 36.356 40.7661 35.1914C41.3643 34.0156 42.0322 32.877 42.7661 31.7812C43.5205 30.729 44.3423 29.7271 45.2261 28.7812C46.9541 26.856 48.8628 25.1016 50.9263 23.541C53.396 21.6812 55.7363 19.4912 58.3662 17.7114C59.0962 17.2212 59.8359 16.7114 60.5962 16.3013C60.9761 16.0811 61.356 15.8613 61.7563 15.6514C62.3462 15.3311 62.9561 15.001 63.5659 14.7412C64.6372 14.2334 65.811 13.9805 66.9961 14.001C67.5254 14.0156 68.0366 14.1978 68.4561 14.521C68.6519 14.6948 68.7886 14.9258 68.8462 15.1812L69.1162 15.9014C69.1836 16.0581 69.2305 16.2227 69.2563 16.3911L69.2563 17.3911C69.3003 17.7397 69.3003 18.0928 69.2563 18.4414C69.126 19.1514 69.0659 19.8613 68.876 20.5713C68.686 21.2812 68.5361 21.7012 68.3662 22.2212L67.8462 23.6411C66.6963 26.6411 65.2959 29.4814 64.2959 32.3911C63.5659 34.5786 63.1191 36.8501 62.9663 39.1514C62.9663 39.6313 62.9663 40.1514 62.9663 40.5811C62.916 42.3213 62.7759 42.7812 61.5562 43.3413C61.2861 43.4614 61.0161 43.6211 60.7461 43.7212C59.8359 44.061 58.936 43.291 58.646 41.6011C58.3438 39.1719 58.5308 36.707 59.1963 34.3511C59.7964 32.0815 60.562 29.8594 61.4863 27.7012C62.1528 26.168 62.7959 24.6377 63.416 23.1113C63.7461 22.3511 63.9561 21.6211 64.2261 20.8813L64.376 20.3511L64.4463 20.0811L64.4463 20.0112L64.5659 19.9312Z" fill-rule="evenodd" fill="currentColor"/>
	<path d="M12.626 28.9609C12.4209 28.0146 12.3135 27.0498 12.3062 26.0811C12.3242 25.6826 12.3643 25.2852 12.4263 24.8911C12.5161 24.541 12.5962 24.1909 12.6963 23.8413C12.9316 23.3145 13.272 22.8418 13.6963 22.4512C13.9341 22.2407 14.2183 22.0898 14.5264 22.0112C14.7676 21.9458 15.0161 21.9092 15.2661 21.9014C15.8135 21.8896 16.3599 21.9604 16.8862 22.1113C17.605 22.3408 18.2959 22.6489 18.9463 23.0312L19.606 23.4609L20.2661 23.9409L21.5962 24.9409L22.9062 25.9409C23.1162 26.1113 23.3359 26.271 23.5464 26.4512L23.9062 26.751C27.0542 29.561 30.4741 32.0503 34.1162 34.1812C35.729 35.0522 37.4414 35.7236 39.2163 36.1812C41.4316 36.8164 43.707 37.2188 46.0063 37.3813C46.7363 37.4312 46.7461 37.9712 46.166 38.6611C45.2676 39.6182 44.0366 40.1943 42.7261 40.271C41.355 40.3184 39.9824 40.2383 38.626 40.0312C37.2949 39.7627 35.9922 39.3672 34.7363 38.8511C32.2847 37.8535 29.9644 36.5605 27.8262 35.001C26.5659 34.0811 25.2461 33.2212 23.9263 32.3613L21.9263 31.061L20.9263 30.3911L20.6763 30.2012L20.5264 30.0811C20.166 29.7612 19.7461 29.3813 19.2563 28.9912C19.0083 28.771 18.7241 28.5947 18.416 28.4712C18.2163 28.4111 18.1562 28.5811 18.1162 28.6909C18.0635 28.8145 18.0366 28.9473 18.0361 29.0811C18.0112 29.2769 18.0112 29.4751 18.0361 29.6709C18.084 30.1211 18.1709 30.5664 18.2964 31.001C18.3662 31.231 18.4463 31.4712 18.5264 31.7212L18.7661 32.3213L19.0562 33.0112C20.2573 35.8311 21.7593 38.5137 23.5361 41.0112C24.9482 42.8447 26.5884 44.4912 28.416 45.9111L29.626 46.771C30.8662 48.061 31.0659 48.6611 30.7363 49.9014C30.6562 50.1909 30.6162 50.481 30.5264 50.7412C30.3638 51.1689 29.9795 51.4722 29.5264 51.5312C28.8428 51.6108 28.1504 51.5 27.5264 51.2109C26.3555 50.7666 25.2769 50.1089 24.3462 49.271C23.4189 48.4956 22.5503 47.6533 21.7461 46.751C20.1538 44.936 18.7373 42.9741 17.5161 40.8911C16.6006 39.3457 15.7729 37.7495 15.0361 36.1113C14.8462 35.7012 14.666 35.291 14.4863 34.8711L14.2261 34.271L13.916 33.4912C13.3359 32.0132 12.8613 30.4961 12.4961 28.9512L12.626 28.9609Z" fill-rule="evenodd" fill="currentColor"/>
	<path d="M61.1157 74.7515C59.856 71.7515 58.666 68.8413 57.5059 65.5713C57.2612 64.8931 57.0542 64.2021 56.8857 63.5015C56.7036 62.8491 56.5962 62.1777 56.5659 61.5015C56.5303 60.9004 56.6016 60.2974 56.7759 59.7212C56.853 59.4482 56.9712 59.189 57.126 58.9512C57.126 58.9512 57.126 58.8213 57.2656 58.791C57.2998 58.7222 57.3438 58.6582 57.396 58.6011C57.4893 58.4976 57.5933 58.4033 57.7061 58.3213C58.7529 57.6475 59.9971 57.3477 61.2358 57.4712C61.9258 57.4712 62.686 57.4712 63.3257 57.5513L64.666 57.6411C66.9658 57.8013 69.2158 57.7812 71.436 57.7812C73.9565 57.8223 76.4746 57.5913 78.9458 57.0913C79.5356 56.9614 80.126 56.8013 80.6958 56.6211L81.5356 56.3213L82.1357 56.0713C82.6333 55.8623 83.0903 55.5679 83.4858 55.2012C83.7212 55.0034 83.9209 54.7666 84.0757 54.5015C84.0757 54.3413 83.8857 54.3013 83.7656 54.2515C83.6362 54.2026 83.502 54.166 83.3657 54.1411C83.0957 54.0713 82.8057 54.0215 82.5059 53.9712L81.4458 53.8013C77.8359 53.291 74.146 52.8013 70.5459 51.9214C68.2153 51.3232 65.9502 50.4922 63.7856 49.4414C61.5859 48.3765 59.6128 46.896 57.9761 45.0811C56.9761 43.8911 57.5859 43.7212 58.856 44.0811C60.126 44.4414 62.2158 45.1611 64.4961 46.0811C66.4521 46.8604 68.478 47.4531 70.5459 47.8511C72.6357 48.2812 74.7358 48.7515 76.896 49.061C77.9761 49.2314 79.0557 49.3711 80.1558 49.5215L81.8159 49.7314L83.166 49.8911C83.7061 49.8911 84.2461 50.0015 84.7759 50.0713C85.7632 50.1738 86.7383 50.375 87.686 50.6714C88.3311 50.8916 88.9067 51.2778 89.356 51.791C89.5459 51.9893 89.7041 52.2153 89.8257 52.4614C89.9932 52.7661 90.0596 53.1162 90.0156 53.4614C89.9668 54.1543 89.7241 54.8193 89.3159 55.3813C88.936 55.9014 88.4858 56.3813 88.0356 56.9111C87.209 57.7319 86.2896 58.4536 85.2959 59.061L84.5059 59.5215C84.3735 59.6025 84.2368 59.6758 84.0957 59.7412L83.7358 59.9214C83.3657 60.0913 82.9858 60.2515 82.606 60.4014C81.1206 60.9785 79.5884 61.4272 78.0259 61.7412C75.0122 62.3306 71.9463 62.6089 68.876 62.5713C67.2261 62.5713 65.5957 62.4912 63.9858 62.4214C63.5156 62.4214 63.3359 62.4214 63.2158 62.4214L62.7656 62.4214L62.2959 62.4214C62.1558 62.4214 61.936 62.4214 61.8657 62.561C61.7974 62.8574 61.7974 63.165 61.8657 63.4614L61.9761 63.9312L62.0356 64.1714L62.1958 64.6914C62.666 66.1514 63.1958 67.6211 63.8359 69.0811C65.3359 72.6812 66.9761 76.2612 68.5859 79.8813C69.3359 81.6411 70.4961 83.9814 70.666 85.6211C70.6997 86.0039 70.6997 86.3887 70.666 86.7715C70.6743 87.147 70.5259 87.5098 70.2559 87.7715C69.5151 88.2061 68.6636 88.4146 67.8057 88.3711C65.8018 88.2378 63.8472 87.6895 62.0659 86.7612C60.644 86.0767 59.2705 85.2944 57.9561 84.4214C53.8325 81.856 50.2656 78.4893 47.4658 74.5215C46.8403 73.6099 46.2886 72.6504 45.8159 71.6514C45.2163 70.2783 44.9326 68.7886 44.9858 67.291C45.0024 66.4917 45.3677 65.7393 45.9858 65.2314C46.2144 65.002 46.4697 64.8003 46.7461 64.6313C47.6357 64.2314 48.416 65.6313 49.5156 67.8311C49.7559 68.2314 49.9561 68.6313 50.1958 69.0112L50.5659 69.5913C50.666 69.791 50.7856 69.9814 50.9058 70.1714C51.3613 70.9565 51.8623 71.7144 52.4058 72.4414C53.5283 73.9409 54.7832 75.3364 56.1558 76.6113C57.5547 77.9297 59.0596 79.1304 60.6558 80.2012C61.4561 80.7212 62.2759 81.2012 63.106 81.6914C63.3159 81.811 63.5259 81.9111 63.7358 82.0215L64.0356 82.1714C64.0356 82.1714 64.0957 82.2412 64.1157 82.1714C64.1157 82.1714 64.1157 82.1714 64.1157 82.0811L63.8857 81.541L62.8857 79.3511L60.8857 74.9312L61.1157 74.7515Z" fill-rule="evenodd" fill="currentColor"/>
	<path d="M18.3359 71.8516C18.0439 72.1758 17.8228 72.5571 17.686 72.9712C17.686 73.0713 17.626 73.2412 17.686 73.2915C17.7461 73.3413 17.9062 73.2915 18.0562 73.1914C18.1562 73.1304 18.2534 73.0635 18.3462 72.9912C18.4829 72.8599 18.6377 72.749 18.8062 72.6611C18.7358 72.7612 20.126 71.8516 21.0259 71.2915C21.9263 70.7314 23.0259 70.0615 24.0259 69.4912C26.0259 68.3115 28.1362 67.2812 30.2261 66.2412C32.1162 65.3716 33.9761 64.4214 35.9263 63.6313C36.5562 63.3813 37.1763 63.1313 37.8262 62.9312C38.4761 62.7314 39.146 62.5615 39.8262 62.3911C40.5112 62.269 41.2021 62.1821 41.896 62.1313C42.0723 62.1162 42.2495 62.1162 42.4263 62.1313L42.9658 62.2612L44.0259 62.5513C44.8862 62.8315 44.6958 63.1611 44.0259 63.8413C43.6958 64.1914 43.2461 64.6514 42.7861 65.1514C42.335 65.6211 41.77 65.9658 41.146 66.1514C40.0361 66.5513 38.936 66.9814 37.8159 67.4912C36.6958 68.0015 35.5562 68.4912 34.4062 68.9312C32.126 69.9312 29.8359 71.1313 27.4961 72.2812C26.8062 72.6411 26.106 73.0015 25.416 73.4111C24.7261 73.8213 24.0762 74.2612 23.416 74.7012L21.3159 76.1714L18.0059 78.5815L16.8862 79.3911L16.4858 79.6411C16.376 79.6411 16.2661 79.7212 16.1562 79.7612L15.5059 80.0112C15.3071 80.0962 15.1035 80.1694 14.896 80.2314L14.4062 80.3115C14.1172 80.377 13.8223 80.4106 13.5259 80.4111C13.3345 80.4067 13.1465 80.3589 12.9761 80.2715C12.7681 80.1562 12.5952 79.9868 12.4761 79.7812C12.1055 79.0459 11.9463 78.2222 12.0161 77.4014C12.0874 76.3364 12.292 75.2852 12.626 74.2715C12.876 73.5112 13.1562 72.7314 13.4858 71.9614L14.436 69.7715C14.9263 68.7715 15.436 67.7715 15.9658 66.7715C17.5898 63.7837 19.3794 60.8892 21.3262 58.1016L23.4761 54.8213C24.1616 53.7026 24.9199 52.6304 25.7461 51.6113C26.1162 51.1714 26.4561 50.7114 26.8662 50.2915C27.3726 49.6909 28.0132 49.2183 28.7358 48.9111C29.2637 48.79 29.8169 48.8501 30.3062 49.0815C30.5396 49.1572 30.7671 49.251 30.9858 49.3613C31.3062 49.5513 31.4062 49.9111 31.396 50.4214C31.3906 51.0732 31.2109 51.7119 30.876 52.2715L29.166 55.2114C28.606 56.2114 27.916 57.0815 27.2861 58.0215C26.0059 59.8911 24.7158 61.7915 23.4658 63.7212C22.4995 65.1279 21.5625 66.5615 20.6562 68.0215C20.2061 68.7515 19.7759 69.4912 19.356 70.2314L18.7461 71.3613L18.4761 71.8716L18.3359 71.8516Z" fill-rule="evenodd" fill="currentColor"/>
	<defs/>
</svg>
