<svg width="24" height="24" viewBox="0 0 110 110" fill="none" xmlns="http://www.w3.org/2000/svg" xmlns:xlink="http://www.w3.org/1999/xlink">
	<path d="M31.9526 30.1436C24.4326 33.0435 18.3228 67.7134 24.8428 74.2935C33.2925 82.8335 74.5625 75.5735 74.5625 75.5735C74.5625 75.5735 78.1128 80.2634 72.0928 81.4036C66.0728 82.5435 19.3926 85.1736 17.0024 78.0234C14.6128 70.8735 16.4526 42.9236 20.1328 35.2234C23.8125 27.5234 31.9526 30.1436 31.9526 30.1436Z" fill-rule="evenodd" fill="currentColor"/>
	<path d="M33.7529 84.3235C31.2529 84.1633 28.7529 83.9734 26.2529 83.7234C24.9927 83.6035 23.7329 83.4333 22.4326 83.2834C21.793 83.2034 21.1328 83.1035 20.4326 82.9734L19.8926 82.8635C19.6196 82.8108 19.3491 82.7441 19.0825 82.6633C18.5469 82.5085 18.0376 82.2725 17.5728 81.9634L16.7329 81.1533C16.4927 80.8535 16.2827 80.5134 16.063 80.1533C15.853 79.8687 15.6846 79.5557 15.563 79.2234C15.4424 78.9558 15.3354 78.6821 15.2427 78.4033C14.9316 77.4231 14.6978 76.4202 14.543 75.4033C14.2661 73.5688 14.1089 71.7183 14.0728 69.8635C13.9727 66.6733 13.9526 63.5334 14.1626 60.4133C14.5229 55.3635 15.1626 50.4133 15.9229 45.4133C16.3228 42.9233 16.7729 40.4133 17.313 37.9634C17.5825 36.7234 17.8726 35.4834 18.2227 34.2234C18.3926 33.5935 18.6025 32.9634 18.813 32.3135C18.9551 31.9004 19.1221 31.4963 19.313 31.1035C19.521 30.6768 19.7651 30.2686 20.043 29.8835C20.5229 29.4072 21.0991 29.0391 21.7329 28.8035C22.0576 28.6726 22.3921 28.5657 22.7329 28.4834C22.9829 28.4033 23.2227 28.3435 23.4526 28.2935C25.9004 27.7834 28.374 27.4062 30.8628 27.1633C33.3027 26.9033 35.7227 26.7034 38.1426 26.5635C41.2427 26.3735 44.3726 26.2234 47.5229 26.3235C50.8262 26.3052 54.0977 26.969 57.1328 28.2734C57.5444 28.4775 57.8911 28.7927 58.1328 29.1833C58.2983 29.3911 58.2983 29.6858 58.1328 29.8936C57.5264 30.3103 56.8481 30.6118 56.1328 30.7834C55.0381 31.1755 53.9229 31.5093 52.793 31.7834C52.0879 31.9595 51.3735 32.093 50.6528 32.1833C49.8604 32.2341 49.0654 32.2341 48.2729 32.1833C43.8774 31.9888 39.4751 32.0188 35.0825 32.2734C32.8726 32.4033 30.6626 32.5635 28.5127 32.8035C27.4326 32.9233 26.3628 33.0735 25.3726 33.2534L24.6626 33.3936L24.3325 33.4634L24.2026 33.4634C24.1401 33.449 24.0752 33.449 24.0127 33.4634C23.9741 33.4951 23.9404 33.5322 23.9126 33.5735C23.9126 33.5735 23.9126 33.5735 23.9126 33.6436L23.813 33.8635L23.6226 34.3835C23.3726 35.0835 23.1426 35.8535 22.9126 36.6335C22.4727 38.1934 22.063 39.8135 21.6826 41.4434C20.1348 48.8735 19.2515 56.4268 19.043 64.0134C18.9326 66.6436 18.9028 69.2734 19.043 71.8335C19.1064 73.0757 19.2568 74.312 19.4927 75.5334C19.5405 75.8142 19.6074 76.0916 19.6929 76.3635C19.7534 76.6191 19.8335 76.8699 19.9326 77.1135C19.9834 77.2749 20.0542 77.4292 20.1426 77.5735C20.2178 77.6892 20.3047 77.7964 20.4028 77.8936C20.5371 77.9705 20.6821 78.0278 20.8325 78.0635L21.2329 78.1533L21.7529 78.2534C22.4629 78.3835 23.2026 78.4834 23.9526 78.5835C25.4526 78.7434 26.9526 78.8635 28.5127 78.9634C33.6729 79.3035 38.8726 79.4734 44.063 79.5134C51.9053 79.688 59.7515 79.4141 67.563 78.6934C68.9067 78.543 70.2417 78.3228 71.563 78.0334L72.043 77.9233L72.3525 77.8335L72.8628 77.6633C73.0264 77.5974 73.1836 77.5171 73.3325 77.4233C73.4966 77.3459 73.6045 77.1843 73.6128 77.0034C73.6519 76.5845 73.6519 76.1626 73.6128 75.7434C73.6128 74.9834 73.4727 74.1934 73.4028 73.4133L72.8325 68.6436C72.6626 67.3335 72.4429 66.0535 72.3027 64.7234C72.0317 62.9661 71.9946 61.1804 72.1929 59.4133C72.3438 58.4231 72.8838 57.5342 73.6929 56.9434C74.0186 56.6624 74.374 56.4175 74.7529 56.2134C75.3525 55.9934 75.9028 56.3735 76.3926 57.2134C77.0508 58.4597 77.4775 59.8149 77.6528 61.2134C78.1025 63.9133 78.5127 66.6633 78.8525 69.4834C79.0127 70.8936 79.1626 72.3135 79.2627 73.7834L79.3428 74.8936L79.3428 75.4734L79.3428 75.7634C79.3535 75.9133 79.3535 76.0637 79.3428 76.2134L79.2627 78.2134C79.1367 78.8484 78.9766 79.4758 78.7827 80.0935L78.5527 80.4934C78.4229 80.5835 78.3726 80.7434 78.2627 80.8535C78.1528 80.9634 78.0928 81.1135 77.9927 81.2334L77.6528 81.5435C77.1665 81.9617 76.6162 82.2993 76.0229 82.5435C75.7217 82.6824 75.4106 82.7993 75.0928 82.8936C74.7729 83.0034 74.4429 83.0935 74.0928 83.1733C73.7427 83.2534 73.3828 83.3535 73.1626 83.3936L72.5728 83.5034C71.043 83.7935 69.5728 83.9734 68.1328 84.1235C65.2329 84.4133 62.3828 84.5635 59.5229 84.6633C50.9229 84.9333 42.3525 84.6633 33.7627 84.2935L33.7529 84.3235Z" fill-rule="evenodd" fill="currentColor"/>
	<path d="M74.7827 34.8835C72.9331 36.5635 71.083 38.2634 69.2729 39.9934C68.9429 40.3135 68.6431 40.6636 68.3428 40.9934C68.0283 41.3452 67.6948 41.679 67.3428 41.9934C64.853 44.0935 62.3428 46.1836 59.9331 48.3535C58.8628 49.3535 57.8828 50.3535 56.9331 51.4236C55.6899 52.7871 54.3018 54.0112 52.793 55.0735C52.3027 55.3835 51.9331 54.9336 51.793 54.1335C51.5806 53.1326 51.7261 52.0886 52.2031 51.1836L53.7529 48.8235C54.293 48.0635 54.9229 47.3835 55.5229 46.6836C56.7705 45.2673 58.1069 43.9314 59.5229 42.6836C61.1499 41.0671 62.667 39.3433 64.063 37.5234C65.8027 35.7034 67.6328 33.9336 69.4331 32.1536L72.7827 28.8635C74.4429 27.1736 76.2231 25.5835 77.7827 23.8635C78.3906 23.1826 78.9546 22.4646 79.4731 21.7134C80.0327 20.9934 80.603 20.2734 81.1831 19.5835C81.4062 19.2471 81.6875 18.9524 82.0127 18.7134C83.2627 17.8635 83.9131 17.8635 84.9131 18.4534C85.1401 18.5708 85.3604 18.7012 85.5728 18.8435C86.2231 19.3335 86.3027 20.2935 85.9229 21.4436C84.8228 24.9036 82.4629 27.2134 80.2031 29.7134C78.5127 31.5334 76.6431 33.2134 74.8828 35.0034L74.7827 34.8835Z" fill-rule="evenodd" fill="currentColor"/>
	<path d="M83.6226 22.1736L83.6226 21.8235C83.6226 21.7737 83.6226 21.7537 83.6226 21.7136C83.6226 21.6736 83.6226 21.6436 83.6226 21.5935C83.6299 21.4971 83.6299 21.4001 83.6226 21.3035C83.6226 21.0835 83.3628 21.0935 83.1426 21.0535L83.2026 21.0535L82.9727 21.1235L82.5029 21.2837C82.1758 21.4116 81.8418 21.5217 81.5029 21.6135C79.1729 22.0835 76.7129 22.5137 74.333 23.1536C73.2783 23.4539 72.2432 23.8179 71.2329 24.2437C70.0166 24.9192 68.6943 25.3823 67.3228 25.6135C66.8926 25.6135 66.4727 24.6836 66.3926 23.6135C66.313 22.5435 66.5728 21.2437 67.333 20.8635C68.6494 20.187 70.0132 19.6057 71.4126 19.1235C72.8496 18.7048 74.3228 18.4236 75.813 18.2837C76.7212 18.1736 77.6182 17.9829 78.4927 17.7136L79.8228 17.3335C80.2827 17.2437 80.7427 17.1736 81.2129 17.1135L81.9927 17.0337L82.4126 17.0337C82.6084 17.0586 82.8071 17.0586 83.0029 17.0337C83.3848 16.9888 83.7705 16.9888 84.1528 17.0337C84.5112 17.0325 84.8696 17.0625 85.2227 17.1235C85.5693 17.1775 85.9062 17.282 86.2227 17.4336C86.3823 17.5032 86.5176 17.6179 86.6128 17.7637C86.7183 17.8904 86.8149 18.0239 86.9028 18.1636C87.2231 18.7878 87.4268 19.4658 87.5029 20.1636C87.5728 20.6335 87.6328 21.0735 87.6626 21.4937L87.6626 22.4236L87.7329 24.2737C87.793 26.1235 87.7329 27.9736 87.8027 29.8135C87.8628 31.2336 88.1729 32.6436 88.3228 34.0935C88.395 34.4231 88.395 34.7642 88.3228 35.0935C88.2739 35.5532 88.0776 35.9849 87.7627 36.3235C87.4072 36.5681 86.9932 36.7131 86.563 36.7437C86.3477 36.7832 86.1309 36.8098 85.9126 36.8235C85.5459 36.8335 85.189 36.7048 84.9126 36.4636C84.5518 36.2153 84.2705 35.8682 84.1025 35.4636L83.7026 34.5337C83.6094 34.2344 83.5488 33.926 83.5229 33.6135C83.4429 33.0037 83.3926 32.3835 83.3628 31.7637C83.3027 30.5137 83.3628 29.2437 83.3628 27.9636C83.3628 26.0735 83.4927 24.1536 83.4429 22.3135L83.6226 22.1736Z" fill-rule="evenodd" fill="currentColor"/>
	<defs/>
</svg>
