<svg width="24" height="24" viewBox="0 0 110 110" fill="none" xmlns="http://www.w3.org/2000/svg" xmlns:xlink="http://www.w3.org/1999/xlink">
	<path d="M57.5898 52.4922C59.6143 50.8613 61.4014 48.9561 62.8999 46.8325C63.46 46.0625 63.8999 45.2124 64.3999 44.3921C66.1499 41.4512 67.5176 38.2993 68.4697 35.0122C68.8994 33.543 69.2104 32.0415 69.3999 30.5225C69.5298 29.5225 69.5698 28.5825 69.6899 27.6123C69.8022 26.6562 69.8555 25.6948 69.8501 24.7324C69.8501 24.2222 70 24.1323 70.4199 24.6123C70.9644 25.4121 71.3076 26.3315 71.4199 27.2925C71.5532 28.3438 71.5767 29.4062 71.4897 30.4624C71.4297 31.5122 71.3198 32.5625 71.1597 33.6021C71.0015 34.646 70.7876 35.6812 70.52 36.7021C70.2144 37.7212 69.8535 38.7227 69.4399 39.7021C68.5146 42.1074 67.4253 44.4463 66.1797 46.7021C64.7378 49.1724 62.9688 51.436 60.9199 53.4321C59.6704 54.668 58.3149 55.792 56.8701 56.7925C54.6738 58.2861 52.3276 59.5464 49.8701 60.5522C48.9199 60.9521 47.96 61.3125 47 61.6421C46.0259 61.9907 45.0215 62.2485 44 62.4121C43.5601 62.4824 43.1201 62.5723 42.6699 62.6123C42.0664 62.7056 41.4497 62.6538 40.8701 62.4624C40.5259 62.3398 40.2427 62.0889 40.0801 61.7622C39.9883 61.6313 39.9111 61.4902 39.8501 61.3423C39.71 60.8823 40.3599 60.4722 41.46 60.0825C43.1001 59.6821 44.6997 59.0825 46.3198 58.6123C47.1201 58.3623 47.9199 58.0825 48.6797 57.7622C49.4399 57.4424 50.25 57.0625 51.0098 56.6724C53.3149 55.521 55.4736 54.0977 57.4399 52.4321L57.5898 52.4922Z" fill-rule="evenodd" fill="currentColor"/>
	<path d="M64.04 54.5527C60.0195 57.9624 55.3081 60.4595 50.23 61.8726L47.5098 62.5825C46.5996 62.7925 45.6699 62.9424 44.75 63.0825C38.2544 63.79 31.6865 62.7974 25.6899 60.2026C23.1064 59.0693 20.644 57.6792 18.3398 56.0527C16.8535 55.0073 15.4731 53.8184 14.2197 52.5024C13.0195 51.1025 12.0967 49.4873 11.5 47.7427C11.1699 46.6426 11.5 46.7427 12.1997 47.3726C12.7095 47.7891 13.2402 48.1797 13.79 48.5425L14.8496 49.2124C15.2397 49.4424 15.6196 49.6924 16 49.9526C17.2568 51.0112 18.5942 51.9707 20 52.8228C20.71 53.2427 21.4399 53.6426 22.1699 54.0425C22.8999 54.4424 23.6099 54.8623 24.3496 55.2324C25.7974 56.0112 27.3018 56.6797 28.8496 57.2324L31.21 57.9624L33.6396 58.5625C37.6855 59.2363 41.8286 59.0352 45.79 57.9727C50.1445 56.9482 54.2334 55.0161 57.79 52.3027C59.9707 50.6133 61.8945 48.6157 63.5 46.3726C65.9937 42.9473 67.7007 39.0137 68.5 34.8525C68.7866 33.2529 68.9004 31.627 68.8398 30.0024C68.8398 29.2026 68.75 28.4126 68.6396 27.6226C68.5298 26.8325 68.4697 26.0728 68.3999 25.2925C68.3296 24.5127 68.1396 23.9824 68.0098 23.2925C68.0098 22.9824 67.9097 22.7026 67.8799 22.4326C67.8496 22.1626 67.8799 21.9224 67.8799 21.7026C67.8716 21.312 67.9155 20.9219 68.0098 20.5425C68.1562 19.8989 68.5073 19.3203 69.0098 18.8926C69.2397 18.6626 69.4497 18.3926 69.6797 18.2026C70.1289 17.8989 70.7266 17.9399 71.1299 18.3027C71.4946 18.5273 71.8306 18.7959 72.1299 19.1025C72.4805 19.5073 72.7954 19.9424 73.0698 20.4023C73.9175 21.9683 74.521 23.6543 74.8599 25.4023C75.2637 27.1421 75.4253 28.9287 75.3398 30.7124C75.1787 34.332 74.457 37.9048 73.1997 41.3027C72.2944 43.8779 71.0645 46.3281 69.54 48.5928L68.3398 50.2427C67.9399 50.7925 67.4497 51.2427 67.0098 51.8027C66.1177 52.8276 65.1626 53.7964 64.1499 54.7026L64.04 54.5527Z" fill-rule="evenodd" fill="currentColor"/>
	<path d="M16.54 62.3022C16.4302 62.0425 16.8501 62.0425 17.6001 62.1123C17.9521 62.1597 18.292 62.2749 18.6001 62.4526C18.7417 62.6387 18.8623 62.8398 18.96 63.0522C18.96 63.1924 18.8501 64.6426 18.8301 65.1323C18.7944 65.5835 18.6865 66.0259 18.5098 66.4424C18.2275 67.2725 17.8936 68.084 17.5098 68.8726C17.4185 69.0459 17.2925 69.1992 17.1401 69.3223C16.6279 69.7456 16.2437 70.3032 16.0298 70.9326C15.9673 71.0405 15.9673 71.1743 16.0298 71.2822C15.8931 72.0171 15.585 72.7095 15.1299 73.3022C14.6753 73.6675 14.2476 74.0654 13.8501 74.4922C13.79 74.4922 13.8501 74.6426 13.6201 74.6323C13.1899 74.6323 13.1802 74.8022 13.0801 74.9424C12.9385 75.1411 12.7744 75.3228 12.5898 75.4824C12.4185 75.5625 12.2368 75.6196 12.0498 75.6523C11.7964 75.645 11.5498 75.5654 11.3398 75.4224C11.2202 75.2725 10.9502 75.2725 10.73 75.2124L10.5098 75.1426C10.2422 74.5044 10.0703 73.8306 10 73.1426C10 73.1426 10.6401 70.9922 10.6802 70.7524C10.7202 70.5122 10.8398 70.5522 10.9502 70.4624C11.0601 70.3726 11.48 68.7725 11.52 68.7222C11.71 68.4326 11.7402 68.0522 12.21 67.9126C12.2998 67.9126 12.3101 67.8125 12.3398 67.7524C12.6133 67.2212 12.9487 66.7241 13.3398 66.2725C13.5098 66.0225 13.6299 65.7524 13.7998 65.5024C13.7998 65.5024 13.8999 65.4424 13.9502 65.4023C14.0142 65.3696 14.0718 65.3257 14.1201 65.2725C14.5352 64.7158 14.8999 64.1235 15.21 63.5024C15.27 63.3525 15.9502 62.8726 15.9902 62.6924C16.0298 62.5122 16.5698 62.4624 16.54 62.3022Z" fill-rule="evenodd" fill="currentColor"/>
	<path d="M42.4199 71.3823C42.2803 71.1826 42.5801 70.9824 43.1001 70.8022C43.3472 70.749 43.603 70.749 43.8501 70.8022C43.9961 70.9082 44.1362 71.022 44.27 71.1426C44.3398 71.2124 44.8101 72.3726 45.0303 72.7622C45.2163 73.1206 45.3477 73.5049 45.4199 73.9023L46 76.2324C46.04 76.4067 46.04 76.5879 46 76.7622C45.855 77.3535 45.855 77.9712 46 78.5625C46 78.6626 46 78.7622 46.1499 78.8525C46.4429 79.4756 46.5571 80.168 46.48 80.8525C46.23 81.3926 46.1299 81.9224 45.8999 82.4624C45.8999 82.5425 45.8999 82.6226 45.73 82.6924C45.3101 82.8823 45.3701 83.0425 45.3398 83.2021C45.2607 83.4546 45.1387 83.6909 44.98 83.9023C44.8389 84.0415 44.6812 84.1621 44.5103 84.2622C44.2798 84.3486 44.0283 84.3623 43.79 84.3022C43.6299 84.2124 43.3901 84.3022 43.1899 84.3022L42.9702 84.3022C42.4146 83.9146 41.9106 83.4575 41.4702 82.9424C41.3799 82.9424 41.0801 81.0425 40.9902 80.8325C40.8999 80.6226 41.04 80.6025 41.1001 80.4824C41.1602 80.3623 40.79 78.9424 40.79 78.8823C40.8398 78.5723 40.6899 78.2622 41.0303 77.8823C41.0664 77.8242 41.0664 77.7505 41.0303 77.6924C41.0361 77.1343 41.1309 76.5811 41.3101 76.0522C41.3564 75.7778 41.3833 75.5005 41.3901 75.2222C41.3901 75.2222 41.4502 75.1226 41.4702 75.0723C41.5093 75.0117 41.5366 74.9434 41.5498 74.8726C41.6533 74.2104 41.71 73.542 41.7202 72.8726C41.7202 72.7222 42.0498 71.9824 42.02 71.8125C41.9902 71.6426 42.4902 71.4722 42.4199 71.3823Z" fill-rule="evenodd" fill="currentColor"/>
	<path d="M67.8604 61.4624C67.54 61.3823 67.7803 60.9526 68.3901 60.3525C68.6899 60.0933 69.0269 59.8809 69.3901 59.7227C69.6221 59.6875 69.856 59.6709 70.0903 59.6724C70.1802 59.6724 71.25 60.3325 71.6504 60.5127C72.0278 60.6885 72.3672 60.9365 72.6504 61.2427C73.2002 61.8125 73.8203 62.3423 74.4102 62.8926C74.5415 63.0229 74.644 63.1797 74.71 63.3525C74.9434 63.9468 75.3604 64.4512 75.9004 64.7925C75.9902 64.8525 76.04 64.9424 76.23 64.9023C76.4204 64.8623 77.79 65.9023 77.8701 66.1924C78.0601 66.7627 78.3301 67.2627 78.5703 67.8022C78.5703 67.8823 78.7002 67.8926 78.5703 68.0825C78.3804 68.5225 78.5703 68.5825 78.6602 68.7227C78.8101 68.9224 78.9185 69.1504 78.98 69.3926C78.9854 69.6108 78.9482 69.8281 78.8701 70.0322C78.7168 70.3135 78.5054 70.5591 78.25 70.7524C78.02 70.8325 77.8701 71.1323 77.6904 71.3525C77.6313 71.4355 77.564 71.5127 77.4902 71.5825C76.7988 71.6895 76.0933 71.666 75.4102 71.5127L74.5103 70.8623C74.0601 70.5425 73.6001 70.2026 73.5103 70.1426C73.4204 70.0825 73.3804 69.9224 73.3403 69.7822C73.3003 69.6426 71.96 68.7822 71.9204 68.6924C71.73 68.4126 71.3901 68.2627 71.4302 67.6924C71.4302 67.5923 71.3804 67.5625 71.3301 67.5127C70.9307 67.0747 70.5938 66.5835 70.3301 66.0522C70.1509 65.811 69.957 65.5806 69.75 65.3623C69.75 65.3623 69.75 65.2427 69.75 65.1826C69.7393 65.1089 69.7153 65.0381 69.6802 64.9727C69.2441 64.3882 68.7734 63.8306 68.27 63.3022C68.1504 63.1724 67.98 62.3022 67.8301 62.1523C67.6802 62.0024 67.9902 61.4824 67.8604 61.4624Z" fill-rule="evenodd" fill="currentColor"/>
	<path d="M79.5 36.3726C79.23 36.4526 79.1602 36.0327 79.27 35.3726C79.3442 35.0781 79.4658 34.7979 79.6299 34.5425C79.8003 34.4126 79.9702 34.2827 80.1099 34.1924C80.25 34.1025 81.3203 33.9927 81.71 33.8428C82.061 33.7432 82.4253 33.6958 82.79 33.7026C83.5303 33.7026 84.3003 33.6025 85.0601 33.6323C85.2334 33.6401 85.4004 33.6992 85.54 33.8027C86.0542 34.1201 86.6587 34.2603 87.2603 34.2026C87.3599 34.2026 87.46 34.2026 87.5801 34.0825C88.2578 33.8955 88.9766 33.9199 89.6401 34.1523L91.1602 35.3027C91.23 35.3525 91.3301 35.3027 91.3501 35.5225C91.3501 36.0225 91.5801 35.9927 91.75 36.0825C91.9946 36.1958 92.21 36.3633 92.3799 36.5728C92.4761 36.7793 92.5273 37.0044 92.5303 37.2324C92.478 37.5615 92.3555 37.8755 92.1699 38.1523C92.0186 38.3955 91.9102 38.6626 91.8501 38.9424L91.73 39.2324C91.2578 39.6304 90.7368 39.9663 90.1802 40.2324C90.1802 40.2324 89.75 40.2324 89.2803 40.2324C88.8101 40.2324 88.3301 40.2324 88.2803 40.2324C88.23 40.2324 88.0898 40.1226 88 40.0327C87.9102 39.9424 86.5 40.0327 86.4399 40.0327C86.1602 39.9126 85.8301 40.0327 85.6001 39.5527C85.5503 39.4624 85.4902 39.4727 85.4302 39.4624C84.8955 39.3623 84.3794 39.1802 83.8999 38.9224C83.6401 38.8164 83.3726 38.7295 83.1001 38.6626C83.1001 38.6626 83.02 38.5728 82.9702 38.5327C82.9355 38.439 82.8726 38.3589 82.79 38.3027C82.1621 38.0396 81.5215 37.8096 80.8701 37.6128C80.7202 37.6128 80.1001 36.9727 79.8701 36.9326C79.6401 36.8926 79.6099 36.3027 79.5 36.3726Z" fill-rule="evenodd" fill="currentColor"/>
	<defs/>
</svg>
