<svg width="24" height="24" viewBox="0 0 110 110" fill="none" xmlns="http://www.w3.org/2000/svg" xmlns:xlink="http://www.w3.org/1999/xlink">
	<path d="M45.9399 14.3384C47.8198 15.8982 49.0298 16.7283 48.3296 17.9983C47.9297 18.7083 48.3296 19.5884 48.3296 20.3782C48.4248 23.2031 48.6753 26.0208 49.0796 28.8184C49.2598 30.2483 49.52 31.6782 49.73 33.1082C49.9399 34.5383 50.1499 35.9783 50.3896 37.4182C50.8198 39.8882 51.48 42.3184 52.0698 44.7583C53.0698 48.8782 54.2397 52.9683 55.3896 57.0483C55.9697 59.1482 56.3296 61.2983 56.8999 63.3982C58.0898 67.5784 59.54 71.6782 60.9497 75.7483C61.3296 76.7483 61.6196 77.8484 61.9497 78.8882C62.2798 79.9282 62.5 81.0283 62.8296 82.0784C63.0796 82.8481 63.54 83.5183 63.8296 84.2583C64.0098 84.5586 64.0674 84.9167 63.9897 85.2583C63.6797 86.3384 61.9897 87.5083 59.9897 87.8384C58.5 88.0884 57.3296 88.0183 56.9897 87.2883C56.1396 85.5984 55.3101 83.8982 54.5298 82.1882C53.75 80.4783 53.1597 78.7083 52.5298 76.9583C52 75.5483 51.2197 74.2283 50.7397 72.7983C49.9697 70.5684 49.4097 68.2683 48.7397 66.0083C47.79 62.6882 47.0996 59.2983 46.2397 56.0083C45.2397 52.1782 44.2397 48.3582 43.3799 44.4883C43.1099 43.2583 42.8696 42.0383 42.6396 40.7983C42.2998 38.8682 41.9697 36.9282 41.6899 34.9683C41.54 33.9683 41.4297 32.9683 41.3496 32.0283C41.27 31.0884 41.1899 30.0283 41.1099 29.0283C40.7173 24.7639 40.7773 20.47 41.29 16.2183C41.3394 15.8752 41.4297 15.5396 41.5601 15.2183C42.3296 13.8982 42.79 13.7283 45.9399 14.3384Z" fill-rule="evenodd" fill="currentColor"/>
	<path d="M18 56.7683C18.7402 54.5283 19.5801 53.0784 20.9199 53.5383C21.6899 53.8083 22.4502 53.3083 23.2202 53.2183C28.3799 52.5583 33.4502 51.5984 38.4702 50.5283C40.6084 49.9893 42.7178 49.3418 44.79 48.5884C46.5601 48.0383 48.2798 47.3184 50.02 46.6782C51.7598 46.0383 53.4702 45.2783 55.1899 44.5283C56.9102 43.7783 58.8301 43.2783 60.6001 42.5283C64.1499 40.9583 67.6001 38.9282 71.3599 37.5283C73.27 36.7583 75.3599 36.2983 77.2998 35.6382C78.0103 35.3413 78.7046 35.0076 79.3799 34.6382C79.6851 34.4604 80.0562 34.4382 80.3799 34.5784C81.4502 35.0884 82.5498 37.3982 82.9102 39.7783C83.1802 41.5884 83.1699 42.8982 82.54 43.1482C79.5801 44.1982 76.6602 45.4983 73.7598 46.8982C73.1714 47.1987 72.6006 47.5327 72.0498 47.8982C71.4858 48.2339 70.9014 48.5344 70.2998 48.7983C68.3901 49.5884 66.3901 50.2283 64.4102 50.9583C61.5098 52.0283 58.5498 53.0183 55.5898 54.0583C53.8999 54.6482 52.21 55.2783 50.5 55.8284C48.79 56.3782 47.0601 56.8982 45.3301 57.4282C44.2402 57.7683 43.1201 57.9783 42.0098 58.2383C38.541 59.0398 35.0234 59.6143 31.48 59.9583C27.8198 60.3484 24.1602 60.6182 20.48 60.7183C20.2085 60.7432 19.9351 60.7229 19.6699 60.6582C18.5898 60.3682 18.4199 59.9683 18 56.7683Z" fill-rule="evenodd" fill="currentColor"/>
	<defs/>
</svg>
